<svg width="860" height="12" viewBox="0 0 860 12" version="1.1" xmlns="http://www.w3.org/2000/svg" xmlns:xlink="http://www.w3.org/1999/xlink">
    <title>Group</title>
    <desc>Created using Figma</desc>
    <g id="Canvas" transform="translate(-42927 10086)">
        <g id="Group">
            <mask id="mask0_alpha" mask-type="alpha">
                <g id="Rectangle">
                    <path d="M 0 0L 860 0L 860 45L 0 45L 0 0Z" transform="translate(42927 -10103)" fill="#C4C4C4"></path>
                </g>
            </mask>
            <g id="Vector" mask="url(#mask0_alpha)">
                <path d="M 0 1.5C 8.41092 1.5 12.543 3.40242 16.775 5.36126C 21.1761 7.3983 25.6889 9.5 34.5679 9.5L 34.5679 6.5C 26.3245 6.5 22.2761 4.6017 18.0352 2.63874C 13.6252 0.597575 9.03457 -1.5 0 -1.5L 0 1.5ZM 34.5679 9.5C 43.6025 9.5 48.1931 7.40242 52.6031 5.36126C 56.844 3.3983 60.8924 1.5 69.1358 1.5L 69.1358 -1.5C 60.2568 -1.5 55.744 0.601702 51.3429 2.63874C 47.1109 4.59758 42.9788 6.5 34.5679 6.5L 34.5679 9.5ZM 69.1358 1.5C 77.5467 1.5 81.6788 3.40242 85.9108 5.36126C 90.3118 7.3983 94.8247 9.5 103.704 9.5L 103.704 6.5C 95.4603 6.5 91.4119 4.6017 87.171 2.63874C 82.761 0.597575 78.1704 -1.5 69.1358 -1.5L 69.1358 1.5ZM 103.704 9.5C 112.738 9.5 117.329 7.40243 121.739 5.36126C 125.98 3.3983 130.028 1.5 138.272 1.5L 138.272 -1.5C 129.393 -1.5 124.88 0.601702 120.479 2.63874C 116.247 4.59757 112.115 6.5 103.704 6.5L 103.704 9.5ZM 138.272 1.5C 146.683 1.5 150.815 3.40242 155.047 5.36126C 159.448 7.3983 163.961 9.5 172.84 9.5L 172.84 6.5C 164.596 6.5 160.548 4.6017 156.307 2.63874C 151.897 0.597575 147.306 -1.5 138.272 -1.5L 138.272 1.5ZM 172.84 9.5C 181.874 9.5 186.465 7.40242 190.875 5.36126C 195.116 3.3983 199.164 1.5 207.407 1.5L 207.407 -1.5C 198.528 -1.5 194.016 0.601702 189.615 2.63874C 185.382 4.59758 181.25 6.5 172.84 6.5L 172.84 9.5ZM 207.407 1.5C 215.818 1.5 219.95 3.40243 224.182 5.36126C 228.583 7.3983 233.096 9.5 241.975 9.5L 241.975 6.5C 233.732 6.5 229.684 4.6017 225.443 2.63874C 221.033 0.597575 216.442 -1.5 207.407 -1.5L 207.407 1.5ZM 241.975 9.5C 251.01 9.5 255.601 7.40242 260.01 5.36126C 264.251 3.3983 268.3 1.5 276.543 1.5L 276.543 -1.5C 267.664 -1.5 263.151 0.601702 258.75 2.63874C 254.518 4.59758 250.386 6.5 241.975 6.5L 241.975 9.5ZM 276.543 1.5C 284.954 1.5 289.086 3.40242 293.318 5.36126C 297.719 7.3983 302.232 9.5 311.111 9.5L 311.111 6.5C 302.868 6.5 298.819 4.6017 294.578 2.63874C 290.168 0.597575 285.578 -1.5 276.543 -1.5L 276.543 1.5ZM 311.111 9.5C 320.146 9.5 324.736 7.40242 329.146 5.36126C 333.387 3.3983 337.436 1.5 345.679 1.5L 345.679 -1.5C 336.8 -1.5 332.287 0.601702 327.886 2.63874C 323.654 4.59758 319.522 6.5 311.111 6.5L 311.111 9.5ZM 345.679 1.5C 354.09 1.5 358.222 3.40242 362.454 5.36125C 366.855 7.3983 371.368 9.5 380.247 9.5L 380.247 6.5C 372.003 6.5 367.955 4.6017 363.714 2.63875C 359.304 0.597575 354.714 -1.5 345.679 -1.5L 345.679 1.5ZM 380.247 9.5C 389.281 9.5 393.872 7.40242 398.282 5.36126C 402.523 3.3983 406.571 1.5 414.815 1.5L 414.815 -1.5C 405.936 -1.5 401.423 0.601702 397.022 2.63874C 392.79 4.59758 388.658 6.5 380.247 6.5L 380.247 9.5ZM 414.815 1.5C 423.226 1.5 427.358 3.40243 431.59 5.36126C 435.991 7.3983 440.504 9.5 449.383 9.5L 449.383 6.5C 441.139 6.5 437.091 4.6017 432.85 2.63874C 428.44 0.597575 423.849 -1.5 414.815 -1.5L 414.815 1.5ZM 449.383 9.5C 458.417 9.5 463.008 7.40242 467.418 5.36126C 471.659 3.3983 475.707 1.5 483.951 1.5L 483.951 -1.5C 475.072 -1.5 470.559 0.601702 466.158 2.63874C 461.926 4.59758 457.794 6.5 449.383 6.5L 449.383 9.5ZM 483.951 1.5C 492.362 1.5 496.494 3.40242 500.726 5.36125C 505.127 7.3983 509.64 9.5 518.518 9.5L 518.518 6.5C 510.275 6.5 506.227 4.6017 501.986 2.63875C 497.576 0.597575 492.985 -1.5 483.951 -1.5L 483.951 1.5ZM 518.518 9.5C 527.553 9.5 532.144 7.40243 536.554 5.36126C 540.795 3.3983 544.843 1.5 553.086 1.5L 553.086 -1.5C 544.207 -1.5 539.695 0.601702 535.294 2.63874C 531.061 4.59757 526.929 6.5 518.518 6.5L 518.518 9.5ZM 553.086 1.5C 561.497 1.5 565.629 3.40242 569.861 5.36125C 574.262 7.3983 578.775 9.5 587.654 9.5L 587.654 6.5C 579.411 6.5 575.363 4.6017 571.122 2.63875C 566.712 0.597575 562.121 -1.5 553.086 -1.5L 553.086 1.5ZM 587.654 9.5C 596.689 9.5 601.28 7.40243 605.689 5.36126C 609.93 3.3983 613.979 1.5 622.222 1.5L 622.222 -1.5C 613.343 -1.5 608.83 0.601702 604.429 2.63874C 600.197 4.59757 596.065 6.5 587.654 6.5L 587.654 9.5ZM 622.222 1.5C 630.633 1.5 634.765 3.40242 638.997 5.36125C 643.398 7.3983 647.911 9.5 656.79 9.5L 656.79 6.5C 648.547 6.5 644.498 4.6017 640.257 2.63875C 635.847 0.597575 631.257 -1.5 622.222 -1.5L 622.222 1.5ZM 656.79 9.5C 665.825 9.5 670.415 7.40243 674.825 5.36126C 679.066 3.3983 683.115 1.5 691.358 1.5L 691.358 -1.5C 682.479 -1.5 677.966 0.601702 673.565 2.63874C 669.333 4.59757 665.201 6.5 656.79 6.5L 656.79 9.5ZM 691.358 1.5C 699.769 1.5 703.901 3.40242 708.133 5.36125C 712.534 7.3983 717.047 9.5 725.926 9.5L 725.926 6.5C 717.682 6.5 713.634 4.6017 709.393 2.63875C 704.983 0.597575 700.393 -1.5 691.358 -1.5L 691.358 1.5ZM 725.926 9.5C 734.96 9.5 739.551 7.40242 743.961 5.36125C 748.202 3.3983 752.25 1.5 760.494 1.5L 760.494 -1.5C 751.615 -1.5 747.102 0.601702 742.701 2.63875C 738.469 4.59758 734.337 6.5 725.926 6.5L 725.926 9.5ZM 760.494 1.5C 768.905 1.5 773.037 3.40243 777.269 5.36126C 781.67 7.3983 786.183 9.5 795.062 9.5L 795.062 6.5C 786.818 6.5 782.77 4.6017 778.529 2.63874C 774.119 0.597575 769.528 -1.5 760.494 -1.5L 760.494 1.5ZM 795.062 9.5C 804.096 9.5 808.687 7.40242 813.097 5.36125C 817.338 3.3983 821.386 1.5 829.63 1.5L 829.63 -1.5C 820.751 -1.5 816.238 0.601702 811.837 2.63875C 807.605 4.59758 803.473 6.5 795.062 6.5L 795.062 9.5ZM 829.63 1.5C 838.04 1.5 842.173 3.40243 846.405 5.36126C 850.806 7.3983 855.319 9.5 864.198 9.5L 864.198 6.5C 855.954 6.5 851.906 4.6017 847.665 2.63874C 843.255 0.597575 838.664 -1.5 829.63 -1.5L 829.63 1.5ZM 864.198 9.5C 873.232 9.5 877.823 7.40243 882.233 5.36126C 886.474 3.3983 890.522 1.5 898.765 1.5L 898.765 -1.5C 889.886 -1.5 885.374 0.601702 880.973 2.63874C 876.741 4.59757 872.608 6.5 864.198 6.5L 864.198 9.5ZM 898.765 1.5C 907.176 1.5 911.308 3.40242 915.54 5.36125C 919.941 7.3983 924.454 9.5 933.333 9.5L 933.333 6.5C 925.09 6.5 921.042 4.6017 916.801 2.63875C 912.391 0.597575 907.8 -1.5 898.765 -1.5L 898.765 1.5ZM 933.333 9.5C 942.368 9.5 946.959 7.40243 951.368 5.36126C 955.609 3.3983 959.658 1.5 967.901 1.5L 967.901 -1.5C 959.022 -1.5 954.509 0.601702 950.108 2.63874C 945.876 4.59757 941.744 6.5 933.333 6.5L 933.333 9.5ZM 967.901 1.5C 976.312 1.5 980.444 3.40242 984.676 5.36125C 989.077 7.3983 993.59 9.5 1002.47 9.5L 1002.47 6.5C 994.226 6.5 990.177 4.6017 985.936 2.63875C 981.526 0.597575 976.936 -1.5 967.901 -1.5L 967.901 1.5ZM 1002.47 9.5C 1011.5 9.5 1016.09 7.40242 1020.5 5.36125C 1024.75 3.3983 1028.79 1.5 1037.04 1.5L 1037.04 -1.5C 1028.16 -1.5 1023.65 0.601702 1019.24 2.63875C 1015.01 4.59758 1010.88 6.5 1002.47 6.5L 1002.47 9.5ZM 1037.04 1.5C 1045.45 1.5 1049.58 3.40243 1053.81 5.36126C 1058.21 7.3983 1062.73 9.5 1071.6 9.5L 1071.6 6.5C 1063.36 6.5 1059.31 4.6017 1055.07 2.63874C 1050.66 0.597575 1046.07 -1.5 1037.04 -1.5L 1037.04 1.5ZM 1071.6 9.5C 1080.64 9.5 1085.23 7.40242 1089.64 5.36125C 1093.88 3.3983 1097.93 1.5 1106.17 1.5L 1106.17 -1.5C 1097.29 -1.5 1092.78 0.601702 1088.38 2.63875C 1084.15 4.59758 1080.02 6.5 1071.6 6.5L 1071.6 9.5ZM 1106.17 1.5C 1114.58 1.5 1118.72 3.40242 1122.95 5.36125C 1127.35 7.3983 1131.86 9.5 1140.74 9.5L 1140.74 6.5C 1132.5 6.5 1128.45 4.6017 1124.21 2.63875C 1119.8 0.597575 1115.21 -1.5 1106.17 -1.5L 1106.17 1.5ZM 1140.74 9.5C 1149.78 9.5 1154.37 7.40242 1158.78 5.36125C 1163.02 3.3983 1167.07 1.5 1175.31 1.5L 1175.31 -1.5C 1166.43 -1.5 1161.92 0.601702 1157.52 2.63875C 1153.28 4.59758 1149.15 6.5 1140.74 6.5L 1140.74 9.5ZM 1175.31 1.5C 1183.72 1.5 1187.85 3.40243 1192.08 5.36126C 1196.48 7.3983 1201 9.5 1209.88 9.5L 1209.88 6.5C 1201.63 6.5 1197.58 4.6017 1193.34 2.63874C 1188.93 0.597575 1184.34 -1.5 1175.31 -1.5L 1175.31 1.5ZM 1209.88 9.5C 1218.91 9.5 1223.5 7.40242 1227.91 5.36125C 1232.15 3.3983 1236.2 1.5 1244.44 1.5L 1244.44 -1.5C 1235.57 -1.5 1231.05 0.601702 1226.65 2.63875C 1222.42 4.59758 1218.29 6.5 1209.88 6.5L 1209.88 9.5ZM 1244.44 1.5C 1252.86 1.5 1256.99 3.40242 1261.22 5.36125C 1265.62 7.3983 1270.13 9.5 1279.01 9.5L 1279.01 6.5C 1270.77 6.5 1266.72 4.6017 1262.48 2.63875C 1258.07 0.597575 1253.48 -1.5 1244.44 -1.5L 1244.44 1.5ZM 1279.01 9.5C 1288.05 9.5 1292.64 7.40242 1297.05 5.36125C 1301.29 3.3983 1305.34 1.5 1313.58 1.5L 1313.58 -1.5C 1304.7 -1.5 1300.19 0.601702 1295.79 2.63875C 1291.56 4.59758 1287.42 6.5 1279.01 6.5L 1279.01 9.5ZM 1313.58 1.5C 1321.99 1.5 1326.12 3.40242 1330.36 5.36125C 1334.76 7.3983 1339.27 9.5 1348.15 9.5L 1348.15 6.5C 1339.9 6.5 1335.86 4.6017 1331.62 2.63875C 1327.21 0.597575 1322.61 -1.5 1313.58 -1.5L 1313.58 1.5ZM 1348.15 9.5C 1357.18 9.5 1361.77 7.40243 1366.18 5.36126C 1370.42 3.3983 1374.47 1.5 1382.72 1.5L 1382.72 -1.5C 1373.84 -1.5 1369.32 0.601702 1364.92 2.63874C 1360.69 4.59757 1356.56 6.5 1348.15 6.5L 1348.15 9.5ZM 1382.72 1.5C 1391.13 1.5 1395.26 3.40242 1399.49 5.36125C 1403.89 7.3983 1408.4 9.5 1417.28 9.5L 1417.28 6.5C 1409.04 6.5 1404.99 4.6017 1400.75 2.63875C 1396.34 0.597575 1391.75 -1.5 1382.72 -1.5L 1382.72 1.5ZM 1417.28 9.5C 1426.32 9.5 1430.91 7.40242 1435.32 5.36125C 1439.56 3.3983 1443.61 1.5 1451.85 1.5L 1451.85 -1.5C 1442.97 -1.5 1438.46 0.601702 1434.06 2.63875C 1429.83 4.59758 1425.69 6.5 1417.28 6.5L 1417.28 9.5ZM 1451.85 1.5C 1460.26 1.5 1464.39 3.40243 1468.63 5.36126C 1473.03 7.3983 1477.54 9.5 1486.42 9.5L 1486.42 6.5C 1478.18 6.5 1474.13 4.6017 1469.89 2.63874C 1465.48 0.597575 1460.89 -1.5 1451.85 -1.5L 1451.85 1.5ZM 1486.42 9.5C 1495.45 9.5 1500.04 7.40242 1504.45 5.36125C 1508.7 3.3983 1512.74 1.5 1520.99 1.5L 1520.99 -1.5C 1512.11 -1.5 1507.6 0.601703 1503.19 2.63875C 1498.96 4.59758 1494.83 6.5 1486.42 6.5L 1486.42 9.5ZM 1520.99 1.5C 1529.4 1.5 1533.53 3.40243 1537.76 5.36126C 1542.16 7.3983 1546.68 9.5 1555.56 9.5L 1555.56 6.5C 1547.31 6.5 1543.26 4.6017 1539.02 2.63874C 1534.61 0.597575 1530.02 -1.5 1520.99 -1.5L 1520.99 1.5ZM 1555.56 9.5C 1564.59 9.5 1569.18 7.40243 1573.59 5.36126C 1577.83 3.3983 1581.88 1.5 1590.12 1.5L 1590.12 -1.5C 1581.24 -1.5 1576.73 0.601702 1572.33 2.63874C 1568.1 4.59757 1563.97 6.5 1555.56 6.5L 1555.56 9.5ZM 1590.12 1.5C 1598.53 1.5 1602.67 3.40242 1606.9 5.36125C 1611.3 7.3983 1615.81 9.5 1624.69 9.5L 1624.69 6.5C 1616.45 6.5 1612.4 4.6017 1608.16 2.63875C 1603.75 0.597576 1599.16 -1.5 1590.12 -1.5L 1590.12 1.5ZM 1624.69 9.5C 1633.73 9.5 1638.32 7.40242 1642.73 5.36125C 1646.97 3.3983 1651.02 1.5 1659.26 1.5L 1659.26 -1.5C 1650.38 -1.5 1645.87 0.601702 1641.47 2.63875C 1637.23 4.59758 1633.1 6.5 1624.69 6.5L 1624.69 9.5ZM 1659.26 1.5C 1667.67 1.5 1671.8 3.40243 1676.03 5.36126C 1680.44 7.3983 1684.95 9.5 1693.83 9.5L 1693.83 6.5C 1685.58 6.5 1681.54 4.6017 1677.29 2.63874C 1672.88 0.597575 1668.29 -1.5 1659.26 -1.5L 1659.26 1.5ZM 1693.83 9.5C 1702.86 9.5 1707.45 7.40242 1711.86 5.36125C 1716.1 3.3983 1720.15 1.5 1728.4 1.5L 1728.4 -1.5C 1719.52 -1.5 1715 0.601702 1710.6 2.63875C 1706.37 4.59758 1702.24 6.5 1693.83 6.5L 1693.83 9.5ZM 1728.4 1.5C 1736.81 1.5 1740.94 3.40243 1745.17 5.36126C 1749.57 7.3983 1754.08 9.5 1762.96 9.5L 1762.96 6.5C 1754.72 6.5 1750.67 4.6017 1746.43 2.63874C 1742.02 0.597575 1737.43 -1.5 1728.4 -1.5L 1728.4 1.5ZM 1762.96 9.5C 1772 9.5 1776.59 7.40242 1781 5.36125C 1785.24 3.3983 1789.29 1.5 1797.53 1.5L 1797.53 -1.5C 1788.65 -1.5 1784.14 0.601702 1779.74 2.63875C 1775.51 4.59758 1771.37 6.5 1762.96 6.5L 1762.96 9.5ZM 1797.53 1.5C 1805.94 1.5 1810.07 3.40242 1814.31 5.36125C 1818.71 7.3983 1823.22 9.5 1832.1 9.5L 1832.1 6.5C 1823.86 6.5 1819.81 4.6017 1815.57 2.63875C 1811.16 0.597576 1806.57 -1.5 1797.53 -1.5L 1797.53 1.5ZM 1832.1 9.5C 1841.13 9.5 1845.72 7.40243 1850.13 5.36126C 1854.37 3.3983 1858.42 1.5 1866.67 1.5L 1866.67 -1.5C 1857.79 -1.5 1853.27 0.601702 1848.87 2.63874C 1844.64 4.59757 1840.51 6.5 1832.1 6.5L 1832.1 9.5ZM 1866.67 1.5C 1875.08 1.5 1879.21 3.40242 1883.44 5.36125C 1887.84 7.3983 1892.36 9.5 1901.23 9.5L 1901.23 6.5C 1892.99 6.5 1888.94 4.6017 1884.7 2.63875C 1880.29 0.597575 1875.7 -1.5 1866.67 -1.5L 1866.67 1.5ZM 1901.23 9.5C 1910.27 9.5 1914.86 7.40243 1919.27 5.36126C 1923.51 3.3983 1927.56 1.5 1935.8 1.5L 1935.8 -1.5C 1926.92 -1.5 1922.41 0.601702 1918.01 2.63874C 1913.78 4.59757 1909.65 6.5 1901.23 6.5L 1901.23 9.5ZM 1935.8 1.5C 1944.21 1.5 1948.35 3.40243 1952.58 5.36126C 1956.98 7.3983 1961.49 9.5 1970.37 9.5L 1970.37 6.5C 1962.13 6.5 1958.08 4.6017 1953.84 2.63874C 1949.43 0.597575 1944.84 -1.5 1935.8 -1.5L 1935.8 1.5ZM 1970.37 9.5C 1979.41 9.5 1984 7.40242 1988.41 5.36125C 1992.65 3.3983 1996.69 1.5 2004.94 1.5L 2004.94 -1.5C 1996.06 -1.5 1991.55 0.601703 1987.15 2.63875C 1982.91 4.59758 1978.78 6.5 1970.37 6.5L 1970.37 9.5ZM 2004.94 1.5C 2013.35 1.5 2017.48 3.40242 2021.71 5.36125C 2026.11 7.3983 2030.63 9.5 2039.51 9.5L 2039.51 6.5C 2031.26 6.5 2027.21 4.6017 2022.97 2.63875C 2018.56 0.597575 2013.97 -1.5 2004.94 -1.5L 2004.94 1.5ZM 2039.51 9.5C 2048.54 9.5 2053.13 7.40242 2057.54 5.36125C 2061.78 3.3983 2065.83 1.5 2074.07 1.5L 2074.07 -1.5C 2065.19 -1.5 2060.68 0.601702 2056.28 2.63875C 2052.05 4.59758 2047.92 6.5 2039.51 6.5L 2039.51 9.5ZM 2074.07 1.5C 2082.48 1.5 2086.62 3.40243 2090.85 5.36126C 2095.25 7.3983 2099.76 9.5 2108.64 9.5L 2108.64 6.5C 2100.4 6.5 2096.35 4.6017 2092.11 2.63874C 2087.7 0.597574 2083.11 -1.5 2074.07 -1.5L 2074.07 1.5ZM 2108.64 9.5C 2117.68 9.5 2122.27 7.40242 2126.68 5.36125C 2130.92 3.3983 2134.97 1.5 2143.21 1.5L 2143.21 -1.5C 2134.33 -1.5 2129.82 0.601702 2125.42 2.63875C 2121.19 4.59758 2117.05 6.5 2108.64 6.5L 2108.64 9.5ZM 2143.21 1.5C 2151.62 1.5 2155.75 3.40242 2159.98 5.36125C 2164.39 7.3983 2168.9 9.5 2177.78 9.5L 2177.78 6.5C 2169.53 6.5 2165.49 4.6017 2161.24 2.63875C 2156.84 0.597576 2152.24 -1.5 2143.21 -1.5L 2143.21 1.5ZM 2177.78 9.5C 2186.81 9.5 2191.4 7.40243 2195.81 5.36126C 2200.05 3.3983 2204.1 1.5 2212.35 1.5L 2212.35 -1.5C 2203.47 -1.5 2198.95 0.601701 2194.55 2.63874C 2190.32 4.59757 2186.19 6.5 2177.78 6.5L 2177.78 9.5ZM 2212.35 1.5C 2220.76 1.5 2224.89 3.40242 2229.12 5.36125C 2233.52 7.3983 2238.03 9.5 2246.91 9.5L 2246.91 6.5C 2238.67 6.5 2234.62 4.6017 2230.38 2.63875C 2225.97 0.597575 2221.38 -1.5 2212.35 -1.5L 2212.35 1.5ZM 2246.91 9.5C 2255.95 9.5 2260.54 7.40242 2264.95 5.36125C 2269.19 3.3983 2273.24 1.5 2281.48 1.5L 2281.48 -1.5C 2272.6 -1.5 2268.09 0.601702 2263.69 2.63875C 2259.46 4.59758 2255.32 6.5 2246.91 6.5L 2246.91 9.5ZM 2281.48 1.5C 2289.89 1.5 2294.02 3.40242 2298.26 5.36125C 2302.66 7.3983 2307.17 9.5 2316.05 9.5L 2316.05 6.5C 2307.81 6.5 2303.76 4.6017 2299.52 2.63875C 2295.11 0.597575 2290.52 -1.5 2281.48 -1.5L 2281.48 1.5ZM 2316.05 9.5C 2325.08 9.5 2329.67 7.40242 2334.08 5.36125C 2338.33 3.3983 2342.37 1.5 2350.62 1.5L 2350.62 -1.5C 2341.74 -1.5 2337.23 0.601702 2332.82 2.63875C 2328.59 4.59758 2324.46 6.5 2316.05 6.5L 2316.05 9.5ZM 2350.62 1.5C 2359.03 1.5 2363.16 3.40242 2367.39 5.36125C 2371.79 7.3983 2376.31 9.5 2385.19 9.5L 2385.19 6.5C 2376.94 6.5 2372.89 4.6017 2368.65 2.63875C 2364.24 0.597575 2359.65 -1.5 2350.62 -1.5L 2350.62 1.5ZM 2385.19 9.5C 2394.22 9.5 2398.81 7.40243 2403.22 5.36126C 2407.46 3.3983 2411.51 1.5 2419.75 1.5L 2419.75 -1.5C 2410.87 -1.5 2406.36 0.601701 2401.96 2.63874C 2397.73 4.59757 2393.6 6.5 2385.19 6.5L 2385.19 9.5ZM 2419.75 1.5C 2428.16 1.5 2432.3 3.40242 2436.53 5.36125C 2440.93 7.3983 2445.44 9.5 2454.32 9.5L 2454.32 6.5C 2446.08 6.5 2442.03 4.6017 2437.79 2.63875C 2433.38 0.597575 2428.79 -1.5 2419.75 -1.5L 2419.75 1.5ZM 2454.32 9.5C 2463.36 9.5 2467.95 7.40242 2472.36 5.36125C 2476.6 3.3983 2480.65 1.5 2488.89 1.5L 2488.89 -1.5C 2480.01 -1.5 2475.5 0.601702 2471.1 2.63875C 2466.86 4.59758 2462.73 6.5 2454.32 6.5L 2454.32 9.5ZM 2488.89 1.5C 2497.3 1.5 2501.43 3.40242 2505.66 5.36125C 2510.06 7.3983 2514.58 9.5 2523.46 9.5L 2523.46 6.5C 2515.21 6.5 2511.17 4.6017 2506.92 2.63875C 2502.51 0.597575 2497.92 -1.5 2488.89 -1.5L 2488.89 1.5ZM 2523.46 9.5C 2532.49 9.5 2537.08 7.40242 2541.49 5.36125C 2545.73 3.3983 2549.78 1.5 2558.02 1.5L 2558.02 -1.5C 2549.15 -1.5 2544.63 0.601702 2540.23 2.63875C 2536 4.59758 2531.87 6.5 2523.46 6.5L 2523.46 9.5ZM 2558.02 1.5C 2566.44 1.5 2570.57 3.40242 2574.8 5.36125C 2579.2 7.3983 2583.71 9.5 2592.59 9.5L 2592.59 6.5C 2584.35 6.5 2580.3 4.6017 2576.06 2.63875C 2571.65 0.597575 2567.06 -1.5 2558.02 -1.5L 2558.02 1.5ZM 2592.59 9.5C 2601.63 9.5 2606.22 7.40242 2610.63 5.36125C 2614.87 3.3983 2618.92 1.5 2627.16 1.5L 2627.16 -1.5C 2618.28 -1.5 2613.77 0.601702 2609.37 2.63875C 2605.14 4.59758 2601 6.5 2592.59 6.5L 2592.59 9.5ZM 2627.16 1.5C 2635.57 1.5 2639.7 3.40243 2643.94 5.36126C 2648.34 7.3983 2652.85 9.5 2661.73 9.5L 2661.73 6.5C 2653.49 6.5 2649.44 4.6017 2645.2 2.63874C 2640.79 0.597574 2636.19 -1.5 2627.16 -1.5L 2627.16 1.5ZM 2661.73 9.5C 2670.76 9.5 2675.35 7.40242 2679.76 5.36125C 2684 3.3983 2688.05 1.5 2696.3 1.5L 2696.3 -1.5C 2687.42 -1.5 2682.9 0.601703 2678.5 2.63875C 2674.27 4.59758 2670.14 6.5 2661.73 6.5L 2661.73 9.5ZM 2696.3 1.5C 2704.71 1.5 2708.84 3.40242 2713.07 5.36125C 2717.47 7.3983 2721.99 9.5 2730.86 9.5L 2730.86 6.5C 2722.62 6.5 2718.57 4.6017 2714.33 2.63875C 2709.92 0.597575 2705.33 -1.5 2696.3 -1.5L 2696.3 1.5ZM 2730.86 9.5C 2739.9 9.5 2744.49 7.40243 2748.9 5.36126C 2753.14 3.3983 2757.19 1.5 2765.43 1.5L 2765.43 -1.5C 2756.55 -1.5 2752.04 0.601701 2747.64 2.63874C 2743.41 4.59757 2739.27 6.5 2730.86 6.5L 2730.86 9.5ZM 2765.43 1.5C 2773.84 1.5 2777.98 3.40242 2782.21 5.36125C 2786.61 7.3983 2791.12 9.5 2800 9.5L 2800 6.5C 2791.76 6.5 2787.71 4.6017 2783.47 2.63875C 2779.06 0.597575 2774.47 -1.5 2765.43 -1.5L 2765.43 1.5Z" transform="translate(42458 -10084)" fill="#F5F5F5"></path>
            </g>
        </g>
    </g>
</svg>