<svg width="50" height="74" viewBox="0 0 50 74" version="1.1" xmlns="http://www.w3.org/2000/svg" xmlns:xlink="http://www.w3.org/1999/xlink">
    <title>оптовые цены</title>
    <desc>Created using Figma</desc>
    <g id="Canvas" transform="translate(16218 21161)">
        <g id="оптовые цены">
            <path fill-rule="evenodd" d="M 0 0L 48.4924 0L 48.4924 14.75C 48.4924 15.5767 48.3857 16.8411 48.033 17.9434C 47.8788 18.4253 47.6559 18.9466 47.3212 19.394C 47.3939 19.4842 47.4649 19.5801 47.5326 19.6817C 48.1314 20.58 48.4924 21.85 48.4924 23.75L 48.4924 66.6852C 48.5817 67.5989 48.4905 68.9544 47.86 70.1468C 47.1597 71.471 45.8312 72.5 43.7429 72.5L 5.24934 72.5C 4.4135 72.5 3.16577 72.2896 2.08337 71.6076C 0.933786 70.8832 0 69.632 0 67.75L 0 23.75C 0 22.4626 0.121093 21.1089 0.614935 20.0387C 0.734133 19.7804 0.87957 19.5286 1.0568 19.2945C 0.913494 19.1275 0.78741 18.9504 0.678004 18.768C 0.156234 17.8983 0 16.9093 0 16.25L 0 0ZM 3.74958 18L 3.74958 20.5C 3.46842 20.5 3.31793 20.5665 3.22573 20.6301C 3.12489 20.6998 3.00321 20.8299 2.8849 21.0863C 2.62887 21.6411 2.5 22.5374 2.5 23.75L 2.5 63.5L 45.9924 63.5L 45.9924 23.75C 45.9924 22.15 45.6868 21.42 45.4524 21.0683C 45.2662 20.7889 45.1124 20.6837 44.8546 20.5071C 44.7529 20.4375 44.6351 20.3568 44.4926 20.2499L 41.4932 18L 45.2245 18C 45.2362 17.9909 45.256 17.9733 45.283 17.942C 45.3916 17.8159 45.5272 17.5711 45.6519 17.1816C 45.8991 16.4089 45.9924 15.4233 45.9924 14.75L 45.9924 2.5L 2.5 2.5L 2.5 16.25C 2.5 16.5907 2.59372 17.1017 2.82183 17.482C 3.01078 17.7969 3.26125 18 3.74958 18ZM 45.9924 66L 2.5 66L 2.5 67.75C 2.5 68.668 2.89933 69.1668 3.41613 69.4924C 4.00012 69.8604 4.75206 70 5.24934 70L 43.7429 70C 44.8542 70 45.3586 69.529 45.6499 68.9782C 45.9938 68.3278 46.0652 67.4746 46 66.888L 45.9924 66.8192L 45.9924 66ZM 9.74859 20.5L 6.74909 20.5L 6.74909 18L 9.74859 18L 9.74859 20.5ZM 14.7478 20.5L 12.2482 20.5L 12.2482 18L 14.7478 18L 14.7478 20.5ZM 20.7468 20.5L 17.7473 20.5L 17.7473 18L 20.7468 18L 20.7468 20.5ZM 27.7456 20.5L 24.7461 20.5L 24.7461 18L 27.7456 18L 27.7456 20.5ZM 34.7444 20.5L 31.7449 20.5L 31.7449 18L 34.7444 18L 34.7444 20.5ZM 41.2434 20.5L 38.2439 20.5L 38.2439 18L 41.2434 18L 41.2434 20.5ZM 36.5947 51.8181L 11.0989 36.3181L 12.3976 34.1819L 37.8934 49.6819L 36.5947 51.8181Z" transform="translate(-16217.5 -21160.2)" fill="#FFDAD4"></path>
            <path fill-rule="evenodd" d="M 19.7471 54.75C 21.6791 54.75 23.2461 53.1834 23.2461 51.25C 23.2461 49.3166 21.6791 47.75 19.7471 47.75C 17.815 47.75 16.248 49.3166 16.248 51.25C 16.248 53.1834 17.815 54.75 19.7471 54.75ZM 19.7471 57.25C 23.0602 57.25 25.7461 54.5637 25.7461 51.25C 25.7461 47.9363 23.0602 45.25 19.7471 45.25C 16.4339 45.25 13.748 47.9363 13.748 51.25C 13.748 54.5637 16.4339 57.25 19.7471 57.25Z" transform="translate(-16217.5 -21160.2)" fill="#FFDAD4"></path>
            <path fill-rule="evenodd" d="M 29.7451 38.75C 31.6772 38.75 33.2441 37.1834 33.2441 35.25C 33.2441 33.3166 31.6772 31.75 29.7451 31.75C 27.813 31.75 26.2461 33.3166 26.2461 35.25C 26.2461 37.1834 27.813 38.75 29.7451 38.75ZM 29.7451 41.25C 33.0583 41.25 35.7441 38.5637 35.7441 35.25C 35.7441 31.9363 33.0583 29.25 29.7451 29.25C 26.4319 29.25 23.7461 31.9363 23.7461 35.25C 23.7461 38.5637 26.4319 41.25 29.7451 41.25Z" transform="translate(-16217.5 -21160.2)" fill="#FFDAD4"></path>
        </g>
    </g>
</svg>