<svg width="22" height="26" viewBox="0 0 22 26" version="1.1" xmlns="http://www.w3.org/2000/svg" xmlns:xlink="http://www.w3.org/1999/xlink">
    <title>Group</title>
    <desc>Created using Figma</desc>
    <g id="Canvas" transform="translate(15892 20471)">
        <g id="Group">
            <g id="Vector">
                <path d="M 0 0L 0 -1.5L -1.5 -1.5L -1.5 0L 0 0ZM 0 14.3077L -1.5 14.3077L -1.5 15.8077L 0 15.8077L 0 14.3077ZM 17.8846 14.3077L 17.8846 15.8077L 19.3846 15.8077L 19.3846 14.3077L 17.8846 14.3077ZM 17.8846 0L 19.3846 0L 19.3846 -1.5L 17.8846 -1.5L 17.8846 0ZM -1.5 0L -1.5 14.3077L 1.5 14.3077L 1.5 0L -1.5 0ZM 0 15.8077L 17.8846 15.8077L 17.8846 12.8077L 0 12.8077L 0 15.8077ZM 19.3846 14.3077L 19.3846 0L 16.3846 0L 16.3846 14.3077L 19.3846 14.3077ZM 17.8846 -1.5L 0 -1.5L 0 1.5L 17.8846 1.5L 17.8846 -1.5Z" transform="translate(-15889.5 -20461.8)" fill="#353535"></path>
            </g>
            <g id="Ellipse 2">
                <path d="M 1.5 8.17582C 1.5 5.74442 2.10842 4.05645 2.92683 3.0119C 3.72495 1.99326 4.78215 1.5 5.96154 1.5L 5.96154 -1.5C 3.84846 -1.5 1.92489 -0.573526 0.565355 1.16165C -0.773884 2.87093 -1.5 5.27087 -1.5 8.17582L 1.5 8.17582ZM 5.96154 1.5C 7.1424 1.5 8.19929 1.99228 8.9966 3.00909C 9.81441 4.05205 10.4231 5.73954 10.4231 8.17582L 13.4231 8.17582C 13.4231 5.26704 12.6972 2.86663 11.3574 1.15794C 9.99703 -0.576902 8.07314 -1.5 5.96154 -1.5L 5.96154 1.5Z" transform="translate(-15886.6 -20468.9)" fill="#353535"></path>
            </g>
        </g>
    </g>
</svg>
