<svg width="22" height="26" viewBox="0 0 22 26" version="1.1" xmlns="http://www.w3.org/2000/svg" xmlns:xlink="http://www.w3.org/1999/xlink">
    <title>Vector</title>
    <desc>Created using Figma</desc>
    <g id="Canvas" transform="translate(15892 20471)">
        <g id="Vector">
            <path fill-rule="evenodd" d="M 0 7.1543L 20.8846 7.1543L 20.8846 24.462L 0 24.462L 0 7.1543ZM 3 10.1543L 3 21.462L 17.8846 21.462L 17.8846 10.1543L 3 10.1543Z" transform="translate(-15891 -20470.4)" fill="#353535"></path>
            <path fill-rule="evenodd" d="M 7.4073 4.5119C 6.58889 5.55645 5.98047 7.24442 5.98047 9.67582L 2.98047 9.67582C 2.98047 6.77087 3.70658 4.37093 5.04582 2.66165C 6.40536 0.926474 8.32893 0 10.442 0C 12.5536 0 14.4775 0.923098 15.8378 2.65794C 17.1777 4.36663 17.9035 6.76704 17.9035 9.67582L 14.9035 9.67582C 14.9035 7.23954 14.2949 5.55205 13.4771 4.50909C 12.6798 3.49228 11.6229 3 10.442 3C 9.26262 3 8.20542 3.49326 7.4073 4.5119Z" transform="translate(-15891 -20470.4)" fill="#353535"></path>
        </g>
    </g>
</svg>