<svg width="76" height="68" viewBox="0 0 76 68" version="1.1" xmlns="http://www.w3.org/2000/svg" xmlns:xlink="http://www.w3.org/1999/xlink">
    <title>4</title>
    <desc>Created using Figma</desc>
    <g id="Canvas" transform="translate(16522 19751)">
        <g id="4">
            <g id="Vector">
                <path d="M 70.1221 0L 5.00872 0C 2.27669 0 0 2.24715 0 4.94372L 0 50.5608C 0 53.2573 2.27669 55.5045 5.00872 55.5045L 39.8421 55.5045C 39.3868 54.8303 39.1591 53.9315 38.7038 53.2573L 5.00872 53.2573C 3.41504 53.2573 2.27669 52.1338 2.27669 50.5608L 2.27669 16.1794L 1.13835 16.1794L 1.13835 13.9323L 2.27669 13.9323L 2.27669 11.2357L 1.13835 11.2357L 1.13835 8.98858L 2.27669 8.98858L 2.27669 4.94372C 2.27669 3.37072 3.41504 2.24715 5.00872 2.24715L 70.1221 2.24715C 71.7158 2.24715 72.8542 3.37072 72.8542 4.94372L 72.8542 8.98858L 73.9925 8.98858L 73.9925 11.2357L 72.8542 11.2357L 72.8542 13.9323L 73.9925 13.9323L 73.9925 16.1794L 72.8542 16.1794L 72.8542 50.5608C 72.8542 52.1338 71.7158 53.2573 70.1221 53.2573L 67.6178 53.2573C 67.3901 53.9315 66.9348 54.8303 66.4794 55.5045L 69.8945 55.5045C 72.6265 55.5045 74.9032 53.2573 74.9032 50.5608L 74.9032 4.94372C 75.3585 2.24715 73.0818 0 70.1221 0Z" transform="translate(-16521.7 -19751)" fill="#FFDAD4"></path>
            </g>
            <g id="Vector">
                <path d="M 13.4325 10.5616C 7.51309 8.08972 3.64271 4.26958 1.36602 1.71444e-06L 8.08844e-15 1.71444e-06C 2.27669 4.49429 6.37474 8.98858 12.9772 11.6852L 13.4325 11.9099L 13.8878 11.6852C 20.4902 8.98858 24.5883 4.49429 26.865 1.71444e-06L 25.499 1.71444e-06C 23.2223 4.26958 19.3519 8.31444 13.4325 10.5616Z" transform="translate(-16481.8 -19695.5)" fill="#FFDAD4"></path>
            </g>
            <g id="Vector">
                <path d="M 2.5739 5.84258C 11.9083 6.06729 15.551 2.47186 16.6894 1.12357C 16.9171 1.12357 17.3724 1.12357 17.6001 1.12357C 18.7384 2.69657 22.3811 6.06729 31.7156 5.84258C 32.3986 6.06729 34.2199 15.9547 30.3496 24.9433L 31.7156 24.9433C 33.7646 19.5502 33.9923 14.3817 33.9923 11.2357C 33.9923 8.53915 33.5369 5.16843 32.1709 4.719L 31.9432 4.719L 31.7156 4.719C 22.8365 4.94372 19.4214 1.79772 18.5107 0.449429L 18.0554 8.57218e-07L 17.1447 8.57218e-07L 16.0064 8.57218e-07L 15.551 0.449429C 14.6404 1.79772 10.9977 4.94372 2.34623 4.719L 2.11856 4.719L 1.89089 4.719C 0.524876 5.16843 0.297204 8.53915 0.0695347 11.2357C -0.158135 14.3817 0.0695345 19.5502 2.34623 24.9433L 3.71224 24.9433C 0.0695353 15.73 1.89089 5.84258 2.5739 5.84258Z" transform="translate(-16485.5 -19722.7)" fill="#FFDAD4"></path>
            </g>
            <g id="Vector">
                <path d="M 1.13854 1.71444e-06C 0.91083 0.674145 0.455416 1.573 1.73727e-06 2.24715L 1.36624 2.24715C 1.82166 1.573 2.04936 0.674145 2.50478 1.71444e-06L 1.13854 1.71444e-06Z" transform="translate(-16456.3 -19697.7)" fill="#FFDAD4"></path>
            </g>
            <g id="Vector">
                <path d="M 1.36624 1.71444e-06L 0 1.71444e-06C 0.227707 0.674145 0.683121 1.573 1.13854 2.24715L 2.50478 2.24715C 2.04936 1.573 1.59395 0.674145 1.36624 1.71444e-06Z" transform="translate(-16483 -19697.7)" fill="#FFDAD4"></path>
            </g>
            <g id="Vector">
                <path d="M 12.2941 9.43801C 7.51309 7.41558 3.87038 4.26958 1.36602 1.71444e-06L 8.08844e-15 1.71444e-06C 2.27669 4.26958 6.14707 8.31444 12.0665 10.5616C 17.9859 8.08972 21.8563 4.26958 24.1329 1.71444e-06L 22.7669 1.71444e-06C 20.7179 4.26958 17.0752 7.41558 12.2941 9.43801Z" transform="translate(-16480.7 -19695.5)" fill="#FFDAD4"></path>
            </g>
            <g id="Vector">
                <path d="M 30.1704 4.719C 20.8359 4.94372 17.1932 1.34829 16.0549 8.57218e-07C 16.0549 8.57218e-07 15.3718 8.57218e-07 15.1442 8.57218e-07C 14.0058 1.34829 10.3631 4.94372 1.02868 4.719C 0.345672 4.94372 -1.47568 14.8312 2.3947 23.8197L 3.76071 23.8197C 3.53304 23.3703 3.30537 22.9209 3.0777 22.2467C 0.345671 14.8312 1.25635 7.64029 1.71169 5.61786L 1.93936 5.61786C 10.1355 5.61786 14.0058 2.69657 15.5995 0.898858C 17.1932 2.69657 21.0636 5.61786 29.4873 5.61786C 29.9427 7.64029 30.8534 14.8312 28.1213 22.2467C 27.8937 22.6962 27.666 23.3703 27.4383 23.8197L 28.8043 23.8197C 32.6747 14.6064 30.8534 4.719 30.1704 4.719Z" transform="translate(-16484 -19721.6)" fill="#FFDAD4"></path>
            </g>
            <g id="Vector">
                <path d="M 8.68634e-07 2.24715L 1.36624 2.24715C 1.82166 1.573 2.04937 0.674145 2.50478 1.71444e-06L 1.13854 1.71444e-06C 0.910829 0.674145 0.455415 1.573 8.68634e-07 2.24715Z" transform="translate(-16457.7 -19697.7)" fill="#FFDAD4"></path>
            </g>
            <g id="Vector">
                <path d="M 1.36624 1.71444e-06L 0 1.71444e-06C 0.227707 0.674145 0.683121 1.573 1.13854 2.24715L 2.50478 2.24715C 2.04936 1.573 1.82166 0.674145 1.36624 1.71444e-06Z" transform="translate(-16481.8 -19697.7)" fill="#FFDAD4"></path>
            </g>
            <g id="Vector">
                <path d="M 0.682225 -1.71444e-06L 0 0.89886L 1.13704 0.449429L 0.682225 -1.71444e-06Z" transform="translate(-16473.8 -19704.3)" fill="#FFDAD4"></path>
            </g>
            <g id="Vector">
                <path d="M 10.4728 1.79772L 12.7495 0.898856L 5.23639 9.88744L 0.683008 6.29201L 1.73698e-06 7.19087L 5.46406 11.2357L 13.6602 1.573L 11.8388 -8.57218e-07L 10.4728 1.79772Z" transform="translate(-16474.5 -19709.6)" fill="#FFDAD4"></path>
            </g>
            <g id="Vector">
                <path d="M 12.0665 -1.71444e-06L 9.78978 0.89886L 4.55339 7.41558L 1.13835 4.94372L 0 5.39315L 4.55339 8.98858L 12.0665 -1.71444e-06Z" transform="translate(-16473.8 -19708.8)" fill="#FFDAD4"></path>
            </g>
            <g id="Vector">
                <path d="M 5.9194 10.1122C 3.41504 10.1122 1.36602 8.08972 1.36602 5.61786C 1.36602 3.146 3.41504 1.12357 5.9194 1.12357C 6.60241 1.12357 7.28542 1.34829 7.74076 1.573C 7.96842 1.34829 8.42376 1.12357 8.65143 0.89886C 7.74076 0.449431 6.83008 -1.71444e-06 5.69173 -1.71444e-06C 2.50436 -1.71444e-06 -1.08561e-07 2.47186 -1.08561e-07 5.61786C -1.08561e-07 8.76386 2.50436 11.2357 5.69173 11.2357C 6.83008 11.2357 7.74076 11.011 8.65143 10.3369C 8.19609 10.1122 7.96842 9.88744 7.74076 9.66272C 7.28542 9.88744 6.60241 10.1122 5.9194 10.1122Z" transform="translate(-16516.4 -19714.4)" fill="#FFDAD4"></path>
            </g>
            <g id="Vector">
                <path d="M 5.46406 7.6403C 5.23639 7.6403 4.78106 7.86501 4.32572 7.86501C 2.50436 7.86501 0.910677 6.29201 0.910677 4.49429C 0.910677 2.69657 2.50436 1.12357 4.32572 1.12357C 4.78106 1.12357 5.00872 1.12357 5.46406 1.34829C 5.69173 1.12357 5.9194 0.674144 6.37474 0.449429C 5.9194 0.224715 5.23639 -1.71444e-06 4.55339 -1.71444e-06C 2.04902 -1.71444e-06 -2.02211e-15 2.02243 -2.02211e-15 4.49429C -2.02211e-15 6.96615 2.04902 8.98858 4.55339 8.98858C 5.23639 8.98858 5.9194 8.76387 6.37474 8.53915C 5.9194 8.31444 5.69173 7.86501 5.46406 7.6403Z" transform="translate(-16514.8 -19713.2)" fill="#FFDAD4"></path>
            </g>
            <g id="Vector">
                <path d="M 2.9597 1.71444e-06C 1.82135 1.71444e-06 0.910677 0.224715 -4.34245e-07 0.898859C 0.455338 1.12357 0.683008 1.34829 0.910677 1.573C 1.59368 1.34829 2.04902 1.12357 2.73203 1.12357C 5.23639 1.12357 7.28542 3.146 7.28542 5.61786C 7.28542 8.08972 5.23639 10.1122 2.73203 10.1122C 2.04902 10.1122 1.36602 9.88744 0.910677 9.66272C 0.683008 9.88744 0.227669 10.1122 -4.34245e-07 10.3369C 0.910677 10.7863 1.82135 11.2357 2.9597 11.2357C 6.14707 11.2357 8.65143 8.76387 8.65143 5.61786C 8.65143 2.47186 6.14707 1.71444e-06 2.9597 1.71444e-06Z" transform="translate(-16507.5 -19714.6)" fill="#FFDAD4"></path>
            </g>
            <g id="Vector">
                <path d="M 2.04936 0.44943C 1.82166 0.224715 1.36624 -8.57218e-07 0.910829 -8.57218e-07C 0.227707 0.674143 0 1.79771 0 3.146C 0 4.26957 0.455414 5.39315 1.13854 6.29201C 1.59395 6.06729 1.82166 6.06729 2.27707 5.84258C 1.59395 5.16843 1.36624 4.26957 1.36624 3.146C 1.13854 2.02243 1.36624 1.12357 2.04936 0.44943Z" transform="translate(-16510.3 -19711.9)" fill="#FFDAD4"></path>
            </g>
            <g id="Vector">
                <path d="M 0.909635 1.34829C 1.13704 1.12357 1.59186 0.898857 1.81927 0.674143C 1.59186 0.449428 1.13704 0.224715 0.909635 8.57218e-07C 0.454817 0.224715 0.227409 0.449428 4.33748e-07 0.674143C 0.227409 0.898857 0.682226 1.12357 0.909635 1.34829Z" transform="translate(-16508.4 -19713.7)" fill="#FFDAD4"></path>
            </g>
            <g id="Vector">
                <path d="M 0.909635 -1.71444e-06C 0.682226 0.224713 0.227409 0.44943 4.33748e-07 0.674144C 0.227409 0.898859 0.682226 1.12357 0.909635 1.34829C 1.36445 1.12357 1.59186 0.898859 1.81927 0.674144C 1.59186 0.44943 1.13704 0.224713 0.909635 -1.71444e-06Z" transform="translate(-16508.4 -19705.4)" fill="#FFDAD4"></path>
            </g>
            <g id="Vector">
                <path d="M 1.13704 0C 0.909635 0.224715 0.454818 0.449431 2.16874e-07 0.449431C 0.227409 0.674145 0.454818 1.12357 0.909635 1.34829C 1.36445 1.12357 1.59186 0.898856 1.81927 0.674142C 1.59186 0.449427 1.36445 0.224715 1.13704 0Z" transform="translate(-16509.4 -19706.1)" fill="#FFDAD4"></path>
            </g>
            <g id="Vector">
                <path d="M 2.16874e-07 1.12357C 0.454818 1.34829 0.682227 1.34829 1.13704 1.573C 1.36445 1.34829 1.59186 0.898859 1.81927 0.674144C 1.59186 0.44943 1.13704 0.224713 0.909635 -1.71444e-06C 0.454818 0.449427 0.227409 0.898856 2.16874e-07 1.12357Z" transform="translate(-16509.4 -19713.2)" fill="#FFDAD4"></path>
            </g>
            <g id="Vector">
                <path d="M 0.910677 1.34829C 1.13835 1.34829 1.59368 1.12357 2.04902 1.12357C 3.87038 1.12357 5.46406 2.69658 5.46406 4.49429C 5.46406 6.29201 3.87038 7.86501 2.04902 7.86501C 1.59368 7.86501 1.36602 7.86501 0.910677 7.64029C 0.683008 7.86501 0.455338 8.31444 -2.17122e-07 8.53915C 0.683008 8.76387 1.13835 8.98858 1.82135 8.98858C 4.32572 8.98858 6.37474 6.96615 6.37474 4.49429C 6.37474 2.02243 4.32572 1.71444e-06 1.82135 1.71444e-06C 1.13835 1.71444e-06 0.455338 0.224714 -2.17122e-07 0.449428C 0.455338 0.674143 0.683008 1.12357 0.910677 1.34829Z" transform="translate(-16506.6 -19713.5)" fill="#FFDAD4"></path>
            </g>
            <g id="Vector">
                <path d="M 1.59186 0.898857C 1.36445 0.674143 1.13704 0.224715 0.909635 0C 0.227409 0.674144 0 1.573 0 2.69658C 0 3.82015 0.454818 4.719 0.909635 5.39315C 1.13704 5.16843 1.59186 4.94372 1.59186 4.49429C 1.13704 4.26958 1.13704 3.59543 1.13704 2.92129C 1.13704 2.24714 1.13704 1.573 1.59186 0.898857Z" transform="translate(-16509.1 -19711.7)" fill="#FFDAD4"></path>
            </g>
            <g id="Vector">
                <path d="M 1.81927 0.449431C 1.36445 0.224716 1.13704 0.224715 0.682226 0C 0.454818 0.224715 0.227408 0.674143 -4.33748e-07 0.898857C 0.227408 1.12357 0.682226 1.34829 0.909635 1.573C 1.36445 1.12357 1.59186 0.674145 1.81927 0.449431Z" transform="translate(-16507.5 -19706.1)" fill="#FFDAD4"></path>
            </g>
            <g id="Vector">
                <path d="M 0.682226 1.34829C 0.909635 1.12357 1.36445 0.898857 1.81927 0.898857C 1.59186 0.674143 1.36445 0.224715 0.909635 -7.98346e-15C 0.454817 0.224715 0.227409 0.449427 4.33748e-07 0.674142C 4.33748e-07 0.674142 0.454817 0.898859 0.682226 1.34829Z" transform="translate(-16507.3 -19712.8)" fill="#FFDAD4"></path>
            </g>
            <g id="Vector">
                <path d="M 1.59186 0.898858C 1.36445 0.674144 0.909635 0.44943 0.909635 8.57218e-07C 0.454818 0.224715 0.227409 0.674144 2.16874e-07 0.898858C 0.227409 1.12357 0.454817 1.573 0.682226 1.79772C 0.909635 1.34829 1.36445 1.12357 1.59186 0.898858Z" transform="translate(-16508.2 -19707)" fill="#FFDAD4"></path>
            </g>
            <g id="Vector">
                <path d="M 2.16874e-07 0.898859C 0.227409 1.12357 0.682226 1.34829 0.682226 1.79772C 0.909635 1.573 1.13704 1.12357 1.36445 0.898859C 1.13704 0.674144 0.909635 0.224716 0.682226 1.71444e-06C 0.454817 0.224716 0.227409 0.44943 2.16874e-07 0.898859Z" transform="translate(-16508.2 -19712.3)" fill="#FFDAD4"></path>
            </g>
            <g id="Vector">
                <path d="M 70.8051 0L 0 0L 0 1.12357L 70.8051 1.12357L 70.8051 0Z" transform="translate(-16519.4 -19742)" fill="#FFDAD4"></path>
            </g>
            <g id="Vector">
                <path d="M 70.8051 0L 0 0L 0 1.12357L 70.8051 1.12357L 70.8051 0Z" transform="translate(-16519.4 -19740.9)" fill="#FFDAD4"></path>
            </g>
            <g id="Vector">
                <path d="M 0 1.12357L 1.13704 1.12357L 1.13704 0L 0 0L 0 2.24715L 1.13704 2.24715L 1.13704 1.12357L 0 1.12357Z" transform="translate(-16520.5 -19742)" fill="#FFDAD4"></path>
            </g>
            <g id="Vector">
                <path d="M 1.13704 1.12357L -3.46998e-06 1.12357L -3.46998e-06 2.24715L 1.13704 2.24715L 1.13704 0L -3.46998e-06 0L -3.46998e-06 1.12357L 1.13704 1.12357Z" transform="translate(-16448.6 -19742)" fill="#FFDAD4"></path>
            </g>
            <g id="Vector">
                <path d="M 70.8051 0L 0 0L 0 1.12357L 70.8051 1.12357L 70.8051 0Z" transform="translate(-16519.4 -19735.9)" fill="#FFDAD4"></path>
            </g>
            <g id="Vector">
                <path d="M 70.8051 0L 0 0L 0 1.12357L 70.8051 1.12357L 70.8051 0Z" transform="translate(-16519.4 -19737.1)" fill="#FFDAD4"></path>
            </g>
            <g id="Vector">
                <path d="M 1.13704 1.12357L -3.46998e-06 1.12357L -3.46998e-06 2.24714L 1.13704 2.24714L 1.13704 -4.28609e-07L -3.46998e-06 -4.28609e-07L -3.46998e-06 1.12357L 1.13704 1.12357Z" transform="translate(-16448.6 -19737.1)" fill="#FFDAD4"></path>
            </g>
            <g id="Vector">
                <path d="M 0 1.12357L 1.13704 1.12357L 1.13704 -4.28609e-07L 0 -4.28609e-07L 0 2.24714L 1.13704 2.24714L 1.13704 1.12357L 0 1.12357Z" transform="translate(-16520.5 -19737.1)" fill="#FFDAD4"></path>
            </g>
            <g id="Vector">
                <path d="M 7.96842 1.12357L -2.17122e-07 1.12357L 7.96842 1.12357L 7.96842 8.57218e-07L -2.17122e-07 8.57218e-07L -2.17122e-07 2.24715L 7.96842 2.24715L 7.96842 1.12357Z" transform="translate(-16515.7 -19719.3)" fill="#FFDAD4"></path>
            </g>
            <g id="Vector">
                <path d="M 3.41561 0L 0 0L 0 1.12357L 3.41561 1.12357L 3.41561 0Z" transform="translate(-16506.2 -19718.2)" fill="#FFDAD4"></path>
            </g>
            <g id="Vector">
                <path d="M 3.41561 0L 0 0L 0 1.12357L 3.41561 1.12357L 3.41561 0Z" transform="translate(-16506.2 -19719.3)" fill="#FFDAD4"></path>
            </g>
        </g>
    </g>
</svg>
