<svg width="30" height="29" viewBox="0 0 30 29" version="1.1" xmlns="http://www.w3.org/2000/svg" xmlns:xlink="http://www.w3.org/1999/xlink">
    <title>Vector</title>
    <desc>Created using Figma</desc>
    <g id="Canvas" transform="translate(-1231 15312)">
        <g id="Vector">
            <path fill-rule="evenodd" d="M 11.8062 7.04297C 11.8062 4.83383 13.597 3.04297 15.8062 3.04297L 24.2395 3.04297C 26.4486 3.04297 28.2395 4.83383 28.2395 7.04297L 28.2395 23.7323C 28.2395 25.9414 26.4486 27.7323 24.2395 27.7323L 12.8062 27.7323L 12.8062 25.7323L 24.2395 25.7323C 25.3441 25.7323 26.2395 24.8369 26.2395 23.7323L 26.2395 7.04297C 26.2395 5.9384 25.3441 5.04297 24.2395 5.04297L 15.8062 5.04297C 14.7016 5.04297 13.8062 5.9384 13.8062 7.04297L 13.8062 12.421L 11.8062 12.421L 11.8062 7.04297Z" transform="translate(1231.79 -15311.8)" fill="#353535"></path>
            <path fill-rule="evenodd" d="M 14.5138 13.9385L 3 13.9385C 2.44772 13.9385 2 14.3862 2 14.9385L 2 24.7569C 2 25.3092 2.44772 25.7569 3 25.7569L 14.5138 25.7569C 15.066 25.7569 15.5138 25.3092 15.5138 24.7569L 15.5138 14.9385C 15.5138 14.3862 15.066 13.9385 14.5138 13.9385ZM 3 11.9385C 1.34315 11.9385 0 13.2816 0 14.9385L 0 24.7569C 0 26.4138 1.34315 27.7569 3 27.7569L 14.5138 27.7569C 16.1706 27.7569 17.5138 26.4138 17.5138 24.7569L 17.5138 14.9385C 17.5138 13.2816 16.1706 11.9385 14.5138 11.9385L 3 11.9385Z" transform="translate(1231.79 -15311.8)" fill="#353535"></path>
            <path fill-rule="evenodd" d="M 11.6241 10.9766L 6.33728 10.9766L 6.33728 11.7682L 11.6241 11.7682L 11.6241 10.9766ZM 4.33728 8.97656L 4.33728 13.7682L 13.6241 13.7682L 13.6241 8.97656L 4.33728 8.97656Z" transform="translate(1231.79 -15311.8)" fill="#353535"></path>
            <path fill-rule="evenodd" d="M 21.5882 2L 18.4574 2L 18.4574 2.79168L 21.5882 2.79168L 21.5882 2ZM 16.4574 0L 16.4574 4.79168L 23.5882 4.79168L 23.5882 0L 16.4574 0Z" transform="translate(1231.79 -15311.8)" fill="#353535"></path>
        </g>
    </g>
</svg>