<svg width="42" height="29" viewBox="0 0 42 29" version="1.1" xmlns="http://www.w3.org/2000/svg" xmlns:xlink="http://www.w3.org/1999/xlink">
    <title>Vector</title>
    <desc>Created using Figma</desc>
    <g id="Canvas" transform="translate(-577 11137)">
        <g id="Vector">
            <path fill-rule="evenodd" d="M 30.9044 2L 6.72764 2L 6.72764 0L 32.3673 0L 41.1641 27.6733L 0 27.6733L 0.0323999 26.6419L 1.03191 26.6733C 0.0323999 26.6419 0.032433 26.6408 0.032433 26.6408L 0.0324792 26.6394L 0.0326135 26.6355L 0.0330653 26.6232L 0.0348375 26.5812C 0.0364559 26.5457 0.039017 26.4951 0.0429298 26.4305C 0.0507537 26.3013 0.063992 26.1158 0.0859284 25.8821C 0.129773 25.4151 0.208529 24.7535 0.348759 23.9618C 0.62837 22.3833 1.15666 20.2632 2.15603 18.1304C 3.15555 15.9974 4.64222 13.8184 6.85431 12.1712C 9.07918 10.5145 11.9846 9.43621 15.7388 9.43621L 33.2682 9.43621L 30.9044 2ZM 33.904 11.4362L 15.7388 11.4362C 12.3946 11.4362 9.91243 12.3876 8.0488 13.7753C 6.1724 15.1726 4.86965 17.0529 3.96706 18.9791C 3.0643 20.9056 2.57778 22.8447 2.3181 24.3107C 2.22491 24.8368 2.16149 25.2987 2.11853 25.6733L 38.4297 25.6733L 33.904 11.4362Z" transform="translate(577.206 -11136.1)" fill="#353535"></path>
            <path d="M 15.0166 17.0697C 15.0466 16.4997 15.4766 16.1997 15.9366 16.1997C 16.4666 16.1997 16.8165 16.5497 16.8165 17.0797C 16.8165 17.5397 16.5466 17.9897 15.9066 17.9897L 15.7266 17.9897L 15.7266 18.9297L 15.8966 18.9297C 16.7066 18.9297 17.0065 19.4797 17.0065 19.9697C 17.0065 20.4797 16.6866 21.0297 15.9366 21.0297C 15.2966 21.0297 14.9066 20.6297 14.8266 20.0797L 13.5266 20.0797C 13.6366 21.3597 14.6465 22.1497 15.9265 22.1497C 17.2465 22.1497 18.3065 21.3797 18.3065 20.0097C 18.3065 18.9097 17.5566 18.5297 17.2866 18.4197C 17.9866 18.0297 18.0565 17.3697 18.0565 17.0197C 18.0565 15.8997 17.2466 15.1797 15.9666 15.1797C 14.8266 15.1797 13.9166 15.8597 13.7966 17.0697L 15.0166 17.0697Z" transform="translate(577.206 -11136.1)" fill="#353535"></path>
            <path d="M 21.8101 22.1497C 23.1401 22.1497 24.3901 20.9597 24.3901 18.6697C 24.3901 16.3697 23.1401 15.1797 21.8101 15.1797C 20.4801 15.1797 19.2301 16.3697 19.2301 18.6597C 19.2301 20.9597 20.4801 22.1497 21.8101 22.1497ZM 21.8101 16.2997C 22.3701 16.2997 23.0901 16.9297 23.0901 18.6597C 23.0901 20.3997 22.3801 21.0297 21.8101 21.0297C 21.2401 21.0297 20.5301 20.3997 20.5301 18.6597C 20.5301 16.9297 21.2501 16.2997 21.8101 16.2997Z" transform="translate(577.206 -11136.1)" fill="#353535"></path>
            <path d="M 27.1537 15.3797C 26.2937 15.3797 25.6237 15.9997 25.6237 16.8797C 25.6237 17.7597 26.2937 18.3797 27.1537 18.3797C 28.0137 18.3797 28.6837 17.7597 28.6837 16.8797C 28.6837 15.9997 28.0137 15.3797 27.1537 15.3797ZM 27.1537 16.0997C 27.6137 16.0997 27.9437 16.4197 27.9437 16.8797C 27.9437 17.3397 27.6137 17.6597 27.1537 17.6597C 26.6937 17.6597 26.3637 17.3397 26.3637 16.8797C 26.3637 16.4197 26.6937 16.0997 27.1537 16.0997Z" transform="translate(577.206 -11136.1)" fill="#353535"></path>
        </g>
    </g>
</svg>