<svg width="35" height="30" viewBox="0 0 35 30" version="1.1" xmlns="http://www.w3.org/2000/svg" xmlns:xlink="http://www.w3.org/1999/xlink">
    <title>Vector</title>
    <desc>Created using Figma</desc>
    <g id="Canvas" transform="translate(-1103 15311)">
        <g id="Vector">
            <path fill-rule="evenodd" d="M 10.3302 17.6276C 10.4596 18.0966 10.7671 18.4457 11.1102 18.7166C 11.4306 18.9696 11.8114 19.1939 12.2622 19.258C 12.7396 19.3258 13.1701 19.1973 13.546 18.9744C 13.7506 18.8532 13.9474 18.6992 14.1393 18.5238C 14.2625 18.6977 14.4128 18.8576 14.5904 18.9977C 15.6272 19.8164 17.1045 19.5764 17.9013 18.5672L 21.0447 14.5859C 21.3556 14.7081 21.725 14.8149 22.1288 14.8547C 22.7759 14.9184 23.5236 14.8088 24.222 14.312C 24.9088 13.8236 25.4553 13.0268 25.8434 11.8912C 27.0369 8.39883 27.154 6.1684 26.3933 4.54112C 26.0124 3.72629 25.4447 3.13726 24.836 2.65203C 24.411 2.31319 23.9215 1.99349 23.4556 1.6892C 23.2842 1.5773 23.1161 1.46749 22.9555 1.35957C 20.5683 -0.244864 18.583 -0.212865 17.1514 0.354331C 16.4626 0.62721 15.9416 1.00821 15.5929 1.31944C 15.4177 1.47584 15.2829 1.61733 15.189 1.7236C 15.142 1.77684 15.1049 1.82157 15.0779 1.85534C 15.0722 1.86246 15.0669 1.8691 15.0621 1.87524L 10.0066 7.33189L 9.98453 7.35978C 9.66982 7.75839 9.43281 8.40541 9.32679 8.95681C 9.27121 9.2459 9.23784 9.57595 9.27192 9.89334C 9.30319 10.1845 9.4112 10.6411 9.80848 10.9548C 9.98589 11.0949 10.194 11.2029 10.4129 11.2831L 10.2075 11.5432C 9.41066 12.5524 9.51999 14.0451 10.5568 14.8637C 10.6766 14.9583 10.8549 15.0918 11.0898 15.1899C 11.0804 15.2037 11.0711 15.2175 11.062 15.2311C 10.814 15.6009 10.5853 15.9725 10.4407 16.3358C 10.2919 16.7094 10.1995 17.154 10.3302 17.6276ZM 13.4221 14.9977L 18.3634 8.73927L 16.9506 7.62386L 14.6429 10.5467C 13.1627 12.4216 12.353 13.176 11.9055 13.4373C 11.8329 13.4797 11.7837 13.5008 11.7539 13.5111C 11.7361 13.4993 11.7095 13.4804 11.6723 13.451C 11.4678 13.2895 11.3974 12.9408 11.6202 12.6586L 13.0722 10.8196C 13.0758 10.8151 13.0794 10.8106 13.083 10.8061L 16.1158 6.96471L 14.7031 5.84929L 11.7084 9.64224L 11.7061 9.64292C 11.653 9.65899 11.5604 9.67304 11.4357 9.66845C 11.3138 9.66396 11.1901 9.64264 11.0856 9.61076C 11.0762 9.60788 11.0671 9.60498 11.0584 9.60207C 11.0602 9.52392 11.0705 9.42093 11.0944 9.29667C 11.1291 9.11637 11.185 8.92923 11.2494 8.76765C 11.307 8.62307 11.3578 8.5333 11.3846 8.49303L 16.6917 2.76488L 16.6865 2.76011C 16.7181 2.7294 16.7531 2.69662 16.7914 2.66238C 17.024 2.45483 17.368 2.20462 17.8144 2.02778C 18.653 1.69553 20.018 1.55405 21.9515 2.85351C 22.1608 2.99419 22.3575 3.12262 22.5439 3.24435C 22.9799 3.52909 23.3598 3.77715 23.714 4.05952C 24.1922 4.44081 24.5386 4.82405 24.7627 5.30334C 25.2119 6.26431 25.3019 7.90953 24.1401 11.3091C 23.8321 12.2105 23.4674 12.64 23.1788 12.8452C 22.902 13.042 22.6103 13.0934 22.3051 13.0633C 22.2872 13.0616 22.2694 13.0595 22.2516 13.0572L 23.3201 11.7038L 21.9074 10.5884L 16.4886 17.4518C 16.2658 17.734 15.9102 17.7464 15.7058 17.585C 15.5014 17.4237 15.4309 17.0746 15.6538 16.7923L 20.611 10.5138L 19.1982 9.39842L 14.2411 15.6769C 13.837 16.1887 13.5123 16.5841 13.2353 16.8831C 12.953 17.1879 12.7605 17.3476 12.6281 17.4261C 12.5675 17.462 12.5338 17.4721 12.5227 17.4748C 12.5149 17.4766 12.5154 17.4758 12.5154 17.4758C 12.5079 17.4748 12.4229 17.4596 12.2256 17.3038C 12.1244 17.224 12.0834 17.1728 12.0687 17.1507C 12.0713 17.1291 12.0807 17.0826 12.1129 17.0018C 12.1828 16.8264 12.3198 16.5871 12.5568 16.2339C 12.7121 16.0024 12.8892 15.7521 13.0941 15.4626C 13.1963 15.3182 13.3054 15.1641 13.4221 14.9977ZM 11.068 9.73871C 11.068 9.73871 11.0675 9.7344 11.0652 9.7273C 11.0667 9.73542 11.068 9.73871 11.068 9.73871Z" transform="translate(1103.92 -15310.4)" fill="#353535"></path>
            <path fill-rule="evenodd" d="M 0 9.56502L 1.903 8.94971L 7.71454 26.9235L 25.5453 26.9235L 31.296 8.95259L 33.2009 9.56214L 27.0052 28.9235L 6.25926 28.9235L 0 9.56502Z" transform="translate(1103.92 -15310.4)" fill="#353535"></path>
            <path fill-rule="evenodd" d="M 2.80922 12.4331L 3.31026 13.2985C 3.75615 14.0687 5.09036 14.8529 6.92471 14.8529C 8.32794 14.8529 9.47236 14.4019 10.1215 13.8276L 10.8705 13.1651L 12.1957 14.6631L 11.4467 15.3256C 10.3612 16.2858 8.71271 16.8529 6.92471 16.8529C 4.65251 16.8529 2.50237 15.8948 1.57941 14.3006L 1.07837 13.4352L 2.80922 12.4331ZM 31.8931 13.7089L 31.3384 14.5409C 30.3396 16.039 28.2728 16.8529 26.0887 16.8529C 24.3261 16.8529 22.6528 16.3001 21.5533 15.3247L 20.8052 14.6611L 22.1324 13.1649L 22.8805 13.8286C 23.5349 14.409 24.6978 14.8529 26.0887 14.8529C 27.8866 14.8529 29.1797 14.1734 29.6743 13.4315L 30.229 12.5995L 31.8931 13.7089Z" transform="translate(1103.92 -15310.4)" fill="#353535"></path>
        </g>
    </g>
</svg>