<svg width="34" height="44" viewBox="0 0 34 44" version="1.1" xmlns="http://www.w3.org/2000/svg" xmlns:xlink="http://www.w3.org/1999/xlink">
    <title>Vector</title>
    <desc>Created using Figma</desc>
    <g id="Canvas" transform="translate(-1164 15317)">
        <g id="Vector">
            <path fill-rule="evenodd" d="M 9.38147 42.31L 20.8301 0L 22.7606 0.52239L 11.312 42.8324L 9.38147 42.31Z" transform="translate(1164.48 -15316.5)" fill="#353535"></path>
            <path fill-rule="evenodd" d="M 0 12.3907L 1.903 11.7754L 7.71454 29.7492L 25.5453 29.7492L 31.296 11.7783L 33.2009 12.3878L 27.0052 31.7492L 6.25926 31.7492L 0 12.3907Z" transform="translate(1164.48 -15316.5)" fill="#353535"></path>
            <path fill-rule="evenodd" d="M 11.7157 14.5674C 12.268 14.5674 12.7157 15.0151 12.7157 15.5674C 12.7157 15.9952 12.9726 16.4965 13.6521 16.9373C 14.3272 17.3752 15.3284 17.6784 16.5067 17.6784C 17.6758 17.6784 18.6768 17.364 19.356 16.9174C 20.0477 16.4625 20.2977 15.9579 20.2977 15.5674C 20.2977 15.0151 20.7454 14.5674 21.2977 14.5674C 21.85 14.5674 22.2977 15.0151 22.2977 15.5674C 22.2977 15.9844 22.558 16.4876 23.2539 16.935C 23.9412 17.3768 24.945 17.6784 26.0887 17.6784C 27.8866 17.6784 29.1797 16.9989 29.6743 16.2571L 30.229 15.425L 31.8931 16.5344L 31.3384 17.3665C 30.3396 18.8646 28.2728 19.6784 26.0887 19.6784C 24.619 19.6784 23.2274 19.2956 22.1724 18.6174C 21.8528 18.4119 21.5535 18.171 21.2919 17.8977C 21.0422 18.1575 20.7583 18.3889 20.455 18.5884C 19.4075 19.2773 18.013 19.6784 16.5067 19.6784C 15.0095 19.6784 13.6152 19.2972 12.5637 18.6152C 12.2494 18.4113 11.9574 18.1737 11.7025 17.9054C 11.4546 18.1621 11.1734 18.3909 10.873 18.5884C 9.82554 19.2773 8.43104 19.6784 6.92471 19.6784C 4.65251 19.6784 2.50237 18.7204 1.57941 17.1262L 1.07837 16.2607L 2.80922 15.2587L 3.31026 16.1241C 3.75615 16.8943 5.09036 17.6784 6.92471 17.6784C 8.09388 17.6784 9.09487 17.364 9.77404 16.9174C 10.4657 16.4625 10.7157 15.9579 10.7157 15.5674C 10.7157 15.0151 11.1634 14.5674 11.7157 14.5674Z" transform="translate(1164.48 -15316.5)" fill="#353535"></path>
        </g>
    </g>
</svg>