<svg width="46" height="44" viewBox="0 0 46 44" version="1.1" xmlns="http://www.w3.org/2000/svg" xmlns:xlink="http://www.w3.org/1999/xlink">
    <title>Vector</title>
    <desc>Created using Figma</desc>
    <g id="Canvas" transform="translate(-891 15317)">
        <g id="Vector">
            <path fill-rule="evenodd" d="M 18.9789 16.8285L 14.3623 28.3321L 12.5062 27.5873L 17.1388 16.0437L 17.1473 16.0249C 18.0284 14.067 20.2672 12.8574 22.6842 12.8574L 26.1718 12.8574C 28.1265 12.8574 30.0436 13.8302 30.8572 15.4573L 30.8617 15.4663L 32.5078 18.9318L 28.065 28.5313L 26.2499 27.6913L 30.2988 18.9428L 29.0643 16.3437C 28.6613 15.548 27.5486 14.8574 26.1718 14.8574L 22.6842 14.8574C 20.865 14.8574 19.4697 15.7611 18.9789 16.8285Z" transform="translate(891.099 -15316.6)" fill="#353535"></path>
            <path fill-rule="evenodd" d="M 0 12.8574L 9.71915 12.8574C 11.2164 12.8574 12.7201 13.3819 13.7097 14.4631L 17.2645 18.1692L 15.8211 19.5537L 12.2484 15.8289L 12.2394 15.819C 11.7124 15.2393 10.7949 14.8574 9.71915 14.8574L 2 14.8574L 2 26.5191L 0 26.5191L 0 12.8574Z" transform="translate(891.099 -15316.6)" fill="#353535"></path>
            <path fill-rule="evenodd" d="M 36.6348 14.7822C 35.3008 14.7822 34.2033 15.4222 33.8141 16.2007L 33.8098 16.2094L 32.2175 19.318L 30.4374 18.4062L 32.0276 15.3016C 32.8528 13.6569 34.7861 12.7822 36.6348 12.7822L 44.9134 12.7822L 44.9134 27.2779L 42.9134 27.2779L 42.9134 14.7822L 36.6348 14.7822Z" transform="translate(891.099 -15316.6)" fill="#353535"></path>
            <path fill-rule="evenodd" d="M 0 17.6484L 2 17.6484L 2 29.9167L 9.26423 29.9167C 10.376 29.9167 11.3849 29.249 11.8352 28.2424L 16.2295 17.9385L 18.0692 18.7231L 13.6688 29.0414L 13.6657 29.0483C 12.9016 30.7676 11.1829 31.9167 9.26423 31.9167L 0 31.9167L 0 17.6484Z" transform="translate(891.099 -15316.6)" fill="#353535"></path>
            <path fill-rule="evenodd" d="M 27.7721 29.2672L 32.2393 19.3487L 30.4157 18.5273L 25.9357 28.4744L 25.9295 28.4895C 25.5999 29.2899 24.5409 29.9932 23.0632 29.9932L 20.1063 29.9932C 19.2153 29.9932 18.3186 29.6294 17.7457 29.1154L 14.11 25.7827L 12.7585 27.257L 16.3978 30.593L 16.4046 30.5992C 17.3482 31.4484 18.7244 31.9932 20.1063 31.9932L 23.0632 31.9932C 25.0671 31.9932 27.035 31.0343 27.7721 29.2672Z" transform="translate(891.099 -15316.6)" fill="#353535"></path>
            <path fill-rule="evenodd" d="M 44.9892 18.332L 44.9892 31.9179L 34.891 31.9179C 33.4577 31.9179 31.9748 31.3873 30.9995 30.4119L 30.993 30.4055L 26.8988 26.2354L 28.3259 24.8342L 32.4166 29.0007C 32.9581 29.5401 33.8998 29.9179 34.891 29.9179L 42.9892 29.9179L 42.9892 18.332L 44.9892 18.332Z" transform="translate(891.099 -15316.6)" fill="#353535"></path>
            <path fill-rule="evenodd" d="M 13.9428 42.3068L 30.3955 0L 32.2595 0.724892L 15.8068 43.0317L 13.9428 42.3068Z" transform="translate(891.099 -15316.6)" fill="#353535"></path>
        </g>
    </g>
</svg>