<svg width="59" height="44" viewBox="0 0 59 44" version="1.1" xmlns="http://www.w3.org/2000/svg" xmlns:xlink="http://www.w3.org/1999/xlink">
    <title>Group</title>
    <desc>Created using Figma</desc>
    <g id="Canvas" transform="translate(-2706 12191)">
        <g id="Group">
            <g id="Group">
                <g id="Vector">
                    <path d="M 2.39519 39.2856C 2.39519 27.2537 2.39519 15.2218 2.39519 3.18986C 2.39519 2.36161 2.39519 2.36161 3.20105 2.36161C 20.1688 2.36161 37.1478 2.36161 54.1156 2.36161C 54.8991 2.36161 54.8991 2.36161 54.8991 3.14509C 54.8991 15.1882 54.8991 27.2313 54.8991 39.2744L 57.3055 39.2744L 57.3055 1.00732C 57.0257 0.302197 56.5444 0 55.7609 0C 37.7187 0.0111925 19.6764 0.0111925 1.62291 0C 0.873013 0 0.335774 0.22385 0 0.895398L 0 39.2856L 2.39519 39.2856Z" transform="translate(2706.86 -12190.3)" fill="#FFDAD4"></path>
                </g>
                <g id="Vector">
                    <path d="M 2.39519 0C 2.39519 12.0319 2.39519 24.0638 2.39519 36.0957C 2.39519 36.924 2.39519 36.924 3.20105 36.924C 20.1688 36.924 37.1478 36.924 54.1156 36.924C 54.8991 36.924 54.8991 36.924 54.8991 36.1405C 54.8991 24.0974 54.8991 12.0543 54.8991 0.0111925L 57.3055 0.0111925L 57.3055 38.2895C 57.0257 38.9946 56.5444 39.2968 55.7609 39.2968C 37.7187 39.2856 19.6652 39.2856 1.62291 39.2968C 0.873013 39.2856 0.335774 39.0617 0 38.3902L 0 0L 2.39519 0Z" transform="translate(2706.86 -12186.8)" fill="#FFDAD4"></path>
                </g>
                <g id="Vector">
                    <path d="M 11.8277 23.5829C 8.60422 23.5829 5.38078 23.5829 2.14616 23.5829C 0.959755 23.5829 0.0307797 22.6764 0.0083947 21.4788C -0.00279778 20.6729 -0.00279778 19.8782 0.0083947 19.0724C 0.0195872 18.121 0.489671 17.4495 1.35149 17.0801C 2.98559 16.375 4.64208 15.7034 6.27618 14.9983C 6.76865 14.7857 7.22754 14.4946 7.69763 14.2372C 8.0334 14.0581 8.0334 13.8007 7.86551 13.4873C 7.27231 12.424 6.65673 11.3608 6.10829 10.2751C 5.77252 9.60354 5.68298 8.87603 5.81729 8.10374C 5.97398 7.17477 6.02995 6.2346 6.06353 5.29443C 6.10829 4.01849 6.46645 2.87686 7.28351 1.90311C 8.21248 0.795057 9.45485 0.201856 10.8651 0.0563535C 13.0029 -0.167496 14.9504 0.235433 16.4054 1.99265C 17.2224 2.98878 17.4799 4.16399 17.547 5.42874C 17.5918 6.34653 17.7037 7.26431 17.7932 8.19328C 17.8828 9.08868 17.7485 9.91693 17.256 10.7004C 16.674 11.6406 16.1591 12.6367 15.6667 13.6328C 15.5995 13.7671 15.7562 14.1477 15.9129 14.2484C 16.4278 14.5842 16.965 14.8752 17.5358 15.1214C 19.0356 15.7706 20.5466 16.3974 22.0576 17.013C 23.0985 17.4495 23.6021 18.1658 23.6133 19.285C 23.6133 19.9902 23.6133 20.7065 23.6133 21.4116C 23.6133 22.654 22.662 23.6053 21.4308 23.6053C 18.2409 23.5829 15.0399 23.5829 11.8277 23.5829ZM 21.1958 21.1318C 21.1958 20.6505 21.151 20.2252 21.2069 19.7999C 21.2629 19.341 21.0503 19.1619 20.6585 18.994C 18.9796 18.2553 17.2784 17.5278 15.6443 16.6996C 14.9168 16.3302 14.2452 15.7818 13.6408 15.211C 12.9805 14.5842 13.0812 13.0061 13.6073 12.2562C 14.0773 11.5958 14.4019 10.8459 14.7937 10.1296C 14.9615 9.82739 15.1182 9.5028 15.3533 9.26776C 15.5995 9.02153 15.6219 8.85364 15.454 8.55144C 15.2861 8.23805 15.1742 7.8687 15.1518 7.52174C 15.107 6.70468 15.1518 5.87644 15.1294 5.05939C 15.0847 3.51483 14.4915 2.73135 13.0252 2.50751C 12.2306 2.38439 11.38 2.38439 10.5853 2.5187C 9.14146 2.75374 8.55945 3.51483 8.51468 4.98104C 8.49229 5.79809 8.53706 6.62634 8.4811 7.44339C 8.45872 7.83513 8.31321 8.22686 8.14533 8.58502C 8.01102 8.86483 7.99982 9.02153 8.21248 9.25657C 8.46991 9.54757 8.66018 9.91693 8.85045 10.2639C 9.18623 10.8795 9.43246 11.5622 9.85777 12.1107C 10.742 13.2411 10.6972 14.7185 9.57796 15.6251C 8.9288 16.1511 8.22367 16.6212 7.47378 16.9906C 5.94041 17.7405 4.36227 18.4008 2.80651 19.1059C 2.63863 19.1843 2.41478 19.3298 2.40358 19.4641C 2.35881 20.0125 2.3812 20.5722 2.3812 21.1542C 8.68256 21.1318 14.9056 21.1318 21.1958 21.1318Z" transform="translate(2714.1 -12180.6)" fill="#FFDAD4"></path>
                </g>
                <g id="Vector">
                    <path d="M 8.32737 2.42877C 6.02172 2.42877 3.70488 2.42877 1.39923 2.42877C 0.5486 2.42877 0.0113613 1.96988 0.000168817 1.25356C -0.0110237 0.503661 0.537408 0.0111921 1.39923 -3.41567e-07C 5.99934 -3.41567e-07 10.5994 -3.41567e-07 15.1996 -3.41567e-07C 16.0726 -3.41567e-07 16.6434 0.49247 16.6434 1.21998C 16.6434 1.94749 16.0726 2.42877 15.1996 2.42877C 12.9051 2.42877 10.6106 2.42877 8.32737 2.42877Z" transform="translate(2740.33 -12173.7)" fill="#FFDAD4"></path>
                </g>
                <g id="Vector">
                    <path d="M 8.31618 2.42877C 6.02172 2.42877 3.73846 2.42877 1.444 2.42877C 0.548603 2.42877 0.0113647 1.98107 0.000172211 1.23117C -0.0110203 0.481276 0.526219 -3.41567e-07 1.41043 -3.41567e-07C 6.01053 -3.41567e-07 10.6106 -3.41567e-07 15.2107 -3.41567e-07C 16.2852 -3.41567e-07 16.9232 0.839436 16.5203 1.71245C 16.274 2.24969 15.8151 2.42877 15.2443 2.42877C 12.9275 2.42877 10.6218 2.42877 8.31618 2.42877Z" transform="translate(2740.33 -12166.5)" fill="#FFDAD4"></path>
                </g>
            </g>
        </g>
    </g>
</svg>