<svg width="3" height="722" viewBox="0 0 3 722" version="1.1" xmlns="http://www.w3.org/2000/svg" xmlns:xlink="http://www.w3.org/1999/xlink">
    <title>Group 5</title>
    <desc>Created using Figma</desc>
    <g id="Canvas" transform="translate(-29424 9142)">
        <g id="Group 5">
            <g id="Line 3">
                <path d="M 0 0L 1.9484 0L 1.9484 -1L 0 -1L 0 0ZM 5.84521 -5.55112e-17L 9.74202 -5.55112e-17L 9.74202 -1L 5.84521 -1L 5.84521 -5.55112e-17ZM 13.6388 0L 17.5356 0L 17.5356 -1L 13.6388 -1L 13.6388 0ZM 21.4325 0L 25.3293 0L 25.3293 -1L 21.4325 -1L 21.4325 0ZM 29.2261 0L 33.1229 0L 33.1229 -1L 29.2261 -1L 29.2261 0ZM 37.0197 0L 40.9165 0L 40.9165 -1L 37.0197 -1L 37.0197 0ZM 44.8133 0L 48.7101 0L 48.7101 -1L 44.8133 -1L 44.8133 0ZM 52.6069 0L 56.5037 0L 56.5037 -1L 52.6069 -1L 52.6069 0ZM 60.4005 0L 64.2974 0L 64.2974 -1L 60.4005 -1L 60.4005 0ZM 68.1942 0L 72.091 0L 72.091 -1L 68.1942 -1L 68.1942 0ZM 75.9878 0L 79.8846 0L 79.8846 -1L 75.9878 -1L 75.9878 0ZM 83.7814 0L 87.6782 0L 87.6782 -1L 83.7814 -1L 83.7814 0ZM 91.575 0L 95.4719 0L 95.4719 -1L 91.575 -1L 91.575 0ZM 99.3687 0L 103.265 0L 103.265 -1L 99.3687 -1L 99.3687 0ZM 107.162 0L 111.059 0L 111.059 -1L 107.162 -1L 107.162 0ZM 114.956 0L 116.904 0L 116.904 -1L 114.956 -1L 114.956 0Z" transform="matrix(-4.37114e-08 1 -1 -4.37114e-08 29424.2 -9141.89)" fill="#FFDAD4"></path>
            </g>
            <g id="Line 3.2">
                <path d="M 0 0L 1.99181 0L 1.99181 -1L 0 -1L 0 0ZM 5.97542 0L 9.95904 0L 9.95904 -1L 5.97542 -1L 5.97542 0ZM 13.9427 0L 17.9263 0L 17.9263 -1L 13.9427 -1L 13.9427 0ZM 21.9099 -5.55112e-17L 25.8935 -5.55112e-17L 25.8935 -1L 21.9099 -1L 21.9099 -5.55112e-17ZM 29.8771 0L 33.8607 0L 33.8607 -1L 29.8771 -1L 29.8771 0ZM 37.8443 -5.55112e-17L 41.828 -5.55112e-17L 41.828 -1L 37.8443 -1L 37.8443 -5.55112e-17ZM 45.8116 -5.55112e-17L 49.7952 -5.55112e-17L 49.7952 -1L 45.8116 -1L 45.8116 -5.55112e-17ZM 53.7788 -5.55112e-17L 57.7624 -5.55112e-17L 57.7624 -1L 53.7788 -1L 53.7788 -5.55112e-17ZM 61.746 -5.55112e-17L 65.7297 -5.55112e-17L 65.7297 -1L 61.746 -1L 61.746 -5.55112e-17ZM 69.7133 0L 71.7051 0L 71.7051 -1L 69.7133 -1L 69.7133 0Z" transform="matrix(-4.37114e-08 1 -1 -4.37114e-08 29424.2 -8960.27)" fill="#FFDAD4"></path>
            </g>
            <g id="Line 3.3">
                <path d="M 0 0L 1.98993 0L 1.98993 -1L 0 -1L 0 0ZM 5.96978 0L 9.94963 0L 9.94963 -1L 5.96978 -1L 5.96978 0ZM 13.9295 -5.55112e-17L 17.9093 -5.55112e-17L 17.9093 -1L 13.9295 -1L 13.9295 -5.55112e-17ZM 21.8892 0L 25.869 0L 25.869 -1L 21.8892 -1L 21.8892 0ZM 29.8489 -5.55112e-17L 33.8287 -5.55112e-17L 33.8287 -1L 29.8489 -1L 29.8489 -5.55112e-17ZM 37.8086 -5.55112e-17L 41.7884 -5.55112e-17L 41.7884 -1L 37.8086 -1L 37.8086 -5.55112e-17ZM 45.7683 0L 49.7481 0L 49.7481 -1L 45.7683 -1L 45.7683 0ZM 53.728 0L 57.7078 0L 57.7078 -1L 53.728 -1L 53.728 0ZM 61.6877 -5.55112e-17L 65.6675 -5.55112e-17L 65.6675 -1L 61.6877 -1L 61.6877 -5.55112e-17ZM 69.6474 -5.55112e-17L 73.6272 -5.55112e-17L 73.6272 -1L 69.6474 -1L 69.6474 -5.55112e-17ZM 77.6071 -5.55112e-17L 81.5869 -5.55112e-17L 81.5869 -1L 77.6071 -1L 77.6071 -5.55112e-17ZM 85.5668 -5.55112e-17L 89.5466 -5.55112e-17L 89.5466 -1L 85.5668 -1L 85.5668 -5.55112e-17ZM 93.5265 -5.55112e-17L 97.5063 -5.55112e-17L 97.5063 -1L 93.5265 -1L 93.5265 -5.55112e-17ZM 101.486 -5.55112e-17L 105.466 -5.55112e-17L 105.466 -1L 101.486 -1L 101.486 -5.55112e-17ZM 109.446 -5.55112e-17L 113.426 -5.55112e-17L 113.426 -1L 109.446 -1L 109.446 -5.55112e-17ZM 117.406 -5.55112e-17L 121.385 -5.55112e-17L 121.385 -1L 117.406 -1L 117.406 -5.55112e-17ZM 125.365 -5.55112e-17L 129.345 -5.55112e-17L 129.345 -1L 125.365 -1L 125.365 -5.55112e-17ZM 133.325 -5.55112e-17L 137.305 -5.55112e-17L 137.305 -1L 133.325 -1L 133.325 -5.55112e-17ZM 141.285 -5.55112e-17L 145.265 -5.55112e-17L 145.265 -1L 141.285 -1L 141.285 -5.55112e-17ZM 149.244 -5.55112e-17L 153.224 -5.55112e-17L 153.224 -1L 149.244 -1L 149.244 -5.55112e-17ZM 157.204 -5.55112e-17L 161.184 -5.55112e-17L 161.184 -1L 157.204 -1L 157.204 -5.55112e-17ZM 165.164 -5.55112e-17L 169.144 -5.55112e-17L 169.144 -1L 165.164 -1L 165.164 -5.55112e-17ZM 173.123 -5.55112e-17L 177.103 -5.55112e-17L 177.103 -1L 173.123 -1L 173.123 -5.55112e-17ZM 181.083 -5.55112e-17L 185.063 -5.55112e-17L 185.063 -1L 181.083 -1L 181.083 -5.55112e-17ZM 189.043 -5.55112e-17L 193.023 -5.55112e-17L 193.023 -1L 189.043 -1L 189.043 -5.55112e-17ZM 197.002 -5.55112e-17L 200.982 -5.55112e-17L 200.982 -1L 197.002 -1L 197.002 -5.55112e-17ZM 204.962 -5.55112e-17L 208.942 -5.55112e-17L 208.942 -1L 204.962 -1L 204.962 -5.55112e-17ZM 212.922 -5.55112e-17L 216.902 -5.55112e-17L 216.902 -1L 212.922 -1L 212.922 -5.55112e-17ZM 220.882 -5.55112e-17L 224.861 -5.55112e-17L 224.861 -1L 220.882 -1L 220.882 -5.55112e-17ZM 228.841 -5.55112e-17L 232.821 -5.55112e-17L 232.821 -1L 228.841 -1L 228.841 -5.55112e-17ZM 236.801 -5.55112e-17L 238.791 -5.55112e-17L 238.791 -1L 236.801 -1L 236.801 -5.55112e-17Z" transform="matrix(4.37114e-08 1 -1 4.37114e-08 29425.2 -8823.04)" fill="#FFDAD4"></path>
            </g>
            <g id="Line 3.4">
                <path d="M 0 0L 2.00378 0L 2.00378 -1L 0 -1L 0 0ZM 6.01133 0L 10.0189 0L 10.0189 -1L 6.01133 -1L 6.01133 0ZM 14.0264 0L 18.034 0L 18.034 -1L 14.0264 -1L 14.0264 0ZM 22.0416 0L 26.0491 0L 26.0491 -1L 22.0416 -1L 22.0416 0ZM 30.0567 0L 34.0642 0L 34.0642 -1L 30.0567 -1L 30.0567 0ZM 38.0718 0L 42.0793 0L 42.0793 -1L 38.0718 -1L 38.0718 0ZM 46.0869 0L 50.0945 0L 50.0945 -1L 46.0869 -1L 46.0869 0ZM 54.102 0L 58.1096 0L 58.1096 -1L 54.102 -1L 54.102 0ZM 62.1171 0L 66.1247 0L 66.1247 -1L 62.1171 -1L 62.1171 0ZM 70.1322 0L 74.1398 0L 74.1398 -1L 70.1322 -1L 70.1322 0ZM 78.1473 0L 82.1549 0L 82.1549 -1L 78.1473 -1L 78.1473 0ZM 86.1625 0L 90.17 0L 90.17 -1L 86.1625 -1L 86.1625 0ZM 94.1776 0L 96.1814 0L 96.1814 -1L 94.1776 -1L 94.1776 0Z" transform="matrix(4.37114e-08 1 -1 4.37114e-08 29424.2 -8516.54)" fill="#FFDAD4"></path>
            </g>
        </g>
    </g>
</svg>