<svg width="51" height="45" viewBox="0 0 51 45" version="1.1" xmlns="http://www.w3.org/2000/svg" xmlns:xlink="http://www.w3.org/1999/xlink">
    <title>Group</title>
    <desc>Created using Figma</desc>
    <g id="Canvas" transform="translate(910 19362)">
        <g id="Group">
            <g id="Vector">
                <path d="M 19.5372 -1.1L 7.56636e-07 -1.1L 7.56636e-07 1.1L 19.5372 1.1L 19.5372 -1.1Z" transform="translate(-889.643 -19326.2)" fill="#353535"></path>
            </g>
            <g id="Vector">
                <path d="M 37.686 0L 38.786 0L 38.786 -1.1L 37.686 -1.1L 37.686 0ZM -3.78318e-07 1.1L 37.686 1.1L 37.686 -1.1L -3.78318e-07 -1.1L -3.78318e-07 1.1ZM 36.586 0L 36.586 23.8845L 38.786 23.8845L 38.786 0L 36.586 0Z" transform="translate(-897.874 -19360)" fill="#353535"></path>
            </g>
            <g id="Vector">
                <path d="M 16.9496 5.57305C 16.9496 6.58943 16.2787 7.68223 14.8284 8.57787C 13.3953 9.46284 11.3462 10.0461 9.02481 10.0461L 9.02481 12.2461C 11.6877 12.2461 14.151 11.5818 15.9843 10.4497C 17.8003 9.32831 19.1496 7.63459 19.1496 5.57305L 16.9496 5.57305ZM 9.02481 10.0461C 6.70343 10.0461 4.65436 9.46284 3.22127 8.57787C 1.7709 7.68223 1.1 6.58943 1.1 5.57305L -1.1 5.57305C -1.1 7.63459 0.249372 9.32831 2.06535 10.4497C 3.89859 11.5818 6.36193 12.2461 9.02481 12.2461L 9.02481 10.0461ZM 1.1 5.57305C 1.1 4.55668 1.7709 3.46388 3.22127 2.56824C 4.65436 1.68326 6.70343 1.1 9.02481 1.1L 9.02481 -1.1C 6.36193 -1.1 3.89859 -0.435693 2.06535 0.696381C 0.249372 1.81779 -1.1 3.51152 -1.1 5.57305L 1.1 5.57305ZM 9.02481 1.1C 11.3462 1.1 13.3953 1.68326 14.8284 2.56824C 16.2787 3.46388 16.9496 4.55668 16.9496 5.57305L 19.1496 5.57305C 19.1496 3.51152 17.8003 1.81779 15.9843 0.696381C 14.151 -0.435693 11.6877 -1.1 9.02481 -1.1L 9.02481 1.1Z" transform="translate(-908.188 -19360)" fill="#353535"></path>
            </g>
            <g id="Vector">
                <path d="M 16.8505 -1.51854e-06C 16.8505 1.01776 16.1758 2.11084 14.7208 3.00677C 13.2837 3.89167 11.234 4.47305 8.92564 4.47305L 8.92564 6.67305C 11.576 6.67305 14.0386 6.01045 15.8743 4.88009C 17.6921 3.76076 19.0505 2.06731 19.0505 -1.51854e-06L 16.8505 -1.51854e-06ZM 8.92564 4.47305C 6.61768 4.47305 4.59582 3.89192 3.18647 3.01074C 1.7635 2.12103 1.1 1.02936 1.1 -1.51854e-06L -1.1 -1.51854e-06C -1.1 2.05572 0.219977 3.75058 2.02015 4.87613C 3.83395 6.0102 6.27491 6.67305 8.92564 6.67305L 8.92564 4.47305Z" transform="translate(-908.188 -19324.6)" fill="#353535"></path>
            </g>
            <g id="Vector">
                <path d="M 9.71903 0.099518L 10.3466 0.74464C 10.6079 0.490413 10.6901 0.103625 10.5546 -0.234875C 10.4191 -0.573375 10.0928 -0.796702 9.72825 -0.800435L 9.71903 0.099518ZM 1.51327e-06 9.5538L -0.899998 9.5538C -0.899998 9.91556 -0.6834 10.2422 -0.350146 10.3829C -0.0168907 10.5236 0.368243 10.4512 0.62755 10.1989L 1.51327e-06 9.5538ZM 1.51327e-06 7.59268e-07L 0.00921651 -0.899952C -0.231063 -0.902412 -0.462349 -0.808685 -0.633128 -0.639645C -0.803908 -0.470605 -0.899998 -0.240291 -0.899998 7.59268e-07L 1.51327e-06 7.59268e-07ZM 9.09148 -0.545604L -0.627547 8.90868L 0.62755 10.1989L 10.3466 0.74464L 9.09148 -0.545604ZM 0.900001 9.5538L 0.900001 7.59268e-07L -0.899998 7.59268e-07L -0.899998 9.5538L 0.900001 9.5538ZM -0.00921349 0.899954L 9.70982 0.999471L 9.72825 -0.800435L 0.00921651 -0.899952L -0.00921349 0.899954Z" transform="translate(-870.105 -19335.9)" fill="#353535"></path>
            </g>
            <g id="Vector">
                <path d="M -1.1 0L -1.1 30.8508L 1.1 30.8508L 1.1 0L -1.1 0Z" transform="translate(-908.188 -19354.5)" fill="#353535"></path>
            </g>
            <g id="Vector">
                <path d="M -1.1 0L -1.1 30.3532L 1.1 30.3532L 1.1 0L -1.1 0Z" transform="translate(-890.238 -19354.5)" fill="#353535"></path>
            </g>
            <g id="Vector">
                <path d="M 7.43225 1.89086C 7.43225 1.97818 7.32795 2.27611 6.64614 2.59317C 6.02201 2.88341 5.11057 3.08171 4.06612 3.08171L 4.06612 4.48171C 5.26734 4.48171 6.38896 4.25674 7.23647 3.86262C 8.02632 3.49532 8.83225 2.84782 8.83225 1.89086L 7.43225 1.89086ZM 4.06612 3.08171C 3.02168 3.08171 2.11024 2.88341 1.48611 2.59317C 0.804302 2.27611 0.7 1.97818 0.7 1.89086L -0.7 1.89086C -0.7 2.84782 0.105931 3.49532 0.895776 3.86262C 1.74329 4.25674 2.86491 4.48171 4.06612 4.48171L 4.06612 3.08171ZM 0.7 1.89086C 0.7 1.80353 0.804302 1.5056 1.48611 1.18855C 2.11024 0.898306 3.02168 0.7 4.06612 0.7L 4.06612 -0.7C 2.86491 -0.7 1.74329 -0.475024 0.895776 -0.0809075C 0.105931 0.286391 -0.7 0.93389 -0.7 1.89086L 0.7 1.89086ZM 4.06612 0.7C 5.11057 0.7 6.02201 0.898306 6.64614 1.18855C 7.32795 1.5056 7.43225 1.80353 7.43225 1.89086L 8.83225 1.89086C 8.83225 0.933891 8.02632 0.286391 7.23647 -0.0809075C 6.38896 -0.475024 5.26734 -0.7 4.06612 -0.7L 4.06612 0.7Z" transform="translate(-903.23 -19356.3)" fill="#353535"></path>
            </g>
        </g>
    </g>
</svg>