<svg width="35" height="43" viewBox="0 0 35 43" version="1.1" xmlns="http://www.w3.org/2000/svg" xmlns:xlink="http://www.w3.org/1999/xlink">
    <title>Vector</title>
    <desc>Created using Figma</desc>
    <g id="Canvas" transform="translate(-53071 10392)">
        <g id="Vector">
            <path d="M 33.8973 2.52772C 33.5119 2.53905 33.0925 2.62973 33.0925 3.62722L 33.0925 9.65747C 33.0925 19.7003 33.0925 29.7432 33.0925 39.786C 33.0925 39.9221 33.0812 40.0468 33.0812 40.1941C 33.0812 40.2621 33.0699 40.3415 33.0699 40.4208L 33.0585 40.7495L 13.2675 40.7495C 12.5194 40.7495 11.7713 40.7495 11.0232 40.7495C 10.2751 40.7495 9.52694 40.7495 8.77882 40.7495C 7.28259 40.7495 6.06974 40.7495 4.97024 40.7382C 3.50802 40.7269 2.41985 39.9787 1.96645 38.6979C 1.51305 37.4057 1.70575 36.2495 2.52187 35.3427C 3.19064 34.5946 4.08611 34.2319 5.25362 34.2319C 10.6264 34.2432 16.0899 34.2432 21.3607 34.2432C 24.0018 34.2432 26.6429 34.2432 29.2839 34.2432C 29.5787 34.2432 29.862 34.2659 30.1227 34.3112C 30.5988 34.3906 30.9275 34.3226 31.0975 34.1185C 31.2336 33.9598 31.3129 33.6765 31.3129 33.3024L 31.3129 0C 31.2789 0 31.2449 0 31.2109 0C 28.9439 0 26.6882 0 24.4212 0C 21.8821 0 19.3544 0 16.8154 0C 12.8254 0 9.54961 0.0113351 6.50047 0.0226701C 2.89593 -1.86265e-09 0.266193 2.52772 0.107502 6.1436C 0.0394916 7.67383 0.0621617 19.1336 0.0734968 27.4988C 0.0734968 30.9107 0.0848318 33.8578 0.0848318 35.6828C 0.0848318 36.0001 0.0621617 36.3175 0.0394916 36.6236C 0.0054864 37.0883 -0.0171837 37.5304 0.0168215 37.9611C 0.232188 40.4548 2.37451 42.4158 4.8909 42.4271C 7.66799 42.4385 10.4451 42.4385 13.2222 42.4271C 14.3217 42.4271 15.4325 42.4271 16.532 42.4271L 16.7814 42.4271C 16.9854 42.4271 32.3104 42.4158 34.8041 42.4158L 34.8041 8.28593C 34.8041 6.69902 34.8041 5.05544 34.8041 3.44586C 34.8041 2.82243 34.4981 2.51638 33.8973 2.52772ZM 1.80776 6.44965C 1.80776 3.70656 3.7914 1.71159 6.53448 1.71159C 10.3091 1.71159 14.0836 1.70026 17.8582 1.70026L 28.6378 1.70026C 28.7739 1.70026 28.8985 1.71159 29.0459 1.72293C 29.1139 1.72293 29.1706 1.73426 29.2386 1.73426L 29.556 1.75693L 29.556 32.4976L 17.2801 32.4976C 14.1516 32.4976 10.0143 32.4976 5.7977 32.4863L 5.75236 32.4863C 4.40349 32.4863 3.372 32.611 2.35184 33.2344L 1.87577 33.5291L 1.84177 32.9737C 1.84177 32.8943 1.83043 32.815 1.8191 32.747C 1.80776 32.5996 1.79643 32.4863 1.79643 32.3503L 1.79643 28.4057C 1.80776 21.2079 1.80776 13.7721 1.80776 6.44965Z" transform="translate(53071 -10392)" fill="#B1BABE"></path>
            <path d="M 30.0439 36.6689L 6.76172 36.6689L 6.76172 38.3239L 30.0439 38.3239L 30.0439 36.6689Z" transform="translate(53071 -10392)" fill="#B1BABE"></path>
        </g>
    </g>
</svg>