<svg width="87" height="77" viewBox="0 0 87 77" version="1.1" xmlns="http://www.w3.org/2000/svg" xmlns:xlink="http://www.w3.org/1999/xlink">
    <title>Vector (Stroke)</title>
    <desc>Created using Figma</desc>
    <g id="Canvas" transform="translate(-27984 12304)">
        <g id="Vector (Stroke)">
            <path fill-rule="evenodd" d="M 9.93042 8.85133C 6.47831 12.0936 4 17.1257 4 24.3179C 4 34.8986 10.2897 46.1387 23.3271 58.0524C 28.1495 62.4359 32.9377 65.9732 36.5645 68.4357C 38.3765 69.6659 39.8939 70.6247 40.9744 71.2834C 41.8652 71.8265 42.4191 72.1412 42.6015 72.2439C 42.6124 72.2439 42.6242 72.2439 42.6372 72.2439C 42.6419 72.2439 42.6465 72.2439 42.651 72.2439C 42.6837 72.2242 42.719 72.2028 42.757 72.1798C 44.6571 71.0315 53.1523 65.8973 61.9541 58.0461C 74.9869 46.1348 81.2744 34.8968 81.2744 24.3179C 81.2744 17.1257 78.7961 12.0936 75.344 8.85133C 71.859 5.57818 67.2436 4 62.7865 4C 55.8936 4 48.1871 7.88845 44.4685 16.3599L 42.6372 20.532L 40.8059 16.3599C 37.0873 7.88845 29.3808 4 22.4879 4C 18.0308 4 13.4154 5.57818 9.93042 8.85133ZM 7.19201 5.93567C 11.4958 1.89349 17.1243 0 22.4879 0C 29.8092 0 37.8074 3.6229 42.6372 11.2926C 47.467 3.6229 55.4652 0 62.7865 0C 68.1501 0 73.7786 1.89349 78.0824 5.93567C 82.4191 10.0087 85.2744 16.1355 85.2744 24.3179C 85.2744 36.5505 78.019 48.785 64.6436 61.0071L 64.6348 61.0151L 64.6259 61.023C 59.6344 65.4764 54.7361 69.0835 51.0247 71.618C 49.1675 72.8862 47.6042 73.8881 46.4711 74.595C 45.9044 74.9485 45.4459 75.2279 45.1136 75.429C 44.9505 75.5277 44.8107 75.6118 44.7163 75.6689C 44.6027 75.7374 44.5714 75.757 44.5749 75.7548L 44.4717 75.8219L 44.3612 75.8759C 44.0629 76.0215 43.7472 76.1378 43.3817 76.1973C 43.0884 76.245 42.8118 76.2443 42.6687 76.244C 42.6573 76.2439 42.6468 76.2439 42.6372 76.2439C 42.6276 76.2439 42.6171 76.2439 42.6057 76.244C 42.4626 76.2443 42.186 76.245 41.8927 76.1973C 41.5272 76.1378 41.2115 76.0215 40.9132 75.8759C 40.4031 75.6269 30.5945 70.0642 20.6347 61.0106L 20.6308 61.0071C 7.25539 48.785 0 36.5505 0 24.3179C 0 16.1355 2.85532 10.0087 7.19201 5.93567Z" transform="translate(27984.7 -12303.6)" fill="#FFDAD4"></path>
        </g>
    </g>
</svg>