<svg width="6" height="13" viewBox="0 0 6 13" version="1.1" xmlns="http://www.w3.org/2000/svg" xmlns:xlink="http://www.w3.org/1999/xlink">
    <title>Vector</title>
    <desc>Created using Figma</desc>
    <g id="Canvas" transform="translate(16311 14322)">
        <g id="Vector">
            <path d="M 6 4.20946L 3.95661 4.20946L 3.95661 2.86021C 3.95661 2.35351 4.29018 2.23537 4.52513 2.23537C 4.75953 2.23537 5.96712 2.23537 5.96712 2.23537L 5.96712 0.00780369L 3.9812 -2.32537e-16C 1.77664 -2.32537e-16 1.27495 1.66139 1.27495 2.72459L 1.27495 4.20946L 4.56394e-15 4.20946L 4.56394e-15 6.50484L 1.27495 6.50484C 1.27495 9.45062 1.27495 13 1.27495 13L 3.95661 13C 3.95661 13 3.95661 9.41567 3.95661 6.50484L 5.76613 6.50484L 6 4.20946Z" transform="translate(-16311 -14322)" fill="#353535"></path>
        </g>
    </g>
</svg>