<svg width="8" height="15" viewBox="0 0 8 15" version="1.1" xmlns="http://www.w3.org/2000/svg" xmlns:xlink="http://www.w3.org/1999/xlink">
    <title>Vector</title>
    <desc>Created using Figma</desc>
    <g id="Canvas" transform="translate(-25795 9770)">
        <g id="Vector">
            <path d="M 7.00238 4.85707L 4.61761 4.85707L 4.61761 3.30025C 4.61761 2.71559 5.00691 2.57928 5.28111 2.57928C 5.55467 2.57928 6.96401 2.57928 6.96401 2.57928L 6.96401 0.00900426L 4.64632 -2.68312e-16C 2.07345 -2.68312e-16 1.48794 1.91699 1.48794 3.14376L 1.48794 4.85707L 5.3264e-15 4.85707L 5.3264e-15 7.50558L 1.48794 7.50558C 1.48794 10.9046 1.48794 15 1.48794 15L 4.61761 15C 4.61761 15 4.61761 10.8642 4.61761 7.50558L 6.72944 7.50558L 7.00238 4.85707Z" transform="translate(25795 -9770)" fill="#353535"></path>
        </g>
    </g>
</svg>