<svg width="108" height="103" viewBox="0 0 108 103" version="1.1" xmlns="http://www.w3.org/2000/svg" xmlns:xlink="http://www.w3.org/1999/xlink">
<title>Vector</title>
<desc>Created using Figma</desc>
<g id="Canvas" transform="translate(16815 19164)">
<g id="Vector">
<use xlink:href="#path0_fill" transform="translate(-16815 -19164)" fill="#B1BABE"/>
<use xlink:href="#path1_fill" transform="translate(-16815 -19164)" fill="#B1BABE"/>
<use xlink:href="#path2_fill" transform="translate(-16815 -19164)" fill="#B1BABE"/>
</g>
</g>
<defs>
<path id="path0_fill" d="M 51.4595 75.9348C 50.4086 75.2949 48.9448 75.2949 46.843 77.4029L 44.1408 79.4732C 37.2725 85.3831 30.1789 91.4812 23.2356 97.4664C 21.8844 98.6333 20.5708 98.558 19.2197 97.2782C 17.9436 96.036 17.8685 94.7185 18.9945 93.2881C 19.2947 92.9116 19.6325 92.5352 19.9328 92.1964C 20.0454 92.0459 20.158 91.9329 20.3081 91.7824C 21.5091 90.3896 22.6726 89.0345 23.8736 87.6417C 27.8895 83.0493 36.5218 72.9234 40.5377 68.2181C 41.0632 67.6158 41.4009 66.7124 41.3259 66.1854C 41.2508 65.7713 40.6128 65.0938 40.0123 64.7926C 39.8621 64.7173 39.712 64.6797 39.5244 64.6797C 39.0364 64.6797 38.5485 65.0185 37.948 65.6584C 35.0581 69.0086 27.7019 77.6287 24.8119 80.9413C 22.0346 84.1786 19.2197 87.4158 16.4048 90.6531C 13.9277 93.5139 14.0403 97.0147 16.63 99.6497C 17.9811 101.042 19.5575 101.758 21.2464 101.758C 22.8227 101.758 24.3615 101.118 25.7502 99.9132C 26.7636 99.0474 27.7769 98.1816 28.7527 97.3158C 29.3157 96.7888 29.9162 96.2995 30.4792 95.7725L 48.7572 80.0379C 50.296 78.6075 52.0975 76.7253 51.4595 75.9348C 51.497 75.9348 51.497 75.9348 51.4595 75.9348Z"/>
<path id="path1_fill" d="M 106.442 3.77559C 106.216 2.98509 105.578 2.38281 104.865 2.38281C 104.715 2.38281 104.602 2.42046 104.49 2.4581C 103.889 2.68395 103.289 3.13566 102.989 3.62502C 100.061 8.25506 96.3455 11.0783 91.5039 12.1699C 91.1661 12.2452 90.8283 12.3957 90.528 12.5463C 90.3779 12.6216 90.1903 12.6592 90.0401 12.7345C 85.9116 14.2779 83.4721 16.9505 82.6839 20.903C 82.4212 22.2205 81.7081 23.1992 80.5071 24.1026C 69.4727 32.2334 60.2024 40.5524 52.1706 49.6619C 50.7444 51.2429 51.1948 52.0711 51.7953 52.6733C 52.1331 53.0498 52.4708 53.2003 52.8837 53.2003C 53.259 53.2003 53.7094 53.0498 54.2348 52.711L 54.9479 52.2216C 55.023 52.184 55.0981 52.184 55.1731 52.184C 55.4359 52.184 55.6235 52.3346 55.7361 52.5228L 64.8563 61.5946L 64.481 62.0087C 64.4435 62.0463 64.4059 62.084 64.3684 62.1216C 64.2934 62.1969 64.1808 62.3098 64.1057 62.4228C 63.4301 63.3638 63.4301 64.192 64.1057 64.9072C 64.7813 65.5847 65.8322 65.5847 66.6954 64.9072C 67.0707 64.5684 67.4836 64.2296 67.8589 63.8908C 68.009 63.7403 68.1967 63.5897 68.3468 63.4768C 76.4161 56.3623 84.2227 47.6292 92.2545 36.8634C 93.7183 34.906 95.257 33.7015 97.2087 32.9863C 102.238 31.1794 105.541 27.641 106.967 22.4087C 108.506 16.9129 108.318 10.9653 106.442 3.77559ZM 67.7838 58.5832L 57.8004 48.6079L 61.2533 45.6342L 71.2743 55.6471L 67.7838 58.5832ZM 74.502 52.8239L 63.8805 42.284L 82.196 27.0764L 89.6648 34.6425L 74.502 52.8239ZM 103.364 21.7311C 102.351 25.3072 99.9485 27.8292 96.0452 29.5608L 95.82 29.6737C 94.2437 30.3513 93.3805 30.7653 92.5548 30.7653C 91.3537 30.7653 90.528 29.9748 88.9517 28.3562C 88.7641 28.168 88.5764 27.9798 88.4263 27.8292C 88.0885 27.4528 87.7882 27.114 87.4504 26.8882C 85.2736 25.4201 85.6489 23.5003 86.1744 21.844C 87.1127 18.8326 88.9517 16.9129 91.7666 15.9718C 91.9918 15.8965 92.2545 15.7836 92.4797 15.7083C 92.7424 15.633 93.0051 15.4824 93.3054 15.4072C 97.1336 14.165 100.474 12.9227 102.989 9.53491L 103.852 8.36799L 104.077 9.79841C 104.64 14.1649 104.452 18.0045 103.364 21.7311Z"/>
<path id="path2_fill" d="M 90.0787 92.8741L 89.8535 93.1C 89.6659 92.8365 89.4782 92.6106 89.253 92.3848L 84.4114 87.4912L 84.3739 87.4536L 33.4808 39.9863C 33.7811 38.9323 33.9688 37.8783 33.9688 36.7867C 33.9688 30.6133 28.977 25.6068 22.8218 25.6068C 21.0954 25.6068 19.2938 26.2844 18.0553 26.849L 11.262 19.9981L 10.7366 19.4711C 8.55975 17.3631 8.1469 16.1585 8.07184 15.6315C 8.03431 15.2551 8.1469 15.0292 8.48469 14.6904C 8.52222 14.6528 8.52222 14.6528 8.55975 14.6152L 16.7417 4.94101C 17.3046 4.26344 17.2671 3.24709 16.6291 2.60717L 14.3772 0.461537C 13.7016 -0.178387 12.6882 -0.140745 12.0127 0.499179C 11.9376 0.536822 6.53304 5.91971 2.10429 10.3615C -0.597995 13.1095 -0.71059 17.2501 1.84157 21.4661C 3.38037 24.0258 3.98088 25.1174 3.98088 25.1174C 4.05594 25.268 4.16854 25.3809 4.28113 25.4939L 12.2754 33.5494C 11.9376 34.641 11.6749 35.8456 11.6749 36.749C 11.6749 42.9224 16.6666 47.9289 22.8218 47.9289C 24.0604 47.9289 25.2614 47.7407 26.4249 47.3266L 77.2804 94.7939L 82.0094 99.5745C 82.2346 99.8004 82.4973 100.026 82.76 100.214C 82.1971 100.892 82.2346 101.871 82.8351 102.511C 83.1729 102.849 83.5857 103 84.0361 103C 84.449 103 84.8993 102.849 85.2371 102.511L 92.4057 95.3209C 93.0813 94.6433 93.0813 93.5893 92.4057 92.9118C 91.8052 92.2342 90.7168 92.2342 90.0787 92.8741ZM 79.6449 92.3848L 79.6074 92.3471L 27.9261 44.127C 27.5884 43.8258 27.1755 43.6752 26.7627 43.6752C 26.5375 43.6752 26.2747 43.7129 26.0496 43.8258C 25.0362 44.3152 23.9102 44.541 22.7843 44.541C 18.5057 44.541 15.0152 41.0403 15.0152 36.749C 15.0152 36.3726 15.1278 35.5444 15.7658 33.6247C 15.9535 33.0224 15.8034 32.3448 15.353 31.9308L 6.83329 23.273C 6.57057 22.8212 5.93253 21.7296 4.73151 19.6969C 3.71816 18.0406 2.36701 14.9163 4.50632 12.7707C 7.17108 10.098 10.1736 7.08664 12.1628 5.12922L 5.97006 12.3942C 3.64309 14.9163 4.43126 18.1536 8.37209 21.9178L 16.554 30.1239C 17.0795 30.6509 17.9427 30.7638 18.5807 30.3874C 20.1195 29.5216 21.6959 28.9946 22.8218 28.9946C 27.1004 28.9946 30.5909 32.4954 30.5909 36.7867C 30.5909 37.8406 30.3657 38.8946 29.9529 39.8357C 29.6526 40.5886 29.8778 41.4167 30.5534 41.8684L 82.0469 89.938L 86.851 94.7939C 87.1888 95.1327 87.3014 95.5091 87.3389 95.6597L 85.2747 97.73C 85.1245 97.73 84.7492 97.5795 84.4114 97.2407L 79.6449 92.3848Z"/>
</defs>
</svg>
