<svg width="63" height="64" viewBox="0 0 63 64" version="1.1" xmlns="http://www.w3.org/2000/svg" xmlns:xlink="http://www.w3.org/1999/xlink">
    <title>вышивка</title>
    <desc>Created using Figma</desc>
    <g id="Canvas" transform="translate(14303 22145)">
        <g id="вышивка">
            <path fill-rule="evenodd" d="M 37.2009 4.56903C 36.6086 5.43949 36.4744 5.81271 36.4693 6.07685L 36.7695 13.6507L 50.479 26.6564L 58.0151 26.949C 59.49 26.9465 59.7994 26.6532 59.838 26.6156C 59.9349 26.5216 59.9773 26.4577 59.9948 26.4256C 59.9762 26.3881 59.935 26.3247 59.8512 26.2306C 59.7805 26.1511 59.717 26.0891 59.6379 26.0118C 59.5996 25.9744 59.5577 25.9334 59.5094 25.8851C 52.9464 19.312 39.5245 5.87964 38.2629 4.65563C 37.9303 4.33286 37.7182 4.22623 37.6208 4.19365C 37.595 4.18502 37.5789 4.18176 37.5699 4.18067C 37.5646 4.18361 37.5558 4.189 37.5434 4.19826C 37.52 4.21574 37.4898 4.24241 37.4508 4.28309C 37.4106 4.32515 37.3721 4.37018 37.3199 4.43198C 37.3168 4.4356 37.3134 4.43956 37.3099 4.44381C 37.284 4.47453 37.2451 4.52061 37.2009 4.56903ZM 37.5609 4.1805C 37.5609 4.1805 37.5624 4.18001 37.5664 4.18031C 37.563 4.18086 37.5609 4.1805 37.5609 4.1805ZM 48.6245 27.6539L 35.7941 15.4822L 28.2332 22.8179L 26.8406 21.3825L 34.7694 13.6897L 34.4692 6.11256L 34.4692 6.09275C 34.4692 5.13311 34.9701 4.28376 35.5968 3.37164L 35.6533 3.2895L 35.7247 3.22021C 35.7247 3.22021 35.7236 3.22124 35.727 3.21732C 35.7335 3.20991 35.7515 3.18934 35.7924 3.1409L 35.7956 3.13714C 35.845 3.07865 35.9192 2.99085 36.006 2.90021C 36.1807 2.71761 36.4589 2.4658 36.8524 2.31308C 37.7769 1.95428 38.7345 2.32654 39.6556 3.22021C 40.9323 4.45887 54.3735 17.9107 60.9248 24.472C 60.9408 24.488 60.9623 24.5086 60.988 24.5332C 61.1838 24.7207 61.6284 25.1464 61.8468 25.6688C 61.9899 26.0111 62.0597 26.4282 61.9467 26.8844C 61.8369 27.3279 61.5777 27.7144 61.2307 28.0511C 60.635 28.629 59.6778 28.949 57.9961 28.949L 57.9767 28.949L 50.4569 28.6571L 41.3719 37.5891L 39.9697 36.1629L 48.6245 27.6539ZM 13.1257 37.4756L 22.8395 28.0511L 21.4468 26.6156L 11.3034 36.457L 4.50793 35.8837C 4.13813 35.8191 3.60367 35.7916 3.03837 35.8805C 2.44427 35.9739 1.7205 36.2117 1.14094 36.774C 0.692571 37.209 0.087227 37.831 0.00877719 38.6682C -0.0761563 39.5747 0.46677 40.3258 1.14094 40.9799L 22.3687 61.5754C 22.6983 61.9495 23.2724 62.4584 23.9678 62.6845C 24.3462 62.8076 24.8163 62.8638 25.3044 62.7021C 25.8029 62.537 26.1965 62.1857 26.484 61.7208C 27.4051 60.2313 27.3521 59.06 27.2957 57.816C 27.2819 57.512 27.2679 57.2036 27.2679 56.8852L 27.2679 51.4556L 38.5538 40.3597L 37.1516 38.9336L 26.248 49.6536L 13.1257 37.4756ZM 25.2679 51.4726L 11.2454 38.4592L 4.23785 37.868L 4.18503 37.8577C 4.02684 37.827 3.69986 37.801 3.34893 37.8562C 2.99648 37.9116 2.71553 38.0329 2.53362 38.2094C 2.30725 38.429 2.16543 38.5865 2.07836 38.7118C 2.02242 38.7923 2.00569 38.8361 2.00116 38.8515C 2.00889 38.8925 2.07202 39.0966 2.53362 39.5445L 23.8242 60.201L 23.8538 60.2354C 23.9435 60.3399 24.0694 60.4632 24.2115 60.5708C 24.3569 60.6809 24.4873 60.7504 24.5864 60.7826C 24.6341 60.7981 24.6624 60.8013 24.6756 60.8017C 24.6932 60.7885 24.7311 60.7528 24.783 60.6689C 25.3588 59.7377 25.3394 59.2334 25.2969 58.1342C 25.2836 57.7877 25.2679 57.382 25.2679 56.8852L 25.2679 51.4726ZM 24.6825 60.8016L 24.6849 60.8013ZM 1.99962 38.8578L 1.9999 38.8562ZM 2.0002 38.8436C 2.0002 38.8436 2.00044 38.8448 2.00044 38.8471Z" transform="translate(-14302 -22144.5)" fill="#B1BABE"></path>
            <path fill-rule="evenodd" d="M 13.3817 6.1532C 14.7856 6.4657 16.0174 7.19573 16.7439 7.7831L 16.8157 7.84117L 52.0939 49.161L 50.7089 50.5914C 37.5044 40.035 10.4677 18.3845 8.16461 16.3983C 6.56092 15.0152 5.79105 13.4009 6.0006 11.6726C 6.20205 10.0113 7.28319 8.49519 8.79917 7.18778C 10.251 5.93566 11.9555 5.8357 13.3817 6.1532ZM 12.9472 8.10541C 11.9304 7.87907 10.9379 7.98433 10.1054 8.70234C 8.7658 9.85759 8.1019 10.9581 7.98606 11.9134C 7.87834 12.8018 8.21894 13.8041 9.47079 14.8837C 11.3304 16.4875 29.8426 31.3327 43.7371 42.4533L 15.4176 9.28377C 14.8651 8.854 13.9438 8.32726 12.9472 8.10541Z" transform="translate(-14302 -22144.5)" fill="#B1BABE"></path>
            <path fill-rule="evenodd" d="M 20.3637 5.54598C 20.242 7.5075 18.8334 9.15149 17.7698 9.98279L 16.5382 8.407C 17.3977 7.73518 18.2969 6.56082 18.3675 5.42215C 18.4 4.89833 18.2634 4.33588 17.7854 3.74995C 17.29 3.14269 16.3963 2.4745 14.8576 1.85549L 15.6041 0C 17.3347 0.696216 18.5565 1.53114 19.3352 2.48572C 20.1313 3.46162 20.4274 4.51972 20.3637 5.54598ZM 15.3013 15.9227L 11.0703 11.7891L 12.468 10.3585L 16.6989 14.4921L 15.3013 15.9227Z" transform="translate(-14302 -22144.5)" fill="#B1BABE"></path>
            <path fill-rule="evenodd" d="M 5.6845 19.001L 8.72055 15.6641L 10.1999 17.01L 7.07719 20.4422L 7.02519 20.4857C 6.77506 20.6952 6.53605 21.0971 6.5169 21.5466C 6.50014 21.9397 6.64666 22.4887 7.38364 23.0648C 7.44386 23.1118 7.68368 23.2908 8.06172 23.3654C 8.41457 23.4349 8.97095 23.4312 9.72382 22.9899L 9.75646 22.9708L 9.79044 22.9542C 9.79044 22.9542 9.79369 22.9526 9.80063 22.9485C 9.80779 22.9443 9.81777 22.9382 9.83069 22.9297C 9.85699 22.9123 9.89117 22.8877 9.93376 22.8541C 10.0201 22.7862 10.1251 22.694 10.2502 22.5753C 10.5023 22.3361 10.7962 22.0275 11.1334 21.6667C 11.2141 21.5803 11.2972 21.4911 11.3822 21.3997C 11.9885 20.7483 12.6971 19.987 13.4085 19.3499L 14.7427 20.8398C 14.1046 21.4113 13.4636 22.0995 12.8502 22.7582C 12.7644 22.8503 12.6792 22.9418 12.5946 23.0323C 12.2587 23.3918 11.9276 23.7408 11.6268 24.0261C 11.3576 24.2816 11.0359 24.562 10.7069 24.7318C 9.5477 25.4029 8.50472 25.4912 7.67494 25.3276C 6.86362 25.1677 6.33428 24.783 6.15195 24.6405C 4.96594 23.7134 4.4714 22.5714 4.51871 21.4614C 4.5623 20.4387 5.06312 19.5481 5.6845 19.001Z" transform="translate(-14302 -22144.5)" fill="#B1BABE"></path>
            <path fill-rule="evenodd" d="M 35.9704 41.2949L 17.1234 32.6519L 17.9571 30.834L 36.8041 39.4769L 35.9704 41.2949ZM 30.9554 46.9246L 12.1084 37.9059L 12.9717 36.1018L 31.8187 45.1205L 30.9554 46.9246Z" transform="translate(-14302 -22144.5)" fill="#B1BABE"></path>
            <path fill-rule="evenodd" d="M 44.123 24.0347L 30.6609 19.1496L 31.3431 17.2695L 44.8053 22.1547L 44.123 24.0347ZM 45.2426 32.6645L 29.4727 26.2762L 30.2236 24.4225L 45.9935 30.8108L 45.2426 32.6645Z" transform="translate(-14302 -22144.5)" fill="#B1BABE"></path>
        </g>
    </g>
</svg>