<svg width="63" height="63" viewBox="0 0 63 63" version="1.1" xmlns="http://www.w3.org/2000/svg" xmlns:xlink="http://www.w3.org/1999/xlink">
    <title>Group 2.24</title>
    <desc>Created using Figma</desc>
    <g id="Canvas" transform="translate(14282 21785)">
        <g id="Group 2.24">
            <g id="Vector 3">
                <path d="M 3.37532 33.6958L 3.18483 34.6775L 3.23764 34.6878L 3.29125 34.6923L 3.37532 33.6958ZM 22.095 57.7068L 22.8536 57.0553L 22.824 57.0208L 22.7914 56.9891L 22.095 57.7068ZM 24.6333 58.0146L 25.4838 58.5406L 24.6333 58.0146ZM 34.469 2.91256L 33.469 2.91256L 33.469 2.93237L 33.4698 2.95216L 34.469 2.91256ZM 35.4208 0.757734L 34.7246 0.0399234L 34.653 0.10931L 34.5966 0.19145L 35.4208 0.757734ZM 59.2169 21.9983L 59.9246 21.2918L 59.9245 21.2918L 59.2169 21.9983ZM 59.5342 24.1532L 60.2305 24.8709L 60.2305 24.8709L 59.5342 24.1532ZM 56.9959 24.7688L 56.9571 25.7681L 56.9765 25.7688L 56.9959 25.7688L 56.9959 24.7688ZM 34.0979 11.6417L 48.3755 25.1863L 49.752 23.7354L 35.4744 10.1907L 34.0979 11.6417ZM 25.9479 47.1232L 11.353 33.5785L 9.99254 35.0445L 24.5875 48.5892L 25.9479 47.1232ZM 3.56581 32.7142C 3.1952 32.6422 2.63379 32.6067 2.03817 32.7003C 1.44406 32.7937 0.720294 33.0315 0.140729 33.5938L 1.53341 35.0292C 1.71532 34.8527 1.99627 34.7314 2.34873 34.676C 2.69965 34.6209 3.02664 34.6468 3.18483 34.6775L 3.56581 32.7142ZM 0.140729 33.5938C -0.307639 34.0288 -0.912982 34.6508 -0.991432 35.488C -1.07637 36.3945 -0.533439 37.1456 0.140729 37.7997L 1.53341 36.3643C 0.938454 35.7871 1.00546 35.6147 0.999846 35.6746C 0.998452 35.6895 0.995488 35.6505 1.07815 35.5316C 1.16523 35.4063 1.30704 35.2489 1.53341 35.0292L 0.140729 33.5938ZM 0.140729 37.7997C 1.15603 38.7848 14.7357 51.96 21.3987 58.4245L 22.7914 56.9891C 16.1284 50.5246 2.54871 37.3494 1.53341 36.3643L 0.140729 37.7997ZM 21.3364 58.3584C 21.6601 58.7352 22.2491 59.2707 22.9676 59.5043C 23.346 59.6274 23.8161 59.6836 24.3042 59.5219C 24.8027 59.3568 25.1963 59.0055 25.4838 58.5406L 23.7828 57.4887C 23.6895 57.6394 23.6416 57.6345 23.6754 57.6233C 23.6988 57.6155 23.681 57.6332 23.5862 57.6024C 23.4871 57.5702 23.3567 57.5007 23.2113 57.3906C 23.0692 57.283 22.9433 57.1597 22.8536 57.0553L 21.3364 58.3584ZM 25.4838 58.5406C 26.6301 56.687 26.2677 55.3264 26.2677 53.705L 24.2677 53.705C 24.2677 55.7776 24.5402 56.2639 23.7828 57.4887L 25.4838 58.5406ZM 26.2677 53.705C 26.2677 53.7021 26.2677 53.6992 26.2677 53.6963C 26.2677 53.6934 26.2677 53.6905 26.2677 53.6876C 26.2677 53.6847 26.2677 53.6818 26.2677 53.6789C 26.2677 53.6759 26.2677 53.673 26.2677 53.6701C 26.2677 53.6671 26.2677 53.6642 26.2677 53.6613C 26.2677 53.6583 26.2677 53.6554 26.2677 53.6524C 26.2677 53.6494 26.2677 53.6465 26.2677 53.6435C 26.2677 53.6405 26.2677 53.6376 26.2677 53.6346C 26.2677 53.6316 26.2677 53.6286 26.2677 53.6256C 26.2677 53.6227 26.2677 53.6197 26.2677 53.6166C 26.2677 53.6136 26.2677 53.6106 26.2677 53.6076C 26.2677 53.6046 26.2677 53.6016 26.2677 53.5986C 26.2677 53.5955 26.2677 53.5925 26.2677 53.5895C 26.2677 53.5864 26.2677 53.5834 26.2677 53.5803C 26.2677 53.5773 26.2677 53.5742 26.2677 53.5712C 26.2677 53.5681 26.2677 53.5651 26.2677 53.562C 26.2677 53.5589 26.2677 53.5558 26.2677 53.5528C 26.2677 53.5497 26.2677 53.5466 26.2677 53.5435C 26.2677 53.5404 26.2677 53.5373 26.2677 53.5342C 26.2677 53.5311 26.2677 53.528 26.2677 53.5249C 26.2677 53.5218 26.2677 53.5187 26.2677 53.5155C 26.2677 53.5124 26.2677 53.5093 26.2677 53.5061C 26.2677 53.503 26.2677 53.4999 26.2677 53.4967C 26.2677 53.4936 26.2677 53.4904 26.2677 53.4873C 26.2677 53.4841 26.2677 53.4809 26.2677 53.4778C 26.2677 53.4746 26.2677 53.4714 26.2677 53.4682C 26.2677 53.4651 26.2677 53.4619 26.2677 53.4587C 26.2677 53.4555 26.2677 53.4523 26.2677 53.4491C 26.2677 53.4459 26.2677 53.4427 26.2677 53.4395C 26.2677 53.4363 26.2677 53.4331 26.2677 53.4298C 26.2677 53.4266 26.2677 53.4234 26.2677 53.4202C 26.2677 53.4169 26.2677 53.4137 26.2677 53.4105C 26.2677 53.4072 26.2677 53.404 26.2677 53.4007C 26.2677 53.3975 26.2677 53.3942 26.2677 53.3909C 26.2677 53.3877 26.2677 53.3844 26.2677 53.3811C 26.2677 53.3779 26.2677 53.3746 26.2677 53.3713C 26.2677 53.368 26.2677 53.3647 26.2677 53.3614C 26.2677 53.3582 26.2677 53.3549 26.2677 53.3516C 26.2677 53.3482 26.2677 53.3449 26.2677 53.3416C 26.2677 53.3383 26.2677 53.335 26.2677 53.3317C 26.2677 53.3284 26.2677 53.325 26.2677 53.3217C 26.2677 53.3184 26.2677 53.315 26.2677 53.3117C 26.2677 53.3083 26.2677 53.305 26.2677 53.3016C 26.2677 53.2983 26.2677 53.2949 26.2677 53.2916C 26.2677 53.2882 26.2677 53.2848 26.2677 53.2815C 26.2677 53.2781 26.2677 53.2747 26.2677 53.2713C 26.2677 53.2679 26.2677 53.2646 26.2677 53.2612C 26.2677 53.2578 26.2677 53.2544 26.2677 53.251C 26.2677 53.2476 26.2677 53.2442 26.2677 53.2408C 26.2677 53.2374 26.2677 53.2339 26.2677 53.2305C 26.2677 53.2271 26.2677 53.2237 26.2677 53.2202C 26.2677 53.2168 26.2677 53.2134 26.2677 53.2099C 26.2677 53.2065 26.2677 53.2031 26.2677 53.1996C 26.2677 53.1962 26.2677 53.1927 26.2677 53.1892C 26.2677 53.1858 26.2677 53.1823 26.2677 53.1789C 26.2677 53.1754 26.2677 53.1719 26.2677 53.1684C 26.2677 53.165 26.2677 53.1615 26.2677 53.158C 26.2677 53.1545 26.2677 53.151 26.2677 53.1475C 26.2677 53.144 26.2677 53.1405 26.2677 53.137C 26.2677 53.1335 26.2677 53.13 26.2677 53.1265C 26.2677 53.123 26.2677 53.1195 26.2677 53.116C 26.2677 53.1124 26.2677 53.1089 26.2677 53.1054C 26.2677 53.1019 26.2677 53.0983 26.2677 53.0948C 26.2677 53.0912 26.2677 53.0877 26.2677 53.0842C 26.2677 53.0806 26.2677 53.0771 26.2677 53.0735C 26.2677 53.0699 26.2677 53.0664 26.2677 53.0628C 26.2677 53.0592 26.2677 53.0557 26.2677 53.0521C 26.2677 53.0485 26.2677 53.045 26.2677 53.0414C 26.2677 53.0378 26.2677 53.0342 26.2677 53.0306C 26.2677 53.027 26.2677 53.0234 26.2677 53.0198C 26.2677 53.0162 26.2677 53.0126 26.2677 53.009C 26.2677 53.0054 26.2677 53.0018 26.2677 52.9982C 26.2677 52.9946 26.2677 52.9909 26.2677 52.9873C 26.2677 52.9837 26.2677 52.9801 26.2677 52.9764C 26.2677 52.9728 26.2677 52.9692 26.2677 52.9655C 26.2677 52.9619 26.2677 52.9582 26.2677 52.9546C 26.2677 52.9509 26.2677 52.9473 26.2677 52.9436C 26.2677 52.94 26.2677 52.9363 26.2677 52.9326C 26.2677 52.929 26.2677 52.9253 26.2677 52.9216C 26.2677 52.9179 26.2677 52.9143 26.2677 52.9106C 26.2677 52.9069 26.2677 52.9032 26.2677 52.8995C 26.2677 52.8958 26.2677 52.8921 26.2677 52.8884C 26.2677 52.8847 26.2677 52.881 26.2677 52.8773C 26.2677 52.8736 26.2677 52.8699 26.2677 52.8662C 26.2677 52.8625 26.2677 52.8588 26.2677 52.855C 26.2677 52.8513 26.2677 52.8476 26.2677 52.8439C 26.2677 52.8401 26.2677 52.8364 26.2677 52.8327C 26.2677 52.8289 26.2677 52.8252 26.2677 52.8214C 26.2677 52.8177 26.2677 52.814 26.2677 52.8102C 26.2677 52.8064 26.2677 52.8027 26.2677 52.7989C 26.2677 52.7952 26.2677 52.7914 26.2677 52.7876C 26.2677 52.7839 26.2677 52.7801 26.2677 52.7763C 26.2677 52.7726 26.2677 52.7688 26.2677 52.765C 26.2677 52.7612 26.2677 52.7574 26.2677 52.7536C 26.2677 52.7498 26.2677 52.7461 26.2677 52.7423C 26.2677 52.7385 26.2677 52.7347 26.2677 52.7309C 26.2677 52.727 26.2677 52.7232 26.2677 52.7194C 26.2677 52.7156 26.2677 52.7118 26.2677 52.708C 26.2677 52.7042 26.2677 52.7003 26.2677 52.6965C 26.2677 52.6927 26.2677 52.6889 26.2677 52.685C 26.2677 52.6812 26.2677 52.6774 26.2677 52.6735C 26.2677 52.6697 26.2677 52.6658 26.2677 52.662C 26.2677 52.6581 26.2677 52.6543 26.2677 52.6504C 26.2677 52.6466 26.2677 52.6427 26.2677 52.6389C 26.2677 52.635 26.2677 52.6311 26.2677 52.6273C 26.2677 52.6234 26.2677 52.6195 26.2677 52.6157C 26.2677 52.6118 26.2677 52.6079 26.2677 52.604C 26.2677 52.6002 26.2677 52.5963 26.2677 52.5924C 26.2677 52.5885 26.2677 52.5846 26.2677 52.5807C 26.2677 52.5768 26.2677 52.5729 26.2677 52.569C 26.2677 52.5651 26.2677 52.5612 26.2677 52.5573C 26.2677 52.5534 26.2677 52.5495 26.2677 52.5456C 26.2677 52.5417 26.2677 52.5377 26.2677 52.5338C 26.2677 52.5299 26.2677 52.526 26.2677 52.522C 26.2677 52.5181 26.2677 52.5142 26.2677 52.5103C 26.2677 52.5063 26.2677 52.5024 26.2677 52.4985C 26.2677 52.4945 26.2677 52.4906 26.2677 52.4866C 26.2677 52.4827 26.2677 52.4787 26.2677 52.4748C 26.2677 52.4708 26.2677 52.4669 26.2677 52.4629C 26.2677 52.459 26.2677 52.455 26.2677 52.451C 26.2677 52.4471 26.2677 52.4431 26.2677 52.4391C 26.2677 52.4352 26.2677 52.4312 26.2677 52.4272C 26.2677 52.4232 26.2677 52.4193 26.2677 52.4153C 26.2677 52.4113 26.2677 52.4073 26.2677 52.4033C 26.2677 52.3993 26.2677 52.3953 26.2677 52.3914C 26.2677 52.3874 26.2677 52.3834 26.2677 52.3794C 26.2677 52.3754 26.2677 52.3714 26.2677 52.3674C 26.2677 52.3634 26.2677 52.3593 26.2677 52.3553C 26.2677 52.3513 26.2677 52.3473 26.2677 52.3433C 26.2677 52.3393 26.2677 52.3353 26.2677 52.3312C 26.2677 52.3272 26.2677 52.3232 26.2677 52.3192C 26.2677 52.3151 26.2677 52.3111 26.2677 52.3071C 26.2677 52.303 26.2677 52.299 26.2677 52.295C 26.2677 52.2909 26.2677 52.2869 26.2677 52.2828C 26.2677 52.2788 26.2677 52.2747 26.2677 52.2707C 26.2677 52.2667 26.2677 52.2626 26.2677 52.2585C 26.2677 52.2545 26.2677 52.2504 26.2677 52.2464C 26.2677 52.2423 26.2677 52.2383 26.2677 52.2342C 26.2677 52.2301 26.2677 52.2261 26.2677 52.222C 26.2677 52.2179 26.2677 52.2138 26.2677 52.2098C 26.2677 52.2057 26.2677 52.2016 26.2677 52.1975C 26.2677 52.1935 26.2677 52.1894 26.2677 52.1853C 26.2677 52.1812 26.2677 52.1771 26.2677 52.173C 26.2677 52.1689 26.2677 52.1648 26.2677 52.1607C 26.2677 52.1566 26.2677 52.1525 26.2677 52.1484C 26.2677 52.1443 26.2677 52.1402 26.2677 52.1361C 26.2677 52.132 26.2677 52.1279 26.2677 52.1238C 26.2677 52.1197 26.2677 52.1156 26.2677 52.1115C 26.2677 52.1074 26.2677 52.1032 26.2677 52.0991C 26.2677 52.095 26.2677 52.0909 26.2677 52.0868C 26.2677 52.0826 26.2677 52.0785 26.2677 52.0744C 26.2677 52.0703 26.2677 52.0661 26.2677 52.062C 26.2677 52.0579 26.2677 52.0537 26.2677 52.0496C 26.2677 52.0454 26.2677 52.0413 26.2677 52.0372C 26.2677 52.033 26.2677 52.0289 26.2677 52.0247C 26.2677 52.0206 26.2677 52.0164 26.2677 52.0123C 26.2677 52.0081 26.2677 52.004 26.2677 51.9998C 26.2677 51.9957 26.2677 51.9915 26.2677 51.9874C 26.2677 51.9832 26.2677 51.979 26.2677 51.9749C 26.2677 51.9707 26.2677 51.9665 26.2677 51.9624C 26.2677 51.9582 26.2677 51.954 26.2677 51.9499C 26.2677 51.9457 26.2677 51.9415 26.2677 51.9374C 26.2677 51.9332 26.2677 51.929 26.2677 51.9248C 26.2677 51.9206 26.2677 51.9165 26.2677 51.9123C 26.2677 51.9081 26.2677 51.9039 26.2677 51.8997C 26.2677 51.8955 26.2677 51.8913 26.2677 51.8871C 26.2677 51.883 26.2677 51.8788 26.2677 51.8746C 26.2677 51.8704 26.2677 51.8662 26.2677 51.862C 26.2677 51.8578 26.2677 51.8536 26.2677 51.8494C 26.2677 51.8452 26.2677 51.841 26.2677 51.8368C 26.2677 51.8326 26.2677 51.8284 26.2677 51.8241C 26.2677 51.8199 26.2677 51.8157 26.2677 51.8115C 26.2677 51.8073 26.2677 51.8031 26.2677 51.7989C 26.2677 51.7946 26.2677 51.7904 26.2677 51.7862C 26.2677 51.782 26.2677 51.7778 26.2677 51.7735C 26.2677 51.7693 26.2677 51.7651 26.2677 51.7609C 26.2677 51.7566 26.2677 51.7524 26.2677 51.7482C 26.2677 51.7439 26.2677 51.7397 26.2677 51.7355C 26.2677 51.7312 26.2677 51.727 26.2677 51.7228C 26.2677 51.7185 26.2677 51.7143 26.2677 51.7101C 26.2677 51.7058 26.2677 51.7016 26.2677 51.6973C 26.2677 51.6931 26.2677 51.6888 26.2677 51.6846C 26.2677 51.6804 26.2677 51.6761 26.2677 51.6719C 26.2677 51.6676 26.2677 51.6634 26.2677 51.6591C 26.2677 51.6548 26.2677 51.6506 26.2677 51.6463C 26.2677 51.6421 26.2677 51.6378 26.2677 51.6336C 26.2677 51.6293 26.2677 51.625 26.2677 51.6208C 26.2677 51.6165 26.2677 51.6123 26.2677 51.608C 26.2677 51.6037 26.2677 51.5995 26.2677 51.5952C 26.2677 51.5909 26.2677 51.5867 26.2677 51.5824C 26.2677 51.5781 26.2677 51.5739 26.2677 51.5696C 26.2677 51.5653 26.2677 51.561 26.2677 51.5568C 26.2677 51.5525 26.2677 51.5482 26.2677 51.5439C 26.2677 51.5397 26.2677 51.5354 26.2677 51.5311C 26.2677 51.5268 26.2677 51.5226 26.2677 51.5183C 26.2677 51.514 26.2677 51.5097 26.2677 51.5054C 26.2677 51.5011 26.2677 51.4968 26.2677 51.4926C 26.2677 51.4883 26.2677 51.484 26.2677 51.4797C 26.2677 51.4754 26.2677 51.4711 26.2677 51.4668C 26.2677 51.4625 26.2677 51.4582 26.2677 51.454C 26.2677 51.4497 26.2677 51.4454 26.2677 51.4411C 26.2677 51.4368 26.2677 51.4325 26.2677 51.4282C 26.2677 51.4239 26.2677 51.4196 26.2677 51.4153C 26.2677 51.411 26.2677 51.4067 26.2677 51.4024C 26.2677 51.3981 26.2677 51.3938 26.2677 51.3895C 26.2677 51.3852 26.2677 51.3809 26.2677 51.3766C 26.2677 51.3723 26.2677 51.3679 26.2677 51.3636C 26.2677 51.3593 26.2677 51.355 26.2677 51.3507C 26.2677 51.3464 26.2677 51.3421 26.2677 51.3378C 26.2677 51.3335 26.2677 51.3292 26.2677 51.3248C 26.2677 51.3205 26.2677 51.3162 26.2677 51.3119C 26.2677 51.3076 26.2677 51.3033 26.2677 51.299C 26.2677 51.2946 26.2677 51.2903 26.2677 51.286C 26.2677 51.2817 26.2677 51.2774 26.2677 51.2731C 26.2677 51.2687 26.2677 51.2644 26.2677 51.2601C 26.2677 51.2558 26.2677 51.2515 26.2677 51.2471C 26.2677 51.2428 26.2677 51.2385 26.2677 51.2342C 26.2677 51.2298 26.2677 51.2255 26.2677 51.2212C 26.2677 51.2169 26.2677 51.2125 26.2677 51.2082C 26.2677 51.2039 26.2677 51.1996 26.2677 51.1952C 26.2677 51.1909 26.2677 51.1866 26.2677 51.1823C 26.2677 51.1779 26.2677 51.1736 26.2677 51.1693C 26.2677 51.1649 26.2677 51.1606 26.2677 51.1563C 26.2677 51.152 26.2677 51.1476 26.2677 51.1433C 26.2677 51.139 26.2677 51.1346 26.2677 51.1303C 26.2677 51.126 26.2677 51.1216 26.2677 51.1173C 26.2677 51.113 26.2677 51.1086 26.2677 51.1043C 26.2677 51.1 26.2677 51.0956 26.2677 51.0913C 26.2677 51.087 26.2677 51.0826 26.2677 51.0783C 26.2677 51.0739 26.2677 51.0696 26.2677 51.0653C 26.2677 51.0609 26.2677 51.0566 26.2677 51.0523C 26.2677 51.0479 26.2677 51.0436 26.2677 51.0392C 26.2677 51.0349 26.2677 51.0306 26.2677 51.0262C 26.2677 51.0219 26.2677 51.0176 26.2677 51.0132C 26.2677 51.0089 26.2677 51.0045 26.2677 51.0002C 26.2677 50.9959 26.2677 50.9915 26.2677 50.9872C 26.2677 50.9828 26.2677 50.9785 26.2677 50.9742C 26.2677 50.9698 26.2677 50.9655 26.2677 50.9611C 26.2677 50.9568 26.2677 50.9524 26.2677 50.9481C 26.2677 50.9438 26.2677 50.9394 26.2677 50.9351C 26.2677 50.9307 26.2677 50.9264 26.2677 50.9221C 26.2677 50.9177 26.2677 50.9134 26.2677 50.909C 26.2677 50.9047 26.2677 50.9004 26.2677 50.896C 26.2677 50.8917 26.2677 50.8873 26.2677 50.883C 26.2677 50.8786 26.2677 50.8743 26.2677 50.87C 26.2677 50.8656 26.2677 50.8613 26.2677 50.8569C 26.2677 50.8526 26.2677 50.8482 26.2677 50.8439C 26.2677 50.8396 26.2677 50.8352 26.2677 50.8309C 26.2677 50.8265 26.2677 50.8222 26.2677 50.8179C 26.2677 50.8135 26.2677 50.8092 26.2677 50.8048C 26.2677 50.8005 26.2677 50.7962 26.2677 50.7918C 26.2677 50.7875 26.2677 50.7831 26.2677 50.7788C 26.2677 50.7744 26.2677 50.7701 26.2677 50.7658C 26.2677 50.7614 26.2677 50.7571 26.2677 50.7527C 26.2677 50.7484 26.2677 50.7441 26.2677 50.7397C 26.2677 50.7354 26.2677 50.731 26.2677 50.7267C 26.2677 50.7224 26.2677 50.718 26.2677 50.7137C 26.2677 50.7094 26.2677 50.705 26.2677 50.7007C 26.2677 50.6963 26.2677 50.692 26.2677 50.6877C 26.2677 50.6833 26.2677 50.679 26.2677 50.6747C 26.2677 50.6703 26.2677 50.666 26.2677 50.6616C 26.2677 50.6573 26.2677 50.653 26.2677 50.6486C 26.2677 50.6443 26.2677 50.64 26.2677 50.6356C 26.2677 50.6313 26.2677 50.627 26.2677 50.6226C 26.2677 50.6183 26.2677 50.614 26.2677 50.6096C 26.2677 50.6053 26.2677 50.601 26.2677 50.5966C 26.2677 50.5923 26.2677 50.588 26.2677 50.5837C 26.2677 50.5793 26.2677 50.575 26.2677 50.5707C 26.2677 50.5663 26.2677 50.562 26.2677 50.5577C 26.2677 50.5534 26.2677 50.549 26.2677 50.5447C 26.2677 50.5404 26.2677 50.536 26.2677 50.5317C 26.2677 50.5274 26.2677 50.5231 26.2677 50.5187C 26.2677 50.5144 26.2677 50.5101 26.2677 50.5058C 26.2677 50.5015 26.2677 50.4971 26.2677 50.4928C 26.2677 50.4885 26.2677 50.4842 26.2677 50.4799C 26.2677 50.4755 26.2677 50.4712 26.2677 50.4669C 26.2677 50.4626 26.2677 50.4583 26.2677 50.4539C 26.2677 50.4496 26.2677 50.4453 26.2677 50.441C 26.2677 50.4367 26.2677 50.4324 26.2677 50.4281C 26.2677 50.4237 26.2677 50.4194 26.2677 50.4151C 26.2677 50.4108 26.2677 50.4065 26.2677 50.4022C 26.2677 50.3979 26.2677 50.3936 26.2677 50.3893C 26.2677 50.3849 26.2677 50.3806 26.2677 50.3763C 26.2677 50.372 26.2677 50.3677 26.2677 50.3634C 26.2677 50.3591 26.2677 50.3548 26.2677 50.3505C 26.2677 50.3462 26.2677 50.3419 26.2677 50.3376C 26.2677 50.3333 26.2677 50.329 26.2677 50.3247C 26.2677 50.3204 26.2677 50.3161 26.2677 50.3118C 26.2677 50.3075 26.2677 50.3032 26.2677 50.2989C 26.2677 50.2946 26.2677 50.2903 26.2677 50.286C 26.2677 50.2817 26.2677 50.2775 26.2677 50.2732C 26.2677 50.2689 26.2677 50.2646 26.2677 50.2603C 26.2677 50.256 26.2677 50.2517 26.2677 50.2474C 26.2677 50.2432 26.2677 50.2389 26.2677 50.2346C 26.2677 50.2303 26.2677 50.226 26.2677 50.2217C 26.2677 50.2175 26.2677 50.2132 26.2677 50.2089C 26.2677 50.2046 26.2677 50.2004 26.2677 50.1961C 26.2677 50.1918 26.2677 50.1875 26.2677 50.1833C 26.2677 50.179 26.2677 50.1747 26.2677 50.1704C 26.2677 50.1662 26.2677 50.1619 26.2677 50.1576C 26.2677 50.1534 26.2677 50.1491 26.2677 50.1448C 26.2677 50.1406 26.2677 50.1363 26.2677 50.132C 26.2677 50.1278 26.2677 50.1235 26.2677 50.1193C 26.2677 50.115 26.2677 50.1107 26.2677 50.1065C 26.2677 50.1022 26.2677 50.098 26.2677 50.0937C 26.2677 50.0895 26.2677 50.0852 26.2677 50.081C 26.2677 50.0767 26.2677 50.0725 26.2677 50.0682C 26.2677 50.064 26.2677 50.0597 26.2677 50.0555C 26.2677 50.0512 26.2677 50.047 26.2677 50.0427C 26.2677 50.0385 26.2677 50.0343 26.2677 50.03C 26.2677 50.0258 26.2677 50.0215 26.2677 50.0173C 26.2677 50.0131 26.2677 50.0088 26.2677 50.0046C 26.2677 50.0004 26.2677 49.9962 26.2677 49.9919C 26.2677 49.9877 26.2677 49.9835 26.2677 49.9792C 26.2677 49.975 26.2677 49.9708 26.2677 49.9666C 26.2677 49.9623 26.2677 49.9581 26.2677 49.9539C 26.2677 49.9497 26.2677 49.9455 26.2677 49.9413C 26.2677 49.937 26.2677 49.9328 26.2677 49.9286C 26.2677 49.9244 26.2677 49.9202 26.2677 49.916C 26.2677 49.9118 26.2677 49.9076 26.2677 49.9034C 26.2677 49.8992 26.2677 49.895 26.2677 49.8908C 26.2677 49.8866 26.2677 49.8824 26.2677 49.8782C 26.2677 49.874 26.2677 49.8698 26.2677 49.8656C 26.2677 49.8614 26.2677 49.8572 26.2677 49.853C 26.2677 49.8488 26.2677 49.8446 26.2677 49.8405C 26.2677 49.8363 26.2677 49.8321 26.2677 49.8279C 26.2677 49.8237 26.2677 49.8195 26.2677 49.8154C 26.2677 49.8112 26.2677 49.807 26.2677 49.8028C 26.2677 49.7987 26.2677 49.7945 26.2677 49.7903C 26.2677 49.7862 26.2677 49.782 26.2677 49.7778C 26.2677 49.7737 26.2677 49.7695 26.2677 49.7653C 26.2677 49.7612 26.2677 49.757 26.2677 49.7529C 26.2677 49.7487 26.2677 49.7445 26.2677 49.7404C 26.2677 49.7362 26.2677 49.7321 26.2677 49.7279C 26.2677 49.7238 26.2677 49.7196 26.2677 49.7155C 26.2677 49.7114 26.2677 49.7072 26.2677 49.7031C 26.2677 49.6989 26.2677 49.6948 26.2677 49.6907C 26.2677 49.6865 26.2677 49.6824 26.2677 49.6783C 26.2677 49.6741 26.2677 49.67 26.2677 49.6659C 26.2677 49.6618 26.2677 49.6576 26.2677 49.6535C 26.2677 49.6494 26.2677 49.6453 26.2677 49.6412C 26.2677 49.637 26.2677 49.6329 26.2677 49.6288C 26.2677 49.6247 26.2677 49.6206 26.2677 49.6165C 26.2677 49.6124 26.2677 49.6083 26.2677 49.6042C 26.2677 49.6001 26.2677 49.596 26.2677 49.5919C 26.2677 49.5878 26.2677 49.5837 26.2677 49.5796C 26.2677 49.5755 26.2677 49.5714 26.2677 49.5673C 26.2677 49.5632 26.2677 49.5591 26.2677 49.5551C 26.2677 49.551 26.2677 49.5469 26.2677 49.5428C 26.2677 49.5387 26.2677 49.5347 26.2677 49.5306C 26.2677 49.5265 26.2677 49.5224 26.2677 49.5184C 26.2677 49.5143 26.2677 49.5102 26.2677 49.5062C 26.2677 49.5021 26.2677 49.4981 26.2677 49.494C 26.2677 49.4899 26.2677 49.4859 26.2677 49.4818C 26.2677 49.4778 26.2677 49.4737 26.2677 49.4697C 26.2677 49.4656 26.2677 49.4616 26.2677 49.4576C 26.2677 49.4535 26.2677 49.4495 26.2677 49.4454C 26.2677 49.4414 26.2677 49.4374 26.2677 49.4333C 26.2677 49.4293 26.2677 49.4253 26.2677 49.4213C 26.2677 49.4172 26.2677 49.4132 26.2677 49.4092C 26.2677 49.4052 26.2677 49.4012 26.2677 49.3972C 26.2677 49.3931 26.2677 49.3891 26.2677 49.3851C 26.2677 49.3811 26.2677 49.3771 26.2677 49.3731C 26.2677 49.3691 26.2677 49.3651 26.2677 49.3611C 26.2677 49.3571 26.2677 49.3531 26.2677 49.3491C 26.2677 49.3451 26.2677 49.3412 26.2677 49.3372C 26.2677 49.3332 26.2677 49.3292 26.2677 49.3252C 26.2677 49.3212 26.2677 49.3173 26.2677 49.3133C 26.2677 49.3093 26.2677 49.3054 26.2677 49.3014C 26.2677 49.2974 26.2677 49.2935 26.2677 49.2895C 26.2677 49.2855 26.2677 49.2816 26.2677 49.2776C 26.2677 49.2737 26.2677 49.2697 26.2677 49.2658C 26.2677 49.2618 26.2677 49.2579 26.2677 49.2539C 26.2677 49.25 26.2677 49.2461 26.2677 49.2421C 26.2677 49.2382 26.2677 49.2342 26.2677 49.2303C 26.2677 49.2264 26.2677 49.2225 26.2677 49.2185C 26.2677 49.2146 26.2677 49.2107 26.2677 49.2068C 26.2677 49.2029 26.2677 49.199 26.2677 49.195C 26.2677 49.1911 26.2677 49.1872 26.2677 49.1833C 26.2677 49.1794 26.2677 49.1755 26.2677 49.1716C 26.2677 49.1677 26.2677 49.1638 26.2677 49.1599C 26.2677 49.156 26.2677 49.1522 26.2677 49.1483C 26.2677 49.1444 26.2677 49.1405 26.2677 49.1366C 26.2677 49.1328 26.2677 49.1289 26.2677 49.125C 26.2677 49.1211 26.2677 49.1173 26.2677 49.1134C 26.2677 49.1095 26.2677 49.1057 26.2677 49.1018C 26.2677 49.098 26.2677 49.0941 26.2677 49.0903C 26.2677 49.0864 26.2677 49.0826 26.2677 49.0787C 26.2677 49.0749 26.2677 49.071 26.2677 49.0672C 26.2677 49.0634 26.2677 49.0595 26.2677 49.0557C 26.2677 49.0519 26.2677 49.0481 26.2677 49.0442C 26.2677 49.0404 26.2677 49.0366 26.2677 49.0328C 26.2677 49.029 26.2677 49.0252 26.2677 49.0214C 26.2677 49.0175 26.2677 49.0137 26.2677 49.0099C 26.2677 49.0061 26.2677 49.0023 26.2677 48.9986C 26.2677 48.9948 26.2677 48.991 26.2677 48.9872C 26.2677 48.9834 26.2677 48.9796 26.2677 48.9758C 26.2677 48.9721 26.2677 48.9683 26.2677 48.9645C 26.2677 48.9607 26.2677 48.957 26.2677 48.9532C 26.2677 48.9494 26.2677 48.9457 26.2677 48.9419C 26.2677 48.9382 26.2677 48.9344 26.2677 48.9307C 26.2677 48.9269 26.2677 48.9232 26.2677 48.9194C 26.2677 48.9157 26.2677 48.912 26.2677 48.9082C 26.2677 48.9045 26.2677 48.9008 26.2677 48.897C 26.2677 48.8933 26.2677 48.8896 26.2677 48.8859C 26.2677 48.8822 26.2677 48.8784 26.2677 48.8747C 26.2677 48.871 26.2677 48.8673 26.2677 48.8636C 26.2677 48.8599 26.2677 48.8562 26.2677 48.8525C 26.2677 48.8488 26.2677 48.8451 26.2677 48.8415C 26.2677 48.8378 26.2677 48.8341 26.2677 48.8304C 26.2677 48.8267 26.2677 48.8231 26.2677 48.8194C 26.2677 48.8157 26.2677 48.8121 26.2677 48.8084C 26.2677 48.8047 26.2677 48.8011 26.2677 48.7974C 26.2677 48.7938 26.2677 48.7901 26.2677 48.7865C 26.2677 48.7828 26.2677 48.7792 26.2677 48.7755C 26.2677 48.7719 26.2677 48.7683 26.2677 48.7646C 26.2677 48.761 26.2677 48.7574 26.2677 48.7538C 26.2677 48.7502 26.2677 48.7465 26.2677 48.7429C 26.2677 48.7393 26.2677 48.7357 26.2677 48.7321C 26.2677 48.7285 26.2677 48.7249 26.2677 48.7213C 26.2677 48.7177 26.2677 48.7141 26.2677 48.7105C 26.2677 48.7069 26.2677 48.7034 26.2677 48.6998C 26.2677 48.6962 26.2677 48.6926 26.2677 48.6891C 26.2677 48.6855 26.2677 48.6819 26.2677 48.6784C 26.2677 48.6748 26.2677 48.6712 26.2677 48.6677C 26.2677 48.6641 26.2677 48.6606 26.2677 48.6571C 26.2677 48.6535 26.2677 48.65 26.2677 48.6464C 26.2677 48.6429 26.2677 48.6394 26.2677 48.6358C 26.2677 48.6323 26.2677 48.6288 26.2677 48.6253C 26.2677 48.6218 26.2677 48.6183 26.2677 48.6147C 26.2677 48.6112 26.2677 48.6077 26.2677 48.6042C 26.2677 48.6007 26.2677 48.5972 26.2677 48.5938C 26.2677 48.5903 26.2677 48.5868 26.2677 48.5833C 26.2677 48.5798 26.2677 48.5763 26.2677 48.5729C 26.2677 48.5694 26.2677 48.5659 26.2677 48.5625C 26.2677 48.559 26.2677 48.5556 26.2677 48.5521C 26.2677 48.5487 26.2677 48.5452 26.2677 48.5418C 26.2677 48.5383 26.2677 48.5349 26.2677 48.5314C 26.2677 48.528 26.2677 48.5246 26.2677 48.5212C 26.2677 48.5177 26.2677 48.5143 26.2677 48.5109C 26.2677 48.5075 26.2677 48.5041 26.2677 48.5007C 26.2677 48.4973 26.2677 48.4939 26.2677 48.4905C 26.2677 48.4871 26.2677 48.4837 26.2677 48.4803C 26.2677 48.4769 26.2677 48.4735 26.2677 48.4701C 26.2677 48.4668 26.2677 48.4634 26.2677 48.46C 26.2677 48.4567 26.2677 48.4533 26.2677 48.4499C 26.2677 48.4466 26.2677 48.4432 26.2677 48.4399C 26.2677 48.4365 26.2677 48.4332 26.2677 48.4299C 26.2677 48.4265 26.2677 48.4232 26.2677 48.4199C 26.2677 48.4165 26.2677 48.4132 26.2677 48.4099C 26.2677 48.4066 26.2677 48.4033 26.2677 48.4C 26.2677 48.3967 26.2677 48.3933 26.2677 48.3901C 26.2677 48.3868 26.2677 48.3835 26.2677 48.3802C 26.2677 48.3769 26.2677 48.3736 26.2677 48.3703C 26.2677 48.3671 26.2677 48.3638 26.2677 48.3605C 26.2677 48.3572 26.2677 48.354 26.2677 48.3507C 26.2677 48.3475 26.2677 48.3442 26.2677 48.341C 26.2677 48.3377 26.2677 48.3345 26.2677 48.3312C 26.2677 48.328 26.2677 48.3248 26.2677 48.3216C 26.2677 48.3183 26.2677 48.3151 26.2677 48.3119C 26.2677 48.3087 26.2677 48.3055 26.2677 48.3023C 26.2677 48.2991 26.2677 48.2959 26.2677 48.2927C 26.2677 48.2895 26.2677 48.2863 26.2677 48.2831C 26.2677 48.2799 26.2677 48.2767 26.2677 48.2736C 26.2677 48.2704 26.2677 48.2672 26.2677 48.2641C 26.2677 48.2609 26.2677 48.2577 26.2677 48.2546C 26.2677 48.2514 26.2677 48.2483 26.2677 48.2451C 26.2677 48.242 26.2677 48.2389 26.2677 48.2357C 26.2677 48.2326 26.2677 48.2295 26.2677 48.2264C 26.2677 48.2232 26.2677 48.2201 26.2677 48.217C 26.2677 48.2139 26.2677 48.2108 26.2677 48.2077C 26.2677 48.2046 26.2677 48.2015 26.2677 48.1984C 26.2677 48.1954 26.2677 48.1923 26.2677 48.1892C 26.2677 48.1861 26.2677 48.1831 26.2677 48.18C 26.2677 48.1769 26.2677 48.1739 26.2677 48.1708C 26.2677 48.1678 26.2677 48.1647 26.2677 48.1617C 26.2677 48.1586 26.2677 48.1556 26.2677 48.1526C 26.2677 48.1495 26.2677 48.1465 26.2677 48.1435C 26.2677 48.1405 26.2677 48.1375 26.2677 48.1344C 26.2677 48.1314 26.2677 48.1284 26.2677 48.1254C 26.2677 48.1224 26.2677 48.1195 26.2677 48.1165C 26.2677 48.1135 26.2677 48.1105 26.2677 48.1075C 26.2677 48.1046 26.2677 48.1016 26.2677 48.0986C 26.2677 48.0957 26.2677 48.0927 26.2677 48.0898C 26.2677 48.0868 26.2677 48.0839 26.2677 48.0809C 26.2677 48.078 26.2677 48.0751 26.2677 48.0721C 26.2677 48.0692 26.2677 48.0663 26.2677 48.0634C 26.2677 48.0605 26.2677 48.0575 26.2677 48.0546C 26.2677 48.0517 26.2677 48.0488 26.2677 48.046C 26.2677 48.0431 26.2677 48.0402 26.2677 48.0373C 26.2677 48.0344 26.2677 48.0315 26.2677 48.0287C 26.2677 48.0258 26.2677 48.0229 26.2677 48.0201C 26.2677 48.0172 26.2677 48.0144 26.2677 48.0115C 26.2677 48.0087 26.2677 48.0059 26.2677 48.003C 26.2677 48.0002 26.2677 47.9974 26.2677 47.9946C 26.2677 47.9917 26.2677 47.9889 26.2677 47.9861C 26.2677 47.9833 26.2677 47.9805 26.2677 47.9777C 26.2677 47.9749 26.2677 47.9721 26.2677 47.9693C 26.2677 47.9666 26.2677 47.9638 26.2677 47.961C 26.2677 47.9582 26.2677 47.9555 26.2677 47.9527C 26.2677 47.95 26.2677 47.9472 26.2677 47.9445C 26.2677 47.9417 26.2677 47.939 26.2677 47.9362C 26.2677 47.9335 26.2677 47.9308 26.2677 47.9281C 26.2677 47.9254 26.2677 47.9226 26.2677 47.9199C 26.2677 47.9172 26.2677 47.9145 26.2677 47.9118C 26.2677 47.9091 26.2677 47.9064 26.2677 47.9038C 26.2677 47.9011 26.2677 47.8984 26.2677 47.8957C 26.2677 47.8931 26.2677 47.8904 26.2677 47.8877C 26.2677 47.8851 26.2677 47.8824 26.2677 47.8798C 26.2677 47.8771 26.2677 47.8745 26.2677 47.8719C 26.2677 47.8692 26.2677 47.8666 26.2677 47.864C 26.2677 47.8614 26.2677 47.8588 26.2677 47.8562L 24.2677 47.8562C 24.2677 47.8588 24.2677 47.8614 24.2677 47.864C 24.2677 47.8666 24.2677 47.8692 24.2677 47.8719C 24.2677 47.8745 24.2677 47.8771 24.2677 47.8798C 24.2677 47.8824 24.2677 47.8851 24.2677 47.8877C 24.2677 47.8904 24.2677 47.8931 24.2677 47.8957C 24.2677 47.8984 24.2677 47.9011 24.2677 47.9038C 24.2677 47.9064 24.2677 47.9091 24.2677 47.9118C 24.2677 47.9145 24.2677 47.9172 24.2677 47.9199C 24.2677 47.9226 24.2677 47.9254 24.2677 47.9281C 24.2677 47.9308 24.2677 47.9335 24.2677 47.9362C 24.2677 47.939 24.2677 47.9417 24.2677 47.9445C 24.2677 47.9472 24.2677 47.95 24.2677 47.9527C 24.2677 47.9555 24.2677 47.9582 24.2677 47.961C 24.2677 47.9638 24.2677 47.9666 24.2677 47.9693C 24.2677 47.9721 24.2677 47.9749 24.2677 47.9777C 24.2677 47.9805 24.2677 47.9833 24.2677 47.9861C 24.2677 47.9889 24.2677 47.9917 24.2677 47.9946C 24.2677 47.9974 24.2677 48.0002 24.2677 48.003C 24.2677 48.0059 24.2677 48.0087 24.2677 48.0115C 24.2677 48.0144 24.2677 48.0172 24.2677 48.0201C 24.2677 48.0229 24.2677 48.0258 24.2677 48.0287C 24.2677 48.0315 24.2677 48.0344 24.2677 48.0373C 24.2677 48.0402 24.2677 48.0431 24.2677 48.046C 24.2677 48.0488 24.2677 48.0517 24.2677 48.0546C 24.2677 48.0575 24.2677 48.0605 24.2677 48.0634C 24.2677 48.0663 24.2677 48.0692 24.2677 48.0721C 24.2677 48.0751 24.2677 48.078 24.2677 48.0809C 24.2677 48.0839 24.2677 48.0868 24.2677 48.0898C 24.2677 48.0927 24.2677 48.0957 24.2677 48.0986C 24.2677 48.1016 24.2677 48.1046 24.2677 48.1075C 24.2677 48.1105 24.2677 48.1135 24.2677 48.1165C 24.2677 48.1195 24.2677 48.1224 24.2677 48.1254C 24.2677 48.1284 24.2677 48.1314 24.2677 48.1344C 24.2677 48.1375 24.2677 48.1405 24.2677 48.1435C 24.2677 48.1465 24.2677 48.1495 24.2677 48.1526C 24.2677 48.1556 24.2677 48.1586 24.2677 48.1617C 24.2677 48.1647 24.2677 48.1678 24.2677 48.1708C 24.2677 48.1739 24.2677 48.1769 24.2677 48.18C 24.2677 48.1831 24.2677 48.1861 24.2677 48.1892C 24.2677 48.1923 24.2677 48.1954 24.2677 48.1984C 24.2677 48.2015 24.2677 48.2046 24.2677 48.2077C 24.2677 48.2108 24.2677 48.2139 24.2677 48.217C 24.2677 48.2201 24.2677 48.2232 24.2677 48.2264C 24.2677 48.2295 24.2677 48.2326 24.2677 48.2357C 24.2677 48.2389 24.2677 48.242 24.2677 48.2451C 24.2677 48.2483 24.2677 48.2514 24.2677 48.2546C 24.2677 48.2577 24.2677 48.2609 24.2677 48.2641C 24.2677 48.2672 24.2677 48.2704 24.2677 48.2736C 24.2677 48.2767 24.2677 48.2799 24.2677 48.2831C 24.2677 48.2863 24.2677 48.2895 24.2677 48.2927C 24.2677 48.2959 24.2677 48.2991 24.2677 48.3023C 24.2677 48.3055 24.2677 48.3087 24.2677 48.3119C 24.2677 48.3151 24.2677 48.3183 24.2677 48.3216C 24.2677 48.3248 24.2677 48.328 24.2677 48.3312C 24.2677 48.3345 24.2677 48.3377 24.2677 48.341C 24.2677 48.3442 24.2677 48.3475 24.2677 48.3507C 24.2677 48.354 24.2677 48.3572 24.2677 48.3605C 24.2677 48.3638 24.2677 48.3671 24.2677 48.3703C 24.2677 48.3736 24.2677 48.3769 24.2677 48.3802C 24.2677 48.3835 24.2677 48.3868 24.2677 48.3901C 24.2677 48.3933 24.2677 48.3967 24.2677 48.4C 24.2677 48.4033 24.2677 48.4066 24.2677 48.4099C 24.2677 48.4132 24.2677 48.4165 24.2677 48.4199C 24.2677 48.4232 24.2677 48.4265 24.2677 48.4299C 24.2677 48.4332 24.2677 48.4365 24.2677 48.4399C 24.2677 48.4432 24.2677 48.4466 24.2677 48.4499C 24.2677 48.4533 24.2677 48.4567 24.2677 48.46C 24.2677 48.4634 24.2677 48.4668 24.2677 48.4701C 24.2677 48.4735 24.2677 48.4769 24.2677 48.4803C 24.2677 48.4837 24.2677 48.4871 24.2677 48.4905C 24.2677 48.4939 24.2677 48.4973 24.2677 48.5007C 24.2677 48.5041 24.2677 48.5075 24.2677 48.5109C 24.2677 48.5143 24.2677 48.5177 24.2677 48.5212C 24.2677 48.5246 24.2677 48.528 24.2677 48.5314C 24.2677 48.5349 24.2677 48.5383 24.2677 48.5418C 24.2677 48.5452 24.2677 48.5487 24.2677 48.5521C 24.2677 48.5556 24.2677 48.559 24.2677 48.5625C 24.2677 48.5659 24.2677 48.5694 24.2677 48.5729C 24.2677 48.5763 24.2677 48.5798 24.2677 48.5833C 24.2677 48.5868 24.2677 48.5903 24.2677 48.5938C 24.2677 48.5972 24.2677 48.6007 24.2677 48.6042C 24.2677 48.6077 24.2677 48.6112 24.2677 48.6147C 24.2677 48.6183 24.2677 48.6218 24.2677 48.6253C 24.2677 48.6288 24.2677 48.6323 24.2677 48.6358C 24.2677 48.6394 24.2677 48.6429 24.2677 48.6464C 24.2677 48.65 24.2677 48.6535 24.2677 48.6571C 24.2677 48.6606 24.2677 48.6641 24.2677 48.6677C 24.2677 48.6712 24.2677 48.6748 24.2677 48.6784C 24.2677 48.6819 24.2677 48.6855 24.2677 48.6891C 24.2677 48.6926 24.2677 48.6962 24.2677 48.6998C 24.2677 48.7034 24.2677 48.7069 24.2677 48.7105C 24.2677 48.7141 24.2677 48.7177 24.2677 48.7213C 24.2677 48.7249 24.2677 48.7285 24.2677 48.7321C 24.2677 48.7357 24.2677 48.7393 24.2677 48.7429C 24.2677 48.7465 24.2677 48.7502 24.2677 48.7538C 24.2677 48.7574 24.2677 48.761 24.2677 48.7646C 24.2677 48.7683 24.2677 48.7719 24.2677 48.7755C 24.2677 48.7792 24.2677 48.7828 24.2677 48.7865C 24.2677 48.7901 24.2677 48.7938 24.2677 48.7974C 24.2677 48.8011 24.2677 48.8047 24.2677 48.8084C 24.2677 48.8121 24.2677 48.8157 24.2677 48.8194C 24.2677 48.8231 24.2677 48.8267 24.2677 48.8304C 24.2677 48.8341 24.2677 48.8378 24.2677 48.8415C 24.2677 48.8451 24.2677 48.8488 24.2677 48.8525C 24.2677 48.8562 24.2677 48.8599 24.2677 48.8636C 24.2677 48.8673 24.2677 48.871 24.2677 48.8747C 24.2677 48.8784 24.2677 48.8822 24.2677 48.8859C 24.2677 48.8896 24.2677 48.8933 24.2677 48.897C 24.2677 48.9008 24.2677 48.9045 24.2677 48.9082C 24.2677 48.912 24.2677 48.9157 24.2677 48.9194C 24.2677 48.9232 24.2677 48.9269 24.2677 48.9307C 24.2677 48.9344 24.2677 48.9382 24.2677 48.9419C 24.2677 48.9457 24.2677 48.9494 24.2677 48.9532C 24.2677 48.957 24.2677 48.9607 24.2677 48.9645C 24.2677 48.9683 24.2677 48.9721 24.2677 48.9758C 24.2677 48.9796 24.2677 48.9834 24.2677 48.9872C 24.2677 48.991 24.2677 48.9948 24.2677 48.9986C 24.2677 49.0023 24.2677 49.0061 24.2677 49.0099C 24.2677 49.0137 24.2677 49.0175 24.2677 49.0214C 24.2677 49.0252 24.2677 49.029 24.2677 49.0328C 24.2677 49.0366 24.2677 49.0404 24.2677 49.0442C 24.2677 49.0481 24.2677 49.0519 24.2677 49.0557C 24.2677 49.0595 24.2677 49.0634 24.2677 49.0672C 24.2677 49.071 24.2677 49.0749 24.2677 49.0787C 24.2677 49.0826 24.2677 49.0864 24.2677 49.0903C 24.2677 49.0941 24.2677 49.098 24.2677 49.1018C 24.2677 49.1057 24.2677 49.1095 24.2677 49.1134C 24.2677 49.1173 24.2677 49.1211 24.2677 49.125C 24.2677 49.1289 24.2677 49.1328 24.2677 49.1366C 24.2677 49.1405 24.2677 49.1444 24.2677 49.1483C 24.2677 49.1522 24.2677 49.156 24.2677 49.1599C 24.2677 49.1638 24.2677 49.1677 24.2677 49.1716C 24.2677 49.1755 24.2677 49.1794 24.2677 49.1833C 24.2677 49.1872 24.2677 49.1911 24.2677 49.195C 24.2677 49.199 24.2677 49.2029 24.2677 49.2068C 24.2677 49.2107 24.2677 49.2146 24.2677 49.2185C 24.2677 49.2225 24.2677 49.2264 24.2677 49.2303C 24.2677 49.2342 24.2677 49.2382 24.2677 49.2421C 24.2677 49.2461 24.2677 49.25 24.2677 49.2539C 24.2677 49.2579 24.2677 49.2618 24.2677 49.2658C 24.2677 49.2697 24.2677 49.2737 24.2677 49.2776C 24.2677 49.2816 24.2677 49.2855 24.2677 49.2895C 24.2677 49.2935 24.2677 49.2974 24.2677 49.3014C 24.2677 49.3054 24.2677 49.3093 24.2677 49.3133C 24.2677 49.3173 24.2677 49.3212 24.2677 49.3252C 24.2677 49.3292 24.2677 49.3332 24.2677 49.3372C 24.2677 49.3412 24.2677 49.3451 24.2677 49.3491C 24.2677 49.3531 24.2677 49.3571 24.2677 49.3611C 24.2677 49.3651 24.2677 49.3691 24.2677 49.3731C 24.2677 49.3771 24.2677 49.3811 24.2677 49.3851C 24.2677 49.3891 24.2677 49.3931 24.2677 49.3972C 24.2677 49.4012 24.2677 49.4052 24.2677 49.4092C 24.2677 49.4132 24.2677 49.4172 24.2677 49.4213C 24.2677 49.4253 24.2677 49.4293 24.2677 49.4333C 24.2677 49.4374 24.2677 49.4414 24.2677 49.4454C 24.2677 49.4495 24.2677 49.4535 24.2677 49.4576C 24.2677 49.4616 24.2677 49.4656 24.2677 49.4697C 24.2677 49.4737 24.2677 49.4778 24.2677 49.4818C 24.2677 49.4859 24.2677 49.4899 24.2677 49.494C 24.2677 49.4981 24.2677 49.5021 24.2677 49.5062C 24.2677 49.5102 24.2677 49.5143 24.2677 49.5184C 24.2677 49.5224 24.2677 49.5265 24.2677 49.5306C 24.2677 49.5347 24.2677 49.5387 24.2677 49.5428C 24.2677 49.5469 24.2677 49.551 24.2677 49.5551C 24.2677 49.5591 24.2677 49.5632 24.2677 49.5673C 24.2677 49.5714 24.2677 49.5755 24.2677 49.5796C 24.2677 49.5837 24.2677 49.5878 24.2677 49.5919C 24.2677 49.596 24.2677 49.6001 24.2677 49.6042C 24.2677 49.6083 24.2677 49.6124 24.2677 49.6165C 24.2677 49.6206 24.2677 49.6247 24.2677 49.6288C 24.2677 49.6329 24.2677 49.637 24.2677 49.6412C 24.2677 49.6453 24.2677 49.6494 24.2677 49.6535C 24.2677 49.6576 24.2677 49.6618 24.2677 49.6659C 24.2677 49.67 24.2677 49.6741 24.2677 49.6783C 24.2677 49.6824 24.2677 49.6865 24.2677 49.6907C 24.2677 49.6948 24.2677 49.6989 24.2677 49.7031C 24.2677 49.7072 24.2677 49.7114 24.2677 49.7155C 24.2677 49.7196 24.2677 49.7238 24.2677 49.7279C 24.2677 49.7321 24.2677 49.7362 24.2677 49.7404C 24.2677 49.7445 24.2677 49.7487 24.2677 49.7529C 24.2677 49.757 24.2677 49.7612 24.2677 49.7653C 24.2677 49.7695 24.2677 49.7737 24.2677 49.7778C 24.2677 49.782 24.2677 49.7862 24.2677 49.7903C 24.2677 49.7945 24.2677 49.7987 24.2677 49.8028C 24.2677 49.807 24.2677 49.8112 24.2677 49.8154C 24.2677 49.8195 24.2677 49.8237 24.2677 49.8279C 24.2677 49.8321 24.2677 49.8363 24.2677 49.8405C 24.2677 49.8446 24.2677 49.8488 24.2677 49.853C 24.2677 49.8572 24.2677 49.8614 24.2677 49.8656C 24.2677 49.8698 24.2677 49.874 24.2677 49.8782C 24.2677 49.8824 24.2677 49.8866 24.2677 49.8908C 24.2677 49.895 24.2677 49.8992 24.2677 49.9034C 24.2677 49.9076 24.2677 49.9118 24.2677 49.916C 24.2677 49.9202 24.2677 49.9244 24.2677 49.9286C 24.2677 49.9328 24.2677 49.937 24.2677 49.9413C 24.2677 49.9455 24.2677 49.9497 24.2677 49.9539C 24.2677 49.9581 24.2677 49.9623 24.2677 49.9666C 24.2677 49.9708 24.2677 49.975 24.2677 49.9792C 24.2677 49.9835 24.2677 49.9877 24.2677 49.9919C 24.2677 49.9962 24.2677 50.0004 24.2677 50.0046C 24.2677 50.0088 24.2677 50.0131 24.2677 50.0173C 24.2677 50.0215 24.2677 50.0258 24.2677 50.03C 24.2677 50.0343 24.2677 50.0385 24.2677 50.0427C 24.2677 50.047 24.2677 50.0512 24.2677 50.0555C 24.2677 50.0597 24.2677 50.064 24.2677 50.0682C 24.2677 50.0725 24.2677 50.0767 24.2677 50.081C 24.2677 50.0852 24.2677 50.0895 24.2677 50.0937C 24.2677 50.098 24.2677 50.1022 24.2677 50.1065C 24.2677 50.1107 24.2677 50.115 24.2677 50.1193C 24.2677 50.1235 24.2677 50.1278 24.2677 50.132C 24.2677 50.1363 24.2677 50.1406 24.2677 50.1448C 24.2677 50.1491 24.2677 50.1534 24.2677 50.1576C 24.2677 50.1619 24.2677 50.1662 24.2677 50.1704C 24.2677 50.1747 24.2677 50.179 24.2677 50.1833C 24.2677 50.1875 24.2677 50.1918 24.2677 50.1961C 24.2677 50.2004 24.2677 50.2046 24.2677 50.2089C 24.2677 50.2132 24.2677 50.2175 24.2677 50.2217C 24.2677 50.226 24.2677 50.2303 24.2677 50.2346C 24.2677 50.2389 24.2677 50.2432 24.2677 50.2474C 24.2677 50.2517 24.2677 50.256 24.2677 50.2603C 24.2677 50.2646 24.2677 50.2689 24.2677 50.2732C 24.2677 50.2775 24.2677 50.2817 24.2677 50.286C 24.2677 50.2903 24.2677 50.2946 24.2677 50.2989C 24.2677 50.3032 24.2677 50.3075 24.2677 50.3118C 24.2677 50.3161 24.2677 50.3204 24.2677 50.3247C 24.2677 50.329 24.2677 50.3333 24.2677 50.3376C 24.2677 50.3419 24.2677 50.3462 24.2677 50.3505C 24.2677 50.3548 24.2677 50.3591 24.2677 50.3634C 24.2677 50.3677 24.2677 50.372 24.2677 50.3763C 24.2677 50.3806 24.2677 50.3849 24.2677 50.3893C 24.2677 50.3936 24.2677 50.3979 24.2677 50.4022C 24.2677 50.4065 24.2677 50.4108 24.2677 50.4151C 24.2677 50.4194 24.2677 50.4237 24.2677 50.4281C 24.2677 50.4324 24.2677 50.4367 24.2677 50.441C 24.2677 50.4453 24.2677 50.4496 24.2677 50.4539C 24.2677 50.4583 24.2677 50.4626 24.2677 50.4669C 24.2677 50.4712 24.2677 50.4755 24.2677 50.4799C 24.2677 50.4842 24.2677 50.4885 24.2677 50.4928C 24.2677 50.4971 24.2677 50.5015 24.2677 50.5058C 24.2677 50.5101 24.2677 50.5144 24.2677 50.5187C 24.2677 50.5231 24.2677 50.5274 24.2677 50.5317C 24.2677 50.536 24.2677 50.5404 24.2677 50.5447C 24.2677 50.549 24.2677 50.5534 24.2677 50.5577C 24.2677 50.562 24.2677 50.5663 24.2677 50.5707C 24.2677 50.575 24.2677 50.5793 24.2677 50.5837C 24.2677 50.588 24.2677 50.5923 24.2677 50.5966C 24.2677 50.601 24.2677 50.6053 24.2677 50.6096C 24.2677 50.614 24.2677 50.6183 24.2677 50.6226C 24.2677 50.627 24.2677 50.6313 24.2677 50.6356C 24.2677 50.64 24.2677 50.6443 24.2677 50.6486C 24.2677 50.653 24.2677 50.6573 24.2677 50.6616C 24.2677 50.666 24.2677 50.6703 24.2677 50.6747C 24.2677 50.679 24.2677 50.6833 24.2677 50.6877C 24.2677 50.692 24.2677 50.6963 24.2677 50.7007C 24.2677 50.705 24.2677 50.7094 24.2677 50.7137C 24.2677 50.718 24.2677 50.7224 24.2677 50.7267C 24.2677 50.731 24.2677 50.7354 24.2677 50.7397C 24.2677 50.7441 24.2677 50.7484 24.2677 50.7527C 24.2677 50.7571 24.2677 50.7614 24.2677 50.7658C 24.2677 50.7701 24.2677 50.7744 24.2677 50.7788C 24.2677 50.7831 24.2677 50.7875 24.2677 50.7918C 24.2677 50.7962 24.2677 50.8005 24.2677 50.8048C 24.2677 50.8092 24.2677 50.8135 24.2677 50.8179C 24.2677 50.8222 24.2677 50.8265 24.2677 50.8309C 24.2677 50.8352 24.2677 50.8396 24.2677 50.8439C 24.2677 50.8482 24.2677 50.8526 24.2677 50.8569C 24.2677 50.8613 24.2677 50.8656 24.2677 50.87C 24.2677 50.8743 24.2677 50.8786 24.2677 50.883C 24.2677 50.8873 24.2677 50.8917 24.2677 50.896C 24.2677 50.9004 24.2677 50.9047 24.2677 50.909C 24.2677 50.9134 24.2677 50.9177 24.2677 50.9221C 24.2677 50.9264 24.2677 50.9307 24.2677 50.9351C 24.2677 50.9394 24.2677 50.9438 24.2677 50.9481C 24.2677 50.9524 24.2677 50.9568 24.2677 50.9611C 24.2677 50.9655 24.2677 50.9698 24.2677 50.9742C 24.2677 50.9785 24.2677 50.9828 24.2677 50.9872C 24.2677 50.9915 24.2677 50.9959 24.2677 51.0002C 24.2677 51.0045 24.2677 51.0089 24.2677 51.0132C 24.2677 51.0176 24.2677 51.0219 24.2677 51.0262C 24.2677 51.0306 24.2677 51.0349 24.2677 51.0392C 24.2677 51.0436 24.2677 51.0479 24.2677 51.0523C 24.2677 51.0566 24.2677 51.0609 24.2677 51.0653C 24.2677 51.0696 24.2677 51.0739 24.2677 51.0783C 24.2677 51.0826 24.2677 51.087 24.2677 51.0913C 24.2677 51.0956 24.2677 51.1 24.2677 51.1043C 24.2677 51.1086 24.2677 51.113 24.2677 51.1173C 24.2677 51.1216 24.2677 51.126 24.2677 51.1303C 24.2677 51.1346 24.2677 51.139 24.2677 51.1433C 24.2677 51.1476 24.2677 51.152 24.2677 51.1563C 24.2677 51.1606 24.2677 51.1649 24.2677 51.1693C 24.2677 51.1736 24.2677 51.1779 24.2677 51.1823C 24.2677 51.1866 24.2677 51.1909 24.2677 51.1952C 24.2677 51.1996 24.2677 51.2039 24.2677 51.2082C 24.2677 51.2125 24.2677 51.2169 24.2677 51.2212C 24.2677 51.2255 24.2677 51.2298 24.2677 51.2342C 24.2677 51.2385 24.2677 51.2428 24.2677 51.2471C 24.2677 51.2515 24.2677 51.2558 24.2677 51.2601C 24.2677 51.2644 24.2677 51.2687 24.2677 51.2731C 24.2677 51.2774 24.2677 51.2817 24.2677 51.286C 24.2677 51.2903 24.2677 51.2946 24.2677 51.299C 24.2677 51.3033 24.2677 51.3076 24.2677 51.3119C 24.2677 51.3162 24.2677 51.3205 24.2677 51.3248C 24.2677 51.3292 24.2677 51.3335 24.2677 51.3378C 24.2677 51.3421 24.2677 51.3464 24.2677 51.3507C 24.2677 51.355 24.2677 51.3593 24.2677 51.3636C 24.2677 51.3679 24.2677 51.3723 24.2677 51.3766C 24.2677 51.3809 24.2677 51.3852 24.2677 51.3895C 24.2677 51.3938 24.2677 51.3981 24.2677 51.4024C 24.2677 51.4067 24.2677 51.411 24.2677 51.4153C 24.2677 51.4196 24.2677 51.4239 24.2677 51.4282C 24.2677 51.4325 24.2677 51.4368 24.2677 51.4411C 24.2677 51.4454 24.2677 51.4497 24.2677 51.454C 24.2677 51.4582 24.2677 51.4625 24.2677 51.4668C 24.2677 51.4711 24.2677 51.4754 24.2677 51.4797C 24.2677 51.484 24.2677 51.4883 24.2677 51.4926C 24.2677 51.4968 24.2677 51.5011 24.2677 51.5054C 24.2677 51.5097 24.2677 51.514 24.2677 51.5183C 24.2677 51.5226 24.2677 51.5268 24.2677 51.5311C 24.2677 51.5354 24.2677 51.5397 24.2677 51.5439C 24.2677 51.5482 24.2677 51.5525 24.2677 51.5568C 24.2677 51.561 24.2677 51.5653 24.2677 51.5696C 24.2677 51.5739 24.2677 51.5781 24.2677 51.5824C 24.2677 51.5867 24.2677 51.5909 24.2677 51.5952C 24.2677 51.5995 24.2677 51.6037 24.2677 51.608C 24.2677 51.6123 24.2677 51.6165 24.2677 51.6208C 24.2677 51.625 24.2677 51.6293 24.2677 51.6336C 24.2677 51.6378 24.2677 51.6421 24.2677 51.6463C 24.2677 51.6506 24.2677 51.6548 24.2677 51.6591C 24.2677 51.6634 24.2677 51.6676 24.2677 51.6719C 24.2677 51.6761 24.2677 51.6804 24.2677 51.6846C 24.2677 51.6888 24.2677 51.6931 24.2677 51.6973C 24.2677 51.7016 24.2677 51.7058 24.2677 51.7101C 24.2677 51.7143 24.2677 51.7185 24.2677 51.7228C 24.2677 51.727 24.2677 51.7312 24.2677 51.7355C 24.2677 51.7397 24.2677 51.7439 24.2677 51.7482C 24.2677 51.7524 24.2677 51.7566 24.2677 51.7609C 24.2677 51.7651 24.2677 51.7693 24.2677 51.7735C 24.2677 51.7778 24.2677 51.782 24.2677 51.7862C 24.2677 51.7904 24.2677 51.7946 24.2677 51.7989C 24.2677 51.8031 24.2677 51.8073 24.2677 51.8115C 24.2677 51.8157 24.2677 51.8199 24.2677 51.8241C 24.2677 51.8284 24.2677 51.8326 24.2677 51.8368C 24.2677 51.841 24.2677 51.8452 24.2677 51.8494C 24.2677 51.8536 24.2677 51.8578 24.2677 51.862C 24.2677 51.8662 24.2677 51.8704 24.2677 51.8746C 24.2677 51.8788 24.2677 51.883 24.2677 51.8871C 24.2677 51.8913 24.2677 51.8955 24.2677 51.8997C 24.2677 51.9039 24.2677 51.9081 24.2677 51.9123C 24.2677 51.9165 24.2677 51.9206 24.2677 51.9248C 24.2677 51.929 24.2677 51.9332 24.2677 51.9374C 24.2677 51.9415 24.2677 51.9457 24.2677 51.9499C 24.2677 51.954 24.2677 51.9582 24.2677 51.9624C 24.2677 51.9665 24.2677 51.9707 24.2677 51.9749C 24.2677 51.979 24.2677 51.9832 24.2677 51.9874C 24.2677 51.9915 24.2677 51.9957 24.2677 51.9998C 24.2677 52.004 24.2677 52.0081 24.2677 52.0123C 24.2677 52.0164 24.2677 52.0206 24.2677 52.0247C 24.2677 52.0289 24.2677 52.033 24.2677 52.0372C 24.2677 52.0413 24.2677 52.0454 24.2677 52.0496C 24.2677 52.0537 24.2677 52.0579 24.2677 52.062C 24.2677 52.0661 24.2677 52.0703 24.2677 52.0744C 24.2677 52.0785 24.2677 52.0826 24.2677 52.0868C 24.2677 52.0909 24.2677 52.095 24.2677 52.0991C 24.2677 52.1032 24.2677 52.1074 24.2677 52.1115C 24.2677 52.1156 24.2677 52.1197 24.2677 52.1238C 24.2677 52.1279 24.2677 52.132 24.2677 52.1361C 24.2677 52.1402 24.2677 52.1443 24.2677 52.1484C 24.2677 52.1525 24.2677 52.1566 24.2677 52.1607C 24.2677 52.1648 24.2677 52.1689 24.2677 52.173C 24.2677 52.1771 24.2677 52.1812 24.2677 52.1853C 24.2677 52.1894 24.2677 52.1935 24.2677 52.1975C 24.2677 52.2016 24.2677 52.2057 24.2677 52.2098C 24.2677 52.2138 24.2677 52.2179 24.2677 52.222C 24.2677 52.2261 24.2677 52.2301 24.2677 52.2342C 24.2677 52.2383 24.2677 52.2423 24.2677 52.2464C 24.2677 52.2504 24.2677 52.2545 24.2677 52.2585C 24.2677 52.2626 24.2677 52.2667 24.2677 52.2707C 24.2677 52.2747 24.2677 52.2788 24.2677 52.2828C 24.2677 52.2869 24.2677 52.2909 24.2677 52.295C 24.2677 52.299 24.2677 52.303 24.2677 52.3071C 24.2677 52.3111 24.2677 52.3151 24.2677 52.3192C 24.2677 52.3232 24.2677 52.3272 24.2677 52.3312C 24.2677 52.3353 24.2677 52.3393 24.2677 52.3433C 24.2677 52.3473 24.2677 52.3513 24.2677 52.3553C 24.2677 52.3593 24.2677 52.3634 24.2677 52.3674C 24.2677 52.3714 24.2677 52.3754 24.2677 52.3794C 24.2677 52.3834 24.2677 52.3874 24.2677 52.3914C 24.2677 52.3953 24.2677 52.3993 24.2677 52.4033C 24.2677 52.4073 24.2677 52.4113 24.2677 52.4153C 24.2677 52.4193 24.2677 52.4232 24.2677 52.4272C 24.2677 52.4312 24.2677 52.4352 24.2677 52.4391C 24.2677 52.4431 24.2677 52.4471 24.2677 52.451C 24.2677 52.455 24.2677 52.459 24.2677 52.4629C 24.2677 52.4669 24.2677 52.4708 24.2677 52.4748C 24.2677 52.4787 24.2677 52.4827 24.2677 52.4866C 24.2677 52.4906 24.2677 52.4945 24.2677 52.4985C 24.2677 52.5024 24.2677 52.5063 24.2677 52.5103C 24.2677 52.5142 24.2677 52.5181 24.2677 52.522C 24.2677 52.526 24.2677 52.5299 24.2677 52.5338C 24.2677 52.5377 24.2677 52.5417 24.2677 52.5456C 24.2677 52.5495 24.2677 52.5534 24.2677 52.5573C 24.2677 52.5612 24.2677 52.5651 24.2677 52.569C 24.2677 52.5729 24.2677 52.5768 24.2677 52.5807C 24.2677 52.5846 24.2677 52.5885 24.2677 52.5924C 24.2677 52.5963 24.2677 52.6002 24.2677 52.604C 24.2677 52.6079 24.2677 52.6118 24.2677 52.6157C 24.2677 52.6195 24.2677 52.6234 24.2677 52.6273C 24.2677 52.6311 24.2677 52.635 24.2677 52.6389C 24.2677 52.6427 24.2677 52.6466 24.2677 52.6504C 24.2677 52.6543 24.2677 52.6581 24.2677 52.662C 24.2677 52.6658 24.2677 52.6697 24.2677 52.6735C 24.2677 52.6774 24.2677 52.6812 24.2677 52.685C 24.2677 52.6889 24.2677 52.6927 24.2677 52.6965C 24.2677 52.7003 24.2677 52.7042 24.2677 52.708C 24.2677 52.7118 24.2677 52.7156 24.2677 52.7194C 24.2677 52.7232 24.2677 52.727 24.2677 52.7309C 24.2677 52.7347 24.2677 52.7385 24.2677 52.7423C 24.2677 52.7461 24.2677 52.7498 24.2677 52.7536C 24.2677 52.7574 24.2677 52.7612 24.2677 52.765C 24.2677 52.7688 24.2677 52.7726 24.2677 52.7763C 24.2677 52.7801 24.2677 52.7839 24.2677 52.7876C 24.2677 52.7914 24.2677 52.7952 24.2677 52.7989C 24.2677 52.8027 24.2677 52.8064 24.2677 52.8102C 24.2677 52.814 24.2677 52.8177 24.2677 52.8214C 24.2677 52.8252 24.2677 52.8289 24.2677 52.8327C 24.2677 52.8364 24.2677 52.8401 24.2677 52.8439C 24.2677 52.8476 24.2677 52.8513 24.2677 52.855C 24.2677 52.8588 24.2677 52.8625 24.2677 52.8662C 24.2677 52.8699 24.2677 52.8736 24.2677 52.8773C 24.2677 52.881 24.2677 52.8847 24.2677 52.8884C 24.2677 52.8921 24.2677 52.8958 24.2677 52.8995C 24.2677 52.9032 24.2677 52.9069 24.2677 52.9106C 24.2677 52.9143 24.2677 52.9179 24.2677 52.9216C 24.2677 52.9253 24.2677 52.929 24.2677 52.9326C 24.2677 52.9363 24.2677 52.94 24.2677 52.9436C 24.2677 52.9473 24.2677 52.9509 24.2677 52.9546C 24.2677 52.9582 24.2677 52.9619 24.2677 52.9655C 24.2677 52.9692 24.2677 52.9728 24.2677 52.9764C 24.2677 52.9801 24.2677 52.9837 24.2677 52.9873C 24.2677 52.9909 24.2677 52.9946 24.2677 52.9982C 24.2677 53.0018 24.2677 53.0054 24.2677 53.009C 24.2677 53.0126 24.2677 53.0162 24.2677 53.0198C 24.2677 53.0234 24.2677 53.027 24.2677 53.0306C 24.2677 53.0342 24.2677 53.0378 24.2677 53.0414C 24.2677 53.045 24.2677 53.0485 24.2677 53.0521C 24.2677 53.0557 24.2677 53.0592 24.2677 53.0628C 24.2677 53.0664 24.2677 53.0699 24.2677 53.0735C 24.2677 53.0771 24.2677 53.0806 24.2677 53.0842C 24.2677 53.0877 24.2677 53.0912 24.2677 53.0948C 24.2677 53.0983 24.2677 53.1019 24.2677 53.1054C 24.2677 53.1089 24.2677 53.1124 24.2677 53.116C 24.2677 53.1195 24.2677 53.123 24.2677 53.1265C 24.2677 53.13 24.2677 53.1335 24.2677 53.137C 24.2677 53.1405 24.2677 53.144 24.2677 53.1475C 24.2677 53.151 24.2677 53.1545 24.2677 53.158C 24.2677 53.1615 24.2677 53.165 24.2677 53.1684C 24.2677 53.1719 24.2677 53.1754 24.2677 53.1789C 24.2677 53.1823 24.2677 53.1858 24.2677 53.1892C 24.2677 53.1927 24.2677 53.1962 24.2677 53.1996C 24.2677 53.2031 24.2677 53.2065 24.2677 53.2099C 24.2677 53.2134 24.2677 53.2168 24.2677 53.2202C 24.2677 53.2237 24.2677 53.2271 24.2677 53.2305C 24.2677 53.2339 24.2677 53.2374 24.2677 53.2408C 24.2677 53.2442 24.2677 53.2476 24.2677 53.251C 24.2677 53.2544 24.2677 53.2578 24.2677 53.2612C 24.2677 53.2646 24.2677 53.2679 24.2677 53.2713C 24.2677 53.2747 24.2677 53.2781 24.2677 53.2815C 24.2677 53.2848 24.2677 53.2882 24.2677 53.2916C 24.2677 53.2949 24.2677 53.2983 24.2677 53.3016C 24.2677 53.305 24.2677 53.3083 24.2677 53.3117C 24.2677 53.315 24.2677 53.3184 24.2677 53.3217C 24.2677 53.325 24.2677 53.3284 24.2677 53.3317C 24.2677 53.335 24.2677 53.3383 24.2677 53.3416C 24.2677 53.3449 24.2677 53.3482 24.2677 53.3516C 24.2677 53.3549 24.2677 53.3582 24.2677 53.3614C 24.2677 53.3647 24.2677 53.368 24.2677 53.3713C 24.2677 53.3746 24.2677 53.3779 24.2677 53.3811C 24.2677 53.3844 24.2677 53.3877 24.2677 53.3909C 24.2677 53.3942 24.2677 53.3975 24.2677 53.4007C 24.2677 53.404 24.2677 53.4072 24.2677 53.4105C 24.2677 53.4137 24.2677 53.4169 24.2677 53.4202C 24.2677 53.4234 24.2677 53.4266 24.2677 53.4298C 24.2677 53.4331 24.2677 53.4363 24.2677 53.4395C 24.2677 53.4427 24.2677 53.4459 24.2677 53.4491C 24.2677 53.4523 24.2677 53.4555 24.2677 53.4587C 24.2677 53.4619 24.2677 53.4651 24.2677 53.4682C 24.2677 53.4714 24.2677 53.4746 24.2677 53.4778C 24.2677 53.4809 24.2677 53.4841 24.2677 53.4873C 24.2677 53.4904 24.2677 53.4936 24.2677 53.4967C 24.2677 53.4999 24.2677 53.503 24.2677 53.5061C 24.2677 53.5093 24.2677 53.5124 24.2677 53.5155C 24.2677 53.5187 24.2677 53.5218 24.2677 53.5249C 24.2677 53.528 24.2677 53.5311 24.2677 53.5342C 24.2677 53.5373 24.2677 53.5404 24.2677 53.5435C 24.2677 53.5466 24.2677 53.5497 24.2677 53.5528C 24.2677 53.5558 24.2677 53.5589 24.2677 53.562C 24.2677 53.5651 24.2677 53.5681 24.2677 53.5712C 24.2677 53.5742 24.2677 53.5773 24.2677 53.5803C 24.2677 53.5834 24.2677 53.5864 24.2677 53.5895C 24.2677 53.5925 24.2677 53.5955 24.2677 53.5986C 24.2677 53.6016 24.2677 53.6046 24.2677 53.6076C 24.2677 53.6106 24.2677 53.6136 24.2677 53.6166C 24.2677 53.6197 24.2677 53.6227 24.2677 53.6256C 24.2677 53.6286 24.2677 53.6316 24.2677 53.6346C 24.2677 53.6376 24.2677 53.6405 24.2677 53.6435C 24.2677 53.6465 24.2677 53.6494 24.2677 53.6524C 24.2677 53.6554 24.2677 53.6583 24.2677 53.6613C 24.2677 53.6642 24.2677 53.6671 24.2677 53.6701C 24.2677 53.673 24.2677 53.6759 24.2677 53.6789C 24.2677 53.6818 24.2677 53.6847 24.2677 53.6876C 24.2677 53.6905 24.2677 53.6934 24.2677 53.6963C 24.2677 53.6992 24.2677 53.7021 24.2677 53.705L 26.2677 53.705ZM 35.7853 10.8766L 35.4682 2.87297L 33.4698 2.95216L 33.7869 10.9558L 35.7853 10.8766ZM 35.469 2.91256C 35.469 2.64105 35.6026 2.25907 36.245 1.32402L 34.5966 0.19145C 33.9699 1.10357 33.469 1.95292 33.469 2.91256L 35.469 2.91256ZM 36.1171 1.47555C 36.2004 1.3947 36.2812 1.29732 36.3196 1.25179C 36.3719 1.18999 36.4104 1.14497 36.4506 1.1029C 36.4896 1.06222 36.5198 1.03556 36.5432 1.01807C 36.5659 1.00113 36.5765 0.997145 36.5758 0.997391C 36.5518 1.00673 36.5494 0.98965 36.6206 1.01346C 36.718 1.04604 36.93 1.15267 37.2627 1.47545L 38.6554 0.0400221C 37.7343 -0.853645 36.7767 -1.22591 35.8522 -0.867105C 35.4587 -0.71439 35.1805 -0.462574 35.0058 -0.279982C 34.9171 -0.187375 34.8416 -0.0977345 34.7922 -0.0392927C 34.729 0.0354087 34.7206 0.0438311 34.7246 0.0399234L 36.1171 1.47555ZM 37.2627 1.47545C 38.5243 2.69945 51.9462 16.1318 58.5093 22.7049L 59.9245 21.2918C 53.3733 14.7305 39.9321 1.27868 38.6554 0.0400221L 37.2627 1.47545ZM 58.5092 22.7049C 58.657 22.8529 58.746 22.9325 58.851 23.0504C 58.9469 23.1581 58.987 23.2257 59.0014 23.26C 59.0086 23.2773 58.9978 23.2534 59.0051 23.2235C 59.0094 23.2065 58.9985 23.2796 58.8378 23.4354L 60.2305 24.8709C 60.5775 24.5342 60.8367 24.1477 60.9465 23.7042C 61.0595 23.248 60.9897 22.8309 60.8466 22.4886C 60.5995 21.8976 60.063 21.4304 59.9246 21.2918L 58.5092 22.7049ZM 58.8378 23.4354C 58.799 23.4732 58.4871 23.7688 56.9959 23.7688L 56.9959 25.7688C 58.6776 25.7688 59.6348 25.4488 60.2305 24.8709L 58.8378 23.4354ZM 57.0347 23.7696L 49.1026 23.4616L 49.025 25.4601L 56.9571 25.7681L 57.0347 23.7696ZM 3.29125 34.6923L 10.5887 35.308L 10.7568 33.3151L 3.45939 32.6994L 3.29125 34.6923ZM 11.3691 35.0292L 21.8393 24.8709L 20.4466 23.4354L 9.97644 33.5938L 11.3691 35.0292ZM 27.233 19.6377L 35.4825 11.6339L 34.0898 10.1985L 25.8404 18.2023L 27.233 19.6377ZM 36.1514 35.7534L 24.5666 47.1431L 25.9688 48.5693L 37.5536 37.1796L 36.1514 35.7534ZM 48.3627 23.7478L 38.9695 32.9828L 40.3717 34.4089L 49.7649 25.1739L 48.3627 23.7478Z" transform="translate(-14281 -21781.7)" fill="#B1BABE"></path>
            </g>
            <g id="Vector 4">
                <path d="M 44.3662 42.8109L 43.7418 43.592L 45.1268 42.1616L 44.3662 42.8109ZM 9.14806 1.56132L 9.90857 0.911999L 9.8486 0.841758L 9.77678 0.783689L 9.14806 1.56132ZM 2.48515 0.94565L 3.13825 1.70293L 2.48515 0.94565ZM 1.85059 8.64157L 2.50368 7.88429L 1.85059 8.64157ZM 45.1268 42.1616L 9.90857 0.911999L 8.38754 2.21063L 43.6057 43.4602L 45.1268 42.1616ZM 9.77678 0.783689C 9.0503 0.196317 7.81846 -0.533715 6.41463 -0.846215C 4.98836 -1.16371 3.28393 -1.06375 1.83206 0.188372L 3.13825 1.70293C 3.9708 0.984919 4.96326 0.879657 5.98005 1.106C 7.01929 1.33734 7.97669 1.90021 8.51933 2.33894L 9.77678 0.783689ZM 1.83206 0.188372C 0.316082 1.49578 -0.765055 3.0119 -0.966502 4.67323C -1.17606 6.40146 -0.406182 8.0158 1.1975 9.39885L 2.50368 7.88429C 1.25184 6.80467 0.911232 5.80238 1.01895 4.91398C 1.13479 3.95869 1.7987 2.85818 3.13825 1.70293L 1.83206 0.188372ZM 1.1975 9.39885C 3.50063 11.3851 30.5373 33.0355 43.7418 43.592L 44.9907 42.0299C 31.7551 31.4485 4.7694 9.83828 2.50368 7.88429L 1.1975 9.39885Z" transform="translate(-14275 -21777.9)" fill="#B1BABE"></path>
            </g>
            <g id="Vector 5">
                <path d="M -0.698827 10.8613L 3.53213 14.9949L 4.92978 13.5643L 0.698827 9.43076L -0.698827 10.8613ZM 6.00066 9.05505C 7.06427 8.22375 8.47289 6.57976 8.59457 4.61824C 8.65824 3.59197 8.36215 2.53388 7.56604 1.55797C 6.78733 0.603399 5.56555 -0.231527 3.83491 -0.927743L 3.08847 0.927743C 4.6272 1.54676 5.52091 2.21495 6.01629 2.82221C 6.49428 3.40813 6.6309 3.97059 6.59841 4.49441C 6.52777 5.63307 5.6286 6.80744 4.76905 7.47925L 6.00066 9.05505Z" transform="translate(-14270.2 -21784)" fill="#B1BABE"></path>
            </g>
            <g id="Vector 6">
                <path d="M 0.867515 3.38201L 1.50954 4.1487L 1.56154 4.10515L 1.60718 4.05499L 0.867515 3.38201ZM 1.25215 7.51559L 0.636305 8.30346L 0.636305 8.30346L 1.25215 7.51559ZM 4.71384 7.51559L 4.27482 6.61711L 4.24082 6.63373L 4.20817 6.65286L 4.71384 7.51559ZM 3.20491 -0.672972L 0.127847 2.70904L 1.60718 4.05499L 4.68424 0.672972L 3.20491 -0.672972ZM 0.225486 2.61533C -0.421856 3.15743 -0.95203 4.07072 -0.996937 5.12439C -1.04424 6.23436 -0.549709 7.3764 0.636305 8.30346L 1.86799 6.72772C 1.13101 6.15166 0.984493 5.6027 1.00125 5.20955C 1.02041 4.76009 1.25941 4.35816 1.50954 4.1487L 0.225486 2.61533ZM 0.636305 8.30346C 0.818636 8.44598 1.34797 8.83064 2.15929 8.99056C 2.9958 9.15545 4.04899 9.06438 5.2195 8.37832L 4.20817 6.65286C 3.4553 7.09413 2.89893 7.09787 2.54607 7.02832C 2.16803 6.9538 1.92821 6.77479 1.86799 6.72772L 0.636305 8.30346ZM 5.15286 8.41406C 5.49518 8.2468 5.83144 7.9545 6.11116 7.68911C 6.41194 7.40374 6.74303 7.05472 7.07896 6.69525C 7.76869 5.95718 8.49972 5.15413 9.22708 4.50273L 7.89281 3.01286C 7.08164 3.73932 6.27413 4.62727 5.61771 5.32969C 5.28056 5.69047 4.98667 5.99906 4.7346 6.23822C 4.60942 6.35699 4.50441 6.44915 4.41811 6.51711C 4.37552 6.55065 4.34135 6.57523 4.31504 6.59263C 4.30212 6.60119 4.29214 6.60731 4.28499 6.61148C 4.27778 6.61567 4.27446 6.61729 4.27482 6.61711L 5.15286 8.41406Z" transform="translate(-14276.5 -21768.6)" fill="#B1BABE"></path>
            </g>
            <g id="Vector 7">
                <path d="M -0.431648 6.16296L 18.4153 15.1817L 19.2786 13.3776L 0.431648 4.35887L -0.431648 6.16296ZM 4.58338 0.908978L 23.4304 9.55191L 24.264 7.73395L 5.41706 -0.908978L 4.58338 0.908978Z" transform="translate(-14269.5 -21753.2)" fill="#B1BABE"></path>
            </g>
            <g id="Vector 8">
                <path d="M -0.375454 8.06665L 15.3945 14.4549L 16.1454 12.6012L 0.375454 6.21297L -0.375454 8.06665ZM 0.812783 0.940022L 14.2749 5.82515L 14.9571 3.94511L 1.49501 -0.940022L 0.812783 0.940022Z" transform="translate(-14252.1 -21766.7)" fill="#B1BABE"></path>
            </g>
        </g>
    </g>
</svg>
