<svg width="48" height="68" viewBox="0 0 48 68" version="1.1" xmlns="http://www.w3.org/2000/svg" xmlns:xlink="http://www.w3.org/1999/xlink">
    <title>Group 2.25</title>
    <desc>Created using Figma</desc>
    <g id="Canvas" transform="translate(14980 21785)">
        <g id="Group 2.25">
            <g id="Vector 2">
                <path d="M 0 3.28324L 0.294149 2.32748L -1 1.92919L -1 3.28324L 0 3.28324ZM 23.8892 1.51245L 23.5373 0.576426L 23.5372 0.576455L 23.8892 1.51245ZM 47.4681 13.3177L 48.4646 13.2332L 47.4681 13.3177ZM 41.8837 37.2231L 42.7409 37.7381L 41.8837 37.2231ZM 29.1634 40.1744L 28.3549 40.7629L 28.3826 40.801L 28.4138 40.8363L 29.1634 40.1744ZM 25.1302 30.14L 25.1302 29.14L 23.9101 29.14L 24.1497 30.3363L 25.1302 30.14ZM 11.7895 19.2201L 12.0093 18.2445L 11.7895 19.2201ZM 31.6454 25.562L 32.0936 24.668L 31.6454 25.562ZM 37.2505 29.2546L 36.5872 30.0029L 37.2505 29.2546ZM -0.294149 4.239C 3.41661 5.38104 13.3453 6.54623 24.2412 2.44844L 23.5372 0.576455C 13.0879 4.50625 3.6157 3.34974 0.294149 2.32748L -0.294149 4.239ZM 24.2411 2.44847C 25.3871 2.01759 30.7116 0.453025 35.8714 1.19808C 38.4303 1.56758 40.8794 2.49476 42.776 4.34086C 44.662 6.17656 46.0999 9.01611 46.4717 13.4022L 48.4646 13.2332C 48.0608 8.47023 46.4692 5.14462 44.171 2.90766C 41.8834 0.681099 38.9934 -0.37186 36.1572 -0.781388C 30.527 -1.59438 24.8376 0.0875093 23.5373 0.576426L 24.2411 2.44847ZM 46.4717 13.4022C 46.47 13.3824 46.6277 16.7038 46.0151 21.3069C 45.4024 25.91 44.0304 31.7075 41.0264 36.7082L 42.7409 37.7381C 45.9419 32.4092 47.3669 26.3099 47.9976 21.5707C 48.6283 16.8316 48.4757 13.365 48.4646 13.2332L 46.4717 13.4022ZM 29.972 39.586C 29.1225 38.4187 27.074 34.7542 26.1107 29.9436L 24.1497 30.3363C 25.172 35.4422 27.3429 39.3723 28.3549 40.7629L 29.972 39.586ZM 12.0093 18.2445C 7.62138 17.2559 4.88833 14.5938 3.23088 11.6272C 1.55822 8.63332 1 5.35347 1 3.28324L -1 3.28324C -1 5.6399 -0.379275 9.266 1.48491 12.6026C 3.3643 15.9665 6.52599 19.0593 11.5697 20.1956L 12.0093 18.2445ZM 25.1302 31.14C 25.689 31.14 25.9655 30.7334 26.0492 30.5607C 26.1317 30.3905 26.1494 30.2352 26.1553 30.1711C 26.1691 30.0208 26.1552 29.8756 26.1414 29.7721C 26.111 29.545 26.0443 29.2648 25.9457 28.9533C 25.7459 28.322 25.3872 27.4758 24.8095 26.5275C 23.6499 24.6241 21.5982 22.2947 18.1531 20.466L 17.2154 22.2326C 20.3168 23.8789 22.1126 25.9449 23.1015 27.568C 23.598 28.383 23.8889 29.0829 24.039 29.5569C 24.1153 29.798 24.1487 29.9603 24.159 30.0375C 24.1656 30.086 24.1572 30.0584 24.1637 29.9878C 24.1659 29.9635 24.1768 29.8384 24.2494 29.6885C 24.3232 29.5362 24.587 29.14 25.1302 29.14L 25.1302 31.14ZM 18.1531 20.466C 16.4547 19.5645 14.4256 18.7889 12.0093 18.2445L 11.5697 20.1956C 13.8213 20.7029 15.6819 21.4186 17.2154 22.2326L 18.1531 20.466ZM 17.556 22.341C 21.1022 22.7995 26.4761 24.0893 31.1973 26.4559L 32.0936 24.668C 27.1267 22.1782 21.5255 20.8376 17.8124 20.3575L 17.556 22.341ZM 31.1973 26.4559C 33.1871 27.4534 35.0402 28.6318 36.5872 30.0029L 37.9138 28.5062C 36.2049 26.9916 34.1957 25.7218 32.0936 24.668L 31.1973 26.4559ZM 36.5872 30.0029C 38.8889 32.043 40.4798 34.477 40.8938 37.365L 42.8735 37.0812C 42.3742 33.598 40.4612 30.764 37.9138 28.5062L 36.5872 30.0029ZM 41.0264 36.7082C 38.6429 40.6761 36.2691 41.7223 34.4389 41.72L 34.4364 43.72C 37.2003 43.7234 40.1324 42.0805 42.7409 37.7381L 41.0264 36.7082ZM 34.4389 41.72C 32.5466 41.7177 30.8745 40.6014 29.913 39.5125L 28.4138 40.8363C 29.6118 42.193 31.7864 43.7168 34.4364 43.72L 34.4389 41.72ZM 33.4377 42.72L 33.4377 54.0456L 35.4377 54.0456L 35.4377 42.72L 33.4377 42.72ZM 33.4377 54.0456L 33.4377 61.9245L 35.4377 61.9245L 35.4377 54.0456L 33.4377 54.0456Z" transform="matrix(0.968712 0.248188 -0.269838 0.962906 -14977.3 -21786)" fill="#B1BABE"></path>
            </g>
            <g id="Vector 2.2">
                <path d="M 20.1119 0L 21.0867 -0.223311L 20.6515 -2.12279L 19.3621 -0.661666L 20.1119 0ZM 0.906102 18.7107C 2.48203 15.3354 3.89969 13.2414 5.25428 11.8172C 6.59736 10.405 7.91916 9.60747 9.38942 8.8732C 12.4098 7.36476 16.0184 6.15006 20.8617 0.661666L 19.3621 -0.661666C 14.8198 4.48564 11.5808 5.54323 8.49583 7.08393C 6.91339 7.87423 5.36804 8.79548 3.80507 10.4388C 2.2536 12.0701 0.726299 14.3684 -0.906102 17.8646L 0.906102 18.7107ZM 19.1372 0.223311C 19.4512 1.59413 20.3543 5.01194 18.4551 8.61579C 16.5709 12.1912 11.7454 16.2565 -0.177549 18.4076L 0.177549 20.3758C 12.3889 18.1727 17.9307 13.9008 20.2244 9.54822C 22.5032 5.22407 21.3951 1.12312 21.0867 -0.223311L 19.1372 0.223311Z" transform="matrix(0.968712 0.248188 -0.269838 0.962906 -14953.5 -21742.5)" fill="#B1BABE"></path>
            </g>
            <g id="Vector 2.1">
                <path d="M 0.930749 2.06592L 1.92888 2.12706L 1.93075 2.09652L 1.93075 2.06592L 0.930749 2.06592ZM 4.65374 2.06592L 3.65374 2.06592L 3.65374 2.09109L 3.655 2.11622L 4.65374 2.06592ZM 0.998129 17.3229L 1.92888 2.12706L -0.0673809 2.00479L -0.998129 17.2006L 0.998129 17.3229ZM 1.93075 2.06592C 1.93075 1.86202 1.99331 1.54811 2.14197 1.31897C 2.20933 1.21514 2.28506 1.14241 2.36998 1.09379C 2.4514 1.04718 2.58033 1 2.79224 1L 2.79224 -1C 1.67568 -1 0.908919 -0.455149 0.464123 0.230468C 0.0543333 0.862127 -0.0692514 1.58118 -0.0692514 2.06592L 1.93075 2.06592ZM 2.79224 1C 2.91984 1 3.15257 1.05149 3.33142 1.19441C 3.46671 1.30251 3.65374 1.52374 3.65374 2.06592L 5.65374 2.06592C 5.65374 0.955361 5.22026 0.143631 4.57993 -0.36804C 3.98316 -0.844898 3.28513 -1 2.79224 -1L 2.79224 1ZM 3.655 2.11622L 4.60632 21.0046L 6.60379 20.904L 5.65247 2.01562L 3.655 2.11622Z" transform="matrix(0.968712 0.248188 -0.269838 0.962906 -14948.9 -21770.2)" fill="#B1BABE"></path>
            </g>
        </g>
    </g>
</svg>
