<svg width="121" height="97" viewBox="0 0 121 97" version="1.1" xmlns="http://www.w3.org/2000/svg" xmlns:xlink="http://www.w3.org/1999/xlink">
    <title>Vector</title>
    <desc>Created using Figma</desc>
    <g id="Canvas" transform="translate(17303 18688)">
        <g id="Vector">
            <path fill-rule="evenodd" d="M 45.4928 65.8733C 43.955 62.3863 41.8707 59.8488 40.0234 57.6751L 42.3095 55.7324C 44.1798 57.9333 46.5123 60.7503 48.2378 64.6628C 49.9714 68.594 51.0647 73.5617 50.5994 80.0749C 50.5919 80.1803 50.5834 80.3006 50.5739 80.4347C 50.429 82.4854 50.0571 87.748 49.4675 91.9473C 49.4139 92.3284 49.4876 92.5822 49.576 92.7029C 49.6169 92.7585 49.8363 93.0412 50.785 93.0412C 51.1797 93.0412 51.5492 93.0525 51.8772 93.063L 51.9286 93.0647C 52.2427 93.0748 52.5077 93.0833 52.7529 93.0833C 53.2914 93.0833 53.546 93.037 53.6849 92.9812C 53.6853 92.9811 53.6862 92.9808 53.6874 92.9805C 53.7255 92.9704 54.133 92.8627 54.3388 91.0185C 54.339 91.0165 54.3392 91.0145 54.3395 91.0125L 56.4035 70.9242L 59.3878 71.2309L 57.3212 91.3439C 57.0849 93.4697 56.4633 95.098 54.8033 95.765C 54.1051 96.0455 53.3666 96.0833 52.7529 96.0833C 52.4573 96.0833 52.1462 96.0733 51.8471 96.0636L 51.7811 96.0615C 51.4531 96.051 51.1267 96.0412 50.785 96.0412C 49.1902 96.0412 47.9239 95.5228 47.157 94.4771C 46.4377 93.4965 46.3816 92.349 46.4966 91.5301C 47.0709 87.4405 47.4362 82.2758 47.5818 80.217C 47.5911 80.0853 47.5995 79.9663 47.607 79.8611C 48.0387 73.8189 47.0224 69.3418 45.4928 65.8733ZM 94.8943 81.1866C 94.9722 80.7004 95.0429 80.0748 95.1187 79.4043C 95.1486 79.1393 95.1793 78.8673 95.2116 78.5941C 95.3404 77.5045 95.5042 76.2861 95.759 75.0615C 96.2846 72.5347 97.1368 70.3073 98.5376 69.0818L 96.5623 66.8239C 94.3753 68.7372 93.3687 71.8219 92.8218 74.4505C 92.5404 75.8035 92.3645 77.1237 92.2323 78.2421C 92.1926 78.5785 92.1575 78.8887 92.1253 79.1735C 92.0461 79.8744 91.9842 80.422 91.9125 80.8288L 91.885 80.985L 92.1926 89.447C 91.9771 91.489 91.5207 92.4572 91.2126 92.8619C 91.1437 92.9523 91.0896 93.008 91.0515 93.0412L 88.6501 93.0412C 88.2735 93.0412 88.0583 92.921 87.8813 92.7382C 87.6644 92.5144 87.4565 92.1354 87.297 91.5848C 86.975 90.4737 86.9832 89.1385 87.0363 88.5002C 87.5058 82.8677 86.0731 75.3496 85.315 72.3175L 82.4046 73.0452C 83.1413 75.9919 84.4742 83.1218 84.0467 88.2511C 83.979 89.0632 83.9492 90.8107 84.4155 92.4199C 84.6501 93.2294 85.043 94.1199 85.7265 94.8255C 86.4497 95.5721 87.4344 96.0412 88.6501 96.0412L 90.7513 96.0412C 91.7927 96.2005 92.8477 95.6667 93.5995 94.6792C 94.3889 93.6424 94.9505 92.0198 95.188 89.6459L 95.1981 89.5443L 94.8943 81.1866ZM 90.9863 93.0862C 90.9862 93.0855 90.9917 93.0821 91.003 93.0782C 90.992 93.085 90.9864 93.087 90.9863 93.0862Z" transform="translate(-17302.5 -18687.6)" fill="#FFFFFF"></path>
            <path fill-rule="evenodd" d="M 23.0677 4.487C 27.0924 2.14035 30.9225 1.93587 34.1901 2.89961C 37.4124 3.85003 39.9988 5.90647 41.6954 7.95999L 40.6745 8.80349C 42.4281 8.23204 44.4276 7.73822 46.3936 7.53276C 49.616 7.19597 53.4314 7.57643 55.4219 10.588C 56.33 11.9619 56.675 13.3594 56.3892 14.7081C 56.1112 16.0204 55.2889 17.032 54.3772 17.7784C 52.5889 19.2424 50.0119 20.0557 48.2533 20.3883L 48.1151 20.4144L 47.9745 20.4144C 46.5558 20.4144 43.0911 20.0068 39.8635 18.3789L 41.2145 15.7003C 43.8257 17.0173 46.6766 17.3854 47.8383 17.4127C 49.3633 17.1061 51.2872 16.431 52.4768 15.4571C 53.0728 14.9692 53.3658 14.5044 53.4544 14.0863C 53.5352 13.7047 53.4981 13.118 52.9192 12.2422C 51.9356 10.7541 49.7616 10.1971 46.7054 10.5165C 43.7732 10.823 40.6492 11.8876 38.6809 12.7809L 37.441 10.0492C 37.9004 9.84065 38.4177 9.62294 38.9795 9.406C 37.5912 7.8795 35.6415 6.45548 33.3414 5.77707C 30.8582 5.04466 27.878 5.15099 24.5666 7.08578L 24.5521 7.09423L 24.5375 7.10234C 24.254 7.2596 23.9411 7.43871 23.6021 7.63871C 21.9436 8.61736 19.6951 10.0768 17.2713 11.883C 13.3192 14.8281 9.33128 18.7681 5.76303 22.9896L 3.24447 26.1649L 3.18213 26.227C 3.12265 26.2862 2.97021 26.5006 3.00532 26.8899C 3.03989 27.2734 3.27778 28.0169 4.36091 29.0427L 7.96507 32.0718C 8.01224 32.1014 8.0592 32.131 8.10607 32.1606C 8.67801 32.5217 9.23697 32.8746 10.0115 33.0166C 10.8026 33.1616 11.9768 33.0982 13.6505 32.0605C 14.971 31.0319 18.2579 29.3657 22.1653 29.9287L 22.1827 29.9312L 22.2001 29.9342C 24.5417 30.3278 28.1262 30.4655 31.2369 29.65C 34.3366 28.8373 36.6243 27.1976 37.2092 24.2473L 40.1519 24.8307C 39.2501 29.3797 35.6517 31.5939 31.9977 32.5519C 28.3633 33.5048 24.337 33.3331 21.7212 32.8957C 18.7736 32.4773 16.2554 33.8123 15.4582 34.4556L 15.3901 34.5105L 15.3161 34.5572C 13.0595 35.9797 11.1091 36.2679 9.47047 35.9674C 8.08143 35.7127 7.0308 35.0376 6.4736 34.6795C 6.40494 34.6354 6.34378 34.5961 6.29039 34.5629L 6.19862 34.506L 2.3665 31.2853L 2.33649 31.2572C 0.872031 29.8825 0.137484 28.491 0.0174309 27.1593C -0.0980316 25.8785 0.375047 24.8307 0.99478 24.1737L 3.4415 21.0889L 3.45647 21.0711C 6.4639 17.5114 9.7939 14.1052 13.2 11.2743C 11.1135 10.3379 9.7135 8.98175 9.04978 8.04733C 8.36836 7.43023 7.60225 6.3575 7.61025 4.96939C 7.61969 3.33215 8.68695 1.88374 10.6692 0.741245C 13.1015 -0.660656 16.0013 0.165603 18.2051 1.24642C 20.0529 2.15263 21.7791 3.41417 23.0397 4.50256C 23.0491 4.49735 23.0584 4.49217 23.0677 4.487ZM 20.311 6.13994C 19.3176 5.35716 18.1186 4.54535 16.8842 3.93993C 14.835 2.93494 13.2047 2.7425 12.1673 3.34043C 10.6798 4.19777 10.6111 4.83247 10.6102 4.98668C 10.6086 5.26086 10.8078 5.62018 11.121 5.87289L 11.311 6.02619L 11.4425 6.23184C 11.8282 6.83463 13.3767 8.44626 16.0196 9.07778C 17.561 7.94859 19.0246 6.95861 20.311 6.13994Z" transform="translate(-17302.5 -18687.6)" fill="#FFFFFF"></path>
            <path fill-rule="evenodd" d="M 26.9027 16.5815C 27.4929 16.5815 28.0007 16.0942 28.0007 15.4568C 28.0007 14.8194 27.4929 14.332 26.9027 14.332C 26.3125 14.332 25.8047 14.8194 25.8047 15.4568C 25.8047 16.0942 26.3125 16.5815 26.9027 16.5815ZM 26.9027 18.5815C 28.6137 18.5815 30.0007 17.1825 30.0007 15.4568C 30.0007 13.731 28.6137 12.332 26.9027 12.332C 25.1917 12.332 23.8047 13.731 23.8047 15.4568C 23.8047 17.1825 25.1917 18.5815 26.9027 18.5815Z" transform="translate(-17302.5 -18687.6)" fill="#FFFFFF"></path>
            <path fill-rule="evenodd" d="M 70.4044 6.23366C 68.3555 4.87801 66.38 4.28492 64.5226 4.25563C 62.4933 4.22363 60.736 4.86635 59.3099 5.70331C 57.8905 6.53637 56.7627 7.58253 55.9632 8.42125C 55.5623 8.84173 55.2353 9.2196 55.0002 9.49133L 54.9989 9.49279C 54.8764 9.63435 54.7919 9.73184 54.7274 9.80248C 54.6999 9.83264 54.6837 9.84922 54.6772 9.85569C 54.6884 9.84503 54.7275 9.80933 54.7849 9.76896L 56.513 12.2266C 56.7059 12.0909 56.8696 11.9115 56.9384 11.836L 56.9436 11.8303C 57.0374 11.7275 57.1471 11.6008 57.2555 11.4755L 57.2676 11.4616C 57.502 11.1907 57.7881 10.8605 58.1353 10.4964C 58.8331 9.76426 59.7432 8.93247 60.8318 8.2936C 61.9137 7.65862 63.1347 7.23544 64.4835 7.25671C 65.8197 7.27779 67.413 7.73661 69.2525 9.08225L 69.5358 9.28949L 69.8811 9.34981C 70.1959 9.40479 70.4698 9.34617 70.5252 9.3343C 70.5278 9.33374 70.5299 9.33329 70.5316 9.33296C 70.6355 9.31152 70.7358 9.28329 70.8141 9.25992C 70.973 9.21252 71.1705 9.14567 71.3695 9.07803L 71.4405 9.0539C 71.8461 8.91592 72.3577 8.74187 72.9649 8.56235C 74.255 8.18093 75.9276 7.79041 77.7097 7.72052C 79.4907 7.65068 81.319 7.90332 82.975 8.74887C 84.608 9.58277 86.1794 11.0463 87.3905 13.5877L 87.4458 13.7038L 87.52 13.8088C 87.8097 14.2188 88.2012 14.3731 88.4 14.432C 88.6111 14.4945 88.8017 14.508 88.9194 14.5118C 89.1572 14.5194 89.4092 14.4934 89.6046 14.4698C 89.7828 14.4482 89.9877 14.4189 90.1938 14.3893C 90.2299 14.3842 90.2661 14.379 90.3022 14.3738C 90.5528 14.338 90.8214 14.3006 91.1109 14.2664C 92.274 14.1292 93.7171 14.0536 95.2047 14.379C 96.6682 14.6991 98.1916 15.4102 99.548 16.8914C 100.916 18.3857 102.195 20.7517 102.999 24.5086L 103.176 25.3358L 103.974 25.6147C 105.366 26.1012 107.745 27.9404 109.018 30.6581C 110.226 33.2363 110.451 36.6254 107.615 40.4737L 107.073 41.2084L 107.478 42.0289C 108.616 44.3309 109.635 47.769 109.23 50.6942C 109.033 52.1201 108.507 53.3648 107.549 54.335C 106.592 55.3044 105.084 56.1206 102.704 56.4765L 101.635 56.6364L 101.452 57.7027C 101.436 57.7921 101.42 57.9115 101.4 58.0568C 101.256 59.1042 100.926 61.4955 99.4929 63.6599C 98.6994 64.8579 97.5793 65.9554 95.9636 66.6744C 94.3445 67.3949 92.1263 67.7803 89.0678 67.388L 88.32 67.2921L 87.7986 67.8354C 87.6174 68.0242 86.8046 68.6931 85.4933 69.4779C 84.2138 70.2437 82.5565 71.0609 80.7298 71.6012C 77.0822 72.6802 72.9878 72.6164 69.6449 69.1496L 68.6883 68.1575L 67.6213 69.0237C 67.4936 69.1273 67.1648 69.3148 66.5735 69.5124C 66.0088 69.7011 65.2935 69.8698 64.4736 69.9874C 62.8286 70.2232 60.8617 70.2392 58.9811 69.8668C 57.0962 69.4935 55.3921 68.7502 54.15 67.5476C 52.9392 66.3752 52.0602 64.665 51.9637 62.1145L 51.9177 60.8982L 50.7193 60.6889C 49.0453 60.3965 46.4756 59.503 44.3452 57.8157C 42.2525 56.1581 40.6355 53.7877 40.583 50.4369L 40.5585 48.8703L 38.996 48.9579C 36.9729 49.0714 34.2287 48.6075 32.3598 47.0673C 31.4556 46.3221 30.733 45.3098 30.368 43.9126C 29.9985 42.4982 29.974 40.6026 30.6243 38.0816L 27.7208 37.3238C 26.9777 40.2048 26.9371 42.6356 27.4671 44.6645C 28.0016 46.7106 29.0938 48.2584 30.4577 49.3823C 32.6252 51.1687 35.4119 51.8409 37.6905 51.9565C 38.1655 55.6353 40.1588 58.3221 42.4885 60.1674C 44.6353 61.8678 47.1011 62.8884 49.0603 63.3946C 49.3889 66.0805 50.4796 68.1639 52.0683 69.7021C 53.8502 71.4275 56.1503 72.3643 58.4069 72.8111C 60.6678 73.2588 62.9794 73.2348 64.9066 72.9585C 65.8728 72.82 66.7671 72.6146 67.5301 72.3596C 67.8066 72.2672 68.0803 72.1636 68.3425 72.0473C 72.5841 75.7897 77.601 75.6588 81.5868 74.4798C 83.712 73.8511 85.601 72.9147 87.0373 72.0551C 88.0091 71.4734 88.822 70.8976 89.3795 70.4429C 92.5547 70.7562 95.1227 70.3366 97.188 69.4176C 99.4032 68.4318 100.938 66.9166 101.993 65.3231C 103.481 63.0764 104.038 60.6112 104.262 59.2416C 106.585 58.7304 108.377 57.7718 109.685 56.4479C 111.192 54.9217 111.935 53.0304 112.2 51.1137C 112.668 47.7299 111.676 44.092 110.546 41.5208C 113.522 37.0234 113.304 32.7444 111.732 29.3898C 110.326 26.3875 107.84 24.1348 105.756 23.118C 104.858 19.3902 103.46 16.728 101.756 14.8666C 99.9245 12.8666 97.8206 11.8806 95.8372 11.4468C 93.8779 11.0183 92.0547 11.1319 90.7519 11.2856C 90.425 11.3242 90.1271 11.3658 89.871 11.4024C 89.8306 11.4082 89.7916 11.4137 89.7541 11.4191C 89.7191 11.4241 89.6853 11.429 89.6526 11.4336C 88.2279 8.83351 86.3792 7.12145 84.3318 6.07597C 82.0875 4.92999 79.7102 4.63799 77.5842 4.72136C 75.4594 4.80468 73.5237 5.26521 72.1084 5.68364C 71.4415 5.8808 70.8793 6.07209 70.4742 6.20993L 70.4044 6.23366Z" transform="translate(-17302.5 -18687.6)" fill="#FFFFFF"></path>
            <path fill-rule="evenodd" d="M 113.707 42.6142C 112.374 41.3277 110.904 40.3941 109.926 39.9458L 111.176 37.2188C 112.47 37.8121 114.221 38.9408 115.791 40.4561C 117.354 41.9656 118.854 43.9719 119.442 46.3457C 119.885 48.1325 120.099 49.6055 119.956 50.781C 119.881 51.393 119.704 51.9807 119.365 52.5001C 119.02 53.03 118.56 53.4093 118.042 53.6705C 117.195 54.0977 116.322 54.0407 115.593 53.806C 114.887 53.5786 114.235 53.1627 113.67 52.7183C 112.54 51.8278 111.457 50.5748 110.615 49.5136L 112.965 47.6493C 113.776 48.6712 114.682 49.6962 115.526 50.3613C 115.95 50.6947 116.282 50.876 116.513 50.9506C 116.62 50.9849 116.676 50.9887 116.7 50.9873C 116.795 50.938 116.829 50.8976 116.851 50.8632C 116.881 50.8172 116.944 50.6952 116.978 50.4174C 117.052 49.8134 116.956 48.7866 116.53 47.0675C 116.127 45.4417 115.045 43.9065 113.707 42.6142ZM 116.713 50.9848C 116.714 50.9853 116.71 50.9866 116.702 50.9872C 116.709 50.9846 116.713 50.9843 116.713 50.9848Z" transform="translate(-17302.5 -18687.6)" fill="#FFFFFF"></path>
            <path fill-rule="evenodd" d="M 55.2813 50.2511C 52.7617 49.2618 51.0032 47.2016 50.1282 45.6219L 52.7497 44.1608C 53.3952 45.326 54.6879 46.7907 56.3801 47.4552C 57.8723 48.0411 59.8817 48.0908 62.4088 46.2962C 62.6128 46.0909 62.8675 45.9128 63.1851 45.7946L 64.5893 48.3444C 64.5966 48.3336 64.6023 48.3242 64.6066 48.3165C 64.6031 48.3255 64.5989 48.3376 64.594 48.353L 64.6155 48.392C 64.602 48.4024 64.5885 48.4128 64.575 48.4231C 64.5369 48.5864 64.5092 48.8646 64.5419 49.245C 64.6148 50.0945 64.9609 51.1439 65.6337 51.9914C 66.2803 52.8058 67.2335 53.4474 68.6333 53.5782C 70.073 53.7127 72.1349 53.3188 74.9618 51.7249L 76.2605 50.9927L 76.9971 52.2873C 77.4987 53.1688 78.4776 53.9623 79.7638 54.4643C 81.0405 54.9626 82.4896 55.1199 83.7881 54.8613C 85.0676 54.6065 86.1621 53.9611 86.8867 52.8675C 87.6172 51.7652 88.0881 50.03 87.7622 47.389L 87.4781 45.087L 89.6912 45.7662C 90.609 46.0479 91.8749 46.0465 93.1936 45.6972C 94.5035 45.3503 95.7236 44.6969 96.576 43.837C 97.4083 42.9975 97.872 41.9894 97.8193 40.8129C 97.7652 39.6049 97.1556 37.9905 95.3684 36.0072L 97.5952 33.9926C 99.6747 36.3003 100.718 38.5482 100.814 40.6721C 100.91 42.8276 100.019 44.6209 98.7006 45.9506C 97.4025 47.2601 95.6767 48.1438 93.9541 48.6001C 92.9443 48.8675 91.8861 49.001 90.8641 48.9664C 90.8696 51.212 90.3476 53.0686 89.3829 54.5245C 88.1457 56.3918 86.2974 57.4218 84.3666 57.8063C 82.4547 58.1871 80.426 57.9476 78.6706 57.2625C 77.3825 56.7597 76.1699 55.9873 75.2509 54.9638C 72.5999 56.2729 70.3084 56.751 68.3489 56.5679C 66.0652 56.3546 64.3925 55.2568 63.2863 53.8635C 62.3677 52.7064 61.8446 51.3565 61.6365 50.1369C 59.3108 51.0797 57.1489 50.9844 55.2813 50.2511ZM 64.6166 48.2948C 64.6169 48.2955 64.6139 48.3034 64.6066 48.3165C 64.6126 48.3007 64.6162 48.2942 64.6166 48.2948Z" transform="translate(-17302.5 -18687.6)" fill="#FFFFFF"></path>
        </g>
    </g>
</svg>