<svg width="70" height="48" viewBox="0 0 70 48" version="1.1" xmlns="http://www.w3.org/2000/svg" xmlns:xlink="http://www.w3.org/1999/xlink">
    <title>шитье</title>
    <desc>Created using Figma</desc>
    <g id="Canvas" transform="translate(14538 22138)">
        <g id="шитье">
            <path d="M 64.2227 45.2013C 65.7515 45.2013 67.1856 45.2013 68.6603 45.2013C 68.6603 45.938 68.6603 46.5958 68.6603 47.3062C 45.769 47.3062 22.9048 47.3062 0 47.3062C 0 46.6089 0 45.938 0 45.2145C 1.46114 45.2145 2.89523 45.2145 4.39696 45.2145C 4.39696 40.8864 4.39696 36.6241 4.39696 32.2698C 4.74872 32.2698 5.03283 32.2698 5.31694 32.2698C 15.8291 32.2698 26.3277 32.2698 36.8398 32.2698C 38.0168 32.2698 37.7598 32.4145 37.9627 31.362C 38.328 29.3756 38.6392 27.3892 38.9774 25.4027C 39.3291 23.3505 37.7868 21.5219 35.6492 21.5219C 30.8058 21.5088 25.9488 21.5088 21.1054 21.5219C 19.0625 21.5351 17.7096 22.8901 17.6961 24.9028C 17.6961 25.1791 17.6961 25.4554 17.6961 25.8105C 16.7761 25.8105 15.9238 25.8369 15.0714 25.7974C 14.5303 25.7711 14.3138 25.9158 14.3409 26.4815C 14.3814 27.6654 14.3544 28.8494 14.3544 30.0728C 13.6238 30.0728 12.9338 30.0728 12.1762 30.0728C 12.1762 28.6915 12.1762 27.3102 12.1762 25.8237C 11.0398 25.8237 9.97096 25.8237 8.86157 25.8237C 8.83451 25.5737 8.80745 25.4159 8.80745 25.2449C 8.80745 20.1406 8.79392 15.0233 8.80745 9.91904C 8.82098 7.09066 10.4851 4.97267 13.1503 4.39384C 13.7591 4.26229 14.4085 4.27545 15.0308 4.24914C 15.5179 4.22283 16.0185 4.24914 16.5732 4.24914C 16.5732 3.15725 16.5732 2.13115 16.5732 1.06557C 17.3173 1.06557 18.0073 1.06557 18.7784 1.06557C 18.7784 2.09168 18.7784 3.13094 18.7784 4.20967C 28.4111 4.20967 37.9627 4.20967 47.5548 4.20967C 47.5548 3.5256 47.5548 2.85468 47.5548 2.11799C 46.8784 2.11799 46.1884 2.11799 45.4578 2.11799C 45.4578 1.3813 45.4578 0.723537 45.4578 0C 47.6225 0 49.8007 0 52.0194 0C 52.0194 0.670916 52.0194 1.32868 52.0194 2.06537C 51.343 2.06537 50.653 2.06537 49.9089 2.06537C 49.9089 2.81522 49.9089 3.49929 49.9089 4.27545C 50.7342 4.27545 51.5324 4.26229 52.3441 4.27545C 53.3588 4.2886 54.387 4.20967 55.3747 4.39384C 57.9317 4.85428 59.7175 6.95911 59.8122 9.49807C 59.8257 9.89273 59.8122 10.2742 59.8122 10.7347C 61.3275 10.7347 62.748 10.7347 64.2227 10.7347C 64.2227 14.3523 64.2227 17.8911 64.2227 21.5088C 62.7751 21.5088 61.341 21.5088 59.8257 21.5088C 59.8257 21.7982 59.8257 22.0087 59.8257 22.2192C 59.8257 25.3501 59.8393 28.4942 59.8122 31.6251C 59.8122 32.204 60.0152 32.3224 60.5428 32.3092C 61.7469 32.2698 62.9645 32.2961 64.2362 32.2961C 64.2227 36.5978 64.2227 40.847 64.2227 45.2013ZM 15.572 23.6268C 16.4785 20.4695 18.9002 19.3513 20.9295 19.3382C 25.9353 19.3119 30.9411 19.3119 35.9469 19.3382C 37.6786 19.3513 39.1668 19.9696 40.1679 21.4167C 41.115 22.7848 41.4261 24.3108 41.1691 25.9289C 40.9797 27.1392 40.7497 28.3495 40.5468 29.5598C 40.2626 31.1647 39.9921 32.7828 39.6944 34.4404C 28.6411 34.4404 17.6555 34.4404 6.65632 34.4404C 6.65632 38.0581 6.65632 41.61 6.65632 45.1487C 25.1371 45.1487 43.5773 45.1487 62.0039 45.1487C 62.0039 41.5573 62.0039 38.0186 62.0039 34.4141C 60.5293 34.4141 59.0952 34.4141 57.5934 34.4141C 57.5934 34.1246 57.5934 33.8878 57.5934 33.6511C 57.5934 25.7185 57.5934 17.7859 57.5934 9.84011C 57.5934 7.73527 56.227 6.39344 54.0488 6.39344C 40.885 6.39344 27.7212 6.39344 14.5573 6.39344C 12.4333 6.39344 11.0533 7.73527 11.0533 9.81379C 11.0533 14.1813 11.0533 18.5357 11.0533 22.9032C 11.0533 23.14 11.0533 23.3637 11.0533 23.6136C 12.6091 23.6268 14.0703 23.6268 15.572 23.6268ZM 59.8528 12.8921C 59.8528 15.0627 59.8528 17.1676 59.8528 19.2856C 60.5969 19.2856 61.3004 19.2856 61.9904 19.2856C 61.9904 17.1281 61.9904 15.0233 61.9904 12.8921C 61.2734 12.8921 60.5969 12.8921 59.8528 12.8921Z" transform="translate(-14537.3 -22137.5)" fill="#B1BABE"></path>
            <path d="M 49.8277 19.3264C 46.7431 19.3132 44.3078 16.919 44.3213 13.9196C 44.3349 10.9465 46.8378 8.52596 49.8818 8.53912C 52.9259 8.55227 55.4288 11.0123 55.4152 13.9591C 55.3882 16.9321 52.8853 19.3396 49.8277 19.3264ZM 49.8412 10.7097C 48.0148 10.7097 46.5266 12.1436 46.5131 13.9064C 46.4995 15.6956 48.0283 17.1953 49.8412 17.1821C 51.6947 17.1689 53.1559 15.7219 53.1559 13.9064C 53.1559 12.1305 51.6947 10.7097 49.8412 10.7097Z" transform="translate(-14537.3 -22137.5)" fill="#B1BABE"></path>
            <path d="M 40.9534 11.8535C 40.9534 12.5376 40.9534 13.1953 40.9534 13.8926C 33.2283 13.8926 25.5032 13.8926 17.751 13.8926C 17.751 13.2348 17.751 12.5639 17.751 11.8535C 25.449 11.8535 33.1606 11.8535 40.9534 11.8535Z" transform="translate(-14537.3 -22137.5)" fill="#B1BABE"></path>
        </g>
    </g>
</svg>