<svg width="78" height="59" viewBox="0 0 78 59" version="1.1" xmlns="http://www.w3.org/2000/svg" xmlns:xlink="http://www.w3.org/1999/xlink">
<title>Group 3.4</title>
<desc>Created using Figma</desc>
<g id="Canvas" transform="translate(14760 21784)">
<g id="Group 3.4">
<g id="Vector 7">
<use xlink:href="#path0_stroke" transform="translate(-14733.1 -21749.4)" fill="#B1BABE"/>
</g>
<g id="Vector 5">
<use xlink:href="#path1_stroke" transform="translate(-14758.6 -21782.3)" fill="#B1BABE"/>
</g>
<g id="Ellipse">
<mask id="mask0_outline_ins">
<use xlink:href="#path2_fill" fill="white" transform="translate(-14744.3 -21775.8)"/>
</mask>
<g mask="url(#mask0_outline_ins)">
<use xlink:href="#path3_stroke_2x" transform="translate(-14744.3 -21775.8)" fill="#B1BABE"/>
</g>
</g>
<g id="Vector 6">
<use xlink:href="#path4_stroke" transform="matrix(-0.987194 -0.159522 -0.182435 0.983218 -14684.1 -21775.5)" fill="#B1BABE"/>
</g>
<g id="Vector 8">
<use xlink:href="#path5_stroke" transform="translate(-14688.5 -21760.2)" fill="#B1BABE"/>
</g>
<g id="Vector 9">
<use xlink:href="#path6_stroke" transform="matrix(0.945489 -0.325655 0.370575 0.928803 -14726.5 -21756.4)" fill="#B1BABE"/>
</g>
</g>
</g>
<defs>
<path id="path0_stroke" d="M 5.10499 13.8448L 4.10796 13.7678L 5.10499 13.8448ZM 4.38384 20.8497L 3.39516 20.6996L 4.38384 20.8497ZM 9.4319 20.5161L 10.4248 20.6354L 10.4258 20.6265L 9.4319 20.5161ZM 28.5424 18.8483L 29.5384 18.938L 28.5424 18.8483ZM 31.9842 22.5175L 32.2095 21.5432L 32.0983 21.5175L 31.9842 21.5175L 31.9842 22.5175ZM 33.7871 19.5154L 34.7813 19.6229L 34.7892 19.5497L 34.7863 19.4762L 33.7871 19.5154ZM 33.5905 14.5119L 32.6081 14.3249L 32.5868 14.4371L 32.5913 14.5512L 33.5905 14.5119ZM -0.736486 0.676453C 0.45253 1.97099 1.78269 3.47062 2.76284 5.52699C 3.73547 7.56759 4.38324 10.2027 4.10796 13.7678L 6.10203 13.9218C 6.40367 10.0151 5.69454 7.02944 4.56824 4.66646C 3.44946 2.31924 1.93866 0.632406 0.736486 -0.676453L -0.736486 0.676453ZM 4.10796 13.7678C 4.02742 14.811 3.78701 18.1177 3.39516 20.6996L 5.37252 20.9997C 5.77773 18.3298 6.02324 14.9421 6.10203 13.9218L 4.10796 13.7678ZM 3.39516 20.6996C 3.31626 21.2195 3.35587 21.9525 3.8475 22.5726C 4.35937 23.2183 5.1804 23.5175 6.18672 23.5175L 6.18672 21.5175C 5.55704 21.5175 5.42244 21.3399 5.41477 21.3302C 5.38686 21.295 5.34303 21.194 5.37252 20.9997L 3.39516 20.6996ZM 6.18672 23.5175C 6.40719 23.5175 6.61775 23.5233 6.82867 23.5296C 7.03414 23.5357 7.24911 23.5425 7.45253 23.5425C 7.84525 23.5425 8.31503 23.5202 8.76007 23.3548C 9.25275 23.1716 9.65553 22.8375 9.94008 22.3342C 10.2031 21.869 10.3456 21.2943 10.4248 20.6354L 8.43904 20.3969C 8.37395 20.9388 8.27551 21.2147 8.19909 21.3499C 8.14416 21.447 8.10893 21.4631 8.0632 21.4801C 7.96984 21.5148 7.80083 21.5425 7.45253 21.5425C 7.28543 21.5425 7.10433 21.5369 6.88794 21.5305C 6.677 21.5242 6.43992 21.5175 6.18672 21.5175L 6.18672 23.5175ZM 10.4258 20.6265L 11.7542 8.66439L 9.76645 8.44363L 8.43801 20.4057L 10.4258 20.6265ZM 26.4953 9.76933C 26.9681 11.5186 27.8186 15.7376 27.5465 18.7586L 29.5384 18.938C 29.8432 15.5545 28.9149 11.0563 28.4261 9.24756L 26.4953 9.76933ZM 27.5465 18.7586C 27.5019 19.2532 27.4815 20.3187 27.7906 21.3055C 27.9471 21.8051 28.2097 22.3551 28.6637 22.7887C 29.1412 23.2448 29.7752 23.5175 30.5419 23.5175L 30.5419 21.5175C 30.2844 21.5175 30.1467 21.4395 30.0451 21.3424C 29.9199 21.2229 29.7962 21.0174 29.6991 20.7077C 29.5012 20.0757 29.5052 19.3065 29.5384 18.938L 27.5465 18.7586ZM 30.5419 23.5175L 31.9842 23.5175L 31.9842 21.5175L 30.5419 21.5175L 30.5419 23.5175ZM 31.7589 23.4918C 32.4477 23.6511 33.19 23.3503 33.7299 22.6943C 34.2576 22.053 34.6264 21.0561 34.7813 19.6229L 32.7929 19.4079C 32.6593 20.6433 32.367 21.203 32.1856 21.4234C 32.0163 21.6291 32.0014 21.4951 32.2095 21.5432L 31.7589 23.4918ZM 34.7863 19.4762L 34.5897 14.4727L 32.5913 14.5512L 32.7878 19.5547L 34.7863 19.4762ZM 34.5728 14.699C 34.6516 14.2852 34.7177 13.6632 34.7961 13.0491C 34.8787 12.4025 34.9833 11.6836 35.1454 10.9624C 35.48 9.47417 36.0175 8.18238 36.8955 7.47171L 35.6372 5.91717C 34.2074 7.07447 33.5493 8.94395 33.1941 10.5237C 33.0114 11.3365 32.8975 12.1283 32.8122 12.7958C 32.7228 13.4958 32.6717 13.9912 32.6081 14.3249L 34.5728 14.699Z"/>
<path id="path1_stroke" d="M 14.3498 2.55271L 14.8065 3.44237L 14.816 3.43748L 14.8254 3.4324L 14.3498 2.55271ZM 1.99538 12.2224L 1.25692 11.5481L 1.24636 11.5597L 1.23616 11.5715L 1.99538 12.2224ZM 0.401255 14.082L 1.07871 14.8175L 1.12209 14.7776L 1.16047 14.7328L 0.401255 14.082ZM 1.19832 17.0573L 0.542594 17.8123L 0.563062 17.83L 0.584463 17.8467L 1.19832 17.0573ZM 3.58973 18.9168L 2.97588 19.7062L 3.0312 19.7493L 3.09199 19.7842L 3.58973 18.9168ZM 8.3721 18.9168L 8.87592 19.7806L 8.9249 19.7521L 8.97034 19.7181L 8.3721 18.9168ZM 13.1545 17.8011L 13.3082 16.813L 13.2974 16.8113L 13.2866 16.8099L 13.1545 17.8011ZM 29.8928 10.3628L 29.8928 11.3628L 29.9796 11.3628L 30.0651 11.3479L 29.8928 10.3628ZM 13.7259 2.88371L 14.2051 3.76142L 13.7259 2.88371ZM 5.58239 3.29637L 6.40487 2.72758L 6.31177 2.59296L 6.1806 2.49504L 5.58239 3.29637ZM 9.5677 5.46254L 10.1353 6.28582L 9.5677 5.46254ZM 25.8561 3.74621C 23.6665 1.29423 19.1348 -1.17078 13.8743 1.67302L 14.8254 3.4324C 19.009 1.17078 22.5685 3.06736 24.3643 5.07834L 25.8561 3.74621ZM 1.23616 11.5715L -0.35796 13.4311L 1.16047 14.7328L 2.75459 12.8732L 1.23616 11.5715ZM -0.276203 13.3464C -0.711053 13.7469 -1.07141 14.4303 -0.988015 15.2862C -0.905135 16.1369 -0.402439 16.9915 0.542594 17.8123L 1.85404 16.3023C 1.14463 15.6861 1.01933 15.2644 1.00256 15.0923C 0.986305 14.9255 1.05464 14.8397 1.07871 14.8175L -0.276203 13.3464ZM 0.584463 17.8467L 2.97588 19.7062L 4.20359 18.1274L 1.81217 16.2678L 0.584463 17.8467ZM 3.09199 19.7842C 3.40737 19.9651 4.13492 20.4497 5.13338 20.6191C 6.17464 20.7958 7.42165 20.6289 8.87592 19.7806L 7.86828 18.053C 6.77196 18.6925 5.99604 18.7369 5.46789 18.6473C 4.89694 18.5504 4.50861 18.2912 4.08748 18.0495L 3.09199 19.7842ZM 8.97034 19.7181C 9.4756 19.3409 11.1057 18.5368 13.0223 18.7923L 13.2866 16.8099C 10.7397 16.4703 8.59704 17.5009 7.77386 18.1155L 8.97034 19.7181ZM 13.0008 18.7892C 14.6795 19.0503 17.27 19.1539 19.6074 18.5869C 21.9275 18.0241 24.2948 16.7095 24.8926 13.9196L 22.937 13.5005C 22.5785 15.1735 21.1598 16.1524 19.1359 16.6433C 17.1293 17.1301 14.8178 17.0478 13.3082 16.813L 13.0008 18.7892ZM 23.9035 6.82186C 25.1693 6.29027 27.1813 5.65551 29.0724 5.47264C 30.0175 5.38126 30.88 5.40819 31.5839 5.5836C 32.2797 5.757 32.7628 6.05891 33.0644 6.48114L 34.6918 5.31857C 34.0369 4.40192 33.0786 3.89491 32.0674 3.64294C 31.0643 3.39297 29.9541 3.37806 28.8799 3.48193C 26.7325 3.68958 24.5201 4.3937 23.1291 4.97786L 23.9035 6.82186ZM 33.0644 6.48114C 33.4243 6.98489 33.4242 7.28674 33.3865 7.45137C 33.341 7.65043 33.1798 7.90825 32.7961 8.19889C 32.0119 8.79281 30.7204 9.20281 29.7204 9.37778L 30.0651 11.3479C 31.1907 11.1509 32.8482 10.6683 34.0036 9.79318C 34.5897 9.34929 35.1459 8.72846 35.3361 7.89779C 35.5342 7.03268 35.2884 6.15371 34.6918 5.31857L 33.0644 6.48114ZM 29.8928 9.36282C 29.205 9.36282 27.2838 9.15785 25.5331 8.34089L 24.6873 10.1533C 26.7621 11.1215 28.9862 11.3628 29.8928 11.3628L 29.8928 9.36282ZM 13.8932 1.66305C 13.6944 1.76512 13.4781 1.8797 13.2467 2.00599L 14.2051 3.76142C 14.423 3.64246 14.6242 3.53591 14.8065 3.44237L 13.8932 1.66305ZM 14.3903 2.13628C 13.576 1.41254 12.2142 0.411232 10.7332 -0.260777C 9.31295 -0.905235 7.46376 -1.39037 5.90891 -0.561224L 6.84999 1.20353C 7.52691 0.842554 8.59149 0.963663 9.9068 1.56049C 11.1614 2.12977 12.3569 3.00481 13.0616 3.63114L 14.3903 2.13628ZM 5.90891 -0.561224C 4.64899 0.110642 3.90159 0.996115 3.89494 2.06289C 3.88883 3.04449 4.52457 3.7546 4.98417 4.09771L 6.1806 2.49504C 5.97599 2.34229 5.89437 2.15985 5.8949 2.07534C 5.89504 2.05236 5.89823 1.97453 6.008 1.83403C 6.12754 1.68102 6.37232 1.45826 6.84999 1.20353L 5.90891 -0.561224ZM 13.2467 2.00599C 12.1201 2.62107 10.6155 3.52543 9.00006 4.63926L 10.1353 6.28582C 11.6933 5.21166 13.1387 4.34359 14.2051 3.76142L 13.2467 2.00599ZM 9.00006 4.63926C 6.30222 6.49937 3.62457 8.95516 1.25692 11.5481L 2.73384 12.8967C 5.02791 10.3843 7.59299 8.03871 10.1353 6.28582L 9.00006 4.63926ZM 4.75991 3.86516C 5.30825 4.65809 6.90036 6.05662 9.41283 6.45047L 9.72256 4.47461C 7.77148 4.16875 6.65358 3.08723 6.40487 2.72758L 4.75991 3.86516Z"/>
<path id="path2_fill" d="M 3.98531 1.85957C 3.98531 2.88658 3.09317 3.71913 1.99266 3.71913C 0.892142 3.71913 0 2.88658 0 1.85957C 0 0.832557 0.892142 0 1.99266 0C 3.09317 0 3.98531 0.832557 3.98531 1.85957Z"/>
<path id="path3_stroke_2x" d="M 1.98531 1.85957C 1.98531 1.82319 1.99387 1.78694 2.00709 1.75777C 2.01945 1.73048 2.03236 1.71674 2.03713 1.71228C 2.0458 1.7042 2.03491 1.71913 1.99266 1.71913L 1.99266 5.71913C 4.06528 5.71913 5.98531 4.11911 5.98531 1.85957L 1.98531 1.85957ZM 1.99266 1.71913C 1.9504 1.71913 1.93951 1.7042 1.94818 1.71228C 1.95295 1.71674 1.96586 1.73048 1.97822 1.75777C 1.99144 1.78694 2 1.82319 2 1.85957L -2 1.85957C -2 4.11911 -0.0799663 5.71913 1.99266 5.71913L 1.99266 1.71913ZM 2 1.85957C 2 1.89595 1.99144 1.9322 1.97822 1.96137C 1.96586 1.98865 1.95295 2.0024 1.94818 2.00685C 1.93951 2.01494 1.9504 2 1.99266 2L 1.99266 -2C -0.0799663 -2 -2 -0.399977 -2 1.85957L 2 1.85957ZM 1.99266 2C 2.03491 2 2.0458 2.01494 2.03713 2.00685C 2.03236 2.0024 2.01945 1.98865 2.00709 1.96137C 1.99387 1.9322 1.98531 1.89595 1.98531 1.85957L 5.98531 1.85957C 5.98531 -0.399977 4.06528 -2 1.99266 -2L 1.99266 2Z"/>
<path id="path4_stroke" d="M 30.3472 1.9356L 30.3472 2.9356L 30.566 2.9356L 30.7648 2.84423L 30.3472 1.9356ZM 18.0249 3.00699L 18.7049 3.74022L 18.7682 3.68144L 18.8206 3.61266L 18.0249 3.00699ZM 6.85773 8.00652L 7.0091 8.995L 7.5566 8.91115L 7.77596 8.40257L 6.85773 8.00652ZM 2.23685 17.6485L 3.02374 18.2656L 3.42782 17.7503L 3.11707 17.1739L 2.23685 17.6485ZM 4.16229 28.0047L 5.16229 28.0047L 5.16229 27.2672L 4.45763 27.0494L 4.16229 28.0047ZM 11.8636 35.8612L 12.6726 35.2735L 12.3886 34.8825L 11.9057 34.8621L 11.8636 35.8612ZM 24.571 38.7181L 25.2999 38.0335L 24.7151 37.4108L 24.0087 37.8912L 24.571 38.7181ZM 36.8934 35.8612L 36.8934 34.8612L 36.0949 34.8612L 35.9182 35.6398L 36.8934 35.8612ZM 45.365 30.1474L 45.5765 29.17L 44.5857 28.9556L 44.3848 29.9492L 45.365 30.1474ZM 39.8513 4.5263C 39.9207 4.59063 39.9464 4.639 39.8968 4.56695C 39.8648 4.52036 39.8229 4.4559 39.7604 4.35965C 39.6411 4.17567 39.4737 3.9176 39.2637 3.62647C 38.8452 3.04621 38.2402 2.30949 37.4267 1.66956C 36.609 1.02622 35.5662 0.469795 34.2852 0.281247C 32.9985 0.0918533 31.5448 0.284634 29.9296 1.02697L 30.7648 2.84423C 32.0744 2.24238 33.1379 2.13392 33.994 2.25993C 34.8558 2.38678 35.5812 2.76239 36.1901 3.24145C 36.8034 3.7239 37.2835 4.29992 37.6416 4.79643C 37.82 5.04368 37.9638 5.26502 38.0826 5.44816C 38.1392 5.53546 38.1982 5.6265 38.2492 5.70067C 38.2827 5.74937 38.3738 5.88378 38.4913 5.99275L 39.8513 4.5263ZM 30.3472 0.935604C 30.4606 0.935604 30.5444 0.956195 30.5704 0.962812C 30.6054 0.971701 30.629 0.980233 30.6356 0.982641C 30.6482 0.987278 30.6451 0.986826 30.6164 0.973524C 30.5602 0.947482 30.4768 0.905636 30.3494 0.840954C 30.1055 0.717141 29.7535 0.537041 29.3273 0.340883C 28.4768 -0.0505777 27.3032 -0.519322 25.9706 -0.785872C 23.2752 -1.32502 19.8441 -1.03424 17.2292 2.40133L 18.8206 3.61266C 20.8265 0.977307 23.3641 0.732394 25.5783 1.17528C 26.7006 1.39975 27.7171 1.80145 28.4911 2.15769C 28.8772 2.33538 29.1961 2.49844 29.4441 2.62432C 29.5626 2.68449 29.6804 2.74412 29.7759 2.78835C 29.8231 2.81019 29.8835 2.83707 29.9467 2.86025C 29.9704 2.86896 30.1392 2.9356 30.3472 2.9356L 30.3472 0.935604ZM 17.3449 2.27377C 17.5588 2.07543 17.7888 2.04112 17.863 2.03315C 17.9503 2.02376 18.0079 2.03234 18.0088 2.03246C 18.0121 2.03289 17.975 2.02687 17.8623 1.99528C 17.758 1.96603 17.6339 1.92807 17.4706 1.87871C 17.3126 1.83094 17.1289 1.77594 16.9264 1.71977C 16.1193 1.49582 14.982 1.24302 13.7015 1.29355C 12.4081 1.34459 10.9714 1.70533 9.58992 2.69674C 8.21362 3.68447 6.95696 5.25155 5.9395 7.61047L 7.77596 8.40257C 8.68387 6.29762 9.73765 5.05247 10.756 4.32161C 11.7693 3.59443 12.8115 3.33023 13.7804 3.292C 14.7621 3.25325 15.6705 3.44684 16.3917 3.64695C 16.5713 3.69681 16.7373 3.74643 16.892 3.79317C 17.0414 3.83832 17.193 3.88475 17.3225 3.92106C 17.4437 3.95503 17.5988 3.99574 17.7478 4.01536C 17.8215 4.02506 17.9404 4.03635 18.0768 4.02168C 18.2 4.00844 18.4669 3.96088 18.7049 3.74022L 17.3449 2.27377ZM 6.70636 7.01804C 5.23512 7.24334 3.07883 8.36794 1.6864 10.2233C 0.974327 11.1721 0.442298 12.3379 0.32335 13.6962C 0.204055 15.0584 0.506356 16.546 1.35663 18.123L 3.11707 17.1739C 2.42704 15.8941 2.23485 14.7942 2.31573 13.8707C 2.39694 12.9432 2.75974 12.125 3.28601 11.4238C 4.37026 9.97909 6.0647 9.13962 7.0091 8.995L 6.70636 7.01804ZM 1.44995 17.0314C 0.361786 18.419 -0.91476 20.7104 -0.99592 23.0237C -1.03756 24.2106 -0.763699 25.4336 0.0430547 26.5107C 0.845566 27.5821 2.10524 28.4155 3.86695 28.9601L 4.45763 27.0494C 2.98472 26.594 2.12969 25.9604 1.6438 25.3117C 1.16215 24.6686 0.973911 23.9186 1.00285 23.0938C 1.06285 21.3836 2.05821 19.4968 3.02374 18.2656L 1.44995 17.0314ZM 3.16229 28.0047C 3.16229 28.0047 3.16229 28.005 3.16228 28.0057C 3.16228 28.0063 3.16227 28.0072 3.16225 28.0085C 3.16222 28.0109 3.16216 28.0143 3.16205 28.0186C 3.16184 28.0275 3.16149 28.0389 3.16097 28.0536C 3.15988 28.0843 3.15841 28.1194 3.15651 28.1666C 3.15285 28.2578 3.14835 28.3764 3.14589 28.515C 3.14096 28.7927 3.14415 29.1519 3.17756 29.5642C 3.24401 30.384 3.4318 31.4376 3.93223 32.4948C 4.43742 33.562 5.2567 34.6214 6.55736 35.4321C 7.85272 36.2394 9.56972 36.7654 11.8215 36.8603L 11.9057 34.8621C 9.92163 34.7785 8.55806 34.3224 7.61522 33.7348C 6.67767 33.1504 6.1011 32.402 5.73992 31.639C 4.99304 30.0613 5.16229 28.4645 5.16229 28.0047L 3.16229 28.0047ZM 11.0545 36.4489C 11.2953 36.7805 11.8905 37.3825 12.6882 38.021C 13.5063 38.6759 14.6016 39.4212 15.8786 40.0091C 18.4314 41.1845 21.8481 41.7792 25.1334 39.545L 24.0087 37.8912C 21.5177 39.5853 18.9081 39.2022 16.715 38.1925C 15.619 37.6878 14.6614 37.0387 13.938 36.4596C 13.1942 35.8642 12.7592 35.3927 12.6726 35.2735L 11.0545 36.4489ZM 23.8421 39.4027C 24.1391 39.719 24.563 39.9863 25.0006 40.2058C 25.4561 40.4342 25.9993 40.6466 26.5947 40.8269C 27.7824 41.1866 29.2389 41.4372 30.7131 41.4062C 32.1824 41.3754 33.7365 41.0629 35.0541 40.23C 36.3995 39.3795 37.4266 38.0297 37.8686 36.0826L 35.9182 35.6398C 35.59 37.0853 34.8709 37.9797 33.9854 38.5395C 33.0722 39.1168 31.9108 39.3807 30.6712 39.4067C 29.4366 39.4326 28.1908 39.2206 27.1744 38.9127C 26.6676 38.7592 26.2333 38.5866 25.8972 38.418C 25.5431 38.2404 25.3613 38.0988 25.2999 38.0335L 23.8421 39.4027ZM 36.8934 36.8612C 38.2356 36.8612 40.2833 36.5525 42.1478 35.6111C 44.034 34.6588 45.8056 33.0139 46.3452 30.3456L 44.3848 29.9492C 44.0001 31.852 42.7553 33.064 41.2464 33.8258C 39.7159 34.5985 37.9899 34.8612 36.8934 34.8612L 36.8934 36.8612ZM 45.1535 31.1248C 46.6776 31.4547 49.0055 31.5251 50.9298 30.5079C 51.9157 29.9868 52.7905 29.1807 53.3645 28.0051C 53.9343 26.8381 54.1752 25.3745 54.0159 23.5815L 52.0237 23.7586C 52.1592 25.283 51.9404 26.3635 51.5673 27.1276C 51.1984 27.8831 50.6471 28.3952 49.9952 28.7397C 48.6441 29.4539 46.8497 29.4456 45.5765 29.17L 45.1535 31.1248Z"/>
<path id="path5_stroke" d="M -0.390506 0.9206C 0.238893 1.18758 1.182 1.74206 2.03382 2.50304C 2.89331 3.27087 3.56808 4.16657 3.81643 5.09364L 5.74831 4.57611C 5.35902 3.12293 4.37324 1.91112 3.36627 1.01154C 2.35164 0.105113 1.22239 -0.567727 0.390506 -0.9206L -0.390506 0.9206ZM 3.81643 5.09364C 4.08966 6.11356 4.14291 6.69687 4.10019 7.0206C 4.08134 7.16351 4.04874 7.21218 4.04317 7.22009C 4.04053 7.22384 4.02785 7.2447 3.961 7.27589L 4.80668 9.0883C 5.13837 8.93354 5.44463 8.70381 5.67878 8.37109C 5.90999 8.04253 6.032 7.66883 6.08301 7.28222C 6.18003 6.54691 6.03401 5.64257 5.74831 4.57611L 3.81643 5.09364ZM 3.961 7.27589C 3.98659 7.26395 3.96505 7.29365 3.82478 7.25184C 3.67371 7.2068 3.46129 7.09891 3.19227 6.90292C 2.65412 6.51084 2.07571 5.9057 1.55628 5.29978L 0.0378478 6.60146C 0.581166 7.23524 1.28205 7.98572 2.01456 8.5194C 2.38087 8.78627 2.80162 9.0338 3.2534 9.16848C 3.716 9.30639 4.267 9.34012 4.80668 9.0883L 3.961 7.27589Z"/>
<path id="path6_stroke" d="M 6.82595 3.87366L 7.10538 4.83383L 6.82595 2.87366L 6.82595 3.87366ZM 12.7099 9.67283L 13.6949 9.50033L 13.5267 8.53976L 12.5622 8.6838L 12.7099 9.67283ZM 22.1044 9.23056L 22.6894 8.41956L 21.4916 7.55545L 21.1341 8.98851L 22.1044 9.23056ZM -0.987028 0.16055C -0.807787 1.26249 -0.19773 2.81758 1.10765 3.91746C 2.47206 5.06709 4.45961 5.6038 7.10538 4.83383L 6.54652 2.91349C 4.45963 3.52082 3.18589 3.05325 2.39634 2.388C 1.54775 1.67299 1.11116 0.602608 0.987028 -0.16055L -0.987028 0.16055ZM 6.82595 2.87366C 6.21091 2.87366 5.78272 3.25972 5.5491 3.5539C 5.29537 3.87339 5.11272 4.27232 4.99345 4.68154C 4.75421 5.50237 4.71291 6.56259 5.06922 7.5862C 5.43564 8.63881 6.21398 9.62075 7.53732 10.2219C 8.83434 10.8111 10.5797 11.002 12.8576 10.6619L 12.5622 8.6838C 10.5169 8.98923 9.19462 8.77808 8.36451 8.40098C 7.56073 8.03585 7.1525 7.48729 6.95806 6.9287C 6.75352 6.34112 6.77708 5.70944 6.91356 5.24118C 6.98215 5.00585 7.06507 4.86093 7.11528 4.79771C 7.18559 4.70917 7.0997 4.87366 6.82595 4.87366L 6.82595 2.87366ZM 11.7249 9.84533C 11.9267 10.998 12.6503 12.018 13.5489 12.772C 14.4554 13.5327 15.6195 14.0928 16.8445 14.2788C 18.0786 14.4663 19.411 14.2765 20.5705 13.4791C 21.7313 12.6808 22.6059 11.3517 23.0747 9.4726L 21.1341 8.98851C 20.7532 10.5157 20.1036 11.3729 19.4372 11.8311C 18.7696 12.2902 17.972 12.4271 17.1448 12.3015C 16.3085 12.1745 15.4802 11.7818 14.8345 11.24C 14.181 10.6915 13.7928 10.0593 13.6949 9.50033L 11.7249 9.84533ZM 21.5193 10.0416C 22.3635 10.6505 23.4891 10.9999 24.6107 11.1032C 25.739 11.2072 26.9647 11.072 28.0316 10.606C 29.1122 10.134 30.0661 9.30086 30.4987 8.02386C 30.9259 6.7628 30.7869 5.23831 30.0451 3.48415L 28.203 4.26317C 28.8264 5.73706 28.8236 6.73503 28.6044 7.38218C 28.3906 8.01338 27.9156 8.4742 27.231 8.77322C 26.5327 9.07825 25.6571 9.19118 24.7942 9.11167C 23.9248 9.03156 23.1695 8.76586 22.6894 8.41956L 21.5193 10.0416Z"/>
</defs>
</svg>
