<svg width="66" height="62" viewBox="0 0 66 62" version="1.1" xmlns="http://www.w3.org/2000/svg" xmlns:xlink="http://www.w3.org/1999/xlink">
<title>Group</title>
<desc>Created using Figma</desc>
<g id="Canvas" transform="translate(15227 21786)">
<g id="Group">
<g id="Group">
<g id="Vector">
<mask id="mask0_outline_ins">
<use xlink:href="#path0_fill" fill="white" transform="translate(-15218.1 -21747.1)"/>
</mask>
<g mask="url(#mask0_outline_ins)">
<use xlink:href="#path1_stroke_2x" transform="translate(-15218.1 -21747.1)" fill="#353535"/>
</g>
</g>
<g id="Vector">
<mask id="mask1_outline_ins">
<use xlink:href="#path2_fill" fill="white" transform="translate(-15195.7 -21784.6)"/>
</mask>
<g mask="url(#mask1_outline_ins)">
<use xlink:href="#path3_stroke_2x" transform="translate(-15195.7 -21784.6)" fill="#353535"/>
</g>
</g>
<g id="Vector">
<mask id="mask2_outline_ins">
<use xlink:href="#path4_fill" fill="white" transform="translate(-15227 -21786)"/>
</mask>
<g mask="url(#mask2_outline_ins)">
<use xlink:href="#path5_stroke_2x" transform="translate(-15227 -21786)" fill="#353535"/>
</g>
</g>
</g>
</g>
</g>
<defs>
<path id="path0_fill" d="M 22.5161 6.77494C 21.8739 6.38974 20.9794 6.38974 19.6949 7.65863L 18.0435 8.90485C 13.8462 12.4623 9.51123 16.133 5.26803 19.7357C 4.44232 20.4381 3.63955 20.3928 2.81385 19.6224C 2.03402 18.8747 1.98814 18.0816 2.67623 17.2206C 2.85972 16.994 3.06615 16.7674 3.24964 16.5635C 3.31844 16.4728 3.38725 16.4049 3.479 16.3142C 4.21296 15.4759 4.92398 14.6602 5.65794 13.8218C 8.11212 11.0574 13.3875 4.96225 15.8416 2.12991C 16.1627 1.76737 16.3692 1.22357 16.3233 0.906347C 16.2774 0.657102 15.8875 0.249247 15.5205 0.0679774C 15.4288 0.02266 15.337 6.91487e-07 15.2224 6.91487e-07C 14.9242 6.91487e-07 14.626 0.203927 14.259 0.589124C 12.4929 2.60574 7.99744 7.79458 6.23135 9.78854C 4.53407 11.7372 2.81385 13.6858 1.09363 15.6345C -0.420163 17.3565 -0.351355 19.4638 1.23125 21.0499C 2.05695 21.8883 3.02027 22.3188 4.0524 22.3188C 5.01573 22.3188 5.95611 21.9336 6.80475 21.2085C 7.42403 20.6874 8.04331 20.1662 8.63965 19.6451C 8.9837 19.3278 9.35068 19.0333 9.69472 18.7161L 20.8647 9.24473C 21.8051 8.38371 22.906 7.25077 22.5161 6.77494C 22.539 6.77494 22.539 6.77494 22.5161 6.77494Z"/>
<path id="path1_stroke_2x" d="M 19.6949 7.65863L 20.5985 8.85595L 20.6781 8.79585L 20.7491 8.72573L 19.6949 7.65863ZM 18.0435 8.90485L 17.14 7.70753L 17.1061 7.73311L 17.0737 7.76056L 18.0435 8.90485ZM 5.26803 19.7357L 4.29718 18.5922L 4.2961 18.5932L 5.26803 19.7357ZM 2.81385 19.6224L 1.7757 20.7051L 1.78308 20.7122L 1.79056 20.7192L 2.81385 19.6224ZM 2.67623 17.2206L 1.5105 16.2766L 1.50444 16.2841L 2.67623 17.2206ZM 3.24964 16.5635L 4.3647 17.5668L 4.40653 17.5203L 4.44435 17.4705L 3.24964 16.5635ZM 3.479 16.3142L 4.53318 17.3813L 4.57183 17.3432L 4.60761 17.3023L 3.479 16.3142ZM 5.65794 13.8218L 4.53619 12.8259L 4.52933 12.8337L 5.65794 13.8218ZM 15.8416 2.12991L 14.7188 1.13536L 14.7133 1.14147L 14.708 1.14763L 15.8416 2.12991ZM 16.3233 0.906347L 17.8079 0.691669L 17.8037 0.663164L 17.7985 0.634839L 16.3233 0.906347ZM 14.259 0.589124L 13.173 -0.445544L 13.1513 -0.422779L 13.1306 -0.399124L 14.259 0.589124ZM 6.23135 9.78854L 5.10843 8.79395L 5.10025 8.80334L 6.23135 9.78854ZM 1.09363 15.6345L -0.0308938 14.6418L -0.0329664 14.6441L 1.09363 15.6345ZM 1.23125 21.0499L 2.29997 19.9973L 2.29308 19.9904L 1.23125 21.0499ZM 6.80475 21.2085L 5.8389 20.0608L 5.83037 20.0681L 6.80475 21.2085ZM 8.63965 19.6451L 9.62671 20.7745L 9.64176 20.7614L 9.65646 20.7478L 8.63965 19.6451ZM 9.69472 18.7161L 8.72463 17.572L 8.70084 17.5921L 8.67792 17.6133L 9.69472 18.7161ZM 20.8647 9.24473L 21.8348 10.3888L 21.8566 10.3703L 21.8776 10.351L 20.8647 9.24473ZM 23.2876 5.48858C 22.6716 5.1191 21.8891 4.92559 20.9993 5.13721C 20.1685 5.3348 19.3902 5.85118 18.6407 6.59153L 20.7491 8.72573C 21.2841 8.19719 21.5953 8.07913 21.6934 8.0558C 21.7335 8.04627 21.7386 8.05178 21.7238 8.04916C 21.7122 8.0471 21.7171 8.04486 21.7445 8.06129L 23.2876 5.48858ZM 18.7914 6.4613L 17.14 7.70753L 18.9471 10.1022L 20.5985 8.85595L 18.7914 6.4613ZM 17.0737 7.76056C 12.877 11.3174 8.54106 14.989 4.29718 18.5922L 6.23887 20.8791C 10.4814 17.277 14.8153 13.6072 19.0134 10.0492L 17.0737 7.76056ZM 4.2961 18.5932C 4.18495 18.6877 4.11583 18.7216 4.09066 18.7318C 4.07166 18.7395 4.08403 18.7317 4.1139 18.7331C 4.18148 18.7364 4.09507 18.7663 3.83714 18.5256L 1.79056 20.7192C 2.35833 21.2489 3.08616 21.6866 3.96797 21.7296C 4.86709 21.7734 5.63427 21.3935 6.23996 20.8782L 4.2961 18.5932ZM 3.85199 18.5397C 3.74503 18.4371 3.70269 18.3704 3.68925 18.3452C 3.67885 18.3258 3.68993 18.3402 3.6921 18.378C 3.6973 18.4685 3.64639 18.4093 3.84802 18.157L 1.50444 16.2841C 1.01799 16.8929 0.645963 17.6607 0.697036 18.55C 0.748453 19.4452 1.21112 20.1638 1.7757 20.7051L 3.85199 18.5397ZM 3.84194 18.1646C 3.99495 17.9756 4.16984 17.7834 4.3647 17.5668L 2.13457 15.5602C 1.96246 15.7515 1.72449 16.0124 1.51052 16.2766L 3.84194 18.1646ZM 4.44435 17.4705C 4.44056 17.4755 4.43933 17.4761 4.44868 17.4662C 4.45443 17.4601 4.4632 17.451 4.47755 17.4366C 4.49254 17.4215 4.50925 17.405 4.53318 17.3813L 2.42482 15.2471C 2.34264 15.3283 2.19812 15.4679 2.05493 15.6565L 4.44435 17.4705ZM 4.60761 17.3023C 4.9752 16.8824 5.33696 16.4683 5.69813 16.0549C 6.05945 15.6412 6.42018 15.2283 6.78655 14.8098L 4.52933 12.8337C 4.16174 13.2536 3.79998 13.6677 3.43881 14.0812C 3.07749 14.4948 2.71676 14.9077 2.35039 15.3262L 4.60761 17.3023ZM 6.77967 14.8176C 9.24159 12.0446 14.5253 5.93968 16.9753 3.11219L 14.708 1.14763C 12.2496 3.98481 6.98265 10.0703 4.53622 12.8259L 6.77967 14.8176ZM 16.9645 3.12447C 17.2559 2.79553 17.4752 2.41171 17.6179 2.04534C 17.7465 1.71505 17.8839 1.21732 17.8079 0.691669L 14.8387 1.12102C 14.829 1.05385 14.829 1.00305 14.8302 0.973744C 14.8314 0.94358 14.8344 0.924934 14.8355 0.918986C 14.8373 0.909037 14.8355 0.923021 14.8223 0.956934C 14.8097 0.989214 14.792 1.02609 14.7707 1.06185C 14.7491 1.09799 14.7301 1.1226 14.7188 1.13536L 16.9645 3.12447ZM 17.7985 0.634839C 17.7375 0.303539 17.5935 0.0432902 17.4933 -0.113164C 17.3817 -0.287549 17.2525 -0.44325 17.126 -0.575455C 16.8817 -0.830782 16.555 -1.09407 16.1848 -1.2769L 14.8562 1.41286C 14.8466 1.40812 14.8585 1.41319 14.8861 1.43416C 14.9122 1.45406 14.9382 1.47742 14.9586 1.4988C 14.9812 1.52237 14.9811 1.5267 14.9669 1.50455C 14.9592 1.4925 14.9413 1.4632 14.9207 1.41712C 14.9013 1.37351 14.869 1.29168 14.8481 1.17786L 17.7985 0.634839ZM 16.1848 -1.2769C 15.8847 -1.42517 15.5654 -1.5 15.2224 -1.5L 15.2224 1.5C 15.1785 1.5 15.1151 1.49541 15.0404 1.47804C 14.965 1.46052 14.9023 1.43562 14.8562 1.41286L 16.1848 -1.2769ZM 15.2224 -1.5C 14.2368 -1.5 13.5465 -0.837599 13.173 -0.445544L 15.3451 1.62379C 15.4136 1.55187 15.4668 1.50118 15.5071 1.46613C 15.5478 1.43073 15.5664 1.41902 15.5648 1.42002C 15.5627 1.42134 15.5306 1.44142 15.4708 1.4613C 15.4079 1.48223 15.3228 1.5 15.2224 1.5L 15.2224 -1.5ZM 13.1306 -0.399124C 11.3506 1.63343 6.87306 6.80172 5.10847 8.79399L 7.35423 10.7831C 9.12182 8.78744 13.6353 3.57806 15.3875 1.57737L 13.1306 -0.399124ZM 5.10025 8.80334C 3.40679 10.7476 1.68989 12.6925 -0.0308913 14.6418L 2.21815 16.6272C 3.9378 14.6792 5.66134 12.7268 7.36245 10.7737L 5.10025 8.80334ZM -0.0329664 14.6441C -1.00176 15.7462 -1.53582 17.0614 -1.49815 18.4343C -1.46044 19.8083 -0.854274 21.0834 0.169413 22.1094L 2.29308 19.9904C 1.73416 19.4303 1.51463 18.8587 1.50073 18.352C 1.48679 17.8443 1.67523 17.2448 2.22022 16.6248L -0.0329664 14.6441ZM 0.162544 22.1025C 1.23012 23.1864 2.56479 23.8188 4.0524 23.8188L 4.0524 20.8188C 3.47576 20.8188 2.88378 20.5901 2.29995 19.9973L 0.162544 22.1025ZM 4.0524 23.8188C 5.4368 23.8188 6.7117 23.2609 7.77914 22.3489L 5.83037 20.0681C 5.20053 20.6062 4.59465 20.8188 4.0524 20.8188L 4.0524 23.8188ZM 7.77058 22.3562C 8.3879 21.8367 9.01803 21.3065 9.62671 20.7745L 7.6526 18.5156C 7.0686 19.0259 6.46017 19.538 5.83893 20.0608L 7.77058 22.3562ZM 9.65646 20.7478C 9.80637 20.6096 9.96448 20.4734 10.1455 20.3176C 10.32 20.1675 10.5174 19.9978 10.7115 19.8188L 8.67792 17.6133C 8.528 17.7515 8.36989 17.8877 8.18885 18.0435C 8.01438 18.1936 7.81698 18.3633 7.62285 18.5423L 9.65646 20.7478ZM 10.6648 19.8601L 21.8348 10.3888L 19.8946 8.10066L 8.72463 17.572L 10.6648 19.8601ZM 21.8776 10.351C 22.3553 9.91365 22.9507 9.33952 23.3812 8.776C 23.5892 8.5037 23.835 8.1373 23.9758 7.72088C 24.1148 7.30981 24.2469 6.52047 23.6763 5.82421L 21.3559 7.72567C 20.9803 7.26732 21.121 6.79804 21.1338 6.76012C 21.1484 6.71687 21.1333 6.77673 20.9973 6.95477C 20.7397 7.29193 20.3144 7.71479 19.8517 8.13842L 21.8776 10.351ZM 22.5161 8.27494C 22.5161 8.27494 22.5162 8.27494 22.5162 8.27494C 22.5163 8.27494 22.5163 8.27494 22.5164 8.27494C 22.5164 8.27494 22.5164 8.27494 22.5165 8.27494C 22.5165 8.27494 22.5166 8.27494 22.5166 8.27494C 22.5167 8.27494 22.5167 8.27494 22.5168 8.27494C 22.5168 8.27494 22.5168 8.27494 22.5169 8.27494C 22.5169 8.27494 22.517 8.27494 22.517 8.27494C 22.5171 8.27494 22.5171 8.27494 22.5171 8.27494C 22.5172 8.27494 22.5172 8.27494 22.5173 8.27494C 22.5173 8.27494 22.5174 8.27494 22.5174 8.27494C 22.5174 8.27494 22.5175 8.27494 22.5175 8.27494C 22.5176 8.27494 22.5176 8.27494 22.5177 8.27494C 22.5177 8.27494 22.5177 8.27494 22.5178 8.27494C 22.5178 8.27494 22.5179 8.27494 22.5179 8.27494C 22.518 8.27494 22.518 8.27494 22.518 8.27494C 22.5181 8.27494 22.5181 8.27494 22.5182 8.27494C 22.5182 8.27494 22.5183 8.27494 22.5183 8.27494C 22.5183 8.27494 22.5184 8.27494 22.5184 8.27494C 22.5185 8.27494 22.5185 8.27494 22.5185 8.27494C 22.5186 8.27494 22.5186 8.27494 22.5187 8.27494C 22.5187 8.27494 22.5188 8.27494 22.5188 8.27494C 22.5188 8.27494 22.5189 8.27494 22.5189 8.27494C 22.519 8.27494 22.519 8.27494 22.519 8.27494C 22.5191 8.27494 22.5191 8.27494 22.5192 8.27494C 22.5192 8.27494 22.5192 8.27494 22.5193 8.27494C 22.5193 8.27494 22.5194 8.27494 22.5194 8.27494C 22.5194 8.27494 22.5195 8.27494 22.5195 8.27494C 22.5196 8.27494 22.5196 8.27494 22.5196 8.27494C 22.5197 8.27494 22.5197 8.27494 22.5198 8.27494C 22.5198 8.27494 22.5198 8.27494 22.5199 8.27494C 22.5199 8.27494 22.52 8.27494 22.52 8.27494C 22.52 8.27494 22.5201 8.27494 22.5201 8.27494C 22.5202 8.27494 22.5202 8.27494 22.5202 8.27494C 22.5203 8.27494 22.5203 8.27494 22.5204 8.27494C 22.5204 8.27494 22.5204 8.27494 22.5205 8.27494C 22.5205 8.27494 22.5205 8.27494 22.5206 8.27494C 22.5206 8.27494 22.5207 8.27494 22.5207 8.27494C 22.5207 8.27494 22.5208 8.27494 22.5208 8.27494C 22.5209 8.27494 22.5209 8.27494 22.5209 8.27494C 22.521 8.27494 22.521 8.27494 22.521 8.27494C 22.5211 8.27494 22.5211 8.27494 22.5212 8.27494C 22.5212 8.27494 22.5212 8.27494 22.5213 8.27494C 22.5213 8.27494 22.5213 8.27494 22.5214 8.27494C 22.5214 8.27494 22.5215 8.27494 22.5215 8.27494C 22.5215 8.27494 22.5216 8.27494 22.5216 8.27494C 22.5216 8.27494 22.5217 8.27494 22.5217 8.27494C 22.5217 8.27494 22.5218 8.27494 22.5218 8.27494C 22.5219 8.27494 22.5219 8.27494 22.5219 8.27494C 22.522 8.27494 22.522 8.27494 22.522 8.27494C 22.5221 8.27494 22.5221 8.27494 22.5222 8.27494C 22.5222 8.27494 22.5222 8.27494 22.5223 8.27494C 22.5223 8.27494 22.5223 8.27494 22.5224 8.27494C 22.5224 8.27494 22.5224 8.27494 22.5225 8.27494C 22.5225 8.27494 22.5225 8.27494 22.5226 8.27494C 22.5226 8.27494 22.5226 8.27494 22.5227 8.27494C 22.5227 8.27494 22.5228 8.27494 22.5228 8.27494C 22.5228 8.27494 22.5229 8.27494 22.5229 8.27494C 22.5229 8.27494 22.523 8.27494 22.523 8.27494C 22.523 8.27494 22.5231 8.27494 22.5231 8.27494C 22.5231 8.27494 22.5232 8.27494 22.5232 8.27494C 22.5232 8.27494 22.5233 8.27494 22.5233 8.27494C 22.5233 8.27494 22.5234 8.27494 22.5234 8.27494C 22.5234 8.27494 22.5235 8.27494 22.5235 8.27494C 22.5235 8.27494 22.5236 8.27494 22.5236 8.27494C 22.5236 8.27494 22.5237 8.27494 22.5237 8.27494C 22.5237 8.27494 22.5238 8.27494 22.5238 8.27494C 22.5238 8.27494 22.5239 8.27494 22.5239 8.27494C 22.5239 8.27494 22.524 8.27494 22.524 8.27494C 22.524 8.27494 22.5241 8.27494 22.5241 8.27494C 22.5241 8.27494 22.5242 8.27494 22.5242 8.27494C 22.5242 8.27494 22.5243 8.27494 22.5243 8.27494C 22.5243 8.27494 22.5244 8.27494 22.5244 8.27494C 22.5244 8.27494 22.5245 8.27494 22.5245 8.27494C 22.5245 8.27494 22.5246 8.27494 22.5246 8.27494C 22.5246 8.27494 22.5247 8.27494 22.5247 8.27494C 22.5247 8.27494 22.5248 8.27494 22.5248 8.27494C 22.5248 8.27494 22.5248 8.27494 22.5249 8.27494C 22.5249 8.27494 22.5249 8.27494 22.525 8.27494C 22.525 8.27494 22.525 8.27494 22.5251 8.27494C 22.5251 8.27494 22.5251 8.27494 22.5252 8.27494C 22.5252 8.27494 22.5252 8.27494 22.5252 8.27494C 22.5253 8.27494 22.5253 8.27494 22.5253 8.27494C 22.5254 8.27494 22.5254 8.27494 22.5254 8.27494C 22.5255 8.27494 22.5255 8.27494 22.5255 8.27494C 22.5256 8.27494 22.5256 8.27494 22.5256 8.27494C 22.5256 8.27494 22.5257 8.27494 22.5257 8.27494C 22.5257 8.27494 22.5258 8.27494 22.5258 8.27494C 22.5258 8.27494 22.5259 8.27494 22.5259 8.27494C 22.5259 8.27494 22.5259 8.27494 22.526 8.27494C 22.526 8.27494 22.526 8.27494 22.5261 8.27494C 22.5261 8.27494 22.5261 8.27494 22.5261 8.27494C 22.5262 8.27494 22.5262 8.27494 22.5262 8.27494C 22.5263 8.27494 22.5263 8.27494 22.5263 8.27494C 22.5263 8.27494 22.5264 8.27494 22.5264 8.27494C 22.5264 8.27494 22.5265 8.27494 22.5265 8.27494C 22.5265 8.27494 22.5265 8.27494 22.5266 8.27494C 22.5266 8.27494 22.5266 8.27494 22.5267 8.27494C 22.5267 8.27494 22.5267 8.27494 22.5267 8.27494C 22.5268 8.27494 22.5268 8.27494 22.5268 8.27494C 22.5268 8.27494 22.5269 8.27494 22.5269 8.27494C 22.5269 8.27494 22.527 8.27494 22.527 8.27494C 22.527 8.27494 22.527 8.27494 22.5271 8.27494C 22.5271 8.27494 22.5271 8.27494 22.5271 8.27494C 22.5272 8.27494 22.5272 8.27494 22.5272 8.27494C 22.5273 8.27494 22.5273 8.27494 22.5273 8.27494C 22.5273 8.27494 22.5274 8.27494 22.5274 8.27494C 22.5274 8.27494 22.5274 8.27494 22.5275 8.27494C 22.5275 8.27494 22.5275 8.27494 22.5275 8.27494C 22.5276 8.27494 22.5276 8.27494 22.5276 8.27494C 22.5276 8.27494 22.5277 8.27494 22.5277 8.27494C 22.5277 8.27494 22.5277 8.27494 22.5278 8.27494C 22.5278 8.27494 22.5278 8.27494 22.5278 8.27494C 22.5279 8.27494 22.5279 8.27494 22.5279 8.27494C 22.5279 8.27494 22.528 8.27494 22.528 8.27494C 22.528 8.27494 22.528 8.27494 22.5281 8.27494C 22.5281 8.27494 22.5281 8.27494 22.5281 8.27494C 22.5282 8.27494 22.5282 8.27494 22.5282 8.27494C 22.5282 8.27494 22.5283 8.27494 22.5283 8.27494C 22.5283 8.27494 22.5283 8.27494 22.5284 8.27494C 22.5284 8.27494 22.5284 8.27494 22.5284 8.27494C 22.5285 8.27494 22.5285 8.27494 22.5285 8.27494C 22.5285 8.27494 22.5286 8.27494 22.5286 8.27494C 22.5286 8.27494 22.5286 8.27494 22.5286 8.27494C 22.5287 8.27494 22.5287 8.27494 22.5287 8.27494C 22.5287 8.27494 22.5288 8.27494 22.5288 8.27494C 22.5288 8.27494 22.5288 8.27494 22.5289 8.27494C 22.5289 8.27494 22.5289 8.27494 22.5289 8.27494C 22.5289 8.27494 22.529 8.27494 22.529 8.27494C 22.529 8.27494 22.529 8.27494 22.5291 8.27494C 22.5291 8.27494 22.5291 8.27494 22.5291 8.27494C 22.5291 8.27494 22.5292 8.27494 22.5292 8.27494C 22.5292 8.27494 22.5292 8.27494 22.5293 8.27494C 22.5293 8.27494 22.5293 8.27494 22.5293 8.27494C 22.5293 8.27494 22.5294 8.27494 22.5294 8.27494C 22.5294 8.27494 22.5294 8.27494 22.5294 8.27494C 22.5295 8.27494 22.5295 8.27494 22.5295 8.27494C 22.5295 8.27494 22.5296 8.27494 22.5296 8.27494C 22.5296 8.27494 22.5296 8.27494 22.5296 8.27494C 22.5297 8.27494 22.5297 8.27494 22.5297 8.27494C 22.5297 8.27494 22.5297 8.27494 22.5298 8.27494C 22.5298 8.27494 22.5298 8.27494 22.5298 8.27494C 22.5298 8.27494 22.5299 8.27494 22.5299 8.27494C 22.5299 8.27494 22.5299 8.27494 22.5299 8.27494C 22.53 8.27494 22.53 8.27494 22.53 8.27494C 22.53 8.27494 22.53 8.27494 22.5301 8.27494C 22.5301 8.27494 22.5301 8.27494 22.5301 8.27494C 22.5301 8.27494 22.5302 8.27494 22.5302 8.27494C 22.5302 8.27494 22.5302 8.27494 22.5302 8.27494C 22.5302 8.27494 22.5303 8.27494 22.5303 8.27494C 22.5303 8.27494 22.5303 8.27494 22.5303 8.27494C 22.5304 8.27494 22.5304 8.27494 22.5304 8.27494C 22.5304 8.27494 22.5304 8.27494 22.5304 8.27494C 22.5305 8.27494 22.5305 8.27494 22.5305 8.27494C 22.5305 8.27494 22.5305 8.27494 22.5306 8.27494C 22.5306 8.27494 22.5306 8.27494 22.5306 8.27494C 22.5306 8.27494 22.5306 8.27494 22.5307 8.27494C 22.5307 8.27494 22.5307 8.27494 22.5307 8.27494C 22.5307 8.27494 22.5308 8.27494 22.5308 8.27494C 22.5308 8.27494 22.5308 8.27494 22.5308 8.27494C 22.5308 8.27494 22.5309 8.27494 22.5309 8.27494C 22.5309 8.27494 22.5309 8.27494 22.5309 8.27494C 22.5309 8.27494 22.531 8.27494 22.531 8.27494C 22.531 8.27494 22.531 8.27494 22.531 8.27494C 22.531 8.27494 22.5311 8.27494 22.5311 8.27494C 22.5311 8.27494 22.5311 8.27494 22.5311 8.27494C 22.5311 8.27494 22.5311 8.27494 22.5312 8.27494C 22.5312 8.27494 22.5312 8.27494 22.5312 8.27494C 22.5312 8.27494 22.5312 8.27494 22.5313 8.27494C 22.5313 8.27494 22.5313 8.27494 22.5313 8.27494C 22.5313 8.27494 22.5313 8.27494 22.5313 8.27494C 22.5314 8.27494 22.5314 8.27494 22.5314 8.27494C 22.5314 8.27494 22.5314 8.27494 22.5314 8.27494C 22.5315 8.27494 22.5315 8.27494 22.5315 8.27494C 22.5315 8.27494 22.5315 8.27494 22.5315 8.27494C 22.5315 8.27494 22.5316 8.27494 22.5316 8.27494C 22.5316 8.27494 22.5316 8.27494 22.5316 8.27494C 22.5316 8.27494 22.5316 8.27494 22.5317 8.27494C 22.5317 8.27494 22.5317 8.27494 22.5317 8.27494C 22.5317 8.27494 22.5317 8.27494 22.5317 8.27494C 22.5317 8.27494 22.5318 8.27494 22.5318 8.27494C 22.5318 8.27494 22.5318 8.27494 22.5318 8.27494C 22.5318 8.27494 22.5318 8.27494 22.5319 8.27494C 22.5319 8.27494 22.5319 8.27494 22.5319 8.27494C 22.5319 8.27494 22.5319 8.27494 22.5319 8.27494C 22.5319 8.27494 22.532 8.27494 22.532 8.27494C 22.532 8.27494 22.532 8.27494 22.532 8.27494C 22.532 8.27494 22.532 8.27494 22.532 8.27494C 22.5321 8.27494 22.5321 8.27494 22.5321 8.27494C 22.5321 8.27494 22.5321 8.27494 22.5321 8.27494C 22.5321 8.27494 22.5321 8.27494 22.5321 8.27494C 22.5322 8.27494 22.5322 8.27494 22.5322 8.27494C 22.5322 8.27494 22.5322 8.27494 22.5322 8.27494C 22.5322 8.27494 22.5322 8.27494 22.5322 8.27494C 22.5323 8.27494 22.5323 8.27494 22.5323 8.27494C 22.5323 8.27494 22.5323 8.27494 22.5323 8.27494C 22.5323 8.27494 22.5323 8.27494 22.5323 8.27494C 22.5324 8.27494 22.5324 8.27494 22.5324 8.27494C 22.5324 8.27494 22.5324 8.27494 22.5324 8.27494C 22.5324 8.27494 22.5324 8.27494 22.5324 8.27494C 22.5324 8.27494 22.5325 8.27494 22.5325 8.27494C 22.5325 8.27494 22.5325 8.27494 22.5325 8.27494C 22.5325 8.27494 22.5325 8.27494 22.5325 8.27494C 22.5325 8.27494 22.5325 8.27494 22.5326 8.27494C 22.5326 8.27494 22.5326 8.27494 22.5326 8.27494C 22.5326 8.27494 22.5326 8.27494 22.5326 8.27494C 22.5326 8.27494 22.5326 8.27494 22.5326 8.27494C 22.5326 8.27494 22.5326 8.27494 22.5327 8.27494C 22.5327 8.27494 22.5327 8.27494 22.5327 8.27494C 22.5327 8.27494 22.5327 8.27494 22.5327 8.27494C 22.5327 8.27494 22.5327 8.27494 22.5327 8.27494C 22.5327 8.27494 22.5327 8.27494 22.5328 8.27494C 22.5328 8.27494 22.5328 8.27494 22.5328 8.27494C 22.5328 8.27494 22.5328 8.27494 22.5328 8.27494C 22.5328 8.27494 22.5328 8.27494 22.5328 8.27494C 22.5328 8.27494 22.5328 8.27494 22.5328 8.27494C 22.5329 8.27494 22.5329 8.27494 22.5329 8.27494C 22.5329 8.27494 22.5329 8.27494 22.5329 8.27494C 22.5329 8.27494 22.5329 8.27494 22.5329 8.27494C 22.5329 8.27494 22.5329 8.27494 22.5329 8.27494C 22.5329 8.27494 22.5329 8.27494 22.5329 8.27494C 22.533 8.27494 22.533 8.27494 22.533 8.27494C 22.533 8.27494 22.533 8.27494 22.533 8.27494C 22.533 8.27494 22.533 8.27494 22.533 8.27494C 22.533 8.27494 22.533 8.27494 22.533 8.27494C 22.533 8.27494 22.533 8.27494 22.533 8.27494C 22.533 8.27494 22.533 8.27494 22.5331 8.27494C 22.5331 8.27494 22.5331 8.27494 22.5331 8.27494C 22.5331 8.27494 22.5331 8.27494 22.5331 8.27494C 22.5331 8.27494 22.5331 8.27494 22.5331 8.27494C 22.5331 8.27494 22.5331 8.27494 22.5331 8.27494C 22.5331 8.27494 22.5331 8.27494 22.5331 8.27494C 22.5331 8.27494 22.5331 8.27494 22.5331 8.27494C 22.5331 8.27494 22.5331 8.27494 22.5331 8.27494C 22.5332 8.27494 22.5332 8.27494 22.5332 8.27494C 22.5332 8.27494 22.5332 8.27494 22.5332 8.27494C 22.5332 8.27494 22.5332 8.27494 22.5332 8.27494C 22.5332 8.27494 22.5332 8.27494 22.5332 8.27494C 22.5332 8.27494 22.5332 8.27494 22.5332 8.27494C 22.5332 8.27494 22.5332 8.27494 22.5332 8.27494C 22.5332 8.27494 22.5332 8.27494 22.5332 8.27494C 22.5332 8.27494 22.5332 8.27494 22.5332 8.27494C 22.5332 8.27494 22.5332 8.27494 22.5332 8.27494C 22.5332 8.27494 22.5332 8.27494 22.5332 8.27494C 22.5332 8.27494 22.5332 8.27494 22.5333 8.27494C 22.5333 8.27494 22.5333 8.27494 22.5333 8.27494C 22.5333 8.27494 22.5333 8.27494 22.5333 8.27494C 22.5333 8.27494 22.5333 8.27494 22.5333 8.27494C 22.5333 8.27494 22.5333 8.27494 22.5333 8.27494C 22.5333 8.27494 22.5333 8.27494 22.5333 8.27494C 22.5333 8.27494 22.5333 8.27494 22.5333 8.27494L 22.5333 8.27494C 22.5333 8.27494 22.5333 8.27494 22.5333 8.27494C 22.5333 8.27494 22.5333 8.27494 22.5333 8.27494L 22.5333 8.27494C 22.5333 8.27494 22.5333 8.27494 22.5333 6.77494C 22.5333 5.27494 22.5333 5.27494 22.5333 5.27494L 22.5333 5.27494C 22.5333 5.27494 22.5333 5.27494 22.5333 5.27494C 22.5333 5.27494 22.5333 5.27494 22.5333 5.27494L 22.5333 5.27494C 22.5333 5.27494 22.5333 5.27494 22.5333 5.27494C 22.5333 5.27494 22.5333 5.27494 22.5333 5.27494C 22.5333 5.27494 22.5333 5.27494 22.5333 5.27494C 22.5333 5.27494 22.5333 5.27494 22.5333 5.27494C 22.5333 5.27494 22.5333 5.27494 22.5333 5.27494C 22.5333 5.27494 22.5333 5.27494 22.5333 5.27494C 22.5332 5.27494 22.5332 5.27494 22.5332 5.27494C 22.5332 5.27494 22.5332 5.27494 22.5332 5.27494C 22.5332 5.27494 22.5332 5.27494 22.5332 5.27494C 22.5332 5.27494 22.5332 5.27494 22.5332 5.27494C 22.5332 5.27494 22.5332 5.27494 22.5332 5.27494C 22.5332 5.27494 22.5332 5.27494 22.5332 5.27494C 22.5332 5.27494 22.5332 5.27494 22.5332 5.27494C 22.5332 5.27494 22.5332 5.27494 22.5332 5.27494C 22.5332 5.27494 22.5332 5.27494 22.5332 5.27494C 22.5332 5.27494 22.5332 5.27494 22.5332 5.27494C 22.5332 5.27494 22.5332 5.27494 22.5331 5.27494C 22.5331 5.27494 22.5331 5.27494 22.5331 5.27494C 22.5331 5.27494 22.5331 5.27494 22.5331 5.27494C 22.5331 5.27494 22.5331 5.27494 22.5331 5.27494C 22.5331 5.27494 22.5331 5.27494 22.5331 5.27494C 22.5331 5.27494 22.5331 5.27494 22.5331 5.27494C 22.5331 5.27494 22.5331 5.27494 22.5331 5.27494C 22.5331 5.27494 22.5331 5.27494 22.5331 5.27494C 22.533 5.27494 22.533 5.27494 22.533 5.27494C 22.533 5.27494 22.533 5.27494 22.533 5.27494C 22.533 5.27494 22.533 5.27494 22.533 5.27494C 22.533 5.27494 22.533 5.27494 22.533 5.27494C 22.533 5.27494 22.533 5.27494 22.533 5.27494C 22.533 5.27494 22.533 5.27494 22.5329 5.27494C 22.5329 5.27494 22.5329 5.27494 22.5329 5.27494C 22.5329 5.27494 22.5329 5.27494 22.5329 5.27494C 22.5329 5.27494 22.5329 5.27494 22.5329 5.27494C 22.5329 5.27494 22.5329 5.27494 22.5329 5.27494C 22.5329 5.27494 22.5329 5.27494 22.5328 5.27494C 22.5328 5.27494 22.5328 5.27494 22.5328 5.27494C 22.5328 5.27494 22.5328 5.27494 22.5328 5.27494C 22.5328 5.27494 22.5328 5.27494 22.5328 5.27494C 22.5328 5.27494 22.5328 5.27494 22.5328 5.27494C 22.5327 5.27494 22.5327 5.27494 22.5327 5.27494C 22.5327 5.27494 22.5327 5.27494 22.5327 5.27494C 22.5327 5.27494 22.5327 5.27494 22.5327 5.27494C 22.5327 5.27494 22.5327 5.27494 22.5327 5.27494C 22.5326 5.27494 22.5326 5.27494 22.5326 5.27494C 22.5326 5.27494 22.5326 5.27494 22.5326 5.27494C 22.5326 5.27494 22.5326 5.27494 22.5326 5.27494C 22.5326 5.27494 22.5326 5.27494 22.5326 5.27494C 22.5325 5.27494 22.5325 5.27494 22.5325 5.27494C 22.5325 5.27494 22.5325 5.27494 22.5325 5.27494C 22.5325 5.27494 22.5325 5.27494 22.5325 5.27494C 22.5325 5.27494 22.5324 5.27494 22.5324 5.27494C 22.5324 5.27494 22.5324 5.27494 22.5324 5.27494C 22.5324 5.27494 22.5324 5.27494 22.5324 5.27494C 22.5324 5.27494 22.5324 5.27494 22.5323 5.27494C 22.5323 5.27494 22.5323 5.27494 22.5323 5.27494C 22.5323 5.27494 22.5323 5.27494 22.5323 5.27494C 22.5323 5.27494 22.5323 5.27494 22.5322 5.27494C 22.5322 5.27494 22.5322 5.27494 22.5322 5.27494C 22.5322 5.27494 22.5322 5.27494 22.5322 5.27494C 22.5322 5.27494 22.5322 5.27494 22.5321 5.27494C 22.5321 5.27494 22.5321 5.27494 22.5321 5.27494C 22.5321 5.27494 22.5321 5.27494 22.5321 5.27494C 22.5321 5.27494 22.5321 5.27494 22.532 5.27494C 22.532 5.27494 22.532 5.27494 22.532 5.27494C 22.532 5.27494 22.532 5.27494 22.532 5.27494C 22.532 5.27494 22.5319 5.27494 22.5319 5.27494C 22.5319 5.27494 22.5319 5.27494 22.5319 5.27494C 22.5319 5.27494 22.5319 5.27494 22.5319 5.27494C 22.5318 5.27494 22.5318 5.27494 22.5318 5.27494C 22.5318 5.27494 22.5318 5.27494 22.5318 5.27494C 22.5318 5.27494 22.5317 5.27494 22.5317 5.27494C 22.5317 5.27494 22.5317 5.27494 22.5317 5.27494C 22.5317 5.27494 22.5317 5.27494 22.5317 5.27494C 22.5316 5.27494 22.5316 5.27494 22.5316 5.27494C 22.5316 5.27494 22.5316 5.27494 22.5316 5.27494C 22.5316 5.27494 22.5315 5.27494 22.5315 5.27494C 22.5315 5.27494 22.5315 5.27494 22.5315 5.27494C 22.5315 5.27494 22.5315 5.27494 22.5314 5.27494C 22.5314 5.27494 22.5314 5.27494 22.5314 5.27494C 22.5314 5.27494 22.5314 5.27494 22.5313 5.27494C 22.5313 5.27494 22.5313 5.27494 22.5313 5.27494C 22.5313 5.27494 22.5313 5.27494 22.5313 5.27494C 22.5312 5.27494 22.5312 5.27494 22.5312 5.27494C 22.5312 5.27494 22.5312 5.27494 22.5312 5.27494C 22.5311 5.27494 22.5311 5.27494 22.5311 5.27494C 22.5311 5.27494 22.5311 5.27494 22.5311 5.27494C 22.5311 5.27494 22.531 5.27494 22.531 5.27494C 22.531 5.27494 22.531 5.27494 22.531 5.27494C 22.531 5.27494 22.5309 5.27494 22.5309 5.27494C 22.5309 5.27494 22.5309 5.27494 22.5309 5.27494C 22.5309 5.27494 22.5308 5.27494 22.5308 5.27494C 22.5308 5.27494 22.5308 5.27494 22.5308 5.27494C 22.5308 5.27494 22.5307 5.27494 22.5307 5.27494C 22.5307 5.27494 22.5307 5.27494 22.5307 5.27494C 22.5306 5.27494 22.5306 5.27494 22.5306 5.27494C 22.5306 5.27494 22.5306 5.27494 22.5306 5.27494C 22.5305 5.27494 22.5305 5.27494 22.5305 5.27494C 22.5305 5.27494 22.5305 5.27494 22.5304 5.27494C 22.5304 5.27494 22.5304 5.27494 22.5304 5.27494C 22.5304 5.27494 22.5304 5.27494 22.5303 5.27494C 22.5303 5.27494 22.5303 5.27494 22.5303 5.27494C 22.5303 5.27494 22.5302 5.27494 22.5302 5.27494C 22.5302 5.27494 22.5302 5.27494 22.5302 5.27494C 22.5302 5.27494 22.5301 5.27494 22.5301 5.27494C 22.5301 5.27494 22.5301 5.27494 22.5301 5.27494C 22.53 5.27494 22.53 5.27494 22.53 5.27494C 22.53 5.27494 22.53 5.27494 22.5299 5.27494C 22.5299 5.27494 22.5299 5.27494 22.5299 5.27494C 22.5299 5.27494 22.5298 5.27494 22.5298 5.27494C 22.5298 5.27494 22.5298 5.27494 22.5298 5.27494C 22.5297 5.27494 22.5297 5.27494 22.5297 5.27494C 22.5297 5.27494 22.5297 5.27494 22.5296 5.27494C 22.5296 5.27494 22.5296 5.27494 22.5296 5.27494C 22.5296 5.27494 22.5295 5.27494 22.5295 5.27494C 22.5295 5.27494 22.5295 5.27494 22.5294 5.27494C 22.5294 5.27494 22.5294 5.27494 22.5294 5.27494C 22.5294 5.27494 22.5293 5.27494 22.5293 5.27494C 22.5293 5.27494 22.5293 5.27494 22.5293 5.27494C 22.5292 5.27494 22.5292 5.27494 22.5292 5.27494C 22.5292 5.27494 22.5291 5.27494 22.5291 5.27494C 22.5291 5.27494 22.5291 5.27494 22.5291 5.27494C 22.529 5.27494 22.529 5.27494 22.529 5.27494C 22.529 5.27494 22.5289 5.27494 22.5289 5.27494C 22.5289 5.27494 22.5289 5.27494 22.5289 5.27494C 22.5288 5.27494 22.5288 5.27494 22.5288 5.27494C 22.5288 5.27494 22.5287 5.27494 22.5287 5.27494C 22.5287 5.27494 22.5287 5.27494 22.5286 5.27494C 22.5286 5.27494 22.5286 5.27494 22.5286 5.27494C 22.5286 5.27494 22.5285 5.27494 22.5285 5.27494C 22.5285 5.27494 22.5285 5.27494 22.5284 5.27494C 22.5284 5.27494 22.5284 5.27494 22.5284 5.27494C 22.5283 5.27494 22.5283 5.27494 22.5283 5.27494C 22.5283 5.27494 22.5282 5.27494 22.5282 5.27494C 22.5282 5.27494 22.5282 5.27494 22.5281 5.27494C 22.5281 5.27494 22.5281 5.27494 22.5281 5.27494C 22.528 5.27494 22.528 5.27494 22.528 5.27494C 22.528 5.27494 22.5279 5.27494 22.5279 5.27494C 22.5279 5.27494 22.5279 5.27494 22.5278 5.27494C 22.5278 5.27494 22.5278 5.27494 22.5278 5.27494C 22.5277 5.27494 22.5277 5.27494 22.5277 5.27494C 22.5277 5.27494 22.5276 5.27494 22.5276 5.27494C 22.5276 5.27494 22.5276 5.27494 22.5275 5.27494C 22.5275 5.27494 22.5275 5.27494 22.5275 5.27494C 22.5274 5.27494 22.5274 5.27494 22.5274 5.27494C 22.5274 5.27494 22.5273 5.27494 22.5273 5.27494C 22.5273 5.27494 22.5273 5.27494 22.5272 5.27494C 22.5272 5.27494 22.5272 5.27494 22.5271 5.27494C 22.5271 5.27494 22.5271 5.27494 22.5271 5.27494C 22.527 5.27494 22.527 5.27494 22.527 5.27494C 22.527 5.27494 22.5269 5.27494 22.5269 5.27494C 22.5269 5.27494 22.5268 5.27494 22.5268 5.27494C 22.5268 5.27494 22.5268 5.27494 22.5267 5.27494C 22.5267 5.27494 22.5267 5.27494 22.5267 5.27494C 22.5266 5.27494 22.5266 5.27494 22.5266 5.27494C 22.5265 5.27494 22.5265 5.27494 22.5265 5.27494C 22.5265 5.27494 22.5264 5.27494 22.5264 5.27494C 22.5264 5.27494 22.5263 5.27494 22.5263 5.27494C 22.5263 5.27494 22.5263 5.27494 22.5262 5.27494C 22.5262 5.27494 22.5262 5.27494 22.5261 5.27494C 22.5261 5.27494 22.5261 5.27494 22.5261 5.27494C 22.526 5.27494 22.526 5.27494 22.526 5.27494C 22.5259 5.27494 22.5259 5.27494 22.5259 5.27494C 22.5259 5.27494 22.5258 5.27494 22.5258 5.27494C 22.5258 5.27494 22.5257 5.27494 22.5257 5.27494C 22.5257 5.27494 22.5256 5.27494 22.5256 5.27494C 22.5256 5.27494 22.5256 5.27494 22.5255 5.27494C 22.5255 5.27494 22.5255 5.27494 22.5254 5.27494C 22.5254 5.27494 22.5254 5.27494 22.5253 5.27494C 22.5253 5.27494 22.5253 5.27494 22.5252 5.27494C 22.5252 5.27494 22.5252 5.27494 22.5252 5.27494C 22.5251 5.27494 22.5251 5.27494 22.5251 5.27494C 22.525 5.27494 22.525 5.27494 22.525 5.27494C 22.5249 5.27494 22.5249 5.27494 22.5249 5.27494C 22.5248 5.27494 22.5248 5.27494 22.5248 5.27494C 22.5248 5.27494 22.5247 5.27494 22.5247 5.27494C 22.5247 5.27494 22.5246 5.27494 22.5246 5.27494C 22.5246 5.27494 22.5245 5.27494 22.5245 5.27494C 22.5245 5.27494 22.5244 5.27494 22.5244 5.27494C 22.5244 5.27494 22.5243 5.27494 22.5243 5.27494C 22.5243 5.27494 22.5242 5.27494 22.5242 5.27494C 22.5242 5.27494 22.5241 5.27494 22.5241 5.27494C 22.5241 5.27494 22.524 5.27494 22.524 5.27494C 22.524 5.27494 22.5239 5.27494 22.5239 5.27494C 22.5239 5.27494 22.5238 5.27494 22.5238 5.27494C 22.5238 5.27494 22.5237 5.27494 22.5237 5.27494C 22.5237 5.27494 22.5236 5.27494 22.5236 5.27494C 22.5236 5.27494 22.5235 5.27494 22.5235 5.27494C 22.5235 5.27494 22.5234 5.27494 22.5234 5.27494C 22.5234 5.27494 22.5233 5.27494 22.5233 5.27494C 22.5233 5.27494 22.5232 5.27494 22.5232 5.27494C 22.5232 5.27494 22.5231 5.27494 22.5231 5.27494C 22.5231 5.27494 22.523 5.27494 22.523 5.27494C 22.523 5.27494 22.5229 5.27494 22.5229 5.27494C 22.5229 5.27494 22.5228 5.27494 22.5228 5.27494C 22.5228 5.27494 22.5227 5.27494 22.5227 5.27494C 22.5226 5.27494 22.5226 5.27494 22.5226 5.27494C 22.5225 5.27494 22.5225 5.27494 22.5225 5.27494C 22.5224 5.27494 22.5224 5.27494 22.5224 5.27494C 22.5223 5.27494 22.5223 5.27494 22.5223 5.27494C 22.5222 5.27494 22.5222 5.27494 22.5222 5.27494C 22.5221 5.27494 22.5221 5.27494 22.522 5.27494C 22.522 5.27494 22.522 5.27494 22.5219 5.27494C 22.5219 5.27494 22.5219 5.27494 22.5218 5.27494C 22.5218 5.27494 22.5217 5.27494 22.5217 5.27494C 22.5217 5.27494 22.5216 5.27494 22.5216 5.27494C 22.5216 5.27494 22.5215 5.27494 22.5215 5.27494C 22.5215 5.27494 22.5214 5.27494 22.5214 5.27494C 22.5213 5.27494 22.5213 5.27494 22.5213 5.27494C 22.5212 5.27494 22.5212 5.27494 22.5212 5.27494C 22.5211 5.27494 22.5211 5.27494 22.521 5.27494C 22.521 5.27494 22.521 5.27494 22.5209 5.27494C 22.5209 5.27494 22.5209 5.27494 22.5208 5.27494C 22.5208 5.27494 22.5207 5.27494 22.5207 5.27494C 22.5207 5.27494 22.5206 5.27494 22.5206 5.27494C 22.5205 5.27494 22.5205 5.27494 22.5205 5.27494C 22.5204 5.27494 22.5204 5.27494 22.5204 5.27494C 22.5203 5.27494 22.5203 5.27494 22.5202 5.27494C 22.5202 5.27494 22.5202 5.27494 22.5201 5.27494C 22.5201 5.27494 22.52 5.27494 22.52 5.27494C 22.52 5.27494 22.5199 5.27494 22.5199 5.27494C 22.5198 5.27494 22.5198 5.27494 22.5198 5.27494C 22.5197 5.27494 22.5197 5.27494 22.5196 5.27494C 22.5196 5.27494 22.5196 5.27494 22.5195 5.27494C 22.5195 5.27494 22.5194 5.27494 22.5194 5.27494C 22.5194 5.27494 22.5193 5.27494 22.5193 5.27494C 22.5192 5.27494 22.5192 5.27494 22.5192 5.27494C 22.5191 5.27494 22.5191 5.27494 22.519 5.27494C 22.519 5.27494 22.519 5.27494 22.5189 5.27494C 22.5189 5.27494 22.5188 5.27494 22.5188 5.27494C 22.5188 5.27494 22.5187 5.27494 22.5187 5.27494C 22.5186 5.27494 22.5186 5.27494 22.5185 5.27494C 22.5185 5.27494 22.5185 5.27494 22.5184 5.27494C 22.5184 5.27494 22.5183 5.27494 22.5183 5.27494C 22.5183 5.27494 22.5182 5.27494 22.5182 5.27494C 22.5181 5.27494 22.5181 5.27494 22.518 5.27494C 22.518 5.27494 22.518 5.27494 22.5179 5.27494C 22.5179 5.27494 22.5178 5.27494 22.5178 5.27494C 22.5177 5.27494 22.5177 5.27494 22.5177 5.27494C 22.5176 5.27494 22.5176 5.27494 22.5175 5.27494C 22.5175 5.27494 22.5174 5.27494 22.5174 5.27494C 22.5174 5.27494 22.5173 5.27494 22.5173 5.27494C 22.5172 5.27494 22.5172 5.27494 22.5171 5.27494C 22.5171 5.27494 22.5171 5.27494 22.517 5.27494C 22.517 5.27494 22.5169 5.27494 22.5169 5.27494C 22.5168 5.27494 22.5168 5.27494 22.5168 5.27494C 22.5167 5.27494 22.5167 5.27494 22.5166 5.27494C 22.5166 5.27494 22.5165 5.27494 22.5165 5.27494C 22.5164 5.27494 22.5164 5.27494 22.5164 5.27494C 22.5163 5.27494 22.5163 5.27494 22.5162 5.27494C 22.5162 5.27494 22.5161 5.27494 22.5161 5.27494L 22.5161 8.27494C 22.5161 8.27494 22.5162 8.27494 22.5162 8.27494C 22.5163 8.27494 22.5163 8.27494 22.5164 8.27494C 22.5164 8.27494 22.5164 8.27494 22.5165 8.27494C 22.5165 8.27494 22.5166 8.27494 22.5166 8.27494C 22.5167 8.27494 22.5167 8.27494 22.5168 8.27494C 22.5168 8.27494 22.5168 8.27494 22.5169 8.27494C 22.5169 8.27494 22.517 8.27494 22.517 8.27494C 22.5171 8.27494 22.5171 8.27494 22.5171 8.27494C 22.5172 8.27494 22.5172 8.27494 22.5173 8.27494C 22.5173 8.27494 22.5174 8.27494 22.5174 8.27494C 22.5174 8.27494 22.5175 8.27494 22.5175 8.27494C 22.5176 8.27494 22.5176 8.27494 22.5177 8.27494C 22.5177 8.27494 22.5177 8.27494 22.5178 8.27494C 22.5178 8.27494 22.5179 8.27494 22.5179 8.27494C 22.518 8.27494 22.518 8.27494 22.518 8.27494C 22.5181 8.27494 22.5181 8.27494 22.5182 8.27494C 22.5182 8.27494 22.5183 8.27494 22.5183 8.27494C 22.5183 8.27494 22.5184 8.27494 22.5184 8.27494C 22.5185 8.27494 22.5185 8.27494 22.5185 8.27494C 22.5186 8.27494 22.5186 8.27494 22.5187 8.27494C 22.5187 8.27494 22.5188 8.27494 22.5188 8.27494C 22.5188 8.27494 22.5189 8.27494 22.5189 8.27494C 22.519 8.27494 22.519 8.27494 22.519 8.27494C 22.5191 8.27494 22.5191 8.27494 22.5192 8.27494C 22.5192 8.27494 22.5192 8.27494 22.5193 8.27494C 22.5193 8.27494 22.5194 8.27494 22.5194 8.27494C 22.5194 8.27494 22.5195 8.27494 22.5195 8.27494C 22.5196 8.27494 22.5196 8.27494 22.5196 8.27494C 22.5197 8.27494 22.5197 8.27494 22.5198 8.27494C 22.5198 8.27494 22.5198 8.27494 22.5199 8.27494C 22.5199 8.27494 22.52 8.27494 22.52 8.27494C 22.52 8.27494 22.5201 8.27494 22.5201 8.27494C 22.5202 8.27494 22.5202 8.27494 22.5202 8.27494C 22.5203 8.27494 22.5203 8.27494 22.5204 8.27494C 22.5204 8.27494 22.5204 8.27494 22.5205 8.27494C 22.5205 8.27494 22.5205 8.27494 22.5206 8.27494C 22.5206 8.27494 22.5207 8.27494 22.5207 8.27494C 22.5207 8.27494 22.5208 8.27494 22.5208 8.27494C 22.5209 8.27494 22.5209 8.27494 22.5209 8.27494C 22.521 8.27494 22.521 8.27494 22.521 8.27494C 22.5211 8.27494 22.5211 8.27494 22.5212 8.27494C 22.5212 8.27494 22.5212 8.27494 22.5213 8.27494C 22.5213 8.27494 22.5213 8.27494 22.5214 8.27494C 22.5214 8.27494 22.5215 8.27494 22.5215 8.27494C 22.5215 8.27494 22.5216 8.27494 22.5216 8.27494C 22.5216 8.27494 22.5217 8.27494 22.5217 8.27494C 22.5217 8.27494 22.5218 8.27494 22.5218 8.27494C 22.5219 8.27494 22.5219 8.27494 22.5219 8.27494C 22.522 8.27494 22.522 8.27494 22.522 8.27494C 22.5221 8.27494 22.5221 8.27494 22.5222 8.27494C 22.5222 8.27494 22.5222 8.27494 22.5223 8.27494C 22.5223 8.27494 22.5223 8.27494 22.5224 8.27494C 22.5224 8.27494 22.5224 8.27494 22.5225 8.27494C 22.5225 8.27494 22.5225 8.27494 22.5226 8.27494C 22.5226 8.27494 22.5226 8.27494 22.5227 8.27494C 22.5227 8.27494 22.5228 8.27494 22.5228 8.27494C 22.5228 8.27494 22.5229 8.27494 22.5229 8.27494C 22.5229 8.27494 22.523 8.27494 22.523 8.27494C 22.523 8.27494 22.5231 8.27494 22.5231 8.27494C 22.5231 8.27494 22.5232 8.27494 22.5232 8.27494C 22.5232 8.27494 22.5233 8.27494 22.5233 8.27494C 22.5233 8.27494 22.5234 8.27494 22.5234 8.27494C 22.5234 8.27494 22.5235 8.27494 22.5235 8.27494C 22.5235 8.27494 22.5236 8.27494 22.5236 8.27494C 22.5236 8.27494 22.5237 8.27494 22.5237 8.27494C 22.5237 8.27494 22.5238 8.27494 22.5238 8.27494C 22.5238 8.27494 22.5239 8.27494 22.5239 8.27494C 22.5239 8.27494 22.524 8.27494 22.524 8.27494C 22.524 8.27494 22.5241 8.27494 22.5241 8.27494C 22.5241 8.27494 22.5242 8.27494 22.5242 8.27494C 22.5242 8.27494 22.5243 8.27494 22.5243 8.27494C 22.5243 8.27494 22.5244 8.27494 22.5244 8.27494C 22.5244 8.27494 22.5245 8.27494 22.5245 8.27494C 22.5245 8.27494 22.5246 8.27494 22.5246 8.27494C 22.5246 8.27494 22.5247 8.27494 22.5247 8.27494C 22.5247 8.27494 22.5248 8.27494 22.5248 8.27494C 22.5248 8.27494 22.5248 8.27494 22.5249 8.27494C 22.5249 8.27494 22.5249 8.27494 22.525 8.27494C 22.525 8.27494 22.525 8.27494 22.5251 8.27494C 22.5251 8.27494 22.5251 8.27494 22.5252 8.27494C 22.5252 8.27494 22.5252 8.27494 22.5252 8.27494C 22.5253 8.27494 22.5253 8.27494 22.5253 8.27494C 22.5254 8.27494 22.5254 8.27494 22.5254 8.27494C 22.5255 8.27494 22.5255 8.27494 22.5255 8.27494C 22.5256 8.27494 22.5256 8.27494 22.5256 8.27494C 22.5256 8.27494 22.5257 8.27494 22.5257 8.27494C 22.5257 8.27494 22.5258 8.27494 22.5258 8.27494C 22.5258 8.27494 22.5259 8.27494 22.5259 8.27494C 22.5259 8.27494 22.5259 8.27494 22.526 8.27494C 22.526 8.27494 22.526 8.27494 22.5261 8.27494C 22.5261 8.27494 22.5261 8.27494 22.5261 8.27494C 22.5262 8.27494 22.5262 8.27494 22.5262 8.27494C 22.5263 8.27494 22.5263 8.27494 22.5263 8.27494C 22.5263 8.27494 22.5264 8.27494 22.5264 8.27494C 22.5264 8.27494 22.5265 8.27494 22.5265 8.27494C 22.5265 8.27494 22.5265 8.27494 22.5266 8.27494C 22.5266 8.27494 22.5266 8.27494 22.5267 8.27494C 22.5267 8.27494 22.5267 8.27494 22.5267 8.27494C 22.5268 8.27494 22.5268 8.27494 22.5268 8.27494C 22.5268 8.27494 22.5269 8.27494 22.5269 8.27494C 22.5269 8.27494 22.527 8.27494 22.527 8.27494C 22.527 8.27494 22.527 8.27494 22.5271 8.27494C 22.5271 8.27494 22.5271 8.27494 22.5271 8.27494C 22.5272 8.27494 22.5272 8.27494 22.5272 8.27494C 22.5273 8.27494 22.5273 8.27494 22.5273 8.27494C 22.5273 8.27494 22.5274 8.27494 22.5274 8.27494C 22.5274 8.27494 22.5274 8.27494 22.5275 8.27494C 22.5275 8.27494 22.5275 8.27494 22.5275 8.27494C 22.5276 8.27494 22.5276 8.27494 22.5276 8.27494C 22.5276 8.27494 22.5277 8.27494 22.5277 8.27494C 22.5277 8.27494 22.5277 8.27494 22.5278 8.27494C 22.5278 8.27494 22.5278 8.27494 22.5278 8.27494C 22.5279 8.27494 22.5279 8.27494 22.5279 8.27494C 22.5279 8.27494 22.528 8.27494 22.528 8.27494C 22.528 8.27494 22.528 8.27494 22.5281 8.27494C 22.5281 8.27494 22.5281 8.27494 22.5281 8.27494C 22.5282 8.27494 22.5282 8.27494 22.5282 8.27494C 22.5282 8.27494 22.5283 8.27494 22.5283 8.27494C 22.5283 8.27494 22.5283 8.27494 22.5284 8.27494C 22.5284 8.27494 22.5284 8.27494 22.5284 8.27494C 22.5285 8.27494 22.5285 8.27494 22.5285 8.27494C 22.5285 8.27494 22.5286 8.27494 22.5286 8.27494C 22.5286 8.27494 22.5286 8.27494 22.5286 8.27494C 22.5287 8.27494 22.5287 8.27494 22.5287 8.27494C 22.5287 8.27494 22.5288 8.27494 22.5288 8.27494C 22.5288 8.27494 22.5288 8.27494 22.5289 8.27494C 22.5289 8.27494 22.5289 8.27494 22.5289 8.27494C 22.5289 8.27494 22.529 8.27494 22.529 8.27494C 22.529 8.27494 22.529 8.27494 22.5291 8.27494C 22.5291 8.27494 22.5291 8.27494 22.5291 8.27494C 22.5291 8.27494 22.5292 8.27494 22.5292 8.27494C 22.5292 8.27494 22.5292 8.27494 22.5293 8.27494C 22.5293 8.27494 22.5293 8.27494 22.5293 8.27494C 22.5293 8.27494 22.5294 8.27494 22.5294 8.27494C 22.5294 8.27494 22.5294 8.27494 22.5294 8.27494C 22.5295 8.27494 22.5295 8.27494 22.5295 8.27494C 22.5295 8.27494 22.5296 8.27494 22.5296 8.27494C 22.5296 8.27494 22.5296 8.27494 22.5296 8.27494C 22.5297 8.27494 22.5297 8.27494 22.5297 8.27494C 22.5297 8.27494 22.5297 8.27494 22.5298 8.27494C 22.5298 8.27494 22.5298 8.27494 22.5298 8.27494C 22.5298 8.27494 22.5299 8.27494 22.5299 8.27494C 22.5299 8.27494 22.5299 8.27494 22.5299 8.27494C 22.53 8.27494 22.53 8.27494 22.53 8.27494C 22.53 8.27494 22.53 8.27494 22.5301 8.27494C 22.5301 8.27494 22.5301 8.27494 22.5301 8.27494C 22.5301 8.27494 22.5302 8.27494 22.5302 8.27494C 22.5302 8.27494 22.5302 8.27494 22.5302 8.27494C 22.5302 8.27494 22.5303 8.27494 22.5303 8.27494C 22.5303 8.27494 22.5303 8.27494 22.5303 8.27494C 22.5304 8.27494 22.5304 8.27494 22.5304 8.27494C 22.5304 8.27494 22.5304 8.27494 22.5304 8.27494C 22.5305 8.27494 22.5305 8.27494 22.5305 8.27494C 22.5305 8.27494 22.5305 8.27494 22.5306 8.27494C 22.5306 8.27494 22.5306 8.27494 22.5306 8.27494C 22.5306 8.27494 22.5306 8.27494 22.5307 8.27494C 22.5307 8.27494 22.5307 8.27494 22.5307 8.27494C 22.5307 8.27494 22.5308 8.27494 22.5308 8.27494C 22.5308 8.27494 22.5308 8.27494 22.5308 8.27494C 22.5308 8.27494 22.5309 8.27494 22.5309 8.27494C 22.5309 8.27494 22.5309 8.27494 22.5309 8.27494C 22.5309 8.27494 22.531 8.27494 22.531 8.27494C 22.531 8.27494 22.531 8.27494 22.531 8.27494C 22.531 8.27494 22.5311 8.27494 22.5311 8.27494C 22.5311 8.27494 22.5311 8.27494 22.5311 8.27494C 22.5311 8.27494 22.5311 8.27494 22.5312 8.27494C 22.5312 8.27494 22.5312 8.27494 22.5312 8.27494C 22.5312 8.27494 22.5312 8.27494 22.5313 8.27494C 22.5313 8.27494 22.5313 8.27494 22.5313 8.27494C 22.5313 8.27494 22.5313 8.27494 22.5313 8.27494C 22.5314 8.27494 22.5314 8.27494 22.5314 8.27494C 22.5314 8.27494 22.5314 8.27494 22.5314 8.27494C 22.5315 8.27494 22.5315 8.27494 22.5315 8.27494C 22.5315 8.27494 22.5315 8.27494 22.5315 8.27494C 22.5315 8.27494 22.5316 8.27494 22.5316 8.27494C 22.5316 8.27494 22.5316 8.27494 22.5316 8.27494C 22.5316 8.27494 22.5316 8.27494 22.5317 8.27494C 22.5317 8.27494 22.5317 8.27494 22.5317 8.27494C 22.5317 8.27494 22.5317 8.27494 22.5317 8.27494C 22.5317 8.27494 22.5318 8.27494 22.5318 8.27494C 22.5318 8.27494 22.5318 8.27494 22.5318 8.27494C 22.5318 8.27494 22.5318 8.27494 22.5319 8.27494C 22.5319 8.27494 22.5319 8.27494 22.5319 8.27494C 22.5319 8.27494 22.5319 8.27494 22.5319 8.27494C 22.5319 8.27494 22.532 8.27494 22.532 8.27494C 22.532 8.27494 22.532 8.27494 22.532 8.27494C 22.532 8.27494 22.532 8.27494 22.532 8.27494C 22.5321 8.27494 22.5321 8.27494 22.5321 8.27494C 22.5321 8.27494 22.5321 8.27494 22.5321 8.27494C 22.5321 8.27494 22.5321 8.27494 22.5321 8.27494C 22.5322 8.27494 22.5322 8.27494 22.5322 8.27494C 22.5322 8.27494 22.5322 8.27494 22.5322 8.27494C 22.5322 8.27494 22.5322 8.27494 22.5322 8.27494C 22.5323 8.27494 22.5323 8.27494 22.5323 8.27494C 22.5323 8.27494 22.5323 8.27494 22.5323 8.27494C 22.5323 8.27494 22.5323 8.27494 22.5323 8.27494C 22.5324 8.27494 22.5324 8.27494 22.5324 8.27494C 22.5324 8.27494 22.5324 8.27494 22.5324 8.27494C 22.5324 8.27494 22.5324 8.27494 22.5324 8.27494C 22.5324 8.27494 22.5325 8.27494 22.5325 8.27494C 22.5325 8.27494 22.5325 8.27494 22.5325 8.27494C 22.5325 8.27494 22.5325 8.27494 22.5325 8.27494C 22.5325 8.27494 22.5325 8.27494 22.5326 8.27494C 22.5326 8.27494 22.5326 8.27494 22.5326 8.27494C 22.5326 8.27494 22.5326 8.27494 22.5326 8.27494C 22.5326 8.27494 22.5326 8.27494 22.5326 8.27494C 22.5326 8.27494 22.5326 8.27494 22.5327 8.27494C 22.5327 8.27494 22.5327 8.27494 22.5327 8.27494C 22.5327 8.27494 22.5327 8.27494 22.5327 8.27494C 22.5327 8.27494 22.5327 8.27494 22.5327 8.27494C 22.5327 8.27494 22.5327 8.27494 22.5328 8.27494C 22.5328 8.27494 22.5328 8.27494 22.5328 8.27494C 22.5328 8.27494 22.5328 8.27494 22.5328 8.27494C 22.5328 8.27494 22.5328 8.27494 22.5328 8.27494C 22.5328 8.27494 22.5328 8.27494 22.5328 8.27494C 22.5329 8.27494 22.5329 8.27494 22.5329 8.27494C 22.5329 8.27494 22.5329 8.27494 22.5329 8.27494C 22.5329 8.27494 22.5329 8.27494 22.5329 8.27494C 22.5329 8.27494 22.5329 8.27494 22.5329 8.27494C 22.5329 8.27494 22.5329 8.27494 22.5329 8.27494C 22.533 8.27494 22.533 8.27494 22.533 8.27494C 22.533 8.27494 22.533 8.27494 22.533 8.27494C 22.533 8.27494 22.533 8.27494 22.533 8.27494C 22.533 8.27494 22.533 8.27494 22.533 8.27494C 22.533 8.27494 22.533 8.27494 22.533 8.27494C 22.533 8.27494 22.533 8.27494 22.5331 8.27494C 22.5331 8.27494 22.5331 8.27494 22.5331 8.27494C 22.5331 8.27494 22.5331 8.27494 22.5331 8.27494C 22.5331 8.27494 22.5331 8.27494 22.5331 8.27494C 22.5331 8.27494 22.5331 8.27494 22.5331 8.27494C 22.5331 8.27494 22.5331 8.27494 22.5331 8.27494C 22.5331 8.27494 22.5331 8.27494 22.5331 8.27494C 22.5331 8.27494 22.5331 8.27494 22.5331 8.27494C 22.5332 8.27494 22.5332 8.27494 22.5332 8.27494C 22.5332 8.27494 22.5332 8.27494 22.5332 8.27494C 22.5332 8.27494 22.5332 8.27494 22.5332 8.27494C 22.5332 8.27494 22.5332 8.27494 22.5332 8.27494C 22.5332 8.27494 22.5332 8.27494 22.5332 8.27494C 22.5332 8.27494 22.5332 8.27494 22.5332 8.27494C 22.5332 8.27494 22.5332 8.27494 22.5332 8.27494C 22.5332 8.27494 22.5332 8.27494 22.5332 8.27494C 22.5332 8.27494 22.5332 8.27494 22.5332 8.27494C 22.5332 8.27494 22.5332 8.27494 22.5332 8.27494C 22.5332 8.27494 22.5332 8.27494 22.5333 8.27494C 22.5333 8.27494 22.5333 8.27494 22.5333 8.27494C 22.5333 8.27494 22.5333 8.27494 22.5333 8.27494C 22.5333 8.27494 22.5333 8.27494 22.5333 8.27494C 22.5333 8.27494 22.5333 8.27494 22.5333 8.27494C 22.5333 8.27494 22.5333 8.27494 22.5333 8.27494C 22.5333 8.27494 22.5333 8.27494 22.5333 8.27494L 22.5333 8.27494C 22.5333 8.27494 22.5333 8.27494 22.5333 8.27494C 22.5333 8.27494 22.5333 8.27494 22.5333 8.27494L 22.5333 8.27494C 22.5333 8.27494 22.5333 8.27494 22.5333 6.77494C 22.5333 5.27494 22.5333 5.27494 22.5333 5.27494L 22.5333 5.27494C 22.5333 5.27494 22.5333 5.27494 22.5333 5.27494C 22.5333 5.27494 22.5333 5.27494 22.5333 5.27494L 22.5333 5.27494C 22.5333 5.27494 22.5333 5.27494 22.5333 5.27494C 22.5333 5.27494 22.5333 5.27494 22.5333 5.27494C 22.5333 5.27494 22.5333 5.27494 22.5333 5.27494C 22.5333 5.27494 22.5333 5.27494 22.5333 5.27494C 22.5333 5.27494 22.5333 5.27494 22.5333 5.27494C 22.5333 5.27494 22.5333 5.27494 22.5333 5.27494C 22.5332 5.27494 22.5332 5.27494 22.5332 5.27494C 22.5332 5.27494 22.5332 5.27494 22.5332 5.27494C 22.5332 5.27494 22.5332 5.27494 22.5332 5.27494C 22.5332 5.27494 22.5332 5.27494 22.5332 5.27494C 22.5332 5.27494 22.5332 5.27494 22.5332 5.27494C 22.5332 5.27494 22.5332 5.27494 22.5332 5.27494C 22.5332 5.27494 22.5332 5.27494 22.5332 5.27494C 22.5332 5.27494 22.5332 5.27494 22.5332 5.27494C 22.5332 5.27494 22.5332 5.27494 22.5332 5.27494C 22.5332 5.27494 22.5332 5.27494 22.5332 5.27494C 22.5332 5.27494 22.5332 5.27494 22.5331 5.27494C 22.5331 5.27494 22.5331 5.27494 22.5331 5.27494C 22.5331 5.27494 22.5331 5.27494 22.5331 5.27494C 22.5331 5.27494 22.5331 5.27494 22.5331 5.27494C 22.5331 5.27494 22.5331 5.27494 22.5331 5.27494C 22.5331 5.27494 22.5331 5.27494 22.5331 5.27494C 22.5331 5.27494 22.5331 5.27494 22.5331 5.27494C 22.5331 5.27494 22.5331 5.27494 22.5331 5.27494C 22.533 5.27494 22.533 5.27494 22.533 5.27494C 22.533 5.27494 22.533 5.27494 22.533 5.27494C 22.533 5.27494 22.533 5.27494 22.533 5.27494C 22.533 5.27494 22.533 5.27494 22.533 5.27494C 22.533 5.27494 22.533 5.27494 22.533 5.27494C 22.533 5.27494 22.533 5.27494 22.5329 5.27494C 22.5329 5.27494 22.5329 5.27494 22.5329 5.27494C 22.5329 5.27494 22.5329 5.27494 22.5329 5.27494C 22.5329 5.27494 22.5329 5.27494 22.5329 5.27494C 22.5329 5.27494 22.5329 5.27494 22.5329 5.27494C 22.5329 5.27494 22.5329 5.27494 22.5328 5.27494C 22.5328 5.27494 22.5328 5.27494 22.5328 5.27494C 22.5328 5.27494 22.5328 5.27494 22.5328 5.27494C 22.5328 5.27494 22.5328 5.27494 22.5328 5.27494C 22.5328 5.27494 22.5328 5.27494 22.5328 5.27494C 22.5327 5.27494 22.5327 5.27494 22.5327 5.27494C 22.5327 5.27494 22.5327 5.27494 22.5327 5.27494C 22.5327 5.27494 22.5327 5.27494 22.5327 5.27494C 22.5327 5.27494 22.5327 5.27494 22.5327 5.27494C 22.5326 5.27494 22.5326 5.27494 22.5326 5.27494C 22.5326 5.27494 22.5326 5.27494 22.5326 5.27494C 22.5326 5.27494 22.5326 5.27494 22.5326 5.27494C 22.5326 5.27494 22.5326 5.27494 22.5326 5.27494C 22.5325 5.27494 22.5325 5.27494 22.5325 5.27494C 22.5325 5.27494 22.5325 5.27494 22.5325 5.27494C 22.5325 5.27494 22.5325 5.27494 22.5325 5.27494C 22.5325 5.27494 22.5324 5.27494 22.5324 5.27494C 22.5324 5.27494 22.5324 5.27494 22.5324 5.27494C 22.5324 5.27494 22.5324 5.27494 22.5324 5.27494C 22.5324 5.27494 22.5324 5.27494 22.5323 5.27494C 22.5323 5.27494 22.5323 5.27494 22.5323 5.27494C 22.5323 5.27494 22.5323 5.27494 22.5323 5.27494C 22.5323 5.27494 22.5323 5.27494 22.5322 5.27494C 22.5322 5.27494 22.5322 5.27494 22.5322 5.27494C 22.5322 5.27494 22.5322 5.27494 22.5322 5.27494C 22.5322 5.27494 22.5322 5.27494 22.5321 5.27494C 22.5321 5.27494 22.5321 5.27494 22.5321 5.27494C 22.5321 5.27494 22.5321 5.27494 22.5321 5.27494C 22.5321 5.27494 22.5321 5.27494 22.532 5.27494C 22.532 5.27494 22.532 5.27494 22.532 5.27494C 22.532 5.27494 22.532 5.27494 22.532 5.27494C 22.532 5.27494 22.5319 5.27494 22.5319 5.27494C 22.5319 5.27494 22.5319 5.27494 22.5319 5.27494C 22.5319 5.27494 22.5319 5.27494 22.5319 5.27494C 22.5318 5.27494 22.5318 5.27494 22.5318 5.27494C 22.5318 5.27494 22.5318 5.27494 22.5318 5.27494C 22.5318 5.27494 22.5317 5.27494 22.5317 5.27494C 22.5317 5.27494 22.5317 5.27494 22.5317 5.27494C 22.5317 5.27494 22.5317 5.27494 22.5317 5.27494C 22.5316 5.27494 22.5316 5.27494 22.5316 5.27494C 22.5316 5.27494 22.5316 5.27494 22.5316 5.27494C 22.5316 5.27494 22.5315 5.27494 22.5315 5.27494C 22.5315 5.27494 22.5315 5.27494 22.5315 5.27494C 22.5315 5.27494 22.5315 5.27494 22.5314 5.27494C 22.5314 5.27494 22.5314 5.27494 22.5314 5.27494C 22.5314 5.27494 22.5314 5.27494 22.5313 5.27494C 22.5313 5.27494 22.5313 5.27494 22.5313 5.27494C 22.5313 5.27494 22.5313 5.27494 22.5313 5.27494C 22.5312 5.27494 22.5312 5.27494 22.5312 5.27494C 22.5312 5.27494 22.5312 5.27494 22.5312 5.27494C 22.5311 5.27494 22.5311 5.27494 22.5311 5.27494C 22.5311 5.27494 22.5311 5.27494 22.5311 5.27494C 22.5311 5.27494 22.531 5.27494 22.531 5.27494C 22.531 5.27494 22.531 5.27494 22.531 5.27494C 22.531 5.27494 22.5309 5.27494 22.5309 5.27494C 22.5309 5.27494 22.5309 5.27494 22.5309 5.27494C 22.5309 5.27494 22.5308 5.27494 22.5308 5.27494C 22.5308 5.27494 22.5308 5.27494 22.5308 5.27494C 22.5308 5.27494 22.5307 5.27494 22.5307 5.27494C 22.5307 5.27494 22.5307 5.27494 22.5307 5.27494C 22.5306 5.27494 22.5306 5.27494 22.5306 5.27494C 22.5306 5.27494 22.5306 5.27494 22.5306 5.27494C 22.5305 5.27494 22.5305 5.27494 22.5305 5.27494C 22.5305 5.27494 22.5305 5.27494 22.5304 5.27494C 22.5304 5.27494 22.5304 5.27494 22.5304 5.27494C 22.5304 5.27494 22.5304 5.27494 22.5303 5.27494C 22.5303 5.27494 22.5303 5.27494 22.5303 5.27494C 22.5303 5.27494 22.5302 5.27494 22.5302 5.27494C 22.5302 5.27494 22.5302 5.27494 22.5302 5.27494C 22.5302 5.27494 22.5301 5.27494 22.5301 5.27494C 22.5301 5.27494 22.5301 5.27494 22.5301 5.27494C 22.53 5.27494 22.53 5.27494 22.53 5.27494C 22.53 5.27494 22.53 5.27494 22.5299 5.27494C 22.5299 5.27494 22.5299 5.27494 22.5299 5.27494C 22.5299 5.27494 22.5298 5.27494 22.5298 5.27494C 22.5298 5.27494 22.5298 5.27494 22.5298 5.27494C 22.5297 5.27494 22.5297 5.27494 22.5297 5.27494C 22.5297 5.27494 22.5297 5.27494 22.5296 5.27494C 22.5296 5.27494 22.5296 5.27494 22.5296 5.27494C 22.5296 5.27494 22.5295 5.27494 22.5295 5.27494C 22.5295 5.27494 22.5295 5.27494 22.5294 5.27494C 22.5294 5.27494 22.5294 5.27494 22.5294 5.27494C 22.5294 5.27494 22.5293 5.27494 22.5293 5.27494C 22.5293 5.27494 22.5293 5.27494 22.5293 5.27494C 22.5292 5.27494 22.5292 5.27494 22.5292 5.27494C 22.5292 5.27494 22.5291 5.27494 22.5291 5.27494C 22.5291 5.27494 22.5291 5.27494 22.5291 5.27494C 22.529 5.27494 22.529 5.27494 22.529 5.27494C 22.529 5.27494 22.5289 5.27494 22.5289 5.27494C 22.5289 5.27494 22.5289 5.27494 22.5289 5.27494C 22.5288 5.27494 22.5288 5.27494 22.5288 5.27494C 22.5288 5.27494 22.5287 5.27494 22.5287 5.27494C 22.5287 5.27494 22.5287 5.27494 22.5286 5.27494C 22.5286 5.27494 22.5286 5.27494 22.5286 5.27494C 22.5286 5.27494 22.5285 5.27494 22.5285 5.27494C 22.5285 5.27494 22.5285 5.27494 22.5284 5.27494C 22.5284 5.27494 22.5284 5.27494 22.5284 5.27494C 22.5283 5.27494 22.5283 5.27494 22.5283 5.27494C 22.5283 5.27494 22.5282 5.27494 22.5282 5.27494C 22.5282 5.27494 22.5282 5.27494 22.5281 5.27494C 22.5281 5.27494 22.5281 5.27494 22.5281 5.27494C 22.528 5.27494 22.528 5.27494 22.528 5.27494C 22.528 5.27494 22.5279 5.27494 22.5279 5.27494C 22.5279 5.27494 22.5279 5.27494 22.5278 5.27494C 22.5278 5.27494 22.5278 5.27494 22.5278 5.27494C 22.5277 5.27494 22.5277 5.27494 22.5277 5.27494C 22.5277 5.27494 22.5276 5.27494 22.5276 5.27494C 22.5276 5.27494 22.5276 5.27494 22.5275 5.27494C 22.5275 5.27494 22.5275 5.27494 22.5275 5.27494C 22.5274 5.27494 22.5274 5.27494 22.5274 5.27494C 22.5274 5.27494 22.5273 5.27494 22.5273 5.27494C 22.5273 5.27494 22.5273 5.27494 22.5272 5.27494C 22.5272 5.27494 22.5272 5.27494 22.5271 5.27494C 22.5271 5.27494 22.5271 5.27494 22.5271 5.27494C 22.527 5.27494 22.527 5.27494 22.527 5.27494C 22.527 5.27494 22.5269 5.27494 22.5269 5.27494C 22.5269 5.27494 22.5268 5.27494 22.5268 5.27494C 22.5268 5.27494 22.5268 5.27494 22.5267 5.27494C 22.5267 5.27494 22.5267 5.27494 22.5267 5.27494C 22.5266 5.27494 22.5266 5.27494 22.5266 5.27494C 22.5265 5.27494 22.5265 5.27494 22.5265 5.27494C 22.5265 5.27494 22.5264 5.27494 22.5264 5.27494C 22.5264 5.27494 22.5263 5.27494 22.5263 5.27494C 22.5263 5.27494 22.5263 5.27494 22.5262 5.27494C 22.5262 5.27494 22.5262 5.27494 22.5261 5.27494C 22.5261 5.27494 22.5261 5.27494 22.5261 5.27494C 22.526 5.27494 22.526 5.27494 22.526 5.27494C 22.5259 5.27494 22.5259 5.27494 22.5259 5.27494C 22.5259 5.27494 22.5258 5.27494 22.5258 5.27494C 22.5258 5.27494 22.5257 5.27494 22.5257 5.27494C 22.5257 5.27494 22.5256 5.27494 22.5256 5.27494C 22.5256 5.27494 22.5256 5.27494 22.5255 5.27494C 22.5255 5.27494 22.5255 5.27494 22.5254 5.27494C 22.5254 5.27494 22.5254 5.27494 22.5253 5.27494C 22.5253 5.27494 22.5253 5.27494 22.5252 5.27494C 22.5252 5.27494 22.5252 5.27494 22.5252 5.27494C 22.5251 5.27494 22.5251 5.27494 22.5251 5.27494C 22.525 5.27494 22.525 5.27494 22.525 5.27494C 22.5249 5.27494 22.5249 5.27494 22.5249 5.27494C 22.5248 5.27494 22.5248 5.27494 22.5248 5.27494C 22.5248 5.27494 22.5247 5.27494 22.5247 5.27494C 22.5247 5.27494 22.5246 5.27494 22.5246 5.27494C 22.5246 5.27494 22.5245 5.27494 22.5245 5.27494C 22.5245 5.27494 22.5244 5.27494 22.5244 5.27494C 22.5244 5.27494 22.5243 5.27494 22.5243 5.27494C 22.5243 5.27494 22.5242 5.27494 22.5242 5.27494C 22.5242 5.27494 22.5241 5.27494 22.5241 5.27494C 22.5241 5.27494 22.524 5.27494 22.524 5.27494C 22.524 5.27494 22.5239 5.27494 22.5239 5.27494C 22.5239 5.27494 22.5238 5.27494 22.5238 5.27494C 22.5238 5.27494 22.5237 5.27494 22.5237 5.27494C 22.5237 5.27494 22.5236 5.27494 22.5236 5.27494C 22.5236 5.27494 22.5235 5.27494 22.5235 5.27494C 22.5235 5.27494 22.5234 5.27494 22.5234 5.27494C 22.5234 5.27494 22.5233 5.27494 22.5233 5.27494C 22.5233 5.27494 22.5232 5.27494 22.5232 5.27494C 22.5232 5.27494 22.5231 5.27494 22.5231 5.27494C 22.5231 5.27494 22.523 5.27494 22.523 5.27494C 22.523 5.27494 22.5229 5.27494 22.5229 5.27494C 22.5229 5.27494 22.5228 5.27494 22.5228 5.27494C 22.5228 5.27494 22.5227 5.27494 22.5227 5.27494C 22.5226 5.27494 22.5226 5.27494 22.5226 5.27494C 22.5225 5.27494 22.5225 5.27494 22.5225 5.27494C 22.5224 5.27494 22.5224 5.27494 22.5224 5.27494C 22.5223 5.27494 22.5223 5.27494 22.5223 5.27494C 22.5222 5.27494 22.5222 5.27494 22.5222 5.27494C 22.5221 5.27494 22.5221 5.27494 22.522 5.27494C 22.522 5.27494 22.522 5.27494 22.5219 5.27494C 22.5219 5.27494 22.5219 5.27494 22.5218 5.27494C 22.5218 5.27494 22.5217 5.27494 22.5217 5.27494C 22.5217 5.27494 22.5216 5.27494 22.5216 5.27494C 22.5216 5.27494 22.5215 5.27494 22.5215 5.27494C 22.5215 5.27494 22.5214 5.27494 22.5214 5.27494C 22.5213 5.27494 22.5213 5.27494 22.5213 5.27494C 22.5212 5.27494 22.5212 5.27494 22.5212 5.27494C 22.5211 5.27494 22.5211 5.27494 22.521 5.27494C 22.521 5.27494 22.521 5.27494 22.5209 5.27494C 22.5209 5.27494 22.5209 5.27494 22.5208 5.27494C 22.5208 5.27494 22.5207 5.27494 22.5207 5.27494C 22.5207 5.27494 22.5206 5.27494 22.5206 5.27494C 22.5205 5.27494 22.5205 5.27494 22.5205 5.27494C 22.5204 5.27494 22.5204 5.27494 22.5204 5.27494C 22.5203 5.27494 22.5203 5.27494 22.5202 5.27494C 22.5202 5.27494 22.5202 5.27494 22.5201 5.27494C 22.5201 5.27494 22.52 5.27494 22.52 5.27494C 22.52 5.27494 22.5199 5.27494 22.5199 5.27494C 22.5198 5.27494 22.5198 5.27494 22.5198 5.27494C 22.5197 5.27494 22.5197 5.27494 22.5196 5.27494C 22.5196 5.27494 22.5196 5.27494 22.5195 5.27494C 22.5195 5.27494 22.5194 5.27494 22.5194 5.27494C 22.5194 5.27494 22.5193 5.27494 22.5193 5.27494C 22.5192 5.27494 22.5192 5.27494 22.5192 5.27494C 22.5191 5.27494 22.5191 5.27494 22.519 5.27494C 22.519 5.27494 22.519 5.27494 22.5189 5.27494C 22.5189 5.27494 22.5188 5.27494 22.5188 5.27494C 22.5188 5.27494 22.5187 5.27494 22.5187 5.27494C 22.5186 5.27494 22.5186 5.27494 22.5185 5.27494C 22.5185 5.27494 22.5185 5.27494 22.5184 5.27494C 22.5184 5.27494 22.5183 5.27494 22.5183 5.27494C 22.5183 5.27494 22.5182 5.27494 22.5182 5.27494C 22.5181 5.27494 22.5181 5.27494 22.518 5.27494C 22.518 5.27494 22.518 5.27494 22.5179 5.27494C 22.5179 5.27494 22.5178 5.27494 22.5178 5.27494C 22.5177 5.27494 22.5177 5.27494 22.5177 5.27494C 22.5176 5.27494 22.5176 5.27494 22.5175 5.27494C 22.5175 5.27494 22.5174 5.27494 22.5174 5.27494C 22.5174 5.27494 22.5173 5.27494 22.5173 5.27494C 22.5172 5.27494 22.5172 5.27494 22.5171 5.27494C 22.5171 5.27494 22.5171 5.27494 22.517 5.27494C 22.517 5.27494 22.5169 5.27494 22.5169 5.27494C 22.5168 5.27494 22.5168 5.27494 22.5168 5.27494C 22.5167 5.27494 22.5167 5.27494 22.5166 5.27494C 22.5166 5.27494 22.5165 5.27494 22.5165 5.27494C 22.5164 5.27494 22.5164 5.27494 22.5164 5.27494C 22.5163 5.27494 22.5163 5.27494 22.5162 5.27494C 22.5162 5.27494 22.5161 5.27494 22.5161 5.27494L 22.5161 8.27494Z"/>
<path id="path2_fill" d="M 33.7451 0.838371C 33.6075 0.362539 33.2176 4.3218e-08 32.7818 4.3218e-08C 32.69 4.3218e-08 32.6212 0.0226587 32.5524 0.0453173C 32.1854 0.181269 31.8185 0.453173 31.635 0.747736C 29.8459 3.53475 27.5753 5.23415 24.6165 5.89125C 24.4101 5.93657 24.2036 6.0272 24.0201 6.11784C 23.9284 6.16316 23.8137 6.18581 23.722 6.23113C 21.199 7.16014 19.7081 8.7689 19.2265 11.1481C 19.0659 11.9411 18.6301 12.5302 17.8962 13.074C 11.1529 17.9683 5.48766 22.9759 0.579299 28.4593C -0.292279 29.4109 -0.0170437 29.9094 0.349936 30.272C 0.556362 30.4986 0.762787 30.5892 1.01509 30.5892C 1.24445 30.5892 1.51968 30.4986 1.84079 30.2946L 2.27658 30.0001C 2.32245 29.9774 2.36833 29.9774 2.4142 29.9774C 2.57475 29.9774 2.68943 30.068 2.75824 30.1813L 8.33175 35.6421L 8.10239 35.8913C 8.07945 35.914 8.05652 35.9366 8.03358 35.9593C 7.98771 36.0046 7.9189 36.0726 7.87303 36.1406C 7.46017 36.707 7.46017 37.2055 7.87303 37.636C 8.28588 38.0439 8.92809 38.0439 9.45563 37.636C 9.68499 37.4321 9.93729 37.2282 10.1667 37.0243C 10.2584 36.9336 10.3731 36.843 10.4648 36.775C 15.3961 32.4925 20.1669 27.2357 25.0752 20.7553C 25.9697 19.5771 26.9101 18.852 28.1028 18.4215C 31.1763 17.3339 33.1946 15.204 34.0662 12.0544C 35.0066 8.74624 34.8919 5.16618 33.7451 0.838371ZM 10.1208 33.8294L 4.01974 27.8248L 6.12987 26.0348L 12.2538 32.062L 10.1208 33.8294ZM 14.2264 30.3626L 7.73541 24.0182L 18.9283 14.8641L 23.4926 19.4185L 14.2264 30.3626ZM 31.8643 11.6466C 31.2451 13.7991 29.7771 15.3173 27.3918 16.3596L 27.2542 16.4275C 26.2908 16.8354 25.7633 17.0846 25.2587 17.0846C 24.5247 17.0846 24.0201 16.6088 23.0568 15.6345C 22.9421 15.5212 22.8275 15.4079 22.7357 15.3173C 22.5293 15.0907 22.3458 14.8867 22.1394 14.7508C 20.8091 13.8671 21.0384 12.7115 21.3595 11.7145C 21.9329 9.90184 23.0568 8.74624 24.777 8.17978C 24.9147 8.13446 25.0752 8.06648 25.2128 8.02117C 25.3734 7.97585 25.5339 7.88522 25.7174 7.8399C 28.0569 7.09216 30.0982 6.34443 31.635 4.30515L 32.1625 3.60273L 32.3001 4.46376C 32.6442 7.09216 32.5295 9.40335 31.8643 11.6466Z"/>
<path id="path3_stroke_2x" d="M 33.7451 0.838371L 35.1951 0.454151L 35.1908 0.437839L 35.1861 0.421628L 33.7451 0.838371ZM 32.5524 0.0453173L 32.0833 -1.37942L 32.0571 -1.37082L 32.0313 -1.36126L 32.5524 0.0453173ZM 31.635 0.747736L 32.8973 1.55803L 32.9028 1.54947L 32.9082 1.54083L 31.635 0.747736ZM 24.6165 5.89125L 24.9381 7.35637L 24.9417 7.35558L 24.6165 5.89125ZM 24.0201 6.11784L 23.3558 4.77296L 24.0201 6.11784ZM 23.722 6.23113L 24.2403 7.63874L 24.3149 7.61125L 24.3863 7.57601L 23.722 6.23113ZM 19.2265 11.1481L 20.6966 11.4457L 19.2265 11.1481ZM 17.8962 13.074L 18.7773 14.288L 18.7832 14.2837L 18.7891 14.2793L 17.8962 13.074ZM 0.579299 28.4593L 1.68548 29.4724L 1.69125 29.4661L 1.69694 29.4597L 0.579299 28.4593ZM 0.349936 30.272L 1.45878 29.2618L 1.4322 29.2326L 1.40412 29.2049L 0.349936 30.272ZM 1.84079 30.2946L 2.64495 31.5609L 2.66304 31.5494L 2.6808 31.5374L 1.84079 30.2946ZM 2.27658 30.0001L 1.61228 28.6552L 1.52096 28.7003L 1.43657 28.7573L 2.27658 30.0001ZM 2.75824 30.1813L 1.47618 30.96L 1.57395 31.121L 1.70848 31.2528L 2.75824 30.1813ZM 8.33175 35.6421L 9.43552 36.6578L 10.4199 35.588L 9.38152 34.5706L 8.33175 35.6421ZM 8.10239 35.8913L 9.15657 36.9584L 9.18198 36.9333L 9.20616 36.907L 8.10239 35.8913ZM 8.03358 35.9593L 9.08776 37.0264L 8.03358 35.9593ZM 7.87303 36.1406L 9.08524 37.0241L 9.10122 37.0021L 9.11639 36.9796L 7.87303 36.1406ZM 7.87303 37.636L 6.79039 38.6743L 6.80442 38.6889L 6.81884 38.7031L 7.87303 37.636ZM 9.45563 37.636L 10.3731 38.8227L 10.4138 38.7912L 10.4523 38.757L 9.45563 37.636ZM 10.1667 37.0243L 11.1633 38.1452L 11.1928 38.1191L 11.2208 38.0914L 10.1667 37.0243ZM 10.4648 36.775L 11.3578 37.9802L 11.4045 37.9457L 11.4484 37.9076L 10.4648 36.775ZM 25.0752 20.7553L 23.8805 19.8483L 23.8795 19.8497L 25.0752 20.7553ZM 28.1028 18.4215L 27.6024 17.0074L 27.5935 17.0106L 28.1028 18.4215ZM 34.0662 12.0544L 32.6233 11.6443L 32.6206 11.6543L 34.0662 12.0544ZM 10.1208 33.8294L 9.06861 34.8985L 10.0344 35.849L 11.0778 34.9844L 10.1208 33.8294ZM 4.01974 27.8248L 3.04939 26.681L 1.79782 27.7427L 2.96756 28.8939L 4.01974 27.8248ZM 6.12987 26.0348L 7.18205 24.9657L 6.20496 24.0041L 5.15952 24.8909L 6.12987 26.0348ZM 12.2538 32.062L 13.2109 33.217L 14.4895 32.1577L 13.306 30.9929L 12.2538 32.062ZM 14.2264 30.3626L 13.1779 31.4353L 14.3301 32.5615L 15.3711 31.3319L 14.2264 30.3626ZM 7.73541 24.0182L 6.78578 22.8571L 5.48768 23.9187L 6.68692 25.0909L 7.73541 24.0182ZM 18.9283 14.8641L 19.9878 13.8023L 19.0281 12.8447L 17.9787 13.703L 18.9283 14.8641ZM 23.4926 19.4185L 24.6374 20.3877L 25.5305 19.3329L 24.5521 18.3567L 23.4926 19.4185ZM 31.8643 11.6466L 30.4262 11.2201L 30.4228 11.2318L 31.8643 11.6466ZM 27.3918 16.3596L 26.7912 14.985L 26.759 14.9991L 26.7275 15.0147L 27.3918 16.3596ZM 27.2542 16.4275L 27.839 17.8088L 27.8793 17.7918L 27.9185 17.7724L 27.2542 16.4275ZM 23.0568 15.6345L 24.1235 14.5799L 24.1173 14.5736L 24.111 14.5674L 23.0568 15.6345ZM 22.7357 15.3173L 21.6269 16.3274L 21.6535 16.3566L 21.6815 16.3844L 22.7357 15.3173ZM 22.1394 14.7508L 21.3094 16.0003L 21.3143 16.0035L 22.1394 14.7508ZM 21.3595 11.7145L 22.7873 12.1744L 22.7897 12.1669L 21.3595 11.7145ZM 24.777 8.17978L 24.3079 6.75504L 24.777 8.17978ZM 25.2128 8.02117L 24.8054 6.57757L 24.7743 6.58633L 24.7437 6.59643L 25.2128 8.02117ZM 25.7174 7.8399L 26.0771 9.29614L 26.126 9.28405L 26.1741 9.26869L 25.7174 7.8399ZM 31.635 4.30515L 32.8329 5.20788L 32.8344 5.20594L 31.635 4.30515ZM 32.1625 3.60273L 33.6437 3.366L 33.0859 -0.124508L 30.9631 2.70194L 32.1625 3.60273ZM 32.3001 4.46376L 33.7874 4.26908L 33.7847 4.24801L 33.7813 4.22703L 32.3001 4.46376ZM 35.1861 0.421628C 34.9223 -0.490351 34.0775 -1.5 32.7818 -1.5L 32.7818 1.5C 32.5714 1.5 32.4353 1.41209 32.3796 1.36267C 32.3257 1.31482 32.31 1.27519 32.3042 1.25511L 35.1861 0.421628ZM 32.7818 -1.5C 32.4256 -1.5 32.1529 -1.40237 32.0833 -1.37942L 33.0216 1.47006C 33.0645 1.45593 33.0339 1.46706 32.9919 1.47664C 32.9374 1.48906 32.8649 1.5 32.7818 1.5L 32.7818 -1.5ZM 32.0313 -1.36126C 31.4261 -1.13705 30.7585 -0.682131 30.3618 -0.0453605L 32.9082 1.54083C 32.8914 1.56772 32.8822 1.57587 32.8888 1.56889C 32.8948 1.56265 32.9087 1.54932 32.9314 1.53212C 32.9538 1.51513 32.9796 1.49824 33.0067 1.48327C 33.0339 1.46821 33.0571 1.45799 33.0735 1.4519L 32.0313 -1.36126ZM 30.3727 -0.0625588C 28.7667 2.43933 26.8113 3.86727 24.2913 4.42693L 24.9417 7.35558C 28.3392 6.60103 30.9252 4.63017 32.8973 1.55803L 30.3727 -0.0625588ZM 24.2948 4.42614C 23.9055 4.51163 23.5669 4.66873 23.3558 4.77296L 24.6844 7.46272C 24.7558 7.4275 24.813 7.40155 24.861 7.38258C 24.9097 7.36332 24.9341 7.35725 24.9381 7.35636L 24.2948 4.42614ZM 23.3558 4.77296C 23.3973 4.75247 23.4265 4.74174 23.431 4.74009C 23.4336 4.73914 23.432 4.73984 23.4019 4.74975C 23.3804 4.75683 23.3304 4.77313 23.2777 4.79249C 23.223 4.81255 23.145 4.84311 23.0577 4.88625L 24.3863 7.57601C 24.3448 7.5965 24.3156 7.60723 24.3111 7.60888C 24.3085 7.60983 24.3101 7.60913 24.3402 7.59923C 24.3617 7.59214 24.4117 7.57584 24.4645 7.55648C 24.5191 7.53642 24.5971 7.50586 24.6844 7.46272L 23.3558 4.77296ZM 23.2037 4.82352C 20.2664 5.90509 18.356 7.88837 17.7563 10.8504L 20.6966 11.4457C 21.0603 9.64943 22.1316 8.41519 24.2403 7.63874L 23.2037 4.82352ZM 17.7563 10.8504C 17.6876 11.1897 17.5226 11.484 17.0032 11.8688L 18.7891 14.2793C 19.7377 13.5765 20.4442 12.6926 20.6966 11.4457L 17.7563 10.8504ZM 17.0151 11.8601C 10.2 16.8065 4.45199 21.8839 -0.538345 27.4588L 1.69694 29.4597C 6.52332 24.0679 12.1058 19.1301 18.7773 14.288L 17.0151 11.8601ZM -0.526885 27.4462C -1.07063 28.0399 -1.51646 28.764 -1.49955 29.6163C -1.482 30.5004 -0.974546 31.072 -0.704247 31.3391L 1.40412 29.2049C 1.36147 29.1627 1.38182 29.1743 1.41346 29.2302C 1.45297 29.2999 1.49706 29.4154 1.49986 29.5568C 1.50256 29.6928 1.46518 29.7652 1.47178 29.7517C 1.48215 29.7305 1.53329 29.6385 1.68548 29.4724L -0.526885 27.4462ZM -0.758905 31.2822C -0.301011 31.7848 0.294393 32.0892 1.01509 32.0892L 1.01509 29.0892C 1.0782 29.0892 1.18516 29.1027 1.30108 29.1569C 1.41004 29.2079 1.46105 29.2643 1.45878 29.2618L -0.758905 31.2822ZM 1.01509 32.0892C 1.63066 32.0892 2.18643 31.8521 2.64495 31.5609L 1.03664 29.0284C 0.995512 29.0545 0.963032 29.0724 0.93914 29.0844C 0.915209 29.0963 0.901645 29.1013 0.89816 29.1025C 0.890039 29.1054 0.932238 29.0892 1.01509 29.0892L 1.01509 32.0892ZM 2.6808 31.5374L 3.11659 31.2428L 1.43657 28.7573L 1.00079 29.0519L 2.6808 31.5374ZM 2.94088 31.3449C 2.77891 31.425 2.63111 31.4564 2.52919 31.4689C 2.44547 31.4793 2.37621 31.4774 2.4142 31.4774L 2.4142 28.4774C 2.40623 28.4774 2.01585 28.4558 1.61228 28.6552L 2.94088 31.3449ZM 2.4142 31.4774C 2.1976 31.4774 1.98647 31.4123 1.81014 31.2991C 1.64412 31.1925 1.5391 31.0636 1.47618 30.96L 4.04031 29.4027C 3.77252 28.9618 3.2256 28.4774 2.4142 28.4774L 2.4142 31.4774ZM 1.70848 31.2528L 7.28199 36.7135L 9.38152 34.5706L 3.80801 29.1099L 1.70848 31.2528ZM 7.22798 34.6264L 6.99862 34.8756L 9.20616 36.907L 9.43552 36.6578L 7.22798 34.6264ZM 7.04821 34.8242C 7.03047 34.8417 7.03154 34.8407 7.0138 34.8582C 7.01223 34.8598 6.98097 34.8906 6.9794 34.8922L 9.08776 37.0264C 9.10203 37.0123 9.1079 37.0065 9.12217 36.9924C 9.1272 36.9874 9.15154 36.9634 9.15657 36.9584L 7.04821 34.8242ZM 6.9794 34.8922C 6.95539 34.9159 6.77367 35.0881 6.62966 35.3015L 9.11639 36.9796C 9.09638 37.0093 9.08019 37.0297 9.07182 37.04C 9.06305 37.0507 9.05756 37.0566 9.05708 37.0571C 9.05643 37.0579 9.05815 37.056 9.06355 37.0505C 9.06938 37.0446 9.07569 37.0383 9.08776 37.0264L 6.9794 34.8922ZM 6.66082 35.2571C 6.34112 35.6957 6.06339 36.2668 6.06339 36.9393C 6.06339 37.6495 6.37218 38.2382 6.79039 38.6743L 8.95566 36.5978C 8.95219 36.5942 8.98161 36.6239 9.01153 36.6912C 9.04343 36.763 9.06339 36.8498 9.06339 36.9393C 9.06339 37.1133 8.99208 37.1519 9.08524 37.0241L 6.66082 35.2571ZM 6.81884 38.7031C 7.8767 39.7482 9.38284 39.5883 10.3731 38.8227L 8.53815 36.4493C 8.5058 36.4744 8.52985 36.4419 8.62132 36.4419C 8.66674 36.4419 8.7223 36.4505 8.78097 36.4742C 8.84041 36.4981 8.89025 36.5324 8.92721 36.5689L 6.81884 38.7031ZM 10.4523 38.757C 10.5511 38.6692 10.6575 38.579 10.7805 38.4749C 10.8983 38.3751 11.0328 38.2613 11.1633 38.1452L 9.16997 35.9033C 9.07117 35.9911 8.96483 36.0813 8.84182 36.1854C 8.72399 36.2852 8.58951 36.399 8.45894 36.515L 10.4523 38.757ZM 11.2208 38.0914C 11.225 38.0873 11.2403 38.0729 11.2691 38.0492C 11.2964 38.0267 11.3271 38.003 11.3578 37.9802L 9.57184 35.5698C 9.45939 35.6531 9.27885 35.7928 9.11247 35.9572L 11.2208 38.0914ZM 11.4484 37.9076C 16.4767 33.5407 21.3169 28.2017 26.2709 21.661L 23.8795 19.8497C 19.0168 26.2697 14.3155 31.4443 9.48129 35.6425L 11.4484 37.9076ZM 26.2699 21.6623C 27.0193 20.6753 27.7347 20.1491 28.6121 19.8324L 27.5935 17.0106C 26.0855 17.5549 24.9202 18.4789 23.8805 19.8483L 26.2699 21.6623ZM 28.6032 19.8356C 32.1302 18.5874 34.5074 16.0844 35.5119 12.4545L 32.6206 11.6543C 31.8819 14.3236 30.2223 16.0803 27.6024 17.0074L 28.6032 19.8356ZM 35.5091 12.4646C 36.5434 8.82581 36.3891 4.96021 35.1951 0.454151L 32.2952 1.22259C 33.3947 5.37214 33.4698 8.66668 32.6234 11.6443L 35.5091 12.4646ZM 11.173 32.7603L 5.07191 26.7558L 2.96756 28.8939L 9.06861 34.8985L 11.173 32.7603ZM 4.99008 28.9687L 7.10022 27.1787L 5.15952 24.8909L 3.04939 26.681L 4.99008 28.9687ZM 5.07769 27.1039L 11.2017 33.1311L 13.306 30.9929L 7.18205 24.9657L 5.07769 27.1039ZM 11.2968 30.907L 9.16376 32.6743L 11.0778 34.9844L 13.2109 33.217L 11.2968 30.907ZM 15.2748 29.2899L 8.78389 22.9455L 6.68692 25.0909L 13.1779 31.4353L 15.2748 29.2899ZM 8.68503 25.1793L 19.8779 16.0252L 17.9787 13.703L 6.78578 22.8571L 8.68503 25.1793ZM 17.8688 15.9259L 22.4331 20.4803L 24.5521 18.3567L 19.9878 13.8023L 17.8688 15.9259ZM 22.3478 18.4492L 13.0816 29.3933L 15.3711 31.3319L 24.6374 20.3877L 22.3478 18.4492ZM 30.4228 11.2318C 29.9515 12.87 28.8562 14.0827 26.7912 14.985L 27.9924 17.7341C 30.698 16.5518 32.5386 14.7283 33.3059 12.0613L 30.4228 11.2318ZM 26.7275 15.0147L 26.5898 15.0827L 27.9185 17.7724L 28.0561 17.7044L 26.7275 15.0147ZM 26.6693 15.0462C 26.1507 15.2658 25.8408 15.4027 25.5773 15.4974C 25.3307 15.5859 25.2606 15.5846 25.2587 15.5846L 25.2587 18.5846C 25.7614 18.5846 26.2073 18.4587 26.5915 18.3207C 26.9587 18.1888 27.3943 17.9971 27.839 17.8088L 26.6693 15.0462ZM 25.2587 15.5846C 25.2489 15.5846 25.2467 15.5839 25.2494 15.5844C 25.2522 15.5849 25.2532 15.5854 25.2503 15.5843C 25.244 15.5821 25.2026 15.5662 25.1135 15.5028C 24.9015 15.352 24.6289 15.091 24.1235 14.5799L 21.9902 16.6891C 22.4481 17.1522 22.9094 17.6164 23.3741 17.9471C 23.8984 18.3202 24.5058 18.5846 25.2587 18.5846L 25.2587 15.5846ZM 24.111 14.5674C 24.0537 14.5107 23.9963 14.4541 23.9419 14.4003C 23.8874 14.3465 23.8358 14.2955 23.7899 14.2502L 21.6815 16.3844C 21.7274 16.4297 21.779 16.4806 21.8335 16.5345C 21.888 16.5883 21.9453 16.6449 22.0026 16.7016L 24.111 14.5674ZM 23.8446 14.3071C 23.68 14.1265 23.3616 13.7597 22.9644 13.4981L 21.3143 16.0035C 21.3043 15.9969 21.3235 16.008 21.3834 16.0671C 21.4466 16.1297 21.5147 16.2043 21.6269 16.3274L 23.8446 14.3071ZM 22.9694 13.5013C 22.7805 13.3759 22.7026 13.2784 22.6706 13.229C 22.6411 13.1834 22.6253 13.1401 22.6174 13.0798C 22.5955 12.9128 22.6334 12.6522 22.7873 12.1744L 19.9318 11.2547C 19.7645 11.7739 19.5273 12.5895 19.6429 13.4704C 19.7729 14.46 20.3142 15.3392 21.3094 16.0002L 22.9694 13.5013ZM 22.7897 12.1669C 23.2247 10.7918 24.0057 10.013 25.2462 9.60452L 24.3079 6.75504C 22.108 7.47946 20.6412 9.01191 19.9294 11.2621L 22.7897 12.1669ZM 25.2462 9.60452C 25.3531 9.5693 25.4607 9.52814 25.5277 9.50266C 25.6098 9.47149 25.6513 9.45601 25.682 9.44591L 24.7437 6.59643C 24.6367 6.63164 24.5292 6.67281 24.4622 6.69828C 24.3801 6.72946 24.3386 6.74494 24.3079 6.75504L 25.2462 9.60452ZM 25.6203 9.46476C 25.7211 9.4363 25.8082 9.4047 25.8721 9.38009C 25.9317 9.35718 25.9946 9.33106 26.0241 9.319C 26.1062 9.28543 26.1024 9.2899 26.0771 9.29614L 25.3578 6.38365C 25.149 6.43521 24.9731 6.50766 24.8889 6.54206C 24.8353 6.564 24.8165 6.57186 24.7951 6.5801C 24.778 6.58665 24.7848 6.58338 24.8054 6.57757L 25.6203 9.46476ZM 26.1741 9.26869C 28.5149 8.52054 30.9841 7.66132 32.8329 5.20788L 30.437 3.40242C 29.2124 5.02753 27.599 5.66378 25.2608 6.4111L 26.1741 9.26869ZM 32.8344 5.20594L 33.3619 4.50352L 30.9631 2.70194L 30.4356 3.40435L 32.8344 5.20594ZM 30.6813 3.83946L 30.8189 4.70049L 33.7813 4.22703L 33.6437 3.366L 30.6813 3.83946ZM 30.8128 4.65844C 31.1355 7.12362 31.02 9.2176 30.4262 11.2201L 33.3024 12.073C 34.039 9.58909 34.1528 7.0607 33.7874 4.26908L 30.8128 4.65844Z"/>
<path id="path4_fill" d="M 55.0485 55.9048L 54.9109 56.0408C 54.7962 55.8822 54.6815 55.7462 54.5439 55.6103L 51.5852 52.6646L 51.5622 52.642L 20.4607 24.0694C 20.6442 23.435 20.7588 22.8005 20.7588 22.1434C 20.7588 18.4274 17.7083 15.4138 13.9468 15.4138C 12.8917 15.4138 11.7908 15.8217 11.0339 16.1615L 6.88241 12.0377L 6.5613 11.7204C 5.231 10.4516 4.9787 9.72648 4.93283 9.40926C 4.90989 9.18267 4.9787 9.04672 5.18513 8.84279C 5.20806 8.82013 5.20806 8.82013 5.231 8.79747L 10.2311 2.9742C 10.5751 2.56634 10.5522 1.95456 10.1623 1.56936L 8.78612 0.277818C 8.37327 -0.107379 7.75399 -0.0847202 7.34113 0.300477C 7.29526 0.323136 3.99244 3.56332 1.28597 6.23705C -0.365444 7.89113 -0.434253 10.3836 1.12541 12.9213C 2.0658 14.4621 2.43278 15.1192 2.43278 15.1192C 2.47865 15.2099 2.54746 15.2778 2.61627 15.3458L 7.50169 20.1948C 7.29526 20.8519 7.13471 21.577 7.13471 22.1208C 7.13471 25.8368 10.1852 28.8504 13.9468 28.8504C 14.7037 28.8504 15.4376 28.7371 16.1487 28.4878L 47.2273 57.0604L 50.1172 59.9381C 50.2549 60.074 50.4154 60.21 50.576 60.3233C 50.2319 60.7311 50.2548 61.3202 50.6218 61.7054C 50.8283 61.9094 51.0806 62 51.3558 62C 51.6081 62 51.8833 61.9094 52.0898 61.7054L 54.1311 59.6888L 54.865 58.9637L 54.888 58.9411L 56.4706 57.3776C 56.8834 56.9698 56.8834 56.3353 56.4706 55.9275C 56.1036 55.5196 55.4384 55.5196 55.0485 55.9048ZM 48.6722 55.6103L 48.6493 55.5876L 17.0661 26.5619C 16.8597 26.3806 16.6074 26.29 16.3551 26.29C 16.2175 26.29 16.0569 26.3126 15.9193 26.3806C 15.3 26.6752 14.6119 26.8111 13.9238 26.8111C 11.3091 26.8111 9.17603 24.7039 9.17603 22.1208C 9.17603 21.8942 9.24484 21.3957 9.63476 20.2401C 9.74944 19.8776 9.6577 19.4697 9.38246 19.2205L 4.17593 14.009C 4.01538 13.7371 3.62546 13.08 2.8915 11.8564C 2.27222 10.8594 1.44652 8.97874 2.75389 7.6872C 4.38236 6.07844 6.21726 4.26574 7.43288 3.08749L 3.6484 7.46061C 2.22635 8.97874 2.70801 10.9274 5.11632 13.1933L 10.1164 18.1328C 10.4375 18.4501 10.9651 18.518 11.355 18.2915C 12.2954 17.7703 13.2587 17.4531 13.9468 17.4531C 16.5615 17.4531 18.6946 19.5603 18.6946 22.1434C 18.6946 22.7779 18.557 23.4123 18.3047 23.9788C 18.1212 24.4319 18.2588 24.9304 18.6716 25.2023L 50.1402 54.1374L 53.076 57.0604C 53.2824 57.2643 53.3512 57.4909 53.3742 57.5816L 52.6632 58.284L 52.1127 58.8278C 52.0209 58.8278 51.7916 58.7372 51.5852 58.5332L 48.6722 55.6103Z"/>
<path id="path5_stroke_2x" d="M 54.9109 56.0408L 53.6954 56.9197L 54.7205 58.3374L 55.9651 57.1079L 54.9109 56.0408ZM 54.5439 55.6103L 53.4856 56.6733L 53.4897 56.6774L 54.5439 55.6103ZM 51.5852 52.6646L 52.6435 51.6016L 52.6393 51.5975L 51.5852 52.6646ZM 51.5622 52.642L 52.6164 51.5749L 52.597 51.5558L 52.577 51.5374L 51.5622 52.642ZM 20.4607 24.0694L 19.0197 23.6527L 18.7615 24.5453L 19.4459 25.174L 20.4607 24.0694ZM 11.0339 16.1615L 9.97675 17.2257L 10.708 17.9521L 11.6483 17.5299L 11.0339 16.1615ZM 6.88241 12.0377L 7.93953 10.9735L 7.93659 10.9706L 6.88241 12.0377ZM 6.5613 11.7204L 7.61548 10.6533L 7.60613 10.6441L 7.59661 10.635L 6.5613 11.7204ZM 4.93283 9.40926L 3.44045 9.56032L 3.44368 9.59221L 3.44827 9.62394L 4.93283 9.40926ZM 5.18513 8.84279L 4.13094 7.77569L 5.18513 8.84279ZM 5.231 8.79747L 6.28518 9.86457L 6.32896 9.82133L 6.36904 9.77464L 5.231 8.79747ZM 10.2311 2.9742L 11.3692 3.95141L 11.3777 3.94137L 10.2311 2.9742ZM 10.1623 1.56936L 11.2165 0.502264L 11.2028 0.488756L 11.1888 0.475603L 10.1623 1.56936ZM 8.78612 0.277818L 9.81262 -0.815945L 9.80941 -0.818939L 8.78612 0.277818ZM 7.34113 0.300477L 8.00544 1.64536L 8.20317 1.54769L 8.36442 1.39723L 7.34113 0.300477ZM 1.28597 6.23705L 0.231757 5.16992L 0.224448 5.17724L 1.28597 6.23705ZM 1.12541 12.9213L 2.40579 12.1399L 2.40336 12.1359L 1.12541 12.9213ZM 2.43278 15.1192L 3.77112 14.4419L 3.7573 14.4146L 3.74238 14.3878L 2.43278 15.1192ZM 2.61627 15.3458L 3.67295 14.2812L 3.67045 14.2787L 2.61627 15.3458ZM 7.50169 20.1948L 8.93274 20.6443L 9.20636 19.7733L 8.55837 19.1302L 7.50169 20.1948ZM 16.1487 28.4878L 17.1639 27.3836L 16.5015 26.7747L 15.6524 27.0723L 16.1487 28.4878ZM 47.2273 57.0604L 48.2857 55.9975L 48.2645 55.9764L 48.2425 55.9562L 47.2273 57.0604ZM 50.1172 59.9381L 49.0588 61.001L 49.063 61.0052L 50.1172 59.9381ZM 50.576 60.3233L 51.7225 61.2904L 52.7769 60.0405L 51.4408 59.0977L 50.576 60.3233ZM 50.6218 61.7054L 49.5358 62.7401L 49.5515 62.7566L 49.5676 62.7725L 50.6218 61.7054ZM 52.0898 61.7054L 51.0356 60.6383L 52.0898 61.7054ZM 54.1311 59.6888L 53.0769 58.6217L 53.0769 58.6217L 54.1311 59.6888ZM 54.865 58.9637L 55.9192 60.0308L 55.9192 60.0308L 54.865 58.9637ZM 56.4706 55.9275L 55.3555 56.9308L 55.385 56.9636L 55.4164 56.9946L 56.4706 55.9275ZM 48.6722 55.6103L 49.7348 54.5514L 49.7264 54.5432L 48.6722 55.6103ZM 48.6493 55.5876L 49.7035 54.5205L 49.6842 54.5015L 49.6643 54.4832L 48.6493 55.5876ZM 17.0661 26.5619L 18.0811 25.4574L 18.0686 25.4459L 18.0559 25.4347L 17.0661 26.5619ZM 15.9193 26.3806L 16.5636 27.7352L 16.5736 27.7304L 16.5836 27.7255L 15.9193 26.3806ZM 9.63476 20.2401L 11.056 20.7197L 11.0606 20.7061L 11.0649 20.6925L 9.63476 20.2401ZM 9.38246 19.2205L 8.32129 20.2806L 8.3478 20.3071L 8.3756 20.3323L 9.38246 19.2205ZM 4.17593 14.009L 2.8843 14.7716L 2.98073 14.935L 3.11477 15.0691L 4.17593 14.009ZM 2.8915 11.8564L 4.17783 11.0848L 4.17184 11.0748L 4.1657 11.0649L 2.8915 11.8564ZM 7.43288 3.08749L 8.56713 4.06906L 6.3889 2.01041L 7.43288 3.08749ZM 3.6484 7.46061L 4.74314 8.48606L 4.76332 8.46451L 4.78265 8.44219L 3.6484 7.46061ZM 5.11632 13.1933L 6.1705 12.1262L 6.15749 12.1133L 6.14418 12.1008L 5.11632 13.1933ZM 10.1164 18.1328L 11.1706 17.0657L 10.1164 18.1328ZM 11.355 18.2915L 10.6279 16.9795L 10.6145 16.9869L 10.6013 16.9945L 11.355 18.2915ZM 18.3047 23.9788L 16.9344 23.3685L 16.924 23.392L 16.9143 23.4158L 18.3047 23.9788ZM 18.6716 25.2023L 19.6869 24.0982L 19.5978 24.0162L 19.4967 23.9496L 18.6716 25.2023ZM 50.1402 54.1374L 51.1985 53.0745L 51.1774 53.0534L 51.1555 53.0333L 50.1402 54.1374ZM 53.076 57.0604L 52.0177 58.1234L 52.0218 58.1275L 53.076 57.0604ZM 53.3742 57.5816L 54.4284 58.6487L 55.0389 58.0455L 54.8283 57.2136L 53.3742 57.5816ZM 52.6632 58.284L 53.7173 59.3511L 53.7173 59.3511L 52.6632 58.284ZM 52.1127 58.8278L 52.1127 60.3278L 52.7287 60.3278L 53.1669 59.8949L 52.1127 58.8278ZM 51.5852 58.5332L 50.5226 59.5921L 50.531 59.6003L 51.5852 58.5332ZM 53.9943 54.8377L 53.8567 54.9737L 55.9651 57.1079L 56.1027 56.9719L 53.9943 54.8377ZM 56.1265 55.1619C 55.9682 54.943 55.8003 54.7429 55.5981 54.5432L 53.4897 56.6774C 53.5628 56.7495 53.6242 56.8213 53.6954 56.9197L 56.1265 55.1619ZM 55.6022 54.5472L 52.6434 51.6016L 50.5269 53.7277L 53.4856 56.6733L 55.6022 54.5472ZM 52.6393 51.5975L 52.6164 51.5749L 50.508 53.7091L 50.531 53.7317L 52.6393 51.5975ZM 52.577 51.5374L 21.4755 22.9648L 19.4459 25.174L 50.5474 53.7466L 52.577 51.5374ZM 21.9016 24.4862C 22.1128 23.7558 22.2588 22.9775 22.2588 22.1434L 19.2588 22.1434C 19.2588 22.6235 19.1755 23.1141 19.0197 23.6527L 21.9016 24.4862ZM 22.2588 22.1434C 22.2588 17.5818 18.5195 13.9138 13.9468 13.9138L 13.9468 16.9138C 16.8972 16.9138 19.2588 19.273 19.2588 22.1434L 22.2588 22.1434ZM 13.9468 13.9138C 12.5612 13.9138 11.2194 14.4339 10.4194 14.7932L 11.6483 17.5299C 12.3621 17.2094 13.2222 16.9138 13.9468 16.9138L 13.9468 13.9138ZM 12.091 15.0973L 7.93953 10.9735L 5.82529 13.1019L 9.97675 17.2257L 12.091 15.0973ZM 7.93659 10.9706L 7.61548 10.6533L 5.50712 12.7875L 5.82823 13.1048L 7.93659 10.9706ZM 7.59661 10.635C 6.37601 9.47077 6.3942 9.03425 6.41739 9.19458L 3.44827 9.62394C 3.5632 10.4187 4.08599 11.4323 5.52599 12.8059L 7.59661 10.635ZM 6.4252 9.25819C 6.4285 9.29075 6.4327 9.36086 6.42007 9.45446C 6.40676 9.55305 6.37841 9.65097 6.33718 9.74117C 6.26341 9.90254 6.17779 9.97066 6.23931 9.90989L 4.13094 7.77569C 3.98603 7.91885 3.7628 8.15691 3.60876 8.49389C 3.43361 8.87702 3.40872 9.24678 3.44045 9.56032L 6.4252 9.25819ZM 6.23931 9.90989C 6.25078 9.89856 6.25652 9.89289 6.26226 9.88722C 6.26799 9.88156 6.27372 9.8759 6.28518 9.86457L 4.17682 7.73038C 4.16534 7.74171 4.15961 7.74738 4.15387 7.75305C 4.14814 7.75871 4.14241 7.76437 4.13094 7.77569L 6.23931 9.90989ZM 6.36904 9.77464L 11.3691 3.95137L 9.09306 1.99703L 4.09296 7.8203L 6.36904 9.77464ZM 11.3777 3.94137C 12.2266 2.93501 12.1631 1.43741 11.2165 0.502264L 9.10811 2.63646C 8.94134 2.4717 8.92373 2.19768 9.08455 2.00703L 11.3777 3.94137ZM 11.1888 0.475603L 9.81261 -0.81594L 7.75962 1.37158L 9.1358 2.66312L 11.1888 0.475603ZM 9.80941 -0.818939C 8.77692 -1.78227 7.26254 -1.6777 6.31784 -0.79628L 8.36442 1.39723C 8.30597 1.45177 8.21309 1.49733 8.09655 1.49989C 7.9747 1.50256 7.85059 1.45646 7.76283 1.37458L 9.80941 -0.818939ZM 6.67683 -1.0444C 6.53807 -0.975859 6.43888 -0.897971 6.43703 -0.896577C 6.40865 -0.875203 6.38673 -0.857114 6.37623 -0.848361C 6.35384 -0.829701 6.33553 -0.813401 6.32659 -0.805384C 6.30651 -0.787399 6.28627 -0.768601 6.27006 -0.753421C 6.23574 -0.721286 6.19121 -0.678851 6.13998 -0.629669C 6.03627 -0.530101 5.89002 -0.388406 5.71017 -0.213399C 5.34974 0.137322 4.84642 0.629584 4.26104 1.20363C 3.08993 2.35206 1.5863 3.83183 0.231782 5.16995L 2.34015 7.30414C 3.69211 5.96854 5.19312 4.49136 6.36152 3.34559C 6.94588 2.77255 7.44602 2.2834 7.80235 1.93666C 7.98088 1.76294 8.12133 1.62689 8.21759 1.53448C 8.26635 1.48767 8.30013 1.45556 8.32055 1.43644C 8.33171 1.42599 8.33296 1.42498 8.32823 1.42921C 8.32696 1.43035 8.3148 1.44128 8.297 1.45612C 8.28879 1.46297 8.26877 1.47953 8.2419 1.49977C 8.24155 1.50003 8.14349 1.57717 8.00544 1.64536L 6.67683 -1.0444ZM 0.224448 5.17724C -2.07249 7.4779 -1.94614 10.7883 -0.152534 13.7068L 2.40336 12.1359C 1.07763 9.97883 1.3416 8.30436 2.34748 7.29685L 0.224448 5.17724ZM -0.154957 13.7028C 0.311065 14.4664 0.633367 15.0083 0.837838 15.3569C 0.940064 15.5312 1.0128 15.6572 1.05929 15.7383C 1.08253 15.7789 1.09921 15.8082 1.10972 15.8268C 1.11498 15.8361 1.1187 15.8427 1.12092 15.8466C 1.12203 15.8486 1.12277 15.8499 1.12315 15.8506C 1.12333 15.8509 1.12343 15.8511 1.12343 15.8511C 1.12343 15.8511 1.12341 15.8511 1.12337 15.851C 1.12335 15.8509 1.12332 15.8509 1.12329 15.8508C 1.12327 15.8508 1.12324 15.8508 1.12324 15.8507C 1.12321 15.8507 1.12317 15.8506 2.43278 15.1192C 3.74238 14.3878 3.74235 14.3878 3.74231 14.3877C 3.7423 14.3877 3.74226 14.3876 3.74223 14.3876C 3.74218 14.3875 3.74212 14.3874 3.74205 14.3873C 3.74192 14.387 3.74176 14.3867 3.74158 14.3864C 3.74123 14.3858 3.74078 14.385 3.74025 14.384C 3.73917 14.3821 3.73774 14.3796 3.73593 14.3763C 3.73232 14.3699 3.72724 14.3609 3.72062 14.3492C 3.70739 14.3258 3.68805 14.2918 3.6622 14.2467C 3.61049 14.1565 3.53271 14.0218 3.42564 13.8393C 3.21153 13.4742 2.88014 12.9171 2.40578 12.1399L -0.154957 13.7028ZM 1.09443 15.7966C 1.26773 16.139 1.51793 16.3693 1.56208 16.4129L 3.67045 14.2787C 3.6514 14.2599 3.64535 14.2539 3.6412 14.2496C 3.6383 14.2466 3.64447 14.2528 3.65516 14.2653C 3.67734 14.2911 3.72523 14.3512 3.77112 14.4419L 1.09443 15.7966ZM 1.55959 16.4104L 6.44501 21.2594L 8.55837 19.1302L 3.67295 14.2812L 1.55959 16.4104ZM 6.07064 19.7452C 5.84919 20.4501 5.63471 21.3479 5.63471 22.1208L 8.63471 22.1208C 8.63471 21.806 8.74133 21.2536 8.93274 20.6443L 6.07064 19.7452ZM 5.63471 22.1208C 5.63471 26.6824 9.37407 30.3504 13.9468 30.3504L 13.9468 27.3504C 10.9964 27.3504 8.63471 24.9912 8.63471 22.1208L 5.63471 22.1208ZM 13.9468 30.3504C 14.8563 30.3504 15.7596 30.2137 16.6449 29.9034L 15.6524 27.0723C 15.1157 27.2605 14.5511 27.3504 13.9468 27.3504L 13.9468 30.3504ZM 15.1334 29.5921L 46.2121 58.1647L 48.2425 55.9562L 17.1639 27.3836L 15.1334 29.5921ZM 46.1689 58.1233L 49.0588 61.001L 51.1756 58.8751L 48.2857 55.9975L 46.1689 58.1233ZM 49.063 61.0052C 49.2555 61.1952 49.4789 61.385 49.7111 61.5489L 51.4408 59.0977C 51.3519 59.0349 51.2542 58.9528 51.1714 58.871L 49.063 61.0052ZM 49.4294 59.3561C 48.5838 60.3585 48.6496 61.8099 49.5358 62.7401L 51.7079 60.6708C 51.8601 60.8306 51.88 61.1037 51.7225 61.2904L 49.4294 59.3561ZM 49.5676 62.7725C 50.0809 63.2796 50.7241 63.5 51.3558 63.5L 51.3558 60.5C 51.3843 60.5 51.4398 60.5051 51.5087 60.532C 51.5798 60.5598 51.6372 60.6 51.676 60.6383L 49.5676 62.7725ZM 51.3558 63.5C 51.947 63.5 52.6194 63.2907 53.1439 62.7725L 51.0356 60.6383C 51.1472 60.528 51.2692 60.5 51.3558 60.5L 51.3558 63.5ZM 53.1439 62.7725L 55.1853 60.7559L 53.0769 58.6217L 51.0356 60.6383L 53.1439 62.7725ZM 55.1853 60.7559L 55.9192 60.0308L 53.8109 57.8966L 53.0769 58.6217L 55.1853 60.7559ZM 55.9192 60.0308L 55.9422 60.0082L 53.8338 57.874L 53.8109 57.8966L 55.9192 60.0308ZM 55.9422 60.0082L 57.5248 58.4447L 55.4164 56.3105L 53.8338 57.874L 55.9422 60.0082ZM 57.5248 58.4447C 58.532 57.4496 58.532 55.8555 57.5248 54.8604L 55.4164 56.9946C 55.339 56.9181 55.2802 56.795 55.2802 56.6526C 55.2802 56.5102 55.339 56.387 55.4164 56.3105L 57.5248 58.4447ZM 57.5856 54.9242C 56.6106 53.8405 54.9546 53.8891 53.9943 54.8377L 56.1027 56.9719C 55.9926 57.0807 55.8618 57.1199 55.7519 57.1187C 55.6388 57.1174 55.4818 57.0712 55.3555 56.9308L 57.5856 54.9242ZM 49.7264 54.5432L 49.7035 54.5205L 47.5951 56.6547L 47.6181 56.6774L 49.7264 54.5432ZM 49.6643 54.4832L 18.0811 25.4574L 16.0511 27.6663L 47.6343 56.692L 49.6643 54.4832ZM 18.0559 25.4347C 17.5752 25.0126 16.9709 24.79 16.3551 24.79L 16.3551 27.79C 16.2439 27.79 16.1442 27.7486 16.0763 27.689L 18.0559 25.4347ZM 16.3551 24.79C 16.0802 24.79 15.669 24.8312 15.255 25.0357L 16.5836 27.7255C 16.5068 27.7634 16.447 27.7778 16.4172 27.7834C 16.3862 27.7893 16.3658 27.79 16.3551 27.79L 16.3551 24.79ZM 15.275 25.026C 14.882 25.2129 14.4185 25.3111 13.9238 25.3111L 13.9238 28.3111C 14.8053 28.3111 15.718 28.1374 16.5636 27.7352L 15.275 25.026ZM 13.9238 25.3111C 12.1203 25.3111 10.676 23.8583 10.676 22.1208L 7.67603 22.1208C 7.67603 25.5494 10.4979 28.3111 13.9238 28.3111L 13.9238 25.3111ZM 10.676 22.1208C 10.676 22.1507 10.6762 21.8453 11.056 20.7197L 8.21348 19.7605C 7.81345 20.9461 7.67603 21.6377 7.67603 22.1208L 10.676 22.1208ZM 11.0649 20.6925C 11.3362 19.8349 11.1473 18.795 10.3893 18.1086L 8.3756 20.3323C 8.27038 20.237 8.21782 20.1274 8.19658 20.0392C 8.17575 19.9528 8.17938 19.8674 8.20461 19.7877L 11.0649 20.6925ZM 10.4436 18.1603L 5.2371 12.9488L 3.11477 15.0691L 8.32129 20.2806L 10.4436 18.1603ZM 5.46757 13.2463C 5.30472 12.9705 4.91294 12.3103 4.17783 11.0848L 1.60518 12.628C 2.33799 13.8496 2.72603 14.5036 2.8843 14.7716L 5.46757 13.2463ZM 4.1657 11.0649C 3.90432 10.6441 3.65714 10.1212 3.58154 9.64638C 3.51346 9.21881 3.59353 8.96624 3.80807 8.7543L 1.6997 6.6201C 0.606871 7.69971 0.446116 9.03324 0.618864 10.1181C 0.784096 11.1558 1.25941 12.0717 1.61731 12.6479L 4.1657 11.0649ZM 3.80807 8.7543C 5.43876 7.14334 7.2676 5.33666 8.47685 4.16458L 6.3889 2.01041C 5.16692 3.19483 3.32595 5.01353 1.6997 6.6201L 3.80807 8.7543ZM 6.29863 2.10592L 2.51415 6.47904L 4.78265 8.44219L 8.56713 4.06906L 6.29863 2.10592ZM 2.55366 6.43516C 1.51364 7.54545 1.11534 8.93121 1.49207 10.4155C 1.83791 11.7781 2.79688 13.0705 4.08846 14.2857L 6.14418 12.1008C 5.02745 11.0501 4.54143 10.2352 4.39988 9.67752C 4.28922 9.24153 4.36111 8.89391 4.74314 8.48606L 2.55366 6.43516ZM 4.06214 14.2604L 9.06224 19.1999L 11.1706 17.0657L 6.1705 12.1262L 4.06214 14.2604ZM 9.06224 19.1999C 9.86295 19.991 11.1308 20.1566 12.1086 19.5884L 10.6013 16.9945C 10.7162 16.9278 10.8236 16.9184 10.9008 16.9283C 10.9779 16.9382 11.0778 16.9741 11.1706 17.0657L 9.06224 19.1999ZM 12.0821 19.6034C 12.9237 19.137 13.6245 18.9531 13.9468 18.9531L 13.9468 15.9531C 12.8928 15.9531 11.6671 16.4036 10.6279 16.9795L 12.0821 19.6034ZM 13.9468 18.9531C 15.7503 18.9531 17.1946 20.4059 17.1946 22.1434L 20.1946 22.1434C 20.1946 18.7147 17.3727 15.9531 13.9468 15.9531L 13.9468 18.9531ZM 17.1946 22.1434C 17.1946 22.5657 17.1019 22.9924 16.9344 23.3685L 19.6749 24.5891C 20.012 23.8322 20.1946 22.99 20.1946 22.1434L 17.1946 22.1434ZM 16.9143 23.4158C 16.479 24.4909 16.8008 25.7663 17.8466 26.4551L 19.4967 23.9496C 19.5867 24.0089 19.667 24.1106 19.704 24.2367C 19.7397 24.3586 19.7251 24.4675 19.695 24.5417L 16.9143 23.4158ZM 17.6564 26.3065L 49.1249 55.2416L 51.1555 53.0333L 19.6869 24.0982L 17.6564 26.3065ZM 49.0818 55.2004L 52.0177 58.1234L 54.1343 55.9974L 51.1985 53.0745L 49.0818 55.2004ZM 52.0218 58.1275C 51.9507 58.0573 51.9282 57.982 51.92 57.9496L 54.8283 57.2136C 54.7743 56.9999 54.6141 56.4714 54.1302 55.9933L 52.0218 58.1275ZM 52.32 56.5145L 51.609 57.2169L 53.7173 59.3511L 54.4284 58.6487L 52.32 56.5145ZM 51.609 57.2169L 51.0585 57.7607L 53.1669 59.8949L 53.7173 59.3511L 51.609 57.2169ZM 52.1127 57.3278C 52.2176 57.3278 52.2991 57.34 52.3466 57.3488C 52.3979 57.3584 52.438 57.3694 52.4654 57.3779C 52.5192 57.3946 52.5543 57.411 52.5723 57.4201C 52.608 57.4383 52.6268 57.4537 52.6393 57.4661L 50.531 59.6003C 50.7499 59.8166 50.9866 59.9793 51.2116 60.0938C 51.3802 60.1796 51.7139 60.3278 52.1127 60.3278L 52.1127 57.3278ZM 52.6476 57.4744L 49.7347 54.5514L 47.6098 56.6691L 50.5227 59.5921L 52.6476 57.4744Z"/>
</defs>
</svg>
