<svg width="72" height="49" viewBox="0 0 72 49" version="1.1" xmlns="http://www.w3.org/2000/svg" xmlns:xlink="http://www.w3.org/1999/xlink">
<title>Group</title>
<desc>Created using Figma</desc>
<g id="Canvas" transform="translate(14524 21782)">
<g id="Group">
<g id="Group">
<g id="Vector">
<use xlink:href="#path0_fill" transform="translate(-14523.2 -21782)" fill="#B1BABE"/>
</g>
<g id="Vector">
<use xlink:href="#path1_fill" transform="translate(-14477.3 -21773.2)" fill="#B1BABE"/>
</g>
<g id="Vector">
<use xlink:href="#path2_fill" transform="translate(-14504.8 -21769.7)" fill="#B1BABE"/>
</g>
</g>
</g>
</g>
<defs>
<path id="path0_fill" d="M 66.4806 46.7905C 68.0631 46.7905 69.5476 46.7905 71.0741 46.7905C 71.0741 47.5531 71.0741 48.2339 71.0741 48.9693C 47.3781 48.9693 23.71 48.9693 0 48.9693C 0 48.2476 0 47.553 0 46.8041C 1.51251 46.8041 2.99702 46.8041 4.55154 46.8041C 4.55154 42.3238 4.55154 37.9117 4.55154 33.4042C 4.91567 33.4042 5.20977 33.4042 5.50387 33.4042C 16.3856 33.4042 27.2532 33.4042 38.1349 33.4042C 39.3533 33.4042 39.0873 33.554 39.2973 32.4646C 39.6755 30.4083 39.9976 28.3521 40.3477 26.2958C 40.7118 24.1714 39.1153 22.2786 36.9025 22.2786C 31.8888 22.265 26.8611 22.265 21.8474 22.2786C 19.7327 22.2922 18.3322 23.6948 18.3182 25.7783C 18.3182 26.0643 18.3182 26.3503 18.3182 26.718C 17.3659 26.718 16.4836 26.7452 15.6013 26.7043C 15.0411 26.6771 14.817 26.8269 14.845 27.4125C 14.887 28.638 14.859 29.8636 14.859 31.1301C 14.1028 31.1301 13.3885 31.1301 12.6043 31.1301C 12.6043 29.7002 12.6043 28.2704 12.6043 26.7316C 11.4279 26.7316 10.3215 26.7316 9.17311 26.7316C 9.1451 26.4728 9.11709 26.3094 9.11709 26.1324C 9.11709 20.8487 9.10309 15.5514 9.11709 10.2678C 9.1311 7.33995 10.8537 5.1475 13.6126 4.54832C 14.2428 4.41214 14.9151 4.42576 15.5593 4.39852C 16.0634 4.37129 16.5816 4.39852 17.1558 4.39852C 17.1558 3.26825 17.1558 2.20607 17.1558 1.10303C 17.9261 1.10303 18.6403 1.10303 19.4386 1.10303C 19.4386 2.16522 19.4386 3.24102 19.4386 4.35767C 29.41 4.35767 39.2973 4.35767 49.2267 4.35767C 49.2267 3.64955 49.2267 2.95504 49.2267 2.19245C 48.5265 2.19245 47.8122 2.19245 47.056 2.19245C 47.056 1.42986 47.056 0.748974 47.056 2.02924e-10C 49.2967 2.02924e-10 51.5515 2.02924e-10 53.8483 2.02924e-10C 53.8483 0.694503 53.8483 1.37539 53.8483 2.13798C 53.148 2.13798 52.4338 2.13798 51.6635 2.13798C 51.6635 2.91419 51.6635 3.62231 51.6635 4.42576C 52.5178 4.42576 53.3441 4.41214 54.1844 4.42576C 55.2347 4.43937 56.2991 4.35767 57.3214 4.54832C 59.9683 5.02494 61.817 7.20377 61.915 9.83199C 61.929 10.2405 61.915 10.6354 61.915 11.1121C 63.4835 11.1121 64.954 11.1121 66.4806 11.1121C 66.4806 14.8569 66.4806 18.5201 66.4806 22.265C 64.982 22.265 63.4975 22.265 61.929 22.265C 61.929 22.5645 61.929 22.7824 61.929 23.0003C 61.929 26.2413 61.943 29.496 61.915 32.737C 61.915 33.3362 62.1251 33.4587 62.6713 33.4451C 63.9177 33.4042 65.1781 33.4315 66.4946 33.4315C 66.4806 37.8845 66.4806 42.283 66.4806 46.7905ZM 16.1195 24.4574C 17.0578 21.1892 19.5646 20.0317 21.6653 20.018C 26.8471 19.9908 32.0289 19.9908 37.2106 20.018C 39.0032 20.0317 40.5438 20.6717 41.5801 22.1696C 42.5604 23.5859 42.8825 25.1655 42.6165 26.8405C 42.4204 28.0933 42.1823 29.3462 41.9722 30.599C 41.6781 32.2604 41.398 33.9353 41.0899 35.6512C 29.6481 35.6512 18.2762 35.6512 6.89034 35.6512C 6.89034 39.396 6.89034 43.0728 6.89034 46.736C 26.0208 46.736 45.1093 46.736 64.1838 46.736C 64.1838 43.0184 64.1838 39.3552 64.1838 35.6239C 62.6573 35.6239 61.1728 35.6239 59.6182 35.6239C 59.6182 35.3243 59.6182 35.0792 59.6182 34.8341C 59.6182 26.6226 59.6182 18.4111 59.6182 10.186C 59.6182 8.00722 58.2037 6.61821 55.949 6.61821C 42.3224 6.61821 28.6957 6.61821 15.0691 6.61821C 12.8704 6.61821 11.4419 8.00721 11.4419 10.1588C 11.4419 14.6799 11.4419 19.1874 11.4419 23.7084C 11.4419 23.9536 11.4419 24.1851 11.4419 24.4438C 13.0524 24.4574 14.5649 24.4574 16.1195 24.4574ZM 61.957 13.3454C 61.957 15.5923 61.957 17.7711 61.957 19.9636C 62.7273 19.9636 63.4555 19.9636 64.1698 19.9636C 64.1698 17.7303 64.1698 15.5514 64.1698 13.3454C 63.4275 13.3454 62.7273 13.3454 61.957 13.3454Z"/>
<path id="path1_fill" d="M 5.69999 11.1666C 2.50691 11.153 -0.0139458 8.67454 5.89249e-05 5.5697C 0.0140637 2.4921 2.60494 -0.0135625 5.75601 5.52455e-05C 8.90708 0.013673 11.498 2.56019 11.484 5.61055C 11.4559 8.68816 8.86507 11.1802 5.69999 11.1666ZM 5.714 2.24698C 3.82335 2.24698 2.28283 3.73131 2.26883 5.55608C 2.25482 7.40809 3.83736 8.96051 5.714 8.94689C 7.63265 8.93328 9.14516 7.43533 9.14516 5.55608C 9.14516 3.71769 7.63265 2.24698 5.714 2.24698Z"/>
<path id="path2_fill" d="M 24.0181 -4.1558e-07C 24.0181 0.708121 24.0181 1.38901 24.0181 2.11075C 16.0214 2.11075 8.02472 2.11075 -4.27391e-07 2.11075C -4.27391e-07 1.42986 -4.27391e-07 0.735356 -4.27391e-07 -4.1558e-07C 7.9687 -4.1558e-07 15.9514 -4.1558e-07 24.0181 -4.1558e-07Z"/>
</defs>
</svg>
