<svg width="81" height="44" viewBox="0 0 81 44" version="1.1" xmlns="http://www.w3.org/2000/svg" xmlns:xlink="http://www.w3.org/1999/xlink">
    <title>декор</title>
    <desc>Created using Figma</desc>
    <g id="Canvas" transform="translate(14076 22137)">
        <g id="декор">
            <path d="M 17.1229 0.0406268L 15.1143 0.0406269C 13.1454 0.040627 11.3755 0.577748 9.66517 1.67188C 7.67645 2.96495 6.00593 4.79515 4.53428 7.24203C 1.57109 12.1955 0.0994356 17.9646 0 24.8477L 1.73895e-09 24.8875C 3.0436e-08 25.5439 0.178985 26.2203 1.5512 26.2203C 5.98604 26.2402 10.4805 26.2203 14.279 26.2203C 15.5916 26.2203 15.9098 25.8821 16.0291 24.4498L 16.0291 24.4299C 16.2279 21.9035 16.4467 19.2775 16.8643 16.7312C 17.3615 13.787 18.4155 11.161 20.0463 8.67435L 20.5634 7.87862L 20.9213 8.75393C 21.0406 9.05233 21.1799 9.35073 21.2992 9.62924C 21.5577 10.226 21.8162 10.8029 21.9753 11.4196C 23.1885 16.4129 24.3817 21.5454 25.555 26.6779L 25.6744 27.1951C 26.5096 30.8356 27.3648 34.5954 29.1546 37.9574C 31.0638 41.5382 33.5696 43.1894 37.0101 43.1894C 38.3624 43.1894 39.7346 43.1894 41.0869 43.1894C 43.7319 43.1894 46.4565 43.2093 49.1214 43.1695C 51.826 43.1297 53.9738 42.1549 55.4853 40.2849C 56.3205 39.2505 56.9967 37.9972 57.653 36.8036C 57.7922 36.545 57.9314 36.3063 58.0706 36.0476C 58.3092 35.61 58.4683 35.1326 58.6672 34.5755C 58.7666 34.297 58.8661 33.9986 58.9854 33.6803L 59.5422 32.1883L 59.9201 33.7201C 59.9599 33.8793 59.9996 34.0185 60.0195 34.1578C 60.0593 34.3567 60.0991 34.5159 60.1389 34.6551C 60.3377 35.2917 60.5366 35.9482 60.7156 36.5649C 61.1531 38.037 61.5906 39.5688 62.2071 40.9812C 63.0424 42.8512 64.7527 43.2292 66.0454 43.2093C 69.8637 43.1695 74.0002 43.1695 78.6737 43.2093C 79.5686 43.2093 80.1056 42.9705 80.4636 42.3737L 80.4636 41.7173C 80.3641 41.6178 80.2846 41.5183 80.1851 41.4189C 79.9863 41.2 79.7277 40.9016 79.5885 40.8817C 78.1765 40.6828 77.6197 39.7279 77.3015 38.9123C 76.9236 37.9773 76.5458 37.0224 76.327 36.0079C 75.9293 34.118 75.5315 32.1883 75.1537 30.3184C 74.7559 28.329 74.3383 26.2601 73.9008 24.231C 73.4235 21.983 72.7076 19.3571 71.2359 16.9699C 69.8239 14.7021 67.9943 13.6079 65.6476 13.588C 62.5253 13.5681 59.3235 13.5681 56.241 13.588L 53.9142 13.588C 51.7266 13.588 50.0362 14.523 49.0418 16.2736C 48.0872 17.9447 47.3514 19.6555 46.8542 21.3464C 46.2178 23.5148 45.661 25.7827 45.1439 27.951C 44.8655 29.1248 44.5672 30.3382 44.249 31.5319C 44.1098 32.1088 43.891 32.6658 43.712 33.183C 43.6325 33.4217 43.5331 33.6604 43.4535 33.9191L 43.0558 35.0928L 42.5387 33.9588C 41.8625 32.5066 41.4051 31.1539 41.1068 29.8409C 40.6096 27.5532 40.1323 25.2256 39.6551 22.9777C 39.0385 19.9738 38.3823 16.8704 37.7061 13.8068C 37.0697 11.0019 36.0754 7.36139 34.0071 4.21824C 32.0979 1.3337 29.5325 -0.0389466 26.1715 0.000840294C 23.1487 0.080414 20.0861 0.0605201 17.1229 0.0406268ZM 13.5829 23.3159L 13.5631 23.7734L 2.22737 23.7734L 2.30691 23.1965C 2.40635 22.5202 2.50579 21.8438 2.60522 21.1873C 2.82398 19.6953 3.00297 18.2829 3.32116 16.8704C 4.1962 12.7525 5.72751 9.37063 7.97476 6.52587C 9.50607 4.57632 11.097 3.38272 12.9466 2.74613C 14.6767 2.14933 16.1285 2.50741 17.2621 3.78058C 17.6002 4.17845 17.9581 4.55643 18.3161 4.97419C 18.4752 5.15323 18.6343 5.35216 18.8133 5.55109L 19.0718 5.84949L 18.8332 6.16779C 14.7961 11.6982 13.921 17.9447 13.5829 23.3159ZM 65.9857 16.0946C 67.4971 16.1543 68.7301 17.1091 69.4063 18.7404C 70.4802 21.3663 71.1762 23.4153 71.6535 25.3649C 72.2303 27.7123 72.7076 30.1194 73.165 32.4469C 73.4633 33.9389 73.7815 35.4906 74.0997 37.0224C 74.2389 37.6988 74.4974 38.3752 74.7559 39.0913C 74.8753 39.4295 75.0145 39.7876 75.1338 40.1457L 75.3526 40.8022L 74.6565 40.8022C 73.9008 40.8022 73.165 40.8022 72.4093 40.8022C 70.2217 40.8221 67.9744 40.8221 65.747 40.7425C 65.0311 40.7226 64.1958 39.8672 63.9572 39.1709C 63.3009 37.1617 62.764 35.232 62.3861 33.3819C 61.9088 31.0942 61.4713 28.7468 61.0338 26.4988C 60.636 24.3901 60.2184 22.2019 59.7809 20.0534C 59.6417 19.3372 59.3633 18.621 59.0848 17.8651C 58.9456 17.507 58.8064 17.129 58.6871 16.7312L 58.4683 16.0747L 59.1644 16.0747C 59.8604 16.0747 60.5565 16.0747 61.2327 16.0747C 62.8634 16.0548 64.4146 16.0349 65.9857 16.0946ZM 47.7491 27.6526C 47.9082 26.9564 48.0872 26.2203 48.2662 25.5042C 48.7833 23.3955 49.3202 21.5454 49.897 19.8544C 50.1953 18.9791 50.7123 18.064 51.3288 17.2882C 52.0845 16.3532 53.0988 15.8957 54.113 16.0349C 55.0875 16.1543 55.9029 16.8107 56.3603 17.8054C 56.8972 18.9791 57.2552 20.2324 57.5933 21.426C 57.7524 22.0029 57.9314 22.6196 58.1302 23.1965C 58.2893 23.674 58.3689 24.1713 58.3689 24.7084C 58.3689 25.6235 58.1303 26.4988 57.9115 27.3542C 57.8518 27.5532 57.8121 27.7521 57.7524 27.951L 57.6132 28.5081C 57.0166 30.935 56.4001 33.4416 55.525 35.8089C 54.2324 39.2704 51.5874 41.0011 47.8685 40.8022C 46.8343 40.7425 45.8002 40.7624 44.6865 40.7823C 44.1496 40.7823 43.5728 40.8022 42.9961 40.8022L 41.9222 40.8022L 42.6182 39.9865C 45.7405 36.3063 46.7548 31.9098 47.7491 27.6526ZM 26.788 2.44773C 28.7768 2.48751 30.4274 3.4424 31.7996 5.37205C 33.1519 7.24203 34.1264 9.47009 34.7031 11.9568C 35.4787 15.3585 36.2146 18.82 36.9305 22.182C 37.3084 23.9724 37.6862 25.7827 38.084 27.5731C 38.7601 30.6764 39.5357 33.939 40.9875 36.9031C 41.0869 37.0821 41.1267 37.3407 41.1267 37.5794C 41.1267 37.7386 41.1068 37.9574 40.9875 38.1563C 40.2119 39.5688 38.9192 40.5237 37.4476 40.7624C 36.0157 41.0011 34.6236 40.5634 33.49 39.529C 32.4758 38.6139 31.561 37.3208 30.8053 35.8089C 29.3933 32.9841 28.7171 29.9006 28.0608 26.9166C 27.9614 26.459 27.862 26.0015 27.7625 25.5439C 27.5835 24.7084 27.3847 23.8729 27.2057 23.0175C 26.3505 19.1582 25.4556 15.1596 24.4612 11.2605C 23.8447 8.79371 22.572 6.38662 20.7026 4.11877C 20.5634 3.95962 20.4639 3.80048 20.3247 3.58165C 20.265 3.48218 20.1855 3.36282 20.0861 3.22357L 19.5491 2.44773L 20.5037 2.44773C 21.1997 2.44773 21.8759 2.44773 22.5322 2.44773C 24.0038 2.42783 25.3959 2.42783 26.788 2.44773Z" transform="translate(-14075.9 -22136.5)" fill="#B1BABE"></path>
        </g>
    </g>
</svg>