<svg width="23" height="21" viewBox="0 0 23 21" version="1.1" xmlns="http://www.w3.org/2000/svg" xmlns:xlink="http://www.w3.org/1999/xlink">
<title>Expanded 1.1</title>
<desc>Created using Figma</desc>
<g id="Canvas" transform="translate(15891 20394)">
<g id="Expanded 1.1">
<g id="Group">
<g id="Vector">
<use xlink:href="#path0_stroke" transform="translate(-15888.9 -20391.8)" fill="#353535"/>
</g>
</g>
</g>
</g>
<defs>
<path id="path0_stroke" d="M 4.73017 13.6201L 3.71833 14.7275L 3.72121 14.7301L 4.73017 13.6201ZM 9.62069 3.20934L 8.24719 3.81224L 9.62069 6.9413L 10.9942 3.81224L 9.62069 3.20934ZM 14.5112 13.6201L 15.5098 14.7394L 15.5165 14.7335L 15.523 14.7275L 14.5112 13.6201ZM 9.82112 17.0643L 10.4792 18.4123L 10.5621 18.3718L 10.6394 18.3215L 9.82112 17.0643ZM 9.62069 15.6035C 9.59346 15.6035 9.6058 15.6032 9.62312 15.6039C 9.64707 15.6048 9.69715 15.6076 9.7614 15.618C 9.91016 15.6422 10.0217 15.6887 10.0783 15.7164L 8.76222 18.4123C 8.89903 18.4791 9.07065 18.5451 9.27954 18.5791C 9.45186 18.6071 9.60947 18.6035 9.62069 18.6035L 9.62069 15.6035ZM 10.0783 15.7164C 10.1267 15.74 7.95978 14.5288 5.73914 12.5102L 3.72121 14.7301C 6.15057 16.9384 8.55348 18.3104 8.76222 18.4123L 10.0783 15.7164ZM 5.74201 12.5128C 2.74156 9.77109 1.5 7.36496 1.5 5.28367L -1.5 5.28367C -1.5 8.60348 0.465338 11.755 3.71833 14.7275L 5.74201 12.5128ZM 1.5 5.28367C 1.5 3.83508 1.98998 2.92464 2.58025 2.37026C 3.19518 1.79271 4.02787 1.5 4.85043 1.5L 4.85043 -1.5C 3.348 -1.5 1.75547 -0.970806 0.526434 0.183516C -0.727265 1.361 -1.5 3.09241 -1.5 5.28367L 1.5 5.28367ZM 4.85043 1.5C 6.10937 1.5 7.54398 2.21024 8.24719 3.81224L 10.9942 2.60644C 9.77326 -0.175042 7.19925 -1.5 4.85043 -1.5L 4.85043 1.5ZM 10.9942 3.81224C 11.6974 2.21024 13.132 1.5 14.3909 1.5L 14.3909 -1.5C 12.0421 -1.5 9.46812 -0.175042 8.24719 2.60644L 10.9942 3.81224ZM 14.3909 1.5C 15.2135 1.5 16.0462 1.79271 16.6611 2.37026C 17.2514 2.92464 17.7414 3.83508 17.7414 5.28367L 20.7414 5.28367C 20.7414 3.09241 19.9686 1.361 18.7149 0.183516C 17.4859 -0.970806 15.8934 -1.5 14.3909 -1.5L 14.3909 1.5ZM 17.7414 5.28367C 17.7414 7.36496 16.4998 9.77109 13.4994 12.5128L 15.523 14.7275C 18.776 11.755 20.7414 8.60348 20.7414 5.28367L 17.7414 5.28367ZM 13.5126 12.5009C 11.296 14.4785 9.18147 15.6909 9.00284 15.8072L 10.6394 18.3215C 10.5885 18.3546 11.3278 17.9151 12.1853 17.3295C 13.0895 16.712 14.2864 15.8309 15.5098 14.7394L 13.5126 12.5009ZM 9.16308 15.7164C 9.21972 15.6887 9.33121 15.6422 9.47997 15.618C 9.54422 15.6076 9.59431 15.6048 9.61826 15.6039C 9.63558 15.6032 9.64792 15.6035 9.62069 15.6035L 9.62069 18.6035C 9.63191 18.6035 9.78952 18.6071 9.96184 18.5791C 10.1707 18.5451 10.3423 18.4791 10.4792 18.4123L 9.16308 15.7164Z"/>
</defs>
</svg>
