<svg width="23" height="21" viewBox="0 0 23 21" version="1.1" xmlns="http://www.w3.org/2000/svg" xmlns:xlink="http://www.w3.org/1999/xlink">
    <title>Vector (Stroke)</title>
    <desc>Created using Figma</desc>
    <g id="Canvas" transform="translate(15891 20394)">
        <g id="Vector (Stroke)">
            <path fill-rule="evenodd" d="M 4.08025 3.87026C 3.48998 4.42464 3 5.33508 3 6.78367C 3 8.86466 4.24121 11.2704 7.24074 14.0116C 8.81349 15.441 10.359 16.4654 11.1094 16.9328C 11.9246 16.4179 13.4393 15.4036 15.0059 14.0068C 18.0016 11.2676 19.2414 8.86344 19.2414 6.78367C 19.2414 5.33508 18.7514 4.42464 18.1611 3.87026C 17.5462 3.29271 16.7135 3 15.8909 3C 14.632 3 13.1974 3.71024 12.4942 5.31224L 11.1207 8.4413L 9.74719 5.31224C 9.04398 3.71024 7.60937 3 6.35043 3C 5.52787 3 4.69518 3.29271 4.08025 3.87026ZM 2.02643 1.68352C 3.25547 0.529194 4.848 0 6.35043 0C 8.01459 0 9.79178 0.665104 11.1207 2.0421C 12.4496 0.665104 14.2268 0 15.8909 0C 17.3934 0 18.9859 0.529194 20.2149 1.68352C 21.4686 2.861 22.2414 4.59241 22.2414 6.78367C 22.2414 10.1035 20.276 13.255 17.023 16.2275L 17.0165 16.2335L 17.0098 16.2394C 15.7864 17.3309 14.5895 18.212 13.6853 18.8295C 12.8278 19.4151 12.0885 19.8546 12.1394 19.8215L 12.0621 19.8718L 11.9792 19.9123C 11.8423 19.9791 11.6707 20.0451 11.4618 20.0791C 11.2999 20.1054 11.151 20.1038 11.1243 20.1035L 11.1207 20.1035L 11.1171 20.1035C 11.0903 20.1038 10.9414 20.1054 10.7795 20.0791C 10.5707 20.0451 10.399 19.9791 10.2622 19.9123C 10.0535 19.8104 7.65057 18.4384 5.22121 16.2301L 5.21833 16.2275C 1.96534 13.255 0 10.1035 0 6.78367C 0 4.59241 0.772735 2.861 2.02643 1.68352Z" transform="translate(-15890.4 -20393.3)" fill="#353535"></path>
        </g>
    </g>
</svg>