<svg width="32" height="31" viewBox="0 0 32 31" version="1.1" xmlns="http://www.w3.org/2000/svg" xmlns:xlink="http://www.w3.org/1999/xlink">
    <title>if_info_172483</title>
    <desc>Created using Figma</desc>
    <g id="Canvas" transform="translate(-8588 11576)">
        <g id="if_info_172483">
            <g id="Vector">
                <path d="M 28.4802 14.6151C 28.4802 22.2726 22.2726 28.4802 14.6151 28.4802L 14.6151 29.9802C 23.101 29.9802 29.9802 23.101 29.9802 14.6151L 28.4802 14.6151ZM 14.6151 28.4802C 6.95762 28.4802 0.75 22.2726 0.75 14.6151L -0.75 14.6151C -0.75 23.101 6.12919 29.9802 14.6151 29.9802L 14.6151 28.4802ZM 0.75 14.6151C 0.75 6.95762 6.95762 0.75 14.6151 0.75L 14.6151 -0.75C 6.12919 -0.75 -0.75 6.12919 -0.75 14.6151L 0.75 14.6151ZM 14.6151 0.75C 22.2726 0.75 28.4802 6.95762 28.4802 14.6151L 29.9802 14.6151C 29.9802 6.12919 23.101 -0.75 14.6151 -0.75L 14.6151 0.75Z" transform="translate(8589.72 -11575)" fill="#B1BABE"></path>
            </g>
            <g id="Vector">
                <path d="M 0.217399 2.0315C 0.0858634 2.0315 5.38938e-07 1.94381 5.38938e-07 1.81288L 5.38938e-07 0.218618C 5.38938e-07 0.0876906 0.0864723 -1.62611e-07 0.217399 -1.62611e-07L 1.70266 -1.62611e-07C 1.83359 -1.62611e-07 1.92128 0.0876906 1.92128 0.218618L 1.92128 1.81288C 1.92128 1.94381 1.83298 2.0315 1.70266 2.0315L 0.217399 2.0315ZM 0.261854 14.8514C 0.130927 14.8514 0.043845 14.7643 0.043845 14.6334L 0.043845 4.60863C 0.043845 4.4777 0.131536 4.39001 0.261854 4.39001L 1.65942 4.39001C 1.79096 4.39001 1.87804 4.4777 1.87804 4.60863L 1.87804 14.6334C 1.87804 14.7649 1.79035 14.8514 1.65942 14.8514L 0.261854 14.8514Z" transform="translate(8603.38 -11568.8)" fill="#B1BABE"></path>
            </g>
        </g>
    </g>
</svg>