<svg width="16" height="16" viewBox="0 0 16 16" version="1.1" xmlns="http://www.w3.org/2000/svg" xmlns:xlink="http://www.w3.org/1999/xlink">
    <title>Vector</title>
    <desc>Created using Figma</desc>
    <g id="Canvas" transform="translate(16229 14322)">
        <g id="Vector">
            <path fill-rule="evenodd" d="M 4.5 0L 11.5 0C 13.9853 0 16 2.01472 16 4.5L 16 11.5C 16 13.9853 13.9853 16 11.5 16L 4.5 16C 2.01472 16 0 13.9853 0 11.5L 0 4.5C 0 2.01472 2.01472 0 4.5 0ZM 4.5 2C 3.11929 2 2 3.11929 2 4.5L 2 11.5C 2 12.8807 3.11929 14 4.5 14L 11.5 14C 12.8807 14 14 12.8807 14 11.5L 14 4.5C 14 3.11929 12.8807 2 11.5 2L 4.5 2Z" transform="translate(-16229 -14322)" fill="#353535"></path>
            <path d="M 12.6547 4.05537C 12.6547 4.44785 12.3365 4.76602 11.944 4.76602C 11.5516 4.76602 11.2334 4.44785 11.2334 4.05537C 11.2334 3.66289 11.5516 3.34473 11.944 3.34473C 12.3365 3.34473 12.6547 3.66289 12.6547 4.05537Z" transform="translate(-16229 -14322)" fill="#353535"></path>
            <path fill-rule="evenodd" d="M 8.02085 5.40176C 6.58851 5.40176 5.40078 6.57278 5.40078 8.02183C 5.40078 9.47899 6.56369 10.6419 8.02085 10.6419C 9.4699 10.6419 10.6409 9.45417 10.6409 8.02183C 10.6409 6.59763 9.44505 5.40176 8.02085 5.40176ZM 8.02085 3.80176C 5.713 3.80176 3.80078 5.68101 3.80078 8.02183C 3.80078 10.3626 5.68003 12.2419 8.02085 12.2419C 10.3617 12.2419 12.2409 10.3297 12.2409 8.02183C 12.2409 5.71398 10.3287 3.80176 8.02085 3.80176Z" transform="translate(-16229 -14322)" fill="#353535"></path>
        </g>
    </g>
</svg>