<svg width="18" height="18" viewBox="0 0 18 18" version="1.1" xmlns="http://www.w3.org/2000/svg" xmlns:xlink="http://www.w3.org/1999/xlink">
    <title>Instagram_simple_icon</title>
    <desc>Created using Figma</desc>
    <g id="Canvas" transform="translate(-25914 9771)">
        <g id="Instagram_simple_icon">
            <g id="Vector">
                <path d="M 8.64995 1.57661C 10.9596 1.57661 11.2331 1.58553 12.1453 1.62763C 12.9887 1.66657 13.4467 1.80908 13.7515 1.92891C 14.1272 2.06918 14.4671 2.29284 14.7461 2.58345C 15.0334 2.8657 15.2545 3.20948 15.3932 3.58954C 15.5116 3.89786 15.6525 4.36117 15.691 5.21428C 15.7326 6.13697 15.7414 6.41369 15.7414 8.75012C 15.7414 11.0866 15.7326 11.3632 15.691 12.286C 15.6525 13.1391 15.5116 13.6023 15.3932 13.9107C 15.2492 14.2881 15.0288 14.6308 14.7461 14.9168C 14.4634 15.2028 14.1246 15.4258 13.7515 15.5713C 13.4467 15.6912 12.9887 15.8337 12.1453 15.8726C 11.2334 15.9147 10.9598 15.9236 8.64995 15.9236C 6.34007 15.9236 6.06661 15.9147 5.15455 15.8726C 4.31119 15.8337 3.85322 15.6911 3.54838 15.5713C 3.17267 15.4311 2.83282 15.2074 2.55381 14.9168C 2.26652 14.6345 2.04541 14.2908 1.90674 13.9107C 1.78829 13.6024 1.64737 13.1391 1.60891 12.286C 1.5673 11.3633 1.55847 11.0866 1.55847 8.75012C 1.55847 6.41369 1.5673 6.13704 1.60891 5.21428C 1.6474 4.36117 1.78829 3.8979 1.90674 3.58954C 2.04543 3.20946 2.26656 2.86566 2.55387 2.58342C 2.83289 2.29281 3.17274 2.06914 3.54845 1.92887C 3.85325 1.80904 4.31126 1.6665 5.15462 1.6276C 6.06675 1.5855 6.34031 1.57657 8.65002 1.57657L 8.64995 1.57661ZM 8.65002 -1.32497e-10C 6.30082 -1.32497e-10 6.00615 0.0100726 5.08368 0.0526555C 4.16296 0.0951689 3.5342 0.243063 2.984 0.459381C 2.40683 0.67909 1.88399 1.02351 1.45193 1.46862C 1.01181 1.90565 0.671233 2.43455 0.453956 3.01842C 0.240283 3.57502 0.0940805 4.21105 0.052225 5.14242C 0.00995743 6.07556 -1.30981e-10 6.37364 -1.30981e-10 8.75002C -1.30981e-10 11.1264 0.00995743 11.4245 0.052225 12.3576C 0.0942522 13.289 0.240455 13.925 0.454299 14.4816C 0.671497 15.0654 1.01198 15.5943 1.452 16.0314C 1.88406 16.4765 2.4069 16.8209 2.98407 17.0406C 3.5343 17.2569 4.16306 17.4048 5.08375 17.4473C 6.00635 17.4899 6.30092 17.5 8.65009 17.5C 10.9992 17.5 11.294 17.4899 12.2164 17.4473C 13.1371 17.4048 13.7659 17.2569 14.3161 17.0406C 14.8907 16.8158 15.4125 16.4721 15.8482 16.0314C 16.2838 15.5907 16.6236 15.0628 16.8459 14.4816C 17.0597 13.925 17.2059 13.2889 17.2479 12.3576C 17.29 11.4243 17.3 11.1264 17.3 8.75002C 17.3 6.37368 17.29 6.07556 17.2479 5.14242C 17.2059 4.21105 17.0597 3.57502 16.8459 3.01845C 16.6287 2.43461 16.2882 1.90572 15.8482 1.46866C 15.4161 1.02346 14.8932 0.678963 14.316 0.459207C 13.7658 0.243063 13.137 0.0951689 12.2163 0.0528292C 11.2938 0.0100726 10.9991 -1.32497e-10 8.64995 -1.32497e-10L 8.65002 -1.32497e-10Z" transform="translate(25914.1 -9770.75)" fill="#353535"></path>
            </g>
            <g id="Vector">
                <path d="M 4.44187 7.41981e-08C 3.56335 7.41981e-08 2.70456 0.263525 1.9741 0.757251C 1.24364 1.25098 0.674314 1.95273 0.338119 2.77376C 0.0019248 3.5948 -0.0860393 4.49824 0.0853513 5.36985C 0.256742 6.24146 0.679789 7.04208 1.301 7.67047C 1.9222 8.29887 2.71367 8.72681 3.57531 8.90018C 4.43695 9.07355 5.33006 8.98457 6.1417 8.64449C 6.95335 8.3044 7.64707 7.72849 8.13515 6.98958C 8.62323 6.25067 8.88374 5.38194 8.88374 4.49326C 8.88374 3.30157 8.41576 2.15869 7.58275 1.31604C 6.74974 0.473396 5.61993 7.41981e-08 4.44187 7.41981e-08ZM 4.44187 7.40991C 3.87161 7.4099 3.31416 7.23884 2.84001 6.91835C 2.36586 6.59786 1.99631 6.14234 1.77808 5.60939C 1.55986 5.07644 1.50276 4.49 1.61402 3.92423C 1.72528 3.35845 1.99989 2.83876 2.40312 2.43086C 2.80636 2.02297 3.32011 1.74519 3.87942 1.63265C 4.43872 1.52011 5.01845 1.57787 5.5453 1.79863C 6.07215 2.01938 6.52246 2.39322 6.83928 2.87286C 7.1561 3.3525 7.3252 3.9164 7.3252 4.49326C 7.32519 5.26681 7.02141 6.00867 6.48068 6.55564C 5.93995 7.10262 5.20657 7.40991 4.44187 7.40991Z" transform="translate(25918.3 -9766.49)" fill="#353535"></path>
            </g>
            <g id="Vector">
                <path d="M 1.03798 2.09997C 1.61123 2.09997 2.07595 1.62987 2.07595 1.04998C 2.07595 0.470094 1.61123 0 1.03798 0C 0.464718 0 0 0.470094 0 1.04998C 0 1.62987 0.464718 2.09997 1.03798 2.09997Z" transform="translate(25926.3 -9767.72)" fill="#353535"></path>
            </g>
        </g>
    </g>
</svg>