<svg width="24" height="24" viewBox="0 0 24 24" version="1.1" xmlns="http://www.w3.org/2000/svg" xmlns:xlink="http://www.w3.org/1999/xlink">
    <title>Group 2</title>
    <desc>Created using Figma</desc>
    <g id="Canvas" transform="translate(-56056 9292)">
        <g id="Group 2">
            <g id="Vector">
                <path d="M 3.51441 2.11813C 3.51441 2.90475 2.88098 3.53625 2.10721 3.53625L 2.10721 4.93625C 3.66099 4.93625 4.91441 3.67112 4.91441 2.11813L 3.51441 2.11813ZM 2.10721 3.53625C 1.33343 3.53625 0.7 2.90475 0.7 2.11813L -0.7 2.11813C -0.7 3.67112 0.553422 4.93625 2.10721 4.93625L 2.10721 3.53625ZM 0.7 2.11813C 0.7 1.3315 1.33343 0.7 2.10721 0.7L 2.10721 -0.7C 0.553422 -0.7 -0.7 0.565134 -0.7 2.11813L 0.7 2.11813ZM 2.10721 0.7C 2.88098 0.7 3.51441 1.3315 3.51441 2.11813L 4.91441 2.11813C 4.91441 0.565135 3.66099 -0.7 2.10721 -0.7L 2.10721 0.7Z" transform="translate(56061.6 -9287.21)" fill="#C8CFD1"></path>
            </g>
            <g id="Group">
                <g id="Group">
                    <g id="Vector">
                        <path d="M 21.8647 21.8223L 21.9245 22.5198L 22.5182 22.4689L 22.5628 21.8748L 21.8647 21.8223ZM 21.9931 20.1453L 22.6876 20.2334L 22.6886 20.2251L 21.9931 20.1453ZM 21.7524 19.4895L 22.2486 18.9957L 22.2481 18.9952L 21.7524 19.4895ZM 14.1513 11.8514L 13.6552 12.3452L 13.6557 12.3457L 14.1513 11.8514ZM 13.7716 10.0185L 13.1254 9.7492L 13.1247 9.75108L 13.7716 10.0185ZM 14.2797 6.10538L 13.5881 6.21335L 13.5882 6.21418L 14.2797 6.10538ZM 6.29353 0.0583384L 6.38314 0.752579L 6.38316 0.752575L 6.29353 0.0583384ZM 0.0297346 7.88456L 0.726996 7.8227L 0.72698 7.82252L 0.0297346 7.88456ZM 6.94612 14.4422L 6.96977 13.7426L 6.969 13.7426L 6.94612 14.4422ZM 10.1074 13.7865L 10.3843 14.4294L 10.3861 14.4286L 10.1074 13.7865ZM 11.9315 14.1466L 12.4276 13.6528L 11.9315 14.1466ZM 12.4824 14.6949L 12.9696 14.1921L 12.9639 14.1867L 12.4824 14.6949ZM 13.0976 16.2913L 12.3992 16.2438L 12.399 16.2467L 13.0976 16.2913ZM 13.0334 17.5491L 12.3343 17.5139L 12.3039 18.1165L 12.8955 18.2354L 13.0334 17.5491ZM 13.2153 17.5813L 13.0773 18.2676L 13.0942 18.271L 13.1112 18.2736L 13.2153 17.5813ZM 14.9323 17.834L 14.8283 18.5262L 14.8328 18.5269L 14.9323 17.834ZM 16.0931 19.0487L 15.3955 19.1076L 15.3957 19.1091L 16.0931 19.0487ZM 16.1466 19.8013L 15.4479 19.8456L 15.4483 19.8509L 16.1466 19.8013ZM 16.2214 20.715L 15.5239 20.7739L 15.5814 21.4556L 16.2643 21.4137L 16.2214 20.715ZM 17.4731 20.6398L 17.5101 21.3388L 17.5122 21.3387L 17.4731 20.6398ZM 18.9655 21.2096L 19.4964 20.7533L 19.4942 20.7507L 18.9655 21.2096ZM 19.6288 21.8761L 20.125 21.3823L 20.1161 21.3733L 20.1068 21.3647L 19.6288 21.8761ZM 19.8481 21.9997L 19.9021 22.6976L 19.9047 22.6974L 19.8481 21.9997ZM 22.5628 21.8748C 22.609 21.2597 22.6208 20.7599 22.6876 20.2334L 21.2987 20.0572C 21.2264 20.6272 21.2061 21.2454 21.1667 21.7699L 22.5628 21.8748ZM 22.6886 20.2251C 22.7146 19.9984 22.6992 19.7659 22.6108 19.5349C 22.5243 19.3091 22.3872 19.135 22.2486 18.9957L 21.2562 19.9833C 21.3102 20.0375 21.3095 20.0516 21.3033 20.0354C 21.3004 20.0278 21.2997 20.0223 21.2997 20.0226C 21.2998 20.0241 21.301 20.0369 21.2977 20.0654L 22.6886 20.2251ZM 22.2481 18.9952C 20.9808 17.7245 19.7148 16.4509 18.4483 15.177C 17.182 13.9031 15.9152 12.6288 14.647 11.3571L 13.6557 12.3457C 14.923 13.6165 16.189 14.89 17.4554 16.164C 18.7218 17.4378 19.9886 18.7121 21.2568 19.9838L 22.2481 18.9952ZM 14.6475 11.3577C 14.4512 11.1604 14.3674 10.9924 14.3374 10.8507C 14.308 10.7114 14.3167 10.5322 14.4185 10.2859L 13.1247 9.75108C 12.9376 10.2036 12.8687 10.6721 12.9677 11.1402C 13.0661 11.6059 13.3166 12.005 13.6552 12.3452L 14.6475 11.3577ZM 14.4177 10.2878C 14.9858 8.92468 15.2075 7.49859 14.9712 5.99659L 13.5882 6.21418C 13.7798 7.43201 13.6057 8.59674 13.1254 9.7492L 14.4177 10.2878ZM 14.9713 5.99742C 14.3147 1.79101 10.4164 -1.17981 6.20389 -0.635899L 6.38316 0.752575C 9.83056 0.307456 13.0465 2.74404 13.5881 6.21335L 14.9713 5.99742ZM 6.20391 -0.635902C 1.95622 -0.0876148 -1.04831 3.66678 -0.667511 7.9466L 0.72698 7.82252C 0.412395 4.28687 2.88534 1.20407 6.38314 0.752579L 6.20391 -0.635902ZM -0.667527 7.94642C -0.315432 11.915 2.95216 15.012 6.92324 15.1419L 6.969 13.7426C 3.70809 13.636 1.01679 11.0891 0.726996 7.8227L -0.667527 7.94642ZM 6.92246 15.1418C 8.16316 15.1838 9.30454 14.8944 10.3843 14.4294L 9.83055 13.1436C 8.88837 13.5493 7.95429 13.7759 6.96977 13.7426L 6.92246 15.1418ZM 10.3861 14.4286C 10.6444 14.3165 10.817 14.3074 10.9426 14.3325C 11.0699 14.3579 11.2308 14.4349 11.4353 14.6404L 12.4276 13.6528C 12.0865 13.3101 11.6885 13.0538 11.2167 12.9596C 10.7431 12.8651 10.2766 12.95 9.82879 13.1443L 10.3861 14.4286ZM 11.4353 14.6404C 11.6075 14.8134 11.8038 15.0162 12.001 15.203L 12.9639 14.1867C 12.7866 14.0188 12.6192 13.8453 12.4276 13.6528L 11.4353 14.6404ZM 11.9953 15.1976C 12.2986 15.4915 12.4278 15.8232 12.3992 16.2438L 13.796 16.3388C 13.8529 15.5016 13.5649 14.769 12.9695 14.1922L 11.9953 15.1976ZM 12.399 16.2467C 12.3719 16.6718 12.3551 17.1003 12.3343 17.5139L 13.7325 17.5843C 13.7545 17.1486 13.7698 16.7493 13.7962 16.3359L 12.399 16.2467ZM 12.8955 18.2354C 12.948 18.2459 12.9899 18.2529 13.0213 18.258C 13.0553 18.2636 13.066 18.2653 13.0773 18.2676L 13.3532 16.8951C 13.3111 16.8866 13.2709 16.8803 13.2474 16.8764C 13.2213 16.8721 13.199 16.8684 13.1713 16.8628L 12.8955 18.2354ZM 13.1112 18.2736C 13.3993 18.3168 13.687 18.3587 13.973 18.4003C 14.2594 18.442 14.544 18.4835 14.8283 18.5262L 15.0363 17.1417C 14.7483 17.0985 14.4605 17.0566 14.1746 17.0149C 13.8882 16.9733 13.6036 16.9318 13.3193 16.8891L 13.1112 18.2736ZM 14.8328 18.5269C 15.1556 18.5732 15.3702 18.807 15.3955 19.1076L 16.7906 18.9899C 16.709 18.022 15.9821 17.2775 15.0318 17.1411L 14.8328 18.5269ZM 15.3957 19.1091C 15.4163 19.347 15.4318 19.5916 15.448 19.8456L 16.8452 19.7569C 16.8292 19.5057 16.8127 19.245 16.7905 18.9884L 15.3957 19.1091ZM 15.4483 19.8509C 15.4702 20.158 15.4976 20.4623 15.5239 20.7739L 16.919 20.6562C 16.8918 20.3335 16.8658 20.0465 16.8448 19.7516L 15.4483 19.8509ZM 16.2643 21.4137C 16.7074 21.3866 17.1075 21.3601 17.5101 21.3388L 17.4362 19.9408C 17.0258 19.9625 16.6128 19.9898 16.1786 20.0164L 16.2643 21.4137ZM 17.5122 21.3387C 17.9399 21.3148 18.216 21.4139 18.4369 21.6684L 19.4942 20.7507C 18.9127 20.0807 18.1618 19.9003 17.4341 19.9409L 17.5122 21.3387ZM 18.4347 21.6658C 18.6671 21.9362 18.9257 22.177 19.1508 22.3875L 20.1068 21.3647C 19.8719 21.1451 19.6705 20.9559 19.4964 20.7533L 18.4347 21.6658ZM 19.1326 22.3698C 19.1872 22.4247 19.2665 22.4952 19.364 22.556C 19.438 22.6022 19.6382 22.718 19.9021 22.6976L 19.7942 21.3018C 19.9017 21.2935 19.983 21.3159 20.0238 21.3302C 20.0666 21.3451 20.0941 21.3614 20.1049 21.3681C 20.1171 21.3757 20.1233 21.3809 20.1241 21.3815C 20.1248 21.3822 20.1251 21.3824 20.1251 21.3824C 20.125 21.3823 20.1249 21.3822 20.125 21.3823L 19.1326 22.3698ZM 19.9047 22.6974C 20.566 22.6438 21.2492 22.5776 21.9245 22.5198L 21.805 21.1249C 21.1002 21.1853 20.4569 21.2481 19.7916 21.302L 19.9047 22.6974Z" transform="translate(56057 -9290.88)" fill="#C8CFD1"></path>
                    </g>
                </g>
            </g>
        </g>
    </g>
</svg>