<svg width="23" height="15" viewBox="0 0 23 15" version="1.1" xmlns="http://www.w3.org/2000/svg" xmlns:xlink="http://www.w3.org/1999/xlink">
    <title>Group 3.3</title>
    <desc>Created using Figma</desc>
    <g id="Canvas" transform="translate(-56056 9366)">
        <g id="Group 3.3">
            <g id="Rectangle">
                <path d="M 0 0L 0 -0.7L -0.7 -0.7L -0.7 0L 0 0ZM 20.6303 0L 21.3303 0L 21.3303 -0.7L 20.6303 -0.7L 20.6303 0ZM 20.6303 12.9894L 20.6303 13.6894L 21.3303 13.6894L 21.3303 12.9894L 20.6303 12.9894ZM 0 12.9894L -0.7 12.9894L -0.7 13.6894L 0 13.6894L 0 12.9894ZM 0 0.7L 20.6303 0.7L 20.6303 -0.7L 0 -0.7L 0 0.7ZM 19.9303 0L 19.9303 12.9894L 21.3303 12.9894L 21.3303 0L 19.9303 0ZM 20.6303 12.2894L 0 12.2894L 0 13.6894L 20.6303 13.6894L 20.6303 12.2894ZM 0.7 12.9894L 0.7 0L -0.7 0L -0.7 12.9894L 0.7 12.9894Z" transform="matrix(1 0 -1.69348e-10 1 56057 -9365)" fill="#C8CFD1"></path>
            </g>
            <g id="Vector">
                <path d="M 9.93308 6.49471L 9.55001 7.08059L 9.91297 7.31791L 10.2871 7.0986L 9.93308 6.49471ZM -0.383074 0.585879L 9.55001 7.08059L 10.3162 5.90883L 0.383074 -0.585879L -0.383074 0.585879ZM 10.2871 7.0986L 21.3663 0.603889L 20.6583 -0.603889L 9.57908 5.89082L 10.2871 7.0986Z" transform="matrix(1 0 -1.69348e-10 1 56057 -9364.62)" fill="#C8CFD1"></path>
            </g>
        </g>
    </g>
</svg>