<svg width="295" height="87" viewBox="0 0 295 87" version="1.1" xmlns="http://www.w3.org/2000/svg" xmlns:xlink="http://www.w3.org/1999/xlink">
    <title>Group 4</title>
    <desc>Created using Figma</desc>
    <g id="Canvas" transform="translate(16909 20484)">
        <g id="Group 4">
            <g id="лого">
                <g id="logo">
                    <g id="Group">
                        <g id="Group">
                            <g id="Group">
                                <g id="Vector">
                                    <path d="M 1.02063 4.35442C 1.52123 4.37494 2.28016 4.32402 2.61415 3.89692C 3.55115 2.69997 4.63185 1.67402 5.78667 0.676941C 6.21926 0.303038 5.60784 0.0644074 5.26697 0.0104498C 4.74267 -0.0739065 3.9501 0.370674 3.48313 0.68834C 2.05775 1.65426 1.06648 2.49706 0.0591567 3.78444C -0.266427 4.20015 0.850195 4.34682 1.02063 4.35442Z" transform="translate(-16694.9 -20464.7)" fill="#353535"></path>
                                </g>
                                <g id="Vector">
                                    <path d="M 151.169 31.7453C 151.09 32.962 150.599 34.1172 150.055 35.1963C 149.04 37.2118 147.37 38.8389 145.609 40.2676C 144.482 36.8287 145.848 32.5273 148.587 30.198C 150.376 28.6796 151.288 29.913 151.169 31.7453ZM 77.2748 42.8431C 76.1742 41.808 75.9113 40.2304 75.8249 38.8275C 75.9411 35.9867 76.9492 33.608 79.0074 31.5447C 80.1263 30.4245 81.6067 29.7436 83.1215 29.2884C 85.2867 28.6173 87.1676 29.3598 88.7581 31.5143C 88.635 32.3495 88.0289 33.2934 87.7668 34.1088C 87.3732 35.3308 87.3701 36.6479 87.4015 37.9125C 87.4611 40.1962 87.1003 40.6514 85.3173 41.9547C 83.0412 43.619 79.9788 45.3852 77.2748 42.8431ZM 106.16 32.2917C 104.945 28.8293 107.095 23.5506 110.263 21.5717C 109.507 25.3684 108.011 28.8742 106.16 32.2917ZM 115.775 45.3328C 113.726 47.8186 109.231 47.7685 106.758 46.0228C 105.59 45.2005 106.362 45.3328 107.2 45.3328L 110.547 45.3328L 115.775 45.3328ZM 122.307 29.7565C 122.305 24.9155 122.321 20.0745 122.322 15.2335C 122.324 12.9141 122.394 10.6061 122.605 8.2958C 122.703 7.22424 123.122 6.25909 123.553 5.28329C 124.714 2.6538 127.668 1.19163 129.103 4.53396C 130.933 8.78825 130.014 14.1475 128.67 18.4087C 128.086 20.2554 127.213 22.0094 126.281 23.7125C 125.786 24.6184 123.737 28.5991 122.307 29.7565ZM 159.333 41.2707C 157.306 42.1219 155.328 43.0635 153.241 43.7794C 151.217 44.4725 145.531 43.3941 148.094 40.8984C 148.857 40.1536 149.576 39.3891 150.271 38.5865C 152.462 36.0513 154.537 31.9748 153.195 28.6652C 152.728 27.5093 151.045 27.1263 149.926 27.2357C 146.593 27.5594 144.452 31.4976 143.322 34.1157C 142.56 35.878 142.417 37.7939 142.495 39.6756C 142.53 40.5237 143.018 41.5595 141.791 42.1386C 140.192 42.8925 137.719 44.1822 136.263 41.7222C 134.495 38.7347 135.845 33.1931 132.701 30.9732C 131.345 30.0149 130.023 29.7337 128.375 30.0582C 126.828 30.3645 125.746 31.9019 124.902 33.0342C 124.711 33.2881 123.549 35.3506 122.759 36.8265C 122.757 35.4555 122.751 34.0822 122.773 32.7143C 122.792 31.3912 125.246 29.1082 126.025 27.9972C 128.382 24.6351 130.238 21.1126 131.447 17.2148C 133.101 11.8768 134.146 3.34005 128.224 0.176312C 128.161 0.144394 128.072 0.120835 127.976 0.102596C 127.834 0.0417982 127.69 0 127.584 0C 120.298 0 119.83 8.10201 119.758 13.3701C 119.686 18.3737 119.799 23.3849 119.834 28.3893C 119.852 30.901 119.875 33.4119 119.899 35.9251C 119.916 37.6442 120.838 41.5907 118.845 42.6448C 117.421 40.2083 115.039 38.9027 112.57 37.436C 110.404 36.1448 107.301 35.3179 108.607 32.4445C 109.703 30.0324 110.809 27.6278 111.73 25.1465C 112.178 23.9435 114.284 19.6246 112.175 18.7871C 109.531 17.7338 107.713 20.7349 106.461 22.4365C 104.763 24.7422 102.797 28.495 103.224 31.433C 103.314 32.0638 103.351 32.6793 103.701 33.244C 104.952 35.286 103.959 35.9631 102.958 37.3964C 101.076 40.0974 99.7071 42.1782 96.1548 42.6653C 87.27 43.8805 93.1649 35.1333 92.4388 31.4634C 91.968 29.0778 89.0531 27.7015 86.9077 27.1126C 81.0098 25.4923 73.7346 32.0706 73.3066 38.5113C 73.2111 39.9507 73.1163 41.8704 71.8484 42.3187C 67.0403 44.0196 64.6672 39.4696 64.1047 36.144C 63.2059 30.8356 65.2855 25.4361 66.6581 20.3724C 67.5852 16.9533 72.0387 6.08201 64.3095 6.76598C 56.0859 7.49251 51.0179 15.6409 47.1935 21.8825C 44.948 25.547 43.1802 29.4533 41.0632 33.1824C 40.2462 34.6248 37.9449 39.0843 37.7982 34.7784C 37.7233 32.6018 38.619 30.2026 39.0867 28.0899C 40.0444 23.7604 40.892 19.427 41.1679 14.9987C 41.2871 13.0851 41.0326 11.3539 39.0241 10.5552C 34.3436 8.6925 28.8523 16.1387 26.4677 18.9581C 21.3898 24.9603 17.732 31.9414 12.9591 38.1458C 13.7073 34.3193 17.5837 23.8561 17.9628 22.4707C 19.1062 18.3061 20.4819 11.4086 17.6594 7.53279C 16.0299 5.29697 13.3473 3.97007 10.4752 4.19806C 7.2713 4.44884 1.10585 6.3024 0.0052905 9.64474C -0.0245164 9.73517 0.0786614 9.82409 0.139039 9.86969C 0.238396 9.94644 0.336224 10.0217 0.434816 10.0992C 0.694671 10.2983 1.2182 10.4609 1.52621 10.2846C 5.20087 8.18484 10.5783 3.17818 14.6772 8.08832C 17.5562 11.5378 16.7285 17.559 15.8381 21.5261C 14.882 25.7895 13.2396 29.9814 11.8646 34.1331C 11.1676 36.2337 8.76394 40.4621 10.2023 42.5908C 10.3766 42.8477 10.894 42.9419 11.1821 42.9168C 13.4146 42.7314 14.4425 40.1331 15.4881 38.4946C 17.5562 35.2473 19.5968 31.9878 21.7483 28.7906C 23.9892 25.4619 26.3431 22.2146 28.957 19.1481C 30.1546 17.7429 31.4546 16.4259 32.7898 15.1454C 33.5847 14.3839 34.4697 13.7432 35.3731 13.1117C 38.9003 10.6509 38.376 15.9601 38.3645 16.7671C 38.3041 20.662 37.1814 24.5287 36.3483 28.311C 35.7201 31.1655 34.1602 35.1667 35.1698 38.0371C 35.4648 38.8776 36.7396 39.5183 37.6017 39.5654C 40.0589 39.7007 41.4186 38.047 42.617 36.1638C 46.9099 29.4077 49.6147 21.8863 54.6513 15.5345C 55.8864 13.9727 63.6553 5.49684 65.8404 10.2284C 66.652 11.9862 65.5133 14.4591 65.044 16.1842C 64.4203 18.4649 63.7569 20.7327 63.0867 23.0012C 61.4022 28.6903 58.958 36.6646 63.3557 41.7548C 66.1094 44.9452 70.6721 45.006 74.1939 43.2702C 78.5343 48.1826 84.193 45.9993 88.7244 41.9509C 90.6871 44.3653 93.3598 45.0751 96.65 44.7354C 101.53 44.2384 104.088 39.6809 106.506 36.0863C 108.508 37.3569 110.517 38.6207 112.505 39.9119C 112.904 40.1703 117.336 43.502 115.499 43.5051C 113.898 43.5081 112.298 43.5142 110.699 43.4975C 110.107 43.4937 100.293 42.5946 102.111 45.0972C 104.009 47.7099 107.465 48.8294 110.631 49.0315C 112.569 49.1554 114.627 48.6052 116.336 47.7578C 118.095 46.8831 118.476 46.0091 119.701 44.7689C 119.323 46.6566 118.899 48.5497 121.121 49.1638C 123.554 49.8356 123.103 45.7888 123.22 44.5477C 123.427 42.3385 123.928 40.2995 124.773 38.2392C 125.205 37.1897 125.768 36.1858 126.304 35.1842C 126.487 34.8498 126.671 34.5162 126.854 34.1818C 128.588 31.0089 131.25 32.5737 131.596 33.7752C 132.836 37.1799 132.314 41.3916 135.092 44.1434C 136.253 45.2963 138.098 45.4179 139.634 45.2378C 140.162 45.1755 143.867 43.4747 143.97 43.5917C 144.717 44.4223 145.66 45.0409 146.652 45.5615C 150.957 47.8239 157.998 45.5235 160.477 41.7222C 160.669 41.4273 159.518 41.1917 159.333 41.2707Z" transform="translate(-16845 -20484)" fill="#353535"></path>
                                </g>
                            </g>
                        </g>
                    </g>
                </g>
                <g id="logo">
                    <g id="Group">
                        <g id="Group">
                            <g id="Group">
                                <g id="Vector">
                                    <path d="M 1.02063 4.35442C 1.52123 4.37494 2.28016 4.32402 2.61415 3.89692C 3.55115 2.69997 4.63185 1.67402 5.78667 0.676941C 6.21926 0.303038 5.60784 0.0644074 5.26697 0.0104498C 4.74267 -0.0739065 3.9501 0.370674 3.48313 0.68834C 2.05775 1.65426 1.06648 2.49706 0.0591567 3.78444C -0.266427 4.20015 0.850195 4.34682 1.02063 4.35442Z" transform="translate(-16694.4 -20464)" fill="#353535"></path>
                                </g>
                                <g id="Vector">
                                    <path d="M 151.169 31.7453C 151.09 32.962 150.599 34.1172 150.055 35.1963C 149.04 37.2118 147.37 38.8389 145.609 40.2676C 144.482 36.8287 145.848 32.5273 148.587 30.198C 150.376 28.6796 151.288 29.913 151.169 31.7453ZM 77.2748 42.8431C 76.1742 41.808 75.9113 40.2304 75.8249 38.8275C 75.9411 35.9867 76.9492 33.608 79.0074 31.5447C 80.1263 30.4245 81.6067 29.7436 83.1215 29.2884C 85.2867 28.6173 87.1676 29.3598 88.7581 31.5143C 88.635 32.3495 88.0289 33.2934 87.7668 34.1088C 87.3732 35.3308 87.3701 36.6479 87.4015 37.9125C 87.4611 40.1962 87.1003 40.6514 85.3173 41.9547C 83.0412 43.619 79.9788 45.3852 77.2748 42.8431ZM 106.16 32.2917C 104.945 28.8293 107.095 23.5506 110.263 21.5717C 109.507 25.3684 108.011 28.8742 106.16 32.2917ZM 115.775 45.3328C 113.726 47.8186 109.231 47.7685 106.758 46.0228C 105.59 45.2005 106.362 45.3328 107.2 45.3328L 110.547 45.3328L 115.775 45.3328ZM 122.307 29.7565C 122.305 24.9155 122.321 20.0745 122.322 15.2335C 122.324 12.9141 122.394 10.6061 122.605 8.2958C 122.703 7.22424 123.122 6.25909 123.553 5.28329C 124.714 2.6538 127.668 1.19163 129.103 4.53396C 130.933 8.78825 130.014 14.1475 128.67 18.4087C 128.086 20.2554 127.213 22.0094 126.281 23.7125C 125.786 24.6184 123.737 28.5991 122.307 29.7565ZM 159.333 41.2707C 157.306 42.1219 155.328 43.0635 153.241 43.7794C 151.217 44.4725 145.531 43.3941 148.094 40.8984C 148.857 40.1536 149.576 39.3891 150.271 38.5865C 152.462 36.0513 154.537 31.9748 153.195 28.6652C 152.728 27.5093 151.045 27.1263 149.926 27.2357C 146.593 27.5594 144.452 31.4976 143.322 34.1157C 142.56 35.878 142.417 37.7939 142.495 39.6756C 142.53 40.5237 143.018 41.5595 141.791 42.1386C 140.192 42.8925 137.719 44.1822 136.263 41.7222C 134.495 38.7347 135.845 33.1931 132.701 30.9732C 131.345 30.0149 130.023 29.7337 128.375 30.0582C 126.828 30.3645 125.746 31.9019 124.902 33.0342C 124.711 33.2881 123.549 35.3506 122.759 36.8265C 122.757 35.4555 122.751 34.0822 122.773 32.7143C 122.792 31.3912 125.246 29.1082 126.025 27.9972C 128.382 24.6351 130.238 21.1126 131.447 17.2148C 133.101 11.8768 134.146 3.34005 128.224 0.176312C 128.161 0.144394 128.072 0.120835 127.976 0.102596C 127.834 0.0417982 127.69 0 127.584 0C 120.298 0 119.83 8.10201 119.758 13.3701C 119.686 18.3737 119.799 23.3849 119.834 28.3893C 119.852 30.901 119.875 33.4119 119.899 35.9251C 119.916 37.6442 120.838 41.5907 118.845 42.6448C 117.421 40.2083 115.039 38.9027 112.57 37.436C 110.404 36.1448 107.301 35.3179 108.607 32.4445C 109.703 30.0324 110.809 27.6278 111.73 25.1465C 112.178 23.9435 114.284 19.6246 112.175 18.7871C 109.531 17.7338 107.713 20.7349 106.461 22.4365C 104.763 24.7422 102.797 28.495 103.224 31.433C 103.314 32.0638 103.351 32.6793 103.701 33.244C 104.952 35.286 103.959 35.9631 102.958 37.3964C 101.076 40.0974 99.7071 42.1782 96.1548 42.6653C 87.27 43.8805 93.1649 35.1333 92.4388 31.4634C 91.968 29.0778 89.0531 27.7015 86.9077 27.1126C 81.0098 25.4923 73.7346 32.0706 73.3066 38.5113C 73.2111 39.9507 73.1163 41.8704 71.8484 42.3187C 67.0403 44.0196 64.6672 39.4696 64.1047 36.144C 63.2059 30.8356 65.2855 25.4361 66.6581 20.3724C 67.5852 16.9533 72.0387 6.08201 64.3095 6.76598C 56.0859 7.49251 51.0179 15.6409 47.1935 21.8825C 44.948 25.547 43.1802 29.4533 41.0632 33.1824C 40.2462 34.6248 37.9449 39.0843 37.7982 34.7784C 37.7233 32.6018 38.619 30.2026 39.0867 28.0899C 40.0444 23.7604 40.892 19.427 41.1679 14.9987C 41.2871 13.0851 41.0326 11.3539 39.0241 10.5552C 34.3436 8.6925 28.8523 16.1387 26.4677 18.9581C 21.3898 24.9603 17.732 31.9414 12.9591 38.1458C 13.7073 34.3193 17.5837 23.8561 17.9628 22.4707C 19.1062 18.3061 20.4819 11.4086 17.6594 7.53279C 16.0299 5.29697 13.3473 3.97007 10.4752 4.19806C 7.2713 4.44884 1.10585 6.3024 0.0052905 9.64474C -0.0245164 9.73517 0.0786614 9.82409 0.139039 9.86969C 0.238396 9.94644 0.336224 10.0217 0.434816 10.0992C 0.694671 10.2983 1.2182 10.4609 1.52621 10.2846C 5.20087 8.18484 10.5783 3.17818 14.6772 8.08832C 17.5562 11.5378 16.7285 17.559 15.8381 21.5261C 14.882 25.7895 13.2396 29.9814 11.8646 34.1331C 11.1676 36.2337 8.76394 40.4621 10.2023 42.5908C 10.3766 42.8477 10.894 42.9419 11.1821 42.9168C 13.4146 42.7314 14.4425 40.1331 15.4881 38.4946C 17.5562 35.2473 19.5968 31.9878 21.7483 28.7906C 23.9892 25.4619 26.3431 22.2146 28.957 19.1481C 30.1546 17.7429 31.4546 16.4259 32.7898 15.1454C 33.5847 14.3839 34.4697 13.7432 35.3731 13.1117C 38.9003 10.6509 38.376 15.9601 38.3645 16.7671C 38.3041 20.662 37.1814 24.5287 36.3483 28.311C 35.7201 31.1655 34.1602 35.1667 35.1698 38.0371C 35.4648 38.8776 36.7396 39.5183 37.6017 39.5654C 40.0589 39.7007 41.4186 38.047 42.617 36.1638C 46.9099 29.4077 49.6147 21.8863 54.6513 15.5345C 55.8864 13.9727 63.6553 5.49684 65.8404 10.2284C 66.652 11.9862 65.5133 14.4591 65.044 16.1842C 64.4203 18.4649 63.7569 20.7327 63.0867 23.0012C 61.4022 28.6903 58.958 36.6646 63.3557 41.7548C 66.1094 44.9452 70.6721 45.006 74.1939 43.2702C 78.5343 48.1826 84.193 45.9993 88.7244 41.9509C 90.6871 44.3653 93.3598 45.0751 96.65 44.7354C 101.53 44.2384 104.088 39.6809 106.506 36.0863C 108.508 37.3569 110.517 38.6207 112.505 39.9119C 112.904 40.1703 117.336 43.502 115.499 43.5051C 113.898 43.5081 112.298 43.5142 110.699 43.4975C 110.107 43.4937 100.293 42.5946 102.111 45.0972C 104.009 47.7099 107.465 48.8294 110.631 49.0315C 112.569 49.1554 114.627 48.6052 116.336 47.7578C 118.095 46.8831 118.476 46.0091 119.701 44.7689C 119.323 46.6566 118.899 48.5497 121.121 49.1638C 123.554 49.8356 123.103 45.7888 123.22 44.5477C 123.427 42.3385 123.928 40.2995 124.773 38.2392C 125.205 37.1897 125.768 36.1858 126.304 35.1842C 126.487 34.8498 126.671 34.5162 126.854 34.1818C 128.588 31.0089 131.25 32.5737 131.596 33.7752C 132.836 37.1799 132.314 41.3916 135.092 44.1434C 136.253 45.2963 138.098 45.4179 139.634 45.2378C 140.162 45.1755 143.867 43.4747 143.97 43.5917C 144.717 44.4223 145.66 45.0409 146.652 45.5615C 150.957 47.8239 157.998 45.5235 160.477 41.7222C 160.669 41.4273 159.518 41.1917 159.333 41.2707Z" transform="translate(-16844.5 -20483.2)" fill="#353535"></path>
                                </g>
                            </g>
                        </g>
                    </g>
                </g>
            </g>
            <g id="Group">
                <g id="Group">
                    <g id="Vector">
                        <path d="M 7.16715 1.14286L 3.72692 6.57143L 10.8941 3.71429L 12.6142 4.85714L 7.16715 12.5714L 5.44704 11.4286L 8.88727 6.28571L 1.72012 9.14286L 0 8L 5.16035 0L 7.16715 1.14286Z" transform="translate(-16909 -20443)" fill="#353535"></path>
                    </g>
                    <g id="Vector">
                        <path d="M 4.87366 4L 8.3139 5.71429L 9.74733 2.85714L 11.7541 4L 7.16715 12L 5.16035 11.1429L 7.16715 7.71428L 4.0136 5.71429L 2.0068 9.14286L -1.36703e-07 8.28571L 4.58698 -1.26883e-15L 6.59378 1.14286L 4.87366 4Z" transform="translate(-16899.5 -20437.3)" fill="#353535"></path>
                    </g>
                    <g id="Vector">
                        <path d="M 5.44704 3.42857L 2.0068 10.2857L 2.73405e-07 9.42857L 3.44023 2.57143L 1.43343 1.71429L 2.29349 1.26883e-15L 8.02721 2.85714L 7.16715 4.28571L 5.44704 3.42857Z" transform="translate(-16889.2 -20433)" fill="#353535"></path>
                    </g>
                    <g id="Vector">
                        <path d="M 8.02721 4L 5.16035 2.57143L 4.30029 4.28571L 7.16715 5.42857L 6.30709 7.14286L 3.44023 6L 2.58018 8L 5.44704 9.42857L 4.58698 11.1429L -5.4681e-07 8.57143L 4.01361 -2.72478e-07L 8.88727 2.28571L 8.02721 4Z" transform="translate(-16884.1 -20429.9)" fill="#353535"></path>
                    </g>
                    <g id="Vector">
                        <path d="M 6.59378 1.14286C 7.45384 1.42857 8.3139 2 8.60058 2.85714C 9.17396 3.71429 8.88727 4.85714 8.60058 5.42857C 8.02721 6.57143 7.45384 6.85714 6.88047 7.14286C 6.02041 7.71429 4.87366 7.14286 4.30029 7.14286L 3.15355 6.57143L 2.0068 9.71429L 1.09362e-06 8.85714L 3.72692 -2.72478e-07L 6.59378 1.14286ZM 3.72692 4.85714L 4.58698 5.14286C 4.87366 5.14286 5.44704 5.42857 5.73372 5.14286C 6.02041 5.14286 6.30709 4.85714 6.30709 4.28571C 6.59378 4 6.30709 3.42857 6.30709 3.42857C 6.02041 3.14286 5.73372 2.85714 5.16035 2.57143L 4.58698 2.28571L 3.72692 4.85714Z" transform="translate(-16877.2 -20427)" fill="#353535"></path>
                    </g>
                    <g id="Vector">
                        <path d="M 4.0136 4.28572L 7.74052 5.71429L 8.88727 2.28571L 10.8941 3.14286L 7.74052 12L 5.73372 11.1429L 7.16715 7.42857L 3.44023 6L 2.0068 9.71429L 5.4681e-07 8.85714L 3.15355 -2.72478e-07L 5.16035 0.857143L 4.0136 4.28572Z" transform="translate(-16869.4 -20424.1)" fill="#353535"></path>
                    </g>
                    <g id="Vector">
                        <path d="M 7.45384 3.42857L 4.30029 2.57143L 3.72692 4.28571L 6.59378 5.14286L 6.02041 6.85714L 3.15354 6L 2.58018 8L 5.73372 8.85714L 5.16035 10.8571L 2.18724e-06 9.14286L 2.86686 5.44957e-07L 8.02721 1.71428L 7.45384 3.42857Z" transform="translate(-16859.7 -20420.7)" fill="#353535"></path>
                    </g>
                    <g id="Vector">
                        <path d="M 4.01361 2.85714L 2.0068 10.2857L 2.18724e-06 9.71428L 2.0068 2.28571L 2.18724e-06 1.71429L 0.573371 -5.07531e-15L 6.59378 1.71429L 6.02041 3.42857L 4.01361 2.85714Z" transform="translate(-16851.1 -20418.7)" fill="#353535"></path>
                    </g>
                    <g id="Vector">
                        <path d="M 0.286684 -1.08991e-06L 3.72692 0.857142L 3.15354 2.57143L 2.18724e-06 1.71429L 0.286684 -1.08991e-06Z" transform="translate(-16845.4 -20413.3)" fill="#353535"></path>
                    </g>
                    <g id="Vector">
                        <path d="M 0 8.85714L 3.72692 -5.44957e-07L 5.44703 0.285715L 6.59378 6.28571L 10.3207 1.14286L 12.0408 1.42857L 11.4674 11.1429L 9.17396 10.5714L 9.74733 4.85714L 6.02041 9.71429L 5.16035 9.42857L 4.30029 4L 2.29349 9.42857L 0 8.85714Z" transform="translate(-16841.6 -20415.3)" fill="#353535"></path>
                    </g>
                    <g id="Vector">
                        <path d="M 6.88047 8L 3.44023 7.42857L 2.29349 9.14286L 1.09362e-06 8.57143L 5.73372 5.44957e-07L 7.74052 0.285713L 9.74733 10.2857L 7.45384 9.71429L 6.88047 8ZM 6.88047 6.28571L 6.30709 2.85714L 4.58698 5.71429L 6.88047 6.28571Z" transform="translate(-16829.9 -20412.1)" fill="#353535"></path>
                    </g>
                    <g id="Vector">
                        <path d="M 6.59378 2.57143L 3.44023 2.28571L 2.29348 9.71429L -2.18724e-06 9.42857L 1.43343 -5.44957e-07L 6.59378 0.857143L 6.59378 2.57143Z" transform="translate(-16819.3 -20411)" fill="#353535"></path>
                    </g>
                    <g id="Vector">
                        <path d="M 6.59378 8L 3.15354 7.42857L 2.29349 9.14286L 0 8.85714L 5.16035 -5.44957e-07L 7.16715 0.285715L 9.46064 10.2857L 7.16715 10L 6.59378 8ZM 6.3071 6L 5.73372 2.57143L 4.01361 5.42857L 6.3071 6Z" transform="translate(-16814.4 -20409.6)" fill="#353535"></path>
                    </g>
                    <g id="Vector">
                        <path d="M 0.57337 0.785714C 1.14674 0.499999 1.43343 0.214286 2.0068 0.214286C 2.58017 -0.0714286 3.15355 -0.0714286 4.01361 0.214286C 4.87366 0.214286 5.73373 0.499999 6.59379 1.35714C 7.16716 1.92857 7.16715 2.5 7.16715 3.35714C 7.16715 3.92857 6.88047 4.21429 6.59379 4.5C 6.3071 4.78571 6.0204 5.07143 5.73372 5.07143C 6.0204 5.35714 6.59378 5.35714 6.88047 5.92857C 7.16715 6.21429 7.45384 6.78572 7.45384 7.64286C 7.45384 8.5 6.88047 9.07143 6.59379 9.35714C 5.73373 10.2143 4.58698 10.2143 3.72692 9.92857C 2.86687 9.92857 2.29348 9.64286 1.43343 9.35714C 0.860054 9.07143 0.573368 8.78571 -4.37448e-06 8.21429L 1.43343 6.78571C 1.72011 7.07143 2.00681 7.35714 2.29349 7.64286C 2.58018 7.92857 3.15354 7.92857 3.44023 8.21429C 3.72692 8.21429 4.30029 8.21428 4.58698 7.92857C 4.87367 7.64286 5.16035 7.35714 5.16035 7.07143C 5.16035 6.78571 5.16035 6.5 4.87366 6.21429C 4.58698 5.92857 4.30029 5.64286 3.15355 5.64286L 2.86686 5.64286L 3.15355 3.92857L 3.44023 3.92857C 4.0136 3.92857 4.58698 3.92857 5.16035 3.64286C 5.44704 3.64286 5.44704 3.35714 5.44704 3.07143C 5.44704 2.78571 5.44704 2.5 5.16035 2.21428C 4.87367 1.92857 4.58697 1.92857 4.30029 1.92857C 4.0136 1.92857 3.44024 1.92857 3.15355 1.92857C 2.86686 1.92857 2.58018 2.21429 2.29349 2.5L 0.57337 0.785714Z" transform="translate(-16804.1 -20408.9)" fill="#353535"></path>
                    </g>
                    <g id="Vector">
                        <path d="M 3.15355 0.285715L 2.58017 6.57143L 7.45384 0.571427L 9.46064 0.857143L 8.60059 10.5714L 6.30709 10.2857L 6.88046 4L 2.0068 10L 4.37448e-06 9.71429L 0.86006 -5.44957e-07L 3.15355 0.285715Z" transform="translate(-16796 -20408.1)" fill="#353535"></path>
                    </g>
                    <g id="Vector">
                        <path d="M 2.58017 3.71428L 6.30709 4L 6.59379 0.285714L 8.88727 0.285714L 8.3139 9.71429L 6.02041 9.71429L 6.30709 5.71429L 2.58017 5.42857L 2.29349 9.42857L -4.37448e-06 9.42857L 0.57337 1.08991e-06L 2.86686 1.08991e-06L 2.58017 3.71428Z" transform="translate(-16785.4 -20407)" fill="#353535"></path>
                    </g>
                    <g id="Vector">
                        <path d="M 2.58018 3.71429L 6.30709 3.71429L 6.30709 5.44957e-07L 8.60058 5.44957e-07L 8.3139 9.42857L 6.02041 9.42857L 6.02041 5.42857L 2.29348 5.42857L 2.29348 9.42857L -2.18724e-06 9.42857L 0.286691 5.44957e-07L 2.58018 5.44957e-07L 2.58018 3.71429Z" transform="translate(-16772 -20406.4)" fill="#353535"></path>
                    </g>
                    <g id="Vector">
                        <path d="M 6.59379 8L 2.86686 8L 2.29349 9.71429L -4.37448e-06 9.71429L 3.72692 -5.44957e-07L 5.73372 -5.44957e-07L 9.74733 9.42857L 7.45384 9.42857L 6.59379 8ZM 6.02041 6.28571L 4.87366 3.14286L 3.72692 6.28571L 6.02041 6.28571Z" transform="translate(-16762.5 -20406.7)" fill="#353535"></path>
                    </g>
                    <g id="Vector">
                        <path d="M 4.01361 2.28571L 4.30029 10L 2.0068 10L 2.0068 2.28571L -2.18724e-06 2.28571L -2.18724e-06 0.285714L 6.30709 1.08991e-06L 6.30709 2L 4.01361 2.28571Z" transform="translate(-16753.3 -20407)" fill="#353535"></path>
                    </g>
                    <g id="Vector">
                        <path d="M 2.29349 0.285714L 4.58698 4.57143L 6.30709 1.08991e-06L 8.60058 1.08991e-06L 4.87366 9.71429L 2.58017 9.71429L 3.72692 6.85714L -4.37448e-06 0.285714L 2.29349 0.285714Z" transform="translate(-16746.7 -20407)" fill="#353535"></path>
                    </g>
                    <g id="Vector">
                        <path d="M 3.44023 -1.08991e-06C 4.30029 -1.08991e-06 5.16035 1.06437e-06 6.02041 0.57143C 6.88047 1.14286 7.16716 2.28571 7.16716 2.85714C 7.16716 4 6.88047 4.85714 6.59378 5.14286C 6.02041 6 4.87367 6 4.3003 6.28572L 2.86687 6.28572L 3.15355 9.71429L 0.86006 10L 4.37448e-06 0.57143L 3.44023 -1.08991e-06ZM 2.58017 4.57143L 3.44023 4.57143C 3.72691 4.57143 4.30029 4.57143 4.58698 4C 4.87366 3.71429 4.87366 3.42857 4.87366 3.14286C 4.87366 2.85714 4.58698 2.28571 4.3003 2.28571C 4.01361 1.71429 3.44023 1.71429 3.15355 2L 2.29349 2L 2.58017 4.57143Z" transform="translate(-16737.3 -20407.6)" fill="#353535"></path>
                    </g>
                    <g id="Vector">
                        <path d="M 6.59377 7.71429L 2.86687 8L 2.29349 10L 4.37448e-06 10.2857L 2.86687 0.285714L 4.87366 1.08991e-06L 9.74734 9.14286L 7.45384 9.42857L 6.59377 7.71429ZM 5.73373 6L 4.3003 2.85714L 3.44023 6.28572L 5.73373 6Z" transform="translate(-16730.1 -20408.4)" fill="#353535"></path>
                    </g>
                    <g id="Vector">
                        <path d="M 7.74052 1.08991e-06L 9.17395 9.42857L 6.88046 9.71429L 5.73373 2L 3.15355 2.28571L 3.72691 5.42857C 4.0136 7.14286 4.01361 8.28571 3.15355 9.42857C 2.86687 10 2.29348 10.2857 1.14674 10.5714C 0.860049 10.5714 0.573377 10.5714 0.28669 10.5714L 8.74897e-06 8.57143C 0.286695 8.57143 0.286686 8.57143 0.573372 8.57143C 0.860058 8.57143 1.14675 8.28571 1.43344 8C 1.72013 7.42857 1.72012 6.57143 1.72012 6L 0.860054 0.571429L 7.74052 1.08991e-06Z" transform="translate(-16720.4 -20409.9)" fill="#353535"></path>
                    </g>
                    <g id="Vector">
                        <path d="M -4.37448e-06 0.285714L 2.29349 -1.08991e-06L 2.86686 3.71429L 4.30029 3.42857C 5.16035 3.42857 6.02041 3.14286 6.88047 3.71429C 7.74052 4.28571 8.02722 5.14286 8.02722 5.71428C 8.02722 6.28571 8.02722 7.14286 7.74053 8C 7.16716 8.85714 6.02041 9.14286 5.16035 9.14286L 1.72011 9.71429L -4.37448e-06 0.285714ZM 3.44024 7.42857L 4.30029 7.14286C 4.58697 7.14286 5.16035 6.85714 5.44704 6.57143C 5.73372 6.57143 5.73372 6 5.73372 5.71428C 5.73372 5.14286 5.16035 4.85714 5.16035 4.85714C 4.87367 4.85714 4.58698 4.57143 4.01361 4.85714L 3.15354 5.14286L 3.44024 7.42857Z" transform="translate(-16710.9 -20410.4)" fill="#353535"></path>
                    </g>
                    <g id="Vector">
                        <path d="M 2.86687 4.85714L 6.59377 4L 6.02041 0.57143L 8.31391 -1.08991e-06L 10.3207 9.42857L 8.0272 10L 7.16716 6L 3.15355 6.57143L 4.01361 10.5714L 1.72012 11.1429L 4.37448e-06 1.71429L 2.29348 1.14286L 2.86687 4.85714Z" transform="translate(-16702.9 -20413.3)" fill="#353535"></path>
                    </g>
                    <g id="Vector">
                        <path d="M 7.853 0.742309C 8.99975 1.31374 9.85979 2.45659 10.1465 3.88516C 10.4332 5.02802 10.1465 6.45659 9.57311 7.59945C 8.99974 8.74231 7.853 9.31374 6.41957 9.88517C 4.69945 10.1709 3.26602 9.88517 2.40596 9.31374C 1.25922 8.74231 0.39915 7.59945 0.112464 6.17088C -0.174222 4.74231 0.112477 3.31374 0.685849 2.45659C 1.25922 1.59945 2.11927 0.742306 4.12607 0.170878C 5.27282 -0.114836 6.70626 -0.114834 7.853 0.742309ZM 2.40596 3.31374C 2.11928 3.88516 1.83259 4.45659 2.11928 5.59945C 2.40597 6.45659 2.69265 7.02802 3.55271 7.59945C 4.41277 8.17088 4.98613 8.17088 5.84619 7.88517C 6.70624 7.59945 7.27963 7.02802 7.853 6.74231C 8.13969 6.17088 8.42637 5.59945 8.13968 4.45659C 7.853 3.59945 7.27963 2.74231 6.70625 2.45659C 6.13288 2.17088 5.27281 1.88517 4.41276 2.17088C 3.5527 2.17088 2.97933 2.74231 2.40596 3.31374Z" transform="translate(-16692.4 -20414.9)" fill="#353535"></path>
                    </g>
                    <g id="Vector">
                        <path d="M 5.73372 1.71429L 2.58017 2.57143L 4.58697 10L 2.58017 10.5714L -4.37448e-06 1.42857L 5.44704 -1.08991e-06L 5.73372 1.71429Z" transform="translate(-16682.2 -20417.6)" fill="#353535"></path>
                    </g>
                    <g id="Vector">
                        <path d="M 7.64215 0.571427C 8.78889 1.14286 9.64895 2.28571 10.2223 3.71429C 10.509 4.85714 10.509 6.28571 9.93564 7.42857C 9.36227 8.57143 8.21553 9.42857 6.7821 9.71429C 5.06198 10.2857 3.62855 10 2.76849 9.42857C 1.62175 8.85714 0.761683 7.71429 0.188311 6.57143C -0.0983751 5.14286 -0.0983795 3.71429 0.474993 2.57143C 0.761679 1.71429 1.90842 0.571428 3.62854 -5.44957e-07C 5.06197 -5.44957e-07 6.20871 -1.10694e-06 7.64215 0.571427ZM 2.48181 3.71429C 2.19512 4.28571 1.90842 5.14286 2.1951 6C 2.48179 6.85714 3.05516 7.42857 3.62854 7.71428C 4.48859 8 5.06197 8 5.92203 8C 6.78209 7.71428 7.35546 7.14286 7.64215 6.57143C 7.92883 6 8.21551 5.42857 7.92883 4.28571C 7.64214 3.42857 7.06877 2.85714 6.4954 2.57143C 5.92202 2.28572 5.06198 2 4.20192 2.28571C 3.34186 2.57143 2.76849 3.14286 2.48181 3.71429Z" transform="translate(-16675.5 -20419.6)" fill="#353535"></path>
                    </g>
                    <g id="Vector">
                        <path d="M 0 4.28572L 2.00679 3.42857L 4.87365 10.5714L 7.45383 9.71429L 4.58697 2.57143L 6.59379 1.71429L 9.46065 8.85714L 12.0408 8L 9.17395 0.857143L 11.1808 5.44957e-07L 14.621 9.14286L 3.44022 13.4286L 0 4.28572Z" transform="translate(-16662.4 -20426.4)" fill="#353535"></path>
                    </g>
                    <g id="Vector">
                        <path d="M 5.44704 1.71429L 2.58017 2.85714L 3.44024 4.57143L 6.3071 3.42857L 6.88047 5.14286L 4.01361 6.28571L 4.87367 8.28571L 7.74053 7.14286L 8.60058 8.85714L 3.72692 11.1429L -4.37448e-06 2.28571L 4.87367 5.44957e-07L 5.44704 1.71429Z" transform="translate(-16649.3 -20429.3)" fill="#353535"></path>
                    </g>
                    <g id="Vector">
                        <path d="M 6.3071 2.72478e-07L 10.6074 8.57143L 8.3139 9.42857L 4.87367 2.57143L 2.58017 3.71429L 4.01361 6.57143C 4.87366 8 5.16036 9.42857 4.87367 10.2857C 4.58699 10.8571 4.30028 11.4286 3.15354 12C 2.86685 12.2857 2.58018 12.2857 2.29349 12.2857L 1.43343 10.5714C 1.72011 10.5714 1.72013 10.5714 2.00681 10.2857C 2.58018 10.2857 2.86686 10 2.86686 9.71429C 3.15354 9.14286 2.58018 8.28571 2.29349 7.71428L -4.37448e-06 2.85714L 6.3071 2.72478e-07Z" transform="translate(-16642.1 -20433.3)" fill="#353535"></path>
                    </g>
                    <g id="Vector">
                        <path d="M 3.72691 6.57143L 4.58698 1.42857L 6.88047 6.81196e-08L 5.73373 5.71428L 11.7541 8L 9.46063 9.71429L 4.3003 7.71429L 6.30709 11.4286L 4.58698 12.5714L 4.37448e-06 4L 2.0068 2.85714L 3.72691 6.57143Z" transform="translate(-16634.1 -20438.4)" fill="#353535"></path>
                    </g>
                    <g id="Vector">
                        <path d="M 6.88048 6L 3.72691 8L 4.01361 10L 2.0068 11.1429L 4.37448e-06 1.14286L 1.72012 -9.5162e-16L 10.034 6L 8.31391 7.14286L 6.88048 6ZM 5.44704 5.14286L 2.58018 3.14286L 3.44023 6.57143L 5.44704 5.14286Z" transform="translate(-16624 -20441.6)" fill="#353535"></path>
                    </g>
                </g>
            </g>
        </g>
    </g>
</svg>
