<svg width="870" height="122" viewBox="0 0 870 122" version="1.1" xmlns="http://www.w3.org/2000/svg" xmlns:xlink="http://www.w3.org/1999/xlink">
    <title>Group 4</title>
    <desc>Created using Figma</desc>
    <g id="Canvas" transform="translate(17721 14649)">
        <g id="Group 4">
            <g id="Group">
                <g id="Vector">
                    <path d="M 288.953 51.7677L 289.394 50.3338L 289.392 50.3331L 288.953 51.7677ZM 374.634 76.0488L 374.905 74.5735L 374.898 74.5722L 374.634 76.0488ZM 492.787 76.0488L 492.79 77.5488L 492.791 77.5488L 492.787 76.0488ZM 0.442199 12.1023C 1.07998 11.9055 1.71829 11.7118 2.35713 11.5212L 1.49911 8.64647C 0.851501 8.83976 0.204392 9.03614 -0.442199 9.23562L 0.442199 12.1023ZM 6.19625 10.4132C 7.47794 10.0559 8.76157 9.71049 10.047 9.37678L 9.29314 6.47304C 7.99055 6.81121 6.68965 7.16127 5.3906 7.52344L 6.19625 10.4132ZM 13.9223 8.40724C 15.218 8.09517 16.5153 7.79473 17.8142 7.5057L 17.1625 4.57733C 15.8469 4.8701 14.5326 5.17446 13.2198 5.49064L 13.9223 8.40724ZM 21.7151 6.67266C 23.0215 6.4053 24.3293 6.14923 25.6383 5.90424L 25.0864 2.95544C 23.761 3.2035 22.4367 3.46281 21.1136 3.73358L 21.7151 6.67266ZM 29.5709 5.2019C 30.8832 4.9787 32.1966 4.76637 33.5108 4.56472L 33.0559 1.59942C 31.7257 1.80351 30.3963 2.01842 29.0679 2.24438L 29.5709 5.2019ZM 37.4686 3.98989C 38.7887 3.80888 40.1096 3.6384 41.431 3.47824L 41.0701 0.500035C 39.7332 0.662062 38.3969 0.834545 37.0611 1.0177L 37.4686 3.98989ZM 45.4003 3.02816C 46.7267 2.88802 48.0535 2.75806 49.3806 2.63804L 49.1105 -0.349767C 47.7685 -0.228407 46.4266 -0.0969718 45.0851 0.0447596L 45.4003 3.02816ZM 53.3628 2.30763C 54.6922 2.20716 56.0218 2.11645 57.3514 2.03529L 57.1686 -0.959137C 55.8247 -0.877106 54.4807 -0.785415 53.1367 -0.683843L 53.3628 2.30763ZM 61.3455 1.81997C 62.6767 1.75763 64.0078 1.70465 65.3385 1.66081L 65.2398 -1.33757C 63.8953 -1.29328 62.5504 -1.23974 61.2051 -1.17674L 61.3455 1.81997ZM 69.3382 1.55632C 70.6721 1.53051 72.0056 1.51368 73.3383 1.5056L 73.3201 -1.49434C 71.9742 -1.48619 70.6275 -1.46919 69.2802 -1.44312L 69.3382 1.55632ZM 77.3344 1.50744C 78.6701 1.5167 80.005 1.53456 81.3389 1.56079L 81.3979 -1.43863C 80.0514 -1.46511 78.7038 -1.48314 77.3552 -1.49248L 77.3344 1.50744ZM 85.338 1.66442C 86.6711 1.70724 88.003 1.75822 89.3337 1.81716L 89.4664 -1.1799C 88.1238 -1.23937 86.7797 -1.29082 85.4343 -1.33403L 85.338 1.66442ZM 93.3348 2.01835C 94.6671 2.09327 95.9979 2.17597 97.327 2.26622L 97.5302 -0.726888C 96.1897 -0.81792 94.8473 -0.90134 93.5032 -0.976919L 93.3348 2.01835ZM 101.319 2.56017C 102.651 2.66589 103.982 2.77902 105.311 2.89933L 105.581 -0.0884455C 104.242 -0.209744 102.9 -0.323817 101.556 -0.43043L 101.319 2.56017ZM 109.291 3.28156C 110.621 3.41663 111.95 3.55871 113.276 3.70757L 113.611 0.726297C 112.274 0.576262 110.935 0.433051 109.593 0.2969L 109.291 3.28156ZM 117.254 4.17513C 118.578 4.33766 119.899 4.50676 121.217 4.6822L 121.613 1.70841C 120.284 1.53165 118.953 1.36127 117.619 1.19749L 117.254 4.17513ZM 125.194 5.23169C 126.517 5.42113 127.837 5.61678 129.154 5.81839L 129.608 2.85295C 128.282 2.64989 126.952 2.45282 125.62 2.26198L 125.194 5.23169ZM 133.107 6.44284C 134.43 6.6582 135.75 6.8794 137.065 7.10618L 137.575 4.14976C 136.25 3.92142 134.921 3.69869 133.589 3.48182L 133.107 6.44284ZM 141.003 7.80305C 142.321 8.04254 143.636 8.28744 144.947 8.53752L 145.509 5.59068C 144.19 5.33896 142.866 5.09243 141.539 4.85135L 141.003 7.80305ZM 148.882 9.30603C 150.19 9.56732 151.494 9.83356 152.793 10.1045L 153.406 7.16766C 152.098 6.89503 150.786 6.6271 149.47 6.36415L 148.882 9.30603ZM 156.73 10.9422C 158.037 11.2261 159.34 11.5146 160.638 11.8073L 161.298 8.88086C 159.992 8.58637 158.682 8.29617 157.366 8.01055L 156.73 10.9422ZM 164.542 12.7042C 165.85 13.01 167.153 13.3201 168.451 13.634L 169.156 10.7181C 167.851 10.4024 166.541 10.0906 165.225 9.78297L 164.542 12.7042ZM 172.326 14.587C 173.633 14.9135 174.934 15.2436 176.228 15.5771L 176.977 12.672C 175.675 12.3366 174.367 12.0047 173.054 11.6765L 172.326 14.587ZM 180.104 16.5904C 181.399 16.9338 182.688 17.2804 183.97 17.63L 184.759 14.7356C 183.47 14.3843 182.175 14.0358 180.873 13.6906L 180.104 16.5904ZM 187.848 18.7015C 189.134 19.0614 190.413 19.424 191.684 19.789L 192.512 16.9054C 191.234 16.5387 189.949 16.1743 188.657 15.8125L 187.848 18.7015ZM 195.557 20.914C 196.844 21.2923 198.123 21.6727 199.394 22.0549L 200.258 19.182C 198.981 18.798 197.696 18.4158 196.403 18.0357L 195.557 20.914ZM 203.231 23.2215C 204.52 23.6176 205.8 24.0152 207.071 24.4139L 207.969 21.5515C 206.692 21.151 205.407 20.7517 204.112 20.3539L 203.231 23.2215ZM 210.872 25.6182C 212.163 26.0314 213.445 26.4454 214.716 26.8599L 215.646 24.0076C 214.37 23.5915 213.083 23.1757 211.786 22.7609L 210.872 25.6182ZM 218.5 28.1043C 219.789 28.5319 221.067 28.9595 222.333 29.3867L 223.292 26.5442C 222.021 26.1154 220.739 25.6861 219.445 25.2569L 218.5 28.1043ZM 226.115 30.673C 227.397 31.1125 228.666 31.551 229.923 31.9882L 230.909 29.1548C 229.648 28.7161 228.374 28.2761 227.088 27.8351L 226.115 30.673ZM 233.703 33.3123C 234.98 33.7629 236.243 34.2116 237.492 34.6578L 238.502 31.8327C 237.249 31.3852 235.982 30.9352 234.701 30.4832L 233.703 33.3123ZM 241.266 36.014C 242.542 36.4754 243.802 36.9334 245.045 37.3875L 246.075 34.5696C 244.829 34.1144 243.565 33.6553 242.286 33.1927L 241.266 36.014ZM 248.807 38.768C 250.087 39.2397 251.347 39.7064 252.588 40.1671L 253.632 37.3548C 252.39 36.8933 251.127 36.4259 249.845 35.9531L 248.807 38.768ZM 256.326 41.56C 257.616 42.0417 258.881 42.5157 260.123 42.9812L 261.176 40.1722C 259.934 39.7064 258.667 39.232 257.376 38.7497L 256.326 41.56ZM 263.844 44.3775C 265.141 44.8644 266.408 45.3401 267.645 45.8034L 268.697 42.9939C 267.461 42.5311 266.195 42.0557 264.898 41.5689L 263.844 44.3775ZM 271.419 47.2125C 272.7 47.6888 273.944 48.1489 275.149 48.5913L 276.182 45.7751C 274.982 45.3345 273.743 44.8759 272.465 44.4007L 271.419 47.2125ZM 278.971 49.9798C 280.304 50.4578 281.581 50.9085 282.801 51.3293L 283.78 48.4933C 282.573 48.0773 281.308 47.6307 279.984 47.1559L 278.971 49.9798ZM 286.649 52.616C 287.291 52.8229 287.913 53.0185 288.515 53.2023L 289.392 50.3331C 288.806 50.1542 288.198 49.9632 287.568 49.7604L 286.649 52.616ZM 288.513 53.2016C 289.081 53.3759 289.72 53.572 290.426 53.7879L 291.304 50.9193C 290.599 50.7036 289.961 50.5078 289.394 50.3338L 288.513 53.2016ZM 294.301 54.9713C 295.501 55.3371 296.803 55.7328 298.191 56.1539L 299.062 53.2832C 297.675 52.8624 296.375 52.467 295.175 52.1015L 294.301 54.9713ZM 302.06 57.3255C 303.309 57.7032 304.609 58.0952 305.951 58.4992L 306.815 55.6265C 305.475 55.2229 304.176 54.8312 302.927 54.4538L 302.06 57.3255ZM 309.821 59.6621C 311.089 60.0423 312.385 60.4302 313.705 60.8241L 314.563 57.9495C 313.245 57.5559 311.95 57.1684 310.683 56.7885L 309.821 59.6621ZM 317.593 61.9825C 318.874 62.3632 320.171 62.7478 321.479 63.1347L 322.33 60.2579C 321.023 59.8714 319.728 59.4872 318.448 59.1069L 317.593 61.9825ZM 325.363 64.2809C 326.654 64.6608 327.952 65.0417 329.252 65.422L 330.095 62.5427C 328.796 62.1628 327.5 61.7824 326.21 61.4029L 325.363 64.2809ZM 333.144 66.557C 334.445 66.9352 335.744 67.3115 337.037 67.6847L 337.869 64.8024C 336.577 64.4297 335.28 64.0539 333.981 63.6763L 333.144 66.557ZM 340.931 68.8038C 342.243 69.1793 343.544 69.5501 344.831 69.9146L 345.649 67.0283C 344.365 66.6645 343.066 66.2944 341.756 65.9196L 340.931 68.8038ZM 348.739 71.0157C 350.065 71.3872 351.37 71.7501 352.647 72.1026L 353.445 69.2108C 352.172 68.8593 350.871 68.4974 349.548 68.1268L 348.739 71.0157ZM 356.55 73.1704C 357.905 73.5375 359.219 73.8895 360.485 74.2238L 361.251 71.3233C 359.992 70.9908 358.685 70.6405 357.335 70.2748L 356.55 73.1704ZM 364.408 75.2428C 365.818 75.602 367.144 75.9312 368.373 76.2259L 369.073 73.3085C 367.86 73.0178 366.547 72.6921 365.148 72.3356L 364.408 75.2428ZM 372.363 77.1316C 373.095 77.2853 373.766 77.4174 374.37 77.5254L 374.898 74.5722C 374.331 74.4708 373.69 74.3449 372.981 74.1957L 372.363 77.1316ZM 374.363 77.5241C 375.03 77.6468 375.691 77.7665 376.346 77.8832L 376.872 74.9298C 376.223 74.814 375.568 74.6953 374.905 74.5735L 374.363 77.5241ZM 380.248 78.5563C 381.577 78.7777 382.88 78.9862 384.156 79.1824L 384.612 76.2172C 383.348 76.0229 382.058 75.8164 380.741 75.597L 380.248 78.5563ZM 388.087 79.7591C 389.431 79.9466 390.746 80.1199 392.034 80.2799L 392.404 77.3027C 391.131 77.1447 389.831 76.9733 388.502 76.7879L 388.087 79.7591ZM 395.987 80.7378C 397.335 80.8825 398.653 81.012 399.946 81.1273L 400.212 78.1392C 398.938 78.0255 397.637 77.8977 396.307 77.7549L 395.987 80.7378ZM 403.911 81.4431C 405.262 81.5374 406.585 81.616 407.884 81.68L 408.031 78.6837C 406.753 78.6207 405.451 78.5433 404.12 78.4504L 403.911 81.4431ZM 411.872 81.8341C 413.224 81.8718 414.552 81.8939 415.859 81.9019L 415.878 78.9019C 414.592 78.8941 413.286 78.8723 411.955 78.8352L 411.872 81.8341ZM 419.842 81.8835C 421.184 81.863 422.508 81.8285 423.819 81.7819L 423.713 78.7838C 422.421 78.8297 421.117 78.8636 419.797 78.8838L 419.842 81.8835ZM 427.795 81.6036C 429.123 81.5321 430.444 81.4497 431.762 81.3583L 431.555 78.3655C 430.25 78.4559 428.945 78.5373 427.633 78.6079L 427.795 81.6036ZM 435.72 81.0592C 437.032 80.9525 438.347 80.839 439.671 80.7206L 439.404 77.7326C 438.086 77.8504 436.779 77.9632 435.477 78.069L 435.72 81.0592ZM 443.609 80.3587C 444.905 80.2372 446.215 80.1128 447.543 79.9873L 447.261 77.0006C 445.931 77.1262 444.623 77.2505 443.329 77.3718L 443.609 80.3587ZM 451.477 79.6193C 452.766 79.5005 454.076 79.3822 455.412 79.2657L 455.151 76.2771C 453.81 76.3941 452.495 76.5129 451.201 76.632L 451.477 79.6193ZM 459.339 78.9359C 460.621 78.8328 461.928 78.7324 463.263 78.6359L 463.047 75.6437C 461.703 75.7409 460.388 75.8419 459.099 75.9456L 459.339 78.9359ZM 467.191 78.3695C 468.473 78.2883 469.783 78.2113 471.122 78.1394L 470.961 75.1437C 469.612 75.2162 468.293 75.2937 467.001 75.3755L 467.191 78.3695ZM 475.057 77.9471C 476.343 77.8906 477.656 77.839 478.998 77.7931L 478.896 74.7949C 477.544 74.8411 476.221 74.8931 474.925 74.95L 475.057 77.9471ZM 482.937 77.6774C 484.219 77.6458 485.526 77.6196 486.862 77.5992L 486.816 74.5995C 485.471 74.6201 484.154 74.6465 482.863 74.6783L 482.937 77.6774ZM 490.791 77.5569C 491.45 77.5528 492.117 77.55 492.79 77.5488L 492.784 74.5488C 492.107 74.5501 491.436 74.5528 490.772 74.557L 490.791 77.5569ZM 492.791 77.5488C 493.453 77.5469 494.114 77.5445 494.775 77.5417L 494.762 74.5417C 494.103 74.5446 493.443 74.5469 492.783 74.5488L 492.791 77.5488ZM 498.737 77.5192C 500.057 77.5099 501.375 77.4986 502.693 77.4853L 502.662 74.4855C 501.348 74.4987 500.033 74.51 498.716 74.5193L 498.737 77.5192ZM 506.658 77.4392C 507.979 77.4217 509.298 77.4022 510.616 77.3804L 510.567 74.3808C 509.252 74.4025 507.936 74.422 506.619 74.4394L 506.658 77.4392ZM 514.578 77.3084C 515.9 77.2821 517.22 77.2535 518.539 77.2225L 518.469 74.2234C 517.153 74.2542 515.837 74.2828 514.518 74.309L 514.578 77.3084ZM 522.496 77.1223C 523.819 77.0864 525.141 77.0479 526.461 77.0069L 526.367 74.0083C 525.051 74.0492 523.734 74.0876 522.415 74.1234L 522.496 77.1223ZM 530.416 76.8761C 531.739 76.8296 533.06 76.7805 534.379 76.7287L 534.262 73.731C 532.946 73.7827 531.629 73.8316 530.311 73.8779L 530.416 76.8761ZM 538.338 76.5646C 539.658 76.5069 540.977 76.4464 542.295 76.3829L 542.151 73.3864C 540.838 73.4496 539.523 73.51 538.207 73.5674L 538.338 76.5646ZM 546.256 76.1829C 547.574 76.1132 548.892 76.0405 550.207 75.9646L 550.034 72.9696C 548.724 73.0452 547.411 73.1177 546.097 73.1871L 546.256 76.1829ZM 554.169 75.7261C 555.488 75.6433 556.806 75.5573 558.122 75.4679L 557.918 72.4748C 556.608 72.5638 555.295 72.6495 553.981 72.7319L 554.169 75.7261ZM 562.078 75.1886C 563.397 75.0919 564.715 74.9917 566.031 74.8879L 565.795 71.8972C 564.484 72.0005 563.172 72.1003 561.858 72.1966L 562.078 75.1886ZM 569.98 74.5652C 571.299 74.4536 572.617 74.3382 573.933 74.2191L 573.662 71.2313C 572.352 71.3499 571.041 71.4647 569.727 71.5759L 569.98 74.5652ZM 577.875 73.8502C 579.194 73.7227 580.511 73.5913 581.826 73.4559L 581.519 70.4717C 580.21 70.6065 578.899 70.7372 577.586 70.8641L 577.875 73.8502ZM 585.767 73.0374C 587.083 72.8934 588.397 72.7452 589.71 72.5927L 589.363 69.6128C 588.058 69.7644 586.75 69.9119 585.441 70.0552L 585.767 73.0374ZM 593.648 72.1217C 594.961 71.9601 596.272 71.7941 597.581 71.6237L 597.194 68.6488C 595.892 68.8183 594.588 68.9834 593.281 69.1441L 593.648 72.1217ZM 601.515 71.0972C 602.825 70.9171 604.133 70.7324 605.438 70.543L 605.008 67.5741C 603.709 67.7624 602.409 67.946 601.107 68.1251L 601.515 71.0972ZM 609.367 69.958C 610.675 69.7582 611.981 69.5535 613.285 69.344L 612.808 66.382C 611.513 66.5903 610.214 66.7938 608.914 66.9924L 609.367 69.958ZM 617.202 68.6983C 618.507 68.4777 619.81 68.2521 621.111 68.0213L 620.587 65.0675C 619.294 65.2968 617.999 65.521 616.702 65.7402L 617.202 68.6983ZM 625.015 67.3121C 626.317 67.0698 627.617 66.8223 628.915 66.5693L 628.341 63.6247C 627.052 63.876 625.76 64.122 624.466 64.3627L 625.015 67.3121ZM 632.805 65.7935C 634.103 65.5286 635.399 65.2581 636.693 64.982L 636.067 62.048C 634.782 62.3223 633.495 62.591 632.205 62.8541L 632.805 65.7935ZM 640.569 64.1364C 641.862 63.848 643.153 63.5538 644.442 63.2537L 643.762 60.3318C 642.482 60.6298 641.2 60.922 639.916 61.2084L 640.569 64.1364ZM 648.304 62.3351C 649.591 62.0223 650.875 61.7036 652.158 61.3787L 651.421 58.4706C 650.148 58.793 648.873 59.1094 647.595 59.4199L 648.304 62.3351ZM 656.002 60.3844C 657.283 60.0464 658.56 59.7022 659.836 59.3516L 659.041 56.4589C 657.775 56.8068 656.507 57.1483 655.237 57.4837L 656.002 60.3844ZM 663.661 58.279C 664.934 57.915 666.204 57.5444 667.472 57.1673L 666.617 54.2918C 665.359 54.6659 664.099 55.0335 662.836 55.3947L 663.661 58.279ZM 671.274 56.0141C 672.539 55.623 673.802 55.2252 675.062 54.8206L 674.145 51.9642C 672.895 52.3655 671.643 52.7601 670.388 53.148L 671.274 56.0141ZM 678.838 53.5849C 680.094 53.166 681.348 52.7402 682.6 52.3073L 681.619 49.4722C 680.378 49.9014 679.135 50.3236 677.889 50.7389L 678.838 53.5849ZM 686.347 50.9871C 687.593 50.5399 688.837 50.0855 690.079 49.6238L 689.033 46.8119C 687.803 47.2696 686.569 47.72 685.334 48.1634L 686.347 50.9871ZM 693.795 48.217C 695.031 47.7409 696.264 47.2574 697.494 46.7664L 696.382 43.98C 695.163 44.4666 693.941 44.9457 692.716 45.4176L 693.795 48.217ZM 701.177 45.2712C 702.4 44.7658 703.621 44.2529 704.839 43.7323L 703.66 40.9736C 702.453 41.4894 701.244 41.9976 700.032 42.4984L 701.177 45.2712ZM 708.486 42.1473C 709.696 41.6123 710.904 41.0696 712.109 40.519L 710.862 37.7903C 709.669 38.3358 708.472 38.8734 707.273 39.4034L 708.486 42.1473ZM 715.715 38.8441C 716.912 38.279 718.106 37.706 719.298 37.125L 717.983 34.4285C 716.803 35.004 715.62 35.5716 714.434 36.1313L 715.715 38.8441ZM 722.859 35.36C 724.042 34.7644 725.222 34.1609 726.399 33.5491L 725.016 30.8871C 723.85 31.493 722.681 32.0907 721.51 32.6805L 722.859 35.36ZM 729.913 31.6943C 731.08 31.0681 732.245 30.4337 733.408 29.7909L 731.956 27.1656C 730.805 27.8021 729.651 28.4303 728.495 29.0504L 729.913 31.6943ZM 736.869 27.8471C 738.02 27.1909 739.169 26.5263 740.314 25.8533L 738.794 23.2667C 737.66 23.9331 736.523 24.5912 735.383 25.2409L 736.869 27.8471ZM 743.724 23.8194C 744.857 23.1338 745.987 22.4398 747.113 21.7373L 745.526 19.1915C 744.411 19.8871 743.292 20.5742 742.171 21.2529L 743.724 23.8194ZM 750.473 19.6123C 751.586 18.8981 752.696 18.1754 753.803 17.4441L 752.149 14.9409C 751.053 15.6649 749.954 16.3805 748.852 17.0876L 750.473 19.6123ZM 757.11 15.228C 758.202 14.4859 759.291 13.7352 760.378 12.9759L 758.659 10.517C 757.583 11.2688 756.505 12.012 755.424 12.7467L 757.11 15.228ZM 763.628 10.6721C 764.699 9.90199 765.768 9.1233 766.834 8.33594L 765.052 5.92289C 763.996 6.70249 762.938 7.4735 761.877 8.236L 763.628 10.6721ZM 770.019 5.95114C 770.548 5.54933 771.077 5.14533 771.605 4.73914L 769.776 2.36144C 769.253 2.76365 768.729 3.16368 768.205 3.56154L 770.019 5.95114Z" transform="translate(-17721 -14586)" fill="#B5BEC2"></path>
                </g>
            </g>
            <g id="Group 3.3">
                <g id="Rectangle">
                    <mask id="mask0_outline_ins">
                        <path d="M 0 0L 71.135 0L 71.135 49.8941L 0 49.8941L 0 0Z" fill="white" transform="matrix(0.879389 -0.476105 0.473428 0.880833 -16937.9 -14615.1)"></path>
                    </mask>
                    <g mask="url(#mask0_outline_ins)">
                        <path d="M 0 0L 0 -4L -4 -4L -4 0L 0 0ZM 71.135 0L 75.135 0L 75.135 -4L 71.135 -4L 71.135 0ZM 71.135 49.8941L 71.135 53.8941L 75.135 53.8941L 75.135 49.8941L 71.135 49.8941ZM 0 49.8941L -4 49.8941L -4 53.8941L 0 53.8941L 0 49.8941ZM 0 4L 71.135 4L 71.135 -4L 0 -4L 0 4ZM 67.135 0L 67.135 49.8941L 75.135 49.8941L 75.135 0L 67.135 0ZM 71.135 45.8941L 0 45.8941L 0 53.8941L 71.135 53.8941L 71.135 45.8941ZM 4 49.8941L 4 0L -4 0L -4 49.8941L 4 49.8941Z" transform="matrix(0.879389 -0.476105 0.473428 0.880833 -16937.9 -14615.1)" fill="#B1BABE"></path>
                    </g>
                </g>
                <g id="Vector">
                    <path d="M 33.4665 25.0808L 32.2671 26.6812L 33.4678 27.581L 34.6675 26.68L 33.4665 25.0808ZM -1.19941 1.60044L 32.2671 26.6812L 34.6659 23.4803L 1.19941 -1.60044L -1.19941 1.60044ZM 34.6675 26.68L 67.2936 2.17873L 64.8916 -1.01978L 32.2655 23.4815L 34.6675 26.68Z" transform="matrix(0.879389 -0.476105 0.473428 0.880833 -16935.2 -14614.7)" fill="#B1BABE"></path>
                </g>
            </g>
        </g>
    </g>
</svg>
