<svg width="74" height="90" viewBox="0 0 74 90" version="1.1" xmlns="http://www.w3.org/2000/svg" xmlns:xlink="http://www.w3.org/1999/xlink">
    <title>2</title>
    <desc>Created using Figma</desc>
    <g id="Canvas" transform="translate(17081 19762)">
        <g id="2">
            <g id="Vector">
                <path d="M -4.33677e-07 -1.7873e-06L -4.33677e-07 1.17132C 2.72846 2.10838 5.45692 2.57691 8.41276 2.81118L 8.41276 2.34264L 10.6865 2.34264L 10.6865 2.81118C 13.6423 2.81118 16.3708 2.10838 19.0992 1.17132L 19.0992 -1.7873e-06C 16.1434 1.17132 12.9602 1.63985 9.54961 1.63985C 6.13904 1.63985 2.95583 1.17132 -4.33677e-07 -1.7873e-06Z" transform="translate(-17054.2 -19703.9)" fill="#FFDAD4"></path>
            </g>
            <g id="Vector">
                <path d="M 59.1166 30.4544C 59.1166 13.5873 45.9291 0 29.5583 0C 13.1876 0 -1.08419e-07 13.5873 -1.08419e-07 30.4544C -1.08419e-07 38.8879 3.41058 47.0872 9.54961 52.9438C 12.0507 55.2864 14.7792 57.1606 17.9624 58.5662L 17.9624 57.8634L 19.0992 57.8634C 15.916 56.4578 12.9602 54.5837 10.4591 52.241C 4.77481 46.8529 1.36423 39.1222 1.36423 30.6887C 1.36423 14.5244 14.097 1.40559 29.7857 1.40559C 45.4743 1.40559 57.9798 14.2901 57.9798 30.4544C 57.9798 42.8704 50.7039 53.1781 40.2448 57.6291L 41.3817 57.6291L 41.3817 58.3319C 51.8408 53.6466 59.1166 43.1047 59.1166 30.4544Z" transform="translate(-17074.4 -19762)" fill="#FFDAD4"></path>
            </g>
            <g id="Vector">
                <path d="M 19.0992 56.9263C 22.0551 58.0976 25.2383 58.5662 28.6488 58.5662C 32.0594 58.5662 35.2426 57.8634 38.1985 56.9263L 38.1985 56.4578L 39.3353 56.4578C 49.7944 52.0067 57.0703 41.6991 57.0703 29.2831C 57.0703 13.1188 44.3375 -4.16138e-15 28.6488 -4.16138e-15C 12.9602 -4.16138e-15 -1.08419e-07 13.1188 -1.08419e-07 29.2831C -1.08419e-07 37.7166 3.41058 45.4473 9.09487 50.8354C 11.596 53.1781 14.5518 55.0522 17.735 56.4578L 18.8719 56.4578L 18.8719 56.9263L 19.0992 56.9263ZM 10.0044 49.8984C 4.32006 44.5103 1.13686 37.0138 1.13686 29.2831C 1.13686 13.8216 13.4149 1.17132 28.4215 1.17132C 43.428 1.17132 55.7061 13.8216 55.7061 29.2831C 55.7061 44.7445 43.428 57.3948 28.4215 57.3948C 21.6003 57.3948 15.0065 54.8179 10.0044 49.8984Z" transform="translate(-17073.3 -19760.8)" fill="#FFDAD4"></path>
            </g>
            <g id="Vector">
                <path d="M 47.066 24.1293C 47.066 10.7762 36.6069 1.11706e-07 23.6467 1.11706e-07C 10.6865 1.11706e-07 0 10.7762 0 24.1293C 0 37.4823 10.4591 48.2585 23.4193 48.2585C 36.3795 48.2585 47.066 37.4823 47.066 24.1293ZM 1.13686 24.1293C 1.13686 11.479 11.1412 1.17132 23.4193 1.17132C 35.6974 1.17132 45.7017 11.479 45.7017 24.1293C 45.7017 36.7795 35.6974 47.0872 23.4193 47.0872C 11.1412 47.3215 1.13686 36.7795 1.13686 24.1293Z" transform="translate(-17068.3 -19755.7)" fill="#FFDAD4"></path>
            </g>
            <g id="Vector">
                <path d="M 44.7922 22.9579C 44.7922 10.3076 34.7879 1.11706e-07 22.5098 1.11706e-07C 10.0044 1.11706e-07 0 10.3076 0 22.9579C 0 35.6082 10.0044 45.9159 22.2824 45.9159C 34.7879 46.1501 44.7922 35.6082 44.7922 22.9579ZM 22.2824 44.9788C 10.4591 44.9788 1.13686 35.1397 1.13686 23.1922C 1.13686 11.2447 10.6865 1.40559 22.2824 1.40559C 33.8784 1.40559 43.428 11.2447 43.428 23.1922C 43.428 35.1397 34.1058 44.9788 22.2824 44.9788Z" transform="translate(-17067.2 -19754.5)" fill="#FFDAD4"></path>
            </g>
            <g id="Vector">
                <path d="M 2.27409 0.468527C 1.81928 0.234263 1.36446 0.234266 1.13705 8.93649e-07L -4.33749e-07 8.93649e-07L -4.33749e-07 0.702793C 0.682228 0.937058 1.59187 1.40559 2.27409 1.63985L 2.27409 0.468527Z" transform="translate(-17056.5 -19704.4)" fill="#FFDAD4"></path>
            </g>
            <g id="Vector">
                <path d="M 1.13556 8.93649e-07L -4.33181e-07 8.93649e-07C 0.454223 0.234266 0.908446 0.234263 1.13556 0.468527L 1.13556 8.93649e-07Z" transform="translate(-17055.3 -19704.4)" fill="#FFDAD4"></path>
            </g>
            <g id="Vector">
                <path d="M 1.13705 8.93649e-07C 0.682228 0.234266 0.454819 0.234263 0 0.468527L 0 1.63985C 0.682228 1.40559 1.59187 1.17132 2.27409 0.702793L 2.27409 8.93649e-07L 1.13705 8.93649e-07Z" transform="translate(-17035.3 -19704.4)" fill="#FFDAD4"></path>
            </g>
            <g id="Vector">
                <path d="M 0 0.468527C 0.454223 0.234263 0.681335 0.234266 1.13556 8.93649e-07L 0 8.93649e-07L 0 0.468527Z" transform="translate(-17035.3 -19704.4)" fill="#FFDAD4"></path>
            </g>
            <g id="Vector">
                <path d="M 17.5076 8.66779L 13.4149 4.46824e-07L 9.32224 8.66779L -4.33677e-07 10.0734L 6.82115 16.8671L 5.22955 26.4719L 13.6423 22.0209L 22.0551 26.4719L 20.4635 16.8671L 27.2846 10.0734L 17.5076 8.66779ZM 18.8719 22.0209L 13.6423 19.2097L 8.41275 22.0209L 9.32224 15.93L 5.00218 11.479L 10.9138 10.5419L 13.6423 4.91956L 16.3708 10.5419L 22.2824 11.479L 17.9624 15.93L 18.8719 22.0209Z" transform="translate(-17058.7 -19744.9)" fill="#FFDAD4"></path>
            </g>
            <g id="Vector">
                <path d="M 2.27409 0.468529L 2.27409 -1.7873e-06L 4.33749e-07 -1.7873e-06L 4.33749e-07 0.468529C 0.454819 0.468529 0.682229 0.468529 1.13705 0.468529C 1.59187 0.468529 2.04668 0.468529 2.27409 0.468529Z" transform="translate(-17046 -19701.6)" fill="#FFDAD4"></path>
            </g>
            <g id="Vector">
                <path d="M 21.3729 35.6082L 16.5981 25.5348L 23.874 8.43353C 23.1919 8.19926 22.5098 7.73073 21.8277 7.2622L 14.5518 24.5978L 4.09269 27.8775L 15.0065 1.63985C 14.3244 1.17132 13.8697 0.468528 13.1876 -8.93649e-07L 0 31.86L 14.7792 27.1747L 21.6003 41.4648L 34.1058 11.2447C 33.4236 11.2447 32.5142 11.0104 31.832 10.7762L 21.3729 35.6082Z" transform="translate(-17080.8 -19714.2)" fill="#FFDAD4"></path>
            </g>
            <g id="Vector">
                <path d="M 20.4635 -8.93649e-07C 20.0087 0.702793 19.3266 1.17132 18.6445 1.63985L 29.5583 27.8775L 19.3266 24.5978L 11.8233 6.55941C 11.3686 6.79368 11.1412 7.02794 10.6865 7.02794C 10.4591 7.2622 10.0044 7.49647 9.77699 7.73074L 17.2803 25.5348L 12.5054 35.6082L 2.04635 10.3076C 1.36423 10.5419 0.682115 11.0104 0 11.0104L 12.0507 41.2306L 18.8719 26.9404L 33.651 31.6257L 20.4635 -8.93649e-07Z" transform="translate(-17041 -19714.2)" fill="#FFDAD4"></path>
            </g>
        </g>
    </g>
</svg>
