<svg width="23" height="22" viewBox="0 0 23 22" version="1.1" xmlns="http://www.w3.org/2000/svg" xmlns:xlink="http://www.w3.org/1999/xlink">
    <title>Vector 8.1</title>
    <desc>Created using Figma</desc>
    <g id="Canvas" transform="translate(-8548 12112)">
        <g id="Vector 8.1">
            <path d="M 17.4618 0L 18.1916 0.3277L 19.1459 -1.79752L 17.0873 -0.706924L 17.4618 0ZM 0 9.25084L -0.374512 8.54392L -2.18643 9.50384L -0.203182 10.0246L 0 9.25084ZM 6.80648 11.0381L 7.54862 10.7394L 7.39851 10.3665L 7.00966 10.2644L 6.80648 11.0381ZM 9.50019 17.7308L 8.75805 18.0295L 9.45995 19.7734L 10.23 18.0585L 9.50019 17.7308ZM 17.0873 -0.706924L -0.374512 8.54392L 0.374512 9.95777L 17.8363 0.706924L 17.0873 -0.706924ZM -0.203182 10.0246L 6.6033 11.8119L 7.00966 10.2644L 0.203182 8.47708L -0.203182 10.0246ZM 6.06433 11.3368L 8.75805 18.0295L 10.2423 17.4321L 7.54862 10.7394L 6.06433 11.3368ZM 10.23 18.0585L 18.1916 0.3277L 16.732 -0.3277L 8.77039 17.4031L 10.23 18.0585Z" transform="translate(8551 -12110.1)" fill="#707070"></path>
        </g>
    </g>
</svg>