<svg width="118" height="118" viewBox="0 0 118 118" version="1.1" xmlns="http://www.w3.org/2000/svg" xmlns:xlink="http://www.w3.org/1999/xlink">
    <title>if_simpline_60_2305602</title>
    <desc>Created using Figma</desc>
    <g id="Canvas" transform="translate(15852 12337)">
        <g id="if_simpline_60_2305602">
            <g id="Vector">
                <path d="M 112.5 57C 112.5 87.6518 87.6518 112.5 57 112.5L 57 115.5C 89.3087 115.5 115.5 89.3087 115.5 57L 112.5 57ZM 57 112.5C 26.3482 112.5 1.5 87.6518 1.5 57L -1.5 57C -1.5 89.3087 24.6913 115.5 57 115.5L 57 112.5ZM 1.5 57C 1.5 26.3482 26.3482 1.5 57 1.5L 57 -1.5C 24.6913 -1.5 -1.5 24.6913 -1.5 57L 1.5 57ZM 57 1.5C 87.6518 1.5 112.5 26.3482 112.5 57L 115.5 57C 115.5 24.6913 89.3087 -1.5 57 -1.5L 57 1.5Z" transform="translate(-15850 -12335)" fill="#E8E8E8"></path>
            </g>
            <g id="Group">
                <g id="Vector">
                    <path d="M 10.5 6C 10.5 8.48528 8.48528 10.5 6 10.5L 6 13.5C 10.1421 13.5 13.5 10.1421 13.5 6L 10.5 6ZM 6 10.5C 3.51472 10.5 1.5 8.48528 1.5 6L -1.5 6C -1.5 10.1421 1.85786 13.5 6 13.5L 6 10.5ZM 1.5 6C 1.5 3.51472 3.51472 1.5 6 1.5L 6 -1.5C 1.85786 -1.5 -1.5 1.85786 -1.5 6L 1.5 6ZM 6 1.5C 8.48528 1.5 10.5 3.51472 10.5 6L 13.5 6C 13.5 1.85786 10.1421 -1.5 6 -1.5L 6 1.5Z" transform="translate(-15820 -12299)" fill="#E8E8E8"></path>
                </g>
                <g id="Vector">
                    <path d="M 10.5 6C 10.5 8.48528 8.48528 10.5 6 10.5L 6 13.5C 10.1421 13.5 13.5 10.1421 13.5 6L 10.5 6ZM 6 10.5C 3.51472 10.5 1.5 8.48528 1.5 6L -1.5 6C -1.5 10.1421 1.85786 13.5 6 13.5L 6 10.5ZM 1.5 6C 1.5 3.51472 3.51472 1.5 6 1.5L 6 -1.5C 1.85786 -1.5 -1.5 1.85786 -1.5 6L 1.5 6ZM 6 1.5C 8.48528 1.5 10.5 3.51472 10.5 6L 13.5 6C 13.5 1.85786 10.1421 -1.5 6 -1.5L 6 1.5Z" transform="translate(-15779 -12299)" fill="#E8E8E8"></path>
                </g>
            </g>
            <g id="Vector">
                <path d="M 1.48842 -0.186052C 1.38566 -1.00808 0.635978 -1.59117 -0.186052 -1.48842C -1.00808 -1.38566 -1.59117 -0.635978 -1.48842 0.186052L 1.48842 -0.186052ZM 48.4453 0.401466C 48.667 -0.396738 48.1997 -1.22355 47.4015 -1.44528C 46.6033 -1.667 45.7764 -1.19967 45.5547 -0.401466L 48.4453 0.401466ZM -1.48842 0.186052C -0.915161 4.7721 2.31307 8.86193 6.77916 11.7585C 11.2713 14.6719 17.1817 16.5 23.5 16.5L 23.5 13.5C 17.7393 13.5 12.3997 11.8281 8.41159 9.24151C 4.39743 6.63807 1.91516 3.2279 1.48842 -0.186052L -1.48842 0.186052ZM 23.5 16.5C 36.0549 16.5 45.717 10.2234 48.4453 0.401466L 45.5547 -0.401466C 43.283 7.77657 35.1031 13.5 23.5 13.5L 23.5 16.5Z" transform="matrix(1 0 0 -1 -15817 -12251)" fill="#E8E8E8"></path>
            </g>
        </g>
    </g>
</svg>