<svg width="57" height="45" viewBox="0 0 57 45" version="1.1" xmlns="http://www.w3.org/2000/svg" xmlns:xlink="http://www.w3.org/1999/xlink">
    <title>Group</title>
    <desc>Created using Figma</desc>
    <g id="Canvas" transform="translate(-15540 12026)">
        <g id="Group">
            <g id="Group">
                <g id="Vector">
                    <path d="M 53.4827 16.6932C 51.7923 15.4365 49.7571 14.6469 47.277 14.3021C 46.6764 14.2131 46.4762 13.8684 46.3539 13.5347C 45.8757 12.189 45.3752 10.8322 44.897 9.50878C 44.5856 8.66356 44.2742 7.81833 43.9739 6.96198C 43.707 6.23909 43.4512 5.49396 43.1954 4.78219C 43.0286 4.32622 42.8729 3.87024 42.7061 3.41426C 42.4503 2.7025 42.0611 2.61352 41.783 2.61352C 41.6273 2.61352 41.4494 2.64689 41.2492 2.71362C 41.0601 2.78034 40.8711 2.84707 40.6709 2.9138C 40.4929 2.96941 40.315 3.03614 40.1482 3.09174C 39.3697 3.34754 38.6023 3.60333 37.8127 3.87024L 36.5004 4.30397L 36.3224 3.95921C 36.1556 3.63669 35.9999 3.32529 35.8331 3.01389C 35.4661 2.30213 35.1213 1.63484 34.7877 0.945317C 34.4095 0.111214 34.1204 0 33.8646 0C 33.6422 0 33.353 0.088971 32.986 0.278035L 28.7265 2.4467C 19.607 7.09544 10.1872 11.8888 0.934196 16.6265C 0.689526 16.7488 0.467098 16.9712 0.233549 17.2159C 0.155699 17.2937 0.0778497 17.3716 0 17.4494L 0 17.8943C 0.0556069 17.9722 0.111214 18.05 0.155699 18.1501C 1.7683 21.3086 3.3809 24.467 4.98238 27.6255C 6.30582 30.2168 7.62927 32.8081 8.95271 35.4105C 9.28635 36.0666 9.58663 36.1556 9.79794 36.1556C 9.99812 36.1556 10.2428 36.0778 10.5319 35.9332C 10.9768 35.7108 11.4217 35.4883 11.8776 35.2548L 12.8007 34.7877L 13.0231 35.088C 13.3345 35.5106 13.6237 35.5551 13.8461 35.5551C 14.0352 35.5551 14.2576 35.5106 14.5134 35.4105C 19.518 33.5754 24.6005 31.7293 29.5273 29.9388L 33.2752 28.5708C 33.3975 28.5263 33.5087 28.493 33.6533 28.4485C 33.72 28.4262 33.7868 28.404 33.8535 28.3818L 34.4318 28.2038L 34.4318 29.4828C 34.4318 30.1278 34.4318 30.784 34.4318 31.429C 34.4318 33.264 34.4318 35.1658 34.4318 37.0342C 34.4318 37.4902 34.454 37.9795 34.5653 38.4132C 34.9767 40.0258 36.0444 41.3048 37.8461 42.328C 40.1704 43.6514 42.6171 44.3298 45.1194 44.3298C 46.8989 44.3298 48.7339 43.9851 50.58 43.3178C 53.6384 42.2056 55.3734 40.5486 56.0518 38.0907L 56.0518 20.4077C 55.6847 18.9175 54.8395 17.6941 53.4827 16.6932ZM 45.442 15.9258C 47.2881 15.9258 49.0898 16.2817 50.8136 16.9823C 51.6032 17.3049 52.3817 17.8053 53.0712 18.4392C 53.8275 19.1399 54.239 19.9962 54.2612 20.9082C 54.2835 21.8424 53.8831 22.7766 53.1268 23.544C 52.0703 24.6116 50.669 25.3123 48.8451 25.6793C 48.0332 25.8461 47.188 25.9351 46.3873 26.024C 46.0314 26.0685 45.6644 26.1019 45.3085 26.1464L 45.2751 26.1464L 45.2418 26.1464C 43.3511 26.0685 41.138 25.8461 39.0805 24.7451C 38.3354 24.3558 37.6904 23.8665 37.201 23.3327C 35.8331 21.8313 35.9221 19.8628 37.4234 18.417C 38.2353 17.6385 39.2585 17.0824 40.6375 16.6487C 42.2724 16.1705 43.885 15.9258 45.442 15.9258ZM 41.227 4.59313L 44.6746 14.0685L 41.7163 14.4689L 37.3567 5.89433L 41.227 4.59313ZM 34.3651 25.7905C 34.3428 26.1019 34.0648 26.3799 33.8201 26.4689C 31.0731 27.4809 28.3484 28.4707 25.3234 29.5606C 25.2678 29.5829 25.2122 29.594 25.1566 29.594C 25.0565 29.594 24.9786 29.5606 24.9341 29.5384C 24.923 29.5273 24.9008 29.5273 24.8785 29.5161L 23.8442 29.1825L 34.3762 23.822L 34.3762 24.5449C 34.3762 24.6672 34.3762 24.7896 34.3762 24.9119C 34.3873 25.2233 34.3984 25.5013 34.3651 25.7905ZM 34.3428 21.2863C 34.3317 21.6978 33.9202 22.0092 33.6755 22.1427C 30.606 23.7108 27.4698 25.3011 24.4448 26.847C 23.2548 27.4476 22.0648 28.0592 20.8748 28.6598C 18.784 29.7275 16.6932 30.784 14.6135 31.8516L 11.2104 33.5866C 11.0991 33.6422 10.9879 33.6978 10.8656 33.7534L 10.265 34.0537L 2.09082 18.0166L 33.3753 2.0797L 39.859 14.847L 39.5143 15.0583C 39.2251 15.2363 38.9248 15.4142 38.6468 15.5922C 38.0129 15.9703 37.4234 16.3262 36.8674 16.7488C 35.2325 17.9833 34.4095 19.4624 34.3428 21.2863ZM 52.5596 40.5152C 51.3363 41.4494 49.8349 42.0388 47.9554 42.3169C 46.91 42.4726 45.9535 42.5393 45.0305 42.5393C 43.0286 42.5393 41.2492 42.1834 39.5921 41.4605C 38.8803 41.1491 38.1686 40.682 37.4457 40.0703C 36.4559 39.2251 36.0889 38.1463 36.2668 36.6561L 36.3558 35.9221L 36.9675 36.3335C 39.4142 38.0129 42.1167 38.8359 45.2307 38.8359L 45.2751 38.8359C 48.4225 38.8247 51.125 38.0018 53.5494 36.3224L 54.15 35.9109L 54.2501 36.6338C 54.4392 38.2131 53.8942 39.492 52.5596 40.5152ZM 36.2668 31.2066L 36.3447 30.4615L 36.9563 30.8952C 39.2585 32.4967 42.1945 33.3753 45.2307 33.3753C 48.289 33.3753 51.2918 32.4744 53.4716 30.9063L 53.9721 30.5504L 54.1611 31.1287C 54.517 32.252 54.0499 33.6644 53.0045 34.6431C 51.9813 35.5995 50.6579 36.2446 48.9563 36.6227C 47.6774 36.9119 46.3984 37.0564 45.175 37.0564C 43.4957 37.0564 41.8386 36.7895 40.2483 36.2557C 39.1139 35.8776 38.1908 35.3326 37.4346 34.5875C 36.4893 33.6978 36.1111 32.5856 36.2668 31.2066ZM 53.0267 29.138C 51.9591 30.1501 50.5689 30.8173 48.7673 31.1843C 47.4883 31.4513 46.2427 31.5736 45.075 31.5736C 43.1732 31.5736 41.3604 31.2177 39.7033 30.5282C 38.9582 30.2168 38.1908 29.7274 37.379 29.0157C 36.467 28.2261 36.0889 27.1028 36.3002 25.7682L 36.4003 25.1232L 36.9675 25.4568C 39.7256 27.0917 42.5059 27.9147 45.2529 27.9147C 48.011 27.9147 50.8136 27.0694 53.5939 25.4124L 54.1834 25.0565L 54.2612 25.746C 54.3947 27.0917 53.9832 28.2261 53.0267 29.138Z" transform="translate(15540.8 -12026)" fill="#FFDAD4"></path>
                </g>
                <g id="Vector">
                    <path d="M 5.08253 3.39398e-07C 4.61543 3.39398e-07 4.14833 0.0667283 3.7146 0.189063C 1.51257 0.811861 -0.0110606 3.0695 6.08225e-05 5.69415C 0.0111822 8.64131 2.00191 11.0547 4.94907 11.6997C 5.37169 11.7887 5.78318 11.8331 6.18355 11.8331C 8.1854 11.8331 9.80912 10.7321 10.6543 8.79701C 11.2549 7.4402 11.3772 6.07227 11.0436 4.62649C 10.443 2.03521 7.81839 3.39398e-07 5.08253 3.39398e-07ZM 7.42914 9.79793C 6.87307 10.0648 6.317 10.1983 5.77206 10.1983C 4.94907 10.1983 4.19282 9.89803 3.51442 9.30859C 2.06864 8.04076 1.45696 6.53937 1.66827 4.8378C 1.90182 3.03614 3.48105 1.67933 5.34944 1.67933C 6.11682 1.67933 6.86195 1.91288 7.48475 2.36885C 8.75259 3.29193 9.57557 5.04911 9.57557 6.86189C 9.57557 8.07412 8.76371 9.16402 7.42914 9.79793Z" transform="translate(15557 -12013.8)" fill="#FFDAD4"></path>
                </g>
                <g id="Vector">
                    <path d="M 7.79063 7.94066C 7.93521 7.48469 8.3467 7.25114 9.10295 6.82853L 9.1252 6.81741C 9.15856 6.79516 9.19192 6.78404 9.22529 6.7618C 9.71463 6.43928 9.83697 6.01667 9.5923 5.50508C 8.93613 4.17052 8.3467 3.00277 7.80175 1.94624C 7.6683 1.67933 7.41251 1.36793 6.97877 1.36793C 6.83419 1.36793 6.66737 1.40129 6.50055 1.47914C 5.84439 1.7683 5.44402 1.93512 5.08814 1.93512C 4.4431 1.93512 4.14282 1.44578 3.60899 0.556069C 3.39769 0.200185 3.10853 3.39398e-07 2.80825 3.39398e-07C 2.69704 3.39398e-07 2.58582 0.0222428 2.47461 0.0778497C 1.82957 0.367006 1.15117 0.711768 0.394913 1.1455C 0.0835148 1.32344 -0.0499411 1.62372 0.0167872 2.02409C 0.0501513 2.24652 0.183608 2.63577 0.595099 2.69137C 0.862012 2.72474 1.22902 2.66913 1.50705 2.5468C 1.7406 2.4467 1.97415 2.34661 2.22994 2.34661C 2.54134 2.34661 2.81937 2.48007 3.09741 2.76922C 3.65348 3.34753 4.39861 3.61445 5.36617 3.60333C 5.55523 3.52548 5.73318 3.48099 5.9 3.48099C 6.66737 3.48099 6.98989 4.24837 7.17896 4.70434L 7.19008 4.71546C 7.2012 4.74883 7.22344 4.79331 7.23456 4.81556C 7.46811 5.1492 7.63493 5.66078 7.07886 6.20573C 6.58952 6.68395 6.03345 7.47357 6.15579 8.54122C 6.23364 9.24187 6.16691 9.94251 5.14374 10.3762C 4.94356 10.4652 4.8101 10.5987 4.74337 10.7877C 4.66552 11.0102 4.68777 11.2771 4.8101 11.5106C 4.9658 11.8109 5.24384 11.9888 5.57748 11.9888C 5.72205 11.9888 5.87775 11.9555 6.02233 11.8888C 6.65625 11.5885 7.26792 11.2771 7.82399 10.9657C 8.36894 10.6654 8.5024 10.2428 8.22436 9.65336C 7.84624 8.83038 7.64605 8.39664 7.79063 7.94066Z" transform="translate(15566.6 -12018.1)" fill="#FFDAD4"></path>
                </g>
                <g id="Vector">
                    <path d="M 8.85655 9.03056C 8.73422 9.03056 8.60076 9.0528 8.47842 9.10841C 8.30048 9.18626 8.12254 9.27523 7.91123 9.37532C 7.81114 9.43093 7.69993 9.48654 7.58871 9.54214L 7.27732 9.68672L 7.05489 9.43093C 6.25415 8.50786 5.3978 8.08524 4.53033 8.20758C 4.38576 8.22982 4.2523 8.24094 4.12996 8.24094C 3.05119 8.24094 2.67306 7.51805 2.45064 6.89526C 2.45064 6.89526 2.45064 6.88413 2.42839 6.86189C 2.22821 6.58386 2.09475 6.139 2.57297 5.6719C 3.36259 4.90453 3.68511 3.97033 3.54053 2.86932C 3.46268 2.291 3.66287 1.91288 4.17445 1.63484C 4.59706 1.41242 4.74164 0.945317 4.53033 0.500461C 4.38576 0.189063 4.07436 -6.78795e-07 3.75184 -6.78795e-07C 3.64062 -6.78795e-07 3.52941 0.0222428 3.4182 0.0667283C 2.86213 0.311399 2.30606 0.589433 1.79448 0.900832C 1.37186 1.15662 1.24953 1.56811 1.46083 2.01297C 1.50532 2.10194 1.5498 2.19091 1.58317 2.26876C 2.21709 3.59221 2.27269 4.09267 0.493273 5.02686C 0.0372968 5.26041 -0.118402 5.70527 0.0929038 6.15012C 0.749065 7.50693 1.38298 8.7414 2.02802 9.93139C 2.19484 10.2428 2.43952 10.3985 2.75091 10.3985C 2.91773 10.3985 3.08455 10.354 3.27362 10.2762C 3.35147 10.2428 3.42932 10.2094 3.50717 10.1649C 3.69623 10.076 3.89642 9.987 4.10772 9.89803C 4.28566 9.82018 4.47473 9.78681 4.64155 9.78681C 5.05304 9.78681 5.40892 9.99812 5.65359 10.3874C 5.75369 10.5431 5.84266 10.7099 5.93163 10.8656C 6.0206 11.0213 6.09845 11.1547 6.18742 11.2993C 6.37648 11.5885 6.65452 11.7664 6.94367 11.7664C 7.06601 11.7664 7.18834 11.7331 7.31068 11.6774C 8.0002 11.366 8.66749 11.0213 9.30141 10.6543C 9.70178 10.4207 9.83523 9.93139 9.62393 9.50878C 9.45711 9.2085 9.16795 9.03056 8.85655 9.03056Z" transform="translate(15548.9 -12009.6)" fill="#FFDAD4"></path>
                </g>
            </g>
        </g>
    </g>
</svg>