<svg width="47" height="32" viewBox="0 0 47 32" version="1.1" xmlns="http://www.w3.org/2000/svg" xmlns:xlink="http://www.w3.org/1999/xlink">
    <title>if_08.Credit-Card_290142</title>
    <desc>Created using Figma</desc>
    <g id="Canvas" transform="translate(-15097 12020)">
        <g id="if_08.Credit-Card_290142">
            <g id="Vector">
                <path fill-rule="evenodd" d="M 42 32L 4 32C 1.791 32 0 30.209 0 28L 0 4C 0 1.791 1.791 0 4 0L 42 0C 44.209 0 46 1.791 46 4L 46 28C 46 30.209 44.209 32 42 32ZM 2 13L 44 13L 44 9L 2 9L 2 13ZM 44 4C 44 2.896 43.104 2 42 2L 4 2C 2.896 2 2 2.896 2 4L 2 7L 44 7L 44 4ZM 44 15L 2 15L 2 28C 2 29.104 2.896 30 4 30L 42 30C 43.104 30 44 29.104 44 28L 44 15ZM 25 21L 21 21C 20.447 21 20 20.553 20 20C 20 19.448 20.447 19 21 19L 25 19C 25.553 19 26 19.448 26 20C 26 20.553 25.553 21 25 21ZM 16 21L 7 21C 6.447 21 6 20.553 6 20C 6 19.448 6.447 19 7 19L 16 19C 16.553 19 17 19.448 17 20C 17 20.553 16.553 21 16 21ZM 7 24L 13 24C 13.553 24 14 24.448 14 25C 14 25.553 13.553 26 13 26L 7 26C 6.447 26 6 25.553 6 25C 6 24.448 6.447 24 7 24Z" transform="translate(15097.1 -12020)" fill="#FFDAD4"></path>
            </g>
        </g>
    </g>
</svg>