<svg width="40" height="35" viewBox="0 0 40 35" version="1.1" xmlns="http://www.w3.org/2000/svg" xmlns:xlink="http://www.w3.org/1999/xlink">
    <title>Group 2.2</title>
    <desc>Created using Figma</desc>
    <g id="Canvas" transform="translate(-15881 12200)">
        <g id="Group 2.2">
            <g id="Line 2">
                <path d="M 0 0L 1.61885 0L 1.61885 -2L 0 -2L 0 0ZM 4.85655 0L 8.09425 0L 8.09425 -2L 4.85655 -2L 4.85655 0ZM 11.332 0L 14.5697 0L 14.5697 -2L 11.332 -2L 11.332 0ZM 17.8074 -1.11022e-16L 19.4262 -1.11022e-16L 19.4262 -2L 17.8074 -2L 17.8074 -1.11022e-16Z" transform="matrix(-0.0380929 0.999274 1 5.01222e-14 15887.9 -12188.5)" fill="#FFDAD4"></path>
            </g>
            <g id="Group">
                <g id="Vector">
                    <path d="M 35.52 25.9783L 1.48 25.9783L 1.48 27.7783L 35.52 27.7783L 35.52 25.9783ZM 1.48 25.9783C 1.1706 25.9783 0.9 25.7169 0.9 25.3851L -0.9 25.3851C -0.9 26.6958 0.161404 27.7783 1.48 27.7783L 1.48 25.9783ZM 0.9 25.3851L 0.9 1.49324L -0.9 1.49324L -0.9 25.3851L 0.9 25.3851ZM 0.9 1.49324C 0.9 1.16144 1.1706 0.9 1.48 0.9L 1.48 -0.9C 0.161404 -0.9 -0.9 0.182474 -0.9 1.49324L 0.9 1.49324ZM 1.48 0.9L 35.52 0.9L 35.52 -0.9L 1.48 -0.9L 1.48 0.9ZM 35.52 0.9C 35.8294 0.9 36.1 1.16144 36.1 1.49324L 37.9 1.49324C 37.9 0.182474 36.8386 -0.9 35.52 -0.9L 35.52 0.9ZM 36.1 1.49324L 36.1 25.3851L 37.9 25.3851L 37.9 1.49324L 36.1 1.49324ZM 36.1 25.3851C 36.1 25.7169 35.8294 25.9783 35.52 25.9783L 35.52 27.7783C 36.8386 27.7783 37.9 26.6958 37.9 25.3851L 36.1 25.3851Z" transform="translate(15882 -12192.9)" fill="#FFDAD4"></path>
                </g>
                <g id="Vector">
                    <path d="M 14.8 8.95943L 14.8 10.0594L 15.9 10.0594L 15.9 8.95943L 14.8 8.95943ZM 14.8 5.69626e-07L 15.9 5.69626e-07L 15.9 -1.1L 14.8 -1.1L 14.8 5.69626e-07ZM 14.8 7.85944L 1.48 7.85944L 1.48 10.0594L 14.8 10.0594L 14.8 7.85944ZM 1.48 7.85944C 1.28273 7.85944 1.1 7.68922 1.1 7.4662L -1.1 7.4662C -1.1 8.88573 0.0492716 10.0594 1.48 10.0594L 1.48 7.85944ZM 1.1 7.4662L 1.1 1.49324L -1.1 1.49324L -1.1 7.4662L 1.1 7.4662ZM 1.1 1.49324C 1.1 1.27022 1.28273 1.1 1.48 1.1L 1.48 -1.1C 0.0492717 -1.1 -1.1 0.073701 -1.1 1.49324L 1.1 1.49324ZM 1.48 1.1L 14.8 1.1L 14.8 -1.1L 1.48 -1.1L 1.48 1.1ZM 13.7 5.69626e-07L 13.7 8.95943L 15.9 8.95943L 15.9 5.69626e-07L 13.7 5.69626e-07Z" transform="translate(15904.2 -12183.5)" fill="#FFDAD4"></path>
                </g>
                <g id="Vector">
                    <path d="M 1.764 1.34391C 1.764 1.59665 1.56305 1.78783 1.332 1.78783L 1.332 3.58783C 2.57224 3.58783 3.564 2.57562 3.564 1.34391L 1.764 1.34391ZM 1.332 1.78783C 1.10095 1.78783 0.899999 1.59666 0.899999 1.34391L -0.900001 1.34391C -0.900001 2.57562 0.0917584 3.58783 1.332 3.58783L 1.332 1.78783ZM 0.899999 1.34391C 0.899999 1.09117 1.10095 0.9 1.332 0.9L 1.332 -0.9C 0.0917596 -0.9 -0.900001 0.112208 -0.900001 1.34391L 0.899999 1.34391ZM 1.332 0.9C 1.56305 0.9 1.764 1.09118 1.764 1.34391L 3.564 1.34391C 3.564 0.112205 2.57224 -0.9 1.332 -0.9L 1.332 0.9Z" transform="translate(15907.8 -12180.3)" fill="#FFDAD4"></path>
                </g>
                <g id="Vector">
                    <path d="M 17.39 0.0735367L 17.1293 -0.787868L 17.1117 -0.782553L 17.0944 -0.776527L 17.39 0.0735367ZM 19.24 0.820156L 20.0531 0.434252L 20.0415 0.409779L 20.0284 0.386048L 19.24 0.820156ZM 0.295621 6.97122L 17.6856 0.9236L 17.0944 -0.776527L -0.295622 5.27109L 0.295621 6.97122ZM 17.6507 0.934941C 17.9887 0.832636 18.289 0.958863 18.4516 1.25426L 20.0284 0.386048C 19.451 -0.662466 18.2713 -1.13353 17.1293 -0.787868L 17.6507 0.934941ZM 18.4269 1.20606L 20.9429 6.50706L 22.5691 5.73525L 20.0531 0.434252L 18.4269 1.20606Z" transform="translate(15889.9 -12199)" fill="#FFDAD4"></path>
                </g>
            </g>
        </g>
    </g>
</svg>