<svg width="18" height="24" viewBox="0 0 18 24" version="1.1" xmlns="http://www.w3.org/2000/svg" xmlns:xlink="http://www.w3.org/1999/xlink">
    <title>Vector 4.1</title>
    <desc>Created using Figma</desc>
    <g id="Canvas" transform="translate(285 19533)">
        <g id="Vector 4.1">
            <path d="M 0 0L 0.573253 -0.819378L -1 -1.92006L -1 0L 0 0ZM 0 20L -1 20L -1 21.8176L 0.535281 20.8447L 0 20ZM 15 10.4943L 15.5353 11.339L 16.8032 10.5354L 15.5733 9.67492L 15 10.4943ZM -1 0L -1 20L 1 20L 1 0L -1 0ZM 0.535281 20.8447L 15.5353 11.339L 14.4647 9.64962L -0.535281 19.1553L 0.535281 20.8447ZM 15.5733 9.67492L 0.573253 -0.819378L -0.573253 0.819378L 14.4267 11.3137L 15.5733 9.67492Z" transform="translate(-284 -19531)" fill="#353535"></path>
        </g>
    </g>
</svg>