<svg width="43" height="34" viewBox="0 0 43 34" version="1.1" xmlns="http://www.w3.org/2000/svg" xmlns:xlink="http://www.w3.org/1999/xlink">
    <title>“</title>
    <desc>Created using Figma</desc>
    <g id="Canvas" transform="translate(16775 15368)">
        <g id="“">
            <path d="M 9.32721 34C 6.58701 34 4.32108 33.0077 2.52941 31.023C 0.843137 29.0384 0 26.0092 0 21.9355C 0 16.6083 1.3701 11.9078 4.11029 7.8341C 6.95588 3.65591 11.3297 1.04455 17.2316 0L 17.864 4.07373C 11.2243 5.84946 7.90441 8.93088 7.90441 13.318C 7.90441 15.1982 8.80024 16.2949 10.5919 16.6083C 15.7561 17.4439 18.3382 20.2642 18.3382 25.0691C 18.3382 27.8894 17.4424 30.0829 15.6507 31.6498C 13.9645 33.2166 11.8566 34 9.32721 34ZM 33.989 34C 31.2488 34 28.9828 33.0077 27.1912 31.023C 25.5049 29.0384 24.6618 26.0092 24.6618 21.9355C 24.6618 16.6083 26.0319 11.9078 28.7721 7.8341C 31.6176 3.65591 35.9914 1.04455 41.8934 0L 42.5257 4.07373C 35.886 5.84946 32.5662 8.93088 32.5662 13.318C 32.5662 15.1982 33.462 16.2949 35.2537 16.6083C 40.4179 17.4439 43 20.2642 43 25.0691C 43 27.8894 42.1042 30.0829 40.3125 31.6498C 38.6262 33.2166 36.5184 34 33.989 34Z" transform="translate(-16775 -15368)" fill="#353535"></path>
        </g>
    </g>
</svg>
