<svg width="16" height="21" viewBox="0 0 16 21" version="1.1" xmlns="http://www.w3.org/2000/svg" xmlns:xlink="http://www.w3.org/1999/xlink">
    <title>Group</title>
    <desc>Created using Figma</desc>
    <g id="Canvas" transform="translate(17342 17353)">
        <g id="Group">
            <g id="Group">
                <g id="Vector">
                    <path d="M 1.41685 19.2488C 0.629713 19.2488 0 19.2488 0 18.4495L 0 1.43887C 0 0.639496 0.629713 -1.52468e-08 1.41685 -1.52468e-08C 2.204 -1.52468e-08 2.83371 0.639496 2.83371 1.43887L 2.83371 18.4495C 2.83371 19.2488 2.204 19.2488 1.41685 19.2488Z" transform="translate(-17341.5 -17351.3)" fill="#333333"></path>
                </g>
                <g id="Vector">
                    <path d="M 8.37527 12.4702L 1.41687 12.4702C 0.629719 12.4702 0 11.8307 0 11.0313C 0 10.2319 0.629719 9.59243 1.41687 9.59243L 8.37527 9.59243C 10.2959 9.59243 11.9332 8.05764 11.9332 6.23508C 11.9332 4.41252 10.3274 2.87773 8.43824 2.87773L 1.41687 2.87773C 0.629719 2.87773 0 2.23823 0 1.43886C 0 0.639495 0.629719 0 1.41687 0L 8.43824 0C 11.9332 0 14.7984 2.7818 14.7984 6.23508C 14.7669 9.6244 11.8387 12.4702 8.37527 12.4702Z" transform="translate(-17341.3 -17352)" fill="#333333"></path>
                </g>
                <g id="Vector">
                    <path d="M 10.2644 2.87775L 1.41687 2.87775C 0.629719 2.87775 0 2.23825 0 1.43887C 0 0.639499 0.629719 0 1.41687 0L 10.2644 0C 11.0516 0 11.0516 0.639499 11.0516 1.43887C 11.0516 2.23825 11.0516 2.87775 10.2644 2.87775Z" transform="translate(-17341.3 -17338.3)" fill="#333333"></path>
                </g>
            </g>
        </g>
    </g>
</svg>