<svg width="82" height="77" viewBox="0 0 82 77" version="1.1" xmlns="http://www.w3.org/2000/svg" xmlns:xlink="http://www.w3.org/1999/xlink">
    <title>1</title>
    <desc>Created using Figma</desc>
    <g id="Canvas" transform="translate(17369 19754)">
        <g id="1">
            <g id="Vector">
                <path d="M 1.05626e-14 11.0207C 0.134949 10.4537 0.269899 9.86949 0.438586 9.30248C 2.02424 3.46056 7.84394 -0.680324 13.3431 0.0928705C 19.6858 0.98634 24.2403 6.19252 24.274 12.5671C 24.3246 20.11 26.1802 27.2062 29.3852 33.976C 29.4359 34.0963 29.5202 34.2165 29.6383 34.4227C 29.9588 33.8901 30.2287 33.4433 30.5154 32.9794C 34.4796 26.519 39.3715 20.952 45.7647 16.8626C 51.9555 12.8935 58.6861 11.1753 66.0072 11.8454C 70.7135 12.275 75.2512 13.3918 79.5696 15.3506C 80.0756 15.5911 80.4974 16.0207 80.9697 16.3643C 80.9697 16.6564 80.9697 16.9313 80.9697 17.2234C 80.5142 17.5843 80.1263 18.0654 79.6202 18.2715C 64.489 24.4571 49.3578 30.6255 34.2266 36.7939C 33.9398 36.9141 33.653 37.0344 33.2144 37.2234C 33.6193 37.4124 33.8892 37.5327 34.176 37.653C 42.4247 41.055 50.6567 44.4571 58.9054 47.842C 59.1585 47.945 59.4284 48.0481 59.6814 48.1684C 60.4236 48.5464 60.7104 49.2337 60.4236 49.9382C 60.1369 50.6426 59.4452 50.9691 58.6861 50.677C 57.2186 50.11 55.7679 49.4914 54.3172 48.8901C 47.4853 46.0722 40.6367 43.2372 33.8048 40.4193C 33.5518 40.3162 33.2988 40.2475 33.0457 40.1616C 32.9951 40.2131 32.9277 40.2818 32.8771 40.3334C 34.2097 42.086 35.5423 43.8385 36.9087 45.5567C 37.4653 46.2612 38.1064 46.9141 38.7305 47.5842C 39.439 48.3746 39.5065 49.1822 38.8992 49.7664C 38.275 50.3677 37.5497 50.2475 36.7737 49.4399C 34.3109 46.8282 32.1517 43.9932 30.2456 40.9347C 30.06 40.6427 29.8913 40.3677 29.6551 40.0069C 28.0864 43.3402 26.9224 46.6908 26.0284 50.1615C 24.8138 54.8694 24.2403 59.6461 24.3078 64.5086C 24.3752 70.4193 19.9219 75.7801 14.1528 76.811C 13.9335 76.8454 13.7311 76.9313 13.5287 77C 12.6346 77 11.7237 77 10.8297 77C 10.6779 76.9485 10.5261 76.8625 10.3742 76.8282C 5.29677 75.7801 2.04111 72.7045 0.472323 67.7217C 0.303636 67.1547 0.185556 66.5705 0.0337374 66.0034C 0.0337374 65.0928 0.0337374 64.165 0.0337374 63.2543C 0.0843434 63.0653 0.168687 62.8935 0.202424 62.7045C 1.24828 57.6701 4.13283 54.2509 8.95727 52.7904C 13.6974 51.3471 17.729 52.8763 21.1027 56.433C 21.3726 56.7079 21.6088 57 21.9293 57.3608C 21.9968 57.0344 22.0642 56.811 22.098 56.5877C 22.9751 50.0756 24.915 43.8901 27.7996 38.031C 28.0695 37.464 28.0189 37.0516 27.749 36.5189C 25.6067 32.3265 23.9535 27.9279 22.9245 23.3059C 22.6378 22.0344 22.3847 20.763 22.098 19.3712C 21.8787 19.6461 21.7437 19.8179 21.5919 19.9898C 18.5049 23.6495 14.642 25.4708 9.91879 24.4743C 5.06061 23.4434 1.92303 20.299 0.438586 15.4709C 0.269899 14.9039 0.151818 14.3197 0 13.7526C 1.05626e-14 12.8592 1.05626e-14 11.9313 1.05626e-14 11.0207ZM 76.044 16.8111C 73.1595 15.7458 70.4099 15.11 67.576 14.732C 60.9972 13.8386 54.7557 14.7836 48.8854 18.0138C 42.0536 21.7767 36.9424 27.3437 32.8433 33.9588C 32.7759 34.0619 32.7421 34.1994 32.6072 34.5086C 47.1311 28.598 61.4695 22.7561 76.044 16.8111ZM 12.1792 54.9897C 6.7306 54.9897 2.69899 59.0791 2.68212 64.6289C 2.66525 70.11 6.7306 74.2509 12.0948 74.268C 17.5434 74.268 21.5919 70.1615 21.5919 64.6289C 21.6088 59.1478 17.5603 54.9897 12.1792 54.9897ZM 21.6088 12.3953C 21.6088 6.91417 17.5603 2.77328 12.1961 2.77328C 6.73061 2.77328 2.69899 6.86262 2.69899 12.3953C 2.68212 17.9107 6.76434 22.0344 12.1961 22.0172C 17.5603 22.0172 21.6088 17.8764 21.6088 12.3953Z" transform="translate(-17368 -19754)" fill="#FFDAD4"></path>
            </g>
            <g id="Vector">
                <path d="M 3.9648 1.93408C 3.1381 3.08528 1.95709 2.89628 0.877319 2.65573C 0.489275 2.56982 0 1.84817 0 1.41862C 0 0.989066 0.489275 0.267415 0.877319 0.181505C 1.95709 -0.0590448 3.15497 -0.248046 3.98167 0.903156C 3.9648 1.2468 3.9648 1.59044 3.9648 1.93408Z" transform="translate(-17291 -19699)" fill="#FFDAD4"></path>
            </g>
            <g id="Vector">
                <path d="M 2.86815 2.74055C 2.36201 2.74055 1.85586 2.75773 1.34972 2.74055C 0.556759 2.70618 0.0168715 2.13917 0 1.38316C 0 0.627148 0.523015 0.0601395 1.33285 0.0257753C 2.31139 -0.00858896 3.28994 -0.00858896 4.26848 0.0257753C 5.07831 0.0601395 5.60133 0.609965 5.60133 1.36598C 5.60133 2.12199 5.07831 2.689 4.26848 2.72336C 3.81295 2.77491 3.34055 2.74055 2.86815 2.74055Z" transform="translate(-17326.7 -19699)" fill="#FFDAD4"></path>
            </g>
            <g id="Vector">
                <path d="M 2.80221 0.0219952C 3.30835 0.0219952 3.8145 -0.012369 4.32064 0.0219952C 5.06299 0.0735415 5.586 0.640548 5.60288 1.34501C 5.60288 2.06666 5.09673 2.66804 4.37126 2.7024C 3.30836 2.75395 2.24545 2.75395 1.18255 2.68522C 0.457071 2.63368 0.0352842 2.13539 0.00154123 1.3622C -0.0322017 0.640549 0.490817 0.0563584 1.23316 0.00481204C 1.73931 -0.0123701 2.27919 0.0219952 2.80221 0.0219952Z" transform="translate(-17308.8 -19699)" fill="#FFDAD4"></path>
            </g>
            <g id="Vector">
                <path d="M 2.75048 2.73012C 2.24433 2.73012 1.73819 2.76449 1.23204 2.73012C 0.472827 2.6614 -0.0164496 2.11157 0.000421857 1.37274C 0.000421857 0.633907 0.489694 0.0668946 1.24891 0.0325304C 2.27807 -0.019016 3.32411 -0.00183387 4.35327 0.0325304C 5.11249 0.0668946 5.58488 0.65109 5.58488 1.37274C 5.58488 2.11157 5.09561 2.64421 4.3364 2.73012C 4.06645 2.76449 3.77964 2.74731 3.49282 2.74731C 3.25662 2.73013 3.00355 2.73012 2.75048 2.73012Z" transform="translate(-17317.8 -19699)" fill="#FFDAD4"></path>
            </g>
            <g id="Vector">
                <path d="M 2.8854 0.00763859C 3.3578 0.00763859 3.84707 -0.00954352 4.31947 0.00763859C 5.09556 0.0591849 5.65232 0.677737 5.63545 1.39939C 5.61858 2.10385 5.07869 2.68805 4.33635 2.72241C 3.32406 2.75677 2.31177 2.75677 1.31635 2.72241C 0.540263 2.68805 -0.0164992 2.05231 0.00037227 1.33066C 0.0172438 0.609009 0.590876 0.0591849 1.38384 0.00763859C 1.41758 0.00763859 1.43445 0.00763859 1.46819 0.00763859C 1.92372 0.00763859 2.39612 0.00763859 2.8854 0.00763859Z" transform="translate(-17300 -19699)" fill="#FFDAD4"></path>
            </g>
            <g id="Vector">
                <path d="M 1.97433 0.00763859C 3.34092 0.00763859 3.99891 0.437189 3.99891 1.34784C 4.01578 2.25849 3.34092 2.72241 2.00807 2.73959C 1.83935 2.73959 1.67064 2.73959 1.50192 2.73959C 0.557122 2.70523 0.000360995 2.20695 0.000360995 1.38221C -0.0165105 0.523102 0.557122 0.0248207 1.55254 0.00763859C 1.70438 -0.00954352 1.83935 0.00763859 1.97433 0.00763859Z" transform="translate(-17334 -19699)" fill="#FFDAD4"></path>
            </g>
        </g>
    </g>
</svg>
