<svg width="167" height="74" viewBox="0 0 167 74" version="1.1" xmlns="http://www.w3.org/2000/svg" xmlns:xlink="http://www.w3.org/1999/xlink">
    <title>Vector</title>
    <desc>Created using Figma</desc>
    <g id="Canvas" transform="translate(-36303 10235)">
        <g id="Vector">
            <path fill-rule="evenodd" d="M 69.0938 16.0986L 100.094 16.0986L 100.094 18.0986L 69.0938 18.0986L 69.0938 16.0986Z" transform="translate(36303 -10235)" fill="#FFDAD4"></path>
            <path fill-rule="evenodd" d="M 75.1094 10.0986C 72.9002 10.0986 71.1094 11.8895 71.1094 14.0986L 71.1094 17.0986L 69.1094 17.0986L 69.1094 14.0986C 69.1094 10.7849 71.7957 8.09863 75.1094 8.09863L 79.3389 8.09863C 82.6526 8.09863 85.3389 10.7849 85.3389 14.0986L 85.3389 17.0986L 83.3389 17.0986L 83.3389 14.0986C 83.3389 11.8895 81.548 10.0986 79.3389 10.0986L 75.1094 10.0986Z" transform="translate(36303 -10235)" fill="#FFDAD4"></path>
            <path fill-rule="evenodd" d="M 90.0938 17.0986L 90.0938 11.5986L 92.0938 11.5986L 92.0938 17.0986L 90.0938 17.0986Z" transform="translate(36303 -10235)" fill="#FFDAD4"></path>
            <path fill-rule="evenodd" d="M 41 53L 0 53L 0 51L 41 51L 41 53Z" transform="translate(36303 -10235)" fill="#FFDAD4"></path>
            <path fill-rule="evenodd" d="M 167 53L 129 53L 129 51L 167 51L 167 53Z" transform="translate(36303 -10235)" fill="#FFDAD4"></path>
            <path fill-rule="evenodd" d="M 51.066 9.64345C 49.3431 11.0862 48.5625 12.5281 48.5625 13.8968C 48.5625 15.2655 49.3431 16.7073 51.066 18.1501C 52.7836 19.5884 55.3287 20.9286 58.5614 22.0735C 65.0178 24.3603 74.0028 25.7935 83.9751 25.7935C 93.9473 25.7935 102.932 24.3603 109.389 22.0735C 112.621 20.9286 115.167 19.5884 116.884 18.1501C 118.607 16.7073 119.388 15.2655 119.388 13.8968C 119.388 12.5281 118.607 11.0862 116.884 9.64345C 115.167 8.20516 112.621 6.86497 109.389 5.72C 102.932 3.43322 93.9473 2 83.9751 2C 74.0028 2 65.0178 3.43322 58.5614 5.72C 55.3287 6.86497 52.7836 8.20516 51.066 9.64345ZM 57.8936 3.83475C 64.6159 1.45382 73.8372 0 83.9751 0C 94.1129 0 103.334 1.45382 110.056 3.83475C 113.413 5.02364 116.201 6.46247 118.168 8.11007C 120.13 9.75321 121.388 11.7041 121.388 13.8968C 121.388 16.0894 120.13 18.0403 118.168 19.6835C 116.201 21.3311 113.413 22.7699 110.056 23.9588C 103.334 26.3397 94.1129 27.7935 83.9751 27.7935C 73.8372 27.7935 64.6159 26.3397 57.8936 23.9588C 54.5369 22.7699 51.7495 21.3311 49.782 19.6835C 47.8197 18.0403 46.5625 16.0894 46.5625 13.8968C 46.5625 11.7041 47.8197 9.75321 49.782 8.11007C 51.7495 6.46247 54.5369 5.02364 57.8936 3.83475Z" transform="translate(36303 -10235)" fill="#FFDAD4"></path>
            <path fill-rule="evenodd" d="M 46.5 23.6086L 46.5 14.6465L 48.5 14.6465L 48.5 23.6086C 48.5 24.9774 49.2807 26.4231 51.0035 27.8718C 52.7207 29.3157 55.265 30.6636 58.4968 31.8163C 64.9516 34.1186 73.936 35.5679 83.9126 35.5679C 93.8908 35.5679 102.876 34.1416 109.331 31.8621C 112.563 30.7207 115.107 29.3843 116.824 27.949C 118.545 26.5095 119.325 25.0701 119.325 23.7023L 119.325 14.6465L 121.325 14.6465L 121.325 23.7023C 121.325 25.8944 120.068 27.8432 118.107 29.4834C 116.14 31.1279 113.353 32.5629 109.997 33.7479C 103.276 36.1213 94.0554 37.5679 83.9126 37.5679C 73.7681 37.5679 64.5462 36.0974 57.8249 33.7C 54.4687 32.5029 51.6826 31.0559 49.7163 29.4025C 47.7557 27.7539 46.5 25.7997 46.5 23.6086Z" transform="translate(36303 -10235)" fill="#FFDAD4"></path>
            <path fill-rule="evenodd" d="M 51.207 29.948L 51.207 20.2676L 53.207 20.2676L 53.207 29.948L 51.207 29.948Z" transform="translate(36303 -10235)" fill="#FFDAD4"></path>
            <path fill-rule="evenodd" d="M 56.2305 32.446L 56.2305 22.7656L 58.2305 22.7656L 58.2305 32.446L 56.2305 32.446Z" transform="translate(36303 -10235)" fill="#FFDAD4"></path>
            <path fill-rule="evenodd" d="M 63.4492 34.9441L 63.4492 25.2637L 65.4492 25.2637L 65.4492 34.9441L 63.4492 34.9441Z" transform="translate(36303 -10235)" fill="#FFDAD4"></path>
            <path fill-rule="evenodd" d="M 70.3555 35.8806L 70.3555 26.2002L 72.3555 26.2002L 72.3555 35.8806L 70.3555 35.8806Z" transform="translate(36303 -10235)" fill="#FFDAD4"></path>
            <path fill-rule="evenodd" d="M 79.7734 36.5056L 79.7734 26.8252L 81.7734 26.8252L 81.7734 36.5056L 79.7734 36.5056Z" transform="translate(36303 -10235)" fill="#FFDAD4"></path>
            <path fill-rule="evenodd" d="M 90.4453 36.5056L 90.4453 26.8252L 92.4453 26.8252L 92.4453 36.5056L 90.4453 36.5056Z" transform="translate(36303 -10235)" fill="#FFDAD4"></path>
            <path fill-rule="evenodd" d="M 101.746 34.9441L 101.746 25.2637L 103.746 25.2637L 103.746 34.9441L 101.746 34.9441Z" transform="translate(36303 -10235)" fill="#FFDAD4"></path>
            <path fill-rule="evenodd" d="M 108.652 33.07L 108.652 23.3896L 110.652 23.3896L 110.652 33.07L 108.652 33.07Z" transform="translate(36303 -10235)" fill="#FFDAD4"></path>
            <path fill-rule="evenodd" d="M 113.988 30.572L 113.988 20.8916L 115.988 20.8916L 115.988 30.572L 113.988 30.572Z" transform="translate(36303 -10235)" fill="#FFDAD4"></path>
            <path fill-rule="evenodd" d="M 52.0692 44.4685C 49.6842 46.1804 48.5938 47.887 48.5938 49.4956C 48.5938 50.8637 49.3738 52.3052 51.0958 53.7478C 52.8126 55.1859 55.3566 56.5262 58.5886 57.6713C 65.0436 59.9584 74.0286 61.3924 84.0063 61.3924C 93.984 61.3924 102.969 59.9584 109.424 57.6713C 112.656 56.5262 115.2 55.1859 116.917 53.7478C 118.639 52.3052 119.419 50.8637 119.419 49.4956C 119.419 49.1608 119.352 48.8254 119.233 48.3805L 121.165 47.8627C 121.297 48.3546 121.419 48.8935 121.419 49.4956C 121.419 51.6874 120.162 53.6379 118.201 55.2809C 116.234 56.9284 113.448 58.3674 110.092 59.5565C 103.371 61.9378 94.1497 63.3924 84.0063 63.3924C 73.8629 63.3924 64.6416 61.9378 57.9207 59.5565C 54.5646 58.3674 51.7782 56.9284 49.8115 55.2809C 47.8502 53.6379 46.5938 51.6874 46.5938 49.4956C 46.5938 46.9197 48.3284 44.6917 50.903 42.8438L 52.0692 44.4685Z" transform="translate(36303 -10235)" fill="#FFDAD4"></path>
            <path fill-rule="evenodd" d="M 46.5 59.2073L 46.5 50.2451L 48.5 50.2451L 48.5 59.2073C 48.5 60.5761 49.2807 62.0218 51.0035 63.4704C 52.7207 64.9144 55.265 66.2622 58.4968 67.4149C 64.9516 69.7172 73.936 71.1665 83.9126 71.1665C 93.8908 71.1665 102.876 69.7402 109.331 67.4607C 112.563 66.3194 115.107 64.9829 116.824 63.5477C 118.545 62.1081 119.325 60.6687 119.325 59.301L 119.325 50.2763L 121.325 50.2763L 121.325 59.301C 121.325 61.4931 120.068 63.4418 118.107 65.082C 116.14 66.7266 113.353 68.1615 109.997 69.3466C 103.276 71.7199 94.0554 73.1665 83.9126 73.1665C 73.7681 73.1665 64.5462 71.696 57.8249 69.2987C 54.4687 68.1016 51.6826 66.6546 49.7163 65.0012C 47.7557 63.3525 46.5 61.3984 46.5 59.2073Z" transform="translate(36303 -10235)" fill="#FFDAD4"></path>
            <path fill-rule="evenodd" d="M 51.207 65.5466L 51.207 55.8662L 53.207 55.8662L 53.207 65.5466L 51.207 65.5466Z" transform="translate(36303 -10235)" fill="#FFDAD4"></path>
            <path fill-rule="evenodd" d="M 56.2305 68.0446L 56.2305 58.3643L 58.2305 58.3643L 58.2305 68.0446L 56.2305 68.0446Z" transform="translate(36303 -10235)" fill="#FFDAD4"></path>
            <path fill-rule="evenodd" d="M 63.4492 70.5427L 63.4492 60.8623L 65.4492 60.8623L 65.4492 70.5427L 63.4492 70.5427Z" transform="translate(36303 -10235)" fill="#FFDAD4"></path>
            <path fill-rule="evenodd" d="M 70.3555 71.4792L 70.3555 61.7988L 72.3555 61.7988L 72.3555 71.4792L 70.3555 71.4792Z" transform="translate(36303 -10235)" fill="#FFDAD4"></path>
            <path fill-rule="evenodd" d="M 79.7734 72.1042L 79.7734 62.4238L 81.7734 62.4238L 81.7734 72.1042L 79.7734 72.1042Z" transform="translate(36303 -10235)" fill="#FFDAD4"></path>
            <path fill-rule="evenodd" d="M 90.4453 72.1042L 90.4453 62.4238L 92.4453 62.4238L 92.4453 72.1042L 90.4453 72.1042Z" transform="translate(36303 -10235)" fill="#FFDAD4"></path>
            <path fill-rule="evenodd" d="M 101.746 70.5427L 101.746 60.8623L 103.746 60.8623L 103.746 70.5427L 101.746 70.5427Z" transform="translate(36303 -10235)" fill="#FFDAD4"></path>
            <path fill-rule="evenodd" d="M 108.652 68.6687L 108.652 58.9883L 110.652 58.9883L 110.652 68.6687L 108.652 68.6687Z" transform="translate(36303 -10235)" fill="#FFDAD4"></path>
            <path fill-rule="evenodd" d="M 113.988 66.1706L 113.988 56.4902L 115.988 56.4902L 115.988 66.1706L 113.988 66.1706Z" transform="translate(36303 -10235)" fill="#FFDAD4"></path>
            <path fill-rule="evenodd" d="M 123.497 32.3524C 123.497 30.5731 122.152 28.6489 119.229 26.8313L 120.285 25.1328C 123.389 27.0625 125.497 29.51 125.497 32.3524C 125.497 34.5441 124.241 36.4947 122.279 38.1377C 120.313 39.7852 117.526 41.2242 114.17 42.4132C 107.449 44.7946 98.2278 46.2491 88.0844 46.2491C 77.941 46.2491 68.7198 44.7946 61.9988 42.4132C 58.6427 41.2242 55.8563 39.7852 53.8897 38.1377C 51.9283 36.4947 50.6719 34.5441 50.6719 32.3524C 50.6719 31.3507 50.945 30.412 51.4134 29.5159L 53.1859 30.4424C 52.8382 31.1076 52.6719 31.7303 52.6719 32.3524C 52.6719 33.7205 53.4519 35.162 55.174 36.6046C 56.8907 38.0427 59.4347 39.3829 62.6667 40.5281C 69.1217 42.8152 78.1067 44.2491 88.0844 44.2491C 98.0621 44.2491 107.047 42.8152 113.502 40.5281C 116.734 39.3829 119.278 38.0427 120.995 36.6046C 122.717 35.162 123.497 33.7205 123.497 32.3524Z" transform="translate(36303 -10235)" fill="#FFDAD4"></path>
            <path fill-rule="evenodd" d="M 50.5781 42.0325L 50.5781 33.0703L 52.5781 33.0703L 52.5781 42.0325C 52.5781 43.4013 53.3589 44.847 55.0816 46.2956C 56.7988 47.7396 59.3432 49.0874 62.575 50.2401C 69.0297 52.5424 78.0141 53.9917 87.9907 53.9917C 97.9689 53.9917 106.954 52.5654 113.409 50.2859C 116.641 49.1446 119.185 47.8081 120.902 46.3729C 122.624 44.9333 123.403 43.4939 123.403 42.1262L 123.403 33.1015L 125.403 33.1015L 125.403 42.1262C 125.403 44.3183 124.146 46.267 122.185 47.9072C 120.218 49.5518 117.431 50.9867 114.075 52.1718C 107.355 54.5451 98.1335 55.9917 87.9907 55.9917C 77.8462 55.9917 68.6243 54.5212 61.903 52.1239C 58.5468 50.9268 55.7607 49.4798 53.7945 47.8264C 51.8338 46.1777 50.5781 44.2236 50.5781 42.0325Z" transform="translate(36303 -10235)" fill="#FFDAD4"></path>
            <path fill-rule="evenodd" d="M 55.2852 48.3718L 55.2852 38.6914L 57.2852 38.6914L 57.2852 48.3718L 55.2852 48.3718Z" transform="translate(36303 -10235)" fill="#FFDAD4"></path>
            <path fill-rule="evenodd" d="M 60.3086 50.8698L 60.3086 41.1895L 62.3086 41.1895L 62.3086 50.8698L 60.3086 50.8698Z" transform="translate(36303 -10235)" fill="#FFDAD4"></path>
            <path fill-rule="evenodd" d="M 67.5273 53.3679L 67.5273 43.6875L 69.5273 43.6875L 69.5273 53.3679L 67.5273 53.3679Z" transform="translate(36303 -10235)" fill="#FFDAD4"></path>
            <path fill-rule="evenodd" d="M 74.4336 54.3054L 74.4336 44.625L 76.4336 44.625L 76.4336 54.3054L 74.4336 54.3054Z" transform="translate(36303 -10235)" fill="#FFDAD4"></path>
            <path fill-rule="evenodd" d="M 83.8516 54.9294L 83.8516 45.249L 85.8516 45.249L 85.8516 54.9294L 83.8516 54.9294Z" transform="translate(36303 -10235)" fill="#FFDAD4"></path>
            <path fill-rule="evenodd" d="M 94.5234 54.9294L 94.5234 45.249L 96.5234 45.249L 96.5234 54.9294L 94.5234 54.9294Z" transform="translate(36303 -10235)" fill="#FFDAD4"></path>
            <path fill-rule="evenodd" d="M 105.824 53.3679L 105.824 43.6875L 107.824 43.6875L 107.824 53.3679L 105.824 53.3679Z" transform="translate(36303 -10235)" fill="#FFDAD4"></path>
            <path fill-rule="evenodd" d="M 112.73 51.4948L 112.73 41.8145L 114.73 41.8145L 114.73 51.4948L 112.73 51.4948Z" transform="translate(36303 -10235)" fill="#FFDAD4"></path>
            <path fill-rule="evenodd" d="M 118.066 48.9968L 118.066 39.3164L 120.066 39.3164L 120.066 48.9968L 118.066 48.9968Z" transform="translate(36303 -10235)" fill="#FFDAD4"></path>
        </g>
    </g>
</svg>