<svg width="46" height="41" viewBox="0 0 46 41" version="1.1" xmlns="http://www.w3.org/2000/svg" xmlns:xlink="http://www.w3.org/1999/xlink">
    <title>Group 2.1</title>
    <desc>Created using Figma</desc>
    <g id="Canvas" transform="translate(-30228 10342)">
        <g id="Group 2.1">
            <g id="Line 2 (Stroke)">
                <path fill-rule="evenodd" d="M 1.73908 2.06536L 0 1.99852L 0.0768095 0L 1.81589 0.0668382L 1.73908 2.06536ZM 8.69539 2.33272L 5.21723 2.19904L 5.29404 0.200515L 8.7722 0.334191L 8.69539 2.33272ZM 15.6517 2.60007L 12.1735 2.46639L 12.2504 0.467867L 15.7285 0.601544L 15.6517 2.60007ZM 20.8689 2.80058L 19.1299 2.73374L 19.2067 0.73522L 20.9457 0.802058L 20.8689 2.80058Z" transform="matrix(-0.0384331 0.999261 1 4.96778e-14 30233.9 -10328.4)" fill="#B1BABE"></path>
            </g>
            <g id="Group">
                <g id="Vector (Stroke)">
                    <path fill-rule="evenodd" d="M 2.63248 1.8C 2.17667 1.8 1.8 2.17667 1.8 2.63248L 1.8 30.3521C 1.8 30.8079 2.17667 31.1846 2.63248 31.1846L 42.4794 31.1846C 42.9352 31.1846 43.3119 30.8079 43.3119 30.3521L 43.3119 2.63248C 43.3119 2.17667 42.9352 1.8 42.4794 1.8L 2.63248 1.8ZM 0 2.63248C 0 1.18256 1.18256 0 2.63248 0L 42.4794 0C 43.9293 0 45.1119 1.18256 45.1119 2.63248L 45.1119 30.3521C 45.1119 31.802 43.9293 32.9846 42.4794 32.9846L 2.63248 32.9846C 1.18256 32.9846 0 31.802 0 30.3521L 0 2.63248Z" transform="translate(30228.1 -10334.3)" fill="#B1BABE"></path>
                </g>
                <g id="Vector (Stroke)">
                    <path fill-rule="evenodd" d="M 2.8 2.2C 2.54925 2.2 2.2 2.45282 2.2 2.93333L 2.2 10.2667C 2.2 10.7472 2.54925 11 2.8 11L 17 11L 17 2.2L 2.8 2.2ZM 0 2.93333C 0 1.39718 1.18075 0 2.8 0L 19.2 0L 19.2 13.2L 2.8 13.2C 1.18075 13.2 0 11.8028 0 10.2667L 0 2.93333Z" transform="translate(30254.1 -10324.1)" fill="#B1BABE"></path>
                </g>
                <g id="Vector (Stroke)">
                    <path fill-rule="evenodd" d="M 2.45923 1.8C 2.09515 1.8 1.8 2.09515 1.8 2.45923C 1.8 2.82331 2.09515 3.11846 2.45923 3.11846C 2.82331 3.11846 3.11846 2.82331 3.11846 2.45923C 3.11846 2.09515 2.82331 1.8 2.45923 1.8ZM 0 2.45923C 0 1.10103 1.10103 0 2.45923 0C 3.81742 0 4.91846 1.10103 4.91846 2.45923C 4.91846 3.81742 3.81742 4.91846 2.45923 4.91846C 1.10103 4.91846 0 3.81742 0 2.45923Z" transform="translate(30258.2 -10319.7)" fill="#B1BABE"></path>
                </g>
                <g id="Vector (Stroke)">
                    <path fill-rule="evenodd" d="M 20.9235 1.84284L 0.58656 8.85261L 0 7.15086L 20.3738 0.128402L 20.3913 0.123168C 21.6542 -0.255715 22.9595 0.257587 23.6022 1.41437L 23.6154 1.43817L 26.5724 7.61302L 24.9489 8.39045L 22.0172 2.26835C 21.7932 1.88434 21.3792 1.71253 20.9235 1.84284Z" transform="translate(30238 -10341.4)" fill="#B1BABE"></path>
                </g>
            </g>
        </g>
    </g>
</svg>