<svg width="31" height="48" viewBox="0 0 31 48" version="1.1" xmlns="http://www.w3.org/2000/svg" xmlns:xlink="http://www.w3.org/1999/xlink">
    <title>Group 10.3</title>
    <desc>Created using Figma</desc>
    <g id="Canvas" transform="translate(-30235 10237)">
        <g id="Group 10.3">
            <g id="Vector 3 (Stroke)">
                <path fill-rule="evenodd" d="M 0 0L 30.6061 0L 30.6061 9.4523C 30.6061 9.982 30.5388 10.794 30.3137 11.5055C 30.2224 11.7941 30.0917 12.1104 29.8974 12.3919C 29.9283 12.4332 29.9586 12.476 29.988 12.5205C 30.3781 13.1125 30.6061 13.9389 30.6061 15.1538L 30.6061 42.3487C 30.6625 42.9402 30.6042 43.8172 30.1984 44.5932C 29.7432 45.464 28.8734 46.1453 27.5144 46.1453L 3.40488 46.1453C 2.86378 46.1453 2.05758 46.0082 1.35562 45.5608C 0.605157 45.0825 0 44.2571 0 43.028L 0 15.1538C 0 14.3356 0.0754696 13.4598 0.394301 12.761C 0.460803 12.6152 0.540372 12.4716 0.635532 12.3352C 0.562526 12.2432 0.497082 12.1474 0.439021 12.0495C 0.100139 11.4781 0 10.8324 0 10.4026L 0 0ZM 2.46555 11.4031L 2.46555 13.2031C 2.3121 13.2031 2.24323 13.239 2.20794 13.2636C 2.16582 13.293 2.10055 13.3577 2.03192 13.5081C 1.88109 13.8387 1.8 14.3883 1.8 15.1538L 1.8 40.2275L 28.8061 40.2275L 28.8061 15.1538C 28.8061 14.1515 28.6167 13.7109 28.485 13.511C 28.3804 13.3523 28.3021 13.2981 28.1502 13.193C 28.0858 13.1485 28.0082 13.0948 27.9097 13.0201L 25.9488 11.5323L 25.9488 13.2031L 24.0701 13.2031L 24.0701 11.4031L 28.3908 11.4031C 28.4454 11.3367 28.5232 11.1976 28.5975 10.9626C 28.7482 10.4863 28.8061 9.87286 28.8061 9.4523L 28.8061 1.8L 1.8 1.8L 1.8 10.4026C 1.8 10.6062 1.85642 10.9108 1.9872 11.1313C 2.04697 11.232 2.10978 11.2946 2.17024 11.3324C 2.22491 11.3667 2.31217 11.4031 2.46555 11.4031ZM 28.8061 42.0275L 1.8 42.0275L 1.8 43.028C 1.8 43.5727 2.0298 43.856 2.32304 44.0429C 2.66478 44.2607 3.11102 44.3453 3.40488 44.3453L 27.5144 44.3453C 28.1592 44.3453 28.4375 44.0763 28.6033 43.7593C 28.8064 43.3708 28.8509 42.8518 28.8115 42.4928L 28.8061 42.4438L 28.8061 42.0275ZM 6.22287 13.2031L 4.34421 13.2031L 4.34421 11.4031L 6.22287 11.4031L 6.22287 13.2031ZM 9.35397 13.2031L 7.78842 13.2031L 7.78842 11.4031L 9.35397 11.4031L 9.35397 13.2031ZM 13.1113 13.2031L 11.2326 13.2031L 11.2326 11.4031L 13.1113 11.4031L 13.1113 13.2031ZM 17.4948 13.2031L 15.6162 13.2031L 15.6162 11.4031L 17.4948 11.4031L 17.4948 13.2031ZM 21.8784 13.2031L 19.9997 13.2031L 19.9997 11.4031L 21.8784 11.4031L 21.8784 13.2031ZM 22.9725 33.0251L 7.00389 23.2058L 7.94674 21.6725L 23.9154 31.4918L 22.9725 33.0251Z" transform="matrix(1 1.60812e-16 -1.60812e-16 1 30235.1 -10236)" fill="#B1BABE"></path>
            </g>
            <g id="Ellipse 2 (Stroke)">
                <path fill-rule="evenodd" d="M 3.75732 5.80205C 4.81875 5.80205 5.71464 4.92584 5.71464 3.80102C 5.71464 2.67621 4.81875 1.8 3.75732 1.8C 2.69589 1.8 1.8 2.67621 1.8 3.80102C 1.8 4.92584 2.69589 5.80205 3.75732 5.80205ZM 3.75732 7.60205C 5.83243 7.60205 7.51464 5.90027 7.51464 3.80102C 7.51464 1.70178 5.83243 0 3.75732 0C 1.68221 0 0 1.70178 0 3.80102C 0 5.90027 1.68221 7.60205 3.75732 7.60205Z" transform="matrix(1 1.60812e-16 -1.60812e-16 1 30243.8 -10207.3)" fill="#B1BABE"></path>
            </g>
            <g id="Ellipse 2.1 (Stroke)">
                <path fill-rule="evenodd" d="M 3.75732 5.80205C 4.81875 5.80205 5.71464 4.92584 5.71464 3.80102C 5.71464 2.67621 4.81875 1.8 3.75732 1.8C 2.69589 1.8 1.8 2.67621 1.8 3.80102C 1.8 4.92584 2.69589 5.80205 3.75732 5.80205ZM 3.75732 7.60205C 5.83243 7.60205 7.51464 5.90027 7.51464 3.80102C 7.51464 1.70178 5.83243 0 3.75732 0C 1.68221 0 0 1.70178 0 3.80102C 0 5.90027 1.68221 7.60205 3.75732 7.60205Z" transform="matrix(1 1.60812e-16 -1.60812e-16 1 30250.1 -10217.4)" fill="#B1BABE"></path>
            </g>
        </g>
    </g>
</svg>