<svg width="23" height="32" viewBox="0 0 23 32" version="1.1" xmlns="http://www.w3.org/2000/svg" xmlns:xlink="http://www.w3.org/1999/xlink">
    <title>if_location_1814106</title>
    <desc>Created using Figma</desc>
    <g id="Canvas" transform="translate(-31334 9986)">
        <g id="if_location_1814106">
            <g id="Group">
                <g id="Icon Location">
                    <g id="Vector">
                        <path d="M 11.5 32L 10.8839 31.2558C 10.4732 30.7146 0 18.6047 0 11.3658C 0 5.07401 5.20238 0 11.5 0C 17.7976 0 23 5.14166 23 11.3658C 23 18.6047 12.5268 30.7822 12.1161 31.2558L 11.5 32ZM 11.5 1.55604C 6.02381 1.55604 1.64286 5.9535 1.64286 11.2981C 1.64286 16.981 9.24107 26.6554 11.5 29.4292C 13.7589 26.6554 21.3571 17.0486 21.3571 11.2981C 21.3571 5.9535 16.9762 1.55604 11.5 1.55604Z" transform="translate(31334 -9986)" fill="#FFDAD4"></path>
                        <path d="M 11.4981 15.6958C 9.1023 15.6958 7.11719 13.7338 7.11719 11.366C 7.11719 8.99809 9.1023 7.03613 11.4981 7.03613C 13.894 7.03613 15.8791 8.99809 15.8791 11.366C 15.8791 13.7338 13.894 15.6958 11.4981 15.6958ZM 11.4981 8.65983C 9.99218 8.65983 8.76004 9.87759 8.76004 11.366C 8.76004 12.8543 9.99218 14.0721 11.4981 14.0721C 13.0041 14.0721 14.2362 12.8543 14.2362 11.366C 14.2362 9.87759 13.0041 8.65983 11.4981 8.65983Z" transform="translate(31334 -9986)" fill="#FFDAD4"></path>
                    </g>
                </g>
            </g>
        </g>
    </g>
</svg>