<svg width="122" height="103" viewBox="0 0 122 103" version="1.1" xmlns="http://www.w3.org/2000/svg" xmlns:xlink="http://www.w3.org/1999/xlink">
    <title>Group</title>
    <desc>Created using Figma</desc>
    <g id="Canvas" transform="translate(-35730 10256)">
        <g id="Group">
            <g id="Vector">
                <path d="M 70.6016 36.6041L 83.4016 43.3041L 88.7016 54.5041L 94.5016 42.6041L 106.602 36.7041L 94.5016 30.7041L 88.5016 18.7041L 83.4016 30.7041L 70.6016 36.6041ZM 88.6016 23.5041L 93.0016 32.2041L 102.002 36.7041L 93.0016 41.1041L 88.7016 49.9041L 84.9016 41.9041L 75.1016 36.8041L 84.9016 32.3041L 88.6016 23.5041Z" transform="translate(35730 -10256)" fill="#FFDAD4"></path>
                <path d="M 104.399 23.2043L 107.699 16.5043L 114.499 13.2043L 107.699 9.8043L 104.299 2.9043L 101.399 9.7043L 94.1992 13.0043L 101.399 16.7043L 104.399 23.2043ZM 102.899 11.2043L 104.399 7.6043L 106.199 11.2043L 109.999 13.1043L 106.199 14.9043L 104.399 18.5043L 102.899 15.3043L 98.6992 13.1043L 102.899 11.2043Z" transform="translate(35730 -10256)" fill="#FFDAD4"></path>
                <path d="M 119.8 58.1045L 119.6 58.2045L 118.9 56.9045L 108 63.3045L 97.9 45.6045L 96.2 46.6045L 106.3 64.3045L 71.4 84.4045L 72.4 86.1045L 72.5 86.0045L 72.9 86.7045C 75.4 91.0045 74.1 96.4045 70 99.1045L 68.9 99.8045C 64.5 102.104 59 100.504 56.5 96.2045L 55.7 94.9045L 24.6 39.0045L 20.8 32.2045C 19.9 30.5045 18.4 29.3045 16.6 28.8045L 60.7 4.10446L 63.3 2.70446C 66.4 1.10446 70.3 2.10446 72.1 4.90446L 74.6 8.80446L 83 23.6045L 84.7 22.6045L 76.4 7.80446L 73.9 3.90446L 73 4.40446L 73.8 3.90446C 71.4 0.204458 66.3 -1.09554 62.4 1.00446L 59.7 2.40446L 59.8 2.60446L 59.7 2.50446L 13 28.6045L 13 28.7045C 12.4 28.8045 11.9 29.0045 11.3 29.3045L 11.2 29.3045C 7.7 31.1045 6.3 35.2045 7.9 38.8045L 13.9 51.8045C 13.9 51.8045 13.8 51.9045 13.7 52.0045C 13.5 52.2045 13.1 52.4045 12.5 52.5045C 11.4 52.7045 9.8 52.9045 8.2 52.9045C 6.6 52.9045 4.9 52.9045 3.7 52.8045C 3.1 52.8045 2.6 52.7045 2.2 52.7045C 2 52.7045 1.9 52.7045 1.8 52.7045L 1.7 52.7045C 1.7 52.7045 1.7 52.7045 1.7 53.0045L 0 53.8045L 4.2 60.6045C 6.1 63.9045 10.2 65.2045 13.7 63.5045L 13.8 63.5045L 30.8 54.1045L 50.5 89.5045L 50.4 89.5045L 54.8 97.1045C 57.9 102.504 64.9 104.404 70.3 101.304L 70.5 101.204C 70.7 101.104 70.9 100.904 71.1 100.804L 114.8 75.7045L 115 75.6045C 121.2 72.1045 123.3 64.3045 119.8 58.1045ZM 5.9 59.6045L 2.9 54.7045C 3.1 54.7045 3.3 54.7045 3.5 54.7045C 4.8 54.9045 6.5 54.9045 8.2 54.9045C 9.9 54.9045 11.7 54.7045 13.1 54.3045C 13.7 54.1045 14.3 53.9045 14.8 53.6045L 15.4 54.9045L 16.3 54.5045L 15.3 54.9045C 16.5 57.4045 15.4 60.5045 12.9 61.7045L 12.8 61.7045C 10.3 63.0045 7.3 62.1045 5.9 59.6045ZM 17.5 59.2045C 18 57.6045 17.9 55.7045 17.2 54.0045L 10.8 40.2045L 9.7 37.9045C 8.5 35.4045 9.6 32.3045 12.1 31.1045L 12.2 31.1045C 14.7 29.8045 17.8 30.8045 19.1 33.2045L 27.8 49.0045L 29.7 52.4045L 17.5 59.2045ZM 114 73.9045L 113.8 74.0045L 75.1 96.3045C 76.6 93.1045 76.6 89.1045 74.7 85.8045L 74.3 85.1045L 118.4 59.6045C 120.9 64.7045 119.1 71.0045 114 73.9045Z" transform="translate(35730 -10256)" fill="#FFDAD4"></path>
            </g>
        </g>
    </g>
</svg>