<svg width="32" height="29" viewBox="0 0 32 29" version="1.1" xmlns="http://www.w3.org/2000/svg" xmlns:xlink="http://www.w3.org/1999/xlink">
    <title>Group</title>
    <desc>Created using Figma</desc>
    <g id="Canvas" transform="translate(-31253 9983)">
        <g id="Group">
            <g id="Group 2">
                <g id="Vector">
                    <path fill-rule="evenodd" d="M 2.7 0.0419922L 28.7 0.0419922C 30.1912 0.0419922 31.4 1.25082 31.4 2.74199L 31.4 26.0001C 31.4 27.4912 30.1912 28.7001 28.7 28.7001L 2.7 28.7001C 1.20883 28.7001 0 27.4912 0 26.0001L 0 2.74199C 0 1.25082 1.20883 0.0419922 2.7 0.0419922ZM 2.7 1.74199L 28.7 1.74199C 29.2523 1.74199 29.7 2.18971 29.7 2.74199L 29.7 26.0001C 29.7 26.5523 29.2523 27.0001 28.7 27.0001L 2.7 27.0001C 2.14771 27.0001 1.7 26.5523 1.7 26.0001L 1.7 2.74199C 1.7 2.18971 2.14772 1.74199 2.7 1.74199Z" transform="translate(31253.3 -9983)" fill="#FFDAD4"></path>
                    <path fill-rule="evenodd" d="M 11.2742 1.7L 11.2742 5.26774L 20.1242 5.26774L 20.1242 1.7L 11.2742 1.7ZM 10.5742 0C 10.0219 0 9.57422 0.447715 9.57422 1L 9.57422 5.96774C 9.57422 6.52003 10.0219 6.96774 10.5742 6.96774L 20.8242 6.96774C 21.3765 6.96774 21.8242 6.52003 21.8242 5.96774L 21.8242 1C 21.8242 0.447715 21.3765 0 20.8242 0L 10.5742 0Z" transform="translate(31253.3 -9983)" fill="#FFDAD4"></path>
                    <path fill-rule="evenodd" d="M 6.07422 18.2693L 15.6992 18.2693L 15.6992 16.5693L 6.07422 16.5693L 6.07422 18.2693Z" transform="translate(31253.3 -9983)" fill="#FFDAD4"></path>
                    <path fill-rule="evenodd" d="M 6.0773 22.6238L 12.1562 22.6238L 12.1562 20.9238L 6.0773 20.9238L 6.0773 22.6238Z" transform="translate(31253.3 -9983)" fill="#FFDAD4"></path>
                </g>
            </g>
        </g>
    </g>
</svg>