<svg width="52" height="37" viewBox="0 0 52 37" version="1.1" xmlns="http://www.w3.org/2000/svg" xmlns:xlink="http://www.w3.org/1999/xlink">
    <title>Group 2.41</title>
    <desc>Created using Figma</desc>
    <g id="Canvas" transform="translate(-30223 10443)">
        <g id="Group 2.41">
            <g id="Group 2">
                <g id="Group">
                    <g id="Group">
                        <g id="Vector (Stroke)">
                            <path fill-rule="evenodd" d="M 0.761425 1.06346C 1.41508 0.24263 2.38405 0 3.40071 0L 31 0C 32.0003 0 32.9638 0.229935 33.517 1.16352C 33.7552 1.56559 33.8661 2.0226 33.9252 2.47051C 33.9847 2.92235 34 3.4388 34 4L 34 17.9288L 32 17.9288L 32 4C 32 3.45891 31.9842 3.04922 31.9423 2.73188C 31.9 2.41061 31.8392 2.2554 31.7964 2.18305C 31.7959 2.18228 31.7954 2.18112 31.7947 2.17962C 31.7818 2.15132 31.7131 2 31 2L 3.40071 2C 2.66626 2 2.43487 2.17258 2.32595 2.30935C 2.16686 2.50914 2 2.96253 2 4L 2 24.0256C 2 24.8594 2.05154 25.4257 2.18431 25.7673C 2.24206 25.916 2.29142 25.956 2.3011 25.9632L 2.30126 25.9633C 2.30433 25.9658 2.3467 26 2.5 26L 6.28155 26L 6.28155 28L 2.5 28C 1.99341 28 1.51463 27.8697 1.11012 27.5699C 0.714092 27.2763 0.471424 26.8811 0.320107 26.4917C 0.0347326 25.7574 0 24.8364 0 24.0256L 0 4C 0 2.86788 0.157946 1.82128 0.761425 1.06346Z" transform="translate(30223 -10443)" fill="#B1BABE"></path>
                        </g>
                        <g id="Vector (Stroke)">
                            <path fill-rule="evenodd" d="M 2.22453 2.18007C 2.10285 2.33158 2 2.5809 2 2.89912L 2 2.93429C 2 3.25251 2.10285 3.50182 2.22453 3.65333C 2.34374 3.80178 2.45456 3.8334 2.52515 3.8334L 7.8632 3.8334L 7.8632 5.8334L 2.52515 5.8334C 0.931996 5.8334 0 4.32578 0 2.93429L 0 2.89912C 0 1.50762 0.931996 0 2.52515 0L 6.19682 0L 6.19682 2L 2.52515 2C 2.45456 2 2.34374 2.03163 2.22453 2.18007Z" transform="translate(30223 -10416.8)" fill="#B1BABE"></path>
                        </g>
                        <g id="Vector (Stroke)">
                            <path fill-rule="evenodd" d="M 0 3.03984e-06L 16.9423 0L 16.9423 2L 0 2L 0 3.03984e-06Z" transform="translate(30240.5 -10413)" fill="#B1BABE"></path>
                        </g>
                        <g id="Vector (Stroke)">
                            <path fill-rule="evenodd" d="M 5.64713 2L 2.0535 2L 2.0535 0L 5.64713 0C 7.24564 0 8.37978 1.37861 8.37978 2.89758L 8.37978 2.93273C 8.37978 4.4517 7.24564 5.83031 5.64713 5.83031L 0 5.83031L 0 3.83031L 5.64713 3.83031C 5.97379 3.83031 6.37978 3.52218 6.37978 2.93273L 6.37978 2.89758C 6.37978 2.30813 5.97379 2 5.64713 2Z" transform="translate(30266.6 -10416.9)" fill="#B1BABE"></path>
                        </g>
                        <g id="Vector (Stroke)">
                            <path fill-rule="evenodd" d="M 12.1852 0L 20.9386 0C 23.4893 0 25.7116 1.69547 26.725 4.14779L 26.7264 4.15119L 31 14.6014L 31 22L 29 22L 29 14.9945L 24.8766 4.91164C 24.8764 4.9111 24.8762 4.91057 24.876 4.91003C 24.1211 3.08488 22.555 2 20.9386 2L 14.1583 2L 13.9219 19.4701C 13.8997 21.111 12.5632 22.4295 10.9222 22.4295L 0 22.4295L 0 20.4295L 10.9222 20.4295C 11.4692 20.4295 11.9147 19.99 11.9221 19.4431L 12.1852 0Z" transform="translate(30243 -10437)" fill="#B1BABE"></path>
                        </g>
                        <g id="Vector (Stroke)">
                            <path fill-rule="evenodd" d="M 0 0L 8.50812 0L 8.50812 2L 2 2L 2 8.37951C 2 9.02739 2.45927 9.38251 2.8289 9.38251L 12.4547 9.38251L 12.4547 11.3825L 2.8289 11.3825C 1.2092 11.3825 0 9.98061 0 8.37951L 0 0Z" transform="translate(30261 -10432.8)" fill="#B1BABE"></path>
                        </g>
                        <g id="Vector (Stroke)">
                            <path fill-rule="evenodd" d="M 5.61315 2C 3.59411 2 2 3.59027 2 5.5C 2 7.40973 3.59411 9 5.61315 9C 7.63219 9 9.2263 7.40973 9.2263 5.5C 9.2263 3.59027 7.63219 2 5.61315 2ZM 0 5.5C 0 2.43917 2.53665 0 5.61315 0C 8.68965 0 11.2263 2.43917 11.2263 5.5C 11.2263 8.56083 8.68965 11 5.61315 11C 2.53665 11 0 8.56083 0 5.5Z" transform="translate(30230 -10417)" fill="#B1BABE"></path>
                        </g>
                        <g id="Vector (Stroke)">
                            <path fill-rule="evenodd" d="M 5.61315 2C 3.59411 2 2 3.59027 2 5.5C 2 7.40973 3.59411 9 5.61315 9C 7.6322 9 9.2263 7.40973 9.2263 5.5C 9.2263 3.59027 7.6322 2 5.61315 2ZM 0 5.5C 0 2.43917 2.53665 0 5.61315 0C 8.68965 0 11.2263 2.43917 11.2263 5.5C 11.2263 8.56083 8.68965 11 5.61315 11C 2.53665 11 0 8.56083 0 5.5Z" transform="translate(30256.8 -10417)" fill="#B1BABE"></path>
                        </g>
                        <g id="Vector (Stroke)">
                            <path fill-rule="evenodd" d="M 5.45452 2L 0 2L 0 0L 5.45452 0L 5.45452 2Z" transform="translate(30259.4 -10432.8)" fill="#B1BABE"></path>
                        </g>
                    </g>
                </g>
            </g>
            <g id="Rectangle (Stroke)">
                <path fill-rule="evenodd" d="M 2 2L 2 6L 12 6L 12 2L 2 2ZM 1 0C 0.447715 0 0 0.447715 0 1L 0 7C 0 7.55228 0.447716 8 1 8L 13 8C 13.5523 8 14 7.55228 14 7L 14 1C 14 0.447715 13.5523 0 13 0L 1 0Z" transform="translate(30233 -10443)" fill="#B1BABE"></path>
            </g>
            <g id="Group">
                <g id="Vector (Stroke)">
                    <path fill-rule="evenodd" d="M 11 2L 0 2L 0 0L 11 0L 11 2Z" transform="matrix(-1 0 0 1 30239 -10428)" fill="#B1BABE"></path>
                </g>
                <g id="Vector (Stroke)">
                    <path fill-rule="evenodd" d="M 6.94737 2L 0 2L 0 0L 6.94737 0L 6.94737 2Z" transform="matrix(-1 7.55015e-08 1.01226e-07 1 30234.9 -10423)" fill="#B1BABE"></path>
                </g>
            </g>
        </g>
    </g>
</svg>