<svg width="45" height="45" viewBox="0 0 45 45" version="1.1" xmlns="http://www.w3.org/2000/svg" xmlns:xlink="http://www.w3.org/1999/xlink">
    <title>Group</title>
    <desc>Created using Figma</desc>
    <g id="Canvas" transform="translate(-30230 10120)">
        <g id="Group">
            <g id="Group">
                <g id="Vector">
                    <path d="M 3.29021 24.2477C 4.67291 25.4387 5.95468 26.5287 7.27682 27.6691C 6.92357 28.0829 6.58042 28.4766 6.22718 28.8904C 4.11781 27.0838 2.03872 25.3075 0 23.5614C 1.81668 21.7447 3.62327 19.9382 5.43995 18.1215C 5.73264 18.4343 6.07579 18.7977 6.42903 19.1812C 5.33903 20.2611 4.21874 21.3814 3.08836 22.4916C 3.11864 22.5421 3.13882 22.5824 3.1691 22.6329C 3.3104 22.6329 3.45169 22.6329 3.59299 22.6329C 10.8395 22.6329 18.0861 22.6329 25.3326 22.6329C 29.6624 22.6329 33.3563 20.1602 35.0216 16.1938C 36.6364 12.3485 35.7684 7.72602 32.8214 4.73859C 30.8331 2.72005 28.3705 1.71079 25.5446 1.65023C 23.8793 1.61995 22.214 1.64014 20.5083 1.64014C 20.5083 1.11532 20.5083 0.600592 20.5083 0.0858656C 20.5285 0.0757729 20.5487 0.0354022 20.579 0.0354022C 23.0416 0.0959582 25.5244 -0.216915 27.9668 0.328089C 33.6591 1.59977 37.7668 7.06999 37.4035 12.8632C 37.0502 18.6362 32.3672 23.5816 26.6144 24.1367C 24.616 24.3285 22.5874 24.2376 20.5689 24.2376C 14.9876 24.2477 9.40637 24.2376 3.81503 24.2376C 3.70401 24.2477 3.57281 24.2477 3.29021 24.2477Z" transform="translate(30237 -10104)" fill="#B1BABE"></path>
                </g>
            </g>
            <g id="Group 2">
                <g id="Rectangle (Stroke)">
                    <path fill-rule="evenodd" d="M 0 2C 0 0.895432 0.89543 0 2 0L 32 0C 33.1046 0 34 0.89543 34 2L 34 13.5L 32 13.5L 32 2L 2 2L 2 29L 32 29L 32 21L 34 21L 34 29C 34 30.1046 33.1046 31 32 31L 2 31C 0.89543 31 0 30.1046 0 29L 0 2Z" transform="translate(30230 -10120)" fill="#B1BABE"></path>
                </g>
                <g id="Rectangle (Stroke)">
                    <path fill-rule="evenodd" d="M 2 2L 2 6L 12 6L 12 2L 2 2ZM 1 0C 0.447715 0 0 0.447715 0 1L 0 7C 0 7.55228 0.447716 8 1 8L 13 8C 13.5523 8 14 7.55228 14 7L 14 1C 14 0.447715 13.5523 0 13 0L 1 0Z" transform="translate(30240 -10120)" fill="#B1BABE"></path>
                </g>
                <g id="Vector (Stroke)">
                    <path fill-rule="evenodd" d="M 11 2L 0 2L 0 0L 11 0L 11 2Z" transform="matrix(-1 0 0 1 30247 -10102)" fill="#B1BABE"></path>
                </g>
                <g id="Vector (Stroke)">
                    <path fill-rule="evenodd" d="M 6.94737 2L 0 2L 0 0L 6.94737 0L 6.94737 2Z" transform="matrix(-1 7.55015e-08 1.01226e-07 1 30242.9 -10097)" fill="#B1BABE"></path>
                </g>
            </g>
        </g>
    </g>
</svg>