<svg width="37" height="45" viewBox="0 0 37 45" version="1.1" xmlns="http://www.w3.org/2000/svg" xmlns:xlink="http://www.w3.org/1999/xlink">
    <title>Group 2.22</title>
    <desc>Created using Figma</desc>
    <g id="Canvas" transform="translate(-30232 10560)">
        <g id="Group 2.22">
            <g id="Vector 4 (Stroke)">
                <path fill-rule="evenodd" d="M 15.095 1.41424L 5.63525 10.8736L 0 4.98357L 1.44513 3.60096L 5.66689 8.01362L 13.6808 0L 15.095 1.41424Z" transform="translate(30244.4 -10534.6)" fill="#353535"></path>
            </g>
            <g id="Group">
                <g id="Vector (Stroke)">
                    <path fill-rule="evenodd" d="M 2.2 2.2L 2.2 26.5828L 33.2285 26.5828L 33.2285 2.2L 2.2 2.2ZM 0 2.1C 0 0.940202 0.940201 0 2.1 0L 33.3285 0C 34.4883 0 35.4285 0.940201 35.4285 2.1L 35.4285 26.6828C 35.4285 27.8426 34.4883 28.7828 33.3285 28.7828L 2.1 28.7828C 0.940202 28.7828 0 27.8426 0 26.6828L 0 2.1Z" transform="translate(30232.9 -10543.9)" fill="#353535"></path>
                </g>
                <g id="Ellipse 2 (Stroke)">
                    <path fill-rule="evenodd" d="M 5.2246 5.8157C 3.40161 8.24996 2.2 11.9693 2.2 16.9924L 0 16.9924C 0 11.6424 1.27788 7.41565 3.46367 4.49695C 5.66601 1.55615 8.7551 0 12.1762 0C 15.5961 0 18.6855 1.55098 20.8884 4.49028C 23.0746 7.40722 24.3523 11.6344 24.3523 16.9924L 22.1523 16.9924C 22.1523 11.9605 20.9506 8.24147 19.128 5.8097C 17.3222 3.40027 14.8734 2.2 12.1762 2.2C 9.48004 2.2 7.03105 3.40355 5.2246 5.8157Z" transform="translate(30238.4 -10559.8)" fill="#353535"></path>
                </g>
            </g>
        </g>
    </g>
</svg>