<svg width="297" height="146" viewBox="0 0 297 146" version="1.1" xmlns="http://www.w3.org/2000/svg" xmlns:xlink="http://www.w3.org/1999/xlink">
    <title>Group</title>
    <desc>Created using Figma</desc>
    <g id="Canvas" transform="translate(-33650 10162)">
        <g id="Group">
            <g id="Vector">
                <path fill-rule="evenodd" d="M 263.504 74.291L 222.629 74.291C 221.524 74.291 220.629 75.1864 220.629 76.291L 220.629 90.3274C 220.629 91.4319 221.524 92.3274 222.629 92.3274L 263.504 92.3274C 264.609 92.3274 265.504 91.4319 265.504 90.3274L 265.504 76.291C 265.504 75.1864 264.609 74.291 263.504 74.291ZM 222.629 73.291C 220.972 73.291 219.629 74.6342 219.629 76.291L 219.629 90.3274C 219.629 91.9842 220.972 93.3274 222.629 93.3274L 263.504 93.3274C 265.161 93.3274 266.504 91.9842 266.504 90.3274L 266.504 76.291C 266.504 74.6342 265.161 73.291 263.504 73.291L 222.629 73.291Z" transform="translate(33650 -10162)" fill="#B1BABE"></path>
                <path fill-rule="evenodd" d="M 295.736 26.8643L 198.035 26.8643L 198.035 25.8643L 295.736 25.8643L 295.736 26.8643Z" transform="translate(33650 -10162)" fill="#B1BABE"></path>
                <path fill-rule="evenodd" d="M 295.736 46.9004L 198.035 46.9004L 198.035 45.9004L 295.736 45.9004L 295.736 46.9004Z" transform="translate(33650 -10162)" fill="#B1BABE"></path>
                <path fill-rule="evenodd" d="M 185.509 1L 12 1C 5.92487 1 1 5.92487 1 12L 1 122.455C 1 128.53 5.92488 133.455 12 133.455L 185.509 133.455C 191.584 133.455 196.509 128.53 196.509 122.455L 196.509 12C 196.509 5.92487 191.584 1 185.509 1ZM 12 0C 5.37258 0 0 5.37258 0 12L 0 122.455C 0 129.082 5.37259 134.455 12 134.455L 185.509 134.455C 192.136 134.455 197.509 129.082 197.509 122.455L 197.509 12C 197.509 5.37258 192.136 0 185.509 0L 12 0Z" transform="translate(33650 -10162)" fill="#B1BABE"></path>
                <path fill-rule="evenodd" d="M 284.001 11.0449L 197.247 11.0449L 197.247 10.0449L 284.001 10.0449C 290.905 10.0449 296.501 15.6414 296.501 22.5449L 296.501 132.999C 296.501 139.903 290.905 145.499 284.001 145.499L 110.092 145.499C 103.41 145.499 97.9922 140.082 97.9922 133.399L 98.9922 133.399C 98.9922 139.53 103.962 144.499 110.092 144.499L 284.001 144.499C 290.352 144.499 295.501 139.351 295.501 132.999L 295.501 22.5449C 295.501 16.1936 290.352 11.0449 284.001 11.0449Z" transform="translate(33650 -10162)" fill="#B1BABE"></path>
            </g>
        </g>
    </g>
</svg>