<svg width="107" height="112" viewBox="0 0 107 112" version="1.1" xmlns="http://www.w3.org/2000/svg" xmlns:xlink="http://www.w3.org/1999/xlink">
    <title>Vector</title>
    <desc>Created using Figma</desc>
    <g id="Canvas" transform="translate(-36042 10275)">
        <g id="Vector">
            <path fill-rule="evenodd" d="M 68.5445 111.009L 80.2987 84.3615L 82.1286 85.1686L 70.3744 111.816L 68.5445 111.009ZM 85.6771 107.952L 90.1091 87.2905L 92.0646 87.71L 87.6326 108.371L 85.6771 107.952Z" transform="translate(36042.9 -10275)" fill="#FFDAD4"></path>
            <path fill-rule="evenodd" d="M 16.5312 53.5C 16.5312 63.3667 25.9883 71.6045 37.9902 71.6045C 49.9913 71.6045 59.4491 63.3456 59.4491 53.5L 61.4491 53.5C 61.4491 64.7413 50.7803 73.6045 37.9902 73.6045C 25.2009 73.6045 14.5312 64.7637 14.5312 53.5L 14.5312 52.999L 16.5312 52.999L 16.5312 53.5Z" transform="translate(36042.9 -10275)" fill="#FFDAD4"></path>
            <path fill-rule="evenodd" d="M 14.5312 54.8722L 14.5312 30.7793L 16.5312 30.7793L 16.5312 54.8722L 14.5312 54.8722Z" transform="translate(36042.9 -10275)" fill="#FFDAD4"></path>
            <path fill-rule="evenodd" d="M 59.4531 54.4357L 59.4531 30.3428L 61.4531 30.3428L 61.4531 54.4357L 59.4531 54.4357Z" transform="translate(36042.9 -10275)" fill="#FFDAD4"></path>
            <path fill-rule="evenodd" d="M 28.6953 70.4688L 28.6953 73.671C 28.6953 74.4931 28.7565 75.2814 28.895 76.04L 28.8955 76.0427C 29.7314 80.6906 32.8501 83.8025 36.247 83.8025L 40.2205 83.8025C 43.6898 83.8025 46.8765 80.5573 47.6326 75.7626C 47.7337 75.0881 47.7937 74.3769 47.7937 73.671L 47.7937 70.4688L 49.7937 70.4688L 49.7937 73.671C 49.7937 74.4887 49.7244 75.3011 49.6099 76.0632L 49.6088 76.0702C 48.7659 81.4249 45.0429 85.8025 40.2205 85.8025L 36.247 85.8025C 31.5245 85.8025 27.8626 81.5958 26.9273 76.398C 26.7637 75.5014 26.6953 74.5911 26.6953 73.671L 26.6953 70.4688L 28.6953 70.4688Z" transform="translate(36042.9 -10275)" fill="#FFDAD4"></path>
            <path fill-rule="evenodd" d="M 15.4021 42.3652C 12.679 42.3652 10.3555 44.7618 10.3555 47.9004C 10.3555 51.0389 12.679 53.4355 15.4021 53.4355L 15.4021 55.4355C 11.4307 55.4355 8.35547 51.994 8.35547 47.9004C 8.35547 43.8067 11.4307 40.3652 15.4021 40.3652L 15.4021 42.3652Z" transform="translate(36042.9 -10275)" fill="#FFDAD4"></path>
            <path fill-rule="evenodd" d="M 60.4531 40.3652C 64.4245 40.3652 67.4998 43.8067 67.4998 47.9004C 67.4998 51.994 64.4245 55.4355 60.4531 55.4355L 60.4531 53.4355C 63.1762 53.4355 65.4998 51.0389 65.4998 47.9004C 65.4998 44.7618 63.1762 42.3652 60.4531 42.3652L 60.4531 40.3652Z" transform="translate(36042.9 -10275)" fill="#FFDAD4"></path>
            <path fill-rule="evenodd" d="M 26.9139 41.0576C 25.8047 41.0576 24.8906 41.9671 24.8906 43.1074C 24.8906 44.2476 25.8047 45.1571 26.9139 45.1571C 28.0232 45.1571 28.9373 44.2476 28.9373 43.1074C 28.9373 41.9671 28.0232 41.0576 26.9139 41.0576ZM 22.8906 43.1074C 22.8906 40.879 24.6837 39.0576 26.9139 39.0576C 29.1441 39.0576 30.9373 40.879 30.9373 43.1074C 30.9373 45.3357 29.1441 47.1571 26.9139 47.1571C 24.6837 47.1571 22.8906 45.3357 22.8906 43.1074Z" transform="translate(36042.9 -10275)" fill="#FFDAD4"></path>
            <path fill-rule="evenodd" d="M 49.371 41.0576C 48.2617 41.0576 47.3477 41.9671 47.3477 43.1074C 47.3477 44.2476 48.2617 45.1571 49.371 45.1571C 50.4802 45.1571 51.3943 44.2476 51.3943 43.1074C 51.3943 41.9671 50.4802 41.0576 49.371 41.0576ZM 45.3477 43.1074C 45.3477 40.879 47.1408 39.0576 49.371 39.0576C 51.6012 39.0576 53.3943 40.879 53.3943 43.1074C 53.3943 45.3357 51.6012 47.1571 49.371 47.1571C 47.1408 47.1571 45.3477 45.3357 45.3477 43.1074Z" transform="translate(36042.9 -10275)" fill="#FFDAD4"></path>
            <path fill-rule="evenodd" d="M 25.6484 51.3203C 25.6484 57.5627 31.1128 62.7371 37.9942 62.7371C 44.8756 62.7371 50.34 57.5627 50.34 51.3203L 52.34 51.3203C 52.34 58.8018 45.8407 64.7371 37.9942 64.7371C 30.1478 64.7371 23.6484 58.8018 23.6484 51.3203L 25.6484 51.3203Z" transform="translate(36042.9 -10275)" fill="#FFDAD4"></path>
            <path fill-rule="evenodd" d="M 5.94141 31.7152C 5.94141 14.2694 19.0139 0 35.3174 0C 39.6111 0 44.038 0.39629 47.8697 2.21808C 51.7523 4.06406 54.9388 7.3322 56.8023 12.8805L 54.9064 13.5173C 53.2067 8.45695 50.3789 5.62562 47.011 4.02432C 43.5921 2.39882 39.5321 2 35.3174 2C 20.2647 2 7.94141 15.2218 7.94141 31.7152L 7.94141 89.6601L 5.94141 89.6601L 5.94141 31.7152Z" transform="translate(36042.9 -10275)" fill="#FFDAD4"></path>
            <path fill-rule="evenodd" d="M 64.9527 15.6101C 63.1371 13.9415 60.2765 12.9503 56.0754 13.9125L 55.6289 11.963C 60.3682 10.8776 63.9322 11.9559 66.306 14.1375C 68.6402 16.2827 69.7013 19.3834 69.7013 22.1523L 69.7013 87.4384L 67.7013 87.4384L 67.7013 22.1523C 67.7013 19.8456 66.808 17.3152 64.9527 15.6101Z" transform="translate(36042.9 -10275)" fill="#FFDAD4"></path>
            <path fill-rule="evenodd" d="M 65.6289 86.2219C 61.6445 82.176 56.0863 78.9075 48.3438 77.0617L 48.8076 75.1162C 56.8727 77.039 62.7773 80.476 67.0539 84.8186C 71.3264 89.157 73.9277 94.3519 75.463 99.7254L 73.5399 100.275C 72.0752 95.1482 69.6174 90.2719 65.6289 86.2219Z" transform="translate(36042.9 -10275)" fill="#FFDAD4"></path>
            <path fill-rule="evenodd" d="M 28.152 77.1893C 12.9376 81.0261 2 92.9894 2 107L 0 107C 0 91.8642 11.7804 79.2553 27.663 75.25L 28.152 77.1893Z" transform="translate(36042.9 -10275)" fill="#FFDAD4"></path>
            <path fill-rule="evenodd" d="M 15.4766 37.8762C 15.4762 37.8762 15.4758 37.8762 15.533 36.8778C 15.5902 35.8795 15.59 35.8794 15.59 35.8794L 15.5927 35.8796L 15.6044 35.8802L 15.655 35.8828C 15.7005 35.885 15.7697 35.8881 15.8611 35.8918C 16.044 35.899 16.3162 35.908 16.6677 35.9149C 17.3708 35.9287 18.3907 35.934 19.6482 35.8996C 22.1652 35.8308 25.6242 35.6029 29.3959 34.9686C 36.9946 33.6906 45.6171 30.8029 50.5272 24.5L 52.105 25.7291C 46.7142 32.649 37.4452 35.6429 29.7276 36.9409C 25.8411 37.5945 22.2857 37.8282 19.7029 37.8989C 18.4105 37.9342 17.3591 37.9289 16.6284 37.9145C 16.263 37.9073 15.9777 37.8979 15.7823 37.8902C 15.6846 37.8863 15.6094 37.8829 15.5579 37.8804L 15.4986 37.8774L 15.4826 37.8766L 15.4766 37.8762Z" transform="translate(36042.9 -10275)" fill="#FFDAD4"></path>
            <path fill-rule="evenodd" d="M 48.8633 27.1943C 48.8631 27.1939 48.863 27.1934 49.8047 26.857C 50.7464 26.5206 50.7463 26.5202 50.7461 26.5199L 50.7492 26.528C 50.7526 26.5373 50.7586 26.5531 50.7672 26.5752C 50.7845 26.6193 50.8122 26.6884 50.8511 26.7793C 50.929 26.9613 51.0513 27.2303 51.2234 27.5625C 51.5681 28.2281 52.1094 29.1413 52.8883 30.1155C 54.4448 32.0621 56.9329 34.2325 60.6974 35.1895L 60.2047 37.1279C 55.9143 36.0372 53.0791 33.5567 51.3262 31.3645C 50.4504 30.2692 49.8404 29.2409 49.4475 28.4824C 49.2508 28.1026 49.1077 27.7889 49.0124 27.5661C 48.9647 27.4547 48.9289 27.3659 48.9043 27.3028C 48.8919 27.2712 48.8824 27.2461 48.8755 27.2277L 48.8673 27.2053L 48.8646 27.1981L 48.8637 27.1954L 48.8633 27.1943Z" transform="translate(36042.9 -10275)" fill="#FFDAD4"></path>
            <path fill-rule="evenodd" d="M 96.3391 58.2997C 96.006 58.3506 95.6202 58.5389 95.1921 58.9411L 94.5833 59.513L 93.914 59.0172C 93.9131 59.0165 93.9109 59.015 93.9067 59.0121L 93.9054 59.0112C 93.8984 59.0063 93.8717 58.9877 93.8441 58.9664C 93.8148 58.9438 93.7527 58.8942 93.6877 58.8203C 93.6382 58.7641 93.5793 58.6852 93.5299 58.5826C 93.3371 58.2171 93.1176 57.9834 92.8906 57.8399C 92.6646 57.697 92.3762 57.6084 91.9862 57.6178C 91.5997 57.6269 91.3223 57.7317 91.1012 57.8917C 90.8695 58.0594 90.646 58.3272 90.4412 58.7354L 90.4396 58.7385C 88.9694 61.6424 87.4862 64.5404 86.0042 67.4361C 85.5105 68.4008 85.0169 69.3652 84.524 70.3295L 83.8313 71.6846L 83.1173 71.5191C 83.1113 71.5185 83.1043 71.5178 83.0966 71.5169C 83.084 71.5155 83.0673 71.5134 83.048 71.5105L 82.3369 71.4022L 82.2133 70.6937C 82.1662 70.4231 82.1185 70.1515 82.0707 69.8792C 81.8905 68.8527 81.7086 67.816 81.5434 66.7832C 81.4226 66.0323 80.8893 65.4549 80.2587 65.2921C 79.0006 64.9694 77.8844 65.9301 78.0174 67.2233C 78.1257 68.2494 78.2388 69.2794 78.3522 70.312C 78.6419 72.9501 78.9335 75.6049 79.1502 78.2543C 79.4873 82.4094 81.8383 85.5167 85.7684 86.8297C 89.6994 88.1435 94.4505 86.3339 96.4823 82.7238L 96.4837 82.7213C 96.907 81.9742 97.2898 81.2154 97.685 80.4319C 97.8197 80.1648 97.9559 79.8949 98.0956 79.6216C 98.5301 78.7717 98.965 77.9219 99.4 77.0722C 100.704 74.5245 102.008 71.9772 103.297 69.4269C 103.907 68.2088 103.073 66.9292 101.681 67.0092L 101.669 67.0098L 101.658 67.0102C 101.575 67.013 101.499 67.0102 101.449 67.0084L 101.432 67.0078C 101.383 67.006 101.34 67.0044 101.286 67.004L 99.5113 66.9875L 100.445 65.4778C 101.058 64.488 101.197 63.8656 100.85 63.2193L 100.849 63.2174C 100.636 62.8194 100.384 62.5979 100.117 62.472C 99.8397 62.341 99.4695 62.2781 98.9766 62.3285L 97.5265 62.477L 97.91 61.0706C 98.1454 60.2075 98.1693 59.6924 98.0939 59.3622C 98.033 59.0958 97.8885 58.861 97.4843 58.6011C 97.0265 58.3092 96.6539 58.2515 96.3391 58.2997ZM 96.0366 56.3227C 96.8998 56.1906 97.7568 56.4022 98.5616 56.9161L 98.5639 56.9176C 99.3131 57.3987 99.843 58.0382 100.044 58.9171C 100.149 59.3791 100.154 59.8687 100.09 60.3815C 100.392 60.4377 100.687 60.5295 100.971 60.6633C 101.668 60.9925 102.22 61.5408 102.612 62.2741C 103.167 63.3092 103.115 64.2808 102.827 65.1385C 104.983 65.7198 106.196 68.1072 105.085 70.3246L 105.083 70.3276C 103.791 72.8833 102.484 75.4375 101.179 77.987C 100.744 78.8359 100.31 79.6842 99.8764 80.532C 99.7477 80.7838 99.6184 81.0401 99.4877 81.2992C 99.0871 82.0934 98.6736 82.9131 98.2248 83.7056C 95.718 88.1583 89.9664 90.3414 85.1346 88.7266C 85.1346 88.7266 85.1346 88.7266 85.1346 88.7266C 80.4147 87.1497 77.5564 83.3384 77.1569 78.4173C 76.9426 75.7977 76.6557 73.1853 76.3671 70.558C 76.253 69.5189 76.1386 68.4774 76.0283 67.4321L 76.0281 67.43C 75.7511 64.7502 78.1497 62.6857 80.7567 63.3551L 80.7577 63.3553C 82.2174 63.7318 83.2811 64.9919 83.5182 66.4661C 83.576 66.8281 83.6361 67.1911 83.6974 67.5537C 83.8734 67.2097 84.0494 66.8658 84.2254 66.5219C 85.7066 63.6276 87.1867 60.7357 88.6545 57.8366C 88.9594 57.2295 89.3684 56.677 89.9286 56.2715C 90.4999 55.858 91.1753 55.6364 91.9382 55.6184L 96.0366 56.3227ZM 96.0366 56.3227C 95.565 56.3948 95.1259 56.5642 94.7207 56.8024L 96.0366 56.3227ZM 94.7207 56.8024C 94.4995 56.5516 94.2466 56.331 93.9593 56.1493C 93.3646 55.7734 92.6788 55.6006 91.9382 55.6184L 94.7207 56.8024Z" transform="translate(36042.9 -10275)" fill="#FFDAD4"></path>
            <path fill-rule="evenodd" d="M 87.4736 69.7479L 93.6172 57.7295L 95.398 58.6398L 89.2544 70.6583L 87.4736 69.7479Z" transform="translate(36042.9 -10275)" fill="#FFDAD4"></path>
            <path fill-rule="evenodd" d="M 91.9966 72.5624L 97.9141 60.9863L 99.6949 61.8966L 93.7774 73.4728L 91.9966 72.5624Z" transform="translate(36042.9 -10275)" fill="#FFDAD4"></path>
            <path fill-rule="evenodd" d="M 95.8274 74.5194L 100.664 65.0576L 102.445 65.9679L 97.6082 75.4298L 95.8274 74.5194Z" transform="translate(36042.9 -10275)" fill="#FFDAD4"></path>
        </g>
    </g>
</svg>