<svg width="298" height="146" viewBox="0 0 298 146" version="1.1" xmlns="http://www.w3.org/2000/svg" xmlns:xlink="http://www.w3.org/1999/xlink">
    <title>Group 27.5</title>
    <desc>Created using Figma</desc>
    <g id="Canvas" transform="translate(-33644 8732)">
        <g id="Group 27.5">
            <g id="Vector">
                <path d="M 4.81816 9.92275C 6.70951 9.92275 8.48709 8.22862 8.48709 4.96849C 8.48709 1.69413 6.70951 0 4.81816 0C 2.92682 0 1.14924 1.69413 1.14924 4.95425C 1.14924 8.22862 2.92682 9.92275 4.81816 9.92275ZM 4.81816 1.59447C 5.61452 1.59447 6.63841 2.49136 6.63841 4.95425C 6.63841 7.43138 5.62874 8.32827 4.81816 8.32827C 4.00759 8.32827 2.99792 7.43138 2.99792 4.95425C 2.99792 2.49136 4.02181 1.59447 4.81816 1.59447Z" transform="translate(33657.9 -8707.96)" fill="#B1BABE"></path>
                <path d="M 12.9006 9.92275C 14.7919 9.92275 16.5695 8.22862 16.5695 4.96849C 16.5695 1.69413 14.7919 0 12.9006 0C 11.0093 0 9.23167 1.69413 9.23167 4.95425C 9.23167 8.22862 11.0093 9.92275 12.9006 9.92275ZM 12.9006 1.59447C 13.697 1.59447 14.7208 2.49136 14.7208 4.95425C 14.7208 7.43138 13.7112 8.32827 12.9006 8.32827C 12.09 8.32827 11.0804 7.43138 11.0804 4.95425C 11.0804 2.49136 12.1042 1.59447 12.9006 1.59447Z" transform="translate(33657.9 -8707.96)" fill="#B1BABE"></path>
                <path d="M 20.983 9.92275C 22.8744 9.92275 24.652 8.22862 24.652 4.96849C 24.652 1.69413 22.8744 0 20.983 0C 19.0917 0 17.3141 1.69413 17.3141 4.95425C 17.3141 8.22862 19.0917 9.92275 20.983 9.92275ZM 20.983 1.59447C 21.7794 1.59447 22.8033 2.49136 22.8033 4.95425C 22.8033 7.43138 21.7936 8.32827 20.983 8.32827C 20.1725 8.32827 19.1628 7.43138 19.1628 4.95425C 19.1628 2.49136 20.1867 1.59447 20.983 1.59447Z" transform="translate(33657.9 -8707.96)" fill="#B1BABE"></path>
                <path d="M 29.0655 9.92275C 30.9568 9.92275 32.7344 8.22862 32.7344 4.96849C 32.7344 1.69413 30.9568 0 29.0655 0C 27.1741 0 25.3965 1.69413 25.3965 4.95425C 25.3965 8.22862 27.1741 9.92275 29.0655 9.92275ZM 29.0655 1.59447C 29.8618 1.59447 30.8857 2.49136 30.8857 4.95425C 30.8857 7.43138 29.876 8.32827 29.0655 8.32827C 28.2549 8.32827 27.2452 7.43138 27.2452 4.95425C 27.2452 2.49136 28.2691 1.59447 29.0655 1.59447Z" transform="translate(33657.9 -8707.96)" fill="#B1BABE"></path>
                <path d="M 40.467 9.92275C 42.3583 9.92275 44.1359 8.22862 44.1359 4.96849C 44.1359 1.69413 42.3583 0 40.467 0C 38.5756 0 36.7981 1.69413 36.7981 4.95425C 36.7981 8.22862 38.5756 9.92275 40.467 9.92275ZM 40.467 1.59447C 41.2633 1.59447 42.2872 2.49136 42.2872 4.95425C 42.2872 7.43138 41.2776 8.32827 40.467 8.32827C 39.6564 8.32827 38.6467 7.43138 38.6467 4.95425C 38.6467 2.49136 39.6706 1.59447 40.467 1.59447Z" transform="translate(33657.9 -8707.96)" fill="#B1BABE"></path>
                <path d="M 48.5494 9.92275C 50.4408 9.92275 52.2183 8.22862 52.2183 4.96849C 52.2183 1.69413 50.4408 0 48.5494 0C 46.6581 0 44.8805 1.69413 44.8805 4.95425C 44.8805 8.22862 46.6581 9.92275 48.5494 9.92275ZM 48.5494 1.59447C 49.3458 1.59447 50.3697 2.49136 50.3697 4.95425C 50.3697 7.43138 49.36 8.32827 48.5494 8.32827C 47.7388 8.32827 46.7292 7.43138 46.7292 4.95425C 46.7292 2.49136 47.7531 1.59447 48.5494 1.59447Z" transform="translate(33657.9 -8707.96)" fill="#B1BABE"></path>
                <path d="M 56.6319 9.92275C 58.5232 9.92275 60.3008 8.22862 60.3008 4.96849C 60.3008 1.69413 58.5232 0 56.6319 0C 54.7405 0 52.9629 1.69413 52.9629 4.95425C 52.9629 8.22862 54.7405 9.92275 56.6319 9.92275ZM 56.6319 1.59447C 57.4282 1.59447 58.4521 2.49136 58.4521 4.95425C 58.4521 7.43138 57.4424 8.32827 56.6319 8.32827C 55.8213 8.32827 54.8116 7.43138 54.8116 4.95425C 54.8116 2.49136 55.8355 1.59447 56.6319 1.59447Z" transform="translate(33657.9 -8707.96)" fill="#B1BABE"></path>
                <path d="M 64.7143 9.92275C 66.6056 9.92275 68.3832 8.22862 68.3832 4.96849C 68.3832 1.69413 66.6056 0 64.7143 0C 62.8229 0 61.0454 1.69413 61.0454 4.95425C 61.0454 8.22862 62.8229 9.92275 64.7143 9.92275ZM 64.7143 1.59447C 65.5106 1.59447 66.5345 2.49136 66.5345 4.95425C 66.5345 7.43138 65.5249 8.32827 64.7143 8.32827C 63.9037 8.32827 62.894 7.43138 62.894 4.95425C 62.894 2.49136 63.9179 1.59447 64.7143 1.59447Z" transform="translate(33657.9 -8707.96)" fill="#B1BABE"></path>
                <path d="M 76.1158 9.92275C 78.0071 9.92275 79.7847 8.22862 79.7847 4.96849C 79.7847 1.69413 78.0071 0 76.1158 0C 74.2244 0 72.4469 1.69413 72.4469 4.95425C 72.4469 8.22862 74.2244 9.92275 76.1158 9.92275ZM 76.1158 1.59447C 76.9121 1.59447 77.936 2.49136 77.936 4.95425C 77.936 7.43138 76.9264 8.32827 76.1158 8.32827C 75.3052 8.32827 74.2956 7.43138 74.2956 4.95425C 74.2956 2.49136 75.3194 1.59447 76.1158 1.59447Z" transform="translate(33657.9 -8707.96)" fill="#B1BABE"></path>
                <path d="M 84.1982 9.92275C 86.0896 9.92275 87.8672 8.22862 87.8672 4.96849C 87.8672 1.69413 86.0896 0 84.1982 0C 82.3069 0 80.5293 1.69413 80.5293 4.95425C 80.5293 8.22862 82.3069 9.92275 84.1982 9.92275ZM 84.1982 1.59447C 84.9946 1.59447 86.0185 2.49136 86.0185 4.95425C 86.0185 7.43138 85.0088 8.32827 84.1982 8.32827C 83.3876 8.32827 82.378 7.43138 82.378 4.95425C 82.378 2.49136 83.4019 1.59447 84.1982 1.59447Z" transform="translate(33657.9 -8707.96)" fill="#B1BABE"></path>
                <path d="M 92.2807 9.92275C 94.172 9.92275 95.9496 8.22862 95.9496 4.96849C 95.9496 1.69413 94.172 0 92.2807 0C 90.3893 0 88.6117 1.69413 88.6117 4.95425C 88.6117 8.22862 90.3893 9.92275 92.2807 9.92275ZM 92.2807 1.59447C 93.077 1.59447 94.1009 2.49136 94.1009 4.95425C 94.1009 7.43138 93.0912 8.32827 92.2807 8.32827C 91.4701 8.32827 90.4604 7.43138 90.4604 4.95425C 90.4604 2.49136 91.4843 1.59447 92.2807 1.59447Z" transform="translate(33657.9 -8707.96)" fill="#B1BABE"></path>
                <path d="M 100.363 9.92275C 102.254 9.92275 104.032 8.22862 104.032 4.96849C 104.032 1.69413 102.254 0 100.363 0C 98.4717 0 96.6942 1.69413 96.6942 4.95425C 96.6942 8.22862 98.4717 9.92275 100.363 9.92275ZM 100.363 1.59447C 101.159 1.59447 102.183 2.49136 102.183 4.95425C 102.183 7.43138 101.174 8.32827 100.363 8.32827C 99.5525 8.32827 98.5429 7.43138 98.5429 4.95425C 98.5429 2.49136 99.5667 1.59447 100.363 1.59447Z" transform="translate(33657.9 -8707.96)" fill="#B1BABE"></path>
                <path d="M 111.765 9.92275C 113.656 9.92275 115.434 8.22862 115.434 4.96849C 115.434 1.69413 113.656 0 111.765 0C 109.873 0 108.096 1.69413 108.096 4.95425C 108.096 8.22862 109.873 9.92275 111.765 9.92275ZM 111.765 1.59447C 112.561 1.59447 113.585 2.49136 113.585 4.95425C 113.585 7.43138 112.575 8.32827 111.765 8.32827C 110.954 8.32827 109.944 7.43138 109.944 4.95425C 109.944 2.49136 110.968 1.59447 111.765 1.59447Z" transform="translate(33657.9 -8707.96)" fill="#B1BABE"></path>
                <path d="M 119.847 9.92275C 121.738 9.92275 123.516 8.22862 123.516 4.96849C 123.516 1.69413 121.738 0 119.847 0C 117.956 0 116.178 1.69413 116.178 4.95425C 116.178 8.22862 117.956 9.92275 119.847 9.92275ZM 119.847 1.59447C 120.643 1.59447 121.667 2.49136 121.667 4.95425C 121.667 7.43138 120.658 8.32827 119.847 8.32827C 119.036 8.32827 118.027 7.43138 118.027 4.95425C 118.027 2.49136 119.051 1.59447 119.847 1.59447Z" transform="translate(33657.9 -8707.96)" fill="#B1BABE"></path>
                <path d="M 127.929 9.92275C 129.821 9.92275 131.598 8.22862 131.598 4.96849C 131.598 1.69413 129.821 0 127.929 0C 126.038 0 124.261 1.69413 124.261 4.95425C 124.261 8.22862 126.038 9.92275 127.929 9.92275ZM 127.929 1.59447C 128.726 1.59447 129.75 2.49136 129.75 4.95425C 129.75 7.43138 128.74 8.32827 127.929 8.32827C 127.119 8.32827 126.109 7.43138 126.109 4.95425C 126.109 2.49136 127.133 1.59447 127.929 1.59447Z" transform="translate(33657.9 -8707.96)" fill="#B1BABE"></path>
                <path d="M 136.012 9.92275C 137.903 9.92275 139.681 8.22862 139.681 4.96849C 139.681 1.69413 137.903 0 136.012 0C 134.121 0 132.343 1.69413 132.343 4.95425C 132.343 8.22862 134.121 9.92275 136.012 9.92275ZM 136.012 1.59447C 136.808 1.59447 137.832 2.49136 137.832 4.95425C 137.832 7.43138 136.822 8.32827 136.012 8.32827C 135.201 8.32827 134.192 7.43138 134.192 4.95425C 134.192 2.49136 135.216 1.59447 136.012 1.59447Z" transform="translate(33657.9 -8707.96)" fill="#B1BABE"></path>
                <path d="M 2.71772 64.7038C 4.11872 64.7038 5.43544 63.4488 5.43544 61.0339C 5.43544 58.6085 4.11872 57.3536 2.71772 57.3536C 1.31673 57.3536 0 58.6085 0 61.0234C 0 63.4488 1.31673 64.7038 2.71772 64.7038ZM 2.71772 58.5347C 3.30762 58.5347 4.06605 59.199 4.06605 61.0234C 4.06605 62.8583 3.31815 63.5227 2.71772 63.5227C 2.1173 63.5227 1.3694 62.8583 1.3694 61.0234C 1.3694 59.199 2.12783 58.5347 2.71772 58.5347Z" transform="translate(33657.9 -8707.96)" fill="#B1BABE"></path>
                <path d="M 9.89503 60.8758C 10.4323 60.6121 10.9063 60.0954 10.9063 59.315C 10.9063 58.2921 10.1689 57.3536 8.70471 57.3536C 7.24051 57.3536 6.50315 58.2921 6.50315 59.315C 6.50315 60.0954 6.97717 60.6121 7.51439 60.8758C 6.73489 61.1288 6.26087 61.8143 6.26087 62.6263C 6.26087 63.7863 7.18784 64.7038 8.70471 64.7038C 10.2216 64.7038 11.1486 63.7863 11.1486 62.6263C 11.1486 61.8143 10.6745 61.1288 9.89503 60.8758ZM 8.70471 60.3063C 8.12535 60.3063 7.72507 59.9056 7.72507 59.3256C 7.72507 58.7456 8.12535 58.3448 8.70471 58.3448C 9.28407 58.3448 9.68436 58.7456 9.68436 59.3256C 9.68436 59.9056 9.28407 60.3063 8.70471 60.3063ZM 8.70471 63.6281C 8.09375 63.6281 7.63026 63.1747 7.63026 62.5314C 7.63026 61.8881 8.09375 61.4347 8.70471 61.4347C 9.31567 61.4347 9.77916 61.8881 9.77916 62.5314C 9.77916 63.1747 9.31567 63.6281 8.70471 63.6281Z" transform="translate(33657.9 -8707.96)" fill="#B1BABE"></path>
                <path d="M 11.7001 66.0536L 12.6271 66.4754L 16.651 57.1532L 15.724 56.7314L 11.7001 66.0536Z" transform="translate(33657.9 -8707.96)" fill="#B1BABE"></path>
                <path d="M 19.8933 64.5456L 21.2627 64.5456L 21.2627 57.5117L 18.8821 57.5117L 18.8821 58.6928L 19.8933 58.6928L 19.8933 64.5456Z" transform="translate(33657.9 -8707.96)" fill="#B1BABE"></path>
                <path d="M 26.1226 64.8408L 28.261 61.9725C 28.7139 61.3714 29.1458 60.6754 29.1458 59.779C 29.1458 58.503 28.261 57.3536 26.4808 57.3536C 24.6057 57.3536 23.8157 58.6085 23.8157 59.8528C 23.8157 61.3187 24.8902 62.1412 26.0278 62.1412C 26.3438 62.1412 26.5966 62.0674 26.8178 61.9725L 25.1535 64.1027L 26.1226 64.8408ZM 26.4808 58.4503C 27.2181 58.4503 27.7764 58.9987 27.7764 59.7474C 27.7764 60.4961 27.2181 61.0445 26.4808 61.0445C 25.7434 61.0445 25.1851 60.4961 25.1851 59.7474C 25.1851 58.9987 25.7434 58.4503 26.4808 58.4503Z" transform="translate(33657.9 -8707.96)" fill="#B1BABE"></path>
                <path d="M 214.974 62.5947C 216.375 62.5947 217.692 61.3397 217.692 58.9248C 217.692 56.4994 216.375 55.2445 214.974 55.2445C 213.573 55.2445 212.256 56.4994 212.256 58.9143C 212.256 61.3397 213.573 62.5947 214.974 62.5947ZM 214.974 56.4256C 215.564 56.4256 216.322 57.0899 216.322 58.9143C 216.322 60.7492 215.574 61.4136 214.974 61.4136C 214.374 61.4136 213.626 60.7492 213.626 58.9143C 213.626 57.0899 214.384 56.4256 214.974 56.4256Z" transform="translate(33657.9 -8707.96)" fill="#B1BABE"></path>
                <path d="M 220.961 62.5947C 222.362 62.5947 223.679 61.3397 223.679 58.9248C 223.679 56.4994 222.362 55.2445 220.961 55.2445C 219.56 55.2445 218.243 56.4994 218.243 58.9143C 218.243 61.3397 219.56 62.5947 220.961 62.5947ZM 220.961 56.4256C 221.551 56.4256 222.309 57.0899 222.309 58.9143C 222.309 60.7492 221.561 61.4136 220.961 61.4136C 220.361 61.4136 219.613 60.7492 219.613 58.9143C 219.613 57.0899 220.371 56.4256 220.961 56.4256Z" transform="translate(33657.9 -8707.96)" fill="#B1BABE"></path>
                <path d="M 226.948 62.5947C 228.349 62.5947 229.666 61.3397 229.666 58.9248C 229.666 56.4994 228.349 55.2445 226.948 55.2445C 225.547 55.2445 224.23 56.4994 224.23 58.9143C 224.23 61.3397 225.547 62.5947 226.948 62.5947ZM 226.948 56.4256C 227.538 56.4256 228.296 57.0899 228.296 58.9143C 228.296 60.7492 227.548 61.4136 226.948 61.4136C 226.348 61.4136 225.6 60.7492 225.6 58.9143C 225.6 57.0899 226.358 56.4256 226.948 56.4256Z" transform="translate(33657.9 -8707.96)" fill="#B1BABE"></path>
                <path d="M 0.52669 86.5118L 0.52669 93.5456L 1.89609 93.5456L 1.89609 86.5118L 0.52669 86.5118Z" transform="translate(33657.9 -8707.96)" fill="#B1BABE"></path>
                <path d="M 2.72011 86.5118L 5.71171 93.7038L 6.44908 93.7038L 9.46175 86.5118L 7.96595 86.5118L 6.09093 91.2361L 4.21591 86.5118L 2.72011 86.5118Z" transform="translate(33657.9 -8707.96)" fill="#B1BABE"></path>
                <path d="M 13.6723 93.5456L 15.147 93.5456L 12.187 86.3641L 11.1547 86.3641L 8.11046 93.5456L 9.59572 93.5456L 10.2172 92.0692L 13.0508 92.0692L 13.6723 93.5456ZM 10.6491 90.9514L 11.6603 88.4205L 12.6505 90.9514L 10.6491 90.9514Z" transform="translate(33657.9 -8707.96)" fill="#B1BABE"></path>
                <path d="M 17.3368 93.5456L 17.3368 88.7896L 21.6135 93.6827L 22.5615 93.6827L 22.5615 86.5118L 21.1921 86.5118L 21.1921 91.2467L 16.9154 86.3536L 15.9674 86.3536L 15.9674 93.5456L 17.3368 93.5456Z" transform="translate(33657.9 -8707.96)" fill="#B1BABE"></path>
                <path d="M 26.6246 86.5118L 26.6246 93.5456L 27.994 93.5456L 27.994 86.5118L 26.6246 86.5118Z" transform="translate(33657.9 -8707.96)" fill="#B1BABE"></path>
                <path d="M 28.818 86.5118L 31.8096 93.7038L 32.547 93.7038L 35.5597 86.5118L 34.0639 86.5118L 32.1889 91.2361L 30.3138 86.5118L 28.818 86.5118Z" transform="translate(33657.9 -8707.96)" fill="#B1BABE"></path>
                <path d="M 39.7702 93.5456L 41.245 93.5456L 38.285 86.3641L 37.2527 86.3641L 34.2084 93.5456L 35.6936 93.5456L 36.3151 92.0692L 39.1487 92.0692L 39.7702 93.5456ZM 36.747 90.9514L 37.7583 88.4205L 38.7485 90.9514L 36.747 90.9514Z" transform="translate(33657.9 -8707.96)" fill="#B1BABE"></path>
                <path d="M 43.4347 93.5456L 43.4347 88.7896L 47.7114 93.6827L 48.6594 93.6827L 48.6594 86.5118L 47.2901 86.5118L 47.2901 91.2467L 43.0133 86.3536L 42.0653 86.3536L 42.0653 93.5456L 43.4347 93.5456Z" transform="translate(33657.9 -8707.96)" fill="#B1BABE"></path>
                <path d="M 53.6769 86.3536C 51.4648 86.3536 49.9269 87.8932 49.9269 90.0339C 49.9269 92.1747 51.4648 93.7038 53.6769 93.7038C 55.889 93.7038 57.4269 92.1747 57.4269 90.0339C 57.4269 87.8932 55.889 86.3536 53.6769 86.3536ZM 53.6769 92.4594C 52.3075 92.4594 51.3384 91.4576 51.3384 90.0339C 51.3384 88.6103 52.3075 87.5979 53.6769 87.5979C 55.0463 87.5979 56.0154 88.6103 56.0154 90.0339C 56.0154 91.4576 55.0463 92.4594 53.6769 92.4594Z" transform="translate(33657.9 -8707.96)" fill="#B1BABE"></path>
                <path d="M 57.5494 86.5118L 60.541 93.7038L 61.2784 93.7038L 64.291 86.5118L 62.7952 86.5118L 60.9202 91.2361L 59.0452 86.5118L 57.5494 86.5118Z" transform="translate(33657.9 -8707.96)" fill="#B1BABE"></path>
            </g>
            <g id="Group">
                <g id="Rectangle 16">
                    <mask id="mask0_outline_ins">
                        <path d="M 0 3C 0 1.34314 1.34315 0 3 0L 43.8754 0C 45.5323 0 46.8754 1.34315 46.8754 3L 46.8754 17.0364C 46.8754 18.6932 45.5323 20.0364 43.8754 20.0364L 3 20.0364C 1.34314 20.0364 0 18.6932 0 17.0364L 0 3Z" fill="white" transform="translate(33864.1 -8658.71)"></path>
                    </mask>
                    <g mask="url(#mask0_outline_ins)">
                        <path d="M 3 1L 43.8754 1L 43.8754 -1L 3 -1L 3 1ZM 45.8754 3L 45.8754 17.0364L 47.8754 17.0364L 47.8754 3L 45.8754 3ZM 43.8754 19.0364L 3 19.0364L 3 21.0364L 43.8754 21.0364L 43.8754 19.0364ZM 1 17.0364L 1 3L -1 3L -1 17.0364L 1 17.0364ZM 3 19.0364C 1.89543 19.0364 1 18.1409 1 17.0364L -1 17.0364C -1 19.2455 0.790858 21.0364 3 21.0364L 3 19.0364ZM 45.8754 17.0364C 45.8754 18.1409 44.98 19.0364 43.8754 19.0364L 43.8754 21.0364C 46.0846 21.0364 47.8754 19.2455 47.8754 17.0364L 45.8754 17.0364ZM 43.8754 1C 44.98 1 45.8754 1.89543 45.8754 3L 47.8754 3C 47.8754 0.790862 46.0846 -1 43.8754 -1L 43.8754 1ZM 3 -1C 0.790862 -1 -1 0.790857 -1 3L 1 3C 1 1.89543 1.89543 1 3 1L 3 -1Z" transform="translate(33864.1 -8658.71)" fill="#B1BABE"></path>
                    </g>
                </g>
                <g id="Vector 2">
                    <path d="M 0 0.5L 97.7011 0.5L 97.7011 -0.5L 0 -0.5L 0 0.5Z" transform="translate(33842.5 -8705.64)" fill="#B1BABE"></path>
                </g>
                <g id="Vector 2.1">
                    <path d="M 0 0.5L 97.7011 0.5L 97.7011 -0.5L 0 -0.5L 0 0.5Z" transform="translate(33842.5 -8685.6)" fill="#B1BABE"></path>
                </g>
                <g id="Rectangle 15">
                    <mask id="mask1_outline_ins">
                        <path d="M 0 12C 0 5.37258 5.37258 0 12 0L 185.509 0C 192.136 0 197.509 5.37258 197.509 12L 197.509 122.455C 197.509 129.082 192.136 134.455 185.509 134.455L 12 134.455C 5.37259 134.455 0 129.082 0 122.455L 0 12Z" fill="white" transform="translate(33644.5 -8732)"></path>
                    </mask>
                    <g mask="url(#mask1_outline_ins)">
                        <path d="M 12 1L 185.509 1L 185.509 -1L 12 -1L 12 1ZM 196.509 12L 196.509 122.455L 198.509 122.455L 198.509 12L 196.509 12ZM 185.509 133.455L 12 133.455L 12 135.455L 185.509 135.455L 185.509 133.455ZM 1 122.455L 1 12L -1 12L -1 122.455L 1 122.455ZM 12 133.455C 5.92488 133.455 1 128.53 1 122.455L -1 122.455C -1 129.634 4.82031 135.455 12 135.455L 12 133.455ZM 196.509 122.455C 196.509 128.53 191.584 133.455 185.509 133.455L 185.509 135.455C 192.689 135.455 198.509 129.634 198.509 122.455L 196.509 122.455ZM 185.509 1C 191.584 1 196.509 5.92487 196.509 12L 198.509 12C 198.509 4.8203 192.689 -1 185.509 -1L 185.509 1ZM 12 -1C 4.8203 -1 -1 4.8203 -1 12L 1 12C 1 5.92487 5.92487 1 12 1L 12 -1Z" transform="translate(33644.5 -8732)" fill="#B1BABE"></path>
                    </g>
                </g>
                <g id="Rectangle 15.1">
                    <path d="M 197.009 12L 197.009 122.455L 198.009 122.455L 198.009 12L 197.009 12ZM 185.509 133.955L 11.6 133.955L 11.6 134.955L 185.509 134.955L 185.509 133.955ZM 98.7544 0.5L 185.509 0.5L 185.509 -0.5L 98.7544 -0.5L 98.7544 0.5ZM 11.6 133.955C 5.46965 133.955 0.5 128.985 0.5 122.855L -0.5 122.855C -0.5 129.537 4.91737 134.955 11.6 134.955L 11.6 133.955ZM 197.009 122.455C 197.009 128.806 191.86 133.955 185.509 133.955L 185.509 134.955C 192.412 134.955 198.009 129.358 198.009 122.455L 197.009 122.455ZM 198.009 12C 198.009 5.09644 192.412 -0.5 185.509 -0.5L 185.509 0.5C 191.86 0.5 197.009 5.64873 197.009 12L 198.009 12Z" transform="translate(33743 -8721.46)" fill="#B1BABE"></path>
                </g>
            </g>
        </g>
    </g>
</svg>