<svg width="28" height="30" viewBox="0 0 28 30" version="1.1" xmlns="http://www.w3.org/2000/svg" xmlns:xlink="http://www.w3.org/1999/xlink">
    <title>Vector</title>
    <desc>Created using Figma</desc>
    <g id="Canvas" transform="translate(-837 21024)">
        <g id="Vector">
            <path fill-rule="evenodd" d="M 5.24832 18.5927C 6.82141 18.5927 8.09665 17.3175 8.09665 15.7444C 8.09665 14.1713 6.82141 12.8961 5.24832 12.8961C 3.67524 12.8961 2.4 14.1713 2.4 15.7444C 2.4 17.3175 3.67524 18.5927 5.24832 18.5927ZM 5.24832 20.9927C 8.14689 20.9927 10.4966 18.643 10.4966 15.7444C 10.4966 12.8458 8.14689 10.4961 5.24832 10.4961C 2.34975 10.4961 0 12.8458 0 15.7444C 0 18.643 2.34975 20.9927 5.24832 20.9927Z" transform="translate(837.407 -21023.7)" fill="#353535"></path>
            <path fill-rule="evenodd" d="M 21.7448 8.09665C 23.3179 8.09665 24.5931 6.82141 24.5931 5.24832C 24.5931 3.67524 23.3179 2.4 21.7448 2.4C 20.1717 2.4 18.8965 3.67524 18.8965 5.24832C 18.8965 6.82141 20.1717 8.09665 21.7448 8.09665ZM 21.7448 10.4966C 24.6434 10.4966 26.9931 8.14689 26.9931 5.24832C 26.9931 2.34975 24.6434 0 21.7448 0C 18.8462 0 16.4965 2.34975 16.4965 5.24832C 16.4965 8.14689 18.8462 10.4966 21.7448 10.4966Z" transform="translate(837.407 -21023.7)" fill="#353535"></path>
            <path fill-rule="evenodd" d="M 21.7448 27.1513C 23.3179 27.1513 24.5931 25.8761 24.5931 24.303C 24.5931 22.7299 23.3179 21.4547 21.7448 21.4547C 20.1717 21.4547 18.8965 22.7299 18.8965 24.303C 18.8965 25.8761 20.1717 27.1513 21.7448 27.1513ZM 21.7448 29.5513C 24.6434 29.5513 26.9931 27.2016 26.9931 24.303C 26.9931 21.4044 24.6434 19.0547 21.7448 19.0547C 18.8462 19.0547 16.4965 21.4044 16.4965 24.303C 16.4965 27.2016 18.8462 29.5513 21.7448 29.5513Z" transform="translate(837.407 -21023.7)" fill="#353535"></path>
            <path fill-rule="evenodd" d="M 17.0975 23.5758L 8.62427 19.0964L 9.74594 16.9746L 18.2192 21.454L 17.0975 23.5758Z" transform="translate(837.407 -21023.7)" fill="#353535"></path>
            <path fill-rule="evenodd" d="M 17.6856 6.38617L 8.01453 11.8585L 9.19646 13.9473L 18.8675 8.47496L 17.6856 6.38617Z" transform="translate(837.407 -21023.7)" fill="#353535"></path>
        </g>
    </g>
</svg>