<svg width="170" height="170" viewBox="0 0 170 170" version="1.1" xmlns="http://www.w3.org/2000/svg" xmlns:xlink="http://www.w3.org/1999/xlink">
    <title>Group 2</title>
    <desc>Created using Figma</desc>
    <g id="Canvas" transform="translate(17630 18211)">
        <g id="Group 2">
            <g id="шамп 2">
                <g id="Group 2.7">
                    <g id="Ellipse 2">
                        <path d="M 170 85C 170 131.944 131.944 170 85 170C 38.0558 170 0 131.944 0 85C 0 38.0558 38.0558 0 85 0C 131.944 0 170 38.0558 170 85Z" transform="translate(-17630 -18211)" fill="#FFFFFF"></path>
                    </g>
                </g>
                <g id="Group">
                    <g id="Group">
                        <g id="Vector">
                            <path d="M 86.5272 48.865C 86.5272 48.5396 86.5272 48.3768 86.5272 48.0513C 86.5272 47.8886 86.5272 47.5631 86.5272 47.4003C 86.2073 47.2376 86.0474 47.0748 85.8875 46.7493C 82.6887 47.7258 80.4495 46.5866 79.0101 44.6336C 78.2104 43.1689 77.7306 41.5415 77.4107 40.0767C 76.2911 33.5669 78.8501 26.8943 80.4495 20.7099C 81.2492 17.455 84.7679 8.50398 81.729 5.24905C 81.0893 3.78433 79.4899 2.80786 76.9309 3.13335C 67.0146 3.94708 60.9369 14.0373 56.4586 21.6864C 53.7396 26.2433 51.6604 30.963 49.1014 35.5198C 48.4616 36.8218 46.8623 39.7513 45.9026 39.7513C 45.9026 39.4258 45.7427 38.9375 45.7427 38.4493C 45.5827 35.8453 46.7023 32.7532 47.3421 30.1492C 48.4616 24.7786 49.5812 19.5707 49.9011 14.0373C 50.061 12.2471 49.9011 10.6197 48.7815 9.6432C 48.4616 8.82947 47.8219 8.17848 46.7023 7.69024C 41.1044 5.4118 34.5469 14.5256 31.668 18.106C 26.0701 24.9413 21.9117 32.7532 16.7936 39.914C 18.393 34.2179 21.7518 24.7786 22.0716 23.4766C 23.5111 18.4315 25.1105 9.80594 21.7518 5.0863L 21.5918 4.92356C 21.4319 4.59806 21.2719 4.43532 21.112 4.10983C 19.1927 1.34314 15.9939 -0.284322 12.4753 0.0411702C 8.63673 0.366663 1.27952 2.64511 5.68219e-15 6.71376C 5.68219e-15 6.87651 0.15994 6.87651 0.15994 7.03926C 0.319879 7.202 0.319878 7.202 0.479817 7.36475L 0.639757 7.52749C 0.639757 7.69024 0.639756 7.69024 0.479817 7.85299C 0.479817 8.01573 0.639757 8.01574 0.639757 8.17848C 0.799697 8.34123 0.799698 8.34123 0.959637 8.50398C 1.27952 8.82947 1.91927 8.99221 2.23915 8.66672C 6.71745 6.06278 13.115 -0.121579 18.0732 5.90003L 18.2331 6.06278C 20.6322 10.4569 19.8325 16.9668 18.8729 21.3609C 17.7533 26.5688 15.834 31.7767 14.0747 36.8218C 13.275 39.4258 10.3961 44.6336 12.1554 47.2376C 12.1554 47.4003 12.3153 47.4003 12.4753 47.4003C 12.6352 47.7258 12.6352 47.8886 12.7952 48.2141C 12.9551 48.5395 13.5949 48.7023 13.9147 48.5396C 16.6337 48.3768 17.7533 45.1219 19.0328 43.1689C 21.5918 39.1003 23.9909 35.1944 26.5499 31.2884C 29.2689 27.2198 31.9879 23.1511 35.1867 19.408C 36.6261 17.6178 38.2255 15.9903 39.8249 14.5256C 40.7846 13.5491 41.9041 12.7354 42.8638 12.0844C 44.1433 11.1079 44.943 11.1079 45.5827 11.5962C 46.0626 13.0609 45.9026 15.1766 45.9026 15.6648C 45.9026 20.3844 44.4632 25.2668 43.5035 29.8237C 42.7038 33.4041 40.9445 38.2865 42.0641 41.8669C 42.224 42.1924 42.3839 42.5179 42.7038 42.6807C 42.7038 42.6807 42.7038 42.6807 42.7038 42.8434C 43.0237 43.8199 44.6231 44.6336 45.5827 44.7964C 48.4616 44.9591 50.221 43.0062 51.6604 40.565C 56.7785 32.2649 59.9773 22.9884 66.055 15.1766C 67.4944 13.3864 75.6514 4.27257 78.8501 7.69024C 79.8098 9.80595 78.5303 12.8981 77.8905 15.0138C 77.0908 17.7805 76.2911 20.5472 75.4914 23.4766C 73.5721 30.312 70.6932 39.7512 75.3315 45.9356C 75.6513 46.4238 75.9712 46.9121 76.451 47.5631C 78.8501 50.4925 82.5287 51.3062 86.0474 50.6552C 86.2074 49.6788 86.3673 49.1905 86.5272 48.865Z" transform="translate(-17590.8 -18150.1)" fill="#E6E6E6"></path>
                        </g>
                    </g>
                    <g id="Group">
                        <g id="Vector">
                            <path d="M 5.81833 3.47064L 4.76045 2.93669L 5.68609 4.00458L 9.1242 9.21054L 8.59526 10.5454L 6.30544e-08 6.94128L 0.661174 5.20596L 5.42162 7.07476L 6.4795 7.60871L 6.4795 7.47522L 5.55386 6.40733L 2.11576 1.33486L 2.64469 -1.01842e-06L 11.24 3.47064L 10.5788 5.20596L 5.81833 3.47064Z" transform="translate(-17611.8 -18156)" fill="#E6E6E6"></path>
                        </g>
                        <g id="Vector">
                            <path d="M 7.40514 4.40504L 5.55386 7.34174L 8.85972 9.47752L 7.93408 10.9459L 0 6.00688L 0.925642 4.40504L 4.09928 6.40734L 5.95056 3.47064L 2.77693 1.60183L 3.70257 -1.01842e-06L 11.6367 4.93899L 10.711 6.54082L 7.40514 4.40504Z" transform="translate(-17606.8 -18166.6)" fill="#E6E6E6"></path>
                        </g>
                        <g id="Vector">
                            <path d="M 5.95056 1.06789L 4.09927 3.07018L 9.78536 8.14265L 8.59525 9.47752L 2.90916 4.27156L 1.05788 6.27385L 0 5.47293L 4.76045 -5.09209e-07L 5.95056 1.06789Z" transform="translate(-17600.2 -18175.9)" fill="#E6E6E6"></path>
                        </g>
                        <g id="Vector">
                            <path d="M 5.04435e-07 3.60413L 4.23151 -5.09209e-07L 5.28939 1.20138L 2.51246 3.60413L 3.83481 5.33945L 6.4795 3.20367L 7.53738 4.40504L 4.89268 6.54082L 6.34727 8.27614L 9.25643 5.87339L 10.3143 7.07477L 5.95056 10.8124L 5.04435e-07 3.60413Z" transform="translate(-17592.1 -18182.5)" fill="#E6E6E6"></path>
                        </g>
                        <g id="Vector">
                            <path d="M -5.04435e-07 2.40275C 0.264469 2.13578 0.661174 1.86881 0.925643 1.60183C 1.19011 1.33486 1.71905 1.06789 1.98352 0.800917C 2.38022 0.533945 2.77693 0.400458 3.17363 0.133486C 3.8348 -1.29291e-07 4.23151 0 4.62821 0C 5.02492 0 5.42162 0.133486 5.95056 0.400459C 6.4795 0.667431 6.74397 1.06789 7.00844 1.60183C 7.27291 2.13578 7.53738 2.53624 7.53738 3.07018C 7.53738 3.47064 7.53738 4.00459 7.40514 4.40505C 7.27291 4.8055 7.00844 5.20596 6.74397 5.47293C 6.4795 5.73991 6.0828 6.14037 5.68609 6.27385C 5.68609 6.27385 5.55386 6.27385 5.55386 6.40734C 5.42162 6.40734 5.42162 6.54082 5.28939 6.54082C 5.15715 6.54082 5.15715 6.67431 5.02492 6.67431C 4.89268 6.67431 4.89268 6.8078 4.76045 6.8078L 6.34727 9.61101L 4.76045 10.5454L -5.04435e-07 2.40275ZM 3.0414 2.13578C 2.90916 2.26927 2.77693 2.26927 2.64469 2.40275C 2.51246 2.53624 2.38023 2.53624 2.38023 2.66972L 3.96704 5.33945L 4.09928 5.33945C 4.09928 5.33945 4.23151 5.33945 4.36375 5.20596C 4.49598 5.20596 4.49598 5.07248 4.62821 5.07248C 4.76045 5.07248 4.76045 4.93899 4.76045 4.93899C 5.02492 4.8055 5.15715 4.67202 5.28939 4.53853C 5.42162 4.40504 5.55386 4.13807 5.68609 4.00459C 5.81833 3.8711 5.81833 3.60413 5.81833 3.33715C 5.81833 3.07018 5.55386 2.80321 5.42162 2.40275C 5.28939 2.13578 5.15715 2.00229 4.89268 1.86881C 4.62821 1.73532 4.49598 1.73532 4.36375 1.73532C 4.09928 1.73532 3.96704 1.73532 3.70257 1.86881C 3.4381 1.86881 3.30587 2.00229 3.0414 2.13578Z" transform="translate(-17583.8 -18187.7)" fill="#E6E6E6"></path>
                        </g>
                        <g id="Vector">
                            <path d="M 6.74397 5.87339L 3.57034 7.07477L 5.02492 10.6789L 3.30587 11.3463L -5.04436e-07 2.53624L 1.71905 1.86881L 3.0414 5.47293L 6.21503 4.27156L 4.89268 0.667431L 6.61174 -1.27302e-07L 9.91761 8.81009L 8.19855 9.47752L 6.74397 5.87339Z" transform="translate(-17573.9 -18193.6)" fill="#E6E6E6"></path>
                        </g>
                        <g id="Vector">
                            <path d="M 1.00887e-06 1.06789L 5.42162 1.59128e-08L 5.68609 1.60183L 2.11576 2.40275L 2.51246 4.53853L 5.81833 3.8711L 6.0828 5.47293L 2.77693 6.14037L 3.30587 8.27614L 7.00844 7.47523L 7.27291 9.07706L 1.85128 10.2784L 1.00887e-06 1.06789Z" transform="translate(-17562.3 -18196)" fill="#E6E6E6"></path>
                        </g>
                        <g id="Vector">
                            <path d="M 7.40513 1.60183L 4.76044 1.73532L 5.15715 9.47752L 3.30586 9.611L 2.90916 1.86881L 0.132233 2.00229L 0 0.400459L 7.2729 0L 7.40513 1.60183Z" transform="translate(-17552.6 -18197.1)" fill="#E6E6E6"></path>
                        </g>
                        <g id="Vector">
                            <path d="M 0.132233 -1.27302e-07L 3.4381 0.133486L 3.30587 1.73532L 0 1.60183L 0.132233 -1.27302e-07Z" transform="translate(-17543.3 -18192.3)" fill="#E6E6E6"></path>
                        </g>
                        <g id="Vector">
                            <path d="M 8.06632 6.14036L 8.59525 4.40504L 8.46302 4.40504L 7.53738 5.73991L 4.89268 8.6766L 4.36374 8.54311L 3.0414 4.67202L 2.77693 3.07018L 2.64469 4.93899L 1.71905 9.611L 1.00887e-06 9.21055L 1.98352 0L 3.57034 0.400459L 5.02492 5.07247L 5.15715 6.27385L 5.81832 5.33945L 8.99196 1.73532L 10.5788 2.13578L 8.59525 11.3463L 7.00844 10.8124L 8.06632 6.14036Z" transform="translate(-17536.5 -18196.4)" fill="#E6E6E6"></path>
                        </g>
                        <g id="Vector">
                            <path d="M 5.81833 7.60871L 3.17363 6.40734L 1.71905 8.00917L 2.01774e-06 7.34174L 6.74396 -1.27302e-07L 7.93408 0.533945L 7.40514 10.5454L 5.68608 9.74449L 5.81833 7.60871ZM 4.2315 5.33945L 6.08279 6.14036L 6.21502 3.8711L 6.4795 2.40275L 5.68608 3.60413L 4.2315 5.33945Z" transform="translate(-17525 -18191.6)" fill="#E6E6E6"></path>
                        </g>
                        <g id="Vector">
                            <path d="M 8.59525 4.27156L 5.55385 2.40275L 1.45458 8.94358L 0 8.00917L 4.89268 -2.54605e-07L 9.52089 2.9367L 8.59525 4.27156Z" transform="translate(-17514.9 -18187.5)" fill="#E6E6E6"></path>
                        </g>
                        <g id="Vector">
                            <path d="M 5.55386 6.94128L 3.30587 5.07247L 1.45458 6.27385L 0 5.07247L 8.59526 -5.09209e-07L 9.65314 0.800917L 6.21503 10.2784L 4.76045 9.07706L 5.55386 6.94128ZM 4.62822 4.27156L 6.21503 5.60642L 7.00845 3.60413L 7.66962 2.26927L 6.47951 3.20367L 4.62822 4.27156Z" transform="translate(-17509.6 -18181.2)" fill="#E6E6E6"></path>
                        </g>
                        <g id="Vector">
                            <path d="M 3.83481 4.00459L 4.89269 3.07018L 5.15715 3.33716C 5.15715 3.33716 5.28939 3.47064 5.28939 3.60413C 5.42162 3.73761 5.42163 3.73761 5.55386 3.8711C 5.6861 4.00459 5.68609 4.00459 5.81833 4.13807C 5.95056 4.27156 5.95056 4.27156 6.08279 4.27156C 6.34726 4.40504 6.61174 4.53853 6.87621 4.67202C 7.14068 4.8055 7.40515 4.67202 7.66961 4.40505C 7.93408 4.13807 8.06631 3.8711 8.06631 3.47064C 8.06631 3.20367 7.80185 2.80321 7.53738 2.53624C 7.27291 2.26927 7.00844 2.00229 6.74397 1.73532C 6.4795 1.60183 6.21503 1.46835 5.95056 1.33486L 6.74397 5.0921e-07C 6.8762 5.0921e-07 7.00844 0.133485 7.14067 0.266971C 7.27291 0.400458 7.53738 0.533945 7.66961 0.667432C 7.80185 0.800918 8.06632 0.934404 8.33079 1.20138C 8.59526 1.33486 8.72749 1.60183 8.85973 1.73532C 9.1242 2.00229 9.38867 2.40275 9.5209 2.66973C 9.65314 2.9367 9.78537 3.33716 9.9176 3.73761C 9.9176 4.13807 9.9176 4.40505 9.78537 4.80551C 9.65313 5.07248 9.38866 5.47293 9.1242 5.73991C 8.72749 6.00688 8.33078 6.27385 7.93408 6.27385C 7.53738 6.40734 7.00844 6.27385 6.4795 6.00688C 6.74397 6.54083 6.87621 7.07477 6.87621 7.47523C 6.74397 8.00917 6.4795 8.40963 6.08279 8.81009C 5.68609 9.21055 5.28939 9.34404 4.89269 9.47752C 4.49598 9.61101 4.09928 9.61101 3.70257 9.47752C 3.30587 9.34404 2.90916 9.21055 2.51246 8.94358C 2.11576 8.6766 1.85128 8.40963 1.45458 8.00917C 1.05787 7.60872 0.793408 7.07477 0.528939 6.67431C 0.264469 6.27385 0.132233 5.87339 -2.01774e-06 5.60642L 1.45458 4.93899C 1.45458 5.20596 1.58682 5.47293 1.85129 5.73991C 1.98352 6.14037 2.24799 6.40734 2.64469 6.8078C 2.77693 6.94128 2.90917 7.07477 3.0414 7.20826C 3.17364 7.34174 3.43811 7.47523 3.57034 7.47523C 3.70258 7.47523 3.96704 7.47523 4.09927 7.47523C 4.23151 7.47523 4.49598 7.34174 4.62821 7.20826C 4.89268 6.94128 5.02492 6.54082 5.02492 6.27385C 5.02492 5.87339 4.76045 5.33945 4.23151 4.80551C 4.23151 4.67202 4.09927 4.67202 4.09927 4.67202C 4.09927 4.67202 3.96704 4.53853 3.96704 4.40505L 3.83481 4.00459Z" transform="translate(-17501.6 -18174.9)" fill="#E6E6E6"></path>
                        </g>
                        <g id="Vector">
                            <path d="M 7.14067 6.80779L 8.19855 6.27385L 6.87621 6.40734L 0.661178 6.14036L 4.03548e-06 4.93899L 7.93409 -1.01842e-06L 8.85973 1.60183L 4.62822 4.27156L 3.43811 4.8055L 3.43811 4.93899L 4.89269 4.8055L 10.9755 5.07247L 11.6367 6.27385L 3.70257 11.2128L 2.77693 9.611L 7.14067 6.80779Z" transform="translate(-17495.3 -18166.6)" fill="#E6E6E6"></path>
                        </g>
                        <g id="Vector">
                            <path d="M 5.55385 6.94128L 4.23151 3.73761L 0.661175 5.20596L 2.01774e-06 3.47064L 8.59525 -9.48476e-15L 9.25643 1.73532L 5.68609 3.20367L 7.00843 6.40734L 10.5788 4.93899L 11.2399 6.67431L 2.64469 10.1449L 1.98352 8.40963L 5.55385 6.94128Z" transform="translate(-17489.9 -18155.7)" fill="#E6E6E6"></path>
                        </g>
                    </g>
                    <g id="Group">
                        <g id="Group">
                            <g id="Vector">
                                <path d="M 5.02492 6.27384L 4.09928 3.07018L 0.396704 4.13807L 0 2.40275L 8.85972 0L 9.25643 1.60183L 5.68609 2.66972L 6.61174 5.87339L 10.1821 4.93898L 10.711 6.67431L 1.85129 9.07706L 1.32235 7.34174L 5.02492 6.27384Z" transform="translate(-17614.1 -18113)" fill="#E6E6E6"></path>
                            </g>
                            <g id="Vector">
                                <path d="M 4.09928 4.93899L 2.90916 2.40275L 0.793408 2.53624L 1.26109e-07 0.934407L 9.78537 -2.03684e-06L 10.3143 1.20138L 3.30587 8.14265L 2.51246 6.40734L 4.09928 4.93899ZM 4.49598 2.13577L 5.28939 3.8711L 6.8762 2.40275L 8.06632 1.60184L 6.61173 2.00229L 4.49598 2.13577Z" transform="translate(-17610.9 -18100.8)" fill="#E6E6E6"></path>
                            </g>
                            <g id="Vector">
                                <path d="M 8.72749 6.94128L 7.27291 4.67202L 0.925643 8.81009L 0 7.34174L 6.34727 3.20367L 4.89268 0.934399L 6.21503 0L 10.0498 6.00688L 8.72749 6.94128Z" transform="translate(-17604.8 -18095.6)" fill="#E6E6E6"></path>
                            </g>
                            <g id="Vector">
                                <path d="M 5.28939 6.00687L 4.62822 6.94128L 5.68609 6.27385L 9.5209 4.67201L 10.711 6.00687L 4.36375 8.40963C 3.83481 8.54311 3.4381 8.81009 3.0414 8.81009C 2.6447 8.94358 2.24799 8.94357 1.98352 8.94357C 1.71905 8.94357 1.32235 8.94358 1.19011 8.81009C 1.05788 8.67661 0.661173 8.54312 0.528939 8.27614C 0.396704 8.00917 0.132234 7.87568 0.132234 7.7422C -5.02465e-07 7.60871 2.52218e-07 7.34174 2.52218e-07 7.07477L 1.32235 6.40734C 1.32235 6.54082 1.45458 6.67431 1.45458 6.8078C 1.58682 6.94128 1.58682 7.07477 1.71905 7.07477C 1.98352 7.34174 2.38023 7.34174 3.0414 7.07477L 5.68609 -4.07367e-06L 7.14068 1.60184L 5.28939 6.00687Z" transform="translate(-17599.2 -18088)" fill="#E6E6E6"></path>
                            </g>
                            <g id="Vector">
                                <path d="M 5.68609 -2.03684e-06C 5.95056 0.133484 6.34727 0.400457 6.74397 0.66743C 7.14068 0.934402 7.40515 1.20137 7.80185 1.46835C 8.19855 1.73532 8.46302 2.13578 8.72749 2.40276C 8.99196 2.80321 9.25643 3.07019 9.38867 3.60413C 9.5209 4.00459 9.5209 4.40505 9.5209 4.939C 9.38867 5.33946 9.25643 5.8734 8.85973 6.40734C 8.46302 6.8078 8.06632 7.20826 7.66961 7.34174C 7.27291 7.47523 6.87621 7.60872 6.4795 7.60872C 6.0828 7.60872 5.68609 7.47523 5.28939 7.34174C 4.89269 7.20826 4.49598 6.94129 4.09928 6.67431L 3.96704 6.54083C 3.83481 6.54083 3.83481 6.40734 3.70257 6.40734C 3.57034 6.40734 3.57034 6.27385 3.4381 6.14037C 3.30587 6.00688 3.30587 6.00688 3.30587 6.00688L 1.32235 8.40964L 5.04435e-07 7.20826L 5.68609 -2.03684e-06ZM 6.87621 2.80321C 6.74397 2.66972 6.61174 2.53624 6.4795 2.53624C 6.34727 2.40275 6.21503 2.40276 6.21503 2.26927L 4.23151 4.53853C 4.23151 4.53853 4.23151 4.67202 4.36375 4.67202L 4.49598 4.8055L 4.62822 4.939L 4.76045 5.07248C 4.89269 5.20597 5.15716 5.33945 5.28939 5.47293C 5.55386 5.60642 5.68609 5.60643 5.95056 5.73991C 6.21503 5.73991 6.34727 5.73992 6.61174 5.60643C 6.87621 5.47294 7.00844 5.33945 7.27291 5.07248C 7.40515 4.80551 7.53738 4.67202 7.66961 4.40505C 7.66961 4.13808 7.66961 4.00459 7.66961 3.73762C 7.66961 3.60413 7.53738 3.33716 7.40515 3.20367C 7.27291 3.07019 7.00844 2.93669 6.87621 2.80321Z" transform="translate(-17592.1 -18080.1)" fill="#E6E6E6"></path>
                            </g>
                            <g id="Vector">
                                <path d="M 5.55386 7.34174L 3.17363 5.8734L 1.58682 7.20826L -1.00887e-06 6.27385L 7.66961 2.03684e-06L 8.85973 0.667433L 6.8762 10.4119L 5.28939 9.47752L 5.55386 7.34174ZM 4.36375 4.8055L 6.0828 5.8734L 6.61173 3.73761L 7.14068 2.40275L 5.95056 3.47064L 4.36375 4.8055Z" transform="translate(-17585.3 -18073.7)" fill="#E6E6E6"></path>
                            </g>
                            <g id="Vector">
                                <path d="M 7.80184 2.93669L 6.08279 2.13578C 5.68609 2.9367 5.42162 3.60413 5.15715 4.13807C 4.89268 4.67202 4.62821 5.33944 4.23151 5.7399C 3.96704 6.27385 3.70257 6.67431 3.4381 6.94128C 3.17363 7.34174 2.90916 7.60871 2.64469 7.74219C 2.51246 7.87568 2.24799 8.00917 2.11576 8.00917C 1.98352 8.00917 1.71905 8.14266 1.58681 8.14266C 1.45458 8.14266 1.19011 8.14266 1.05788 8.14266C 0.925642 8.14266 0.793408 8.00917 0.661174 8.00917C 0.528939 7.87569 0.264468 7.87568 0.264468 7.74219C 0.132234 7.60871 5.04435e-07 7.60871 5.04435e-07 7.47523L 0.793409 6.14036L 0.925641 6.27385C 0.925641 6.27385 1.05788 6.27385 1.05788 6.40733C 1.19011 6.40733 1.32235 6.54082 1.45458 6.40733C 1.58682 6.27385 1.71905 6.27385 1.85128 6.27385C 1.98352 6.14036 2.24799 5.87339 2.51246 5.60642C 2.77693 5.33944 3.0414 4.93898 3.30587 4.40504C 3.57034 3.87109 3.96704 3.33716 4.23151 2.53624C 4.62821 1.86881 4.89268 0.934405 5.42162 2.03684e-06L 10.4465 2.13578L 7.00844 10.6789L 5.28938 10.0115L 7.80184 2.93669Z" transform="translate(-17575.6 -18069.7)" fill="#E6E6E6"></path>
                            </g>
                            <g id="Vector">
                                <path d="M 1.98352 4.07367e-06L 3.70257 0.400456L 2.90917 3.60412C 2.90917 3.60412 3.0414 3.60412 3.17363 3.60412C 3.30587 3.60412 3.4381 3.60412 3.4381 3.60412C 3.57034 3.60412 3.70257 3.60412 3.8348 3.60412C 3.96704 3.60412 4.09928 3.60412 4.23151 3.60412C 4.62822 3.7376 5.02492 3.87109 5.42162 4.00458C 5.81833 4.13807 6.0828 4.40504 6.34727 4.67201C 6.61173 4.93898 6.74397 5.33943 6.87621 5.73989C 7.00844 6.14035 7.00844 6.67429 6.87621 7.20823C 6.61174 8.27612 6.0828 8.94356 5.42162 9.34401C 4.62821 9.74447 3.70257 9.74447 2.51246 9.4775C 2.38022 9.4775 2.24799 9.34401 1.98352 9.34401C 1.85129 9.34401 1.58682 9.21052 1.32235 9.21052C 1.05788 9.07703 0.793409 9.07704 0.661174 8.94355C 0.396705 8.81007 0.26447 8.81007 1.00887e-06 8.67659L 1.98352 4.07367e-06ZM 2.90917 8.14264C 3.17363 8.14264 3.4381 8.27612 3.57034 8.27612C 3.83481 8.27612 3.96704 8.27613 4.23151 8.14264C 4.36375 8.00915 4.62821 7.87566 4.76045 7.74218C 4.89268 7.60869 5.02492 7.34172 5.02492 7.07475C 5.15715 6.80778 5.15715 6.54081 5.02492 6.27384C 5.02492 6.00686 4.89268 5.87338 4.76045 5.73989C 4.62821 5.6064 4.49598 5.47292 4.23151 5.33944C 3.96704 5.20595 3.83481 5.20595 3.57034 5.07246C 3.57034 5.07246 3.4381 5.07246 3.30587 5.07246C 3.17363 5.07246 3.17363 5.07246 3.0414 5.07246C 2.90916 5.07246 2.90916 5.07246 2.77693 5.07246C 2.64469 5.07246 2.64469 5.07246 2.64469 5.07246L 1.98352 7.74218C 2.11576 7.74218 2.24799 7.87566 2.38022 7.87566C 2.51246 8.00915 2.6447 8.14264 2.90917 8.14264Z" transform="translate(-17564.2 -18066.5)" fill="#E6E6E6"></path>
                            </g>
                            <g id="Vector">
                                <path d="M 5.42162 5.73991L 2.11576 5.47294L 1.85128 9.34403L -2.01774e-06 9.21055L 0.661171 -4.07368e-06L 2.51246 0.13349L 2.24799 3.8711L 5.55385 4.13808L 5.81832 0.400459L 7.66961 0.533943L 7.00844 9.74449L 5.15715 9.61101L 5.42162 5.73991Z" transform="translate(-17553.8 -18064.7)" fill="#E6E6E6"></path>
                            </g>
                            <g id="Vector">
                                <path d="M 0.0336959 5.07247C -0.0985388 3.60412 0.165931 2.26927 0.694869 1.46835C 1.22381 0.533948 2.14945 -4.07367e-06 3.4718 -4.07367e-06C 4.13297 -4.07367e-06 4.66191 4.0677e-06 5.19085 0.13349C 5.71979 0.266976 6.11649 0.533946 6.5132 0.934405C 6.9099 1.33486 7.17437 1.8688 7.43884 2.40275C 7.70331 2.93669 7.83554 3.60413 7.83554 4.27156C 7.96778 5.7399 7.70331 7.07476 7.17437 7.87568C 6.64543 8.81008 5.71979 9.34402 4.39744 9.34402C 3.73627 9.34402 3.20733 9.34402 2.67839 9.21054C 2.14945 9.07705 1.75275 8.81008 1.35604 8.40962C 0.959338 8.00916 0.694871 7.47522 0.562636 6.94128C 0.298167 6.40733 0.0336959 5.7399 0.0336959 5.07247ZM 1.88498 4.93899C 1.88498 5.33944 2.01722 5.87339 2.14945 6.27385C 2.28169 6.67431 2.41392 6.94127 2.54616 7.20825C 2.67839 7.47522 2.94286 7.60871 3.20733 7.74219C 3.4718 7.87568 3.73627 7.87568 4.13297 7.87568C 4.79415 7.87568 5.19085 7.47522 5.58755 6.94128C 5.85202 6.40733 5.98426 5.60641 5.85202 4.40504C 5.85202 4.00458 5.71979 3.60412 5.58755 3.20366C 5.45532 2.80321 5.32308 2.53624 5.19085 2.26927C 5.05861 2.00229 4.79415 1.73532 4.52968 1.60183C 4.26521 1.46835 4.00074 1.46835 3.60403 1.46835C 2.94286 1.46835 2.54616 1.8688 2.14945 2.40275C 1.88498 2.93669 1.75275 3.73761 1.88498 4.93899Z" transform="translate(-17542.6 -18064.7)" fill="#E6E6E6"></path>
                            </g>
                            <g id="Vector">
                                <path d="M 5.55385 1.60183L 2.11575 2.53624L 3.96704 9.87799L 2.24798 10.2784L 2.01774e-06 1.33486L 5.15715 2.03684e-06L 5.55385 1.60183Z" transform="translate(-17532.2 -18067.1)" fill="#E6E6E6"></path>
                            </g>
                            <g id="Vector">
                                <path d="M 0.587706 6.40733C 0.0587669 4.93899 -0.205696 3.73762 0.191008 2.66973C 0.455477 1.60184 1.24888 0.934399 2.30676 0.400455C 2.96794 0.133482 3.49688 2.03684e-06 4.02582 2.03684e-06C 4.55476 2.03684e-06 5.08369 0.133482 5.4804 0.400455C 5.8771 0.667427 6.40604 1.06789 6.67051 1.46835C 7.06722 2.00229 7.33168 2.53624 7.59615 3.20367C 8.12509 4.67202 8.38956 5.87339 7.99286 6.94128C 7.72839 8.00917 6.93497 8.67661 5.87709 9.21055C 5.21592 9.47753 4.68699 9.61101 4.15805 9.61101C 3.62911 9.61101 3.10017 9.47753 2.70347 9.21055C 2.30677 8.94358 1.77782 8.54312 1.51336 8.14266C 1.11665 7.60871 0.852175 7.07477 0.587706 6.40733ZM 2.30676 5.60642C 2.439 6.00688 2.70347 6.40734 2.96793 6.8078C 3.2324 7.20826 3.49687 7.34174 3.62911 7.60871C 3.89358 7.7422 4.15805 7.87569 4.42251 8.00918C 4.68698 8.00918 5.08369 8.00918 5.34816 7.87569C 5.8771 7.60872 6.2738 7.20826 6.40604 6.54083C 6.53827 6.00688 6.40604 5.07248 6.00934 4.13807C 5.8771 3.73761 5.61263 3.33715 5.4804 3.07018C 5.21593 2.80321 5.08369 2.53624 4.81922 2.26926C 4.55475 2.00229 4.29029 1.86881 4.02582 1.86881C 3.76135 1.86881 3.36464 1.86881 3.10017 2.0023C 2.57123 2.26927 2.17453 2.66973 2.0423 3.33716C 1.77783 3.8711 1.91006 4.67202 2.30676 5.60642Z" transform="translate(-17523.8 -18069.7)" fill="#E6E6E6"></path>
                            </g>
                            <g id="Vector">
                                <path d="M 5.68609 13.3486L 4.03548e-06 6.14036L 1.45458 4.93898L 6.21503 10.9459L 7.93409 9.61099L 3.17363 3.7376L 4.62822 2.53624L 9.38867 8.40962L 11.1077 7.07475L 6.34727 1.20138L 7.80185 2.03683e-06L 13.4879 7.20825L 5.68609 13.3486Z" transform="translate(-17510.6 -18081.1)" fill="#E6E6E6"></path>
                            </g>
                            <g id="Vector">
                                <path d="M -4.03549e-06 4.13807L 3.57034 2.03684e-06L 4.76046 1.06788L 2.38023 3.8711L 3.96704 5.33944L 6.0828 2.80321L 7.27291 3.8711L 5.15715 6.40733L 6.87621 7.87568L 9.25643 5.07247L 10.4465 6.14036L 6.87621 10.2784L -4.03549e-06 4.13807Z" transform="translate(-17500.8 -18087.8)" fill="#E6E6E6"></path>
                            </g>
                            <g id="Vector">
                                <path d="M 3.04141 2.40275L 1.98352 4.00458C 2.6447 4.53853 3.30588 4.93899 3.83481 5.33944C 4.36375 5.7399 4.89269 6.14036 5.2894 6.54082C 5.6861 6.94128 6.08281 7.20826 6.34728 7.60872C 6.61175 7.87569 6.87622 8.27614 7.00845 8.54312C 7.14069 8.81009 7.14069 8.94357 7.27292 9.21055C 7.27292 9.47752 7.27292 9.61101 7.27292 9.74449C 7.27292 9.87798 7.27292 10.145 7.14069 10.2784C 7.14069 10.4119 7.00845 10.5454 6.87621 10.6789C 6.74398 10.8124 6.61175 10.9459 6.61175 11.0794C 6.61175 11.2128 6.34728 11.2128 6.34728 11.3463L 5.15716 10.4119L 5.2894 10.2784L 5.42163 10.145C 5.55386 10.0115 5.55386 9.87798 5.55386 9.74449C 5.55386 9.61101 5.55386 9.47752 5.42163 9.21055C 5.28939 8.94357 5.15716 8.81009 4.89269 8.40963C 4.62822 8.14266 4.23152 7.74221 3.83481 7.47523C 3.43811 7.07477 2.77693 6.67431 2.24799 6.27385C 1.71905 5.8734 0.79341 5.33944 3.75834e-14 4.67201L 2.90916 -4.07368e-06L 10.711 4.93899L 9.78539 6.40734L 3.04141 2.40275Z" transform="translate(-17494.4 -18096)" fill="#E6E6E6"></path>
                            </g>
                            <g id="Vector">
                                <path d="M 5.68609 6.27385L 5.55386 6.67431L 9.12419 8.14266L 8.46301 9.74449L 4.03548e-06 6.14037L 0.661177 4.53853L 4.36374 6.14037L 4.36374 5.73991L 1.71905 1.8688L 2.51245 -4.07368e-06L 5.02492 4.00458L 5.15715 4.80551L 5.95056 4.27156L 11.1077 3.07018L 10.3143 5.07247L 5.68609 6.27385Z" transform="translate(-17490.1 -18105.4)" fill="#E6E6E6"></path>
                            </g>
                            <g id="Vector">
                                <path d="M 7.40514 2.13578L 6.74397 4.93899L 8.59526 6.14037L 8.19855 7.87569L 2.01774e-06 2.40275L 0.264467 1.06789L 10.0498 2.03684e-06L 9.65313 1.86881L 7.40514 2.13578ZM 5.42162 4.13807L 5.95056 2.26926L 3.83481 2.40275L 2.38022 2.26926L 3.70257 2.93669L 5.42162 4.13807Z" transform="translate(-17486 -18113.1)" fill="#E6E6E6"></path>
                            </g>
                        </g>
                    </g>
                </g>
            </g>
        </g>
    </g>
</svg>
