<svg width="31" height="31" viewBox="0 0 31 31" version="1.1" xmlns="http://www.w3.org/2000/svg" xmlns:xlink="http://www.w3.org/1999/xlink">
    <title>if_phone_1540177</title>
    <desc>Created using Figma</desc>
    <g id="Canvas" transform="translate(-20402 12249)">
        <g id="if_phone_1540177">
            <g id="Слой 2">
                <g id="XMLID 1">
                    <path d="M 9.51572 3.92754L 9.26939 5.20398L 9.94699 5.33475L 10.435 4.84678L 9.51572 3.92754ZM 12.5998 0.843506L 11.7012 -0.0959264L 11.6907 -0.0859457L 11.6805 -0.0757357L 12.5998 0.843506ZM 15.1039 0.869858L 16.0231 -0.0493811L 16.0036 -0.0689302L 15.9832 -0.0876305L 15.1039 0.869858ZM 20.1385 5.90449L 21.2806 5.28338L 21.1907 5.1182L 21.0578 4.98525L 20.1385 5.90449ZM 20.0067 8.32955L 19.1005 7.39746L 19.094 7.40384L 19.0875 7.41031L 20.0067 8.32955ZM 17.5553 10.781L 18.2563 11.8758L 18.3749 11.7998L 18.4746 11.7002L 17.5553 10.781ZM 6.29989 9.12033L 6.99971 8.02477L 6.95277 7.99479L 6.90344 7.96893L 6.29989 9.12033ZM 4.32294 3.21769e-06C 3.41034 0.925832 3.41042 0.925919 3.41053 0.92602C 3.41058 0.926072 3.4107 0.926187 3.4108 0.926291C 3.41101 0.926499 3.41128 0.926763 3.4116 0.927082C 3.41225 0.92772 3.41312 0.928578 3.41422 0.929652C 3.4164 0.931801 3.41947 0.934817 3.42341 0.938673C 3.43127 0.946384 3.44258 0.957458 3.45717 0.97168C 3.48634 1.00012 3.52861 1.04118 3.58254 1.09313C 3.69035 1.19698 3.84503 1.34464 4.03499 1.52233C 4.414 1.87683 4.93788 2.35496 5.51302 2.84476C 6.08446 3.33142 6.72536 3.84579 7.33572 4.26397C 7.89325 4.64596 8.60256 5.0753 9.26939 5.20398L 9.76206 2.65109C 9.76412 2.65149 9.73847 2.64637 9.68062 2.6239C 9.62449 2.60209 9.55146 2.56919 9.46087 2.52209C 9.27786 2.42695 9.05723 2.29174 8.80526 2.1191C 8.30111 1.77369 7.73772 1.32429 7.19878 0.865313C 6.66353 0.409478 6.17093 -0.0399077 5.81105 -0.376516C 5.63158 -0.544386 5.48621 -0.683176 5.38634 -0.779382C 5.33643 -0.827463 5.29795 -0.864843 5.27232 -0.889829C 5.25951 -0.90232 5.24992 -0.911707 5.24373 -0.917779C 5.24064 -0.920814 5.23839 -0.92302 5.23702 -0.92437C 5.23633 -0.925046 5.23586 -0.925507 5.23561 -0.92575C 5.23549 -0.925872 5.23542 -0.925939 5.23541 -0.925952C 5.2354 -0.925959 5.23544 -0.925927 5.23543 -0.92593C 5.23548 -0.925885 5.23554 -0.925825 4.32294 3.21769e-06ZM 10.435 4.84678L 13.519 1.76275L 11.6805 -0.0757357L 8.59649 3.0083L 10.435 4.84678ZM 12.5998 0.843506C 13.4984 1.78294 13.4979 1.78339 13.4974 1.78384C 13.4973 1.78398 13.4968 1.78443 13.4965 1.78472C 13.4959 1.7853 13.4953 1.78586 13.4947 1.78641C 13.4936 1.7875 13.4925 1.78853 13.4914 1.7895C 13.4894 1.79144 13.4876 1.79314 13.486 1.79461C 13.4828 1.79755 13.4805 1.79957 13.4792 1.80079C 13.4765 1.80319 13.4772 1.80246 13.4811 1.79928C 13.4891 1.79268 13.5081 1.77763 13.5359 1.7589C 13.5957 1.71857 13.6707 1.67852 13.7467 1.65533C 13.8174 1.63377 13.8708 1.63183 13.9169 1.64089C 13.9559 1.64857 14.061 1.67716 14.2246 1.82735L 15.9832 -0.0876305C 14.9563 -1.03076 13.8361 -1.09016 12.9883 -0.831593C 12.5997 -0.713102 12.2908 -0.537331 12.0829 -0.39726C 11.9769 -0.325794 11.8911 -0.2595 11.8277 -0.207312C 11.7959 -0.18109 11.7693 -0.158059 11.7482 -0.139248C 11.7377 -0.12983 11.7284 -0.121433 11.7206 -0.114182C 11.7167 -0.110555 11.7131 -0.107211 11.7099 -0.104164C 11.7082 -0.102641 11.7067 -0.101191 11.7053 -0.0998179C 11.7045 -0.0991311 11.7038 -0.0984633 11.7032 -0.0978147C 11.7028 -0.0974907 11.7023 -0.097018 11.7022 -0.0968561C 11.7017 -0.0963892 11.7012 -0.0959264 12.5998 0.843506ZM 14.1847 1.7891L 19.2193 6.82373L 21.0578 4.98525L 16.0231 -0.0493811L 14.1847 1.7891ZM 20.1385 5.90449C 18.9965 6.52559 18.9963 6.52518 18.9961 6.52477C 18.996 6.52465 18.9958 6.52425 18.9956 6.52399C 18.9954 6.52348 18.9951 6.52298 18.9948 6.52251C 18.9943 6.52157 18.9939 6.52071 18.9935 6.51993C 18.9926 6.51837 18.992 6.51713 18.9915 6.51621C 18.9905 6.51436 18.9902 6.51376 18.9905 6.51434C 18.9911 6.51552 18.9941 6.52133 18.9988 6.53129C 19.0084 6.55145 19.0247 6.58699 19.0435 6.63426C 19.0827 6.73271 19.1245 6.861 19.1479 6.99452C 19.199 7.28766 19.1327 7.3662 19.1005 7.39746L 20.913 9.26164C 21.8297 8.37032 21.8293 7.23633 21.7091 6.54758C 21.6468 6.19016 21.5437 5.88516 21.4593 5.67307C 21.4163 5.56507 21.3761 5.47602 21.3448 5.41041C 21.3291 5.37748 21.3154 5.35011 21.3045 5.32883C 21.299 5.31819 21.2943 5.30903 21.2902 5.30145C 21.2882 5.29765 21.2864 5.29424 21.2848 5.29123C 21.284 5.28972 21.2832 5.28832 21.2825 5.28701C 21.2822 5.28636 21.2818 5.28573 21.2815 5.28512C 21.2814 5.28482 21.2811 5.28438 21.281 5.28423C 21.2808 5.28381 21.2806 5.28338 20.1385 5.90449ZM 19.0875 7.41031L 16.6361 9.86173L 18.4746 11.7002L 20.926 9.24879L 19.0875 7.41031ZM 17.5553 10.781C 16.8544 9.68614 16.8551 9.68565 16.8559 9.68517C 16.8561 9.68503 16.8568 9.68456 16.8573 9.68427C 16.8582 9.68369 16.8591 9.68315 16.8598 9.68265C 16.8614 9.68165 16.8627 9.68082 16.8638 9.68015C 16.866 9.6788 16.8672 9.67808 16.8673 9.67797C 16.8677 9.67774 16.8642 9.6799 16.8568 9.68416C 16.842 9.69269 16.8117 9.70959 16.7665 9.73259C 16.676 9.77863 16.5261 9.84882 16.3199 9.92521C 15.908 10.0778 15.2719 10.2551 14.4351 10.3146C 12.7821 10.432 10.2439 10.0971 6.99971 8.02477L 5.60006 10.2159C 9.2884 12.5719 12.3779 13.0673 14.6195 12.908C 15.73 12.8291 16.608 12.5912 17.2232 12.3633C 17.5306 12.2494 17.7725 12.1379 17.9455 12.0499C 18.0321 12.0059 18.1015 11.9676 18.1534 11.9378C 18.1793 11.9228 18.2009 11.91 18.2181 11.8996C 18.2267 11.8944 18.2341 11.8897 18.2405 11.8858C 18.2437 11.8838 18.2466 11.8819 18.2492 11.8803C 18.2505 11.8795 18.2518 11.8787 18.253 11.8779C 18.2536 11.8775 18.2544 11.877 18.2547 11.8768C 18.2555 11.8763 18.2563 11.8758 17.5553 10.781ZM 6.29989 9.12033C 6.90344 7.96893 6.90363 7.96903 6.90381 7.96912C 6.90385 7.96915 6.90402 7.96923 6.9041 7.96928C 6.90427 7.96937 6.90439 7.96943 6.90447 7.96947C 6.90461 7.96954 6.90456 7.96952 6.90431 7.96939C 6.90382 7.96913 6.90255 7.96845 6.90051 7.96737C 6.89644 7.96521 6.88931 7.9614 6.87923 7.95597C 6.85907 7.94511 6.82712 7.92773 6.78423 7.90393C 6.69843 7.85633 6.56896 7.78308 6.40259 7.68489C 6.06963 7.48837 5.59017 7.19268 5.01802 6.80336C 3.87041 6.02249 2.36689 4.87645 0.927126 3.41165L -0.927132 5.23421C 0.664428 6.85345 2.31085 8.10611 3.55536 8.95293C 4.17926 9.37745 4.7064 9.70286 5.08103 9.92397C 5.26846 10.0346 5.41803 10.1193 5.52281 10.1774C 5.57521 10.2065 5.61645 10.229 5.64565 10.2447C 5.66025 10.2526 5.67184 10.2588 5.68033 10.2633C 5.68457 10.2655 5.68803 10.2674 5.6907 10.2688C 5.69204 10.2695 5.69318 10.2701 5.69412 10.2706C 5.69459 10.2708 5.695 10.271 5.69537 10.2712C 5.69556 10.2713 5.6958 10.2715 5.69589 10.2715C 5.69612 10.2716 5.69633 10.2717 6.29989 9.12033Z" transform="translate(20411 -12231.8)" fill="#353535"></path>
                </g>
                <g id="XMLID 4">
                    <path d="M 7.72953 10.9499L 6.81029 10.0306L 6.31234 10.5286L 6.45741 11.2177L 7.72953 10.9499ZM 10.8136 7.86583L 11.7328 8.78507L 11.743 8.77486L 11.753 8.76442L 10.8136 7.86583ZM 10.7872 5.36169L 11.7447 4.48237L 11.7248 4.46075L 11.704 4.44006L 10.7872 5.36169ZM 5.72622 0.327063L 6.64305 -0.594572L 6.51098 -0.725959L 6.34732 -0.814966L 5.72622 0.327063ZM 3.30115 0.45886L 4.22039 1.3781L 4.22687 1.37163L 4.23325 1.36506L 3.30115 0.45886ZM 0.849738 2.91028L -0.069501 1.99104L -0.169126 2.09066L -0.245094 2.20932L 0.849738 2.91028ZM 2.53673 14.1657L 3.68813 13.5622L 3.66146 13.5113L 3.6304 13.4629L 2.53673 14.1657ZM 11.6834 16.1427C 12.6093 15.2301 12.6093 15.2301 12.6094 15.2302C 12.6094 15.2302 12.6094 15.2302 12.6094 15.2302C 12.6094 15.2302 12.6093 15.2301 12.6092 15.23C 12.6089 15.2297 12.6085 15.2293 12.6078 15.2286C 12.6064 15.2272 12.6042 15.2249 12.6012 15.2218C 12.5951 15.2156 12.5857 15.206 12.5731 15.1932C 12.5481 15.1675 12.5107 15.129 12.4625 15.079C 12.3662 14.9791 12.2272 14.8336 12.059 14.654C 11.7218 14.2939 11.2712 13.8009 10.8134 13.2651C 10.3525 12.7258 9.89977 12.1613 9.54988 11.6555C 9.375 11.4027 9.23694 11.1806 9.13879 10.9954C 9.09018 10.9037 9.05565 10.8292 9.03234 10.7712C 9.02088 10.7426 9.01313 10.7206 9.00808 10.7046C 9.00299 10.6885 9.00147 10.6813 9.00164 10.6821L 6.45741 11.2177C 6.59569 11.8745 7.02577 12.5769 7.41166 13.1347C 7.83279 13.7435 8.3488 14.3832 8.83682 14.9543C 9.32789 15.5289 9.80651 16.0524 10.1612 16.4312C 10.339 16.621 10.4867 16.7756 10.5905 16.8833C 10.6424 16.9372 10.6834 16.9794 10.7119 17.0086C 10.7261 17.0231 10.7371 17.0344 10.7448 17.0423C 10.7487 17.0462 10.7517 17.0492 10.7538 17.0514C 10.7549 17.0525 10.7557 17.0534 10.7564 17.054C 10.7567 17.0543 10.7569 17.0546 10.7571 17.0548C 10.7573 17.0549 10.7574 17.055 10.7574 17.0551C 10.7575 17.0552 10.7576 17.0553 11.6834 16.1427ZM 8.64877 11.8691L 11.7328 8.78507L 9.89433 6.94659L 6.81029 10.0306L 8.64877 11.8691ZM 10.8136 7.86583C 11.753 8.76442 11.7535 8.76394 11.7539 8.76345C 11.7541 8.76328 11.7546 8.76278 11.7549 8.76244C 11.7555 8.76176 11.7562 8.76106 11.7569 8.76033C 11.7583 8.75889 11.7597 8.75735 11.7612 8.75573C 11.7643 8.7525 11.7676 8.74891 11.7713 8.74499C 11.7785 8.73715 11.7869 8.72794 11.7963 8.71738C 11.8151 8.6963 11.8382 8.6697 11.8644 8.63788C 11.9166 8.57454 11.9829 8.48871 12.0543 8.38265C 12.1944 8.17478 12.3702 7.86586 12.4887 7.47733C 12.7472 6.62949 12.6878 5.50932 11.7447 4.48237L 9.82972 6.24102C 9.97991 6.40456 10.0085 6.50967 10.0162 6.54871C 10.0252 6.59481 10.0233 6.6482 10.0017 6.7189C 9.97855 6.79495 9.9385 6.86989 9.89817 6.92973C 9.87944 6.95753 9.86439 6.97652 9.85779 6.98454C 9.85461 6.98839 9.85388 6.98911 9.85628 6.98642C 9.8575 6.98506 9.85952 6.98281 9.86246 6.97963C 9.86393 6.97805 9.86563 6.97622 9.86757 6.97416C 9.86854 6.97313 9.86957 6.97204 9.87066 6.97088C 9.87121 6.97031 9.87177 6.96972 9.87235 6.96911C 9.87264 6.96881 9.87309 6.96834 9.87323 6.96819C 9.87368 6.96772 9.87413 6.96724 10.8136 7.86583ZM 11.704 4.44006L 6.64305 -0.594572L 4.80938 1.2487L 9.87037 6.28333L 11.704 4.44006ZM 5.72622 0.327063C 6.34732 -0.814966 6.3469 -0.815196 6.34647 -0.815428C 6.34632 -0.81551 6.34588 -0.815746 6.34558 -0.815909C 6.34498 -0.816237 6.34435 -0.816577 6.3437 -0.81693C 6.34239 -0.817637 6.34098 -0.818394 6.33947 -0.819202C 6.33646 -0.820817 6.33305 -0.822633 6.32926 -0.824638C 6.32167 -0.828648 6.31252 -0.833425 6.30187 -0.83888C 6.2806 -0.849778 6.25323 -0.863451 6.2203 -0.879184C 6.15468 -0.910534 6.06564 -0.950718 5.95763 -0.993689C 5.74554 -1.07808 5.44054 -1.18117 5.08312 -1.24354C 4.39437 -1.36372 3.26038 -1.36413 2.36906 -0.447342L 4.23325 1.36506C 4.26451 1.33291 4.34304 1.26661 4.63618 1.31776C 4.76971 1.34106 4.89799 1.38294 4.99644 1.42211C 5.04371 1.44092 5.07926 1.45716 5.09941 1.46679C 5.10937 1.47155 5.11518 1.47451 5.11636 1.47512C 5.11695 1.47541 5.11634 1.47511 5.1145 1.47413C 5.11357 1.47365 5.11234 1.47299 5.11077 1.47215C 5.10999 1.47173 5.10913 1.47127 5.10819 1.47076C 5.10772 1.47051 5.10723 1.47024 5.10671 1.46996C 5.10646 1.46982 5.10606 1.46961 5.10593 1.46954C 5.10552 1.46932 5.10511 1.46909 5.72622 0.327063ZM 2.38192 -0.460379L -0.069501 1.99104L 1.76898 3.82951L 4.22039 1.3781L 2.38192 -0.460379ZM 0.849738 2.91028C -0.245094 2.20932 -0.245604 2.21011 -0.246124 2.21093C -0.246312 2.21122 -0.246843 2.21206 -0.247218 2.21265C -0.247969 2.21383 -0.248761 2.21507 -0.249594 2.21639C -0.251261 2.21903 -0.253092 2.22194 -0.255084 2.22513C -0.259068 2.23152 -0.263692 2.23901 -0.268917 2.2476C -0.279366 2.26479 -0.292222 2.2864 -0.307163 2.31238C -0.337039 2.36432 -0.375292 2.43381 -0.419322 2.52041C -0.507349 2.69356 -0.618738 2.93566 -0.73246 3.24328C -0.960049 3.85891 -1.1971 4.73735 -1.27417 5.84834C -1.42975 8.09093 -0.926672 11.1807 1.44307 14.8685L 3.6304 13.4629C 1.54541 10.2183 1.20499 7.68028 1.3196 6.02828C 1.37761 5.19197 1.55408 4.5564 1.70623 4.14483C 1.78238 3.93885 1.85242 3.78907 1.89835 3.69872C 1.9213 3.65358 1.93816 3.62342 1.94665 3.60866C 1.95089 3.60128 1.95303 3.59777 1.95278 3.59817C 1.95266 3.59838 1.95194 3.59956 1.95058 3.60174C 1.9499 3.60282 1.94907 3.60416 1.94807 3.60574C 1.94757 3.60653 1.94702 3.60739 1.94644 3.6083C 1.94615 3.60876 1.94568 3.60949 1.94554 3.60972C 1.94506 3.61047 1.94457 3.61124 0.849738 2.91028ZM 2.53673 14.1657C 1.38534 14.7693 1.38545 14.7695 1.38557 14.7697C 1.38562 14.7698 1.38575 14.7701 1.38585 14.7703C 1.38604 14.7706 1.38626 14.771 1.38651 14.7715C 1.38701 14.7725 1.38762 14.7736 1.38833 14.775C 1.38975 14.7777 1.39159 14.7811 1.39386 14.7854C 1.39839 14.7939 1.4046 14.8056 1.4125 14.8202C 1.42829 14.8495 1.45079 14.8908 1.47994 14.9433C 1.53822 15.0482 1.62314 15.1979 1.73408 15.3855C 1.95583 15.7605 2.28232 16.288 2.70881 16.9123C 3.55957 18.1575 4.81964 19.8046 6.45316 21.3966L 8.26782 19.5346C 6.79094 18.0953 5.63913 16.5924 4.85562 15.4456C 4.46497 14.8738 4.16872 14.3947 3.97202 14.0621C 3.87373 13.8959 3.80049 13.7666 3.75292 13.6809C 3.72914 13.6381 3.7118 13.6062 3.70097 13.5861C 3.69556 13.5761 3.69178 13.569 3.68963 13.565C 3.68856 13.563 3.6879 13.5617 3.68765 13.5612C 3.68752 13.561 3.6875 13.561 3.68758 13.5611C 3.68762 13.5612 3.68769 13.5613 3.68778 13.5615C 3.68783 13.5616 3.68791 13.5617 3.68794 13.5618C 3.68803 13.562 3.68813 13.5622 2.53673 14.1657Z" transform="translate(20403.9 -12247.7)" fill="#353535"></path>
                </g>
            </g>
        </g>
    </g>
</svg>