<svg width="16" height="25" viewBox="0 0 16 25" version="1.1" xmlns="http://www.w3.org/2000/svg" xmlns:xlink="http://www.w3.org/1999/xlink">
    <title>Arrow</title>
    <desc>Created using Figma</desc>
    <g id="Canvas" transform="translate(15884 19216)">
        <g id="Arrow">
            <path d="M 24.2297 0.707107C 24.6202 0.316583 24.6202 -0.316583 24.2297 -0.707107L 17.8657 -7.07107C 17.4752 -7.46159 16.842 -7.46159 16.4515 -7.07107C 16.061 -6.68054 16.061 -6.04738 16.4515 -5.65685L 22.1083 0L 16.4515 5.65685C 16.061 6.04738 16.061 6.68054 16.4515 7.07107C 16.842 7.46159 17.4752 7.46159 17.8657 7.07107L 24.2297 0.707107ZM 0 1L 23.5226 1L 23.5226 -1L 0 -1L 0 1Z" transform="matrix(4.37114e-08 -1 1 4.37114e-08 -15876 -19191)" fill="#353535"></path>
        </g>
    </g>
</svg>