<svg width="16" height="9" viewBox="0 0 16 9" version="1.1" xmlns="http://www.w3.org/2000/svg" xmlns:xlink="http://www.w3.org/1999/xlink">
    <title>Vector</title>
    <desc>Created using Figma</desc>
    <g id="Canvas" transform="translate(16274 14319)">
        <g id="Vector">
            <path d="M 3.86013 7.18331C 5.7186 9.09274 7.82676 8.9676 7.82676 8.9676L 8.78465 8.9676C 8.78465 8.9676 9.07529 8.93531 9.22266 8.77787C 9.35774 8.63254 9.35365 8.36207 9.35365 8.36207C 9.35365 8.36207 9.33318 7.09854 9.93084 6.90881C 10.5162 6.72715 11.2735 8.13197 12.0718 8.67291C 12.6776 9.08063 13.1361 8.99182 13.1361 8.99182L 15.2688 8.96356C 15.2688 8.96356 16.3863 8.89494 15.8583 8.03105C 15.8132 7.95839 15.5512 7.38919 14.27 6.21851C 12.9314 4.99131 13.1115 5.18911 14.7244 3.06977C 15.7068 1.77797 16.0998 0.990789 15.977 0.651694C 15.8583 0.328746 15.1378 0.41352 15.1378 0.41352L 12.7308 0.429668C 12.7308 0.429668 12.5507 0.405447 12.4197 0.482147C 12.2887 0.558847 12.2068 0.736468 12.2068 0.736468C 12.2068 0.736468 11.8261 1.73761 11.3185 2.58534C 10.246 4.3777 9.82031 4.47459 9.64429 4.36156C 9.23903 4.1032 9.33728 3.32005 9.33728 2.76297C 9.33728 1.02308 9.60335 0.300489 8.8174 0.110757C 8.55541 0.050204 8.36302 0.00579864 7.69577 0.00176179C 6.83613 -0.00631191 6.11158 0.00579863 5.69813 0.203604C 5.42386 0.33682 5.21509 0.63151 5.34199 0.647657C 5.50164 0.667842 5.86187 0.744542 6.05017 0.998863C 6.29578 1.32988 6.2876 2.07266 6.2876 2.07266C 6.2876 2.07266 6.43087 4.11935 5.95602 4.37367C 5.63263 4.54725 5.18644 4.19201 4.23265 2.56516C 3.74142 1.73357 3.37301 0.809131 3.37301 0.809131C 3.37301 0.809131 3.30342 0.635547 3.17652 0.546736C 3.02096 0.433705 2.8081 0.40141 2.8081 0.40141L 0.52391 0.417557C 0.52391 0.417557 0.180054 0.425631 0.0531544 0.574994C -0.0614643 0.700136 0.0449674 0.970605 0.0449674 0.970605C 0.0449674 0.970605 1.83384 5.1003 3.86013 7.18331Z" transform="translate(-16274 -14319)" fill="#353535"></path>
        </g>
    </g>
</svg>