<svg width="20" height="11" viewBox="0 0 20 11" version="1.1" xmlns="http://www.w3.org/2000/svg" xmlns:xlink="http://www.w3.org/1999/xlink">
    <title>Vector</title>
    <desc>Created using Figma</desc>
    <g id="Canvas" transform="translate(-25851 9767)">
        <g id="Vector">
            <path d="M 4.6458 8.45096C 6.88253 10.6973 9.41978 10.5501 9.41978 10.5501L 10.5726 10.5501C 10.5726 10.5501 10.9224 10.5121 11.0998 10.3269C 11.2624 10.1559 11.2574 9.83773 11.2574 9.83773C 11.2574 9.83773 11.2328 8.35122 11.9521 8.12801C 12.6566 7.91429 13.5681 9.56703 14.5288 10.2034C 15.2579 10.6831 15.8097 10.5786 15.8097 10.5786L 18.3765 10.5454C 18.3765 10.5454 19.7215 10.4646 19.086 9.4483C 19.0318 9.36281 18.7165 8.69317 17.1744 7.31589C 15.5634 5.87212 15.7801 6.10484 17.7213 3.61149C 18.9037 2.09174 19.3766 1.16563 19.2288 0.766699C 19.086 0.386761 18.2189 0.486494 18.2189 0.486494L 15.322 0.505491C 15.322 0.505491 15.1052 0.476996 14.9475 0.567231C 14.7899 0.657467 14.6913 0.866433 14.6913 0.866433C 14.6913 0.866433 14.2332 2.04424 13.6223 3.04158C 12.3315 5.15024 11.8191 5.26422 11.6072 5.13124C 11.1195 4.82729 11.2377 3.90594 11.2377 3.25055C 11.2377 1.20363 11.558 0.353516 10.612 0.130302C 10.2967 0.0590635 10.0652 0.00682192 9.26212 0.00207269C 8.22752 -0.00742577 7.35549 0.00682191 6.85789 0.239534C 6.5278 0.396259 6.27654 0.742953 6.42927 0.76195C 6.62141 0.785696 7.05496 0.875932 7.28159 1.17513C 7.57719 1.56457 7.56734 2.43843 7.56734 2.43843C 7.56734 2.43843 7.73977 4.84629 7.16828 5.14549C 6.77907 5.34971 6.24206 4.93178 5.09413 3.01784C 4.50293 2.03949 4.05953 0.951919 4.05953 0.951919C 4.05953 0.951919 3.97577 0.747702 3.82305 0.643219C 3.63583 0.510241 3.37964 0.472247 3.37964 0.472247L 0.630544 0.491244C 0.630544 0.491244 0.216701 0.500742 0.0639732 0.676464C -0.0739744 0.82369 0.0541198 1.14189 0.0541198 1.14189C 0.0541198 1.14189 2.20709 6.00035 4.6458 8.45096Z" transform="translate(25851 -9767)" fill="#353535"></path>
        </g>
    </g>
</svg>