<svg width="181" height="12" viewBox="0 0 181 12" version="1.1" xmlns="http://www.w3.org/2000/svg" xmlns:xlink="http://www.w3.org/1999/xlink">
    <title>Vector</title>
    <desc>Created using Figma</desc>
    <g id="Canvas" transform="translate(17277 17992)">
        <g id="Vector">
            <path d="M 99.3 12C 93.7 12 90.8 9.6 88.3 7.5C 86 5.6 84 4 79.8 4C 75.6 4 73.7 5.6 71.3 7.5C 68.8 9.6 65.9 12 60.3 12C 54.7 12 51.8 9.6 49.3 7.5C 47.1 5.6 45.1 4 40.9 4C 36.8 4 34.8 5.6 32.4 7.5C 29.9 9.6 27 12 21.5 12C 15.9 12 13 9.6 10.5 7.5C 8.1 5.6 6.1 4 2 4C 0.9 4 0 3.1 0 2C 0 0.9 0.9 0 2 0C 7.6 0 10.5 2.4 13 4.5C 15.3 6.4 17.3 8 21.5 8C 25.6 8 27.6 6.4 30 4.5C 32.5 2.4 35.4 0 41 0C 46.6 0 49.5 2.4 52 4.5C 54.2 6.4 56.2 8 60.4 8C 64.6 8 66.5 6.4 68.9 4.5C 71.4 2.4 74.3 0 79.9 0C 85.5 0 88.4 2.4 90.9 4.5C 93.2 6.4 95.1 8 99.3 8C 100.4 8 101.3 8.9 101.3 10C 101.3 11.1 100.4 12 99.3 12Z" transform="translate(-17277 -17992)" fill="#F5F5F5"></path>
            <path d="M 177.9 12C 172.3 12 169.4 9.6 166.9 7.5C 164.6 5.6 162.6 4 158.4 4C 154.2 4 152.3 5.6 149.9 7.5C 147.4 9.6 144.5 12 138.9 12C 133.3 12 130.4 9.6 127.9 7.5C 125.6 5.6 123.6 4 119.4 4C 115.3 4 113.3 5.6 110.9 7.5C 108.4 9.6 105.5 12 99.8996 12C 94.2996 12 91.3996 9.6 88.8996 7.5C 86.7996 5.6 84.7996 4 80.5996 4C 79.4996 4 78.5996 3.1 78.5996 2C 78.5996 0.9 79.4996 0 80.5996 0C 86.1996 0 89.0996 2.4 91.5996 4.5C 93.8996 6.4 95.8996 8 100.1 8C 104.2 8 106.2 6.4 108.6 4.5C 111.1 2.4 114 0 119.6 0C 125.2 0 128.1 2.4 130.6 4.5C 132.9 6.4 134.9 8 139.1 8C 143.3 8 145.2 6.4 147.6 4.5C 150.1 2.4 153 0 158.6 0C 164.2 0 167.1 2.4 169.6 4.5C 171.9 6.4 173.9 8 178.1 8C 179.2 8 180.1 8.9 180.1 10C 180.1 11.1 179 12 177.9 12Z" transform="translate(-17277 -17992)" fill="#F5F5F5"></path>
        </g>
    </g>
</svg>