<svg width="41" height="6" viewBox="0 0 41 6" version="1.1" xmlns="http://www.w3.org/2000/svg" xmlns:xlink="http://www.w3.org/1999/xlink">
    <title>Vector (Stroke)</title>
    <desc>Created using Figma</desc>
    <g id="Canvas" transform="translate(17327 18982)">
        <g id="Vector (Stroke)">
            <path fill-rule="evenodd" d="M 0 1C 0 0.447715 0.447715 0 1 0C 3.37237 0 4.60594 1.26561 5.58235 2.26738C 5.5936 2.27892 5.60482 2.29043 5.616 2.3019C 6.58422 3.29494 7.29971 4 8.8 4C 10.3003 4 11.0158 3.29494 11.984 2.3019C 11.9952 2.29043 12.0064 2.27892 12.0176 2.26738C 12.9941 1.26561 14.2276 0 16.6 0C 18.9724 0 20.2059 1.26561 21.1823 2.26738L 21.216 2.3019C 22.1842 3.29494 22.8997 4 24.4 4C 25.9003 4 26.6158 3.29494 27.584 2.3019L 27.6177 2.26738C 28.5941 1.26561 29.8276 0 32.2 0C 34.5724 0 35.8059 1.26561 36.7824 2.26738L 36.816 2.3019C 37.7842 3.29494 38.4997 4 40 4C 40.5523 4 41 4.44772 41 5C 41 5.55228 40.5523 6 40 6C 37.6276 6 36.3941 4.73439 35.4176 3.73262L 35.384 3.6981C 34.4158 2.70506 33.7003 2 32.2 2C 30.6997 2 29.9842 2.70506 29.016 3.6981L 28.9823 3.73262C 28.0059 4.73439 26.7724 6 24.4 6C 22.0276 6 20.7941 4.73439 19.8176 3.73262L 19.784 3.6981C 18.8158 2.70506 18.1003 2 16.6 2C 15.0997 2 14.3842 2.70506 13.416 3.6981L 13.3824 3.73262C 12.4059 4.73439 11.1724 6 8.8 6C 6.42763 6 5.19406 4.73439 4.21765 3.73262C 4.2064 3.72108 4.19518 3.70957 4.184 3.6981C 3.21578 2.70506 2.50029 2 1 2C 0.447715 2 0 1.55228 0 1Z" transform="translate(-17327 -18982)" fill="#F0C2BB"></path>
        </g>
    </g>
</svg>