<svg width="109" height="8" viewBox="0 0 109 8" version="1.1" xmlns="http://www.w3.org/2000/svg" xmlns:xlink="http://www.w3.org/1999/xlink">
    <title>Group</title>
    <desc>Created using Figma</desc>
    <g id="Canvas" transform="translate(16658 20209)">
        <g id="Group">
            <g id="Vector">
                <path d="M 60.0983 8C 56.709 8 54.9539 6.4 53.4409 5C 52.0489 3.73333 50.8384 2.66667 48.2965 2.66667C 45.7546 2.66667 44.6047 3.73333 43.1521 5C 41.6391 6.4 39.884 8 36.4947 8C 33.1055 8 31.3504 6.4 29.8373 5C 28.5058 3.73333 27.2954 2.66667 24.7535 2.66667C 22.2721 2.66667 21.0616 3.73333 19.6091 5C 18.0961 6.4 16.3409 8 13.0122 8C 9.62299 8 7.86785 6.4 6.3548 5C 4.90228 3.73333 3.69184 2.66667 1.21044 2.66667C 0.544697 2.66667 0 2.06667 0 1.33333C 0 0.6 0.544697 0 1.21044 0C 4.59967 0 6.3548 1.6 7.86785 3C 9.25986 4.26667 10.4703 5.33333 13.0122 5.33333C 15.4936 5.33333 16.7041 4.26667 18.1566 3C 19.6696 1.6 21.4248 0 24.814 0C 28.2032 0 29.9584 1.6 31.4714 3C 32.8029 4.26667 34.0133 5.33333 36.5552 5.33333C 39.0972 5.33333 40.2471 4.26667 41.6996 3C 43.2127 1.6 44.9678 0 48.357 0C 51.7463 0 53.5014 1.6 55.0144 3C 56.4064 4.26667 57.5564 5.33333 60.0983 5.33333C 60.764 5.33333 61.3087 5.93333 61.3087 6.66667C 61.3087 7.4 60.764 8 60.0983 8Z" transform="translate(-16658 -20209)" fill="#9E9E9E"></path>
            </g>
            <g id="Vector">
                <path d="M 60.0983 8C 56.709 8 54.9539 6.4 53.4409 5C 52.0489 3.73333 50.8384 2.66667 48.2965 2.66667C 45.7546 2.66667 44.6047 3.73333 43.1521 5C 41.6391 6.4 39.8839 8 36.4947 8C 33.1055 8 31.3504 6.4 29.8373 5C 28.4453 3.73333 27.2349 2.66667 24.6929 2.66667C 22.2115 2.66667 21.0011 3.73333 19.5486 5C 18.0355 6.4 16.2804 8 12.8912 8C 9.50194 8 7.74681 6.4 6.23376 5C 4.9628 3.73333 3.75236 2.66667 1.21044 2.66667C 0.544696 2.66667 -9.23491e-07 2.06667 -9.23491e-07 1.33333C -9.23491e-07 0.6 0.544696 0 1.21044 0C 4.59967 0 6.3548 1.6 7.86785 3C 9.25985 4.26667 10.4703 5.33333 13.0122 5.33333C 15.4936 5.33333 16.7041 4.26667 18.1566 3C 19.6696 1.6 21.4248 0 24.814 0C 28.2032 0 29.9584 1.6 31.4714 3C 32.8634 4.26667 34.0739 5.33333 36.6158 5.33333C 39.1577 5.33333 40.3076 4.26667 41.7601 3C 43.2732 1.6 45.0283 0 48.4175 0C 51.8068 0 53.5619 1.6 55.075 3C 56.467 4.26667 57.6774 5.33333 60.2193 5.33333C 60.8851 5.33333 61.4298 5.93333 61.4298 6.66667C 61.4298 7.4 60.764 8 60.0983 8Z" transform="translate(-16610.4 -20209)" fill="#9E9E9E"></path>
            </g>
        </g>
    </g>
</svg>
