<svg width="12" height="494" viewBox="0 0 12 494" version="1.1" xmlns="http://www.w3.org/2000/svg" xmlns:xlink="http://www.w3.org/1999/xlink">
    <title>Group</title>
    <desc>Created using Figma</desc>
    <g id="Canvas" transform="translate(-20893 12280)">
        <g id="Group">
            <mask id="mask0_alpha" mask-type="alpha">
                <g id="Rectangle">
                    <path d="M 0 0L 493.242 0L 493.242 48.5196L 0 48.5196L 0 0Z" transform="matrix(-4.37114e-08 1 -1 -4.37114e-08 20922.3 -12280)" fill="#C4C4C4"></path>
                </g>
            </mask>
            <g id="Vector" mask="url(#mask0_alpha)">
                <path d="M 0 1.5C 8.4338 1.5 12.5774 3.40291 16.8204 5.36186C 21.2324 7.3988 25.7556 9.5 34.6555 9.5L 34.6555 6.5C 26.3895 6.5 22.3299 4.6012 18.0779 2.63814C 13.6571 0.59709 9.05588 -1.5 0 -1.5L 0 1.5ZM 34.6555 9.5C 43.7113 9.5 48.3126 7.40291 52.7334 5.36186C 56.9853 3.3988 61.045 1.5 69.3109 1.5L 69.3109 -1.5C 60.4111 -1.5 55.8878 0.601198 51.4759 2.63814C 47.2329 4.59709 43.0893 6.5 34.6555 6.5L 34.6555 9.5ZM 69.3109 1.5C 77.7447 1.5 81.8883 3.40291 86.1314 5.36186C 90.5433 7.3988 95.0665 9.5 103.966 9.5L 103.966 6.5C 95.7005 6.5 91.6408 4.6012 87.3889 2.63814C 82.968 0.59709 78.3668 -1.5 69.3109 -1.5L 69.3109 1.5ZM 103.966 9.5C 113.022 9.5 117.623 7.40291 122.044 5.36186C 126.296 3.3988 130.356 1.5 138.622 1.5L 138.622 -1.5C 129.722 -1.5 125.199 0.601198 120.787 2.63814C 116.544 4.59709 112.4 6.5 103.966 6.5L 103.966 9.5ZM 138.622 1.5C 147.056 1.5 151.199 3.40291 155.442 5.36186C 159.854 7.3988 164.377 9.5 173.277 9.5L 173.277 6.5C 165.011 6.5 160.952 4.6012 156.7 2.63814C 152.279 0.59709 147.678 -1.5 138.622 -1.5L 138.622 1.5ZM 173.277 9.5C 182.333 9.5 186.934 7.40291 191.355 5.36186C 195.607 3.3988 199.667 1.5 207.933 1.5L 207.933 -1.5C 199.033 -1.5 194.51 0.601198 190.098 2.63814C 185.855 4.59709 181.711 6.5 173.277 6.5L 173.277 9.5ZM 207.933 1.5C 216.367 1.5 220.51 3.40291 224.753 5.36186C 229.165 7.3988 233.688 9.5 242.588 9.5L 242.588 6.5C 234.322 6.5 230.263 4.6012 226.011 2.63814C 221.59 0.59709 216.989 -1.5 207.933 -1.5L 207.933 1.5ZM 242.588 9.5C 251.644 9.5 256.245 7.40291 260.666 5.36186C 264.918 3.3988 268.978 1.5 277.244 1.5L 277.244 -1.5C 268.344 -1.5 263.821 0.601198 259.409 2.63814C 255.166 4.59709 251.022 6.5 242.588 6.5L 242.588 9.5ZM 277.244 1.5C 285.677 1.5 289.821 3.40291 294.064 5.36186C 298.476 7.3988 302.999 9.5 311.899 9.5L 311.899 6.5C 303.633 6.5 299.574 4.6012 295.322 2.63814C 290.901 0.59709 286.3 -1.5 277.244 -1.5L 277.244 1.5ZM 311.899 9.5C 320.955 9.5 325.556 7.40291 329.977 5.36186C 334.229 3.3988 338.289 1.5 346.555 1.5L 346.555 -1.5C 337.655 -1.5 333.132 0.601198 328.72 2.63814C 324.477 4.59709 320.333 6.5 311.899 6.5L 311.899 9.5ZM 346.555 1.5C 354.988 1.5 359.132 3.40291 363.375 5.36186C 367.787 7.3988 372.31 9.5 381.21 9.5L 381.21 6.5C 372.944 6.5 368.884 4.6012 364.633 2.63814C 360.212 0.59709 355.611 -1.5 346.555 -1.5L 346.555 1.5ZM 381.21 9.5C 390.266 9.5 394.867 7.40291 399.288 5.36186C 403.54 3.3988 407.6 1.5 415.866 1.5L 415.866 -1.5C 406.966 -1.5 402.442 0.601198 398.031 2.63814C 393.788 4.59709 389.644 6.5 381.21 6.5L 381.21 9.5ZM 415.866 1.5C 424.299 1.5 428.443 3.40291 432.686 5.36186C 437.098 7.3988 441.621 9.5 450.521 9.5L 450.521 6.5C 442.255 6.5 438.195 4.6012 433.944 2.63814C 429.523 0.59709 424.921 -1.5 415.866 -1.5L 415.866 1.5ZM 450.521 9.5C 459.577 9.5 464.178 7.40291 468.599 5.36186C 472.851 3.3988 476.911 1.5 485.177 1.5L 485.177 -1.5C 476.277 -1.5 471.753 0.601198 467.341 2.63814C 463.098 4.59709 458.955 6.5 450.521 6.5L 450.521 9.5ZM 485.177 1.5C 493.61 1.5 497.754 3.40291 501.997 5.36186C 506.409 7.3988 510.932 9.5 519.832 9.5L 519.832 6.5C 511.566 6.5 507.506 4.6012 503.254 2.63814C 498.834 0.59709 494.232 -1.5 485.177 -1.5L 485.177 1.5ZM 519.832 9.5C 528.888 9.5 533.489 7.40291 537.91 5.36186C 542.162 3.3988 546.221 1.5 554.487 1.5L 554.487 -1.5C 545.588 -1.5 541.064 0.601198 536.652 2.63814C 532.409 4.59709 528.266 6.5 519.832 6.5L 519.832 9.5ZM 554.487 1.5C 562.921 1.5 567.065 3.40291 571.308 5.36186C 575.72 7.3988 580.243 9.5 589.143 9.5L 589.143 6.5C 580.877 6.5 576.817 4.6012 572.565 2.63814C 568.145 0.59709 563.543 -1.5 554.487 -1.5L 554.487 1.5ZM 589.143 9.5C 598.199 9.5 602.8 7.40291 607.221 5.36186C 611.473 3.3988 615.532 1.5 623.798 1.5L 623.798 -1.5C 614.898 -1.5 610.375 0.601198 605.963 2.63814C 601.72 4.59709 597.577 6.5 589.143 6.5L 589.143 9.5ZM 623.798 1.5C 632.232 1.5 636.376 3.40291 640.619 5.36186C 645.031 7.3988 649.554 9.5 658.454 9.5L 658.454 6.5C 650.188 6.5 646.128 4.6012 641.876 2.63814C 637.455 0.59709 632.854 -1.5 623.798 -1.5L 623.798 1.5ZM 658.454 9.5C 667.51 9.5 672.111 7.40291 676.532 5.36186C 680.784 3.3988 684.843 1.5 693.109 1.5L 693.109 -1.5C 684.209 -1.5 679.686 0.601198 675.274 2.63814C 671.031 4.59709 666.888 6.5 658.454 6.5L 658.454 9.5ZM 693.109 1.5C 701.543 1.5 705.687 3.40291 709.93 5.36186C 714.342 7.3988 718.865 9.5 727.765 9.5L 727.765 6.5C 719.499 6.5 715.439 4.6012 711.187 2.63814C 706.766 0.59709 702.165 -1.5 693.109 -1.5L 693.109 1.5ZM 727.765 9.5C 736.821 9.5 741.422 7.40291 745.843 5.36186C 750.095 3.3988 754.154 1.5 762.42 1.5L 762.42 -1.5C 753.52 -1.5 748.997 0.601198 744.585 2.63814C 740.342 4.59709 736.199 6.5 727.765 6.5L 727.765 9.5ZM 762.42 1.5C 770.854 1.5 774.998 3.40291 779.241 5.36186C 783.653 7.3988 788.176 9.5 797.076 9.5L 797.076 6.5C 788.81 6.5 784.75 4.6012 780.498 2.63814C 776.077 0.59709 771.476 -1.5 762.42 -1.5L 762.42 1.5ZM 797.076 9.5C 806.132 9.5 810.733 7.40291 815.154 5.36186C 819.406 3.3988 823.465 1.5 831.731 1.5L 831.731 -1.5C 822.831 -1.5 818.308 0.601198 813.896 2.63814C 809.653 4.59709 805.509 6.5 797.076 6.5L 797.076 9.5ZM 831.731 1.5C 840.165 1.5 844.309 3.40291 848.552 5.36186C 852.964 7.3988 857.487 9.5 866.387 9.5L 866.387 6.5C 858.121 6.5 854.061 4.6012 849.809 2.63814C 845.388 0.59709 840.787 -1.5 831.731 -1.5L 831.731 1.5ZM 866.387 9.5C 875.443 9.5 880.044 7.40291 884.465 5.36186C 888.716 3.3988 892.776 1.5 901.042 1.5L 901.042 -1.5C 892.142 -1.5 887.619 0.601198 883.207 2.63814C 878.964 4.59709 874.82 6.5 866.387 6.5L 866.387 9.5ZM 901.042 1.5C 909.476 1.5 913.62 3.40291 917.862 5.36186C 922.274 7.3988 926.798 9.5 935.698 9.5L 935.698 6.5C 927.432 6.5 923.372 4.6012 919.12 2.63814C 914.699 0.59709 910.098 -1.5 901.042 -1.5L 901.042 1.5ZM 935.698 9.5C 944.753 9.5 949.355 7.40291 953.775 5.36186C 958.027 3.3988 962.087 1.5 970.353 1.5L 970.353 -1.5C 961.453 -1.5 956.93 0.601198 952.518 2.63814C 948.275 4.59709 944.131 6.5 935.698 6.5L 935.698 9.5ZM 970.353 1.5C 978.787 1.5 982.93 3.40291 987.173 5.36186C 991.585 7.3988 996.109 9.5 1005.01 9.5L 1005.01 6.5C 996.742 6.5 992.683 4.6012 988.431 2.63814C 984.01 0.59709 979.409 -1.5 970.353 -1.5L 970.353 1.5ZM 1005.01 9.5C 1014.06 9.5 1018.67 7.40291 1023.09 5.36186C 1027.34 3.3988 1031.4 1.5 1039.66 1.5L 1039.66 -1.5C 1030.76 -1.5 1026.24 0.601198 1021.83 2.63814C 1017.59 4.59709 1013.44 6.5 1005.01 6.5L 1005.01 9.5ZM 1039.66 1.5C 1048.1 1.5 1052.24 3.40291 1056.48 5.36186C 1060.9 7.3988 1065.42 9.5 1074.32 9.5L 1074.32 6.5C 1066.05 6.5 1061.99 4.6012 1057.74 2.63814C 1053.32 0.59709 1048.72 -1.5 1039.66 -1.5L 1039.66 1.5ZM 1074.32 9.5C 1083.38 9.5 1087.98 7.40291 1092.4 5.36186C 1096.65 3.3988 1100.71 1.5 1108.97 1.5L 1108.97 -1.5C 1100.07 -1.5 1095.55 0.601198 1091.14 2.63814C 1086.9 4.59709 1082.75 6.5 1074.32 6.5L 1074.32 9.5ZM 1108.97 1.5C 1117.41 1.5 1121.55 3.40291 1125.8 5.36186C 1130.21 7.3988 1134.73 9.5 1143.63 9.5L 1143.63 6.5C 1135.36 6.5 1131.3 4.6012 1127.05 2.63814C 1122.63 0.59709 1118.03 -1.5 1108.97 -1.5L 1108.97 1.5ZM 1143.63 9.5C 1152.69 9.5 1157.29 7.40291 1161.71 5.36186C 1165.96 3.3988 1170.02 1.5 1178.29 1.5L 1178.29 -1.5C 1169.39 -1.5 1164.86 0.601198 1160.45 2.63814C 1156.21 4.59709 1152.06 6.5 1143.63 6.5L 1143.63 9.5ZM 1178.29 1.5C 1186.72 1.5 1190.86 3.40291 1195.11 5.36186C 1199.52 7.3988 1204.04 9.5 1212.94 9.5L 1212.94 6.5C 1204.68 6.5 1200.62 4.6012 1196.36 2.63814C 1191.94 0.59709 1187.34 -1.5 1178.29 -1.5L 1178.29 1.5ZM 1212.94 9.5C 1222 9.5 1226.6 7.40291 1231.02 5.36186C 1235.27 3.3988 1239.33 1.5 1247.6 1.5L 1247.6 -1.5C 1238.7 -1.5 1234.17 0.601198 1229.76 2.63814C 1225.52 4.59709 1221.38 6.5 1212.94 6.5L 1212.94 9.5ZM 1247.6 1.5C 1256.03 1.5 1260.17 3.40291 1264.42 5.36186C 1268.83 7.3988 1273.35 9.5 1282.25 9.5L 1282.25 6.5C 1273.99 6.5 1269.93 4.6012 1265.67 2.63814C 1261.25 0.59709 1256.65 -1.5 1247.6 -1.5L 1247.6 1.5ZM 1282.25 9.5C 1291.31 9.5 1295.91 7.40291 1300.33 5.36186C 1304.58 3.3988 1308.64 1.5 1316.91 1.5L 1316.91 -1.5C 1308.01 -1.5 1303.48 0.601198 1299.07 2.63814C 1294.83 4.59709 1290.69 6.5 1282.25 6.5L 1282.25 9.5ZM 1316.91 1.5C 1325.34 1.5 1329.49 3.40291 1333.73 5.36186C 1338.14 7.3988 1342.66 9.5 1351.56 9.5L 1351.56 6.5C 1343.3 6.5 1339.24 4.6012 1334.99 2.63814C 1330.56 0.59709 1325.96 -1.5 1316.91 -1.5L 1316.91 1.5ZM 1351.56 9.5C 1360.62 9.5 1365.22 7.40291 1369.64 5.36186C 1373.89 3.3988 1377.95 1.5 1386.22 1.5L 1386.22 -1.5C 1377.32 -1.5 1372.8 0.601198 1368.38 2.63814C 1364.14 4.59709 1360 6.5 1351.56 6.5L 1351.56 9.5ZM 1386.22 1.5C 1394.65 1.5 1398.8 3.40291 1403.04 5.36186C 1407.45 7.3988 1411.97 9.5 1420.87 9.5L 1420.87 6.5C 1412.61 6.5 1408.55 4.6012 1404.3 2.63814C 1399.88 0.59709 1395.27 -1.5 1386.22 -1.5L 1386.22 1.5ZM 1420.87 9.5C 1429.93 9.5 1434.53 7.40291 1438.95 5.36186C 1443.2 3.3988 1447.26 1.5 1455.53 1.5L 1455.53 -1.5C 1446.63 -1.5 1442.11 0.601198 1437.69 2.63814C 1433.45 4.59709 1429.31 6.5 1420.87 6.5L 1420.87 9.5ZM 1455.53 1.5C 1463.96 1.5 1468.11 3.40291 1472.35 5.36186C 1476.76 7.3988 1481.29 9.5 1490.18 9.5L 1490.18 6.5C 1481.92 6.5 1477.86 4.6012 1473.61 2.63814C 1469.19 0.59709 1464.59 -1.5 1455.53 -1.5L 1455.53 1.5ZM 1490.18 9.5C 1499.24 9.5 1503.84 7.40291 1508.26 5.36186C 1512.51 3.3988 1516.57 1.5 1524.84 1.5L 1524.84 -1.5C 1515.94 -1.5 1511.42 0.601198 1507.01 2.63814C 1502.76 4.59709 1498.62 6.5 1490.18 6.5L 1490.18 9.5ZM 1524.84 1.5C 1533.27 1.5 1537.42 3.40291 1541.66 5.36186C 1546.07 7.3988 1550.6 9.5 1559.5 9.5L 1559.5 6.5C 1551.23 6.5 1547.17 4.6012 1542.92 2.63814C 1538.5 0.59709 1533.9 -1.5 1524.84 -1.5L 1524.84 1.5ZM 1559.5 9.5C 1568.55 9.5 1573.15 7.40291 1577.57 5.36186C 1581.83 3.3988 1585.89 1.5 1594.15 1.5L 1594.15 -1.5C 1585.25 -1.5 1580.73 0.601198 1576.32 2.63814C 1572.07 4.59709 1567.93 6.5 1559.5 6.5L 1559.5 9.5ZM 1594.15 1.5C 1602.59 1.5 1606.73 3.40291 1610.97 5.36186C 1615.38 7.3988 1619.91 9.5 1628.81 9.5L 1628.81 6.5C 1620.54 6.5 1616.48 4.6012 1612.23 2.63814C 1607.81 0.59709 1603.21 -1.5 1594.15 -1.5L 1594.15 1.5ZM 1628.81 9.5C 1637.86 9.5 1642.46 7.40291 1646.88 5.36186C 1651.14 3.3988 1655.2 1.5 1663.46 1.5L 1663.46 -1.5C 1654.56 -1.5 1650.04 0.601198 1645.63 2.63814C 1641.38 4.59709 1637.24 6.5 1628.81 6.5L 1628.81 9.5ZM 1663.46 1.5C 1671.9 1.5 1676.04 3.40291 1680.28 5.36186C 1684.69 7.3988 1689.22 9.5 1698.12 9.5L 1698.12 6.5C 1689.85 6.5 1685.79 4.6012 1681.54 2.63814C 1677.12 0.59709 1672.52 -1.5 1663.46 -1.5L 1663.46 1.5ZM 1698.12 9.5C 1707.17 9.5 1711.77 7.40291 1716.2 5.36186C 1720.45 3.3988 1724.51 1.5 1732.77 1.5L 1732.77 -1.5C 1723.87 -1.5 1719.35 0.601198 1714.94 2.63814C 1710.7 4.59709 1706.55 6.5 1698.12 6.5L 1698.12 9.5ZM 1732.77 1.5C 1741.21 1.5 1745.35 3.40291 1749.59 5.36186C 1754.01 7.3988 1758.53 9.5 1767.43 9.5L 1767.43 6.5C 1759.16 6.5 1755.1 4.6012 1750.85 2.63814C 1746.43 0.59709 1741.83 -1.5 1732.77 -1.5L 1732.77 1.5ZM 1767.43 9.5C 1776.48 9.5 1781.09 7.40291 1785.51 5.36186C 1789.76 3.3988 1793.82 1.5 1802.08 1.5L 1802.08 -1.5C 1793.18 -1.5 1788.66 0.601198 1784.25 2.63814C 1780.01 4.59709 1775.86 6.5 1767.43 6.5L 1767.43 9.5ZM 1802.08 1.5C 1810.52 1.5 1814.66 3.40291 1818.9 5.36186C 1823.32 7.3988 1827.84 9.5 1836.74 9.5L 1836.74 6.5C 1828.47 6.5 1824.41 4.6012 1820.16 2.63814C 1815.74 0.59709 1811.14 -1.5 1802.08 -1.5L 1802.08 1.5ZM 1836.74 9.5C 1845.8 9.5 1850.4 7.40291 1854.82 5.36186C 1859.07 3.3988 1863.13 1.5 1871.4 1.5L 1871.4 -1.5C 1862.5 -1.5 1857.97 0.601198 1853.56 2.63814C 1849.32 4.59709 1845.17 6.5 1836.74 6.5L 1836.74 9.5ZM 1871.4 1.5C 1879.83 1.5 1883.97 3.40291 1888.22 5.36186C 1892.63 7.3988 1897.15 9.5 1906.05 9.5L 1906.05 6.5C 1897.78 6.5 1893.72 4.6012 1889.47 2.63814C 1885.05 0.59709 1880.45 -1.5 1871.4 -1.5L 1871.4 1.5ZM 1906.05 9.5C 1915.11 9.5 1919.71 7.40291 1924.13 5.36186C 1928.38 3.3988 1932.44 1.5 1940.71 1.5L 1940.71 -1.5C 1931.81 -1.5 1927.28 0.601198 1922.87 2.63814C 1918.63 4.59709 1914.48 6.5 1906.05 6.5L 1906.05 9.5ZM 1940.71 1.5C 1949.14 1.5 1953.28 3.40291 1957.53 5.36186C 1961.94 7.3988 1966.46 9.5 1975.36 9.5L 1975.36 6.5C 1967.1 6.5 1963.04 4.6012 1958.78 2.63814C 1954.36 0.59709 1949.76 -1.5 1940.71 -1.5L 1940.71 1.5ZM 1975.36 9.5C 1984.42 9.5 1989.02 7.40291 1993.44 5.36186C 1997.69 3.3988 2001.75 1.5 2010.02 1.5L 2010.02 -1.5C 2001.12 -1.5 1996.59 0.601199 1992.18 2.63814C 1987.94 4.59709 1983.8 6.5 1975.36 6.5L 1975.36 9.5ZM 2010.02 1.5C 2018.45 1.5 2022.59 3.40291 2026.84 5.36186C 2031.25 7.3988 2035.77 9.5 2044.67 9.5L 2044.67 6.5C 2036.41 6.5 2032.35 4.6012 2028.09 2.63814C 2023.67 0.59709 2019.07 -1.5 2010.02 -1.5L 2010.02 1.5ZM 2044.67 9.5C 2053.73 9.5 2058.33 7.40291 2062.75 5.36186C 2067 3.3988 2071.06 1.5 2079.33 1.5L 2079.33 -1.5C 2070.43 -1.5 2065.9 0.601198 2061.49 2.63814C 2057.25 4.59709 2053.11 6.5 2044.67 6.5L 2044.67 9.5ZM 2079.33 1.5C 2087.76 1.5 2091.91 3.40291 2096.15 5.36186C 2100.56 7.3988 2105.08 9.5 2113.98 9.5L 2113.98 6.5C 2105.72 6.5 2101.66 4.6012 2097.41 2.63814C 2092.98 0.59709 2088.38 -1.5 2079.33 -1.5L 2079.33 1.5ZM 2113.98 9.5C 2123.04 9.5 2127.64 7.40291 2132.06 5.36186C 2136.31 3.3988 2140.37 1.5 2148.64 1.5L 2148.64 -1.5C 2139.74 -1.5 2135.22 0.601198 2130.8 2.63814C 2126.56 4.59709 2122.42 6.5 2113.98 6.5L 2113.98 9.5ZM 2148.64 1.5C 2157.07 1.5 2161.22 3.40291 2165.46 5.36186C 2169.87 7.3988 2174.39 9.5 2183.29 9.5L 2183.29 6.5C 2175.03 6.5 2170.97 4.6012 2166.72 2.63814C 2162.3 0.59709 2157.69 -1.5 2148.64 -1.5L 2148.64 1.5ZM 2183.29 9.5C 2192.35 9.5 2196.95 7.40291 2201.37 5.36186C 2205.62 3.3988 2209.68 1.5 2217.95 1.5L 2217.95 -1.5C 2209.05 -1.5 2204.53 0.601198 2200.11 2.63814C 2195.87 4.59709 2191.73 6.5 2183.29 6.5L 2183.29 9.5ZM 2217.95 1.5C 2226.38 1.5 2230.53 3.40291 2234.77 5.36186C 2239.18 7.3988 2243.71 9.5 2252.61 9.5L 2252.61 6.5C 2244.34 6.5 2240.28 4.6012 2236.03 2.63814C 2231.61 0.59709 2227.01 -1.5 2217.95 -1.5L 2217.95 1.5ZM 2252.61 9.5C 2261.66 9.5 2266.26 7.40291 2270.68 5.36186C 2274.94 3.3988 2278.99 1.5 2287.26 1.5L 2287.26 -1.5C 2278.36 -1.5 2273.84 0.601198 2269.43 2.63814C 2265.18 4.59709 2261.04 6.5 2252.61 6.5L 2252.61 9.5ZM 2287.26 1.5C 2295.69 1.5 2299.84 3.40291 2304.08 5.36186C 2308.49 7.3988 2313.02 9.5 2321.92 9.5L 2321.92 6.5C 2313.65 6.5 2309.59 4.6012 2305.34 2.63814C 2300.92 0.59709 2296.32 -1.5 2287.26 -1.5L 2287.26 1.5ZM 2321.92 9.5C 2330.97 9.5 2335.57 7.40291 2339.99 5.36186C 2344.25 3.3988 2348.31 1.5 2356.57 1.5L 2356.57 -1.5C 2347.67 -1.5 2343.15 0.601199 2338.74 2.63814C 2334.49 4.59709 2330.35 6.5 2321.92 6.5L 2321.92 9.5ZM 2356.57 1.5C 2365.01 1.5 2369.15 3.40291 2373.39 5.36186C 2377.8 7.3988 2382.33 9.5 2391.23 9.5L 2391.23 6.5C 2382.96 6.5 2378.9 4.6012 2374.65 2.63814C 2370.23 0.59709 2365.63 -1.5 2356.57 -1.5L 2356.57 1.5ZM 2391.23 9.5C 2400.28 9.5 2404.88 7.40291 2409.3 5.36186C 2413.56 3.3988 2417.62 1.5 2425.88 1.5L 2425.88 -1.5C 2416.98 -1.5 2412.46 0.601198 2408.05 2.63814C 2403.8 4.59709 2399.66 6.5 2391.23 6.5L 2391.23 9.5ZM 2425.88 1.5C 2434.32 1.5 2438.46 3.40291 2442.7 5.36186C 2447.11 7.3988 2451.64 9.5 2460.54 9.5L 2460.54 6.5C 2452.27 6.5 2448.21 4.6012 2443.96 2.63814C 2439.54 0.59709 2434.94 -1.5 2425.88 -1.5L 2425.88 1.5ZM 2460.54 9.5C 2469.59 9.5 2474.2 7.40291 2478.62 5.36186C 2482.87 3.3988 2486.93 1.5 2495.19 1.5L 2495.19 -1.5C 2486.29 -1.5 2481.77 0.601198 2477.36 2.63814C 2473.12 4.59709 2468.97 6.5 2460.54 6.5L 2460.54 9.5ZM 2495.19 1.5C 2503.63 1.5 2507.77 3.40291 2512.01 5.36186C 2516.43 7.3988 2520.95 9.5 2529.85 9.5L 2529.85 6.5C 2521.58 6.5 2517.52 4.6012 2513.27 2.63814C 2508.85 0.59709 2504.25 -1.5 2495.19 -1.5L 2495.19 1.5ZM 2529.85 9.5C 2538.9 9.5 2543.51 7.40291 2547.93 5.36186C 2552.18 3.3988 2556.24 1.5 2564.5 1.5L 2564.5 -1.5C 2555.6 -1.5 2551.08 0.601198 2546.67 2.63814C 2542.43 4.59709 2538.28 6.5 2529.85 6.5L 2529.85 9.5ZM 2564.5 1.5C 2572.94 1.5 2577.08 3.40291 2581.32 5.36186C 2585.74 7.3988 2590.26 9.5 2599.16 9.5L 2599.16 6.5C 2590.89 6.5 2586.83 4.6012 2582.58 2.63814C 2578.16 0.59709 2573.56 -1.5 2564.5 -1.5L 2564.5 1.5ZM 2599.16 9.5C 2608.22 9.5 2612.82 7.40291 2617.24 5.36186C 2621.49 3.3988 2625.55 1.5 2633.82 1.5L 2633.82 -1.5C 2624.92 -1.5 2620.39 0.601198 2615.98 2.63814C 2611.74 4.59709 2607.59 6.5 2599.16 6.5L 2599.16 9.5ZM 2633.82 1.5C 2642.25 1.5 2646.39 3.40291 2650.64 5.36186C 2655.05 7.3988 2659.57 9.5 2668.47 9.5L 2668.47 6.5C 2660.2 6.5 2656.15 4.6012 2651.89 2.63814C 2647.47 0.59709 2642.87 -1.5 2633.82 -1.5L 2633.82 1.5ZM 2668.47 9.5C 2677.53 9.5 2682.13 7.40291 2686.55 5.36186C 2690.8 3.3988 2694.86 1.5 2703.13 1.5L 2703.13 -1.5C 2694.23 -1.5 2689.7 0.601199 2685.29 2.63814C 2681.05 4.59709 2676.9 6.5 2668.47 6.5L 2668.47 9.5ZM 2703.13 1.5C 2711.56 1.5 2715.7 3.40291 2719.95 5.36186C 2724.36 7.3988 2728.88 9.5 2737.78 9.5L 2737.78 6.5C 2729.52 6.5 2725.46 4.6012 2721.2 2.63814C 2716.78 0.59709 2712.18 -1.5 2703.13 -1.5L 2703.13 1.5ZM 2737.78 9.5C 2746.84 9.5 2751.44 7.40291 2755.86 5.36186C 2760.11 3.3988 2764.17 1.5 2772.44 1.5L 2772.44 -1.5C 2763.54 -1.5 2759.01 0.601198 2754.6 2.63814C 2750.36 4.59709 2746.22 6.5 2737.78 6.5L 2737.78 9.5ZM 2772.44 1.5C 2780.87 1.5 2785.01 3.40291 2789.26 5.36186C 2793.67 7.3988 2798.19 9.5 2807.09 9.5L 2807.09 6.5C 2798.83 6.5 2794.77 4.6012 2790.52 2.63814C 2786.09 0.59709 2781.49 -1.5 2772.44 -1.5L 2772.44 1.5Z" transform="matrix(-4.37114e-08 1 -1 -4.37114e-08 20902.6 -12308)" fill="#F5F5F5"></path>
            </g>
        </g>
    </g>
</svg>