<svg width="41" height="41" viewBox="0 0 41 41" version="1.1" xmlns="http://www.w3.org/2000/svg" xmlns:xlink="http://www.w3.org/1999/xlink">
    <title>Group</title>
    <desc>Created using Figma</desc>
    <g id="Canvas" transform="translate(-1715 21028)">
        <g id="Group">
            <g id="Ellipse 4">
                <path d="M 40 20C 40 31.0457 31.0457 40 20 40C 8.95431 40 0 31.0457 0 20C 0 8.95431 8.95431 0 20 0C 31.0457 0 40 8.95431 40 20Z" transform="translate(1715.78 -21028)" fill="#385492"></path>
            </g>
            <g id="Vector">
                <path d="M 5.66667 3.88566L 3.7368 3.88566L 3.7368 2.6402C 3.7368 2.17247 4.05184 2.06342 4.27373 2.06342C 4.49511 2.06342 5.63561 2.06342 5.63561 2.06342L 5.63561 0.00720341L 3.76002 -2.1465e-16C 1.67794 -2.1465e-16 1.20412 1.53359 1.20412 2.51501L 1.20412 3.88566L 4.31038e-15 3.88566L 4.31038e-15 6.00447L 1.20412 6.00447C 1.20412 8.72365 1.20412 12 1.20412 12L 3.7368 12C 3.7368 12 3.7368 8.69139 3.7368 6.00447L 5.44579 6.00447L 5.66667 3.88566Z" transform="translate(1732.78 -21014)" fill="#FFFFFF"></path>
            </g>
        </g>
    </g>
</svg>