<svg width="76" height="113" viewBox="0 0 76 113" version="1.1" xmlns="http://www.w3.org/2000/svg" xmlns:xlink="http://www.w3.org/1999/xlink">
<title>Group 2.5</title>
<desc>Created using Figma</desc>
<g id="Canvas" transform="translate(16325 18703)">
<g id="Group 2.5">
<g id="Vector 2">
<use xlink:href="#path0_stroke" transform="matrix(0.96608 0.258245 -0.259395 0.965771 -16321.1 -18705)" fill="#FFFFFF"/>
</g>
<g id="Vector 2.2">
<use xlink:href="#path1_stroke" transform="matrix(0.96608 0.258245 -0.259395 0.965771 -16282.7 -18631.9)" fill="#FFFFFF"/>
</g>
<g id="Vector 2.1">
<use xlink:href="#path2_stroke" transform="matrix(0.96608 0.258245 -0.259395 0.965771 -16275.3 -18678.4)" fill="#FFFFFF"/>
</g>
</g>
</g>
<defs>
<path id="path0_stroke" d="M 0 5.50063L 0.456237 4.0717L -1.5 3.4471L -1.5 5.50063L 0 5.50063ZM 38.579 2.53391L 38.0339 1.13646L 38.0338 1.1365L 38.579 2.53391ZM 76.657 22.3121L 78.152 22.1899L 76.657 22.3121ZM 67.6385 62.3624L 68.9366 63.114L 67.6385 62.3624ZM 47.0964 67.3069L 45.8685 68.1684L 45.9087 68.2258L 45.9542 68.2792L 47.0964 67.3069ZM 40.5831 50.4955L 40.5831 48.9955L 38.7659 48.9955L 39.1103 50.7798L 40.5831 50.4955ZM 19.039 32.2007L 19.3804 30.7401L 19.039 32.2007ZM 51.1046 42.8257L 51.7967 41.4949L 51.1046 42.8257ZM 60.1563 49.0121L 59.141 50.1163L 60.1563 49.0121ZM -0.456237 6.92956C 5.52362 8.83885 21.544 10.7904 39.1242 3.93131L 38.0338 1.1365C 21.1434 7.72652 5.83296 5.78841 0.456237 4.0717L -0.456237 6.92956ZM 39.1241 3.93136C 40.9817 3.20676 49.5914 0.582207 57.9378 1.83251C 62.0755 2.45234 66.0522 4.00928 69.1402 7.12746C 72.2176 10.2349 74.5577 15.0394 75.1619 22.4342L 78.152 22.1899C 77.5037 14.2566 74.9516 8.73221 71.2718 5.01647C 67.6026 1.31145 62.9571 -0.449076 58.3823 -1.13439C 49.3036 -2.49439 40.1269 0.320044 38.0339 1.13646L 39.1241 3.93136ZM 75.1619 22.4342C 75.1607 22.4185 75.4147 27.9996 74.4234 35.727C 73.4319 43.4556 71.2102 53.2004 66.3404 61.6107L 68.9366 63.114C 74.0873 54.2185 76.3825 44.0319 77.399 36.1088C 78.4156 28.1844 78.1686 22.3933 78.152 22.1899L 75.1619 22.4342ZM 48.3244 66.4455C 46.9388 64.4703 43.6179 58.304 42.0559 50.2112L 39.1103 50.7798C 40.7549 59.3006 44.2479 65.8583 45.8685 68.1684L 48.3244 66.4455ZM 19.3804 30.7401C 12.2719 29.0786 7.82778 24.5979 5.12846 19.5857C 2.40887 14.5357 1.5 9.00299 1.5 5.50063L -1.5 5.50063C -1.5 9.41494 -0.50497 15.4522 2.48713 21.0081C 5.4995 26.6017 10.5749 31.7628 18.6976 33.6613L 19.3804 30.7401ZM 40.5831 51.9955C 41.452 51.9955 41.8605 51.3454 41.973 51.1046C 42.0907 50.8527 42.116 50.623 42.1246 50.5266C 42.1446 50.3002 42.1247 50.0768 42.1031 49.9095C 42.0562 49.546 41.9522 49.0896 41.7952 48.5752C 41.4776 47.5345 40.9052 46.1316 39.9795 44.5553C 38.1227 41.3934 34.8287 37.5084 29.282 34.4539L 27.8349 37.0818C 32.8606 39.8494 35.7798 43.3281 37.3926 46.0745C 38.2018 47.4524 38.6783 48.6397 38.9258 49.4508C 39.0514 49.8623 39.1089 50.1472 39.1277 50.2934C 39.139 50.381 39.128 50.3546 39.1363 50.2615C 39.1389 50.2317 39.1532 50.0528 39.2549 49.8349C 39.3515 49.6281 39.7393 48.9955 40.5831 48.9955L 40.5831 51.9955ZM 29.282 34.4539C 26.5472 32.9479 23.2771 31.6509 19.3804 30.7401L 18.6976 33.6613C 22.3391 34.5125 25.3506 35.7138 27.8349 37.0818L 29.282 34.4539ZM 28.3591 37.2546C 34.0905 38.0233 42.7773 40.1858 50.4126 44.1565L 51.7967 41.4949C 43.7865 37.3292 34.7496 35.0849 28.7579 34.2812L 28.3591 37.2546ZM 50.4126 44.1565C 53.6307 45.8301 56.6323 47.8096 59.141 50.1163L 61.1716 47.9079C 58.4224 45.3801 55.1866 43.2578 51.7967 41.4949L 50.4126 44.1565ZM 59.141 50.1163C 62.8724 53.5472 65.4748 57.6621 66.1526 62.5677L 69.1244 62.1571C 68.3273 56.3885 65.2712 51.6775 61.1716 47.9079L 59.141 50.1163ZM 66.3404 61.6107C 62.4656 68.3027 58.5975 70.0755 55.6158 70.0717L 55.6119 73.0717C 60.0493 73.0774 64.7497 70.345 68.9366 63.114L 66.3404 61.6107ZM 55.6158 70.0717C 52.5384 70.0678 49.8133 68.1846 48.2387 66.3347L 45.9542 68.2792C 47.8669 70.5264 51.3537 73.0663 55.6119 73.0717L 55.6158 70.0717ZM 54.1139 71.5717L 54.1139 90.5462L 57.1139 90.5462L 57.1139 71.5717L 54.1139 71.5717ZM 54.1139 90.5462L 54.1139 103.746L 57.1139 103.746L 57.1139 90.5462L 54.1139 90.5462Z"/>
<path id="path1_stroke" d="M 32.479 0L 33.9437 -0.323452L 33.2927 -3.27165L 31.3365 -0.971881L 32.479 0ZM 1.36785 31.2542C 3.91872 25.5862 6.21793 22.0599 8.42071 19.6571C 10.605 17.2745 12.7532 15.9311 15.1316 14.6989C 20.0155 12.1685 25.8208 10.1427 33.6216 0.971881L 31.3365 -0.971881C 23.9804 7.67603 18.7273 9.45716 13.7515 12.0352C 11.2001 13.3571 8.7181 14.8933 6.20935 17.6298C 3.71911 20.3462 1.26245 24.1785 -1.36785 30.0229L 1.36785 31.2542ZM 31.0143 0.323452C 31.521 2.61794 33.0009 8.4215 29.8947 14.5364C 26.8174 20.5943 18.977 27.4103 -0.275962 31.0139L 0.275962 33.9627C 19.9978 30.2713 28.8996 23.1195 32.5694 15.895C 36.2103 8.72757 34.4423 1.93444 33.9437 -0.323452L 31.0143 0.323452Z"/>
<path id="path2_stroke" d="M 1.50308 3.46117L 3.00047 3.54958L 3.00308 3.50542L 3.00308 3.46117L 1.50308 3.46117ZM 7.51538 3.46117L 6.01538 3.46117L 6.01538 3.49756L 6.01715 3.53391L 7.51538 3.46117ZM 1.49739 29.0082L 3.00047 3.54958L 0.00568638 3.37277L -1.49739 28.8314L 1.49739 29.0082ZM 3.00308 3.46117C 3.00308 3.08555 3.1117 2.51607 3.37611 2.09325C 3.59022 1.75086 3.89052 1.5 4.50922 1.5L 4.50922 -1.5C 2.723 -1.5 1.52024 -0.597138 0.832504 0.502629C 0.195065 1.52197 0.00307889 2.68308 0.00307889 3.46117L 3.00308 3.46117ZM 4.50922 1.5C 4.72313 1.5 5.11807 1.58781 5.43077 1.84704C 5.68312 2.05623 6.01538 2.4825 6.01538 3.46117L 9.01538 3.46117C 9.01538 1.67091 8.34559 0.366591 7.34538 -0.462565C 6.40551 -1.2417 5.29737 -1.5 4.50922 -1.5L 4.50922 1.5ZM 6.01715 3.53391L 7.55344 35.1789L 10.5499 35.0335L 9.01362 3.38844L 6.01715 3.53391Z"/>
</defs>
</svg>
