<svg width="151" height="144" viewBox="0 0 151 144" version="1.1" xmlns="http://www.w3.org/2000/svg" xmlns:xlink="http://www.w3.org/1999/xlink">
    <title>Group 2</title>
    <desc>Created using Figma</desc>
    <g id="Canvas" transform="translate(-20905 11616)">
        <g id="Group 2">
            <g id="Group 3.11">
                <g id="Group 2.36">
                    <g id="if_location_1585851" opacity="0.3">
                        <g id="Union">
                            <path fill-rule="evenodd" d="M 46.002 86.4268C 16.5484 80.9894 -3.78195 57.4876 0.592139 33.9337C 4.96623 10.3798 32.3889 -4.306 61.8425 1.13136C 91.2961 6.56871 111.627 30.0714 107.252 53.6244C 107.253 53.6254 109.99 81.0726 42.5855 123.39C 42.5855 123.39 40.3231 124.602 38.9593 124.35L 46.002 86.4268Z" transform="matrix(0.949315 0.314326 -0.316426 0.948617 20966 -11603.2)" fill="url(#paint0_linear)"></path>
                        </g>
                        <g id="Union">
                            <path fill-rule="evenodd" d="M 46.002 86.4268C 16.5484 80.9894 -3.78195 57.4876 0.592139 33.9337C 4.96623 10.3798 32.3889 -4.306 61.8425 1.13136C 91.2961 6.56871 111.627 30.0714 107.252 53.6244C 107.253 53.6254 109.99 81.0726 42.5855 123.39C 42.5855 123.39 40.3231 124.602 38.9593 124.35L 46.002 86.4268Z" transform="matrix(0.949315 0.314326 -0.316426 0.948617 20966 -11603.2)" fill="url(#paint1_linear)"></path>
                        </g>
                    </g>
                </g>
                <g id="Group">
                    <g id="Vector">
                        <path d="M 57.8849 0C 25.4693 0 0 24.113 0 54.8022C 0 82.2033 41.6771 124.949 49.781 133.717L 57.8849 142.486L 65.9887 133.717C 74.0926 124.949 115.77 82.2033 115.77 54.8022C 115.77 24.113 90.3004 0 57.8849 0Z" transform="translate(20905.8 -11616)" fill="#353535"></path>
                    </g>
                </g>
            </g>
            <g id="Group">
                <g id="Group">
                    <g id="Vector">
                        <path d="M 49.2829 27.8318C 49.2829 27.6465 49.2829 27.5538 49.2829 27.3684C 49.2829 27.2757 49.2829 27.0903 49.2829 26.9976C 49.1007 26.9049 49.0096 26.8122 48.9185 26.6268C 47.0966 27.183 45.8213 26.5341 45.0014 25.4218C 44.5459 24.5875 44.2726 23.6606 44.0905 22.8263C 43.4528 19.1185 44.9103 15.3181 45.8213 11.7957C 46.2768 9.94178 48.2809 4.84357 46.55 2.98968C 46.1857 2.15543 45.2747 1.59926 43.8172 1.78465C 38.1692 2.24812 34.7076 7.99519 32.1569 12.3518C 30.6082 14.9473 29.424 17.6354 27.9665 20.2309C 27.6021 20.9724 26.6911 22.6409 26.1445 22.6409C 26.1445 22.4556 26.0534 22.1775 26.0534 21.8994C 25.9624 20.4163 26.6 18.6551 26.9644 17.172C 27.6021 14.113 28.2398 11.1468 28.4219 7.99519C 28.513 6.97555 28.4219 6.0486 27.7843 5.49243C 27.6021 5.02896 27.2377 4.65818 26.6 4.3801C 23.4117 3.08237 19.6767 8.27327 18.037 10.3126C 14.8486 14.2057 12.4801 18.6551 9.56508 22.7336C 10.476 19.4893 12.3891 14.113 12.5712 13.3715C 13.3911 10.4979 14.3021 5.58513 12.3891 2.89698L 12.298 2.80429C 12.2069 2.6189 12.1158 2.5262 12.0247 2.34082C 10.9315 0.765006 9.1096 -0.16194 7.10548 0.0234491C 4.91918 0.208838 0.728768 1.50656 3.23638e-15 3.82393C 3.23638e-15 3.91662 0.0910963 3.91662 0.0910963 4.00932C 0.182192 4.10201 0.182191 4.10201 0.273287 4.19471L 0.364384 4.2874C 0.364384 4.3801 0.364383 4.3801 0.273287 4.47279C 0.273287 4.56549 0.364384 4.56549 0.364384 4.65818C 0.45548 4.75088 0.45548 4.75088 0.546576 4.84357C 0.728768 5.02896 1.09315 5.12165 1.27534 4.93626C 3.82603 3.45315 7.46987 -0.069247 10.2938 3.36045L 10.3849 3.45315C 11.7514 5.95591 11.2959 9.66369 10.7493 12.1664C 10.1117 15.1327 9.0185 18.0989 8.01645 20.9724C 7.56097 22.4556 5.92124 25.4218 6.92329 26.9049C 6.92329 26.9976 7.01439 26.9976 7.10548 26.9976C 7.19658 27.183 7.19658 27.2757 7.28768 27.4611C 7.37877 27.6465 7.74316 27.7391 7.92535 27.6465C 9.47398 27.5538 10.1117 25.6999 10.8404 24.5875C 12.298 22.2702 13.6644 20.0455 15.1219 17.8208C 16.6706 15.5035 18.2192 13.1861 20.0411 11.0541C 20.861 10.0345 21.7719 9.10752 22.6829 8.27327C 23.2295 7.71711 23.8671 7.25363 24.4137 6.88285C 25.1425 6.32669 25.598 6.32668 25.9624 6.60477C 26.2356 7.43902 26.1445 8.64405 26.1445 8.92213C 26.1445 11.6103 25.3247 14.3911 24.7781 16.9866C 24.3226 19.0259 23.3206 21.8067 23.9582 23.846C 24.0493 24.0314 24.1404 24.2167 24.3226 24.3094C 24.3226 24.3094 24.3226 24.3094 24.3226 24.4021C 24.5048 24.9583 25.4158 25.4218 25.9624 25.5145C 27.6021 25.6072 28.6041 24.4948 29.424 23.1044C 32.3391 18.377 34.161 13.0934 37.6226 8.64405C 38.4425 7.62441 43.0884 2.43351 44.9103 4.3801C 45.4569 5.58513 44.7281 7.34633 44.3637 8.55136C 43.9083 10.1272 43.4528 11.703 42.9973 13.3715C 41.9041 17.2647 40.2644 22.6409 42.9062 26.1633C 43.0884 26.4414 43.2706 26.7195 43.5439 27.0903C 44.9103 28.7588 47.0055 29.2223 49.0096 28.8515C 49.1007 28.2953 49.1918 28.0172 49.2829 27.8318Z" transform="translate(20937.9 -11573.3)" fill="#FFFFFF"></path>
                    </g>
                </g>
                <g id="Group">
                    <g id="Vector">
                        <path d="M 3.31392 1.97676L 2.71139 1.67264L 3.2386 2.28087L 5.19683 5.24601L 4.89556 6.0063L 3.59136e-08 3.95351L 0.376582 2.96513L 3.08797 4.02954L 3.6905 4.33366L 3.6905 4.25763L 3.16329 3.64939L 1.20506 0.76029L 1.50633 -5.80056e-07L 6.40189 1.97676L 6.02531 2.96513L 3.31392 1.97676Z" transform="translate(20925.9 -11576.6)" fill="#FFFFFF"></path>
                    </g>
                    <g id="Vector">
                        <path d="M 4.21771 2.50896L 3.16328 4.1816L 5.04619 5.39807L 4.51898 6.23439L 0 3.42131L 0.527214 2.50896L 2.33481 3.6494L 3.38923 1.97676L 1.58164 0.912349L 2.10886 -5.80056e-07L 6.62784 2.81308L 6.10062 3.72543L 4.21771 2.50896Z" transform="translate(20928.8 -11582.7)" fill="#FFFFFF"></path>
                    </g>
                    <g id="Vector">
                        <path d="M 3.38923 0.608233L 2.33481 1.74867L 5.57341 4.63778L 4.89556 5.39807L 1.65696 2.43293L 0.60253 3.57337L 0 3.11719L 2.71139 -2.90028e-07L 3.38923 0.608233Z" transform="translate(20932.5 -11587.9)" fill="#FFFFFF"></path>
                    </g>
                    <g id="Vector">
                        <path d="M 2.87309e-07 2.05279L 2.41012 -2.90028e-07L 3.01265 0.684262L 1.43101 2.05279L 2.18417 3.04116L 3.6905 1.8247L 4.29303 2.50896L 2.7867 3.72543L 3.61518 4.71381L 5.27214 3.34528L 5.87467 4.02954L 3.38923 6.15836L 2.87309e-07 2.05279Z" transform="translate(20937.1 -11591.8)" fill="#FFFFFF"></path>
                    </g>
                    <g id="Vector">
                        <path d="M -2.87309e-07 1.36852C 0.150632 1.21647 0.376582 1.06441 0.527214 0.912349C 0.677847 0.760291 0.979112 0.608233 1.12974 0.456175C 1.35569 0.304116 1.58164 0.228087 1.80759 0.0760291C 2.18417 -7.36399e-08 2.41012 0 2.63607 0C 2.86202 0 3.08797 0.0760293 3.38923 0.228088C 3.6905 0.380146 3.84113 0.608233 3.99176 0.912349C 4.1424 1.21647 4.29303 1.44455 4.29303 1.74867C 4.29303 1.97676 4.29303 2.28087 4.21771 2.50896C 4.1424 2.73705 3.99176 2.96514 3.84113 3.11719C 3.6905 3.26925 3.46455 3.49734 3.2386 3.57337C 3.2386 3.57337 3.16329 3.57337 3.16329 3.6494C 3.08797 3.6494 3.08797 3.72543 3.01265 3.72543C 2.93734 3.72543 2.93734 3.80146 2.86202 3.80146C 2.7867 3.80146 2.7867 3.87749 2.71139 3.87749L 3.61518 5.4741L 2.71139 6.0063L -2.87309e-07 1.36852ZM 1.73228 1.21647C 1.65696 1.2925 1.58164 1.2925 1.50633 1.36852C 1.43101 1.44455 1.35569 1.44455 1.35569 1.52058L 2.25949 3.04117L 2.33481 3.04117C 2.33481 3.04117 2.41012 3.04116 2.48544 2.96514C 2.56075 2.96514 2.56075 2.88911 2.63607 2.88911C 2.71139 2.88911 2.71139 2.81308 2.71139 2.81308C 2.86202 2.73705 2.93734 2.66102 3.01265 2.58499C 3.08797 2.50896 3.16329 2.3569 3.2386 2.28087C 3.31392 2.20484 3.31392 2.05279 3.31392 1.90073C 3.31392 1.74867 3.16328 1.59661 3.08797 1.36852C 3.01265 1.21647 2.93734 1.14044 2.7867 1.06441C 2.63607 0.988378 2.56075 0.988379 2.48544 0.988379C 2.33481 0.988379 2.25949 0.988378 2.10886 1.06441C 1.95822 1.06441 1.88291 1.14044 1.73228 1.21647Z" transform="translate(20941.9 -11594.7)" fill="#FFFFFF"></path>
                    </g>
                    <g id="Vector">
                        <path d="M 3.84113 3.34528L 2.03354 4.02954L 2.86202 6.08233L 1.88291 6.46248L -2.87309e-07 1.44455L 0.979113 1.06441L 1.73228 3.11719L 3.53987 2.43293L 2.7867 0.380146L 3.76582 -7.2507e-08L 5.64873 5.01792L 4.66961 5.39807L 3.84113 3.34528Z" transform="translate(20947.5 -11598.1)" fill="#FFFFFF"></path>
                    </g>
                    <g id="Vector">
                        <path d="M 5.74618e-07 0.608233L 3.08797 9.06338e-09L 3.2386 0.91235L 1.20506 1.36852L 1.43101 2.58499L 3.31392 2.20484L 3.46455 3.11719L 1.58164 3.49734L 1.88291 4.71381L 3.99177 4.25763L 4.1424 5.16998L 1.05443 5.85424L 5.74618e-07 0.608233Z" transform="translate(20954.2 -11599.4)" fill="#FFFFFF"></path>
                    </g>
                    <g id="Vector">
                        <path d="M 4.21771 0.912349L 2.71138 0.988378L 2.93734 5.39807L 1.88291 5.4741L 1.65696 1.06441L 0.0753151 1.14044L 0 0.228087L 4.14239 0L 4.21771 0.912349Z" transform="translate(20959.7 -11600)" fill="#FFFFFF"></path>
                    </g>
                    <g id="Vector">
                        <path d="M 0.0753152 -7.2507e-08L 1.95822 0.0760291L 1.88291 0.988378L 0 0.912349L 0.0753152 -7.2507e-08Z" transform="translate(20964.9 -11597.3)" fill="#FFFFFF"></path>
                    </g>
                    <g id="Vector">
                        <path d="M 4.5943 3.49734L 4.89556 2.50896L 4.82024 2.50896L 4.29303 3.26925L 2.7867 4.94189L 2.48544 4.86586L 1.73228 2.66102L 1.58164 1.74867L 1.50633 2.81308L 0.979112 5.4741L 5.74618e-07 5.24601L 1.12975 0L 2.03354 0.228087L 2.86202 2.88911L 2.93733 3.57337L 3.31392 3.04116L 5.12151 0.988378L 6.0253 1.21647L 4.89556 6.46247L 3.99176 6.15836L 4.5943 3.49734Z" transform="translate(20968.8 -11599.7)" fill="#FFFFFF"></path>
                    </g>
                    <g id="Vector">
                        <path d="M 3.31392 4.33366L 1.80759 3.6494L 0.979109 4.56175L 1.14923e-06 4.1816L 3.84113 -7.2507e-08L 4.51898 0.304116L 4.21771 6.0063L 3.2386 5.55013L 3.31392 4.33366ZM 2.41012 3.04117L 3.46455 3.49734L 3.53986 2.20484L 3.6905 1.36852L 3.2386 2.05279L 2.41012 3.04117Z" transform="translate(20975.4 -11596.9)" fill="#FFFFFF"></path>
                    </g>
                    <g id="Vector">
                        <path d="M 4.89556 2.43293L 3.16328 1.36852L 0.828478 5.09395L 0 4.56175L 2.7867 -1.45014e-07L 5.42277 1.67264L 4.89556 2.43293Z" transform="translate(20981.1 -11594.6)" fill="#FFFFFF"></path>
                    </g>
                    <g id="Vector">
                        <path d="M 3.16328 3.95351L 1.88291 2.88911L 0.828479 3.57337L 0 2.88911L 4.89556 -2.90028e-07L 5.4981 0.456175L 3.53987 5.85424L 2.71139 5.16998L 3.16328 3.95351ZM 2.63607 2.43293L 3.53987 3.19322L 3.99177 2.05279L 4.36835 1.2925L 3.6905 1.8247L 2.63607 2.43293Z" transform="translate(20984.1 -11591)" fill="#FFFFFF"></path>
                    </g>
                    <g id="Vector">
                        <path d="M 2.18417 2.28087L 2.78671 1.74867L 2.93734 1.90073C 2.93734 1.90073 3.01265 1.97676 3.01265 2.05279C 3.08797 2.12882 3.08797 2.12882 3.16329 2.20485C 3.2386 2.28087 3.2386 2.28087 3.31392 2.3569C 3.38923 2.43293 3.38923 2.43293 3.46455 2.43293C 3.61518 2.50896 3.76582 2.58499 3.91645 2.66102C 4.06708 2.73705 4.21772 2.66102 4.36835 2.50896C 4.51898 2.3569 4.59429 2.20485 4.59429 1.97676C 4.59429 1.8247 4.44367 1.59661 4.29303 1.44455C 4.1424 1.2925 3.99176 1.14044 3.84113 0.988379C 3.6905 0.912349 3.53987 0.836321 3.38923 0.760292L 3.84113 2.90028e-07C 3.91645 2.90028e-07 3.99177 0.0760286 4.06708 0.152058C 4.1424 0.228087 4.29303 0.304117 4.36835 0.380146C 4.44366 0.456175 4.5943 0.532204 4.74493 0.684262C 4.89556 0.760291 4.97088 0.912349 5.0462 0.988379C 5.19683 1.14044 5.34746 1.36853 5.42278 1.52058C 5.49809 1.67264 5.57341 1.90073 5.64872 2.12882C 5.64872 2.3569 5.64872 2.50896 5.57341 2.73705C 5.49809 2.88911 5.34746 3.11719 5.19683 3.26925C 4.97088 3.42131 4.74493 3.57337 4.51898 3.57337C 4.29303 3.6494 3.99177 3.57337 3.6905 3.42131C 3.84113 3.72543 3.91645 4.02955 3.91645 4.25763C 3.84113 4.56175 3.6905 4.78984 3.46455 5.01792C 3.2386 5.24601 3.01266 5.32204 2.78671 5.39807C 2.56076 5.4741 2.33481 5.4741 2.10886 5.39807C 1.88291 5.32204 1.65696 5.24601 1.43101 5.09395C 1.20506 4.94189 1.05443 4.78984 0.828477 4.56175C 0.602528 4.33366 0.451898 4.02955 0.301265 3.80146C 0.150633 3.57337 0.0753152 3.34528 -1.14924e-06 3.19322L 0.828477 2.81308C 0.828477 2.96514 0.903796 3.11719 1.05443 3.26925C 1.12974 3.49734 1.28038 3.6494 1.50633 3.87749C 1.58164 3.95352 1.65696 4.02954 1.73228 4.10557C 1.80759 4.1816 1.95823 4.25763 2.03354 4.25763C 2.10886 4.25763 2.25949 4.25763 2.3348 4.25763C 2.41012 4.25763 2.56075 4.1816 2.63607 4.10557C 2.7867 3.95352 2.86202 3.72543 2.86202 3.57337C 2.86202 3.34528 2.71139 3.04117 2.41012 2.73705C 2.41012 2.66102 2.3348 2.66102 2.3348 2.66102C 2.3348 2.66102 2.25949 2.58499 2.25949 2.50896L 2.18417 2.28087Z" transform="translate(20988.7 -11587.4)" fill="#FFFFFF"></path>
                    </g>
                    <g id="Vector">
                        <path d="M 4.06708 3.87748L 4.66961 3.57337L 3.91645 3.6494L 0.376584 3.49734L 2.29847e-06 2.81308L 4.51898 -5.80056e-07L 5.0462 0.912349L 2.63607 2.43293L 1.95823 2.73705L 1.95823 2.81308L 2.7867 2.73705L 6.25126 2.88911L 6.62784 3.57337L 2.10886 6.38645L 1.58164 5.4741L 4.06708 3.87748Z" transform="translate(20992.3 -11582.7)" fill="#FFFFFF"></path>
                    </g>
                    <g id="Vector">
                        <path d="M 3.16328 3.95352L 2.41012 2.12881L 0.376583 2.96514L 1.14924e-06 1.97676L 4.89556 -5.40219e-15L 5.27214 0.988378L 3.2386 1.8247L 3.99176 3.6494L 6.0253 2.81308L 6.40189 3.80146L 1.50633 5.77821L 1.12975 4.78983L 3.16328 3.95352Z" transform="translate(20995.3 -11576.5)" fill="#FFFFFF"></path>
                    </g>
                </g>
                <g id="Group">
                    <g id="Group">
                        <g id="Vector">
                            <path d="M 2.86202 3.57336L 2.33481 1.74867L 0.225949 2.3569L 0 1.36853L 5.04619 0L 5.27214 0.912347L 3.2386 1.52058L 3.76582 3.34528L 5.79936 2.81307L 6.10062 3.80145L 1.05443 5.16998L 0.753163 4.1816L 2.86202 3.57336Z" transform="translate(20924.6 -11552.1)" fill="#FFFFFF"></path>
                        </g>
                        <g id="Vector">
                            <path d="M 2.33481 2.81308L 1.65696 1.36852L 0.451898 1.44455L 7.18272e-08 0.532206L 5.57341 -1.16011e-06L 5.87467 0.684262L 1.88291 4.63777L 1.43101 3.6494L 2.33481 2.81308ZM 2.56075 1.21646L 3.01265 2.20484L 3.91645 1.36852L 4.5943 0.912351L 3.76582 1.14044L 2.56075 1.21646Z" transform="translate(20926.4 -11545.2)" fill="#FFFFFF"></path>
                        </g>
                        <g id="Vector">
                            <path d="M 4.97088 3.95351L 4.1424 2.66102L 0.527214 5.01792L 0 4.1816L 3.61518 1.8247L 2.7867 0.532202L 3.53987 0L 5.72404 3.42131L 4.97088 3.95351Z" transform="translate(20929.9 -11542.3)" fill="#FFFFFF"></path>
                        </g>
                        <g id="Vector">
                            <path d="M 3.01265 3.42131L 2.63607 3.95352L 3.2386 3.57337L 5.42278 2.66102L 6.10062 3.42131L 2.48544 4.78983C 2.18417 4.86586 1.95823 5.01792 1.73228 5.01792C 1.50633 5.09395 1.28038 5.09395 1.12975 5.09395C 0.979113 5.09395 0.753163 5.09395 0.677847 5.01792C 0.602531 4.94189 0.376582 4.86586 0.301265 4.71381C 0.225949 4.56175 0.0753161 4.48572 0.0753161 4.40969C -2.86187e-07 4.33366 1.43655e-07 4.1816 1.43655e-07 4.02954L 0.753164 3.6494C 0.753164 3.72543 0.828479 3.80146 0.828479 3.87749C 0.903796 3.95352 0.903796 4.02954 0.979113 4.02954C 1.12975 4.1816 1.35569 4.1816 1.73228 4.02954L 3.2386 -2.32022e-06L 4.06708 0.91235L 3.01265 3.42131Z" transform="translate(20933.1 -11537.9)" fill="#FFFFFF"></path>
                        </g>
                        <g id="Vector">
                            <path d="M 3.2386 -1.16011e-06C 3.38924 0.076028 3.61519 0.228086 3.84113 0.380145C 4.06708 0.532203 4.21772 0.68426 4.44366 0.836319C 4.66961 0.988377 4.82025 1.21647 4.97088 1.36853C 5.12151 1.59661 5.27214 1.74867 5.34746 2.05279C 5.42278 2.28088 5.42278 2.50897 5.42278 2.81308C 5.34746 3.04117 5.27214 3.34529 5.04619 3.6494C 4.82025 3.87749 4.5943 4.10558 4.36835 4.1816C 4.1424 4.25763 3.91645 4.33367 3.6905 4.33367C 3.46455 4.33367 3.2386 4.25763 3.01265 4.1816C 2.78671 4.10558 2.56076 3.95352 2.33481 3.80146L 2.25949 3.72543C 2.18417 3.72543 2.18417 3.6494 2.10886 3.6494C 2.03354 3.6494 2.03354 3.57337 1.95823 3.49734C 1.88291 3.42131 1.88291 3.42131 1.88291 3.42131L 0.753164 4.78984L 2.87309e-07 4.10558L 3.2386 -1.16011e-06ZM 3.91645 1.59661C 3.84113 1.52058 3.76582 1.44455 3.6905 1.44455C 3.61518 1.36853 3.53987 1.36853 3.53987 1.2925L 2.41012 2.58499C 2.41012 2.58499 2.41012 2.66102 2.48544 2.66102L 2.56076 2.73705L 2.63607 2.81308L 2.71139 2.88911C 2.78671 2.96514 2.93734 3.04117 3.01265 3.11719C 3.16329 3.19322 3.2386 3.19323 3.38924 3.26926C 3.53987 3.26926 3.61518 3.26926 3.76582 3.19323C 3.91645 3.1172 3.99177 3.04117 4.1424 2.88911C 4.21772 2.73705 4.29303 2.66102 4.36835 2.50896C 4.36835 2.35691 4.36835 2.28088 4.36835 2.12882C 4.36835 2.05279 4.29303 1.90073 4.21772 1.8247C 4.1424 1.74867 3.99177 1.67264 3.91645 1.59661Z" transform="translate(20937.1 -11533.4)" fill="#FFFFFF"></path>
                        </g>
                        <g id="Vector">
                            <path d="M 3.16329 4.1816L 1.80759 3.34528L 0.903796 4.10558L -5.74618e-07 3.57337L 4.36835 1.16011e-06L 5.04619 0.380147L 3.91645 5.93027L 3.01265 5.39807L 3.16329 4.1816ZM 2.48544 2.73705L 3.46455 3.34528L 3.76582 2.12881L 4.06708 1.36852L 3.38923 1.97676L 2.48544 2.73705Z" transform="translate(20941 -11529.8)" fill="#FFFFFF"></path>
                        </g>
                        <g id="Vector">
                            <path d="M 4.44366 1.67264L 3.46455 1.21647C 3.2386 1.67264 3.08797 2.05279 2.93734 2.3569C 2.7867 2.66102 2.63607 3.04116 2.41012 3.26925C 2.25949 3.57337 2.10886 3.80145 1.95822 3.95351C 1.80759 4.1816 1.65696 4.33366 1.50633 4.40969C 1.43101 4.48572 1.28038 4.56175 1.20506 4.56175C 1.12974 4.56175 0.979111 4.63778 0.903795 4.63778C 0.828479 4.63778 0.677846 4.63778 0.60253 4.63778C 0.527214 4.63778 0.451898 4.56175 0.376582 4.56175C 0.301265 4.48572 0.150632 4.48572 0.150632 4.40969C 0.0753157 4.33366 2.87309e-07 4.33366 2.87309e-07 4.25763L 0.451898 3.49734L 0.527213 3.57337C 0.527213 3.57337 0.60253 3.57337 0.60253 3.6494C 0.677846 3.6494 0.753163 3.72542 0.82848 3.6494C 0.903796 3.57337 0.979112 3.57337 1.05443 3.57337C 1.12974 3.49734 1.28038 3.34528 1.43101 3.19322C 1.58164 3.04116 1.73228 2.81307 1.88291 2.50896C 2.03354 2.20484 2.25949 1.90073 2.41012 1.44456C 2.63607 1.06441 2.7867 0.532205 3.08797 1.16011e-06L 5.94999 1.21647L 3.99176 6.08233L 3.01265 5.70218L 4.44366 1.67264Z" transform="translate(20946.5 -11527.5)" fill="#FFFFFF"></path>
                        </g>
                        <g id="Vector">
                            <path d="M 1.12975 2.32022e-06L 2.10886 0.228086L 1.65696 2.05278C 1.65696 2.05278 1.73227 2.05278 1.80759 2.05278C 1.88291 2.05278 1.95822 2.05278 1.95822 2.05278C 2.03354 2.05278 2.10886 2.05278 2.18417 2.05278C 2.25949 2.05278 2.33481 2.05278 2.41012 2.05278C 2.63607 2.12881 2.86202 2.20484 3.08797 2.28087C 3.31392 2.3569 3.46455 2.50896 3.61518 2.66102C 3.76582 2.81307 3.84113 3.04116 3.91645 3.26924C 3.99177 3.49733 3.99177 3.80144 3.91645 4.10556C 3.76582 4.71379 3.46455 5.09394 3.08797 5.32203C 2.63607 5.55011 2.10886 5.55011 1.43101 5.39806C 1.35569 5.39806 1.28038 5.32203 1.12975 5.32203C 1.05443 5.32203 0.903796 5.24599 0.753164 5.24599C 0.602531 5.16997 0.451898 5.16997 0.376582 5.09394C 0.22595 5.01791 0.150633 5.01791 5.74618e-07 4.94188L 1.12975 2.32022e-06ZM 1.65696 4.63777C 1.80759 4.63777 1.95823 4.71379 2.03354 4.71379C 2.18417 4.71379 2.25949 4.7138 2.41012 4.63777C 2.48544 4.56174 2.63607 4.48571 2.71139 4.40968C 2.7867 4.33365 2.86202 4.18159 2.86202 4.02953C 2.93734 3.87747 2.93734 3.72542 2.86202 3.57336C 2.86202 3.4213 2.7867 3.34527 2.71139 3.26924C 2.63607 3.19321 2.56076 3.11719 2.41012 3.04116C 2.25949 2.96513 2.18417 2.96513 2.03354 2.8891C 2.03354 2.8891 1.95822 2.8891 1.88291 2.8891C 1.80759 2.8891 1.80759 2.8891 1.73228 2.8891C 1.65696 2.8891 1.65696 2.8891 1.58164 2.8891C 1.50633 2.8891 1.50633 2.8891 1.50633 2.8891L 1.12975 4.40968C 1.20506 4.40968 1.28038 4.4857 1.35569 4.4857C 1.43101 4.56173 1.50633 4.63777 1.65696 4.63777Z" transform="translate(20953 -11525.7)" fill="#FFFFFF"></path>
                        </g>
                        <g id="Vector">
                            <path d="M 3.08797 3.26925L 1.20506 3.1172L 1.05443 5.32204L -1.14924e-06 5.24601L 0.37658 -2.32022e-06L 1.43101 0.0760314L 1.28038 2.20484L 3.16328 2.3569L 3.31392 0.228087L 4.36835 0.304115L 3.99176 5.55013L 2.93734 5.4741L 3.08797 3.26925Z" transform="translate(20959 -11524.6)" fill="#FFFFFF"></path>
                        </g>
                        <g id="Vector">
                            <path d="M 0.019192 2.8891C -0.0561243 2.05278 0.0945083 1.2925 0.395773 0.836322C 0.697039 0.304119 1.22425 -2.32022e-06 1.97742 -2.32022e-06C 2.354 -2.32022e-06 2.65526 2.31682e-06 2.95653 0.0760314C 3.25779 0.15206 3.48374 0.304117 3.70969 0.532205C 3.93564 0.760292 4.08627 1.06441 4.23691 1.36852C 4.38754 1.67264 4.46285 2.05279 4.46285 2.43293C 4.53817 3.26925 4.38754 4.02954 4.08627 4.48571C 3.78501 5.01792 3.25779 5.32203 2.50463 5.32203C 2.12805 5.32203 1.82678 5.32203 1.52552 5.246C 1.22425 5.16997 0.998304 5.01792 0.772355 4.78983C 0.546406 4.56174 0.395775 4.25763 0.320458 3.95351C 0.169826 3.6494 0.019192 3.26925 0.019192 2.8891ZM 1.07362 2.81308C 1.07362 3.04116 1.14894 3.34528 1.22425 3.57337C 1.29957 3.80145 1.37489 3.95351 1.4502 4.10557C 1.52552 4.25763 1.67615 4.33366 1.82678 4.40969C 1.97742 4.48571 2.12805 4.48571 2.354 4.48571C 2.73058 4.48571 2.95653 4.25763 3.18248 3.95351C 3.33311 3.6494 3.40843 3.19322 3.33311 2.50896C 3.33311 2.28087 3.25779 2.05278 3.18248 1.8247C 3.10716 1.59661 3.03184 1.44455 2.95653 1.2925C 2.88121 1.14044 2.73058 0.988379 2.57995 0.91235C 2.42931 0.836321 2.27868 0.836322 2.05273 0.836322C 1.67615 0.836322 1.4502 1.06441 1.22425 1.36852C 1.07362 1.67264 0.998305 2.12881 1.07362 2.81308Z" transform="translate(20965.4 -11524.6)" fill="#FFFFFF"></path>
                        </g>
                        <g id="Vector">
                            <path d="M 3.16328 0.912349L 1.20506 1.44456L 2.25949 5.62616L 1.28037 5.85424L 1.14923e-06 0.760293L 2.93733 1.16011e-06L 3.16328 0.912349Z" transform="translate(20971.2 -11526)" fill="#FFFFFF"></path>
                        </g>
                        <g id="Vector">
                            <path d="M 0.334737 3.6494C 0.0334716 2.81308 -0.117158 2.12882 0.108791 1.52058C 0.259424 0.912351 0.711321 0.532202 1.31385 0.228085C 1.69043 0.0760268 1.9917 1.16011e-06 2.29297 1.16011e-06C 2.59423 1.16011e-06 2.8955 0.0760268 3.12144 0.228085C 3.34739 0.380143 3.64866 0.608233 3.79929 0.836321C 4.02524 1.14044 4.17587 1.44456 4.3265 1.8247C 4.62777 2.66102 4.77841 3.34528 4.55246 3.95351C 4.40182 4.56175 3.94992 4.9419 3.34739 5.24601C 2.97081 5.39807 2.66955 5.4741 2.36828 5.4741C 2.06702 5.4741 1.76575 5.39807 1.5398 5.24601C 1.31385 5.09396 1.01259 4.86587 0.861955 4.63778C 0.636006 4.33366 0.48537 4.02954 0.334737 3.6494ZM 1.31385 3.19322C 1.38917 3.42131 1.5398 3.6494 1.69043 3.87749C 1.84107 4.10557 1.9917 4.1816 2.06701 4.33366C 2.21765 4.40969 2.36828 4.48572 2.51891 4.56175C 2.66954 4.56175 2.8955 4.56175 3.04613 4.48572C 3.34739 4.33366 3.57334 4.10558 3.64866 3.72543C 3.72397 3.42131 3.64866 2.88911 3.42271 2.3569C 3.34739 2.12882 3.19676 1.90073 3.12144 1.74867C 2.97081 1.59661 2.8955 1.44455 2.74486 1.29249C 2.59423 1.14044 2.4436 1.06441 2.29297 1.06441C 2.14233 1.06441 1.91638 1.06441 1.76575 1.14044C 1.46448 1.2925 1.23854 1.52058 1.16322 1.90073C 1.01259 2.20485 1.0879 2.66102 1.31385 3.19322Z" transform="translate(20976 -11527.5)" fill="#FFFFFF"></path>
                        </g>
                        <g id="Vector">
                            <path d="M 3.2386 7.6029L 2.29847e-06 3.49734L 0.828481 2.81307L 3.53987 6.23438L 4.51898 5.47409L 1.80759 2.12881L 2.63607 1.44455L 5.34746 4.78983L 6.32657 4.02954L 3.61518 0.684264L 4.44366 1.16011e-06L 7.68227 4.10557L 3.2386 7.6029Z" transform="translate(20983.6 -11534)" fill="#FFFFFF"></path>
                        </g>
                        <g id="Vector">
                            <path d="M -2.29847e-06 2.3569L 2.03354 1.16011e-06L 2.71139 0.60823L 1.35569 2.20484L 2.25949 3.04116L 3.46456 1.59661L 4.1424 2.20484L 2.93734 3.64939L 3.91645 4.48572L 5.27214 2.8891L 5.94999 3.49734L 3.91645 5.85424L -2.29847e-06 2.3569Z" transform="translate(20989.2 -11537.8)" fill="#FFFFFF"></path>
                        </g>
                        <g id="Vector">
                            <path d="M 1.73228 1.36852L 1.12975 2.28087C 1.50633 2.58499 1.88291 2.81308 2.18418 3.04116C 2.48544 3.26925 2.78671 3.49734 3.01266 3.72543C 3.23861 3.95351 3.46456 4.10557 3.61519 4.33366C 3.76582 4.48572 3.91646 4.71381 3.99177 4.86586C 4.06709 5.01792 4.06709 5.09395 4.1424 5.24601C 4.1424 5.39807 4.1424 5.4741 4.1424 5.55013C 4.1424 5.62616 4.14241 5.77822 4.06709 5.85425C 4.06709 5.93027 3.99177 6.0063 3.91645 6.08233C 3.84114 6.15836 3.76582 6.23439 3.76582 6.31042C 3.76582 6.38645 3.61519 6.38645 3.61519 6.46247L 2.93734 5.93027L 3.01266 5.85425L 3.08797 5.77822C 3.16329 5.70219 3.16329 5.62616 3.16329 5.55013C 3.16329 5.4741 3.16329 5.39807 3.08797 5.24601C 3.01266 5.09395 2.93734 5.01792 2.78671 4.78984C 2.63607 4.63778 2.41013 4.40969 2.18418 4.25763C 1.95823 4.02955 1.58164 3.80146 1.28038 3.57337C 0.979111 3.34528 0.451899 3.04116 2.14062e-14 2.66102L 1.65696 -2.32023e-06L 6.10063 2.81308L 5.57342 3.6494L 1.73228 1.36852Z" transform="translate(20992.8 -11542.5)" fill="#FFFFFF"></path>
                        </g>
                        <g id="Vector">
                            <path d="M 3.2386 3.57337L 3.16328 3.80145L 5.19682 4.63778L 4.82024 5.55013L 2.29847e-06 3.49734L 0.376584 2.58499L 2.48544 3.49734L 2.48544 3.26925L 0.979111 1.06441L 1.43101 -2.32022e-06L 2.86202 2.28087L 2.93733 2.73705L 3.38924 2.43293L 6.32657 1.74867L 5.87467 2.88911L 3.2386 3.57337Z" transform="translate(20995.3 -11547.8)" fill="#FFFFFF"></path>
                        </g>
                        <g id="Vector">
                            <path d="M 4.21771 1.21647L 3.84113 2.81308L 4.89556 3.49734L 4.66961 4.48572L 1.14924e-06 1.36852L 0.150631 0.608234L 5.72404 1.16011e-06L 5.49809 1.06441L 4.21771 1.21647ZM 3.08797 2.3569L 3.38923 1.29249L 2.18418 1.36852L 1.35569 1.29249L 2.10885 1.67264L 3.08797 2.3569Z" transform="translate(20997.6 -11552.2)" fill="#FFFFFF"></path>
                        </g>
                    </g>
                </g>
            </g>
        </g>
    </g>
    <defs>
        <linearGradient id="paint0_linear" x1="0" y1="0" x2="1" y2="0" gradientUnits="userSpaceOnUse" gradientTransform="matrix(6.60357e-15 124.384 -107.845 7.61634e-15 107.845 -7.61634e-15)">
            <stop offset="0.232044" stop-color="#353535" stop-opacity="0"></stop>
            <stop offset="1" stop-color="#353535"></stop>
        </linearGradient>
        <linearGradient id="paint1_linear" x1="0" y1="0" x2="1" y2="0" gradientUnits="userSpaceOnUse" gradientTransform="matrix(6.60357e-15 124.384 -107.845 7.61634e-15 107.845 -7.61634e-15)">
            <stop offset="0.232044" stop-color="#353535" stop-opacity="0"></stop>
            <stop offset="1" stop-color="#353535"></stop>
        </linearGradient>
    </defs>
</svg>