<svg width="135" height="439" viewBox="0 0 135 439" version="1.1" xmlns="http://www.w3.org/2000/svg" xmlns:xlink="http://www.w3.org/1999/xlink">
<title>Group 13</title>
<desc>Created using Figma</desc>
<g id="Canvas" transform="translate(13643 5480)">
<g id="Group 13">
<g id="Vector">
<use xlink:href="#path0_stroke" transform="matrix(-1 0 0 1 -13559.3 -5323.43)" fill="#B5BEC2" fill-opacity="0.3"/>
</g>
<g id="Group 3.7" opacity="0.2">
<g id="Rectangle">
<mask id="mask0_outline_ins">
<use xlink:href="#path1_fill" fill="white" transform="matrix(0.873918 0.48465 -0.487313 0.872452 -13627.3 -5479.22)"/>
</mask>
<g mask="url(#mask0_outline_ins)">
<use xlink:href="#path2_stroke_2x" transform="matrix(0.873918 0.48465 -0.487313 0.872452 -13627.3 -5479.22)" fill="#B1BABE"/>
</g>
</g>
<g id="Vector">
<use xlink:href="#path3_stroke" transform="matrix(0.873917 0.484653 -0.48731 0.872453 -13625.3 -5474.51)" fill="#B1BABE"/>
</g>
</g>
</g>
</g>
<defs>
<path id="path0_stroke" d="M 35.9769 100.181L 37.0256 101.253L 35.9769 100.181ZM 52.3806 0C 51.2523 0.988356 51.2522 0.988281 51.2522 0.988207C 51.2521 0.988186 51.2521 0.988114 51.252 0.988071C 51.252 0.987983 51.2519 0.987904 51.2518 0.987833C 51.2517 0.987691 51.2516 0.987581 51.2515 0.987502C 51.2514 0.987346 51.2514 0.987318 51.2515 0.987418C 51.2516 0.987617 51.2523 0.988329 51.2533 0.989551C 51.2554 0.991995 51.2593 0.996482 51.2649 1.003C 51.2761 1.01603 51.2942 1.03719 51.3189 1.06639C 51.3682 1.12477 51.4437 1.21528 51.5428 1.33721C 51.7409 1.58109 52.0332 1.95051 52.3983 2.43981L 54.8027 0.645613C 54.4116 0.121498 54.0939 -0.280442 53.8711 -0.554565C 53.7598 -0.691637 53.6721 -0.796788 53.6109 -0.869312C 53.5802 -0.905575 53.5562 -0.933685 53.5391 -0.953554C 53.5306 -0.963489 53.5238 -0.971364 53.5187 -0.977168C 53.5162 -0.980069 53.5141 -0.982454 53.5125 -0.984319C 53.5117 -0.985252 53.511 -0.986054 53.5104 -0.986727C 53.5101 -0.987064 53.5098 -0.987368 53.5096 -0.987639C 53.5095 -0.987775 53.5094 -0.987903 53.5093 -0.988022C 53.5092 -0.988082 53.5091 -0.988165 53.5091 -0.988195C 53.509 -0.988277 53.509 -0.988356 52.3806 0ZM 54.6078 5.6607C 55.2302 6.64155 55.9036 7.76736 56.5963 9.02966L 59.2263 7.5864C 58.5011 6.26489 57.7951 5.08439 57.1409 4.05342L 54.6078 5.6607ZM 58.376 12.52C 58.9058 13.6413 59.4312 14.8359 59.9387 16.1L 62.7228 14.9825C 62.192 13.6604 61.6426 12.4111 61.0884 11.2383L 58.376 12.52ZM 61.288 19.7779C 61.6889 20.982 62.0669 22.2356 62.4132 23.5365L 65.3122 22.7648C 64.9496 21.4025 64.5539 20.0902 64.1344 18.8302L 61.288 19.7779ZM 63.2997 27.3352C 63.5505 28.5833 63.7689 29.8679 63.9486 31.1872L 66.9211 30.7822C 66.7327 29.3989 66.5037 28.0523 66.241 26.7444L 63.2997 27.3352ZM 64.3531 35.0743C 64.4448 36.3484 64.4987 37.6506 64.5096 38.9798L 67.5095 38.9551C 67.4981 37.5611 67.4416 36.1951 67.3453 34.8588L 64.3531 35.0743ZM 64.4177 42.8873C 64.3472 44.1635 64.2358 45.4619 64.0797 46.7814L 67.0589 47.1339C 67.2225 45.7515 67.3392 44.3908 67.4131 43.0527L 64.4177 42.8873ZM 63.5011 50.648C 63.2733 51.9064 63.0038 53.1823 62.6894 54.475L 65.6044 55.184C 65.9329 53.8333 66.2148 52.4991 66.4531 51.1823L 63.5011 50.648ZM 61.6541 58.2526C 61.2799 59.4794 60.8645 60.7201 60.4052 61.974L 63.2222 63.0058C 63.7003 61.7003 64.1333 60.4074 64.5236 59.1277L 61.6541 58.2526ZM 58.9529 65.6357C 58.4497 66.8139 57.9072 68.003 57.3233 69.2023L 60.0205 70.5156C 60.626 69.2721 61.1891 68.0381 61.7119 66.814L 58.9529 65.6357ZM 55.5261 72.6829C 54.9094 73.8125 54.2555 74.9507 53.5626 76.0969L 56.13 77.6488C 56.8453 76.4654 57.5213 75.2891 58.1593 74.1203L 55.5261 72.6829ZM 51.4375 79.4511C 50.7299 80.5186 49.9882 81.5927 49.211 82.6729L 51.6461 84.425C 52.4455 83.314 53.2091 82.2084 53.9381 81.1085L 51.4375 79.4511ZM 46.849 85.832C 46.0487 86.8634 45.2156 87.9001 44.3487 88.9417L 46.6546 90.8608C 47.5431 89.7933 48.3976 88.7299 49.2192 87.6711L 46.849 85.832ZM 41.7982 91.9092C 40.9334 92.8844 40.0386 93.8636 39.1129 94.8467L 41.297 96.9033C 42.2429 95.8989 43.1578 94.8976 44.0428 93.8997L 41.7982 91.9092ZM 36.3665 97.6826C 35.8944 98.1569 35.415 98.6321 34.9282 99.108L 37.0256 101.253C 37.5219 100.768 38.011 100.283 38.4927 99.799L 36.3665 97.6826ZM 34.9282 99.108C 34.416 99.6089 33.9097 100.108 33.4093 100.606L 35.525 102.733C 36.0192 102.241 36.5194 101.748 37.0256 101.253L 34.9282 99.108ZM 30.4779 103.573C 29.5243 104.556 28.5941 105.533 27.6871 106.503L 29.8787 108.552C 30.7727 107.595 31.6901 106.632 32.631 105.662L 30.4779 103.573ZM 25.035 109.396C 24.1739 110.354 23.3357 111.306 22.52 112.252L 24.792 114.211C 25.5939 113.281 26.4186 112.344 27.2663 111.401L 25.035 109.396ZM 19.8451 115.43C 18.9575 116.512 18.0998 117.586 17.2717 118.651L 19.6405 120.492C 20.4519 119.448 21.293 118.395 22.1643 117.333L 19.8451 115.43ZM 14.8753 121.825C 14.1057 122.875 13.3652 123.917 12.6533 124.952L 15.1247 126.652C 15.8192 125.643 16.5425 124.625 17.2949 123.598L 14.8753 121.825ZM 10.3664 128.403C 9.61346 129.584 8.89857 130.756 8.22106 131.918L 10.8125 133.429C 11.4697 132.303 12.1641 131.164 12.8966 130.014L 10.3664 128.403ZM 6.30004 135.373C 5.67232 136.561 5.08437 137.738 4.5355 138.905L 7.25014 140.182C 7.77861 139.059 8.34576 137.923 8.95248 136.775L 6.30004 135.373ZM 2.85279 142.748C 2.33932 144.017 1.87297 145.272 1.45284 146.516L 4.29496 147.476C 4.69566 146.29 5.14144 145.09 5.63356 143.874L 2.85279 142.748ZM 0.299619 150.322C -0.0685452 151.699 -0.378808 153.059 -0.632464 154.405L 2.31558 154.96C 2.55494 153.691 2.84839 152.404 3.19773 151.098L 0.299619 150.322ZM -1.22486 158.393C -1.3737 159.773 -1.4615 161.136 -1.48984 162.481L 1.50949 162.545C 1.53598 161.287 1.6181 160.01 1.75785 158.715L -1.22486 158.393ZM -1.38811 166.611C -1.29113 167.974 -1.13163 169.318 -0.911658 170.643L 2.04783 170.152C 1.84319 168.919 1.69468 167.668 1.60433 166.398L -1.38811 166.611ZM -0.0391035 174.687C 0.314595 176.014 0.730227 177.32 1.20528 178.606L 4.0193 177.566C 3.57611 176.367 3.18892 175.149 2.85973 173.914L -0.0391035 174.687ZM 2.79131 182.369C 3.37495 183.6 4.01399 184.81 4.70588 186L 7.29948 184.493C 6.64831 183.372 6.04851 182.236 5.50189 181.084L 2.79131 182.369ZM 6.90122 189.459C 7.65996 190.559 8.46469 191.642 9.3132 192.707L 11.6597 190.838C 10.8526 189.825 10.0892 188.798 9.37129 187.756L 6.90122 189.459ZM 11.9881 195.851C 12.875 196.83 13.7996 197.793 14.7601 198.742L 16.868 196.607C 15.9454 195.696 15.0592 194.772 14.211 193.836L 11.9881 195.851ZM 17.7168 201.516C 18.7247 202.415 19.7653 203.301 20.8371 204.174L 22.7311 201.847C 21.6931 201.002 20.6872 200.146 19.7148 199.278L 17.7168 201.516ZM 23.966 206.618C 25.036 207.421 26.1327 208.212 27.2548 208.992L 28.9667 206.528C 27.8733 205.768 26.8061 204.998 25.7664 204.218L 23.966 206.618ZM 30.6243 211.251C 31.7246 211.963 32.8461 212.665 33.9879 213.358L 35.5442 210.793C 34.4263 210.115 33.3294 209.428 32.2545 208.732L 30.6243 211.251ZM 37.4727 215.408C 38.6343 216.071 39.8143 216.725 41.0119 217.37L 42.4345 214.729C 41.2577 214.095 40.099 213.453 38.9596 212.802L 37.4727 215.408ZM 44.5202 219.209C 45.7053 219.815 46.9058 220.412 48.1207 221.002L 49.4305 218.303C 48.2333 217.722 47.0511 217.133 45.8848 216.538L 44.5202 219.209ZM 51.788 222.738C 52.9763 223.288 54.1771 223.83 55.3894 224.366L 56.6018 221.621C 55.4044 221.092 54.2191 220.557 53.0466 220.015L 51.788 222.738ZM 59.0605 225.952C 60.2952 226.475 61.5408 226.991 62.7964 227.5L 63.9242 224.72C 62.6818 224.216 61.4499 223.706 60.2293 223.19L 59.0605 225.952ZM 66.4907 228.969C 67.7217 229.45 68.9614 229.924 70.209 230.393L 71.2639 227.584C 70.0277 227.12 68.7998 226.65 67.5808 226.174L 66.4907 228.969ZM 73.9749 231.781C 75.2278 232.235 76.4878 232.684 77.7542 233.127L 78.7448 230.295C 77.4885 229.855 76.2389 229.411 74.9966 228.961L 73.9749 231.781ZM 81.5098 234.419C 82.7674 234.844 84.0305 235.265 85.2986 235.681L 86.2331 232.83C 84.9739 232.417 83.7198 232 82.4716 231.577L 81.5098 234.419ZM 89.1166 236.913C 90.38 237.315 91.6476 237.712 92.9187 238.105L 93.8038 235.238C 92.5404 234.848 91.2808 234.453 90.0255 234.054L 89.1166 236.913ZM 96.7304 239.265C 98.004 239.647 99.2805 240.025 100.559 240.399L 101.401 237.52C 100.129 237.148 98.8595 236.772 97.5931 236.392L 96.7304 239.265ZM 104.398 241.507C 105.677 241.871 106.957 242.231 108.238 242.587L 109.041 239.696C 107.766 239.342 106.492 238.984 105.22 238.621L 104.398 241.507ZM 112.083 243.643C 113.365 243.991 114.647 244.335 115.929 244.675L 116.699 241.776C 115.422 241.437 114.145 241.094 112.869 240.748L 112.083 243.643ZM 119.791 245.69C 121.082 246.026 122.372 246.357 123.66 246.686L 124.401 243.778C 123.117 243.451 121.832 243.121 120.546 242.787L 119.791 245.69ZM 127.519 247.659C 128.804 247.981 130.086 248.298 131.366 248.613L 132.081 245.699C 130.806 245.386 129.527 245.069 128.247 244.749L 127.519 247.659ZM 135.268 249.564C 136.565 249.877 137.859 250.187 139.147 250.494L 139.842 247.576C 138.557 247.27 137.266 246.96 135.973 246.648L 135.268 249.564ZM 143 251.405C 144.301 251.711 145.597 252.013 146.886 252.313L 147.565 249.39C 146.277 249.092 144.984 248.79 143.686 248.485L 143 251.405ZM 150.795 253.215C 152.091 253.513 153.38 253.807 154.661 254.099L 155.327 251.174C 154.047 250.882 152.76 250.588 151.466 250.291L 150.795 253.215ZM 158.503 254.97C 159.828 255.27 161.142 255.566 162.447 255.859L 163.105 252.932C 161.801 252.639 160.488 252.343 159.165 252.044L 158.503 254.97ZM 166.328 256.731C 167.611 257.018 168.883 257.303 170.143 257.586L 170.799 254.658C 169.539 254.376 168.268 254.091 166.985 253.803L 166.328 256.731ZM 174.096 258.473C 175.408 258.767 176.706 259.059 177.987 259.349L 178.648 256.423C 177.365 256.133 176.067 255.841 174.754 255.546L 174.096 258.473ZM 181.784 260.21C 183.122 260.515 184.44 260.817 185.739 261.116L 186.413 258.193C 185.112 257.893 183.79 257.59 182.45 257.285L 181.784 260.21ZM 189.615 262.019C 190.89 262.318 192.143 262.615 193.372 262.911L 194.072 259.994C 192.838 259.697 191.581 259.399 190.301 259.098L 189.615 262.019ZM 197.355 263.882C 198.652 264.203 199.917 264.522 201.15 264.839L 201.897 261.934C 200.655 261.614 199.381 261.293 198.076 260.97L 197.355 263.882ZM 205 265.853C 206.326 266.211 207.605 266.567 208.835 266.922L 209.665 264.039C 208.417 263.679 207.122 263.319 205.783 262.957L 205 265.853ZM 212.566 268.039C 213.904 268.457 215.167 268.872 216.35 269.286L 217.341 266.455C 216.121 266.028 214.825 265.601 213.46 265.175L 212.566 268.039ZM 220.005 270.665C 221.267 271.183 222.386 271.696 223.357 272.205L 224.748 269.547C 223.676 268.986 222.47 268.434 221.144 267.89L 220.005 270.665ZM 226.433 274.208C 227.517 275.159 227.756 275.859 227.729 276.336L 230.725 276.501C 230.824 274.697 229.809 273.18 228.412 271.953L 226.433 274.208ZM 226.294 278.501C 225.862 278.88 225.326 279.28 224.674 279.7L 226.296 282.223C 227.045 281.741 227.706 281.253 228.273 280.756L 226.294 278.501Z"/>
<path id="path1_fill" d="M 0 0L 136.403 0L 136.403 95.672L 0 95.672L 0 0Z"/>
<path id="path2_stroke_2x" d="M 0 0L 0 -4L -4 -4L -4 0L 0 0ZM 136.403 0L 140.403 0L 140.403 -4L 136.403 -4L 136.403 0ZM 136.403 95.672L 136.403 99.672L 140.403 99.672L 140.403 95.672L 136.403 95.672ZM 0 95.672L -4 95.672L -4 99.672L 0 99.672L 0 95.672ZM 0 4L 136.403 4L 136.403 -4L 0 -4L 0 4ZM 132.403 0L 132.403 95.672L 140.403 95.672L 140.403 0L 132.403 0ZM 136.403 91.672L 0 91.672L 0 99.672L 136.403 99.672L 136.403 91.672ZM 4 95.672L 4 0L -4 0L -4 95.672L 4 95.672Z"/>
<path id="path3_stroke" d="M 64.1731 48.0926L 62.9737 49.693L 64.1744 50.5928L 65.3741 49.6919L 64.1731 48.0926ZM -1.19941 1.60045L 62.9737 49.693L 65.3725 46.4921L 1.19941 -1.60045L -1.19941 1.60045ZM 65.3741 49.6919L 127.936 2.71041L 125.534 -0.488108L 62.9722 46.4933L 65.3741 49.6919Z"/>
</defs>
</svg>
