<svg width="41" height="41" viewBox="0 0 41 41" version="1.1" xmlns="http://www.w3.org/2000/svg" xmlns:xlink="http://www.w3.org/1999/xlink">
    <title>Odnoklassniki</title>
    <desc>Created using Figma</desc>
    <g id="Canvas" transform="translate(-1865 21028)">
        <g id="Odnoklassniki">
            <g id="Ellipse 4">
                <path d="M 40 20C 40 31.0457 31.0457 40 20 40C 8.9543 40 0 31.0457 0 20C 0 8.9543 8.9543 0 20 0C 31.0457 0 40 8.9543 40 20Z" transform="translate(1865.78 -21028)" fill="#EE8208"></path>
            </g>
            <g id="Vector">
                <path d="M 4.99955 7.49704C 5.74114 7.49704 6.46608 7.27719 7.08269 6.8653C 7.6993 6.4534 8.17989 5.86797 8.46368 5.18301C 8.74748 4.49806 8.82173 3.74436 8.67706 3.01722C 8.53238 2.29008 8.17527 1.62216 7.65088 1.09792C 7.1265 0.573677 6.45839 0.216666 5.73105 0.0720284C 5.00371 -0.072609 4.2498 0.00162417 3.56466 0.285341C 2.87952 0.569057 2.29392 1.04951 1.88191 1.66595C 1.46991 2.28239 1.25 3.00713 1.25 3.74852C 1.25 4.74269 1.64504 5.69614 2.34822 6.39912C 3.0514 7.1021 4.00511 7.49704 4.99955 7.49704ZM 4.99955 1.87426C 5.37035 1.87426 5.73282 1.98418 6.04112 2.19013C 6.34943 2.39608 6.58972 2.6888 6.73162 3.03127C 6.87352 3.37375 6.91064 3.7506 6.8383 4.11417C 6.76596 4.47774 6.58741 4.8117 6.32522 5.07382C 6.06303 5.33594 5.72897 5.51445 5.3653 5.58676C 5.00163 5.65908 4.62468 5.62197 4.2821 5.48011C 3.93953 5.33825 3.64674 5.09802 3.44073 4.7898C 3.23473 4.48158 3.12478 4.11921 3.12478 3.74852C 3.12478 3.25143 3.3223 2.77471 3.67388 2.42322C 4.02547 2.07173 4.50233 1.87426 4.99955 1.87426Z" transform="translate(1880.78 -21015.5)" fill="#FFFFFF"></path>
                <path d="M 9.24949 9.69565C 9.47958 9.54461 9.66855 9.33882 9.79944 9.09674C 9.93033 8.85466 9.99904 8.58388 9.9994 8.3087C 10.0046 8.1432 9.97584 7.9784 9.91487 7.82445C 9.8539 7.6705 9.76202 7.53067 9.64491 7.41359C 9.5278 7.29651 9.38793 7.20466 9.23394 7.1437C 9.07994 7.08275 8.91509 7.05399 8.74955 7.05919C 8.47626 7.05963 8.21065 7.14961 7.99339 7.31534C 7.12276 7.96582 6.06502 8.3173 4.97813 8.3173C 3.89123 8.3173 2.83349 7.96582 1.96286 7.31534C 1.75388 7.16951 1.5053 7.09103 1.25045 7.09043C 1.08491 7.08523 0.920056 7.11399 0.766063 7.17494C 0.612071 7.23589 0.472204 7.32774 0.355091 7.44482C 0.237978 7.5619 0.146103 7.70173 0.0851336 7.85568C 0.0241646 8.00963 -0.00460546 8.17444 0.000598675 8.33994C 0.000962122 8.61512 0.0696723 8.8859 0.200561 9.12798C 0.33145 9.37005 0.52042 9.57585 0.750509 9.72689C 1.35746 10.1148 2.01589 10.4155 2.70652 10.6203L 3.10648 10.7327L 1.05672 12.7444C 0.932774 12.867 0.834375 13.013 0.76722 13.1738C 0.700064 13.3347 0.665486 13.5073 0.665486 13.6816C 0.665486 13.8559 0.700064 14.0285 0.76722 14.1893C 0.834375 14.3502 0.932774 14.4961 1.05672 14.6187C 1.30759 14.8629 1.64393 14.9996 1.99411 14.9996C 2.34429 14.9996 2.68063 14.8629 2.9315 14.6187L 5 12.4508L 7.081 14.6062C 7.32961 14.8547 7.6668 14.9944 8.01839 14.9944C 8.36998 14.9944 8.70717 14.8547 8.95578 14.6062C 9.20439 14.3577 9.34406 14.0206 9.34406 13.6691C 9.34406 13.3176 9.20439 12.9805 8.95578 12.7319L 6.87478 10.739L 7.28098 10.6265C 7.97804 10.4113 8.64087 10.0978 9.24949 9.69565Z" transform="translate(1880.78 -21015.5)" fill="#FFFFFF"></path>
            </g>
        </g>
    </g>
</svg>