<svg width="438" height="11" viewBox="0 0 438 11" version="1.1" xmlns="http://www.w3.org/2000/svg" xmlns:xlink="http://www.w3.org/1999/xlink">
<title>Group</title>
<desc>Created using Figma</desc>
<g id="Canvas" transform="translate(130 15328)">
<g id="Group">
<g id="Group">
<mask id="mask0_alpha" mask-type="alpha">
<g id="Rectangle">
<use xlink:href="#path0_fill" transform="translate(-131 -15335)" fill="#C4C4C4"/>
</g>
</mask>
<g id="Vector" mask="url(#mask0_alpha)">
<use xlink:href="#path1_stroke" transform="translate(-130 -15326)" fill="#F1F1F1"/>
</g>
</g>
</g>
</g>
<defs>
<path id="path0_fill" d="M 0 0L 439 0L 439 29L 0 29L 0 0Z"/>
<path id="path1_stroke" d="M 0 1.5C 4.79913 1.5 7.11766 3.04788 9.66795 4.74808C 12.3677 6.54788 15.2991 8.5 21 8.5L 21 5.5C 16.2009 5.5 13.8823 3.95212 11.3321 2.25192C 8.63234 0.452118 5.70087 -1.5 0 -1.5L 0 1.5ZM 21 8.5C 26.7009 8.5 29.6323 6.54788 32.3321 4.74808C 34.8823 3.04788 37.2009 1.5 42 1.5L 42 -1.5C 36.2991 -1.5 33.3677 0.452118 30.668 2.25192C 28.1177 3.95212 25.7991 5.5 21 5.5L 21 8.5ZM 42 1.5C 46.7991 1.5 49.1177 3.04788 51.668 4.74808C 54.3677 6.54788 57.2991 8.5 63 8.5L 63 5.5C 58.2009 5.5 55.8823 3.95212 53.3321 2.25192C 50.6323 0.452118 47.7009 -1.5 42 -1.5L 42 1.5ZM 63 8.5C 68.7009 8.5 71.6323 6.54788 74.3321 4.74808C 76.8823 3.04788 79.2009 1.5 84 1.5L 84 -1.5C 78.2991 -1.5 75.3677 0.452118 72.668 2.25192C 70.1177 3.95212 67.7991 5.5 63 5.5L 63 8.5ZM 84 1.5C 88.7991 1.5 91.1177 3.04788 93.668 4.74808C 96.3677 6.54788 99.2991 8.5 105 8.5L 105 5.5C 100.201 5.5 97.8823 3.95212 95.3321 2.25192C 92.6323 0.452118 89.7009 -1.5 84 -1.5L 84 1.5ZM 105 8.5C 110.701 8.5 113.632 6.54788 116.332 4.74808C 118.882 3.04788 121.201 1.5 126 1.5L 126 -1.5C 120.299 -1.5 117.368 0.452118 114.668 2.25192C 112.118 3.95212 109.799 5.5 105 5.5L 105 8.5ZM 126 1.5C 130.799 1.5 133.118 3.04788 135.668 4.74808C 138.368 6.54788 141.299 8.5 147 8.5L 147 5.5C 142.201 5.5 139.882 3.95212 137.332 2.25192C 134.632 0.452119 131.701 -1.5 126 -1.5L 126 1.5ZM 147 8.5C 152.701 8.5 155.632 6.54788 158.332 4.74808C 160.882 3.04788 163.201 1.5 168 1.5L 168 -1.5C 162.299 -1.5 159.368 0.452118 156.668 2.25192C 154.118 3.95212 151.799 5.5 147 5.5L 147 8.5ZM 168 1.5C 172.799 1.5 175.118 3.04788 177.668 4.74808C 180.368 6.54788 183.299 8.5 189 8.5L 189 5.5C 184.201 5.5 181.882 3.95212 179.332 2.25192C 176.632 0.452119 173.701 -1.5 168 -1.5L 168 1.5ZM 189 8.5C 194.701 8.5 197.632 6.54788 200.332 4.74808C 202.882 3.04788 205.201 1.5 210 1.5L 210 -1.5C 204.299 -1.5 201.368 0.452118 198.668 2.25192C 196.118 3.95212 193.799 5.5 189 5.5L 189 8.5ZM 210 1.5C 214.799 1.5 217.118 3.04788 219.668 4.74808C 222.368 6.54788 225.299 8.5 231 8.5L 231 5.5C 226.201 5.5 223.882 3.95212 221.332 2.25192C 218.632 0.452118 215.701 -1.5 210 -1.5L 210 1.5ZM 231 8.5C 236.701 8.5 239.632 6.54788 242.332 4.74808C 244.882 3.04788 247.201 1.5 252 1.5L 252 -1.5C 246.299 -1.5 243.368 0.452118 240.668 2.25192C 238.118 3.95212 235.799 5.5 231 5.5L 231 8.5ZM 252 1.5C 256.799 1.5 259.118 3.04788 261.668 4.74807C 264.368 6.54788 267.299 8.5 273 8.5L 273 5.5C 268.201 5.5 265.882 3.95212 263.332 2.25193C 260.632 0.452119 257.701 -1.5 252 -1.5L 252 1.5ZM 273 8.5C 278.701 8.5 281.632 6.54788 284.332 4.74808C 286.882 3.04788 289.201 1.5 294 1.5L 294 -1.5C 288.299 -1.5 285.368 0.452118 282.668 2.25192C 280.118 3.95212 277.799 5.5 273 5.5L 273 8.5ZM 294 1.5C 298.799 1.5 301.118 3.04788 303.668 4.74808C 306.368 6.54788 309.299 8.5 315 8.5L 315 5.5C 310.201 5.5 307.882 3.95212 305.332 2.25192C 302.632 0.452118 299.701 -1.5 294 -1.5L 294 1.5ZM 315 8.5C 320.701 8.5 323.632 6.54788 326.332 4.74808C 328.882 3.04788 331.201 1.5 336 1.5L 336 -1.5C 330.299 -1.5 327.368 0.452118 324.668 2.25192C 322.118 3.95212 319.799 5.5 315 5.5L 315 8.5ZM 336 1.5C 340.799 1.5 343.118 3.04788 345.668 4.74808C 348.368 6.54788 351.299 8.5 357 8.5L 357 5.5C 352.201 5.5 349.882 3.95212 347.332 2.25192C 344.632 0.452118 341.701 -1.5 336 -1.5L 336 1.5ZM 357 8.5C 362.701 8.5 365.632 6.54788 368.332 4.74807C 370.882 3.04788 373.201 1.5 378 1.5L 378 -1.5C 372.299 -1.5 369.368 0.452119 366.668 2.25193C 364.118 3.95212 361.799 5.5 357 5.5L 357 8.5ZM 378 1.5C 382.799 1.5 385.118 3.04788 387.668 4.74808C 390.368 6.54788 393.299 8.5 399 8.5L 399 5.5C 394.201 5.5 391.882 3.95212 389.332 2.25192C 386.632 0.452118 383.701 -1.5 378 -1.5L 378 1.5ZM 399 8.5C 404.701 8.5 407.632 6.54788 410.332 4.74808C 412.882 3.04788 415.201 1.5 420 1.5L 420 -1.5C 414.299 -1.5 411.368 0.452118 408.668 2.25192C 406.118 3.95212 403.799 5.5 399 5.5L 399 8.5ZM 420 1.5C 424.799 1.5 427.118 3.04788 429.668 4.74808C 432.368 6.54788 435.299 8.5 441 8.5L 441 5.5C 436.201 5.5 433.882 3.95212 431.332 2.25192C 428.632 0.452118 425.701 -1.5 420 -1.5L 420 1.5ZM 441 8.5C 446.701 8.5 449.632 6.54788 452.332 4.74808C 454.882 3.04788 457.201 1.5 462 1.5L 462 -1.5C 456.299 -1.5 453.368 0.452118 450.668 2.25192C 448.118 3.95212 445.799 5.5 441 5.5L 441 8.5ZM 462 1.5C 466.799 1.5 469.118 3.04788 471.668 4.74807C 474.368 6.54788 477.299 8.5 483 8.5L 483 5.5C 478.201 5.5 475.882 3.95212 473.332 2.25193C 470.632 0.452119 467.701 -1.5 462 -1.5L 462 1.5ZM 483 8.5C 488.701 8.5 491.632 6.54788 494.332 4.74808C 496.882 3.04788 499.201 1.5 504 1.5L 504 -1.5C 498.299 -1.5 495.368 0.452118 492.668 2.25192C 490.118 3.95212 487.799 5.5 483 5.5L 483 8.5ZM 504 1.5C 508.799 1.5 511.118 3.04788 513.668 4.74807C 516.368 6.54788 519.299 8.5 525 8.5L 525 5.5C 520.201 5.5 517.882 3.95212 515.332 2.25193C 512.632 0.452119 509.701 -1.5 504 -1.5L 504 1.5ZM 525 8.5C 530.701 8.5 533.632 6.54788 536.332 4.74807C 538.882 3.04788 541.201 1.5 546 1.5L 546 -1.5C 540.299 -1.5 537.368 0.452119 534.668 2.25193C 532.118 3.95212 529.799 5.5 525 5.5L 525 8.5ZM 546 1.5C 550.799 1.5 553.118 3.04788 555.668 4.74808C 558.368 6.54788 561.299 8.5 567 8.5L 567 5.5C 562.201 5.5 559.882 3.95212 557.332 2.25192C 554.632 0.452118 551.701 -1.5 546 -1.5L 546 1.5ZM 567 8.5C 572.701 8.5 575.632 6.54788 578.332 4.74807C 580.882 3.04788 583.201 1.5 588 1.5L 588 -1.5C 582.299 -1.5 579.368 0.452119 576.668 2.25193C 574.118 3.95212 571.799 5.5 567 5.5L 567 8.5Z"/>
</defs>
</svg>
