<svg width="41" height="41" viewBox="0 0 41 41" version="1.1" xmlns="http://www.w3.org/2000/svg" xmlns:xlink="http://www.w3.org/1999/xlink">
    <title>vk</title>
    <desc>Created using Figma</desc>
    <g id="Canvas" transform="translate(-1765 21028)">
        <g id="vk">
            <g id="Ellipse 4">
                <path d="M 40 20C 40 31.0457 31.0457 40 20 40C 8.95431 40 0 31.0457 0 20C 0 8.95431 8.95431 0 20 0C 31.0457 0 40 8.95431 40 20Z" transform="translate(1765.78 -21028)" fill="#344E70"></path>
            </g>
            <g id="Vector">
                <path d="M 3.75961 6.76077C 5.56967 8.55788 7.62294 8.44009 7.62294 8.44009L 8.55588 8.44009C 8.55588 8.44009 8.83895 8.4097 8.98248 8.26152C 9.11405 8.12475 9.11006 7.87019 9.11006 7.87019C 9.11006 7.87019 9.09013 6.68098 9.67222 6.50241C 10.2424 6.33144 10.9799 7.65362 11.7574 8.16274C 12.3474 8.54648 12.794 8.46289 12.794 8.46289L 14.8712 8.4363C 14.8712 8.4363 15.9596 8.37171 15.4453 7.55864C 15.4014 7.49025 15.1463 6.95454 13.8984 5.85271C 12.5946 4.6977 12.7701 4.88387 14.3409 2.88919C 15.2978 1.67339 15.6805 0.932508 15.5609 0.613359C 15.4453 0.309408 14.7436 0.389196 14.7436 0.389196L 12.3993 0.404393C 12.3993 0.404393 12.2239 0.381597 12.0963 0.453785C 11.9687 0.525973 11.889 0.693146 11.889 0.693146C 11.889 0.693146 11.5182 1.63539 11.0238 2.43327C 9.97921 4.12019 9.56457 4.21138 9.39314 4.105C 8.99843 3.86183 9.09412 3.12475 9.09412 2.60044C 9.09412 0.962903 9.35327 0.282813 8.58778 0.104242C 8.33261 0.0472508 8.14523 0.00545754 7.49536 0.00165815C 6.65811 -0.00594062 5.95242 0.00545753 5.54974 0.191627C 5.28262 0.317007 5.07928 0.594362 5.20288 0.60956C 5.35837 0.628557 5.70922 0.700745 5.89262 0.940107C 6.13183 1.25166 6.12386 1.95074 6.12386 1.95074C 6.12386 1.95074 6.2634 3.87703 5.80092 4.11639C 5.48595 4.27977 5.05137 3.94542 4.12242 2.41427C 3.64399 1.63159 3.28517 0.761535 3.28517 0.761535C 3.28517 0.761535 3.21739 0.598162 3.09379 0.514575C 2.94229 0.408193 2.73497 0.377797 2.73497 0.377797L 0.510267 0.392995C 0.510267 0.392995 0.175365 0.400594 0.0517702 0.541171C -0.0598637 0.658952 0.0437964 0.913511 0.0437964 0.913511C 0.0437964 0.913511 1.78608 4.80028 3.75961 6.76077Z" transform="translate(1777.99 -21012.2)" fill="#FFFFFF"></path>
            </g>
        </g>
    </g>
</svg>