<svg width="71" height="6" viewBox="0 0 71 6" version="1.1" xmlns="http://www.w3.org/2000/svg" xmlns:xlink="http://www.w3.org/1999/xlink">
<title>Vector</title>
<desc>Created using Figma</desc>
<g id="Canvas" transform="translate(16802 19610)">
<g id="Vector">
<use xlink:href="#path0_fill" transform="translate(-16802 -19610)" fill="#FFDAD4"/>
</g>
</g>
<defs>
<path id="path0_fill" d="M 69.9559 4C 68.4941 4 67.8154 3.25 66.9279 2.35C 65.936 1.3 64.7353 0 62.3338 0C 59.9846 0 58.7316 1.3 57.7397 2.35C 56.8522 3.3 56.1213 4 54.7118 4C 53.25 4 52.5713 3.25 51.6838 2.35C 50.6919 1.3 49.439 0 47.0897 0C 44.7404 0 43.4875 1.3 42.4956 2.35C 41.6081 3.25 40.9294 4 39.4676 4C 38.0059 4 37.3272 3.25 36.4397 2.35C 35.4478 1.3 34.1949 0 31.8456 0C 31.7934 0 31.7934 0 31.7412 0C 31.689 0 31.5846 0 31.5324 0C 29.1831 0 27.9301 1.3 26.9382 2.35C 26.0507 3.25 25.3721 4 23.9103 4C 22.4485 4 21.7699 3.25 20.8824 2.35C 19.8904 1.3 18.6375 0 16.2882 0C 13.939 0 12.686 1.3 11.6941 2.35C 10.8066 3.25 10.1279 4 8.66618 4C 7.20441 4 6.52574 3.25 5.63824 2.35C 4.64632 1.3 3.39338 0 1.04412 0C 0.469853 0 0 0.45 0 1C 0 1.55 0.469853 2 1.04412 2C 2.50588 2 3.18456 2.75 4.07206 3.65C 5.06397 4.7 6.26471 6 8.66618 6C 11.0154 6 12.2684 4.7 13.2603 3.65C 14.1478 2.75 14.8265 2 16.2882 2C 17.75 2 18.4287 2.75 19.3162 3.65C 20.3081 4.7 21.5088 6 23.9103 6C 26.2596 6 27.5125 4.7 28.5044 3.65C 29.3919 2.75 30.0706 2 31.5324 2C 32.9941 2 33.6728 2.75 34.5603 3.65C 35.5522 4.7 36.8051 6 39.1544 6C 39.2066 6 39.2066 6 39.2588 6C 39.311 6 39.4154 6 39.4676 6C 41.8169 6 43.0699 4.7 44.0618 3.65C 44.9493 2.75 45.6279 2 47.0897 2C 48.5515 2 49.2301 2.75 50.1176 3.65C 51.1096 4.7 52.3103 6 54.7118 6C 57.061 6 58.314 4.7 59.3059 3.65C 60.1934 2.7 60.9243 2 62.3338 2C 63.7956 2 64.4743 2.75 65.3618 3.65C 66.3537 4.7 67.5544 6 69.9559 6C 70.5302 6 71 5.55 71 5C 71 4.45 70.5302 4 69.9559 4Z"/>
</defs>
</svg>
