<svg width="599" height="11" viewBox="0 0 599 11" version="1.1" xmlns="http://www.w3.org/2000/svg" xmlns:xlink="http://www.w3.org/1999/xlink">
<title>Group</title>
<desc>Created using Figma</desc>
<g id="Canvas" transform="translate(2348 10276)">
<g id="Group">
<g id="Group">
<mask id="mask0_alpha" mask-type="alpha">
<g id="Rectangle">
<use xlink:href="#path0_fill" transform="translate(-2348 -10283)" fill="#C4C4C4"/>
</g>
</mask>
<g id="Vector (Stroke)" mask="url(#mask0_alpha)">
<use xlink:href="#path1_fill" transform="translate(-2347.06 -10275.5)" fill="#F1F1F1"/>
</g>
</g>
</g>
</g>
<defs>
<path id="path0_fill" d="M 0 0L 598.86 0L 598.86 29L 0 29L 0 0Z"/>
<path id="path1_fill" fill-rule="evenodd" d="M 9.84801 6.25001C 7.25728 4.55152 4.89074 3 0 3L 0 0C 5.7822 0 8.75439 1.94578 11.4996 3.74556L 11.5064 3.74999C 14.0971 5.44849 16.4636 7 21.3544 7C 26.2451 7 28.6117 5.44849 31.2024 3.74999L 31.2092 3.74556C 33.9544 1.94578 36.9266 0 42.7088 0C 48.491 0 51.4632 1.94578 54.2084 3.74556L 54.2151 3.74999C 56.8059 5.44848 59.1724 7 64.0632 7C 68.9539 7 71.3204 5.44849 73.9112 3.75L 73.9179 3.74556C 76.6632 1.94578 79.6353 0 85.4175 0C 91.1997 0 94.1719 1.94578 96.9172 3.74556L 96.9239 3.75C 99.5146 5.44849 101.881 7 106.772 7C 111.663 7 114.029 5.44849 116.62 3.74999L 116.627 3.74556C 119.372 1.94578 122.344 0 128.126 0C 133.909 0 136.881 1.94578 139.626 3.74556L 139.633 3.75001C 142.223 5.4485 144.59 7 149.481 7C 154.371 7 156.738 5.44848 159.329 3.74998L 159.335 3.74556C 162.081 1.94578 165.053 0 170.835 0C 176.617 0 179.589 1.94578 182.335 3.74556L 182.341 3.75001C 184.932 5.4485 187.299 7 192.189 7C 197.08 7 199.447 5.44848 202.038 3.74998L 202.044 3.74556C 204.789 1.94578 207.762 0 213.544 0C 219.326 0 222.298 1.94578 225.043 3.74556L 225.05 3.74999C 227.641 5.44849 230.008 7 234.898 7C 239.789 7 242.156 5.4485 244.746 3.75001L 244.753 3.74556C 247.498 1.94578 250.47 0 256.253 0C 262.035 0 265.007 1.94578 267.752 3.74556L 267.759 3.75001C 270.35 5.4485 272.716 7 277.607 7C 282.498 7 284.864 5.44846 287.455 3.74995L 287.462 3.74556C 290.207 1.94578 293.179 0 298.961 0C 304.744 0 307.716 1.94578 310.461 3.74556L 310.468 3.75001C 313.059 5.44849 315.425 7 320.316 7C 325.207 7 327.573 5.4485 330.164 3.75001L 330.171 3.74556C 332.916 1.94578 335.888 0 341.67 0C 347.452 0 350.425 1.94578 353.17 3.74556L 353.177 3.74998C 355.767 5.44848 358.134 7 363.025 7C 367.915 7 370.282 5.4485 372.873 3.75001L 372.879 3.74556C 375.625 1.94578 378.597 0 384.379 0C 390.161 0 393.133 1.94578 395.879 3.74556L 395.885 3.75001C 398.476 5.44849 400.843 7 405.733 7C 410.624 7 412.991 5.44848 415.581 3.74998L 415.588 3.74556C 418.333 1.94578 421.306 0 427.088 0C 432.87 0 435.842 1.94578 438.587 3.74556L 438.594 3.75001C 441.185 5.44849 443.551 7 448.442 7C 453.333 7 455.699 5.4485 458.29 3.75001L 458.297 3.74556C 461.042 1.94578 464.014 0 469.796 0C 475.579 0 478.551 1.94578 481.296 3.74556L 481.303 3.75001C 483.894 5.4485 486.26 7 491.151 7C 496.042 7 498.408 5.44848 500.999 3.74998L 501.006 3.74555C 503.751 1.94578 506.723 0 512.505 0C 518.287 0 521.26 1.94578 524.005 3.74556L 524.012 3.75001C 526.602 5.4485 528.969 7 533.86 7C 538.75 7 541.117 5.4485 543.708 3.75001L 543.714 3.74556C 546.46 1.94578 549.432 0 555.214 0C 560.996 0 563.968 1.94578 566.714 3.74555L 566.72 3.75001C 569.311 5.44849 571.678 7 576.568 7C 581.459 7 583.826 5.44842 586.417 3.74989L 586.423 3.74556C 589.168 1.94578 592.141 0 597.923 0L 597.923 3C 593.032 3 590.666 4.5515 588.075 6.24999L 588.068 6.25444C 585.323 8.05422 582.351 10 576.568 10C 570.786 10 567.814 8.05422 565.069 6.25445L 565.062 6.24999C 562.471 4.55151 560.105 3 555.214 3C 550.323 3 547.957 4.55154 545.366 6.25005L 545.359 6.25444C 542.614 8.05422 539.642 10 533.86 10C 528.077 10 525.105 8.05422 522.36 6.25444L 522.353 6.24999C 519.763 4.5515 517.396 3 512.505 3C 507.615 3 505.248 4.55151 502.657 6.24999L 502.65 6.25445C 499.905 8.05422 496.933 10 491.151 10C 485.369 10 482.396 8.05422 479.651 6.25444L 479.645 6.25005C 477.054 4.55154 474.687 3 469.796 3C 464.906 3 462.539 4.5515 459.948 6.24999L 459.942 6.25444C 457.196 8.05422 454.224 10 448.442 10C 442.66 10 439.688 8.05422 436.942 6.25444L 436.936 6.24999C 434.345 4.55151 431.978 3 427.088 3C 422.197 3 419.83 4.55152 417.24 6.25002L 417.233 6.25444C 414.488 8.05422 411.516 10 405.733 10C 399.951 10 396.979 8.05422 394.234 6.25444L 394.227 6.24999C 391.636 4.55151 389.27 3 384.379 3C 379.488 3 377.122 4.55152 374.531 6.25002L 374.524 6.25444C 371.779 8.05422 368.807 10 363.025 10C 357.242 10 354.27 8.05422 351.525 6.25444L 351.518 6.25005C 348.927 4.55154 346.561 3 341.67 3C 336.779 3 334.413 4.5515 331.822 6.24999L 331.815 6.25444C 329.07 8.05422 326.098 10 320.316 10C 314.534 10 311.561 8.05422 308.816 6.25444L 308.809 6.24999C 306.219 4.55151 303.852 3 298.961 3C 294.071 3 291.704 4.55152 289.113 6.25002L 289.107 6.25444C 286.361 8.05422 283.389 10 277.607 10C 271.825 10 268.853 8.05422 266.107 6.25444L 266.101 6.25005C 263.51 4.55154 261.143 3 256.253 3C 251.362 3 248.995 4.55152 246.405 6.25002L 246.398 6.25444C 243.653 8.05422 240.68 10 234.898 10C 229.116 10 226.144 8.05422 223.399 6.25444L 223.392 6.25001C 220.801 4.55151 218.435 3 213.544 3C 208.653 3 206.287 4.5515 203.696 6.24999L 203.689 6.25444C 200.944 8.05422 197.972 10 192.189 10C 186.407 10 183.435 8.05422 180.69 6.25444L 180.683 6.25002C 178.092 4.55152 175.726 3 170.835 3C 165.944 3 163.578 4.55151 160.987 6.25001L 160.98 6.25444C 158.235 8.05422 155.263 10 149.481 10C 143.699 10 140.726 8.05422 137.981 6.25444L 137.974 6.24999C 135.384 4.5515 133.017 3 128.126 3C 123.236 3 120.869 4.55152 118.278 6.25001L 118.272 6.25444C 115.526 8.05422 112.554 10 106.772 10C 100.99 10 98.0175 8.05422 95.2723 6.25444L 95.2655 6.25001C 92.6748 4.55151 90.3083 3 85.4175 3C 80.5268 3 78.1603 4.55151 75.5695 6.25001L 75.5628 6.25444C 72.8176 8.05422 69.8454 10 64.0632 10C 58.281 10 55.3088 8.05422 52.5635 6.25444L 52.5568 6.25C 49.966 4.55151 47.5995 3 42.7088 3C 37.818 3 35.4515 4.55152 32.8608 6.25001L 32.854 6.25444C 30.1088 8.05422 27.1366 10 21.3544 10C 15.5722 10 12.6 8.05422 9.85478 6.25444L 9.84801 6.25001Z"/>
</defs>
</svg>
