<svg width="1919" height="170" viewBox="0 0 1919 170" version="1.1" xmlns="http://www.w3.org/2000/svg" xmlns:xlink="http://www.w3.org/1999/xlink">
<title>Group 2</title>
<desc>Created using Figma</desc>
<g id="Canvas" transform="translate(15562 17150)">
<g id="Group 2">
<g id="Group">
<g id="Vector">
<use xlink:href="#path0_stroke" transform="translate(-15562 -17069)" fill="#F5F5F5"/>
</g>
</g>
<g id="&#209;&#136;&#208;&#176;&#208;&#188;&#208;&#191; 2">
<g id="Group 2.7">
<g id="Ellipse 2">
<use xlink:href="#path1_fill" transform="translate(-13987 -17150)" fill="#FFFFFF"/>
</g>
</g>
<g id="Group">
<g id="Group">
<g id="Vector">
<use xlink:href="#path2_fill" transform="translate(-13947.8 -17089.1)" fill="#E6E6E6"/>
</g>
</g>
<g id="Group">
<g id="Vector">
<use xlink:href="#path3_fill" transform="translate(-13968.8 -17095)" fill="#E6E6E6"/>
</g>
<g id="Vector">
<use xlink:href="#path4_fill" transform="translate(-13963.8 -17105.6)" fill="#E6E6E6"/>
</g>
<g id="Vector">
<use xlink:href="#path5_fill" transform="translate(-13957.2 -17114.9)" fill="#E6E6E6"/>
</g>
<g id="Vector">
<use xlink:href="#path6_fill" transform="translate(-13949.1 -17121.5)" fill="#E6E6E6"/>
</g>
<g id="Vector">
<use xlink:href="#path7_fill" transform="translate(-13940.8 -17126.7)" fill="#E6E6E6"/>
</g>
<g id="Vector">
<use xlink:href="#path8_fill" transform="translate(-13930.9 -17132.6)" fill="#E6E6E6"/>
</g>
<g id="Vector">
<use xlink:href="#path9_fill" transform="translate(-13919.3 -17135)" fill="#E6E6E6"/>
</g>
<g id="Vector">
<use xlink:href="#path10_fill" transform="translate(-13909.6 -17136.1)" fill="#E6E6E6"/>
</g>
<g id="Vector">
<use xlink:href="#path11_fill" transform="translate(-13900.3 -17131.3)" fill="#E6E6E6"/>
</g>
<g id="Vector">
<use xlink:href="#path12_fill" transform="translate(-13893.5 -17135.4)" fill="#E6E6E6"/>
</g>
<g id="Vector">
<use xlink:href="#path13_fill" transform="translate(-13882 -17130.6)" fill="#E6E6E6"/>
</g>
<g id="Vector">
<use xlink:href="#path14_fill" transform="translate(-13871.9 -17126.5)" fill="#E6E6E6"/>
</g>
<g id="Vector">
<use xlink:href="#path15_fill" transform="translate(-13866.6 -17120.2)" fill="#E6E6E6"/>
</g>
<g id="Vector">
<use xlink:href="#path16_fill" transform="translate(-13858.6 -17113.9)" fill="#E6E6E6"/>
</g>
<g id="Vector">
<use xlink:href="#path17_fill" transform="translate(-13852.3 -17105.6)" fill="#E6E6E6"/>
</g>
<g id="Vector">
<use xlink:href="#path18_fill" transform="translate(-13846.9 -17094.7)" fill="#E6E6E6"/>
</g>
</g>
<g id="Group">
<g id="Group">
<g id="Vector">
<use xlink:href="#path19_fill" transform="translate(-13971.1 -17052)" fill="#E6E6E6"/>
</g>
<g id="Vector">
<use xlink:href="#path20_fill" transform="translate(-13967.9 -17039.8)" fill="#E6E6E6"/>
</g>
<g id="Vector">
<use xlink:href="#path21_fill" transform="translate(-13961.8 -17034.6)" fill="#E6E6E6"/>
</g>
<g id="Vector">
<use xlink:href="#path22_fill" transform="translate(-13956.2 -17027)" fill="#E6E6E6"/>
</g>
<g id="Vector">
<use xlink:href="#path23_fill" transform="translate(-13949.1 -17019.1)" fill="#E6E6E6"/>
</g>
<g id="Vector">
<use xlink:href="#path24_fill" transform="translate(-13942.3 -17012.7)" fill="#E6E6E6"/>
</g>
<g id="Vector">
<use xlink:href="#path25_fill" transform="translate(-13932.6 -17008.7)" fill="#E6E6E6"/>
</g>
<g id="Vector">
<use xlink:href="#path26_fill" transform="translate(-13921.2 -17005.5)" fill="#E6E6E6"/>
</g>
<g id="Vector">
<use xlink:href="#path27_fill" transform="translate(-13910.8 -17003.7)" fill="#E6E6E6"/>
</g>
<g id="Vector">
<use xlink:href="#path28_fill" transform="translate(-13899.6 -17003.7)" fill="#E6E6E6"/>
</g>
<g id="Vector">
<use xlink:href="#path29_fill" transform="translate(-13889.2 -17006.1)" fill="#E6E6E6"/>
</g>
<g id="Vector">
<use xlink:href="#path30_fill" transform="translate(-13880.8 -17008.7)" fill="#E6E6E6"/>
</g>
<g id="Vector">
<use xlink:href="#path31_fill" transform="translate(-13867.6 -17020.1)" fill="#E6E6E6"/>
</g>
<g id="Vector">
<use xlink:href="#path32_fill" transform="translate(-13857.8 -17026.8)" fill="#E6E6E6"/>
</g>
<g id="Vector">
<use xlink:href="#path33_fill" transform="translate(-13851.4 -17035)" fill="#E6E6E6"/>
</g>
<g id="Vector">
<use xlink:href="#path34_fill" transform="translate(-13847.1 -17044.4)" fill="#E6E6E6"/>
</g>
<g id="Vector">
<use xlink:href="#path35_fill" transform="translate(-13843 -17052.1)" fill="#E6E6E6"/>
</g>
</g>
</g>
</g>
</g>
</g>
</g>
<defs>
<path id="path0_stroke" d="M 0 1.5C 8.41092 1.5 12.543 3.40243 16.775 5.36126C 21.1761 7.3983 25.6889 9.5 34.5679 9.5L 34.5679 6.5C 26.3245 6.5 22.2761 4.6017 18.0352 2.63874C 13.6252 0.597575 9.03457 -1.5 0 -1.5L 0 1.5ZM 34.5679 9.5C 43.6025 9.5 48.1931 7.40242 52.6031 5.36126C 56.844 3.3983 60.8924 1.5 69.1358 1.5L 69.1358 -1.5C 60.2568 -1.5 55.7439 0.601702 51.3429 2.63874C 47.1109 4.59757 42.9788 6.5 34.5679 6.5L 34.5679 9.5ZM 69.1358 1.5C 77.5467 1.5 81.6788 3.40242 85.9108 5.36126C 90.3119 7.3983 94.8247 9.5 103.704 9.5L 103.704 6.5C 95.4603 6.5 91.4119 4.6017 87.171 2.63874C 82.761 0.597575 78.1704 -1.5 69.1358 -1.5L 69.1358 1.5ZM 103.704 9.5C 112.738 9.5 117.329 7.40242 121.739 5.36126C 125.98 3.3983 130.028 1.5 138.272 1.5L 138.272 -1.5C 129.393 -1.5 124.88 0.601702 120.479 2.63874C 116.247 4.59757 112.115 6.5 103.704 6.5L 103.704 9.5ZM 138.272 1.5C 146.683 1.5 150.815 3.40243 155.047 5.36126C 159.448 7.3983 163.961 9.5 172.84 9.5L 172.84 6.5C 164.596 6.5 160.548 4.6017 156.307 2.63874C 151.897 0.597575 147.306 -1.5 138.272 -1.5L 138.272 1.5ZM 172.84 9.5C 181.874 9.5 186.465 7.40242 190.875 5.36126C 195.116 3.3983 199.164 1.5 207.407 1.5L 207.407 -1.5C 198.528 -1.5 194.016 0.601702 189.615 2.63874C 185.382 4.59757 181.25 6.5 172.84 6.5L 172.84 9.5ZM 207.407 1.5C 215.818 1.5 219.95 3.40243 224.182 5.36126C 228.583 7.3983 233.096 9.5 241.975 9.5L 241.975 6.5C 233.732 6.5 229.684 4.6017 225.443 2.63874C 221.033 0.597575 216.442 -1.5 207.407 -1.5L 207.407 1.5ZM 241.975 9.5C 251.01 9.5 255.601 7.40242 260.01 5.36126C 264.251 3.3983 268.3 1.5 276.543 1.5L 276.543 -1.5C 267.664 -1.5 263.151 0.601702 258.75 2.63874C 254.518 4.59757 250.386 6.5 241.975 6.5L 241.975 9.5ZM 276.543 1.5C 284.954 1.5 289.086 3.40243 293.318 5.36126C 297.719 7.3983 302.232 9.5 311.111 9.5L 311.111 6.5C 302.868 6.5 298.819 4.6017 294.578 2.63874C 290.168 0.597575 285.578 -1.5 276.543 -1.5L 276.543 1.5ZM 311.111 9.5C 320.146 9.5 324.736 7.40242 329.146 5.36126C 333.387 3.3983 337.436 1.5 345.679 1.5L 345.679 -1.5C 336.8 -1.5 332.287 0.601702 327.886 2.63874C 323.654 4.59757 319.522 6.5 311.111 6.5L 311.111 9.5ZM 345.679 1.5C 354.09 1.5 358.222 3.40242 362.454 5.36126C 366.855 7.3983 371.368 9.5 380.247 9.5L 380.247 6.5C 372.003 6.5 367.955 4.6017 363.714 2.63874C 359.304 0.597575 354.714 -1.5 345.679 -1.5L 345.679 1.5ZM 380.247 9.5C 389.281 9.5 393.872 7.40242 398.282 5.36126C 402.523 3.3983 406.571 1.5 414.815 1.5L 414.815 -1.5C 405.936 -1.5 401.423 0.601702 397.022 2.63874C 392.79 4.59757 388.658 6.5 380.247 6.5L 380.247 9.5ZM 414.815 1.5C 423.226 1.5 427.358 3.40243 431.59 5.36126C 435.991 7.3983 440.504 9.5 449.383 9.5L 449.383 6.5C 441.139 6.5 437.091 4.6017 432.85 2.63874C 428.44 0.597575 423.849 -1.5 414.815 -1.5L 414.815 1.5ZM 449.383 9.5C 458.417 9.5 463.008 7.40242 467.418 5.36126C 471.659 3.3983 475.707 1.5 483.951 1.5L 483.951 -1.5C 475.072 -1.5 470.559 0.601702 466.158 2.63874C 461.926 4.59757 457.794 6.5 449.383 6.5L 449.383 9.5ZM 483.951 1.5C 492.362 1.5 496.494 3.40242 500.726 5.36126C 505.127 7.3983 509.64 9.5 518.518 9.5L 518.518 6.5C 510.275 6.5 506.227 4.6017 501.986 2.63874C 497.576 0.597575 492.985 -1.5 483.951 -1.5L 483.951 1.5ZM 518.518 9.5C 527.553 9.5 532.144 7.40242 536.554 5.36126C 540.795 3.3983 544.843 1.5 553.086 1.5L 553.086 -1.5C 544.207 -1.5 539.695 0.601702 535.294 2.63874C 531.062 4.59757 526.929 6.5 518.518 6.5L 518.518 9.5ZM 553.086 1.5C 561.497 1.5 565.629 3.40242 569.861 5.36126C 574.262 7.3983 578.775 9.5 587.654 9.5L 587.654 6.5C 579.411 6.5 575.363 4.6017 571.122 2.63874C 566.712 0.597575 562.121 -1.5 553.086 -1.5L 553.086 1.5ZM 587.654 9.5C 596.689 9.5 601.28 7.40242 605.689 5.36126C 609.93 3.3983 613.979 1.5 622.222 1.5L 622.222 -1.5C 613.343 -1.5 608.83 0.601702 604.429 2.63874C 600.197 4.59757 596.065 6.5 587.654 6.5L 587.654 9.5ZM 622.222 1.5C 630.633 1.5 634.765 3.40242 638.997 5.36126C 643.398 7.3983 647.911 9.5 656.79 9.5L 656.79 6.5C 648.547 6.5 644.498 4.6017 640.257 2.63874C 635.847 0.597575 631.257 -1.5 622.222 -1.5L 622.222 1.5ZM 656.79 9.5C 665.825 9.5 670.415 7.40242 674.825 5.36126C 679.066 3.3983 683.115 1.5 691.358 1.5L 691.358 -1.5C 682.479 -1.5 677.966 0.601702 673.565 2.63874C 669.333 4.59757 665.201 6.5 656.79 6.5L 656.79 9.5ZM 691.358 1.5C 699.769 1.5 703.901 3.40242 708.133 5.36126C 712.534 7.3983 717.047 9.5 725.926 9.5L 725.926 6.5C 717.682 6.5 713.634 4.6017 709.393 2.63874C 704.983 0.597575 700.393 -1.5 691.358 -1.5L 691.358 1.5ZM 725.926 9.5C 734.96 9.5 739.551 7.40242 743.961 5.36126C 748.202 3.3983 752.25 1.5 760.494 1.5L 760.494 -1.5C 751.615 -1.5 747.102 0.601702 742.701 2.63874C 738.469 4.59757 734.337 6.5 725.926 6.5L 725.926 9.5ZM 760.494 1.5C 768.905 1.5 773.037 3.40243 777.269 5.36126C 781.67 7.3983 786.183 9.5 795.062 9.5L 795.062 6.5C 786.818 6.5 782.77 4.6017 778.529 2.63874C 774.119 0.597575 769.528 -1.5 760.494 -1.5L 760.494 1.5ZM 795.062 9.5C 804.096 9.5 808.687 7.40242 813.097 5.36125C 817.338 3.3983 821.386 1.5 829.63 1.5L 829.63 -1.5C 820.751 -1.5 816.238 0.601702 811.837 2.63875C 807.605 4.59758 803.473 6.5 795.062 6.5L 795.062 9.5ZM 829.63 1.5C 838.041 1.5 842.173 3.40243 846.405 5.36126C 850.806 7.3983 855.319 9.5 864.198 9.5L 864.198 6.5C 855.954 6.5 851.906 4.6017 847.665 2.63874C 843.255 0.597575 838.664 -1.5 829.63 -1.5L 829.63 1.5ZM 864.198 9.5C 873.232 9.5 877.823 7.40242 882.233 5.36126C 886.474 3.3983 890.522 1.5 898.765 1.5L 898.765 -1.5C 889.886 -1.5 885.374 0.601702 880.973 2.63874C 876.741 4.59757 872.608 6.5 864.198 6.5L 864.198 9.5ZM 898.765 1.5C 907.176 1.5 911.308 3.40242 915.54 5.36125C 919.941 7.3983 924.454 9.5 933.333 9.5L 933.333 6.5C 925.09 6.5 921.042 4.6017 916.801 2.63875C 912.391 0.597575 907.8 -1.5 898.765 -1.5L 898.765 1.5ZM 933.333 9.5C 942.368 9.5 946.959 7.40242 951.368 5.36126C 955.609 3.3983 959.658 1.5 967.901 1.5L 967.901 -1.5C 959.022 -1.5 954.509 0.601702 950.108 2.63874C 945.876 4.59757 941.744 6.5 933.333 6.5L 933.333 9.5ZM 967.901 1.5C 976.312 1.5 980.444 3.40242 984.676 5.36125C 989.077 7.3983 993.59 9.5 1002.47 9.5L 1002.47 6.5C 994.226 6.5 990.177 4.6017 985.936 2.63875C 981.526 0.597575 976.936 -1.5 967.901 -1.5L 967.901 1.5ZM 1002.47 9.5C 1011.5 9.5 1016.09 7.40242 1020.5 5.36126C 1024.75 3.3983 1028.79 1.5 1037.04 1.5L 1037.04 -1.5C 1028.16 -1.5 1023.65 0.601702 1019.24 2.63874C 1015.01 4.59757 1010.88 6.5 1002.47 6.5L 1002.47 9.5ZM 1037.04 1.5C 1045.45 1.5 1049.58 3.40243 1053.81 5.36126C 1058.21 7.3983 1062.73 9.5 1071.6 9.5L 1071.6 6.5C 1063.36 6.5 1059.31 4.6017 1055.07 2.63874C 1050.66 0.597575 1046.07 -1.5 1037.04 -1.5L 1037.04 1.5ZM 1071.6 9.5C 1080.64 9.5 1085.23 7.40242 1089.64 5.36125C 1093.88 3.3983 1097.93 1.5 1106.17 1.5L 1106.17 -1.5C 1097.29 -1.5 1092.78 0.601702 1088.38 2.63875C 1084.15 4.59758 1080.02 6.5 1071.6 6.5L 1071.6 9.5ZM 1106.17 1.5C 1114.58 1.5 1118.72 3.40243 1122.95 5.36126C 1127.35 7.3983 1131.86 9.5 1140.74 9.5L 1140.74 6.5C 1132.5 6.5 1128.45 4.6017 1124.21 2.63874C 1119.8 0.597575 1115.21 -1.5 1106.17 -1.5L 1106.17 1.5ZM 1140.74 9.5C 1149.78 9.5 1154.37 7.40242 1158.78 5.36125C 1163.02 3.3983 1167.07 1.5 1175.31 1.5L 1175.31 -1.5C 1166.43 -1.5 1161.92 0.601702 1157.52 2.63875C 1153.28 4.59758 1149.15 6.5 1140.74 6.5L 1140.74 9.5ZM 1175.31 1.5C 1183.72 1.5 1187.85 3.40243 1192.08 5.36126C 1196.48 7.3983 1201 9.5 1209.88 9.5L 1209.88 6.5C 1201.63 6.5 1197.58 4.6017 1193.34 2.63874C 1188.93 0.597575 1184.34 -1.5 1175.31 -1.5L 1175.31 1.5ZM 1209.88 9.5C 1218.91 9.5 1223.5 7.40242 1227.91 5.36126C 1232.15 3.3983 1236.2 1.5 1244.44 1.5L 1244.44 -1.5C 1235.57 -1.5 1231.05 0.601702 1226.65 2.63874C 1222.42 4.59757 1218.29 6.5 1209.88 6.5L 1209.88 9.5ZM 1244.44 1.5C 1252.86 1.5 1256.99 3.40242 1261.22 5.36125C 1265.62 7.3983 1270.13 9.5 1279.01 9.5L 1279.01 6.5C 1270.77 6.5 1266.72 4.6017 1262.48 2.63875C 1258.07 0.597575 1253.48 -1.5 1244.44 -1.5L 1244.44 1.5ZM 1279.01 9.5C 1288.05 9.5 1292.64 7.40242 1297.05 5.36126C 1301.29 3.3983 1305.34 1.5 1313.58 1.5L 1313.58 -1.5C 1304.7 -1.5 1300.19 0.601702 1295.79 2.63874C 1291.56 4.59757 1287.42 6.5 1279.01 6.5L 1279.01 9.5ZM 1313.58 1.5C 1321.99 1.5 1326.12 3.40242 1330.36 5.36125C 1334.76 7.3983 1339.27 9.5 1348.15 9.5L 1348.15 6.5C 1339.9 6.5 1335.86 4.6017 1331.62 2.63875C 1327.21 0.597575 1322.61 -1.5 1313.58 -1.5L 1313.58 1.5ZM 1348.15 9.5C 1357.18 9.5 1361.77 7.40242 1366.18 5.36126C 1370.42 3.3983 1374.47 1.5 1382.72 1.5L 1382.72 -1.5C 1373.84 -1.5 1369.32 0.601702 1364.92 2.63874C 1360.69 4.59757 1356.56 6.5 1348.15 6.5L 1348.15 9.5ZM 1382.72 1.5C 1391.13 1.5 1395.26 3.40243 1399.49 5.36126C 1403.89 7.3983 1408.41 9.5 1417.28 9.5L 1417.28 6.5C 1409.04 6.5 1404.99 4.6017 1400.75 2.63874C 1396.34 0.597575 1391.75 -1.5 1382.72 -1.5L 1382.72 1.5ZM 1417.28 9.5C 1426.32 9.5 1430.91 7.40242 1435.32 5.36125C 1439.56 3.3983 1443.61 1.5 1451.85 1.5L 1451.85 -1.5C 1442.97 -1.5 1438.46 0.601702 1434.06 2.63875C 1429.83 4.59758 1425.69 6.5 1417.28 6.5L 1417.28 9.5ZM 1451.85 1.5C 1460.26 1.5 1464.39 3.40243 1468.63 5.36126C 1473.03 7.3983 1477.54 9.5 1486.42 9.5L 1486.42 6.5C 1478.18 6.5 1474.13 4.6017 1469.89 2.63874C 1465.48 0.597575 1460.89 -1.5 1451.85 -1.5L 1451.85 1.5ZM 1486.42 9.5C 1495.45 9.5 1500.04 7.40242 1504.45 5.36125C 1508.7 3.3983 1512.74 1.5 1520.99 1.5L 1520.99 -1.5C 1512.11 -1.5 1507.6 0.601702 1503.19 2.63875C 1498.96 4.59758 1494.83 6.5 1486.42 6.5L 1486.42 9.5ZM 1520.99 1.5C 1529.4 1.5 1533.53 3.40243 1537.76 5.36126C 1542.16 7.3983 1546.68 9.5 1555.56 9.5L 1555.56 6.5C 1547.31 6.5 1543.26 4.6017 1539.02 2.63874C 1534.61 0.597575 1530.02 -1.5 1520.99 -1.5L 1520.99 1.5ZM 1555.56 9.5C 1564.59 9.5 1569.18 7.40242 1573.59 5.36126C 1577.83 3.3983 1581.88 1.5 1590.12 1.5L 1590.12 -1.5C 1581.24 -1.5 1576.73 0.601702 1572.33 2.63874C 1568.1 4.59757 1563.97 6.5 1555.56 6.5L 1555.56 9.5ZM 1590.12 1.5C 1598.53 1.5 1602.67 3.40242 1606.9 5.36125C 1611.3 7.3983 1615.81 9.5 1624.69 9.5L 1624.69 6.5C 1616.45 6.5 1612.4 4.6017 1608.16 2.63875C 1603.75 0.597575 1599.16 -1.5 1590.12 -1.5L 1590.12 1.5ZM 1624.69 9.5C 1633.73 9.5 1638.32 7.40242 1642.73 5.36125C 1646.97 3.3983 1651.02 1.5 1659.26 1.5L 1659.26 -1.5C 1650.38 -1.5 1645.87 0.601702 1641.47 2.63875C 1637.23 4.59758 1633.1 6.5 1624.69 6.5L 1624.69 9.5ZM 1659.26 1.5C 1667.67 1.5 1671.8 3.40243 1676.03 5.36126C 1680.44 7.3983 1684.95 9.5 1693.83 9.5L 1693.83 6.5C 1685.58 6.5 1681.54 4.6017 1677.29 2.63874C 1672.88 0.597575 1668.29 -1.5 1659.26 -1.5L 1659.26 1.5ZM 1693.83 9.5C 1702.86 9.5 1707.45 7.40242 1711.86 5.36126C 1716.1 3.3983 1720.15 1.5 1728.4 1.5L 1728.4 -1.5C 1719.52 -1.5 1715 0.601702 1710.6 2.63874C 1706.37 4.59757 1702.24 6.5 1693.83 6.5L 1693.83 9.5ZM 1728.4 1.5C 1736.81 1.5 1740.94 3.40243 1745.17 5.36126C 1749.57 7.3983 1754.08 9.5 1762.96 9.5L 1762.96 6.5C 1754.72 6.5 1750.67 4.6017 1746.43 2.63874C 1742.02 0.597575 1737.43 -1.5 1728.4 -1.5L 1728.4 1.5ZM 1762.96 9.5C 1772 9.5 1776.59 7.40242 1781 5.36126C 1785.24 3.3983 1789.29 1.5 1797.53 1.5L 1797.53 -1.5C 1788.65 -1.5 1784.14 0.601702 1779.74 2.63874C 1775.51 4.59757 1771.37 6.5 1762.96 6.5L 1762.96 9.5ZM 1797.53 1.5C 1805.94 1.5 1810.07 3.40242 1814.31 5.36125C 1818.71 7.3983 1823.22 9.5 1832.1 9.5L 1832.1 6.5C 1823.86 6.5 1819.81 4.6017 1815.57 2.63875C 1811.16 0.597576 1806.57 -1.5 1797.53 -1.5L 1797.53 1.5ZM 1832.1 9.5C 1841.13 9.5 1845.72 7.40242 1850.13 5.36126C 1854.37 3.3983 1858.42 1.5 1866.67 1.5L 1866.67 -1.5C 1857.79 -1.5 1853.27 0.601702 1848.87 2.63874C 1844.64 4.59757 1840.51 6.5 1832.1 6.5L 1832.1 9.5ZM 1866.67 1.5C 1875.08 1.5 1879.21 3.40243 1883.44 5.36126C 1887.84 7.3983 1892.36 9.5 1901.23 9.5L 1901.23 6.5C 1892.99 6.5 1888.94 4.6017 1884.7 2.63874C 1880.29 0.597575 1875.7 -1.5 1866.67 -1.5L 1866.67 1.5ZM 1901.23 9.5C 1910.27 9.5 1914.86 7.40242 1919.27 5.36126C 1923.51 3.3983 1927.56 1.5 1935.8 1.5L 1935.8 -1.5C 1926.92 -1.5 1922.41 0.601702 1918.01 2.63874C 1913.78 4.59757 1909.65 6.5 1901.23 6.5L 1901.23 9.5ZM 1935.8 1.5C 1944.21 1.5 1948.35 3.40243 1952.58 5.36126C 1956.98 7.3983 1961.49 9.5 1970.37 9.5L 1970.37 6.5C 1962.13 6.5 1958.08 4.6017 1953.84 2.63874C 1949.43 0.597575 1944.84 -1.5 1935.8 -1.5L 1935.8 1.5ZM 1970.37 9.5C 1979.41 9.5 1984 7.40242 1988.41 5.36125C 1992.65 3.3983 1996.69 1.5 2004.94 1.5L 2004.94 -1.5C 1996.06 -1.5 1991.55 0.601703 1987.15 2.63875C 1982.91 4.59758 1978.78 6.5 1970.37 6.5L 1970.37 9.5ZM 2004.94 1.5C 2013.35 1.5 2017.48 3.40243 2021.71 5.36126C 2026.11 7.3983 2030.63 9.5 2039.51 9.5L 2039.51 6.5C 2031.26 6.5 2027.21 4.6017 2022.97 2.63874C 2018.56 0.597575 2013.97 -1.5 2004.94 -1.5L 2004.94 1.5ZM 2039.51 9.5C 2048.54 9.5 2053.13 7.40242 2057.54 5.36126C 2061.78 3.3983 2065.83 1.5 2074.07 1.5L 2074.07 -1.5C 2065.2 -1.5 2060.68 0.601702 2056.28 2.63874C 2052.05 4.59757 2047.92 6.5 2039.51 6.5L 2039.51 9.5ZM 2074.07 1.5C 2082.48 1.5 2086.62 3.40243 2090.85 5.36126C 2095.25 7.3983 2099.76 9.5 2108.64 9.5L 2108.64 6.5C 2100.4 6.5 2096.35 4.6017 2092.11 2.63874C 2087.7 0.597575 2083.11 -1.5 2074.07 -1.5L 2074.07 1.5ZM 2108.64 9.5C 2117.68 9.5 2122.27 7.40242 2126.68 5.36126C 2130.92 3.3983 2134.97 1.5 2143.21 1.5L 2143.21 -1.5C 2134.33 -1.5 2129.82 0.601702 2125.42 2.63874C 2121.19 4.59757 2117.05 6.5 2108.64 6.5L 2108.64 9.5ZM 2143.21 1.5C 2151.62 1.5 2155.75 3.40242 2159.98 5.36125C 2164.39 7.3983 2168.9 9.5 2177.78 9.5L 2177.78 6.5C 2169.53 6.5 2165.49 4.6017 2161.25 2.63875C 2156.84 0.597576 2152.24 -1.5 2143.21 -1.5L 2143.21 1.5ZM 2177.78 9.5C 2186.81 9.5 2191.4 7.40242 2195.81 5.36126C 2200.05 3.3983 2204.1 1.5 2212.35 1.5L 2212.35 -1.5C 2203.47 -1.5 2198.95 0.601702 2194.55 2.63874C 2190.32 4.59757 2186.19 6.5 2177.78 6.5L 2177.78 9.5ZM 2212.35 1.5C 2220.76 1.5 2224.89 3.40243 2229.12 5.36126C 2233.52 7.3983 2238.03 9.5 2246.91 9.5L 2246.91 6.5C 2238.67 6.5 2234.62 4.6017 2230.38 2.63874C 2225.97 0.597575 2221.38 -1.5 2212.35 -1.5L 2212.35 1.5ZM 2246.91 9.5C 2255.95 9.5 2260.54 7.40242 2264.95 5.36126C 2269.19 3.3983 2273.24 1.5 2281.48 1.5L 2281.48 -1.5C 2272.6 -1.5 2268.09 0.601702 2263.69 2.63874C 2259.46 4.59757 2255.32 6.5 2246.91 6.5L 2246.91 9.5ZM 2281.48 1.5C 2289.89 1.5 2294.02 3.40243 2298.26 5.36126C 2302.66 7.3983 2307.17 9.5 2316.05 9.5L 2316.05 6.5C 2307.81 6.5 2303.76 4.6017 2299.52 2.63874C 2295.11 0.597575 2290.52 -1.5 2281.48 -1.5L 2281.48 1.5ZM 2316.05 9.5C 2325.08 9.5 2329.67 7.40242 2334.08 5.36125C 2338.33 3.3983 2342.37 1.5 2350.62 1.5L 2350.62 -1.5C 2341.74 -1.5 2337.23 0.601703 2332.82 2.63875C 2328.59 4.59758 2324.46 6.5 2316.05 6.5L 2316.05 9.5ZM 2350.62 1.5C 2359.03 1.5 2363.16 3.40243 2367.39 5.36126C 2371.79 7.3983 2376.31 9.5 2385.19 9.5L 2385.19 6.5C 2376.94 6.5 2372.89 4.6017 2368.65 2.63874C 2364.24 0.597575 2359.65 -1.5 2350.62 -1.5L 2350.62 1.5ZM 2385.19 9.5C 2394.22 9.5 2398.81 7.40242 2403.22 5.36126C 2407.46 3.3983 2411.51 1.5 2419.75 1.5L 2419.75 -1.5C 2410.87 -1.5 2406.36 0.601702 2401.96 2.63874C 2397.73 4.59757 2393.6 6.5 2385.19 6.5L 2385.19 9.5ZM 2419.75 1.5C 2428.16 1.5 2432.3 3.40243 2436.53 5.36126C 2440.93 7.3983 2445.44 9.5 2454.32 9.5L 2454.32 6.5C 2446.08 6.5 2442.03 4.6017 2437.79 2.63874C 2433.38 0.597575 2428.79 -1.5 2419.75 -1.5L 2419.75 1.5ZM 2454.32 9.5C 2463.36 9.5 2467.95 7.40242 2472.36 5.36126C 2476.6 3.3983 2480.65 1.5 2488.89 1.5L 2488.89 -1.5C 2480.01 -1.5 2475.5 0.601702 2471.1 2.63874C 2466.86 4.59757 2462.73 6.5 2454.32 6.5L 2454.32 9.5ZM 2488.89 1.5C 2497.3 1.5 2501.43 3.40242 2505.66 5.36125C 2510.06 7.3983 2514.58 9.5 2523.46 9.5L 2523.46 6.5C 2515.21 6.5 2511.17 4.6017 2506.92 2.63875C 2502.51 0.597576 2497.92 -1.5 2488.89 -1.5L 2488.89 1.5ZM 2523.46 9.5C 2532.49 9.5 2537.08 7.40242 2541.49 5.36126C 2545.73 3.3983 2549.78 1.5 2558.02 1.5L 2558.02 -1.5C 2549.15 -1.5 2544.63 0.601702 2540.23 2.63874C 2536 4.59757 2531.87 6.5 2523.46 6.5L 2523.46 9.5ZM 2558.02 1.5C 2566.44 1.5 2570.57 3.40243 2574.8 5.36126C 2579.2 7.3983 2583.71 9.5 2592.59 9.5L 2592.59 6.5C 2584.35 6.5 2580.3 4.6017 2576.06 2.63874C 2571.65 0.597575 2567.06 -1.5 2558.02 -1.5L 2558.02 1.5ZM 2592.59 9.5C 2601.63 9.5 2606.22 7.40242 2610.63 5.36126C 2614.87 3.3983 2618.92 1.5 2627.16 1.5L 2627.16 -1.5C 2618.28 -1.5 2613.77 0.601702 2609.37 2.63874C 2605.14 4.59757 2601 6.5 2592.59 6.5L 2592.59 9.5ZM 2627.16 1.5C 2635.57 1.5 2639.7 3.40243 2643.94 5.36126C 2648.34 7.3983 2652.85 9.5 2661.73 9.5L 2661.73 6.5C 2653.49 6.5 2649.44 4.6017 2645.2 2.63874C 2640.79 0.597575 2636.2 -1.5 2627.16 -1.5L 2627.16 1.5ZM 2661.73 9.5C 2670.76 9.5 2675.35 7.40242 2679.76 5.36125C 2684 3.3983 2688.05 1.5 2696.3 1.5L 2696.3 -1.5C 2687.42 -1.5 2682.9 0.601703 2678.5 2.63875C 2674.27 4.59758 2670.14 6.5 2661.73 6.5L 2661.73 9.5ZM 2696.3 1.5C 2704.71 1.5 2708.84 3.40243 2713.07 5.36126C 2717.47 7.3983 2721.99 9.5 2730.86 9.5L 2730.86 6.5C 2722.62 6.5 2718.57 4.6017 2714.33 2.63874C 2709.92 0.597575 2705.33 -1.5 2696.3 -1.5L 2696.3 1.5ZM 2730.86 9.5C 2739.9 9.5 2744.49 7.40242 2748.9 5.36126C 2753.14 3.3983 2757.19 1.5 2765.43 1.5L 2765.43 -1.5C 2756.55 -1.5 2752.04 0.601702 2747.64 2.63874C 2743.41 4.59757 2739.28 6.5 2730.86 6.5L 2730.86 9.5ZM 2765.43 1.5C 2773.84 1.5 2777.98 3.40243 2782.21 5.36126C 2786.61 7.3983 2791.12 9.5 2800 9.5L 2800 6.5C 2791.76 6.5 2787.71 4.6017 2783.47 2.63874C 2779.06 0.597575 2774.47 -1.5 2765.43 -1.5L 2765.43 1.5Z"/>
<path id="path1_fill" d="M 170 85C 170 131.944 131.944 170 85 170C 38.0558 170 0 131.944 0 85C 0 38.0558 38.0558 0 85 0C 131.944 0 170 38.0558 170 85Z"/>
<path id="path2_fill" d="M 86.5272 48.865C 86.5272 48.5396 86.5272 48.3768 86.5272 48.0513C 86.5272 47.8886 86.5272 47.5631 86.5272 47.4003C 86.2073 47.2376 86.0474 47.0748 85.8875 46.7493C 82.6887 47.7258 80.4495 46.5866 79.0101 44.6336C 78.2104 43.1689 77.7306 41.5415 77.4107 40.0767C 76.2911 33.5669 78.8501 26.8943 80.4495 20.7099C 81.2492 17.455 84.7679 8.50398 81.729 5.24905C 81.0893 3.78433 79.4899 2.80786 76.9309 3.13335C 67.0146 3.94708 60.9369 14.0373 56.4586 21.6864C 53.7396 26.2433 51.6604 30.963 49.1014 35.5198C 48.4616 36.8218 46.8623 39.7513 45.9026 39.7513C 45.9026 39.4258 45.7427 38.9375 45.7427 38.4493C 45.5827 35.8453 46.7023 32.7532 47.3421 30.1492C 48.4616 24.7786 49.5812 19.5707 49.9011 14.0373C 50.061 12.2471 49.9011 10.6197 48.7815 9.6432C 48.4616 8.82947 47.8219 8.17848 46.7023 7.69024C 41.1044 5.4118 34.5469 14.5256 31.668 18.106C 26.0701 24.9413 21.9117 32.7532 16.7936 39.914C 18.393 34.2179 21.7518 24.7786 22.0716 23.4766C 23.5111 18.4315 25.1105 9.80594 21.7518 5.0863L 21.5918 4.92356C 21.4319 4.59806 21.2719 4.43532 21.112 4.10983C 19.1927 1.34314 15.9939 -0.284322 12.4753 0.0411702C 8.63673 0.366663 1.27952 2.64511 5.68219e-15 6.71376C 5.68219e-15 6.87651 0.15994 6.87651 0.15994 7.03926C 0.319879 7.202 0.319878 7.202 0.479817 7.36475L 0.639757 7.52749C 0.639757 7.69024 0.639756 7.69024 0.479817 7.85299C 0.479817 8.01573 0.639757 8.01574 0.639757 8.17848C 0.799697 8.34123 0.799698 8.34123 0.959637 8.50398C 1.27952 8.82947 1.91927 8.99221 2.23915 8.66672C 6.71745 6.06278 13.115 -0.121579 18.0732 5.90003L 18.2331 6.06278C 20.6322 10.4569 19.8325 16.9668 18.8729 21.3609C 17.7533 26.5688 15.834 31.7767 14.0747 36.8218C 13.275 39.4258 10.3961 44.6336 12.1554 47.2376C 12.1554 47.4003 12.3153 47.4003 12.4753 47.4003C 12.6352 47.7258 12.6352 47.8886 12.7952 48.2141C 12.9551 48.5395 13.5949 48.7023 13.9147 48.5396C 16.6337 48.3768 17.7533 45.1219 19.0328 43.1689C 21.5918 39.1003 23.9909 35.1944 26.5499 31.2884C 29.2689 27.2198 31.9879 23.1511 35.1867 19.408C 36.6261 17.6178 38.2255 15.9903 39.8249 14.5256C 40.7846 13.5491 41.9041 12.7354 42.8638 12.0844C 44.1433 11.1079 44.943 11.1079 45.5827 11.5962C 46.0626 13.0609 45.9026 15.1766 45.9026 15.6648C 45.9026 20.3844 44.4632 25.2668 43.5035 29.8237C 42.7038 33.4041 40.9445 38.2865 42.0641 41.8669C 42.224 42.1924 42.3839 42.5179 42.7038 42.6807C 42.7038 42.6807 42.7038 42.6807 42.7038 42.8434C 43.0237 43.8199 44.6231 44.6336 45.5827 44.7964C 48.4616 44.9591 50.221 43.0062 51.6604 40.565C 56.7785 32.2649 59.9773 22.9884 66.055 15.1766C 67.4944 13.3864 75.6514 4.27257 78.8501 7.69024C 79.8098 9.80595 78.5303 12.8981 77.8905 15.0138C 77.0908 17.7805 76.2911 20.5472 75.4914 23.4766C 73.5721 30.312 70.6932 39.7512 75.3315 45.9356C 75.6513 46.4238 75.9712 46.9121 76.451 47.5631C 78.8501 50.4925 82.5287 51.3062 86.0474 50.6552C 86.2074 49.6788 86.3673 49.1905 86.5272 48.865Z"/>
<path id="path3_fill" d="M 5.81833 3.47064L 4.76045 2.93669L 5.68609 4.00458L 9.1242 9.21054L 8.59526 10.5454L 6.30544e-08 6.94128L 0.661174 5.20596L 5.42162 7.07476L 6.4795 7.60871L 6.4795 7.47522L 5.55386 6.40733L 2.11576 1.33486L 2.64469 -1.01842e-06L 11.24 3.47064L 10.5788 5.20596L 5.81833 3.47064Z"/>
<path id="path4_fill" d="M 7.40514 4.40504L 5.55386 7.34174L 8.85972 9.47752L 7.93408 10.9459L 0 6.00688L 0.925642 4.40504L 4.09928 6.40734L 5.95056 3.47064L 2.77693 1.60183L 3.70257 -1.01842e-06L 11.6367 4.93899L 10.711 6.54082L 7.40514 4.40504Z"/>
<path id="path5_fill" d="M 5.95056 1.06789L 4.09927 3.07018L 9.78536 8.14265L 8.59525 9.47752L 2.90916 4.27156L 1.05788 6.27385L 0 5.47293L 4.76045 -5.09209e-07L 5.95056 1.06789Z"/>
<path id="path6_fill" d="M 5.04435e-07 3.60413L 4.23151 -5.09209e-07L 5.28939 1.20138L 2.51246 3.60413L 3.83481 5.33945L 6.4795 3.20367L 7.53738 4.40504L 4.89268 6.54082L 6.34727 8.27614L 9.25643 5.87339L 10.3143 7.07477L 5.95056 10.8124L 5.04435e-07 3.60413Z"/>
<path id="path7_fill" d="M -5.04435e-07 2.40275C 0.264469 2.13578 0.661174 1.86881 0.925643 1.60183C 1.19011 1.33486 1.71905 1.06789 1.98352 0.800917C 2.38022 0.533945 2.77693 0.400458 3.17363 0.133486C 3.8348 -1.29291e-07 4.23151 0 4.62821 0C 5.02492 0 5.42162 0.133486 5.95056 0.400459C 6.4795 0.667431 6.74397 1.06789 7.00844 1.60183C 7.27291 2.13578 7.53738 2.53624 7.53738 3.07018C 7.53738 3.47064 7.53738 4.00459 7.40514 4.40505C 7.27291 4.8055 7.00844 5.20596 6.74397 5.47293C 6.4795 5.73991 6.0828 6.14037 5.68609 6.27385C 5.68609 6.27385 5.55386 6.27385 5.55386 6.40734C 5.42162 6.40734 5.42162 6.54082 5.28939 6.54082C 5.15715 6.54082 5.15715 6.67431 5.02492 6.67431C 4.89268 6.67431 4.89268 6.8078 4.76045 6.8078L 6.34727 9.61101L 4.76045 10.5454L -5.04435e-07 2.40275ZM 3.0414 2.13578C 2.90916 2.26927 2.77693 2.26927 2.64469 2.40275C 2.51246 2.53624 2.38023 2.53624 2.38023 2.66972L 3.96704 5.33945L 4.09928 5.33945C 4.09928 5.33945 4.23151 5.33945 4.36375 5.20596C 4.49598 5.20596 4.49598 5.07248 4.62821 5.07248C 4.76045 5.07248 4.76045 4.93899 4.76045 4.93899C 5.02492 4.8055 5.15715 4.67202 5.28939 4.53853C 5.42162 4.40504 5.55386 4.13807 5.68609 4.00459C 5.81833 3.8711 5.81833 3.60413 5.81833 3.33715C 5.81833 3.07018 5.55386 2.80321 5.42162 2.40275C 5.28939 2.13578 5.15715 2.00229 4.89268 1.86881C 4.62821 1.73532 4.49598 1.73532 4.36375 1.73532C 4.09928 1.73532 3.96704 1.73532 3.70257 1.86881C 3.4381 1.86881 3.30587 2.00229 3.0414 2.13578Z"/>
<path id="path8_fill" d="M 6.74397 5.87339L 3.57034 7.07477L 5.02492 10.6789L 3.30587 11.3463L -5.04436e-07 2.53624L 1.71905 1.86881L 3.0414 5.47293L 6.21503 4.27156L 4.89268 0.667431L 6.61174 -1.27302e-07L 9.91761 8.81009L 8.19855 9.47752L 6.74397 5.87339Z"/>
<path id="path9_fill" d="M 1.00887e-06 1.06789L 5.42162 1.59128e-08L 5.68609 1.60183L 2.11576 2.40275L 2.51246 4.53853L 5.81833 3.8711L 6.0828 5.47293L 2.77693 6.14037L 3.30587 8.27614L 7.00844 7.47523L 7.27291 9.07706L 1.85128 10.2784L 1.00887e-06 1.06789Z"/>
<path id="path10_fill" d="M 7.40513 1.60183L 4.76044 1.73532L 5.15715 9.47752L 3.30586 9.611L 2.90916 1.86881L 0.132233 2.00229L 0 0.400459L 7.2729 0L 7.40513 1.60183Z"/>
<path id="path11_fill" d="M 0.132233 -1.27302e-07L 3.4381 0.133486L 3.30587 1.73532L 0 1.60183L 0.132233 -1.27302e-07Z"/>
<path id="path12_fill" d="M 8.06632 6.14036L 8.59525 4.40504L 8.46302 4.40504L 7.53738 5.73991L 4.89268 8.6766L 4.36374 8.54311L 3.0414 4.67202L 2.77693 3.07018L 2.64469 4.93899L 1.71905 9.611L 1.00887e-06 9.21055L 1.98352 0L 3.57034 0.400459L 5.02492 5.07247L 5.15715 6.27385L 5.81832 5.33945L 8.99196 1.73532L 10.5788 2.13578L 8.59525 11.3463L 7.00844 10.8124L 8.06632 6.14036Z"/>
<path id="path13_fill" d="M 5.81833 7.60871L 3.17363 6.40734L 1.71905 8.00917L 2.01774e-06 7.34174L 6.74396 -1.27302e-07L 7.93408 0.533945L 7.40514 10.5454L 5.68608 9.74449L 5.81833 7.60871ZM 4.2315 5.33945L 6.08279 6.14036L 6.21502 3.8711L 6.4795 2.40275L 5.68608 3.60413L 4.2315 5.33945Z"/>
<path id="path14_fill" d="M 8.59525 4.27156L 5.55385 2.40275L 1.45458 8.94358L 0 8.00917L 4.89268 -2.54605e-07L 9.52089 2.9367L 8.59525 4.27156Z"/>
<path id="path15_fill" d="M 5.55386 6.94128L 3.30587 5.07247L 1.45458 6.27385L 0 5.07247L 8.59526 -5.09209e-07L 9.65314 0.800917L 6.21503 10.2784L 4.76045 9.07706L 5.55386 6.94128ZM 4.62822 4.27156L 6.21503 5.60642L 7.00845 3.60413L 7.66962 2.26927L 6.47951 3.20367L 4.62822 4.27156Z"/>
<path id="path16_fill" d="M 3.83481 4.00459L 4.89269 3.07018L 5.15715 3.33716C 5.15715 3.33716 5.28939 3.47064 5.28939 3.60413C 5.42162 3.73761 5.42163 3.73761 5.55386 3.8711C 5.6861 4.00459 5.68609 4.00459 5.81833 4.13807C 5.95056 4.27156 5.95056 4.27156 6.08279 4.27156C 6.34726 4.40504 6.61174 4.53853 6.87621 4.67202C 7.14068 4.8055 7.40515 4.67202 7.66961 4.40505C 7.93408 4.13807 8.06631 3.8711 8.06631 3.47064C 8.06631 3.20367 7.80185 2.80321 7.53738 2.53624C 7.27291 2.26927 7.00844 2.00229 6.74397 1.73532C 6.4795 1.60183 6.21503 1.46835 5.95056 1.33486L 6.74397 5.0921e-07C 6.8762 5.0921e-07 7.00844 0.133485 7.14067 0.266971C 7.27291 0.400458 7.53738 0.533945 7.66961 0.667432C 7.80185 0.800918 8.06632 0.934404 8.33079 1.20138C 8.59526 1.33486 8.72749 1.60183 8.85973 1.73532C 9.1242 2.00229 9.38867 2.40275 9.5209 2.66973C 9.65314 2.9367 9.78537 3.33716 9.9176 3.73761C 9.9176 4.13807 9.9176 4.40505 9.78537 4.80551C 9.65313 5.07248 9.38866 5.47293 9.1242 5.73991C 8.72749 6.00688 8.33078 6.27385 7.93408 6.27385C 7.53738 6.40734 7.00844 6.27385 6.4795 6.00688C 6.74397 6.54083 6.87621 7.07477 6.87621 7.47523C 6.74397 8.00917 6.4795 8.40963 6.08279 8.81009C 5.68609 9.21055 5.28939 9.34404 4.89269 9.47752C 4.49598 9.61101 4.09928 9.61101 3.70257 9.47752C 3.30587 9.34404 2.90916 9.21055 2.51246 8.94358C 2.11576 8.6766 1.85128 8.40963 1.45458 8.00917C 1.05787 7.60872 0.793408 7.07477 0.528939 6.67431C 0.264469 6.27385 0.132233 5.87339 -2.01774e-06 5.60642L 1.45458 4.93899C 1.45458 5.20596 1.58682 5.47293 1.85129 5.73991C 1.98352 6.14037 2.24799 6.40734 2.64469 6.8078C 2.77693 6.94128 2.90917 7.07477 3.0414 7.20826C 3.17364 7.34174 3.43811 7.47523 3.57034 7.47523C 3.70258 7.47523 3.96704 7.47523 4.09927 7.47523C 4.23151 7.47523 4.49598 7.34174 4.62821 7.20826C 4.89268 6.94128 5.02492 6.54082 5.02492 6.27385C 5.02492 5.87339 4.76045 5.33945 4.23151 4.80551C 4.23151 4.67202 4.09927 4.67202 4.09927 4.67202C 4.09927 4.67202 3.96704 4.53853 3.96704 4.40505L 3.83481 4.00459Z"/>
<path id="path17_fill" d="M 7.14067 6.80779L 8.19855 6.27385L 6.87621 6.40734L 0.661178 6.14036L 4.03548e-06 4.93899L 7.93409 -1.01842e-06L 8.85973 1.60183L 4.62822 4.27156L 3.43811 4.8055L 3.43811 4.93899L 4.89269 4.8055L 10.9755 5.07247L 11.6367 6.27385L 3.70257 11.2128L 2.77693 9.611L 7.14067 6.80779Z"/>
<path id="path18_fill" d="M 5.55385 6.94128L 4.23151 3.73761L 0.661175 5.20596L 2.01774e-06 3.47064L 8.59525 -9.48476e-15L 9.25643 1.73532L 5.68609 3.20367L 7.00843 6.40734L 10.5788 4.93899L 11.2399 6.67431L 2.64469 10.1449L 1.98352 8.40963L 5.55385 6.94128Z"/>
<path id="path19_fill" d="M 5.02492 6.27384L 4.09928 3.07018L 0.396704 4.13807L 0 2.40275L 8.85972 0L 9.25643 1.60183L 5.68609 2.66972L 6.61174 5.87339L 10.1821 4.93898L 10.711 6.67431L 1.85129 9.07706L 1.32235 7.34174L 5.02492 6.27384Z"/>
<path id="path20_fill" d="M 4.09928 4.93899L 2.90916 2.40275L 0.793408 2.53624L 1.26109e-07 0.934407L 9.78537 -2.03684e-06L 10.3143 1.20138L 3.30587 8.14265L 2.51246 6.40734L 4.09928 4.93899ZM 4.49598 2.13577L 5.28939 3.8711L 6.8762 2.40275L 8.06632 1.60184L 6.61173 2.00229L 4.49598 2.13577Z"/>
<path id="path21_fill" d="M 8.72749 6.94128L 7.27291 4.67202L 0.925643 8.81009L 0 7.34174L 6.34727 3.20367L 4.89268 0.934399L 6.21503 0L 10.0498 6.00688L 8.72749 6.94128Z"/>
<path id="path22_fill" d="M 5.28939 6.00687L 4.62822 6.94128L 5.68609 6.27385L 9.5209 4.67201L 10.711 6.00687L 4.36375 8.40963C 3.83481 8.54311 3.4381 8.81009 3.0414 8.81009C 2.6447 8.94358 2.24799 8.94357 1.98352 8.94357C 1.71905 8.94357 1.32235 8.94358 1.19011 8.81009C 1.05788 8.67661 0.661173 8.54312 0.528939 8.27614C 0.396704 8.00917 0.132234 7.87568 0.132234 7.7422C -5.02465e-07 7.60871 2.52218e-07 7.34174 2.52218e-07 7.07477L 1.32235 6.40734C 1.32235 6.54082 1.45458 6.67431 1.45458 6.8078C 1.58682 6.94128 1.58682 7.07477 1.71905 7.07477C 1.98352 7.34174 2.38023 7.34174 3.0414 7.07477L 5.68609 -4.07367e-06L 7.14068 1.60184L 5.28939 6.00687Z"/>
<path id="path23_fill" d="M 5.68609 -2.03684e-06C 5.95056 0.133484 6.34727 0.400457 6.74397 0.66743C 7.14068 0.934402 7.40515 1.20137 7.80185 1.46835C 8.19855 1.73532 8.46302 2.13578 8.72749 2.40276C 8.99196 2.80321 9.25643 3.07019 9.38867 3.60413C 9.5209 4.00459 9.5209 4.40505 9.5209 4.939C 9.38867 5.33946 9.25643 5.8734 8.85973 6.40734C 8.46302 6.8078 8.06632 7.20826 7.66961 7.34174C 7.27291 7.47523 6.87621 7.60872 6.4795 7.60872C 6.0828 7.60872 5.68609 7.47523 5.28939 7.34174C 4.89269 7.20826 4.49598 6.94129 4.09928 6.67431L 3.96704 6.54083C 3.83481 6.54083 3.83481 6.40734 3.70257 6.40734C 3.57034 6.40734 3.57034 6.27385 3.4381 6.14037C 3.30587 6.00688 3.30587 6.00688 3.30587 6.00688L 1.32235 8.40964L 5.04435e-07 7.20826L 5.68609 -2.03684e-06ZM 6.87621 2.80321C 6.74397 2.66972 6.61174 2.53624 6.4795 2.53624C 6.34727 2.40275 6.21503 2.40276 6.21503 2.26927L 4.23151 4.53853C 4.23151 4.53853 4.23151 4.67202 4.36375 4.67202L 4.49598 4.8055L 4.62822 4.939L 4.76045 5.07248C 4.89269 5.20597 5.15716 5.33945 5.28939 5.47293C 5.55386 5.60642 5.68609 5.60643 5.95056 5.73991C 6.21503 5.73991 6.34727 5.73992 6.61174 5.60643C 6.87621 5.47294 7.00844 5.33945 7.27291 5.07248C 7.40515 4.80551 7.53738 4.67202 7.66961 4.40505C 7.66961 4.13808 7.66961 4.00459 7.66961 3.73762C 7.66961 3.60413 7.53738 3.33716 7.40515 3.20367C 7.27291 3.07019 7.00844 2.93669 6.87621 2.80321Z"/>
<path id="path24_fill" d="M 5.55386 7.34174L 3.17363 5.8734L 1.58682 7.20826L -1.00887e-06 6.27385L 7.66961 2.03684e-06L 8.85973 0.667433L 6.8762 10.4119L 5.28939 9.47752L 5.55386 7.34174ZM 4.36375 4.8055L 6.0828 5.8734L 6.61173 3.73761L 7.14068 2.40275L 5.95056 3.47064L 4.36375 4.8055Z"/>
<path id="path25_fill" d="M 7.80184 2.93669L 6.08279 2.13578C 5.68609 2.9367 5.42162 3.60413 5.15715 4.13807C 4.89268 4.67202 4.62821 5.33944 4.23151 5.7399C 3.96704 6.27385 3.70257 6.67431 3.4381 6.94128C 3.17363 7.34174 2.90916 7.60871 2.64469 7.74219C 2.51246 7.87568 2.24799 8.00917 2.11576 8.00917C 1.98352 8.00917 1.71905 8.14266 1.58681 8.14266C 1.45458 8.14266 1.19011 8.14266 1.05788 8.14266C 0.925642 8.14266 0.793408 8.00917 0.661174 8.00917C 0.528939 7.87569 0.264468 7.87568 0.264468 7.74219C 0.132234 7.60871 5.04435e-07 7.60871 5.04435e-07 7.47523L 0.793409 6.14036L 0.925641 6.27385C 0.925641 6.27385 1.05788 6.27385 1.05788 6.40733C 1.19011 6.40733 1.32235 6.54082 1.45458 6.40733C 1.58682 6.27385 1.71905 6.27385 1.85128 6.27385C 1.98352 6.14036 2.24799 5.87339 2.51246 5.60642C 2.77693 5.33944 3.0414 4.93898 3.30587 4.40504C 3.57034 3.87109 3.96704 3.33716 4.23151 2.53624C 4.62821 1.86881 4.89268 0.934405 5.42162 2.03684e-06L 10.4465 2.13578L 7.00844 10.6789L 5.28938 10.0115L 7.80184 2.93669Z"/>
<path id="path26_fill" d="M 1.98352 4.07367e-06L 3.70257 0.400456L 2.90917 3.60412C 2.90917 3.60412 3.0414 3.60412 3.17363 3.60412C 3.30587 3.60412 3.4381 3.60412 3.4381 3.60412C 3.57034 3.60412 3.70257 3.60412 3.8348 3.60412C 3.96704 3.60412 4.09928 3.60412 4.23151 3.60412C 4.62822 3.7376 5.02492 3.87109 5.42162 4.00458C 5.81833 4.13807 6.0828 4.40504 6.34727 4.67201C 6.61173 4.93898 6.74397 5.33943 6.87621 5.73989C 7.00844 6.14035 7.00844 6.67429 6.87621 7.20823C 6.61174 8.27612 6.0828 8.94356 5.42162 9.34401C 4.62821 9.74447 3.70257 9.74447 2.51246 9.4775C 2.38022 9.4775 2.24799 9.34401 1.98352 9.34401C 1.85129 9.34401 1.58682 9.21052 1.32235 9.21052C 1.05788 9.07703 0.793409 9.07704 0.661174 8.94355C 0.396705 8.81007 0.26447 8.81007 1.00887e-06 8.67659L 1.98352 4.07367e-06ZM 2.90917 8.14264C 3.17363 8.14264 3.4381 8.27612 3.57034 8.27612C 3.83481 8.27612 3.96704 8.27613 4.23151 8.14264C 4.36375 8.00915 4.62821 7.87566 4.76045 7.74218C 4.89268 7.60869 5.02492 7.34172 5.02492 7.07475C 5.15715 6.80778 5.15715 6.54081 5.02492 6.27384C 5.02492 6.00686 4.89268 5.87338 4.76045 5.73989C 4.62821 5.6064 4.49598 5.47292 4.23151 5.33944C 3.96704 5.20595 3.83481 5.20595 3.57034 5.07246C 3.57034 5.07246 3.4381 5.07246 3.30587 5.07246C 3.17363 5.07246 3.17363 5.07246 3.0414 5.07246C 2.90916 5.07246 2.90916 5.07246 2.77693 5.07246C 2.64469 5.07246 2.64469 5.07246 2.64469 5.07246L 1.98352 7.74218C 2.11576 7.74218 2.24799 7.87566 2.38022 7.87566C 2.51246 8.00915 2.6447 8.14264 2.90917 8.14264Z"/>
<path id="path27_fill" d="M 5.42162 5.73991L 2.11576 5.47294L 1.85128 9.34403L -2.01774e-06 9.21055L 0.661171 -4.07368e-06L 2.51246 0.13349L 2.24799 3.8711L 5.55385 4.13808L 5.81832 0.400459L 7.66961 0.533943L 7.00844 9.74449L 5.15715 9.61101L 5.42162 5.73991Z"/>
<path id="path28_fill" d="M 0.0336959 5.07247C -0.0985388 3.60412 0.165931 2.26927 0.694869 1.46835C 1.22381 0.533948 2.14945 -4.07367e-06 3.4718 -4.07367e-06C 4.13297 -4.07367e-06 4.66191 4.0677e-06 5.19085 0.13349C 5.71979 0.266976 6.11649 0.533946 6.5132 0.934405C 6.9099 1.33486 7.17437 1.8688 7.43884 2.40275C 7.70331 2.93669 7.83554 3.60413 7.83554 4.27156C 7.96778 5.7399 7.70331 7.07476 7.17437 7.87568C 6.64543 8.81008 5.71979 9.34402 4.39744 9.34402C 3.73627 9.34402 3.20733 9.34402 2.67839 9.21054C 2.14945 9.07705 1.75275 8.81008 1.35604 8.40962C 0.959338 8.00916 0.694871 7.47522 0.562636 6.94128C 0.298167 6.40733 0.0336959 5.7399 0.0336959 5.07247ZM 1.88498 4.93899C 1.88498 5.33944 2.01722 5.87339 2.14945 6.27385C 2.28169 6.67431 2.41392 6.94127 2.54616 7.20825C 2.67839 7.47522 2.94286 7.60871 3.20733 7.74219C 3.4718 7.87568 3.73627 7.87568 4.13297 7.87568C 4.79415 7.87568 5.19085 7.47522 5.58755 6.94128C 5.85202 6.40733 5.98426 5.60641 5.85202 4.40504C 5.85202 4.00458 5.71979 3.60412 5.58755 3.20366C 5.45532 2.80321 5.32308 2.53624 5.19085 2.26927C 5.05861 2.00229 4.79415 1.73532 4.52968 1.60183C 4.26521 1.46835 4.00074 1.46835 3.60403 1.46835C 2.94286 1.46835 2.54616 1.8688 2.14945 2.40275C 1.88498 2.93669 1.75275 3.73761 1.88498 4.93899Z"/>
<path id="path29_fill" d="M 5.55385 1.60183L 2.11575 2.53624L 3.96704 9.87799L 2.24798 10.2784L 2.01774e-06 1.33486L 5.15715 2.03684e-06L 5.55385 1.60183Z"/>
<path id="path30_fill" d="M 0.587706 6.40733C 0.0587669 4.93899 -0.205696 3.73762 0.191008 2.66973C 0.455477 1.60184 1.24888 0.934399 2.30676 0.400455C 2.96794 0.133482 3.49688 2.03684e-06 4.02582 2.03684e-06C 4.55476 2.03684e-06 5.08369 0.133482 5.4804 0.400455C 5.8771 0.667427 6.40604 1.06789 6.67051 1.46835C 7.06722 2.00229 7.33168 2.53624 7.59615 3.20367C 8.12509 4.67202 8.38956 5.87339 7.99286 6.94128C 7.72839 8.00917 6.93497 8.67661 5.87709 9.21055C 5.21592 9.47753 4.68699 9.61101 4.15805 9.61101C 3.62911 9.61101 3.10017 9.47753 2.70347 9.21055C 2.30677 8.94358 1.77782 8.54312 1.51336 8.14266C 1.11665 7.60871 0.852175 7.07477 0.587706 6.40733ZM 2.30676 5.60642C 2.439 6.00688 2.70347 6.40734 2.96793 6.8078C 3.2324 7.20826 3.49687 7.34174 3.62911 7.60871C 3.89358 7.7422 4.15805 7.87569 4.42251 8.00918C 4.68698 8.00918 5.08369 8.00918 5.34816 7.87569C 5.8771 7.60872 6.2738 7.20826 6.40604 6.54083C 6.53827 6.00688 6.40604 5.07248 6.00934 4.13807C 5.8771 3.73761 5.61263 3.33715 5.4804 3.07018C 5.21593 2.80321 5.08369 2.53624 4.81922 2.26926C 4.55475 2.00229 4.29029 1.86881 4.02582 1.86881C 3.76135 1.86881 3.36464 1.86881 3.10017 2.0023C 2.57123 2.26927 2.17453 2.66973 2.0423 3.33716C 1.77783 3.8711 1.91006 4.67202 2.30676 5.60642Z"/>
<path id="path31_fill" d="M 5.68609 13.3486L 4.03548e-06 6.14036L 1.45458 4.93898L 6.21503 10.9459L 7.93409 9.61099L 3.17363 3.7376L 4.62822 2.53624L 9.38867 8.40962L 11.1077 7.07475L 6.34727 1.20138L 7.80185 2.03683e-06L 13.4879 7.20825L 5.68609 13.3486Z"/>
<path id="path32_fill" d="M -4.03549e-06 4.13807L 3.57034 2.03684e-06L 4.76046 1.06788L 2.38023 3.8711L 3.96704 5.33944L 6.0828 2.80321L 7.27291 3.8711L 5.15715 6.40733L 6.87621 7.87568L 9.25643 5.07247L 10.4465 6.14036L 6.87621 10.2784L -4.03549e-06 4.13807Z"/>
<path id="path33_fill" d="M 3.04141 2.40275L 1.98352 4.00458C 2.6447 4.53853 3.30588 4.93899 3.83481 5.33944C 4.36375 5.7399 4.89269 6.14036 5.2894 6.54082C 5.6861 6.94128 6.08281 7.20826 6.34728 7.60872C 6.61175 7.87569 6.87622 8.27614 7.00845 8.54312C 7.14069 8.81009 7.14069 8.94357 7.27292 9.21055C 7.27292 9.47752 7.27292 9.61101 7.27292 9.74449C 7.27292 9.87798 7.27292 10.145 7.14069 10.2784C 7.14069 10.4119 7.00845 10.5454 6.87621 10.6789C 6.74398 10.8124 6.61175 10.9459 6.61175 11.0794C 6.61175 11.2128 6.34728 11.2128 6.34728 11.3463L 5.15716 10.4119L 5.2894 10.2784L 5.42163 10.145C 5.55386 10.0115 5.55386 9.87798 5.55386 9.74449C 5.55386 9.61101 5.55386 9.47752 5.42163 9.21055C 5.28939 8.94357 5.15716 8.81009 4.89269 8.40963C 4.62822 8.14266 4.23152 7.74221 3.83481 7.47523C 3.43811 7.07477 2.77693 6.67431 2.24799 6.27385C 1.71905 5.8734 0.79341 5.33944 3.75834e-14 4.67201L 2.90916 -4.07368e-06L 10.711 4.93899L 9.78539 6.40734L 3.04141 2.40275Z"/>
<path id="path34_fill" d="M 5.68609 6.27385L 5.55386 6.67431L 9.12419 8.14266L 8.46301 9.74449L 4.03548e-06 6.14037L 0.661177 4.53853L 4.36374 6.14037L 4.36374 5.73991L 1.71905 1.8688L 2.51245 -4.07368e-06L 5.02492 4.00458L 5.15715 4.80551L 5.95056 4.27156L 11.1077 3.07018L 10.3143 5.07247L 5.68609 6.27385Z"/>
<path id="path35_fill" d="M 7.40514 2.13578L 6.74397 4.93899L 8.59526 6.14037L 8.19855 7.87569L 2.01774e-06 2.40275L 0.264467 1.06789L 10.0498 2.03684e-06L 9.65313 1.86881L 7.40514 2.13578ZM 5.42162 4.13807L 5.95056 2.26926L 3.83481 2.40275L 2.38022 2.26926L 3.70257 2.93669L 5.42162 4.13807Z"/>
</defs>
</svg>
