<svg width="34" height="43" viewBox="0 0 34 43" version="1.1" xmlns="http://www.w3.org/2000/svg" xmlns:xlink="http://www.w3.org/1999/xlink">
    <title>Group 2</title>
    <desc>Created using Figma</desc>
    <g id="Canvas" transform="translate(-2937 10350)">
        <g id="Group 2">
            <g id="2">
                <path d="M -0.631215 12L 7.11278 12L 7.11278 10.208L 3.25678 10.208L 5.09678 8.208C 5.92878 7.312 7.03278 6.128 7.03278 4.48C 7.03278 2.784 5.75278 1.088 3.27278 1.088C 1.16078 1.088 -0.375215 2.48 -0.471215 4.656L 1.67278 4.656C 1.70478 3.744 2.28078 2.88 3.36878 2.88C 4.26478 2.88 4.95279 3.536 4.95279 4.496C 4.95279 5.12 4.61678 5.776 4.32878 6.208C 3.94478 6.784 2.69678 8.208 2.50478 8.432L -0.631215 12Z" transform="translate(2950.04 -10328.5)" fill="#FFDAD4"></path>
            </g>
            <g id="Group">
                <g id="Vector">
                    <path d="M 0 0L 0 -1.05L -1.05 -1.05L -1.05 0L 0 0ZM 0 25.5485L -1.05 25.5485L -1.05 26.5985L 0 26.5985L 0 25.5485ZM 31 25.5485L 31 26.5985L 32.05 26.5985L 32.05 25.5485L 31 25.5485ZM 31 0L 32.05 0L 32.05 -1.05L 31 -1.05L 31 0ZM -1.05 0L -1.05 25.5485L 1.05 25.5485L 1.05 0L -1.05 0ZM 0 26.5985L 31 26.5985L 31 24.4985L 0 24.4985L 0 26.5985ZM 32.05 25.5485L 32.05 0L 29.95 0L 29.95 25.5485L 32.05 25.5485ZM 31 -1.05L 0 -1.05L 0 1.05L 31 1.05L 31 -1.05Z" transform="translate(2938.51 -10334.5)" fill="#FFDAD4"></path>
                </g>
                <g id="Ellipse 2">
                    <path d="M 1.05 14.3477C 1.05 9.82832 2.16677 6.48869 3.85695 4.30468C 5.53241 2.13969 7.81182 1.05 10.3333 1.05L 10.3333 -1.05C 7.1479 -1.05 4.26065 0.351779 2.19618 3.01944C 0.146424 5.66809 -1.05 9.50228 -1.05 14.3477L 1.05 14.3477ZM 10.3333 1.05C 12.8559 1.05 15.1351 2.13673 16.81 4.29928C 18.4997 6.48102 19.6167 9.82032 19.6167 14.3477L 21.7167 14.3477C 21.7167 9.49501 20.5204 5.66048 18.4702 3.0134C 16.4052 0.347105 13.5177 -1.05 10.3333 -1.05L 10.3333 1.05Z" transform="translate(2943.68 -10348)" fill="#FFDAD4"></path>
                </g>
            </g>
        </g>
    </g>
</svg>