<svg width="70" height="84" viewBox="0 0 70 84" version="1.1" xmlns="http://www.w3.org/2000/svg" xmlns:xlink="http://www.w3.org/1999/xlink">
    <title>Group</title>
    <desc>Created using Figma</desc>
    <g id="Canvas" transform="translate(-10979 17121)">
        <g id="Group">
            <g id="Vector">
                <path d="M 0 0L 0 -2.5L -2.5 -2.5L -2.5 0L 0 0ZM 0 51.1781L -2.5 51.1781L -2.5 53.6781L 0 53.6781L 0 51.1781ZM 63.9723 51.1781L 63.9723 53.6781L 66.4723 53.6781L 66.4723 51.1781L 63.9723 51.1781ZM 63.9723 0L 66.4723 0L 66.4723 -2.5L 63.9723 -2.5L 63.9723 0ZM -2.5 0L -2.5 51.1781L 2.5 51.1781L 2.5 0L -2.5 0ZM 0 53.6781L 63.9723 53.6781L 63.9723 48.6781L 0 48.6781L 0 53.6781ZM 66.4723 51.1781L 66.4723 0L 61.4723 0L 61.4723 51.1781L 66.4723 51.1781ZM 63.9723 -2.5L 0 -2.5L 0 2.5L 63.9723 2.5L 63.9723 -2.5Z" transform="translate(10982 -17090.8)" fill="#E4EAED"></path>
            </g>
            <g id="Ellipse 2">
                <path d="M 2.5 28.7409C 2.5 19.7652 4.78395 13.1796 8.20049 8.89419C 11.5851 4.64878 16.1967 2.5 21.3241 2.5L 21.3241 -2.5C 14.6746 -2.5 8.62408 0.342068 4.29089 5.7773C -0.0103809 11.1725 -2.5 18.9574 -2.5 28.7409L 2.5 28.7409ZM 21.3241 2.5C 26.454 2.5 31.065 4.64308 34.4483 8.88348C 37.8639 13.1643 40.1482 19.749 40.1482 28.7409L 45.1482 28.7409C 45.1482 18.9429 42.659 11.1573 38.3567 5.76508C 34.0222 0.332476 27.9712 -2.5 21.3241 -2.5L 21.3241 2.5Z" transform="translate(10992.7 -17117.8)" fill="#E4EAED"></path>
            </g>
        </g>
    </g>
</svg>