<svg width="121" height="97" viewBox="0 0 121 97" version="1.1" xmlns="http://www.w3.org/2000/svg" xmlns:xlink="http://www.w3.org/1999/xlink">
<title>Group 3.2</title>
<desc>Created using Figma</desc>
<g id="Canvas" transform="translate(17303 18688)">
<g id="Group 3.2">
<g id="Vector 7">
<use xlink:href="#path0_stroke" transform="translate(-17261.3 -18630.9)" fill="#FFFFFF"/>
</g>
<g id="Vector 5">
<use xlink:href="#path1_stroke" transform="translate(-17301 -18686.1)" fill="#FFFFFF"/>
</g>
<g id="Ellipse">
<mask id="mask0_outline_ins">
<use xlink:href="#path2_fill" fill="white" transform="translate(-17278.7 -18675.3)"/>
</mask>
<g mask="url(#mask0_outline_ins)">
<use xlink:href="#path3_stroke_2x" transform="translate(-17278.7 -18675.3)" fill="#FFFFFF"/>
</g>
</g>
<g id="Vector 6">
<use xlink:href="#path4_stroke" transform="matrix(-0.985089 -0.172046 -0.169198 0.985582 -17185.2 -18674.8)" fill="#FFFFFF"/>
</g>
<g id="Vector 8">
<use xlink:href="#path5_stroke" transform="translate(-17191.9 -18649)" fill="#FFFFFF"/>
</g>
<g id="Vector 9">
<use xlink:href="#path6_stroke" transform="matrix(0.937169 -0.348877 0.346305 0.938122 -17251.1 -18642.7)" fill="#FFFFFF"/>
</g>
</g>
</g>
<defs>
<path id="path0_stroke" d="M 7.93677 23.2642L 6.44058 23.1573L 7.93677 23.2642ZM 6.81559 35.0349L 5.33016 34.8264L 6.81559 35.0349ZM 14.6638 34.4744L 16.1547 34.6401L 16.156 34.6277L 14.6638 34.4744ZM 44.3751 31.6719L 45.8699 31.7965L 44.3751 31.6719ZM 49.726 37.8375L 50.0898 36.3823L 49.9106 36.3375L 49.726 36.3375L 49.726 37.8375ZM 52.529 32.7929L 54.0215 32.9422L 54.0317 32.8405L 54.028 32.7384L 52.529 32.7929ZM 52.2233 24.3852L 50.7461 24.125L 50.7186 24.2812L 50.7243 24.4397L 52.2233 24.3852ZM -1.14302 0.971344C 0.704239 3.14508 2.78858 5.68252 4.32637 9.16957C 5.85594 12.638 6.87223 17.1151 6.44058 23.1573L 9.43295 23.3711C 9.89825 16.8579 8.80494 11.8902 7.0713 7.95906C 5.34587 4.04651 3.01335 1.22955 1.14302 -0.971344L -1.14302 0.971344ZM 6.44058 23.1573C 6.31559 24.9069 5.94115 30.4752 5.33016 34.8264L 8.30101 35.2435C 8.92922 30.7697 9.31024 25.0889 9.43295 23.3711L 6.44058 23.1573ZM 5.33016 34.8264C 5.21517 35.6453 5.27127 36.7928 5.99052 37.7734C 6.75743 38.819 8.02372 39.3375 9.61853 39.3375L 9.61853 36.3375C 8.66985 36.3375 8.4504 36.0547 8.40959 35.9991C 8.32111 35.8785 8.24749 35.6247 8.30101 35.2435L 5.33016 34.8264ZM 9.61853 39.3375C 9.96021 39.3375 10.2867 39.3472 10.6146 39.3577C 10.9337 39.368 11.269 39.3795 11.5865 39.3795C 12.2001 39.3795 12.9386 39.3417 13.6368 39.0612C 15.2969 38.3942 15.9184 36.766 16.1547 34.6401L 13.173 34.3088C 12.9608 36.2186 12.5325 36.2718 12.5184 36.2775C 12.3795 36.3333 12.1249 36.3795 11.5865 36.3795C 11.3279 36.3795 11.0475 36.3701 10.7107 36.3593C 10.3827 36.3488 10.0133 36.3375 9.61853 36.3375L 9.61853 39.3375ZM 16.156 34.6277L 18.2213 14.5271L 15.237 14.2205L 13.1717 34.3211L 16.156 34.6277ZM 41.2381 16.3415C 41.9749 19.2881 43.3078 26.418 42.8803 31.5473L 45.8699 31.7965C 46.3393 26.164 44.9066 18.6459 44.1485 15.6137L 41.2381 16.3415ZM 42.8803 31.5473C 42.8126 32.3594 42.7827 34.1069 43.2491 35.7161C 43.4837 36.5256 43.8765 37.4161 44.56 38.1217C 45.2832 38.8683 46.268 39.3375 47.4837 39.3375L 47.4837 36.3375C 47.107 36.3375 46.8919 36.2172 46.7148 36.0344C 46.498 35.8106 46.2901 35.4316 46.1305 34.881C 45.8085 33.77 45.8167 32.4347 45.8699 31.7965L 42.8803 31.5473ZM 47.4837 39.3375L 49.726 39.3375L 49.726 36.3375L 47.4837 36.3375L 47.4837 39.3375ZM 49.3623 39.2927C 50.4742 39.5707 51.6276 39.0334 52.433 37.9755C 53.2225 36.9387 53.7841 35.3161 54.0215 32.9422L 51.0364 32.6436C 50.8254 34.7538 50.3592 35.7469 50.0462 36.1581C 49.7491 36.5482 49.7253 36.2911 50.0898 36.3823L 49.3623 39.2927ZM 54.028 32.7384L 53.7223 24.3308L 50.7243 24.4397L 51.0299 32.8474L 54.028 32.7384ZM 53.7006 24.6455C 53.8211 23.9616 53.9218 22.9345 54.0452 21.8904C 54.1739 20.8007 54.3377 19.5823 54.5925 18.3577C 55.1182 15.8309 55.9703 13.6036 57.3712 12.378L 55.3958 10.1201C 53.2089 12.0334 52.2022 15.1181 51.6554 17.7467C 51.3739 19.0997 51.1981 20.4199 51.0659 21.5383C 50.9283 22.7023 50.8469 23.5529 50.7461 24.125L 53.7006 24.6455Z"/>
<path id="path1_stroke" d="M 22.3098 4.28947L 23.0374 5.60116L 23.0521 5.59304L 23.0665 5.5846L 22.3098 4.28947ZM 3.10223 20.538L 1.95641 19.57L 1.94143 19.5877L 1.92701 19.6059L 3.10223 20.538ZM 0.623833 23.6627L 1.68207 24.7258L 1.7444 24.6638L 1.79905 24.5949L 0.623833 23.6627ZM 1.86303 28.6623L 0.836421 29.756L 0.866431 29.7841L 0.897941 29.8106L 1.86303 28.6623ZM 5.58098 31.7871L 4.61589 32.9354L 4.69856 33.0048L 4.79032 33.0618L 5.58098 31.7871ZM 13.0162 31.7871L 13.8161 33.056L 13.8901 33.0093L 13.9581 32.9544L 13.0162 31.7871ZM 20.4513 29.9122L 20.7 28.433L 20.6827 28.4301L 20.6653 28.4275L 20.4513 29.9122ZM 46.4745 17.4133L 46.4745 18.9133L 46.6151 18.9133L 46.7532 18.8871L 46.4745 17.4133ZM 21.3398 4.84566L 22.1021 6.13753L 21.3398 4.84566ZM 8.67897 5.53909L 9.94247 4.73065L 9.81089 4.52501L 9.62089 4.3717L 8.67897 5.53909ZM 14.875 9.17903L 15.7713 10.3818L 14.875 9.17903ZM 40.1953 6.45881C 38.4987 4.40529 35.9124 2.34884 32.69 1.39843C 29.4185 0.433519 25.5831 0.639664 21.5531 2.99434L 23.0665 5.5846C 26.3779 3.6498 29.3581 3.54348 31.8413 4.27588C 34.3737 5.02278 36.4812 6.67344 37.8826 8.36961L 40.1953 6.45881ZM 1.92701 19.6059L -0.551386 22.7306L 1.79905 24.5949L 4.27745 21.4701L 1.92701 19.6059ZM -0.434402 22.5997C -1.08841 23.2507 -1.60246 24.3289 -1.48264 25.6581C -1.36258 26.9899 -0.628035 28.3813 0.836421 29.756L 2.88964 27.5687C 1.78192 26.5289 1.54012 25.7756 1.50525 25.3888C 1.47015 24.9994 1.62259 24.785 1.68207 24.7258L -0.434402 22.5997ZM 0.897941 29.8106L 4.61589 32.9354L 6.54607 30.6388L 2.82812 27.514L 0.897941 29.8106ZM 4.79032 33.0618C 5.27695 33.3636 6.4102 34.1801 7.9704 34.4662C 9.609 34.7667 11.5594 34.4786 13.8161 33.056L 12.2162 30.5181C 10.5075 31.5954 9.31283 31.6624 8.51145 31.5154C 7.63169 31.3541 7.03006 30.9208 6.37163 30.5124L 4.79032 33.0618ZM 13.9581 32.9544C 14.7568 32.31 17.2828 30.9711 20.2374 31.3969L 20.6653 28.4275C 16.6804 27.8534 13.3409 29.5976 12.0742 30.6197L 13.9581 32.9544ZM 20.2027 31.3915C 22.818 31.8311 26.8547 32.0058 30.4977 31.0507C 34.1516 30.0927 37.75 27.8785 38.6519 23.3295L 35.7091 22.7461C 35.1242 25.6964 32.8366 27.3361 29.7368 28.1488C 26.6262 28.9643 23.0416 28.8266 20.7 28.433L 20.2027 31.3915ZM 37.1809 11.2798C 39.1491 10.3864 42.2731 9.32178 45.2053 9.01532C 48.2615 8.69591 50.4355 9.25288 51.4191 10.741L 53.9218 9.08677C 51.9313 6.07525 48.1159 5.69479 44.8935 6.03157C 41.5471 6.38131 38.1034 7.5665 35.941 8.54799L 37.1809 11.2798ZM 51.4191 10.741C 51.998 11.6169 52.0352 12.2036 51.9543 12.5852C 51.8657 13.0033 51.5727 13.468 50.9768 13.9559C 49.7497 14.9604 47.7417 15.647 46.1957 15.9394L 46.7532 18.8871C 48.5118 18.5545 51.0888 17.7413 52.8771 16.2772C 53.7889 15.5308 54.6111 14.5192 54.8892 13.2069C 55.1749 11.8582 54.8299 10.4607 53.9218 9.08677L 51.4191 10.741ZM 46.4745 15.9133C 45.4144 15.9133 42.4344 15.571 39.7144 14.1991L 38.3635 16.8777C 41.5911 18.5056 45.0557 18.9133 46.4745 18.9133L 46.4745 15.9133ZM 21.5821 2.97778C 21.2731 3.14922 20.937 3.34167 20.5775 3.55379L 22.1021 6.13753C 22.441 5.93753 22.754 5.75842 23.0374 5.60116L 21.5821 2.97778ZM 22.379 3.76394C 21.1194 2.55389 19.0065 0.873948 16.7051 -0.25476C 14.5013 -1.33558 11.6015 -2.16184 9.16913 -0.759939L 10.6672 1.83925C 11.7046 1.24132 13.3349 1.43376 15.3841 2.43875C 17.3356 3.39585 19.1987 4.86883 20.3006 5.92738L 22.379 3.76394ZM 9.16913 -0.759939C 7.18688 0.382553 6.11962 1.83097 6.11019 3.46821C 6.10144 4.98549 7.01759 6.12597 7.73706 6.70648L 9.62089 4.3717C 9.30769 4.119 9.10856 3.75967 9.11014 3.4855C 9.11103 3.33129 9.1797 2.69659 10.6672 1.83925L 9.16913 -0.759939ZM 20.5775 3.55379C 18.8266 4.58695 16.4886 6.10584 13.9787 7.97626L 15.7713 10.3818C 18.195 8.5756 20.4435 7.11618 22.1021 6.13753L 20.5775 3.55379ZM 13.9787 7.97626C 9.78934 11.0982 5.63197 15.2194 1.95641 19.57L 4.24805 21.506C 7.8201 17.2779 11.8136 13.331 15.7713 10.3818L 13.9787 7.97626ZM 7.41547 6.34753C 8.24038 7.63676 10.6978 9.99267 14.6244 10.658L 15.1255 7.7001C 12.1126 7.18963 10.3568 5.37815 9.94247 4.73065L 7.41547 6.34753Z"/>
<path id="path2_fill" d="M 6.19599 3.12474C 6.19599 4.85049 4.80897 6.24948 3.09799 6.24948C 1.38702 6.24948 0 4.85049 0 3.12474C 0 1.39899 1.38702 0 3.09799 0C 4.80897 0 6.19599 1.39899 6.19599 3.12474Z"/>
<path id="path3_stroke_2x" d="M 4.69599 3.12474C 4.69599 4.03424 3.96841 4.74948 3.09799 4.74948L 3.09799 7.74948C 5.64953 7.74948 7.69599 5.66673 7.69599 3.12474L 4.69599 3.12474ZM 3.09799 4.74948C 2.22758 4.74948 1.5 4.03424 1.5 3.12474L -1.5 3.12474C -1.5 5.66673 0.546461 7.74948 3.09799 7.74948L 3.09799 4.74948ZM 1.5 3.12474C 1.5 2.21524 2.22758 1.5 3.09799 1.5L 3.09799 -1.5C 0.546461 -1.5 -1.5 0.582749 -1.5 3.12474L 1.5 3.12474ZM 3.09799 1.5C 3.96841 1.5 4.69599 2.21524 4.69599 3.12474L 7.69599 3.12474C 7.69599 0.582749 5.64953 -1.5 3.09799 -1.5L 3.09799 1.5Z"/>
<path id="path4_stroke" d="M 47.2819 3.24471L 47.2819 4.74471L 47.6325 4.74471L 47.9468 4.5893L 47.2819 3.24471ZM 28.0833 5.04071L 29.1428 6.10253L 29.2337 6.01183L 29.3078 5.907L 28.0833 5.04071ZM 10.6845 13.4216L 10.9284 14.9016L 11.7623 14.7642L 12.0768 13.9797L 10.6845 13.4216ZM 3.48507 29.5846L 4.69726 30.4682L 5.23553 29.7297L 4.82612 28.9126L 3.48507 29.5846ZM 6.48497 46.9451L 7.98497 46.9451L 7.98497 45.8633L 6.95837 45.5218L 6.48497 46.9451ZM 18.4838 60.1152L 19.727 59.2758L 19.305 58.6509L 18.5518 58.6167L 18.4838 60.1152ZM 38.2824 64.9043L 39.4124 63.9179L 38.5073 62.881L 37.3966 63.6937L 38.2824 64.9043ZM 57.481 60.1152L 57.481 58.6152L 56.2644 58.6152L 56.0133 59.8055L 57.481 60.1152ZM 70.68 50.537L 71.0202 49.076L 69.495 48.7209L 69.2058 50.2599L 70.68 50.537ZM 62.0896 7.75486C 62.1861 7.85118 62.2177 7.9183 62.1406 7.79778C 62.089 7.7171 62.0222 7.60652 61.9254 7.446C 61.7396 7.13775 61.4808 6.70857 61.1564 6.22453C 60.5103 5.26076 59.5758 4.03617 58.3177 2.97131C 57.0538 1.90147 55.4306 0.965993 53.4251 0.648384C 51.4071 0.328792 49.1331 0.655908 46.617 1.90012L 47.9468 4.5893C 49.9874 3.5802 51.6354 3.40233 52.9558 3.61146C 54.2888 3.82256 55.4206 4.4495 56.3795 5.26115C 57.3443 6.07778 58.1005 7.05376 58.6645 7.89501C 58.945 8.31349 59.1711 8.68794 59.3563 8.9951C 59.4451 9.14228 59.5354 9.29236 59.6132 9.41411C 59.6656 9.49603 59.799 9.70737 59.9706 9.87851L 62.0896 7.75486ZM 47.2819 1.74471C 47.4652 1.74471 47.6003 1.78051 47.6415 1.79179C 47.6974 1.80706 47.7349 1.82168 47.7452 1.82575C 47.7652 1.83365 47.7604 1.83292 47.7155 1.81051C 47.6276 1.76673 47.4975 1.69644 47.299 1.58803C 46.919 1.38049 46.3709 1.07871 45.7071 0.750001C 44.383 0.0943097 42.5531 -0.692389 40.473 -1.14004C 38.3918 -1.58793 35.9993 -1.7093 33.5935 -0.96652C 31.1632 -0.216186 28.8348 1.38119 26.8587 4.17441L 29.3078 5.907C 30.9315 3.61181 32.7278 2.44047 34.4785 1.89997C 36.2536 1.35192 38.0983 1.4176 39.8418 1.79282C 41.5865 2.16828 43.1688 2.84073 44.3758 3.43843C 44.9775 3.7364 45.4746 4.00987 45.8609 4.2209C 46.0456 4.32178 46.229 4.42161 46.3775 4.49564C 46.4508 4.53212 46.5449 4.57721 46.6437 4.6162C 46.6782 4.62981 46.9474 4.74471 47.2819 4.74471L 47.2819 1.74471ZM 27.0238 3.97888C 27.3411 3.66224 27.6957 3.59987 27.8252 3.58488C 27.9674 3.56844 28.0621 3.58343 28.0653 3.58388C 28.0739 3.5851 28.0185 3.57579 27.8426 3.52275C 27.6804 3.47382 27.4875 3.4103 27.2329 3.32749C 26.9866 3.24741 26.7001 3.15513 26.3844 3.06089C 25.1264 2.68531 23.3487 2.25972 21.3451 2.34479C 19.317 2.4309 17.0765 3.04015 14.933 4.69527C 12.8035 6.33962 10.8639 8.94303 9.29226 12.8634L 12.0768 13.9797C 13.505 10.4172 15.1651 8.30635 16.7665 7.06978C 18.354 5.84398 19.9758 5.40563 21.4724 5.34209C 22.9936 5.2775 24.4031 5.60021 25.5262 5.93551C 25.8058 6.01898 26.0642 6.10208 26.3051 6.18043C 26.5376 6.25605 26.7742 6.334 26.9764 6.39498C 27.165 6.45184 27.4089 6.52086 27.6446 6.55424C 27.7613 6.57077 27.9514 6.59029 28.17 6.565C 28.3759 6.54118 28.7879 6.45658 29.1428 6.10253L 27.0238 3.97888ZM 10.4407 11.9415C 8.13171 12.3219 4.78744 14.2118 2.64331 17.2856C 0.411235 20.4856 -0.511486 24.9573 2.14402 30.2566L 4.82612 28.9126C 2.68199 24.6338 3.47718 21.334 5.10385 19.002C 6.81846 16.5439 9.47375 15.1413 10.9284 14.9016L 10.4407 11.9415ZM 2.27289 28.7011C 0.583362 31.0191 -1.3701 34.8117 -1.4938 38.6051C -1.55686 40.5388 -1.14419 42.5298 0.0830259 44.2927C 1.3109 46.0564 3.25719 47.4524 6.01157 48.3685L 6.95837 45.5218C 4.67312 44.7617 3.32463 43.6983 2.54514 42.5786C 1.76499 41.458 1.45769 40.1415 1.5046 38.7029C 1.60084 35.7517 3.18706 32.5401 4.69726 30.4682L 2.27289 28.7011ZM 4.98497 46.9451C 4.98497 47.398 4.65388 50.9315 6.16176 54.3587C 6.93229 56.11 8.18874 57.8668 10.2052 59.219C 12.2186 60.5691 14.8971 61.454 18.4158 61.6136L 18.5518 58.6167C 15.471 58.477 13.3499 57.7157 11.8761 56.7273C 10.4054 55.7411 9.48704 54.4673 8.90774 53.1506C 7.71595 50.4418 7.98497 47.6895 7.98497 46.9451L 4.98497 46.9451ZM 17.2406 60.9545C 17.6042 61.493 18.5212 62.4937 19.7633 63.5635C 21.0335 64.6575 22.7368 65.905 24.725 66.8899C 28.7069 68.8624 34.0499 69.8598 39.1681 66.1148L 37.3966 63.6937C 33.5153 66.5337 29.4691 65.8921 26.0567 64.2017C 24.3478 63.3551 22.8526 62.265 21.7211 61.2904C 20.5615 60.2917 19.8736 59.4929 19.727 59.2758L 17.2406 60.9545ZM 37.1523 65.8907C 37.6024 66.4063 38.2537 66.8506 38.9378 67.2197C 39.6466 67.6021 40.4933 67.9584 41.4221 68.261C 43.2749 68.8648 45.5491 69.2861 47.8531 69.2341C 50.1528 69.1822 52.5783 68.6551 54.6264 67.262C 56.7104 65.8446 58.2753 63.6161 58.9486 60.4248L 56.0133 59.8055C 55.4867 62.3013 54.331 63.8348 52.9392 64.7814C 51.5116 65.7524 49.7062 66.1915 47.7854 66.2349C 45.8689 66.2782 43.933 65.924 42.3517 65.4087C 41.5634 65.1518 40.887 64.8626 40.3624 64.5795C 39.8131 64.2831 39.5207 64.0419 39.4124 63.9179L 37.1523 65.8907ZM 57.481 61.6152C 59.5812 61.6152 62.7769 61.0954 65.6814 59.5176C 68.6279 57.917 71.3328 55.1847 72.1542 50.814L 69.2058 50.2599C 68.5872 53.5518 66.5924 55.6086 64.2493 56.8815C 61.8641 58.1772 59.1803 58.6152 57.481 58.6152L 57.481 61.6152ZM 70.3398 51.9979C 72.7233 52.5529 76.3628 52.6697 79.3636 50.9632C 80.898 50.0906 82.2364 48.7538 83.1093 46.8301C 83.975 44.9227 84.3463 42.5211 84.1013 39.5553L 81.1115 39.8023C 81.3259 42.3975 80.9809 44.2607 80.3775 45.5904C 79.7814 46.9039 78.8979 47.7768 77.8806 48.3554C 75.7781 49.5511 72.9949 49.5359 71.0202 49.076L 70.3398 51.9979Z"/>
<path id="path5_stroke" d="M -0.625136 1.36353C 0.352583 1.81178 1.82345 2.74544 3.15587 4.03196C 4.49426 5.32426 5.57627 6.85938 5.97924 8.4852L 8.89113 7.76345C 8.30274 5.3896 6.80309 3.38335 5.2397 1.8738C 3.67032 0.358473 1.91928 -0.770201 0.625136 -1.36353L -0.625136 1.36353ZM 5.97924 8.4852C 6.40534 10.2043 6.50074 11.2311 6.427 11.8352C 6.39309 12.1129 6.3303 12.2349 6.30034 12.2809C 6.27724 12.3164 6.242 12.3582 6.14014 12.4095L 7.49103 15.0882C 8.00877 14.8271 8.4694 14.4478 8.81442 13.9178C 9.15259 13.3984 9.33018 12.8107 9.40489 12.1987C 9.54839 11.0232 9.334 9.55022 8.89113 7.76345L 5.97924 8.4852ZM 6.14014 12.4095C 6.188 12.3854 6.17112 12.4356 5.96227 12.3683C 5.73078 12.2937 5.39895 12.1124 4.97554 11.779C 4.13093 11.1139 3.22494 10.0889 2.41442 9.06704L 0.0639788 10.9313C 0.905713 11.9925 1.98866 13.2455 3.11955 14.136C 3.6839 14.5804 4.33645 14.9963 5.04223 15.2237C 5.77064 15.4584 6.64392 15.5154 7.49103 15.0882L 6.14014 12.4095Z"/>
<path id="path6_stroke" d="M 10.7066 6.44447L 11.149 7.87775L 10.7066 4.94447L 10.7066 6.44447ZM 19.9356 16.0924L 21.4155 15.848L 21.1728 14.3777L 19.7009 14.6108L 19.9356 16.0924ZM 34.6709 15.3566L 35.5825 14.1653L 33.7415 12.7566L 33.2108 15.0131L 34.6709 15.3566ZM -1.48267 0.227376C -1.20882 2.01304 -0.272628 4.55728 1.74848 6.36353C 3.8699 8.25943 6.98818 9.16209 11.149 7.87775L 10.2642 5.0112C 7.00174 6.01823 5.00466 5.2501 3.74756 4.12664C 2.39015 2.91353 1.68467 1.08985 1.48267 -0.227376L -1.48267 0.227376ZM 10.7066 4.94447C 9.73341 4.94447 9.07584 5.58804 8.73137 6.04811C 8.34923 6.55848 8.07287 7.19743 7.89174 7.85659C 7.52816 9.1797 7.46524 10.8902 8.00724 12.5417C 8.56243 14.2334 9.75147 15.8458 11.82 16.8424C 13.8524 17.8217 16.5934 18.1405 20.1702 17.5739L 19.7009 14.6108C 16.4969 15.1183 14.4262 14.7681 13.1222 14.1398C 11.8543 13.5289 11.1822 12.595 10.8577 11.6062C 10.52 10.5772 10.5588 9.47301 10.7845 8.65149C 10.898 8.23834 11.0382 7.9725 11.1328 7.84617C 11.2651 7.66953 11.1444 7.94447 10.7066 7.94447L 10.7066 4.94447ZM 18.4556 16.3367C 18.7605 18.1833 19.8608 19.8467 21.2626 21.0944C 22.672 22.3489 24.4923 23.2811 26.4177 23.5913C 28.3622 23.9045 30.4528 23.5841 32.2602 22.2657C 34.0591 20.9536 35.4072 18.7781 36.1311 15.7L 33.2108 15.0131C 32.6019 17.6019 31.5593 19.0637 30.4923 19.842C 29.4338 20.6141 28.1835 20.8371 26.8949 20.6295C 25.5872 20.4188 24.2822 19.7659 23.2571 18.8535C 22.2243 17.9342 21.5808 16.8491 21.4155 15.848L 18.4556 16.3367ZM 33.7594 16.5478C 35.073 17.553 36.8352 18.1358 38.6002 18.3083C 40.3742 18.4817 42.2992 18.2556 43.9705 17.4813C 45.6676 16.695 47.1249 15.3253 47.7808 13.2716C 48.4271 11.248 48.2263 8.77712 47.0747 5.88892L 44.288 7.00003C 45.2777 9.48223 45.2906 11.2079 44.923 12.3589C 44.565 13.4798 43.7809 14.2628 42.7094 14.7593C 41.6119 15.2677 40.241 15.4544 38.892 15.3225C 37.5339 15.1898 36.3459 14.7494 35.5825 14.1653L 33.7594 16.5478Z"/>
</defs>
</svg>
