<svg width="81" height="44" viewBox="0 0 81 44" version="1.1" xmlns="http://www.w3.org/2000/svg" xmlns:xlink="http://www.w3.org/1999/xlink">
<title>Group</title>
<desc>Created using Figma</desc>
<g id="Canvas" transform="translate(14056 21777)">
<g id="Group">
<g id="Group">
<g id="Vector">
<use xlink:href="#path0_fill" transform="matrix(-4.37133e-08 -1 1 -4.37094e-08 -14055.8 -21733.8)" fill="#B1BABE"/>
</g>
</g>
</g>
</g>
<defs>
<path id="path0_fill" d="M 43.1694 17.1229L 43.1694 15.1143C 43.1694 13.1454 42.6323 11.3755 41.5381 9.66517C 40.245 7.67645 38.4149 6.00593 35.968 4.53428C 31.0145 1.57109 25.2454 0.0994359 18.3623 0L 18.3225 0C 17.6661 0 16.9897 0.178985 16.9897 1.5512C 16.9698 5.98604 16.9897 10.4805 16.9897 14.279C 16.9897 15.5916 17.3279 15.9097 18.7602 16.0291L 18.7801 16.0291C 21.3065 16.2279 23.9325 16.4467 26.4788 16.8643C 29.423 17.3615 32.049 18.4155 34.5356 20.0463L 35.3314 20.5634L 34.4561 20.9213C 34.1577 21.0406 33.8593 21.1799 33.5808 21.2992C 32.984 21.5577 32.4071 21.8162 31.7904 21.9753C 26.7971 23.1885 21.6646 24.3817 16.5321 25.555L 16.0149 25.6744C 12.3744 26.5096 8.61456 27.3648 5.25258 29.1546C 1.67177 31.0638 0.0206231 33.5696 0.0206231 37.0101C 0.0206231 38.3624 0.0206231 39.7346 0.0206231 41.0869C 0.0206231 43.7319 0.000729733 46.4565 0.0405165 49.1214C 0.0803033 51.826 1.05508 53.9738 2.92506 55.4853C 3.95951 56.3205 5.2128 56.9967 6.4064 57.653C 6.66501 57.7922 6.90373 57.9314 7.16235 58.0706C 7.6 58.3092 8.07744 58.4683 8.63446 58.6672C 8.91297 58.7666 9.21137 58.8661 9.52966 58.9854L 11.0217 59.5422L 9.48987 59.9201C 9.33073 59.9599 9.19147 59.9996 9.05222 60.0195C 8.85329 60.0593 8.69414 60.0991 8.55488 60.1389C 7.9183 60.3377 7.26182 60.5366 6.64512 60.7156C 5.17301 61.1531 3.64122 61.5906 2.22879 62.2071C 0.358811 63.0424 -0.0191637 64.7527 0.000729731 66.0453C 0.0405165 69.8637 0.0405165 74.0002 0.000729731 78.6737C 0.000729731 79.5686 0.23945 80.1056 0.836252 80.4636L 1.49273 80.4636C 1.5922 80.3641 1.69167 80.2846 1.79113 80.1851C 2.00996 79.9863 2.30836 79.7277 2.32826 79.5885C 2.52719 78.1765 3.48207 77.6197 4.2977 77.3015C 5.23269 76.9236 6.18757 76.5458 7.20214 76.327C 9.09201 75.9293 11.0217 75.5315 12.8916 75.1537C 14.881 74.7559 16.9499 74.3383 18.979 73.9008C 21.227 73.4235 23.8529 72.7076 26.2401 71.2359C 28.5079 69.8239 29.6021 67.9943 29.622 65.6476C 29.6419 62.5253 29.6419 59.3235 29.622 56.241L 29.622 53.9142C 29.622 51.7266 28.687 50.0362 26.9364 49.0418C 25.2653 48.0872 23.5545 47.3514 21.8636 46.8542C 19.6952 46.2178 17.4273 45.661 15.259 45.1439C 14.0852 44.8655 12.8717 44.5672 11.6781 44.249C 11.1012 44.1098 10.5442 43.891 10.027 43.712C 9.78828 43.6325 9.54955 43.5331 9.29094 43.4535L 8.11723 43.0558L 9.25115 42.5387C 10.7034 41.8625 12.0561 41.4051 13.3691 41.1068C 15.6568 40.6096 17.9843 40.1323 20.2323 39.6551C 23.2362 39.0385 26.3396 38.3823 29.4032 37.7061C 32.2081 37.0697 35.8486 36.0754 38.9918 34.0071C 41.8763 32.0979 43.2489 29.5325 43.2092 26.1715C 43.1296 23.1487 43.1495 20.0861 43.1694 17.1229ZM 19.8941 13.5829L 19.4366 13.5631L 19.4366 2.22737L 20.0135 2.30691C 20.6898 2.40635 21.3662 2.50579 22.0227 2.60522C 23.5147 2.82398 24.9271 3.00297 26.3396 3.32116C 30.4575 4.1962 33.8394 5.72751 36.6841 7.97476C 38.6337 9.50608 39.8273 11.0971 40.4639 12.9466C 41.0607 14.6767 40.7026 16.1285 39.4294 17.2621C 39.0315 17.6002 38.6536 17.9581 38.2358 18.3161C 38.0568 18.4752 37.8578 18.6343 37.6589 18.8133L 37.3605 19.0718L 37.0422 18.8332C 31.5118 14.7961 25.2653 13.921 19.8941 13.5829ZM 27.1154 65.9857C 27.0557 67.4971 26.1008 68.7301 24.4696 69.4063C 21.8437 70.4802 19.7946 71.1762 17.8451 71.6535C 15.4977 72.2303 13.0906 72.7076 10.7631 73.165C 9.27105 73.4633 7.71936 73.7815 6.18757 74.0997C 5.5112 74.2389 4.83482 74.4974 4.11866 74.7559C 3.78047 74.8753 3.42239 75.0145 3.06431 75.1338L 2.40783 75.3526L 2.40783 74.6565C 2.40783 73.9008 2.40783 73.165 2.40783 72.4093C 2.38794 70.2217 2.38794 67.9744 2.46751 65.747C 2.4874 65.0311 3.34282 64.1958 4.03909 63.9572C 6.04832 63.3009 7.97798 62.764 9.82806 62.3861C 12.1158 61.9088 14.4632 61.4713 16.7112 61.0338C 18.8199 60.636 21.0081 60.2184 23.1566 59.7809C 23.8728 59.6417 24.589 59.3633 25.3449 59.0848C 25.703 58.9456 26.081 58.8064 26.4788 58.6871L 27.1353 58.4683L 27.1353 59.1644C 27.1353 59.8604 27.1353 60.5565 27.1353 61.2327C 27.1552 62.8634 27.1751 64.4146 27.1154 65.9857ZM 15.5574 47.7491C 16.2536 47.9082 16.9897 48.0872 17.7058 48.2662C 19.8145 48.7833 21.6646 49.3202 23.3556 49.897C 24.2309 50.1953 25.146 50.7123 25.9218 51.3288C 26.8568 52.0845 27.3143 53.0988 27.1751 54.113C 27.0557 55.0875 26.3993 55.9029 25.4046 56.3603C 24.2309 56.8972 22.9776 57.2552 21.784 57.5933C 21.2071 57.7524 20.5904 57.9314 20.0135 58.1302C 19.536 58.2893 19.0387 58.3689 18.5016 58.3689C 17.5865 58.3689 16.7112 58.1303 15.8558 57.9115C 15.6568 57.8518 15.4579 57.8121 15.259 57.7524L 14.7019 57.6132C 12.2749 57.0166 9.76838 56.4001 7.40107 55.525C 3.93962 54.2324 2.2089 51.5874 2.40783 47.8685C 2.46751 46.8343 2.44762 45.8002 2.42772 44.6865C 2.42772 44.1496 2.40783 43.5728 2.40783 42.9961L 2.40783 41.9222L 3.22346 42.6182C 6.90373 45.7405 11.3002 46.7548 15.5574 47.7491ZM 40.7623 26.788C 40.7225 28.7768 39.7676 30.4274 37.8379 31.7996C 35.968 33.1519 33.7399 34.1264 31.2532 34.7031C 27.8515 35.4787 24.39 36.2146 21.028 36.9305C 19.2376 37.3084 17.4273 37.6862 15.6369 38.084C 12.5336 38.7601 9.27105 39.5357 6.30693 40.9875C 6.12789 41.0869 5.86928 41.1267 5.63056 41.1267C 5.47141 41.1267 5.25258 41.1068 5.05365 40.9875C 3.64122 40.2119 2.68634 38.9192 2.44762 37.4476C 2.2089 36.0157 2.64655 34.6236 3.68101 33.49C 4.5961 32.4758 5.88917 31.561 7.40107 30.8053C 10.2259 29.3933 13.3094 28.7171 16.2934 28.0608C 16.751 27.9614 17.2085 27.862 17.6661 27.7625C 18.5016 27.5835 19.3371 27.3847 20.1925 27.2057C 24.0518 26.3505 28.0504 25.4556 31.9495 24.4612C 34.4163 23.8447 36.8234 22.572 39.0912 20.7026C 39.2504 20.5634 39.4095 20.4639 39.6283 20.3247C 39.7278 20.265 39.8472 20.1855 39.9864 20.0861L 40.7623 19.5491L 40.7623 20.5037C 40.7623 21.1997 40.7623 21.8759 40.7623 22.5322C 40.7822 24.0038 40.7822 25.3959 40.7623 26.788Z"/>
</defs>
</svg>
