<svg width="108" height="103" viewBox="0 0 108 103" version="1.1" xmlns="http://www.w3.org/2000/svg" xmlns:xlink="http://www.w3.org/1999/xlink">
<title>Group</title>
<desc>Created using Figma</desc>
<g id="Canvas" transform="translate(16815 19164)">
<g id="Group">
<g id="Group">
<g id="Vector">
<use xlink:href="#path0_fill" transform="translate(-16800.4 -19099.3)" fill="#B1BABE"/>
</g>
<g id="Vector">
<use xlink:href="#path1_fill" transform="translate(-16763.8 -19161.6)" fill="#B1BABE"/>
</g>
<g id="Vector">
<use xlink:href="#path2_fill" transform="translate(-16815 -19164)" fill="#B1BABE"/>
</g>
</g>
</g>
</g>
<defs>
<path id="path0_fill" d="M 36.8442 11.2551C 35.7933 10.6152 34.3296 10.6152 32.2278 12.7232L 29.5255 14.7935C 22.6572 20.7034 15.5637 26.8015 8.62034 32.7867C 7.2692 33.9536 5.95559 33.8783 4.60444 32.5985C 3.32836 31.3563 3.2533 30.0388 4.37925 28.6084C 4.6795 28.232 5.01729 27.8555 5.31754 27.5167C 5.43014 27.3662 5.54274 27.2532 5.69286 27.1027C 6.89388 25.7099 8.05736 24.3548 9.25838 22.962C 13.2743 18.3696 21.9066 8.24373 25.9225 3.5384C 26.4479 2.93612 26.7857 2.0327 26.7106 1.50571C 26.6356 1.09164 25.9975 0.414071 25.397 0.11293C 25.2469 0.0376449 25.0968 1.14876e-06 24.9091 1.14876e-06C 24.4212 1.14876e-06 23.9333 0.338781 23.3328 0.978706C 20.4428 4.3289 13.0866 12.9491 10.1967 16.2616C 7.41932 19.4989 4.60444 22.7361 1.78956 25.9734C -0.687535 28.8342 -0.57494 32.335 2.01475 34.97C 3.36589 36.3628 4.94223 37.078 6.63116 37.078C 8.20749 37.078 9.74629 36.438 11.135 35.2335C 12.1483 34.3677 13.1617 33.5019 14.1375 32.6361C 14.7005 32.1091 15.301 31.6198 15.864 31.0928L 34.1419 15.3582C 35.6807 13.9278 37.4823 12.0456 36.8442 11.2551C 36.8818 11.2551 36.8818 11.2551 36.8442 11.2551Z"/>
<path id="path1_fill" d="M 55.2189 1.39278C 54.9937 0.602282 54.3556 7.17976e-08 53.6425 7.17976e-08C 53.4924 7.17976e-08 53.3798 0.0376426 53.2672 0.0752852C 52.6667 0.301141 52.0662 0.752852 51.7659 1.24221C 48.8385 5.87225 45.1228 8.69544 40.2812 9.78708C 39.9434 9.86236 39.6056 10.0129 39.3054 10.1635C 39.1553 10.2388 38.9676 10.2764 38.8175 10.3517C 34.689 11.8951 32.2494 14.5677 31.4613 18.5202C 31.1985 19.8377 30.4854 20.8164 29.2844 21.7198C 18.2501 29.8506 8.97973 38.1696 0.947936 47.2791C -0.478271 48.8601 -0.0278896 49.6882 0.572619 50.2905C 0.910404 50.667 1.24819 50.8175 1.66104 50.8175C 2.03635 50.8175 2.48674 50.667 3.01218 50.3282L 3.72528 49.8388C 3.80035 49.8012 3.87541 49.8012 3.95048 49.8012C 4.2132 49.8012 4.40086 49.9517 4.51345 50.14L 13.6337 59.2118L 13.2584 59.6259C 13.2208 59.6635 13.1833 59.7012 13.1458 59.7388C 13.0707 59.8141 12.9581 59.927 12.883 60.04C 12.2075 60.981 12.2075 61.8092 12.883 62.5244C 13.5586 63.2019 14.6095 63.2019 15.4727 62.5244C 15.848 62.1856 16.2609 61.8468 16.6362 61.508C 16.7863 61.3575 16.974 61.2069 17.1241 61.094C 25.1935 53.9795 33.0001 45.2464 41.0318 34.4806C 42.4956 32.5232 44.0344 31.3186 45.986 30.6034C 51.0153 28.7966 54.3181 25.2582 55.7443 20.0259C 57.2831 14.53 57.0954 8.58252 55.2189 1.39278ZM 16.5611 56.2004L 6.5777 46.2251L 10.0306 43.2514L 20.0516 53.2643L 16.5611 56.2004ZM 23.2793 50.4411L 12.6578 39.9012L 30.9733 24.6936L 38.4422 32.2597L 23.2793 50.4411ZM 52.1412 19.3483C 51.1279 22.9244 48.7259 25.4464 44.8226 27.178L 44.5974 27.2909C 43.021 27.9685 42.1578 28.3825 41.3321 28.3825C 40.1311 28.3825 39.3054 27.592 37.7291 25.9734C 37.5414 25.7852 37.3537 25.597 37.2036 25.4464C 36.8658 25.07 36.5656 24.7312 36.2278 24.5053C 34.0509 23.0373 34.4263 21.1175 34.9517 19.4612C 35.89 16.4498 37.7291 14.53 40.5439 13.589C 40.7691 13.5137 41.0318 13.4008 41.257 13.3255C 41.5198 13.2502 41.7825 13.0996 42.0827 13.0243C 45.911 11.7821 49.2513 10.5399 51.7659 7.1521L 52.6292 5.98518L 52.8544 7.41559C 53.4173 11.7821 53.2297 15.6217 52.1412 19.3483Z"/>
<path id="path2_fill" d="M 90.0787 92.8741L 89.8535 93.1C 89.6659 92.8365 89.4782 92.6106 89.253 92.3848L 84.4114 87.4912L 84.3739 87.4536L 33.4808 39.9863C 33.7811 38.9323 33.9688 37.8783 33.9688 36.7867C 33.9688 30.6133 28.977 25.6068 22.8218 25.6068C 21.0954 25.6068 19.2938 26.2844 18.0553 26.849L 11.262 19.9981L 10.7366 19.4711C 8.55975 17.3631 8.1469 16.1585 8.07184 15.6315C 8.03431 15.2551 8.1469 15.0292 8.48469 14.6904C 8.52222 14.6528 8.52222 14.6528 8.55975 14.6152L 16.7417 4.94101C 17.3046 4.26344 17.2671 3.24709 16.6291 2.60717L 14.3772 0.461537C 13.7016 -0.178387 12.6882 -0.140745 12.0127 0.499179C 11.9376 0.536822 6.53304 5.91971 2.10429 10.3615C -0.597995 13.1095 -0.71059 17.2501 1.84157 21.4661C 3.38037 24.0258 3.98088 25.1174 3.98088 25.1174C 4.05594 25.268 4.16854 25.3809 4.28113 25.4939L 12.2754 33.5494C 11.9376 34.641 11.6749 35.8456 11.6749 36.749C 11.6749 42.9224 16.6666 47.9289 22.8218 47.9289C 24.0604 47.9289 25.2614 47.7407 26.4249 47.3266L 77.2804 94.7939L 82.0094 99.5745C 82.2346 99.8004 82.4973 100.026 82.76 100.214C 82.1971 100.892 82.2346 101.871 82.8351 102.511C 83.1729 102.849 83.5857 103 84.0361 103C 84.449 103 84.8993 102.849 85.2371 102.511L 88.5774 99.1604L 89.7785 97.9559L 89.816 97.9182L 92.4057 95.3209C 93.0813 94.6433 93.0813 93.5893 92.4057 92.9118C 91.8052 92.2342 90.7168 92.2342 90.0787 92.8741ZM 79.6449 92.3848L 79.6074 92.3471L 27.9261 44.127C 27.5884 43.8258 27.1755 43.6752 26.7627 43.6752C 26.5375 43.6752 26.2747 43.7129 26.0496 43.8258C 25.0362 44.3152 23.9102 44.541 22.7843 44.541C 18.5057 44.541 15.0152 41.0403 15.0152 36.749C 15.0152 36.3726 15.1278 35.5444 15.7658 33.6247C 15.9535 33.0224 15.8034 32.3448 15.353 31.9308L 6.83329 23.273C 6.57057 22.8212 5.93253 21.7296 4.73151 19.6969C 3.71816 18.0406 2.36701 14.9163 4.50632 12.7707C 7.17108 10.098 10.1736 7.08664 12.1628 5.12922L 5.97006 12.3942C 3.64309 14.9163 4.43126 18.1536 8.37209 21.9178L 16.554 30.1239C 17.0795 30.6509 17.9427 30.7638 18.5807 30.3874C 20.1195 29.5216 21.6959 28.9946 22.8218 28.9946C 27.1004 28.9946 30.5909 32.4954 30.5909 36.7867C 30.5909 37.8406 30.3657 38.8946 29.9529 39.8357C 29.6526 40.5886 29.8778 41.4167 30.5534 41.8684L 82.0469 89.938L 86.851 94.7939C 87.1888 95.1327 87.3014 95.5091 87.3389 95.6597L 86.1754 96.8266L 85.2747 97.73C 85.1245 97.73 84.7492 97.5795 84.4114 97.2407L 79.6449 92.3848Z"/>
</defs>
</svg>
