<svg width="870" height="122" viewBox="0 0 870 122" version="1.1" xmlns="http://www.w3.org/2000/svg" xmlns:xlink="http://www.w3.org/1999/xlink">
    <title>Mask Group</title>
    <desc>Created using Figma</desc>
    <g id="Canvas" transform="translate(17721 14649)">
        <g id="Mask Group" opacity="0.3">
            <mask id="mask0_alpha" mask-type="alpha">
                <g id="Rectangle 7.1">
                    <path d="M 0 0L 1920 0L 1920 178L 0 178L 0 0Z" transform="translate(-17721 -14705)" fill="#F9F9F9"></path>
                </g>
            </mask>
            <g id="Group 4" mask="url(#mask0_alpha)">
                <g id="Group">
                    <g id="Vector (Stroke)">
                        <path fill-rule="evenodd" d="M 73.7805 2.99995C 72.4478 3.00802 71.1143 3.02485 69.7804 3.05067L 69.7224 0.0512267C 71.0697 0.0251541 72.4164 0.00815344 73.7623 0L 73.7805 2.99995ZM 81.7811 3.05513C 80.4472 3.0289 79.1123 3.01104 77.7766 3.00179L 77.7974 0.00185728C 79.146 0.011205 80.4936 0.0292329 81.8401 0.0557144L 81.7811 3.05513ZM 65.7807 3.15515C 64.45 3.19899 63.1189 3.25197 61.7877 3.31431L 61.6473 0.317598C 62.9926 0.254601 64.3375 0.201067 65.682 0.156774L 65.7807 3.15515ZM 89.7759 3.3115C 88.4452 3.25256 87.1133 3.20158 85.7802 3.15877L 85.8765 0.160313C 87.2219 0.20352 88.566 0.254971 89.9086 0.314439L 89.7759 3.3115ZM 97.7692 3.76056C 96.4401 3.67031 95.1093 3.58761 93.777 3.51269L 93.9454 0.517423C 95.2895 0.593002 96.6319 0.676423 97.9724 0.767455L 97.7692 3.76056ZM 57.7936 3.52963C 56.464 3.61079 55.1344 3.7015 53.805 3.80197L 53.5789 0.8105C 54.9229 0.708927 56.2669 0.617237 57.6108 0.535205L 57.7936 3.52963ZM 105.753 4.39367C 104.424 4.27337 103.093 4.16024 101.761 4.05451L 101.998 1.06391C 103.342 1.17053 104.684 1.2846 106.023 1.4059L 105.753 4.39367ZM 49.8228 4.13238C 48.4957 4.2524 47.1689 4.38237 45.8425 4.5225L 45.5273 1.5391C 46.8688 1.39737 48.2107 1.26594 49.5527 1.14458L 49.8228 4.13238ZM 113.718 5.20191C 112.392 5.05305 111.063 4.91097 109.733 4.77591L 110.036 1.79124C 111.377 1.92739 112.716 2.0706 114.053 2.22064L 113.718 5.20191ZM 41.8732 4.97258C 40.5518 5.13274 39.2309 5.30322 37.9108 5.48423L 37.5033 2.51205C 38.8391 2.32889 40.1754 2.1564 41.5123 1.99438L 41.8732 4.97258ZM 121.659 6.17654C 120.341 6.0011 119.02 5.832 117.696 5.66947L 118.062 2.69184C 119.396 2.85561 120.727 3.02599 122.055 3.20276L 121.659 6.17654ZM 33.953 6.05907C 32.6388 6.26072 31.3254 6.47304 30.0131 6.69625L 29.5101 3.73872C 30.8385 3.51277 32.1679 3.29785 33.4981 3.09377L 33.953 6.05907ZM 129.596 7.31273C 128.279 7.11112 126.959 6.91547 125.637 6.72603L 126.062 3.75633C 127.394 3.94716 128.724 4.14423 130.05 4.34729L 129.596 7.31273ZM 772.047 6.23349C 771.519 6.63967 770.99 7.04367 770.461 7.44548L 768.647 5.05589C 769.171 4.65802 769.695 4.25799 770.218 3.85578L 772.047 6.23349ZM 26.0805 7.39858C 24.7715 7.64357 23.4637 7.89964 22.1573 8.167L 21.5558 5.22792C 22.8789 4.95715 24.2032 4.69785 25.5286 4.44978L 26.0805 7.39858ZM 137.508 8.60052C 136.192 8.37374 134.872 8.15255 133.549 7.93718L 134.031 4.97617C 135.364 5.19304 136.692 5.41577 138.017 5.6441L 137.508 8.60052ZM 18.2564 9.00004C 16.9575 9.28907 15.6602 9.58951 14.3645 9.90158L 13.662 6.98498C 14.9748 6.66881 16.2891 6.36444 17.6047 6.07167L 18.2564 9.00004ZM 145.389 10.0319C 144.078 9.78179 142.763 9.53688 141.445 9.29739L 141.981 6.34569C 143.308 6.58678 144.632 6.8333 145.951 7.08502L 145.389 10.0319ZM 767.276 9.83028C 766.21 10.6176 765.142 11.3963 764.07 12.1664L 762.319 9.73034C 763.38 8.96784 764.438 8.19684 765.494 7.41723L 767.276 9.83028ZM 153.236 11.5989C 151.936 11.3279 150.632 11.0617 149.324 10.8004L 149.912 7.85849C 151.228 8.12144 152.54 8.38937 153.848 8.66201L 153.236 11.5989ZM 10.4892 10.8711C 9.20377 11.2048 7.92014 11.5502 6.63845 11.9076L 5.8328 9.01778C 7.13185 8.65561 8.43275 8.30555 9.73533 7.96738L 10.4892 10.8711ZM 161.08 13.3017C 159.782 13.0089 158.479 12.7205 157.172 12.4366L 157.808 9.50489C 159.124 9.79051 160.434 10.0807 161.74 10.3752L 161.08 13.3017ZM 2.79933 13.0155C 2.16049 13.2062 1.52218 13.3999 0.884397 13.5966L 0 10.73C 0.646591 10.5305 1.2937 10.3341 1.94131 10.1408L 2.79933 13.0155ZM 168.893 15.1283C 167.595 14.8144 166.292 14.5044 164.984 14.1985L 165.667 11.2773C 166.983 11.585 168.293 11.8968 169.598 12.2124L 168.893 15.1283ZM 760.82 14.4703C 759.733 15.2296 758.644 15.9802 757.552 16.7223L 755.866 14.2411C 756.947 13.5063 758.026 12.7631 759.101 12.0114L 760.82 14.4703ZM 176.671 17.0715C 175.376 16.7379 174.075 16.4078 172.769 16.0814L 173.496 13.1708C 174.81 13.4991 176.117 13.831 177.419 14.1663L 176.671 17.0715ZM 184.412 19.1243C 183.13 18.7748 181.841 18.4281 180.546 18.0847L 181.315 15.1849C 182.617 15.5302 183.912 15.8786 185.201 16.2299L 184.412 19.1243ZM 754.245 18.9384C 753.138 19.6697 752.028 20.3924 750.915 21.1066L 749.295 18.5819C 750.396 17.8748 751.495 17.1593 752.591 16.4352L 754.245 18.9384ZM 192.126 21.2833C 190.855 20.9184 189.576 20.5558 188.29 20.1958L 189.099 17.3069C 190.391 17.6686 191.676 18.033 192.954 18.3997L 192.126 21.2833ZM 199.836 23.5492C 198.565 23.167 197.286 22.7866 195.999 22.4083L 196.845 19.5301C 198.138 19.9102 199.423 20.2924 200.7 20.6763L 199.836 23.5492ZM 747.556 23.2317C 746.429 23.9342 745.299 24.6282 744.167 25.3137L 742.613 22.7473C 743.734 22.0685 744.853 21.3814 745.969 20.6859L 747.556 23.2317ZM 207.513 25.9082C 206.242 25.5095 204.962 25.1119 203.673 24.7159L 204.554 21.8482C 205.849 22.246 207.135 22.6453 208.411 23.0458L 207.513 25.9082ZM 215.159 28.3542C 213.887 27.9397 212.605 27.5257 211.314 27.1125L 212.228 24.2552C 213.525 24.6701 214.812 25.0858 216.088 25.502L 215.159 28.3542ZM 740.756 27.3476C 739.611 28.0207 738.463 28.6853 737.312 29.3415L 735.826 26.7353C 736.965 26.0855 738.102 25.4275 739.237 24.7611L 740.756 27.3476ZM 222.775 30.8811C 221.509 30.4538 220.231 30.0262 218.942 29.5987L 219.887 26.7513C 221.181 27.1805 222.463 27.6097 223.734 28.0385L 222.775 30.8811ZM 733.85 31.2853C 732.688 31.928 731.523 32.5624 730.355 33.1886L 728.937 30.5447C 730.094 29.9246 731.247 29.2964 732.398 28.66L 733.85 31.2853ZM 230.365 33.4826C 229.109 33.0454 227.839 32.6068 226.557 32.1674L 227.53 29.3295C 228.816 29.7704 230.09 30.2105 231.351 30.6492L 230.365 33.4826ZM 237.934 36.1521C 236.686 35.7059 235.422 35.2573 234.145 34.8067L 235.143 31.9775C 236.424 32.4295 237.691 32.8795 238.944 33.327L 237.934 36.1521ZM 726.841 35.0434C 725.664 35.6552 724.484 36.2588 723.302 36.8543L 721.952 34.1748C 723.124 33.585 724.292 32.9873 725.458 32.3815L 726.841 35.0434ZM 245.487 38.8818C 244.244 38.4277 242.984 37.9697 241.708 37.5084L 242.728 34.687C 244.008 35.1496 245.271 35.6088 246.517 36.0639L 245.487 38.8818ZM 719.74 38.6193C 718.548 39.2004 717.354 39.7734 716.157 40.3385L 714.877 37.6256C 716.062 37.0659 717.245 36.4984 718.425 35.9229L 719.74 38.6193ZM 253.03 41.6614C 251.789 41.2007 250.529 40.7341 249.249 40.2623L 250.287 37.4475C 251.569 37.9202 252.832 38.3877 254.075 38.8492L 253.03 41.6614ZM 712.551 42.0134C 711.346 42.564 710.139 43.1067 708.928 43.6417L 707.715 40.8977C 708.915 40.3677 710.111 39.8301 711.305 39.2847L 712.551 42.0134ZM 260.565 44.4755C 259.323 44.01 258.058 43.536 256.769 43.0544L 257.819 40.2441C 259.109 40.7263 260.376 41.2008 261.618 41.6665L 260.565 44.4755ZM 705.282 45.2266C 704.063 45.7472 702.843 46.2601 701.619 46.7655L 700.474 43.9927C 701.686 43.492 702.896 42.9837 704.103 42.468L 705.282 45.2266ZM 268.087 47.2977C 266.85 46.8344 265.583 46.3587 264.286 45.8719L 265.34 43.0632C 266.637 43.5501 267.904 44.0254 269.14 44.4883L 268.087 47.2977ZM 697.936 48.2607C 696.706 48.7517 695.473 49.2352 694.237 49.7113L 693.158 46.9119C 694.383 46.4401 695.605 45.9609 696.824 45.4744L 697.936 48.2607ZM 275.591 50.0857C 274.386 49.6433 273.142 49.1832 271.862 48.7069L 272.907 45.8951C 274.185 46.3702 275.424 46.8288 276.625 47.2694L 275.591 50.0857ZM 690.521 51.1181C 689.28 51.5798 688.036 52.0342 686.789 52.4815L 685.776 49.6577C 687.012 49.2143 688.245 48.7639 689.475 48.3063L 690.521 51.1181ZM 283.244 52.8237C 282.024 52.4029 280.746 51.9521 279.414 51.4741L 280.426 48.6503C 281.75 49.125 283.016 49.5716 284.222 49.9876L 283.244 52.8237ZM 683.042 53.8017C 681.791 54.2346 680.537 54.6604 679.28 55.0793L 678.331 52.2332C 679.577 51.8179 680.82 51.3957 682.061 50.9665L 683.042 53.8017ZM 288.957 54.6966C 288.356 54.5128 287.733 54.3172 287.091 54.1104L 288.01 51.2548C 288.64 51.4575 289.248 51.6486 289.834 51.8275L 289.836 51.8281C 290.403 52.0022 291.041 52.198 291.746 52.4137L 290.868 55.2823C 290.163 55.0666 289.525 54.8708 288.957 54.6966ZM 675.504 56.3149C 674.244 56.7196 672.982 57.1174 671.717 57.5085L 670.831 54.6423C 672.085 54.2544 673.337 53.8599 674.587 53.4586L 675.504 56.3149ZM 298.633 57.6483C 297.245 57.2271 295.944 56.8314 294.743 56.4656L 295.617 53.5958C 296.817 53.9613 298.117 54.3567 299.504 54.7775L 298.633 57.6483ZM 667.914 58.6616C 666.646 59.0388 665.376 59.4093 664.103 59.7734L 663.278 56.889C 664.541 56.5279 665.801 56.1603 667.059 55.7861L 667.914 58.6616ZM 306.393 59.9935C 305.051 59.5896 303.751 59.1975 302.502 58.8199L 303.37 55.9481C 304.618 56.3255 305.917 56.7172 307.258 57.1209L 306.393 59.9935ZM 660.278 60.846C 659.003 61.1966 657.725 61.5408 656.445 61.8787L 655.679 58.9781C 656.949 58.6427 658.217 58.3011 659.483 57.9533L 660.278 60.846ZM 314.147 62.3184C 312.828 61.9245 311.531 61.5366 310.264 61.1565L 311.125 58.2829C 312.392 58.6627 313.687 59.0503 315.005 59.4438L 314.147 62.3184ZM 652.6 62.873C 651.318 63.1979 650.033 63.5167 648.746 63.8294L 648.037 60.9142C 649.315 60.6038 650.59 60.2874 651.863 59.9649L 652.6 62.873ZM 321.921 64.6291C 320.613 64.2421 319.316 63.8576 318.035 63.4769L 318.89 60.6012C 320.17 60.9816 321.465 61.3657 322.772 61.7523L 321.921 64.6291ZM 644.884 64.748C 643.596 65.0481 642.305 65.3423 641.011 65.6308L 640.358 62.7027C 641.643 62.4163 642.924 62.1242 644.204 61.8262L 644.884 64.748ZM 329.694 66.9164C 328.394 66.536 327.097 66.1552 325.806 65.7753L 326.653 62.8973C 327.942 63.2768 329.238 63.6572 330.537 64.0371L 329.694 66.9164ZM 637.136 66.4763C 635.842 66.7525 634.545 67.023 633.247 67.2879L 632.647 64.3484C 633.937 64.0853 635.224 63.8166 636.51 63.5424L 637.136 66.4763ZM 629.357 68.0636C 628.06 68.3166 626.759 68.5642 625.457 68.8064L 624.909 65.857C 626.202 65.6163 627.494 65.3704 628.784 65.119L 629.357 68.0636ZM 337.479 69.1791C 336.186 68.8059 334.887 68.4295 333.586 68.0514L 334.423 65.1706C 335.722 65.5482 337.02 65.9241 338.311 66.2967L 337.479 69.1791ZM 621.553 69.5157C 620.252 69.7465 618.949 69.9721 617.644 70.1926L 617.144 67.2345C 618.441 67.0154 619.737 66.7911 621.029 66.5618L 621.553 69.5157ZM 345.273 71.409C 343.987 71.0444 342.685 70.6736 341.373 70.2981L 342.198 67.4139C 343.508 67.7888 344.807 68.1588 346.091 68.5226L 345.273 71.409ZM 613.727 70.8383C 612.423 71.0479 611.117 71.2525 609.81 71.4523L 609.357 68.4868C 610.657 68.2881 611.955 68.0847 613.251 67.8763L 613.727 70.8383ZM 605.881 72.0374C 604.575 72.2267 603.267 72.4114 601.958 72.5915L 601.549 69.6195C 602.851 69.4404 604.152 69.2567 605.45 69.0684L 605.881 72.0374ZM 353.089 73.597C 351.812 73.2445 350.508 72.8816 349.181 72.51L 349.99 69.6211C 351.313 69.9918 352.614 70.3537 353.888 70.7051L 353.089 73.597ZM 598.023 73.118C 596.714 73.2885 595.403 73.4544 594.09 73.616L 593.724 70.6385C 595.03 70.4777 596.334 70.3127 597.636 70.1432L 598.023 73.118ZM 590.152 74.0871C 588.839 74.2395 587.525 74.3877 586.209 74.5318L 585.883 71.5496C 587.192 71.4062 588.5 71.2588 589.806 71.1071L 590.152 74.0871ZM 360.927 75.7181C 359.662 75.3838 358.348 75.0319 356.993 74.6648L 357.777 71.7691C 359.127 72.1348 360.435 72.4851 361.693 72.8177L 360.927 75.7181ZM 582.268 74.9503C 580.953 75.0857 579.636 75.2171 578.317 75.3445L 578.029 72.3584C 579.341 72.2316 580.652 72.1008 581.961 71.966L 582.268 74.9503ZM 574.375 75.7134C 573.059 75.8326 571.741 75.9479 570.422 76.0595L 570.169 73.0702C 571.483 72.9591 572.794 72.8442 574.104 72.7256L 574.375 75.7134ZM 566.473 76.3822C 565.157 76.486 563.839 76.5862 562.52 76.6829L 562.301 73.691C 563.615 73.5946 564.927 73.4949 566.237 73.3915L 566.473 76.3822ZM 368.816 77.7202C 367.587 77.4256 366.26 77.0964 364.85 76.7371L 365.59 73.83C 366.99 74.1864 368.302 74.5122 369.515 74.8029L 368.816 77.7202ZM 558.564 76.9622C 557.248 77.0516 555.931 77.1376 554.611 77.2204L 554.424 74.2263C 555.738 74.1438 557.05 74.0582 558.36 73.9691L 558.564 76.9622ZM 550.649 77.4589C 549.334 77.5348 548.017 77.6076 546.698 77.6773L 546.539 74.6815C 547.853 74.612 549.166 74.5395 550.477 74.4639L 550.649 77.4589ZM 542.737 77.8773C 541.42 77.9407 540.1 78.0013 538.78 78.0589L 538.649 75.0618C 539.965 75.0043 541.28 74.944 542.593 74.8807L 542.737 77.8773ZM 534.822 78.223C 533.502 78.2749 532.181 78.324 530.858 78.3704L 530.753 75.3722C 532.071 75.326 533.388 75.277 534.704 75.2253L 534.822 78.223ZM 526.903 78.5012C 525.583 78.5422 524.261 78.5807 522.938 78.6167L 522.857 75.6178C 524.176 75.5819 525.493 75.5436 526.81 75.5027L 526.903 78.5012ZM 374.809 79.0191C 374.205 78.9112 373.535 78.7793 372.806 78.6259L 373.423 75.6901C 374.132 75.8392 374.773 75.9651 375.34 76.0666L 375.348 76.0679C 376.01 76.1897 376.665 76.3084 377.315 76.4241L 376.788 79.3775C 376.135 79.2611 375.475 79.1416 374.809 79.0191ZM 518.981 78.7169C 517.662 78.7478 516.342 78.7764 515.02 78.8027L 514.961 75.8033C 516.279 75.7771 517.596 75.7486 518.911 75.7177L 518.981 78.7169ZM 511.058 78.8748C 509.74 78.8965 508.421 78.916 507.101 78.9335L 507.061 75.9338C 508.378 75.9164 509.694 75.8969 511.009 75.8752L 511.058 78.8748ZM 503.135 78.9796C 501.818 78.9929 500.499 79.0042 499.179 79.0136L 499.158 76.0137C 500.475 76.0043 501.79 75.993 503.105 75.9798L 503.135 78.9796ZM 495.217 79.0361C 494.556 79.0389 493.895 79.0412 493.234 79.0431L 493.232 79.0432C 492.559 79.0444 491.893 79.0471 491.233 79.0513L 491.214 76.0513C 491.878 76.0471 492.549 76.0444 493.227 76.0432L 493.229 77.5432L 493.225 76.0432C 493.225 76.0432 493.226 76.0432 493.227 76.0432C 493.886 76.0412 494.546 76.0389 495.205 76.0361L 495.217 79.0361ZM 487.304 79.0935C 485.969 79.1139 484.661 79.1402 483.379 79.1717L 483.306 76.1726C 484.597 76.1408 485.913 76.1144 487.258 76.0939L 487.304 79.0935ZM 479.44 79.2874C 478.098 79.3334 476.785 79.3849 475.499 79.4415L 475.367 76.4444C 476.663 76.3874 477.986 76.3354 479.338 76.2892L 479.44 79.2874ZM 471.564 79.6337C 470.225 79.7057 468.916 79.7826 467.633 79.8638L 467.444 76.8698C 468.735 76.7881 470.054 76.7105 471.403 76.6381L 471.564 79.6337ZM 384.599 80.6767C 383.322 80.4805 382.02 80.272 380.69 80.0506L 381.183 77.0914C 382.5 77.3107 383.79 77.5173 385.054 77.7115L 384.599 80.6767ZM 463.706 80.1302C 462.37 80.2268 461.063 80.3271 459.781 80.4303L 459.541 77.4399C 460.83 77.3362 462.145 77.2352 463.489 77.138L 463.706 80.1302ZM 455.854 80.7601C 454.519 80.8765 453.208 80.9949 451.919 81.1137L 451.644 78.1263C 452.937 78.0072 454.252 77.8884 455.593 77.7714L 455.854 80.7601ZM 392.476 81.7742C 391.188 81.6143 389.873 81.4409 388.529 81.2534L 388.944 78.2822C 390.273 78.4677 391.573 78.639 392.846 78.7971L 392.476 81.7742ZM 446.876 81.5866C 445.926 81.6764 444.985 81.7655 444.051 81.853L 443.771 78.8661C 444.7 78.7791 445.636 78.6905 446.581 78.601L 447.703 78.495L 447.985 81.4817L 446.876 81.5866ZM 440.114 82.215C 438.79 82.3334 437.474 82.4469 436.162 82.5535L 435.919 79.5634C 437.221 79.4575 438.528 79.3448 439.846 79.2269L 440.114 82.215ZM 400.388 82.6217C 399.096 82.5064 397.777 82.3768 396.429 82.2321L 396.749 79.2493C 398.079 79.3921 399.38 79.5199 400.655 79.6336L 400.388 82.6217ZM 432.204 82.8527C 430.886 82.944 429.565 83.0264 428.237 83.0979L 428.076 80.1022C 429.387 80.0317 430.692 79.9502 431.997 79.8598L 432.204 82.8527ZM 408.326 83.1744C 407.027 83.1104 405.704 83.0318 404.353 82.9374L 404.562 79.9447C 405.893 80.0376 407.196 80.115 408.474 80.178L 408.326 83.1744ZM 424.262 83.2763C 422.95 83.3229 421.626 83.3573 420.285 83.3778L 420.239 80.3782C 421.559 80.358 422.863 80.3241 424.155 80.2782L 424.262 83.2763ZM 416.301 83.3962C 414.994 83.3882 413.666 83.3661 412.314 83.3284L 412.398 80.3296C 413.728 80.3667 415.034 80.3884 416.32 80.3963L 416.301 83.3962Z" transform="translate(-17721.4 -14587.5)" fill="#B5BEC2"></path>
                    </g>
                </g>
                <g id="Group 3.3">
                    <g id="Rectangle (Stroke)">
                        <path fill-rule="evenodd" d="M 67.135 4L 4 4L 4 45.8941L 67.135 45.8941L 67.135 4ZM 0 0L 0 49.8941L 71.135 49.8941L 71.135 0L 0 0Z" transform="matrix(0.879389 -0.476105 0.473428 0.880833 -16937.9 -14615.1)" fill="#B1BABE"></path>
                    </g>
                    <g id="Vector (Stroke)">
                        <path fill-rule="evenodd" d="M 0 3.20088L 2.39883 0L 34.6647 24.181L 66.0911 0.580662L 68.4931 3.77917L 34.6672 29.1814L 0 3.20088Z" transform="matrix(0.879389 -0.476105 0.473428 0.880833 -16937 -14615.5)" fill="#B1BABE"></path>
                    </g>
                </g>
            </g>
        </g>
    </g>
</svg>