<svg width="41" height="6" viewBox="0 0 41 6" version="1.1" xmlns="http://www.w3.org/2000/svg" xmlns:xlink="http://www.w3.org/1999/xlink">
<title>Vector</title>
<desc>Created using Figma</desc>
<g id="Canvas" transform="translate(17179 18509)">
<g id="Vector">
<use xlink:href="#path0_stroke" transform="matrix(-1 0 0 1 -17139 -18508)" fill="#FFFFFF"/>
</g>
</g>
<defs>
<path id="path0_stroke" d="M 0 -1C -0.552285 -1 -1 -0.552285 -1 0C -1 0.552285 -0.552285 1 0 1L 0 -1ZM 39 5C 39.5523 5 40 4.55228 40 4C 40 3.44772 39.5523 3 39 3L 39 5ZM 0 1C 1.50029 1 2.21578 1.70506 3.184 2.6981C 4.16578 3.70506 5.40029 5 7.8 5L 7.8 3C 6.29971 3 5.58422 2.29494 4.616 1.3019C 3.63422 0.294945 2.39971 -1 0 -1L 0 1ZM 7.8 5C 10.1997 5 11.4342 3.70506 12.416 2.6981C 13.3842 1.70506 14.0997 1 15.6 1L 15.6 -1C 13.2003 -1 11.9658 0.294945 10.984 1.3019C 10.0158 2.29494 9.30029 3 7.8 3L 7.8 5ZM 15.6 1C 17.1003 1 17.8158 1.70506 18.784 2.6981C 19.7658 3.70506 21.0003 5 23.4 5L 23.4 3C 21.8997 3 21.1842 2.29494 20.216 1.3019C 19.2342 0.294945 17.9997 -1 15.6 -1L 15.6 1ZM 23.4 5C 25.7997 5 27.0342 3.70506 28.016 2.6981C 28.9842 1.70506 29.6997 1 31.2 1L 31.2 -1C 28.8003 -1 27.5658 0.294944 26.584 1.3019C 25.6158 2.29494 24.9003 3 23.4 3L 23.4 5ZM 31.2 1C 32.7003 1 33.4158 1.70506 34.384 2.6981C 35.3658 3.70506 36.6003 5 39 5L 39 3C 37.4997 3 36.7842 2.29494 35.816 1.3019C 34.8342 0.294945 33.5997 -1 31.2 -1L 31.2 1Z"/>
</defs>
</svg>
