<svg width="181" height="12" viewBox="0 0 181 12" version="1.1" xmlns="http://www.w3.org/2000/svg" xmlns:xlink="http://www.w3.org/1999/xlink">
    <title>Group</title>
    <desc>Created using Figma</desc>
    <g id="Canvas" transform="translate(16541 19338)">
        <g id="Group">
            <g id="Vector">
                <path d="M 99.3 12C 93.7 12 90.8 9.6 88.3 7.5C 86 5.6 84 4 79.8 4C 75.6 4 73.7 5.6 71.3 7.5C 68.8 9.6 65.9 12 60.3 12C 54.7 12 51.8 9.6 49.3 7.5C 47.1 5.6 45.1 4 40.9 4C 36.8 4 34.8 5.6 32.4 7.5C 29.9 9.6 27 12 21.5 12C 15.9 12 13 9.6 10.5 7.5C 8.1 5.6 6.1 4 2 4C 0.9 4 0 3.1 0 2C 0 0.9 0.9 0 2 0C 7.6 0 10.5 2.4 13 4.5C 15.3 6.4 17.3 8 21.5 8C 25.6 8 27.6 6.4 30 4.5C 32.5 2.4 35.4 0 41 0C 46.6 0 49.5 2.4 52 4.5C 54.2 6.4 56.2 8 60.4 8C 64.6 8 66.5 6.4 68.9 4.5C 71.4 2.4 74.3 0 79.9 0C 85.5 0 88.4 2.4 90.9 4.5C 93.2 6.4 95.1 8 99.3 8C 100.4 8 101.3 8.9 101.3 10C 101.3 11.1 100.4 12 99.3 12Z" transform="translate(-16541 -19338)" fill="#ffffff" fill-opacity="0.4"></path>
            </g>
            <g id="Vector">
                <path d="M 99.3 12C 93.7 12 90.8 9.6 88.3 7.5C 86 5.6 84 4 79.8 4C 75.6 4 73.7 5.6 71.3 7.5C 68.8 9.6 65.9 12 60.3 12C 54.7 12 51.8 9.6 49.3 7.5C 47 5.6 45 4 40.8 4C 36.7 4 34.7 5.6 32.3 7.5C 29.8 9.6 26.9 12 21.3 12C 15.7 12 12.8 9.6 10.3 7.5C 8.2 5.6 6.2 4 2 4C 0.899998 4 -1.52588e-06 3.1 -1.52588e-06 2C -1.52588e-06 0.9 0.899998 0 2 0C 7.6 0 10.5 2.4 13 4.5C 15.3 6.4 17.3 8 21.5 8C 25.6 8 27.6 6.4 30 4.5C 32.5 2.4 35.4 0 41 0C 46.6 0 49.5 2.4 52 4.5C 54.3 6.4 56.3 8 60.5 8C 64.7 8 66.6 6.4 69 4.5C 71.5 2.4 74.4 0 80 0C 85.6 0 88.5 2.4 91 4.5C 93.3 6.4 95.3 8 99.5 8C 100.6 8 101.5 8.9 101.5 10C 101.5 11.1 100.4 12 99.3 12Z" transform="translate(-16462.4 -19338)" fill="#ffffff" fill-opacity="0.4"></path>
            </g>
        </g>
    </g>
</svg>