<?xml version="1.0" encoding="utf-8"?>
<!-- Generator: Adobe Illustrator 19.2.0, SVG Export Plug-In . SVG Version: 6.00 Build 0)  -->
<svg version="1.1" id="Слой_1" xmlns="http://www.w3.org/2000/svg" xmlns:xlink="http://www.w3.org/1999/xlink" x="0px" y="0px"
	 viewBox="0 0 181 12" style="enable-background:new 0 0 181 12;" xml:space="preserve">
<style type="text/css">
	.st0{fill:#FFFFFF;}
</style>
<title>Group</title>
<desc>Created using Figma</desc>
<g id="Canvas" transform="translate(16541 19338)">
	<g id="Group">
		<g id="Vector">
			<g transform="translate(-16541 -19338)">
				<path id="path0_fill" class="st0" d="M-16441.7-19326c-5.6,0-8.5-2.4-11-4.5c-2.3-1.9-4.3-3.5-8.5-3.5c-4.2,0-6.1,1.6-8.5,3.5
					c-2.5,2.1-5.4,4.5-11,4.5c-5.6,0-8.5-2.4-11-4.5c-2.2-1.9-4.2-3.5-8.4-3.5c-4.1,0-6.1,1.6-8.5,3.5c-2.5,2.1-5.4,4.5-10.9,4.5
					c-5.6,0-8.5-2.4-11-4.5c-2.4-1.9-4.4-3.5-8.5-3.5c-1.1,0-2-0.9-2-2s0.9-2,2-2c5.6,0,8.5,2.4,11,4.5c2.3,1.9,4.3,3.5,8.5,3.5
					c4.1,0,6.1-1.6,8.5-3.5c2.5-2.1,5.4-4.5,11-4.5s8.5,2.4,11,4.5c2.2,1.9,4.2,3.5,8.4,3.5c4.2,0,6.1-1.6,8.5-3.5
					c2.5-2.1,5.4-4.5,11-4.5s8.5,2.4,11,4.5c2.3,1.9,4.2,3.5,8.4,3.5c1.1,0,2,0.9,2,2S-16440.6-19326-16441.7-19326z"/>
			</g>
		</g>
		<g id="Vector_1_">
			<g transform="translate(-16462.4 -19338)">
				<path id="path1_fill" class="st0" d="M-16363.1-19326c-5.6,0-8.5-2.4-11-4.5c-2.3-1.9-4.3-3.5-8.5-3.5s-6.1,1.6-8.5,3.5
					c-2.5,2.1-5.4,4.5-11,4.5c-5.6,0-8.5-2.4-11-4.5c-2.3-1.9-4.3-3.5-8.5-3.5c-4.1,0-6.1,1.6-8.5,3.5c-2.5,2.1-5.4,4.5-11,4.5
					c-5.6,0-8.5-2.4-11-4.5c-2.1-1.9-4.1-3.5-8.3-3.5c-1.1,0-2-0.9-2-2s0.9-2,2-2c5.6,0,8.5,2.4,11,4.5c2.3,1.9,4.3,3.5,8.5,3.5
					c4.1,0,6.1-1.6,8.5-3.5c2.5-2.1,5.4-4.5,11-4.5s8.5,2.4,11,4.5c2.3,1.9,4.3,3.5,8.5,3.5s6.1-1.6,8.5-3.5c2.5-2.1,5.4-4.5,11-4.5
					s8.5,2.4,11,4.5c2.3,1.9,4.3,3.5,8.5,3.5c1.1,0,2,0.9,2,2S-16362-19326-16363.1-19326z"/>
			</g>
		</g>
	</g>
</g>
</svg>
